<?xml version="1.0" encoding="utf-8"?>
<svg xmlns="http://www.w3.org/2000/svg" xmlns:xlink="http://www.w3.org/1999/xlink">
    <symbol viewBox="0 0 100 83" id="haski-inst1" xmlns="http://www.w3.org/2000/svg">
        <g fill="none" fill-rule="evenodd">
            <path fill="#FFF" d="M86.503 0L12.995 16.216 0 24.191v42.225l26.357 15.661 16.475-3.634v2.126l2.034 1.205 3.63-.8v-3.78l6.006-1.326 9.967 5.906 20.775-4.583v-3.744l-4.986-2.977-20.774 4.584h-.001l20.775-4.584-.005-.282 11.672-2.576v2.126l2.035 1.138v.068l3.63-.801v-3.78l2.274-.502v-42.29l-18.768 4.14-.346.077 19.115-4.218L86.503 0zm-5.854 27.81l-.208.046-12.372 2.73-.13.028 12.71-2.804zm-22.416 4.945l-.206.046-2.155.475-.11.024 2.47-.545zm-5.14 1.134l-.126.028-1.94.428-.093.02 2.16-.476zm-7.277 1.606l-.074.016-4.384.967-.088.02 4.546-1.003zm-9.345 2.061l-10.113 2.232 10.113-2.232z" />
            <path fill="#DBDBDB" d="M26.156 39.798v42.28l73.709-16.213v-42.28z" />
            <path fill="#EFEFEF" d="M86.479 0l-73.64 16.342 13.387 23.754 73.639-16.343z" />
            <path fill="#B7B7B7" d="M0 24.035v42.34l26.155 15.703V39.673l-13.26-23.635z" />
            <path fill="#EFEFEF" d="M95.11 34.907v16.762l-13.791 3.05V37.956z" />
            <path fill="#5781C1" d="M54.688 33.84l20.924-4.594v36.917l-20.924 4.594z" />
            <path fill="#90B2CD" d="M57.541 36.366l14.267-3.346v14.765l-14.267 3.16z" />
            <path fill="#5781C1" d="M59.443 37.838l10.462-2.46v10.885l-10.462 2.323z" />
            <path fill="#90B2CD" d="M57.541 57.112l14.267-3.337v10.528L57.54 67.455z" />
            <path fill="#5781C1" d="M59.443 58.586l10.462-2.452v6.646l-10.462 2.316z" />
            <path fill="#90B2CD" d="M57.292 53.894c0 .574-.372 1.04-.832 1.04-.46 0-.832-.466-.832-1.04 0-.575.372-1.041.832-1.041.46 0 .832.466.832 1.04" />
            <path fill="#3A66A5" d="M59.777 53.446l-3.074.816c-.305.081-.555-.083-.555-.368s.25-.578.555-.654l3.074-.76c.27-.068.488.093.488.357 0 .265-.218.537-.488.609" />
            <path fill="#009D4C" d="M97.588 35.996l-3.757.83-2.078.458-2.72.604-2.079.457-2.725.604-2.073.458-2.734.604-2.074.457-2.106.467-2.064.458-2.592.575-2.092.463-3.386.745-2.083.462-2.725.604-2.078.457-2.725.604-2.078.458-2.72.604-2.079.457-3.756.83-8.394-10.189 3.757-.83 2.078-.457 2.71-.6 2.079-.462 2.71-.599 2.083-.457 2.697-.6 2.083-.457 3.252-.722 2.093-.462 2.991-.66 2.064-.458 1.978-.434 2.069-.458 2.71-.599 2.074-.457 2.71-.6 2.079-.461 2.72-.6 2.073-.457 3.752-.83z" />
            <path fill="#0E893F" d="M93.83 36.827l-2.077.457-8.346-10.194 2.073-.457zm-4.798 1.061l-2.078.457-8.346-10.193 2.079-.462zM84.23 38.95l-2.074.457-8.332-10.199 2.074-.457zm-4.808 1.06l-2.074.458-8.303-10.203 2.069-.458zm-4.18.925l-2.064.458-8.175-10.236 2.064-.458zm-4.656 1.033l-2.092.463-8.575-10.152 2.093-.462zm-5.478 1.208l-2.083.462-8.441-10.18 2.083-.457zM60.3 44.242l-2.078.457-8.417-10.184 2.082-.457zm-4.803 1.061l-2.078.458-8.403-10.184 2.078-.463zm-4.798 1.062l-2.079.457-8.393-10.189 2.078-.457z" />
            <path fill="#EFEFEF" d="M48.496 80.971l-3.63.803v-34.12l3.63-.803z" />
            <path fill="#B7B7B7" d="M44.866 81.774l-2.034-1.208V45.184l2.034 2.47z" />
            <path fill="#EFEFEF" d="M97.59 70.118l-3.63.803V36.8l3.63-.803z" />
            <path fill="#B7B7B7" d="M93.96 70.853l-2.035-1.14V37.25l2.035-.45z" />
            <path fill="#EFEFEF" d="M80.229 68.728l-20.746 4.586-4.98-2.984 20.774-4.592zm5.015 4.702L64.47 78.021l-4.986-2.982 20.775-4.593z" />
            <path fill="#DBDBDB" d="M80.258 70.447L59.483 75.04v-1.726l20.745-4.586zm4.986 6.734L64.47 81.774v-3.752l20.775-4.593z" />
            <path fill="#B7B7B7" d="M54.502 70.33l4.98 2.984v1.726l4.987 2.982v3.752l-9.967-5.918z" />
        </g>
    </symbol>
    <symbol viewBox="0 0 99 73" id="haski-inst2" xmlns="http://www.w3.org/2000/svg">
        <defs>
            <path id="ba" d="M0 .263h98.544v72.423H0z" />
            <path id="bc" d="M.096.138h96.608v31.145H.096z" />
            <path id="be" d="M.096.263h71.109v57.16H.095z" />
        </defs>
        <g fill="none" fill-rule="evenodd">
            <g transform="translate(0 .197)">
                <!-- <mask id="bb" fill="#fff">
                    <use xlink:href="#ba" />
                </mask> -->
                <path fill="#FFF" d="M98.544 56.803h-.001V15.509L72.913.263 1.936 16.116V26.76A15.154 15.154 0 0 0 0 29.74l1.936 1.143v26.54l16.672 9.98 2.44 1.46 6.386 3.822 71.11-15.883z" mask="url(#bb)" />
            </g>
            <g transform="translate(1.84 41.6)">
                <!-- <mask id="bd" fill="#fff">
                    <use xlink:href="#bc" />
                </mask> -->
                <path fill="#D9D9D9" d="M.096 15.4l25.498 15.883L96.704 15.4 71.204.138z" mask="url(#bd)" />
            </g>
            <g transform="translate(1.84 .197)">
                <!-- <mask id="bf" fill="#fff">
                    <use xlink:href="#be" />
                </mask> -->
                <path fill="#EDEDED" d="M71.073.263L.096 16.115v41.309L71.205 41.54z" mask="url(#bf)" />
            </g>
            <path fill="#B5B5B5" d="M1.936 57.621l25.498 15.262V31.554L1.936 16.313zm71.109-15.883l25.498 15.263V15.707L72.913.46z" />
            <path fill="#6580BC" d="M92.157 21.183L78.05 12.855v31.88l14.106 8.443z" />
            <path fill="#98AFCA" d="M89.689 23.088v9.104l-9.762-5.75v-9.104z" />
            <path fill="#6580BC" d="M81.27 25.673v-5.984l7.075 4.168v5.984z" />
            <path fill="#98AFCA" d="M89.689 39.38v9.105l-9.762-5.752V33.63z" />
            <path fill="#6580BC" d="M81.27 41.965v-5.984l7.075 4.168v5.984z" />
            <path fill="#98AFCA" d="M78.991 30.064c0 .387.249.7.555.7.306 0 .554-.314.554-.7 0-.386-.247-.699-.554-.699-.306 0-.555.313-.555.7" />
            <path fill="#4B66A1" d="M79.598 30.48l1.933.873c.192.087.374.005.405-.184.031-.19-.102-.41-.294-.493l-1.94-.837c-.17-.073-.33.01-.358.184a.454.454 0 0 0 .254.457" />
            <path fill="#6580BC" d="M21.048 37.066L6.942 28.738v31.88l14.106 8.443z" />
            <path fill="#98AFCA" d="M18.58 38.97v9.105l-9.762-5.75V33.22z" />
            <path fill="#6580BC" d="M10.161 41.555v-5.983l7.075 4.167v5.985z" />
            <path fill="#98AFCA" d="M18.58 55.264v9.103l-9.762-5.751v-9.103z" />
            <path fill="#6580BC" d="M10.161 57.848v-5.984l7.075 4.168v5.984z" />
            <path fill="#98AFCA" d="M7.882 45.947c0 .386.248.7.554.7.307 0 .555-.314.555-.7 0-.386-.247-.7-.555-.7-.306 0-.554.314-.554.7" />
            <path fill="#4B66A1" d="M8.49 46.363l1.932.873c.192.087.373.005.405-.184.031-.19-.102-.41-.294-.494l-1.94-.836c-.17-.074-.33.01-.359.184a.454.454 0 0 0 .255.457" />
            <path fill="#EDEDED" d="M92.157 21.183L78.05 12.855v31.88l14.106 8.443z" />
            <path fill="#B5B5B5" d="M80.928 30.87c0-.56-.36-1.014-.805-1.014-.444 0-.805.455-.805 1.015 0 .56.36 1.015.805 1.015.444 0 .805-.455.805-1.015" />
            <path fill="#D9D9D9" d="M83.065 32.282l-2.627-1.605c-.261-.159-.539-.073-.617.194-.079.266.072.609.334.763l2.642 1.553c.233.136.479.046.551-.202.073-.248-.053-.56-.283-.703" />
            <path fill="#009D4C" d="M18.518 40.871L0 29.94c1.984-3.968 4.83-5.957 7.59-6.624l18.52 10.932c-2.76.667-5.607 2.655-7.591 6.623" />
            <path fill="#009D4C" d="M20.366 33.664l1.622 2.688 4.12 2.574v-4.678l-5.742-.584zm.87.55l4.413.45v3.432l-3.325-2.076-1.089-1.805z" />
        </g>
    </symbol>
    <symbol viewBox="0 0 967 436" id="haski-sizes" xmlns="http://www.w3.org/2000/svg">
        <defs>
            <path id="ca" d="M0 0h87v180H0z" />
            <path id="cb" d="M3.783 3.81h79.435V180H3.783z" />
            <path id="cc" d="M0 0h87v180H0z" />
            <path id="cd" d="M3.783 3.81h79.435V180H3.783z" />
            <path id="ce" d="M0 0h23.641v122.857H0z" />
            <path id="cf" d="M0 0h19.859v119.048H0z" />
            <path id="ch" d="M29.488 0H117v180H29.488z" />
            <path id="ci" d="M33.293 3.81h79.902V180H33.293z" />
            <path id="cj" d="M0 0h23.78v122.857H0z" />
            <path id="ck" d="M0 0h19.976v119.048H0z" />
            <path id="cm" d="M0 0h30.439v180H0z" />
            <path id="cn" d="M0 0h19.976v157.143H0z" />
            <path id="cp" d="M29.39 0h87.221v180H29.39z" />
            <path id="cq" d="M33.182 3.81h79.636V180H33.182z" />
            <path id="cr" d="M115.662 0H146v180h-30.338z" />
            <path id="cs" d="M0 0h30.338v180H0z" />
            <path id="ct" d="M0 0h19.909v157.143H0z" />
            <path id="cv" d="M0 0h19.909v157.143H0z" />
            <path id="cx" d="M29.39 0h87.221v180H29.39z" />
            <path id="cy" d="M33.182 3.81h79.636V180H33.182z" />
            <path id="cz" d="M0 0h23.701v122.857H0z" />
            <path id="cA" d="M0 0h19.909v119.048H0z" />
            <path id="cC" d="M115.662 0H146v180h-30.338z" />
            <path id="cD" d="M0 0h30.338v180H0z" />
            <path id="cE" d="M0 0h19.909v157.143H0z" />
            <path id="cG" d="M0 0h19.909v157.143H0z" />
            <path id="cI" d="M0 30.262h87V209H0z" />
            <path id="cJ" d="M3.783 34.045h79.435V209H3.783z" />
            <path id="cK" d="M0 0h87v31.208H0z" />
            <path id="cL" d="M0 0h19.859v77.548H0z" />
            <path id="cN" d="M0 30.262h87V209H0z" />
            <path id="cO" d="M3.783 34.045h79.435V209H3.783z" />
            <path id="cP" d="M0 0h23.641v121.995H0z" />
            <path id="cQ" d="M0 0h19.859v118.213H0z" />
            <path id="cS" d="M0 0h87v31.208H0z" />
            <path id="cT" d="M0 0h19.859v77.548H0z" />
            <path id="cV" d="M29.488 30.262H117V209H29.488z" />
            <path id="cW" d="M33.293 34.045h79.902V209H33.293z" />
            <path id="cX" d="M0 0h23.78v121.995H0z" />
            <path id="cY" d="M0 0h19.976v118.213H0z" />
            <path id="caa" d="M0 30.262h30.439V209H0z" />
            <path id="cab" d="M0 0h19.976v156.041H0z" />
            <path id="cad" d="M0 0h117v31.208H0z" />
            <path id="cae" d="M0 0h19.976v107.81H0z" />
            <path id="cag" d="M29.39 30.262h87.221V209H29.39z" />
            <path id="cah" d="M33.182 34.045h79.636V209H33.182z" />
            <path id="cai" d="M115.662 30.262H146V209h-30.338z" />
            <path id="caj" d="M0 30.262h30.338V209H0z" />
            <path id="cak" d="M0 0h19.909v156.041H0z" />
            <path id="cam" d="M0 0h19.909v156.041H0z" />
            <path id="cao" d="M0 0h146v31.208H0z" />
            <path id="cap" d="M0 0h19.91v136.181H0z" />
            <path id="car" d="M29.39 30.262h87.221V209H29.39z" />
            <path id="cas" d="M33.182 34.045h79.636V209H33.182z" />
            <path id="cat" d="M0 0h23.701v121.995H0z" />
            <path id="cau" d="M0 0h19.909v118.213H0z" />
            <path id="caw" d="M115.662 30.262H146V209h-30.338z" />
            <path id="cax" d="M0 30.262h30.338V209H0z" />
            <path id="cay" d="M0 0h19.909v156.041H0z" />
            <path id="caA" d="M0 0h19.909v156.041H0z" />
            <path id="caC" d="M0 0h146v31.208H0z" />
            <path id="caD" d="M0 0h19.91v136.181H0z" />
            <path id="caF" d="M67.089 0h197.32v406.48H67.089z" />
            <path id="caG" d="M74.982 8.879H255.53v397.6H74.982z" />
            <path id="caH" d="M0 0h69.062v406.48H0z" />
            <path id="caI" d="M0 0h45.384v355.176H0z" />
        </defs>
        <g fill="none" fill-rule="evenodd">
            <g transform="translate(324 29)">
                <g fill="#fff">
                	<path id="ca" d="M0 0h87v180H0z" />
                </g>
                <path stroke="#C3BA95" stroke-width=".5" d="M.25.25h86.5v179.5H.25z" />
            </g>
            <g transform="translate(324 29)">
                <g fill="#fff"><path id="cb" d="M3.783 3.81h79.435V180H3.783z" /></g>
                <path stroke="#C3BA95" stroke-width=".5" d="M4.033 4.06h78.935v175.69H4.033z" />
            </g>
            <path fill="#9A9A9A" d="M338.185 113.762h8.028a1.429 1.429 0 1 1 0 2.857h-8.028v9.064a2.364 2.364 0 1 1-4.728 0v-15.271a2.364 2.364 0 1 1 4.728 0v3.35z" />
            <g transform="translate(426 29)">
                <g fill="#fff"><path id="cc" d="M0 0h87v180H0z" /></g>
                <path stroke="#C3BA95" stroke-width=".5" d="M.25.25h86.5v179.5H.25z" />
            </g>
            <g transform="translate(426 29)">
                <g fill="#fff"><path id="cd" d="M3.783 3.81h79.435V180H3.783z" /></g>
                <path stroke="#C3BA95" stroke-width=".5" d="M4.033 4.06h78.935v175.69H4.033z" />
            </g>
            <path fill="#9A9A9A" d="M440.185 113.762h8.028a1.429 1.429 0 1 1 0 2.857h-8.028v9.064a2.364 2.364 0 1 1-4.728 0v-15.271a2.364 2.364 0 1 1 4.728 0v3.35z" />
            <g transform="translate(458.152 57.571)">
                <g fill="#fff"><path id="ce" d="M0 0h23.641v122.857H0z" /></g>
                <path stroke="#C3BA95" stroke-width=".5" d="M.25.25h23.141v122.357H.25z" />
            </g>
            <g transform="translate(460.043 59.476)">
                <!-- <mask id="cg" fill="#fff">
                    <use xlink:href="#cf" />
                </mask> -->
                <g fill="#DCEFF8"><path id="cf" d="M0 0h19.859v119.048H0z" /></g>
                <path fill="#B0DDF1" d="M0 72.381l19.859 9.524v37.143H0z" mask="url(#cg)" />
            </g>
            <g transform="translate(528 29)">
                <g fill="#fff"><path id="ch" d="M29.488 0H117v180H29.488z" /></g>
                <path stroke="#C3BA95" stroke-width=".5" d="M29.738.25h87.012v179.5H29.738z" />
            </g>
            <g transform="translate(528 29)">
                <g fill="#fff"><path id="ci" d="M33.293 3.81h79.902V180H33.293z" /></g>
                <path stroke="#C3BA95" stroke-width=".5" d="M33.543 4.06h79.402v175.69H33.543z" />
            </g>
            <path fill="#9A9A9A" d="M571.756 113.762h8.084a1.429 1.429 0 1 1 0 2.857h-8.084v9.05a2.378 2.378 0 0 1-4.756 0v-15.243a2.378 2.378 0 0 1 4.756 0v3.336z" />
            <g transform="translate(589.83 57.571)">
                <g fill="#fff"><path id="cj" d="M0 0h23.78v122.857H0z" /></g>
                <path stroke="#C3BA95" stroke-width=".5" d="M.25.25h23.28v122.357H.25z" />
            </g>
            <g transform="translate(591.732 59.476)">
               <!--  <mask id="cl" fill="#fff">
                    <use xlink:href="#ck" />
                </mask> -->
               <g fill="#DCEFF8"><path id="ck" d="M0 0h19.976v119.048H0z" /></g>
                <path fill="#B0DDF1" d="M0 72.381l19.976 9.524v37.143H0z" mask="url(#cl)" />
            </g>
            <g transform="translate(528 29)">
                <g fill="#fff"><path id="cm" d="M0 0h30.439v180H0z" /></g>
                <path stroke="#C3BA95" stroke-width=".5" d="M.25.25h29.939v179.5H.25z" />
            </g>
            <g transform="translate(533.707 39.476)">
                <!-- <mask id="co" fill="#fff">
                    <use xlink:href="#cn" />
                </mask> -->
                <g fill="#DCEFF8"><path id="cn" d="M0 0h19.976v157.143H0z" /></g>
                <path fill="#B0DDF1" d="M0 96.19l19.976 9.524v51.429H0z" mask="url(#co)" />
            </g>
            <g transform="translate(660 29)">
                <g fill="#fff"><path id="cp" d="M29.39 0h87.221v180H29.39z" /></g>
                <path stroke="#C3BA95" stroke-width=".5" d="M29.64.25h86.721v179.5H29.64z" />
            </g>
            <g transform="translate(660 29)">
                <g fill="#fff"><path id="cq" d="M33.182 3.81h79.636V180H33.182z" /></g>
                <path stroke="#C3BA95" stroke-width=".5" d="M33.432 4.06h79.136v175.69H33.432z" />
            </g>
            <path fill="#9A9A9A" d="M703.61 113.762h8.052a1.429 1.429 0 1 1 0 2.857h-8.052v9.058a2.37 2.37 0 0 1-4.74 0v-15.26a2.37 2.37 0 1 1 4.74 0v3.345z" />
            <g transform="translate(660 29)">
                <g fill="#fff"><path id="cr" d="M115.662 0H146v180h-30.338z" /></g>
                <path stroke="#C3BA95" stroke-width=".5" d="M115.912.25h29.838v179.5h-29.838z" />
            </g>
            <g transform="translate(660 29)">
                <g fill="#fff"><path id="cs" d="M0 0h30.338v180H0z" /></g>
                <path stroke="#C3BA95" stroke-width=".5" d="M.25.25h29.838v179.5H.25z" />
            </g>
            <g transform="translate(781.35 39.476)">
                <!-- <mask id="cu" fill="#fff">
                    <use xlink:href="#ct" />
                </mask> -->
                <g fill="#DCEFF8"><path id="ct" d="M0 0h19.909v157.143H0z" /></g>
                <path fill="#B0DDF1" d="M0 96.19l19.91 9.524v51.429H0z" mask="url(#cu)" />
            </g>
            <g transform="translate(665.688 39.476)">
                <!-- <mask id="cw" fill="#fff">
                    <use xlink:href="#cv" />
                </mask> -->
                <g fill="#DCEFF8"><path id="cv" d="M0 0h19.909v157.143H0z" /></g>
                <path fill="#B0DDF1" d="M0 96.19l19.91 9.524v51.429H0z" mask="url(#cw)" />
            </g>
            <g transform="translate(821 29)">
                <g fill="#fff"><path id="cx" d="M29.39 0h87.221v180H29.39z" /></g>
                <path stroke="#C3BA95" stroke-width=".5" d="M29.64.25h86.721v179.5H29.64z" />
            </g>
            <g transform="translate(821 29)">
                <g fill="#fff"><path id="cy" d="M33.182 3.81h79.636V180H33.182z" /></g>
                <path stroke="#C3BA95" stroke-width=".5" d="M33.432 4.06h79.136v175.69H33.432z" />
            </g>
            <path fill="#9A9A9A" d="M864.61 113.762h8.052a1.429 1.429 0 1 1 0 2.857h-8.052v9.058a2.37 2.37 0 0 1-4.74 0v-15.26a2.37 2.37 0 1 1 4.74 0v3.345z" />
            <g transform="translate(882.623 57.571)">
                <g fill="#fff"> <path id="cz" d="M0 0h23.701v122.857H0z" /></g>
                <path stroke="#C3BA95" stroke-width=".5" d="M.25.25h23.201v122.357H.25z" />
            </g>
            <g transform="translate(884.52 59.476)">
                <!-- <mask id="cB" fill="#fff">
                    <use xlink:href="#cA" />
                </mask> -->
                <g fill="#DCEFF8"><path id="cA" d="M0 0h19.909v119.048H0z" /></g>
                <path fill="#B0DDF1" d="M0 72.381l19.91 9.524v37.143H0z" mask="url(#cB)" />
            </g>
            <g transform="translate(821 29)">
                <g fill="#fff"><path id="cC" d="M115.662 0H146v180h-30.338z" /></g>
                <path stroke="#C3BA95" stroke-width=".5" d="M115.912.25h29.838v179.5h-29.838z" />
            </g>
            <g transform="translate(821 29)">
                <g fill="#fff"><path id="cD" d="M0 0h30.338v180H0z" /></g>
                <path stroke="#C3BA95" stroke-width=".5" d="M.25.25h29.838v179.5H.25z" />
            </g>
            <g transform="translate(942.35 39.476)">
                <!-- <mask id="cF" fill="#fff">
                    <use xlink:href="#cE" />
                </mask> -->
                <g fill="#DCEFF8"><path id="cE" d="M0 0h19.909v157.143H0z" /></g>
                <path fill="#B0DDF1" d="M0 96.19l19.91 9.524v51.429H0z" mask="url(#cF)" />
            </g>
            <g transform="translate(826.688 39.476)">
               <!--  <mask id="cH" fill="#fff">
                    <use xlink:href="#cG" />
                </mask> -->
                <g fill="#DCEFF8"><path id="cG" d="M0 0h19.909v157.143H0z" /></g>
                <path fill="#B0DDF1" d="M0 96.19l19.91 9.524v51.429H0z" mask="url(#cH)" />
            </g>
            <g transform="translate(324 227)">
               <g fill="#fff"><path id="cI" d="M0 30.262h87V209H0z" /></g>
                <path stroke="#C3BA95" stroke-width=".5" d="M.25 30.512h86.5V208.75H.25z" />
            </g>
            <g transform="translate(324 227)">
                <g fill="#fff"><path id="cJ" d="M3.783 34.045h79.435V209H3.783z" /></g>
                <path stroke="#C3BA95" stroke-width=".5" d="M4.033 34.295h78.935V208.75H4.033z" />
            </g>
            <path fill="#9A9A9A" d="M338.185 341.43h8.038a1.419 1.419 0 0 1 0 2.837h-8.038v8.984a2.364 2.364 0 1 1-4.728 0V338.12a2.364 2.364 0 1 1 4.728 0v3.31z" />
            <g transform="translate(324 227)">
                <g fill="#fff"><path id="cK" d="M0 0h87v31.208H0z" /></g>
                <path stroke="#C3BA95" stroke-width=".5" d="M.25.25h86.5v30.708H.25z" />
            </g>
            <g transform="rotate(90 86.8 319.474)">
                <!-- <mask id="cM" fill="#fff">
                    <use xlink:href="#cL" />
                </mask> -->
                <g fill="#DCEFF8"><path id="cL" d="M0 0h19.859v77.548H0z" /></g>
                <path fill="#B0DDF1" d="M0 0l19.859 77.548H0z" mask="url(#cM)" transform="matrix(-1 0 0 1 19.859 0)" />
            </g>
            <g transform="translate(426 227)">
                <g fill="#fff"> <path id="cN" d="M0 30.262h87V209H0z" /></g>
                <path stroke="#C3BA95" stroke-width=".5" d="M.25 30.512h86.5V208.75H.25z" />
            </g>
            <g transform="translate(426 227)">
                <g fill="#fff"><path id="cO" d="M3.783 34.045h79.435V209H3.783z" /></g>
                <path stroke="#C3BA95" stroke-width=".5" d="M4.033 34.295h78.935V208.75H4.033z" />
            </g>
            <path fill="#9A9A9A" d="M440.185 341.43h8.038a1.419 1.419 0 0 1 0 2.837h-8.038v8.984a2.364 2.364 0 1 1-4.728 0V338.12a2.364 2.364 0 1 1 4.728 0v3.31z" />
            <g transform="translate(458.152 285.633)">
                <g fill="#fff"><path id="cP" d="M0 0h23.641v121.995H0z" /></g>
                <path stroke="#C3BA95" stroke-width=".5" d="M.25.25h23.141v121.495H.25z" />
            </g>
            <g transform="translate(460.043 287.525)">
                <!-- <mask id="cR" fill="#fff">
                    <use xlink:href="#cQ" />
                </mask> -->
                <g fill="#DCEFF8"><path id="cQ" d="M0 0h19.859v118.213H0z" /></g>
                <path fill="#B0DDF1" d="M0 71.873l19.859 9.457v36.883H0z" mask="url(#cR)" />
            </g>
            <g transform="translate(426 227)">
                <g fill="#fff"><path id="cS" d="M0 0h87v31.208H0z" /></g>
                <path stroke="#C3BA95" stroke-width=".5" d="M.25.25h86.5v30.708H.25z" />
            </g>
            <g transform="rotate(90 137.8 370.474)">
                <!-- <mask id="cU" fill="#fff">
                    <use xlink:href="#cT" />
                </mask> -->
                <g fill="#DCEFF8"><path id="cT" d="M0 0h19.859v77.548H0z" /></g>
                <path fill="#B0DDF1" d="M0 0l19.859 77.548H0z" mask="url(#cU)" transform="matrix(-1 0 0 1 19.859 0)" />
            </g>
            <g transform="translate(528 227)">
                <g fill="#fff"><path id="cV" d="M29.488 30.262H117V209H29.488z" /></g>
                <path stroke="#C3BA95" stroke-width=".5" d="M29.738 30.512h87.012V208.75H29.738z" />
            </g>
            <g transform="translate(528 227)">
                <g fill="#fff"><path id="cW" d="M33.293 34.045h79.902V209H33.293z" /></g>
                <path stroke="#C3BA95" stroke-width=".5" d="M33.543 34.295h79.402V208.75H33.543z" />
            </g>
            <path fill="#9A9A9A" d="M571.756 341.43h8.094a1.419 1.419 0 0 1 0 2.837h-8.094v8.97a2.378 2.378 0 0 1-4.756 0v-15.103a2.378 2.378 0 0 1 4.756 0v3.296z" />
            <g transform="translate(589.83 285.633)">
                <g fill="#fff"><path id="cX" d="M0 0h23.78v121.995H0z" /></g>
                <path stroke="#C3BA95" stroke-width=".5" d="M.25.25h23.28v121.495H.25z" />
            </g>
            <g transform="translate(591.732 287.525)">
               <!--  <mask id="cZ" fill="#fff">
                    <use xlink:href="#cY" />
                </mask> -->
               <g fill="#DCEFF8"><path id="cY" d="M0 0h19.976v118.213H0z" /></g>
                <path fill="#B0DDF1" d="M0 71.873l19.976 9.457v36.883H0z" mask="url(#cZ)" />
            </g>
            <g transform="translate(528 227)">
               <g fill="#fff"><path id="caa" d="M0 30.262h30.439V209H0z" /></g>
                <path stroke="#C3BA95" stroke-width=".5" d="M.25 30.512h29.939V208.75H.25z" />
            </g>
            <g transform="translate(533.707 267.665)">
                <!-- <mask id="cac" fill="#fff">
                    <use xlink:href="#cab" />
                </mask> -->
                <g fill="#DCEFF8"> <path id="cab" d="M0 0h19.976v156.041H0z" /></g>
                <path fill="#B0DDF1" d="M0 95.516l19.976 9.457v51.068H0z" mask="url(#cac)" />
            </g>
            <g transform="translate(528 227)">
               <g fill="#fff"><path id="cad" d="M0 0h117v31.208H0z" /></g>
                <path stroke="#C3BA95" stroke-width=".5" d="M.25.25h116.5v30.708H.25z" />
            </g>
            <g transform="rotate(90 204.131 436.748)">
                <!-- <mask id="caf" fill="#fff">
                    <use xlink:href="#cae" />
                </mask> -->
               <g fill="#DCEFF8"><path id="cae" d="M0 0h19.976v107.81H0z" /></g>
                <path fill="#B0DDF1" d="M0 .003L19.976 107.81H0z" mask="url(#caf)" transform="matrix(-1 0 0 1 19.976 0)" />
            </g>
            <g>
                <g transform="translate(660 227)">
                   <g fill="#fff"> <path id="cag" d="M29.39 30.262h87.221V209H29.39z" /></g>
                    <path stroke="#C3BA95" stroke-width=".5" d="M29.64 30.512h86.721V208.75H29.64z" />
                </g>
                <g transform="translate(660 227)">
                   <g fill="#fff"> <path id="cah" d="M33.182 34.045h79.636V209H33.182z" /></g>
                    <path stroke="#C3BA95" stroke-width=".5" d="M33.432 34.295h79.136V208.75H33.432z" />
                </g>
                <path fill="#9A9A9A" d="M703.61 341.43h8.062a1.419 1.419 0 0 1 0 2.837h-8.062v8.978a2.37 2.37 0 0 1-4.74 0v-15.12a2.37 2.37 0 1 1 4.74 0v3.305z" />
                <g transform="translate(660 227)">
                   <g fill="#fff"> <path id="cai" d="M115.662 30.262H146V209h-30.338z" /></g>
                    <path stroke="#C3BA95" stroke-width=".5" d="M115.912 30.512h29.838V208.75h-29.838z" />
                </g>
                <g transform="translate(660 227)">
                   <g fill="#fff"> <path id="caj" d="M0 30.262h30.338V209H0z" /></g>
                    <path stroke="#C3BA95" stroke-width=".5" d="M.25 30.512h29.838V208.75H.25z" />
                </g>
                <g transform="translate(781.35 267.665)">
                    <!-- <mask id="cal" fill="#fff">
                        <use xlink:href="#cak" />
                    </mask> -->
                    <g fill="#DCEFF8"> <path id="cak" d="M0 0h19.909v156.041H0z" /></g>
                    <path fill="#B0DDF1" d="M0 95.516l19.91 9.457v51.068H0z" mask="url(#cal)" />
                </g>
                <g transform="translate(665.688 267.665)">
                    <!-- <mask id="can" fill="#fff">
                        <use xlink:href="#cam" />
                    </mask> -->
                   <g fill="#DCEFF8"><path id="cam" d="M0 0h19.909v156.041H0z" /></g>
                    <path fill="#B0DDF1" d="M0 95.516l19.91 9.457v51.068H0z" mask="url(#can)" />
                </g>
                <g transform="translate(660 227)">
                   <g fill="#fff"><path id="cao" d="M0 0h146v31.208H0z" /></g>
                    <path stroke="#C3BA95" stroke-width=".5" d="M.25.25h145.5v30.708H.25z" />
                </g>
                <g transform="rotate(90 284.22 516.87)">
                    <!-- <mask id="caq" fill="#fff">
                        <use xlink:href="#cap" />
                    </mask> -->
                   <g fill="#DCEFF8"> <path id="cap" d="M0 0h19.91v136.181H0z" /></g>
                    <path fill="#B0DDF1" d="M0 0l19.91 136.181H0z" mask="url(#caq)" transform="matrix(-1 0 0 1 19.91 0)" />
                </g>
            </g>
            <g>
                <g transform="translate(821 227)">
                   <g fill="#fff"> <path id="car" d="M29.39 30.262h87.221V209H29.39z" /></g>
                    <path stroke="#C3BA95" stroke-width=".5" d="M29.64 30.512h86.721V208.75H29.64z" />
                </g>
                <g transform="translate(821 227)">
                   <g fill="#fff"> <path id="cas" d="M33.182 34.045h79.636V209H33.182z" /></g>
                    <path stroke="#C3BA95" stroke-width=".5" d="M33.432 34.295h79.136V208.75H33.432z" />
                </g>
                <path fill="#9A9A9A" d="M864.61 341.43h8.062a1.419 1.419 0 0 1 0 2.837h-8.062v8.978a2.37 2.37 0 0 1-4.74 0v-15.12a2.37 2.37 0 1 1 4.74 0v3.305z" />
                <g transform="translate(882.623 285.633)">
                   <g fill="#fff"> <path id="cat" d="M0 0h23.701v121.995H0z" /></g>
                    <path stroke="#C3BA95" stroke-width=".5" d="M.25.25h23.201v121.495H.25z" />
                </g>
                <g transform="translate(884.52 287.525)">
                    <!-- <mask id="cav" fill="#fff">
                        <use xlink:href="#cau" />
                    </mask> -->
                   <g fill="#DCEFF8"> <path id="cau" d="M0 0h19.909v118.213H0z" /></g>
                    <path fill="#B0DDF1" d="M0 71.873l19.91 9.457v36.883H0z" mask="url(#cav)" />
                </g>
                <g transform="translate(821 227)">
                   <g fill="#fff"> <path id="caw" d="M115.662 30.262H146V209h-30.338z" /></g>
                    <path stroke="#C3BA95" stroke-width=".5" d="M115.912 30.512h29.838V208.75h-29.838z" />
                </g>
                <g transform="translate(821 227)">
                   <g fill="#fff"> <path id="cax" d="M0 30.262h30.338V209H0z" /></g>
                    <path stroke="#C3BA95" stroke-width=".5" d="M.25 30.512h29.838V208.75H.25z" />
                </g>
                <g transform="translate(942.35 267.665)">
                    <!-- <mask id="caz" fill="#fff">
                        <use xlink:href="#cay" />
                    </mask> -->
                   <g fill="#DCEFF8"> <path id="cay" d="M0 0h19.909v156.041H0z" /></g>
                    <path fill="#B0DDF1" d="M0 95.516l19.91 9.457v51.068H0z" mask="url(#caz)" />
                </g>
                <g transform="translate(826.688 267.665)">
                    <!-- <mask id="caB" fill="#fff">
                        <use xlink:href="#caA" />
                    </mask> -->
                   <g fill="#DCEFF8"> <path id="caA" d="M0 0h19.909v156.041H0z" /></g>
                    <path fill="#B0DDF1" d="M0 95.516l19.91 9.457v51.068H0z" mask="url(#caB)" />
                </g>
                <g transform="translate(821 227)">
                   <g fill="#fff"> <path id="caC" d="M0 0h146v31.208H0z" /></g>
                    <path stroke="#C3BA95" stroke-width=".5" d="M.25.25h145.5v30.708H.25z" />
                </g>
                <g transform="rotate(90 364.72 597.37)">
                    <!-- <mask id="caE" fill="#fff">
                        <use xlink:href="#caD" />
                    </mask> -->
                   <g fill="#DCEFF8"> <path id="caD" d="M0 0h19.91v136.181H0z" /></g>
                    <path fill="#B0DDF1" d="M0 0l19.91 136.181H0z" mask="url(#caE)" transform="matrix(-1 0 0 1 19.91 0)" />
                </g>
            </g>
            <text fill="#292E31" font-family="PTSans-Regular, PT Sans" font-size="14" transform="translate(0 -6)">
                <tspan x="3.612" y="13.866">от 400 мм</tspan>
            </text>
            <text fill="#292E31" font-family="PTSans-Regular, PT Sans" font-size="14" transform="translate(0 -6)">
                <tspan x="128.028" y="13.866">860…960 мм</tspan>
            </text>
            <path stroke="#282D31" stroke-linecap="square" stroke-width=".5" d="M1.394 15.925H265" />
            <text fill="#292E31" font-family="PTSans-Regular, PT Sans" font-size="14" transform="rotate(90 295.376 231.237)">
                <tspan x="265.876" y="237.237">2060 мм</tspan>
            </text>
            <g>
                <g transform="translate(.987 29.49)">
                   <g fill="#fff"> <path id="caF" d="M67.089 0h197.32v406.48H67.089z" /></g>
                    <path stroke="#C3BA95" stroke-width=".5" d="M67.339.25h196.82v405.98H67.339z" />
                </g>
                <g transform="translate(.987 29.49)">
                   <g fill="#fff"> <path id="caG" d="M74.982 8.879H255.53v397.6H74.982z" /></g>
                    <path stroke="#C3BA95" stroke-width=".5" d="M75.232 9.129H255.28v397.1H75.232z" />
                </g>
                <path fill="#9A9A9A" d="M99.647 220.891h18.252a3.453 3.453 0 1 1 0 6.907H99.647v21.651a4 4 0 0 1-4 4h-2.853a4 4 0 0 1-4-4v-37.383a4 4 0 0 1 4-4h2.853a4 4 0 0 1 4 4v8.825z" />
                <g transform="translate(.987 29.49)">
                   <g fill="#fff"> <path id="caH" d="M0 0h69.062v406.48H0z" /></g>
                    <path stroke="#C3BA95" stroke-width=".5" d="M.25.25h68.562v405.98H.25z" />
                </g>
                <g transform="translate(13.812 53.17)">
                   <!--  <mask id="caJ" fill="#fff">
                        <use xlink:href="#caI" />
                    </mask> -->
                   <g fill="#DCEFF8"> <path id="caI" d="M0 0h45.384v355.176H0z" /></g>
                    <path fill="#B0DDF1" d="M0 217.052l45.384 21.582v116.542H0z" mask="url(#caJ)" />
                </g>
            </g>
            <path stroke="#282D31" stroke-linecap="square" stroke-width=".5" d="M1.233 29.737V15.925M69.802 29.49V15.926m195.594 13.318V15.678m13.565 420.046V29.49m-13.565 0h13.565m-13.565 406.234h13.565" />
        </g>
    </symbol>
    <symbol viewBox="0 0 137 126" id="haski-why1" xmlns="http://www.w3.org/2000/svg">
        <g fill="none" fill-rule="evenodd">
            <path fill="#EBEBEB" d="M75.157 41.164h16.816v-4.859H75.157zm-1.954 70.985h16.816v-4.859H73.203zm16.291-94.642h11.96v-4.859h-11.96zm-9.291 47.327h16.816v-4.871H80.203zm-4 23.657h16.816V83.62H76.203zM91.41 100.32h11.96v-4.859H91.41zm-1.916 23.658h11.96v-4.859h-11.96zM1.249 17.507h16.816v-4.859H1.249zm0 23.657h16.816v-4.859H1.249zm0 70.985h16.816v-4.859H1.249zm0-23.658h16.816V83.62H1.249zm57.732-70.984h11.96v-4.859h-11.96zM77.157 4.871h12.815V0H77.157zm-.954 23.657h16.816v-4.871H76.203zM16.781 4.871h16.816V0H16.781zm29.91 0h16.816V0H46.691z" />
            <path fill="#FFF" d="M12.85 123.978h72.667V16.046H12.85zm95 0h10.5V16.046h-10.5z" />
            <path fill="#F9E385" d="M42.184 114.523H56.55V33.462H42.184zm69.126-76.741h4.37v-18.11h-4.37zm0 20.61h4.37v-18.11h-4.37zm0 20.61h4.37v-18.11h-4.37zm0 20.62h4.37v-18.12h-4.37zm0 20.61h4.37v-18.11h-4.37z" />
            <g fill="#333">
                <path d="M109.27 122.732h8.46V17.172h-8.46v105.56zm-30.22 0v-15.81h1.67c.69 0 1.25-.56 1.25-1.25v-8.98c0-.69-.56-1.25-1.25-1.25h-1.67v-47.26h1.67c.69 0 1.25-.56 1.25-1.25v-8.98c0-.69-.56-1.25-1.25-1.25h-1.67v-11.61h5.42v97.64h-5.42zm-1.25-24.79h1.67v6.48h-3.06v-6.48h1.39zm1.25-58.74h.42v6.48h-3.06v-6.48h2.64zm-57.06-14.11h54.56v11.61h-1.39c-.69 0-1.25.56-1.25 1.25v8.98c0 .69.56 1.25 1.25 1.25h1.39v47.26h-1.39c-.69 0-1.25.56-1.25 1.25v8.98c0 .69.56 1.25 1.25 1.25h1.39v15.81H21.99v-97.64zm-7.92 97.64h5.42v-97.64h-5.42v97.64zm0-105.56h70.4v5.42h-70.4v-5.42zm120.9 105.56h-14.74V15.922c0-.69-.56-1.25-1.26-1.25h-10.95c-.69 0-1.25.56-1.25 1.25v106.81h-19.8V15.922c0-.69-.56-1.25-1.25-1.25h-72.9c-.69 0-1.25.56-1.25 1.25v106.81H1.25a1.25 1.25 0 0 0 0 2.5h133.72c.7 0 1.26-.56 1.26-1.25s-.56-1.25-1.26-1.25z" />
                <path d="M43.43 113.272H55.3v-11.009H43.43v11.009zm0-67.55H55.3v-11.01H43.43v11.01zm0 54.042H55.3V88.753H43.43v11.011zm0-40.532H55.3v-11.01H43.43v11.01zm0 27.021H55.3v-11.01H43.43v11.01zm0-13.511H55.3v-11.01H43.43v11.01zm13.12-40.53H42.18c-.69 0-1.25.56-1.25 1.25v81.06c0 .69.56 1.25 1.25 1.25h14.37c.69 0 1.25-.56 1.25-1.25v-81.06c0-.69-.56-1.25-1.25-1.25zM28.6 38.967c-.69 0-1.25.56-1.25 1.25v67.551a1.25 1.25 0 0 0 2.5 0v-67.55c0-.69-.56-1.25-1.25-1.25m100.692-2.612c.967 0 1.734-.27 2.28-.803.535-.521.88-1.184 1.026-1.966.082-.428-.07-.66-.21-.779-.18-.153-.443-.227-.808-.227-.738.012-1 .385-1.09.698-.108.393-.254.696-.432.898-.155.177-.406.263-.766.263-.301 0-.544-.068-.743-.21a1.233 1.233 0 0 1-.438-.607 4.273 4.273 0 0 1-.215-.867 7.41 7.41 0 0 1-.058-.982c0-.37.019-.705.058-.992a4.47 4.47 0 0 1 .21-.87c.092-.263.233-.462.432-.604.195-.14.449-.211.754-.211.367 0 .63.081.786.241.17.176.299.476.386.894.059.27.273.713 1.027.713.288.002.563-.056.775-.2a.683.683 0 0 0 .31-.652c-.085-.862-.395-1.567-.923-2.095-.535-.535-1.305-.806-2.29-.806-2.434 0-3.67 1.541-3.67 4.582 0 3.04 1.21 4.582 3.599 4.582m-.864 16.854c.197.108.424.163.672.163.94 0 1.042-.57 1.042-.814v-6.255h1.274c.227 0 .754-.095.754-.97s-.527-.97-.754-.97h-4.632c-.226 0-.753.096-.753.97 0 .875.527.97.753.97h1.274v6.255c0 .293.128.517.37.65m2.904 17.204c.908 0 1.006-.57 1.006-.814V62.17c0-.245-.096-.814-.982-.814-.457 0-.814.205-1.033.593l-2.401 4.182V62.17c0-.304-.135-.814-1.042-.814-.92 0-1.018.569-1.018.814v7.428c0 .303.138.814 1.066.814.432 0 .768-.188.973-.545l2.389-4.145v3.876c0 .245.102.814 1.042.814m-4.954 17.016c.545.015 1.014-.159 1.324-.503.292-.323.492-.818.595-1.475.072-.483.135-1.062.188-1.719.053-.652.097-1.329.133-2.036.035-.7.06-1.146.04-1.31l.004-.25v.25h1.442v6.265c0 .3.135.802 1.042.802s1.042-.503 1.042-.802v-6.912c0-.494-.141-.84-.42-1.033-.25-.173-.588-.26-1.006-.26h-2.484c-.93 0-1.48.46-1.592 1.333-.025.194-.07.962-.134 2.282-.063 1.314-.135 2.286-.215 2.898-.053.561-.27.593-.363.607-.24.047-.638.234-.61.967.032.578.393.896 1.014.896m3.132 13.164c.25 0 .43.08.57.25.15.18.23.41.23.69 0 .28-.07.51-.22.68-.13.15-.32.23-.58.23h-1.28v-1.85h1.28zm-2.32-5.22c-.91 0-1.05.51-1.05.81v6.9c0 .49.15.84.43 1.04.25.17.59.26 1 .26h2.11c.8 0 1.47-.27 2-.8.53-.54.8-1.23.8-2.05 0-.83-.27-1.53-.79-2.07-.53-.54-1.21-.81-2.01-.81h-1.45v-2.47c0-.3-.14-.81-1.04-.81z" />
            </g>
        </g>
    </symbol>
    <symbol viewBox="0 0 126 129" id="haski-why2" xmlns="http://www.w3.org/2000/svg">
        <defs>
            <path id="ea" d="M.28.6h122.945v34.123H.28z" />
            <path id="ec" d="M.28.6h122.945v34.123H.28z" />
            <path id="ee" d="M.236 90.49l12.71 4.357V5.042L.236.685z" />
            <path id="eg" d="M0 .84h104.372v120.81H0z" />
        </defs>
        <g fill="none" fill-rule="evenodd">
            <path fill="#FFF" d="M1 23.62L13.886 28 98 6.978 86.961 2z" />
            <g transform="translate(2 94.277)">
                <!-- <mask id="eb" fill="#fff">
                    <use xlink:href="#ea" />
                </mask> -->
                <path fill="#FFF" d="M.28 20.918C79.37 51.048 171.64 26.144 93.714.6L.28 20.918z" mask="url(#eb)" />
            </g>
            <g transform="translate(2 94.277)">
                <!-- <mask id="ed" fill="#fff">
                    <use xlink:href="#ec" />
                </mask> -->
                <path fill="#6D9FFF" d="M.28 20.918C79.37 51.048 171.64 26.144 93.714.6L.28 20.918z" mask="url(#ed)" />
            </g>
            <path fill="#FFF" d="M98.682 96.578L14.945 117.39a.634.634 0 0 1-.787-.614V27.984L98.099 7.12a1.097 1.097 0 0 1 1.362 1.063v87.398c0 .473-.32.884-.78.997" />
            <path stroke="#333" stroke-linecap="round" stroke-linejoin="round" stroke-width="2.5" d="M98.682 96.578L14.945 117.39a.634.634 0 0 1-.787-.614V27.984L98.099 7.12a1.097 1.097 0 0 1 1.362 1.063v87.398c0 .473-.32.884-.78.997z" />
            <path fill="#6D9FFF" d="M98.682 96.578L14.945 117.39a.634.634 0 0 1-.787-.614V27.984L98.099 7.12a1.097 1.097 0 0 1 1.362 1.063v87.398c0 .473-.32.884-.78.997" />
            <path stroke="#6D9FFF" stroke-linecap="round" stroke-linejoin="round" stroke-width="2.5" d="M98.682 96.578L14.945 117.39a.634.634 0 0 1-.787-.614V27.984L98.099 7.12a1.097 1.097 0 0 1 1.362 1.063v87.398c0 .473-.32.884-.78.997z" />
            <g transform="translate(1 23)">
               <!--  <mask id="ef" fill="#fff">
                    <use xlink:href="#ee" />
                </mask> -->
                <path d="M.236 90.49l12.71 4.357V5.042L.236.685z" mask="url(#ef)" />
            </g>
            <path fill="#6D9FFF" d="M49.013 29.704l6.85-6.518 4.578 3.57 6.888-5.607 3.775 3.23 3.065-3.91 4.546 1.621 4.416-.94-1.097 6.456 4.752 2.588-4.678 5.453 3.75 4.47-3.2 4.175 1.446 5.353-2.629 3.577 2.727 4.38-1.544 3.39 3.527 3.74-3.094 5.186 1.987 3.754-3.019 3.515 4.126 2.534-4.215 6.016 4.816 2.069-4.629 3.885 2.977 3.138-50.701 12.725-5.098 1.143 2.28-4.726-4.49-4.943 4.296-3.031-4.973-3.164 4.69-4.862-3.124-4.516 3.774-5.723-2.79-4.06 1.936-7.574-3.808-4.776 4.481-6.415-4.481-4.594 4.198-4.204-4.198-6.934 3.776-1.667-.938-6.108 8.555.315 3.03-6.164z" />
            <path fill="#FFF" d="M85.134 94.83L35.48 107.29l3.5-.878 35.189-8.845 4.546-1.128V25.551L34.433 36.666v5.397l4.546-1.142v.038l-4.546 1.104v65.491l-6.419 1.61v5.384l18.068 5.92 57.119-14.335v-5.383z" />
            <path fill="#F9E385" d="M56.653 42.36l-5.887 1.485v53.661l5.887-1.457 5.888-1.456V40.884z" />
            <path fill="#333" d="M51.938 96v-6.514l9.43-2.371v6.55L51.939 96zm9.43-53.604v6.509l-9.43 2.37V44.77l9.43-2.374zm-9.43 38.147l9.43-2.371v6.506l-9.43 2.371v-6.506zm9.43-22.695l-9.43 2.37v-6.506l9.43-2.37v6.506zm0 8.944l-9.43 2.37v-6.507l9.43-2.37v6.507zm0 8.944l-9.43 2.37V71.6l9.43-2.371v6.508zm1.895-35.78a1.132 1.132 0 0 0-1.004-.217l-5.887 1.475-5.888 1.485a1.18 1.18 0 0 0-.89 1.144v53.661c0 .37.169.71.45.927.206.17.46.256.722.256.093 0 .187-.01.28-.029l11.776-2.913c.525-.132.89-.605.89-1.153V40.883c0-.36-.168-.71-.45-.927z" />
            <!-- <mask id="eh" fill="#fff">
                <use xlink:href="#eg" />
            </mask> -->
            <path fill="#333" d="M102.028 105.212L47.25 118.954v-2.941l54.778-13.751v2.95zm-72.844 8.474v-2.893l3.882 1.266 4.2 1.381 7.64 2.506v2.894l-12.637-4.142-3.085-1.012zM2.344 25.033l10.49 3.584v87.802l-10.49-3.584V25.033zm83.419 68.755l-1.894-1.996 3.665-3.073c.32-.265.47-.672.413-1.088a1.167 1.167 0 0 0-.703-.908l-3.478-1.504 3.375-4.813a1.21 1.21 0 0 0 .197-.927 1.166 1.166 0 0 0-.544-.766l-2.944-1.807 2.11-2.459c.318-.368.384-.898.15-1.333l-1.67-3.159 2.748-4.615a1.177 1.177 0 0 0-.15-1.419l-2.982-3.168 1.21-2.657c.168-.36.14-.785-.075-1.126l-2.297-3.688 2.156-2.932c.206-.293.281-.662.188-1.012l-1.294-4.785 2.84-3.717a1.19 1.19 0 0 0-.028-1.485l-3.103-3.698 4.022-4.681a1.19 1.19 0 0 0 .263-.993 1.186 1.186 0 0 0-.591-.823l-4.013-2.185.947-5.627a1.187 1.187 0 0 0-.337-1.05 1.178 1.178 0 0 0-1.06-.302l-4.087.87-4.238-1.504a1.162 1.162 0 0 0-1.312.379l-2.306 2.95-2.85-2.44a1.167 1.167 0 0 0-1.5-.019l-6.17 5.022-3.843-2.998a1.15 1.15 0 0 0-1.519.076l-6.225 5.92-6.722-3.735a1.177 1.177 0 0 0-.909-.095c-.31.104-.562.322-.703.605l-2.69 5.486-7.8-.294a1.152 1.152 0 0 0-.92.398 1.177 1.177 0 0 0-.28.964l.796 5.211-2.953 1.305a1.16 1.16 0 0 0-.647.729 1.19 1.19 0 0 0 .122.974l3.713 6.128-3.544 3.547c-.46.463-.46 1.21-.01 1.673l3.797 3.887-3.918 5.609c-.3.435-.282 1.012.046 1.418l3.441 4.322-1.79 6.999a1.21 1.21 0 0 0 .168.964l2.344 3.405-3.337 5.05c-.263.407-.263.937.018 1.334l2.569 3.717-4.012 4.16a1.18 1.18 0 0 0-.329.965c.038.35.244.672.535.861l3.487 2.213-2.85 2.014c-.281.19-.46.502-.497.842a1.21 1.21 0 0 0 .3.927l3.957 4.35-1.763 3.66-.61.152-.112.028a1.03 1.03 0 0 0-.431.218.717.717 0 0 0-.178.16c-.066.085-.131.17-.169.275-.037.056-.056.123-.075.189 0 .01-.01.028-.01.038a.885.885 0 0 0-.027.227v4.497l-11.234 2.819-.429.108v-87.86l82.79-20.777v87.859l-3.477.87-8.728-2.856zm-45.61-51.94l32.84-8.247v9.278l-.75.189a1.19 1.19 0 0 0-.89 1.144v6.1a1.182 1.182 0 0 0 1.172 1.182c.103 0 .197-.01.29-.037l.179-.048v27.237l-.75.19a1.19 1.19 0 0 0-.89 1.144v6.11c0 .359.168.7.459.926.206.161.459.256.712.256.103 0 .197-.02.29-.038l.179-.048v9.458l-32.84 8.256V41.848zm-4.547 1.144l2.203-.53v63.024l-2.203.558V42.992zm41.935-12.966l-3.647.918h-.01L38.7 39.777l-3.094.775v-2.96l41.935-10.526v2.96zM73.697 48.8v-3.66l.937-.236v3.66l-.937.236zm1.64 37.801l.75-.189c.525-.132.891-.605.891-1.154v-6.1c0-.36-.169-.7-.45-.927a1.161 1.161 0 0 0-1.003-.217l-.188.047V50.823l.75-.19a1.18 1.18 0 0 0 .891-1.144v-6.1c0-.368-.169-.709-.45-.926a1.132 1.132 0 0 0-1.003-.218l-.188.047v-9.277l2.204-.549V95.51l-2.203.549V86.6zm-1.64-2.024v-3.67l.937-.236v3.67l-.937.236zM32.475 103.17l-3.581-3.943 3.197-2.26a1.178 1.178 0 0 0-.047-1.968l-3.75-2.383 3.684-3.82c.394-.407.44-1.032.122-1.495l-2.672-3.859 3.338-5.05a1.192 1.192 0 0 0-.02-1.333l-2.484-3.613 1.81-7.055c.094-.36.01-.738-.225-1.031l-3.253-4.086 3.975-5.684a1.198 1.198 0 0 0-.132-1.513l-3.656-3.754 3.366-3.377c.384-.378.46-.983.178-1.456l-3.497-5.778 2.54-1.116c.488-.218.77-.738.695-1.268l-.722-4.69 7.134.255c.45.019.89-.237 1.097-.653l2.484-5.06 6.394 3.556c.44.256.994.18 1.369-.17l6.122-5.825 3.787 2.95c.422.34 1.022.331 1.453-.01l6.132-4.993 3.037 2.592c.234.208.553.312.872.274.319-.029.6-.19.797-.445l2.55-3.244 3.76 1.343c.196.067.421.086.627.038l2.728-.577-.806 4.738c-.084.502.16 1.003.6 1.24l3.469 1.89-3.722 4.332a1.186 1.186 0 0 0-.01 1.542l3.132 3.736-2.616 3.423c-.225.293-.3.672-.206 1.031l1.303 4.804-2.297 3.112c-.281.397-.31.927-.047 1.333l2.391 3.84-1.284 2.809c-.197.444-.113.955.215 1.305l2.916 3.092-2.634 4.417a1.17 1.17 0 0 0-.029 1.163l1.603 3.036-2.484 2.904a1.151 1.151 0 0 0-.272.955c.047.34.253.643.544.823l3.056 1.882-3.497 4.984a1.213 1.213 0 0 0-.168 1.002c.103.34.347.624.675.766l3.046 1.305-3.159 2.648a1.21 1.21 0 0 0-.094 1.731l1.585 1.664-3.01.757v-69.38c0-.369-.159-.71-.45-.936a1.15 1.15 0 0 0-1.003-.208L34.153 35.52a1.18 1.18 0 0 0-.89 1.144v69.947l-1.81.397 1.219-2.525a1.192 1.192 0 0 0-.197-1.315zM14.062 26.536h-.009l-8.719-2.979L86.26 3.252l8.72 2.97-80.916 20.314zm84.882 74.061l-52.81 13.26h-.009l-4.556-1.495-4.21-1.38-5.09-1.665 2.447-.615 4.547-1.144 38.38-9.637 1.398-.35 6.047-1.513 5.1 1.673 4.209 1.372 4.547 1.494zm5.41-.047a.217.217 0 0 0-.029-.104 1.054 1.054 0 0 0-.216-.435.724.724 0 0 0-.168-.17.55.55 0 0 0-.178-.123.764.764 0 0 0-.179-.086c-.009-.01-.009-.01-.018-.01L98.7 98.026l.722-.18a1.18 1.18 0 0 0 .89-1.144v-90.3c0-.067-.009-.133-.018-.199a.329.329 0 0 0-.028-.123.86.86 0 0 0-.075-.198v-.01a1.075 1.075 0 0 0-.141-.217 1.187 1.187 0 0 0-.188-.19 1.163 1.163 0 0 0-.337-.18l-.01-.009L86.682.898a1.29 1.29 0 0 0-.656-.029L1.012 22.214a.954.954 0 0 0-.318.095c-.056.028-.103.047-.15.085-.019 0-.038.019-.057.028a.36.36 0 0 0-.084.086c-.01-.01-.019 0-.019.009a.753.753 0 0 0-.121.123 1.3 1.3 0 0 0-.122.19.123.123 0 0 0-.02.056.812.812 0 0 0-.084.227.823.823 0 0 0-.037.265v90.308c0 .501.328.955.797 1.116l12.797 4.37.027.006c.056.02.118.02.177.032.07.013.14.037.208.037.056 0 .122 0 .178-.019h.02a.206.206 0 0 0 .065-.015l.022-.002 13.68-3.433 17.732 5.805.019.01c.112.037.234.056.356.056.066 0 .122 0 .178-.019.066 0 .122-.019.188-.038l57.037-14.309c.525-.132.89-.605.89-1.153v-5.334c0-.085 0-.161-.018-.246z" mask="url(#eh)" />
            <path fill="#333" d="M44.753 48.646c-.647 0-1.172.53-1.172 1.182v44.717c0 .654.525 1.183 1.172 1.183.647 0 1.172-.529 1.172-1.183V49.828c0-.652-.525-1.182-1.172-1.182" />
        </g>
    </symbol>
    <symbol viewBox="0 0 125 126" id="haski-why3" xmlns="http://www.w3.org/2000/svg">
        <g fill="none" fill-rule="evenodd">
            <path fill="#EBEBEB" d="M12.648 41.164h16.816v-4.859H12.648zm1.954 70.985h16.816v-4.859H14.602zM3.167 17.507h11.96v-4.859H3.167zm4.435 47.327h16.816v-4.871H7.602zm4 23.657h16.816V83.62H11.602zM1.25 100.32h11.96v-4.859H1.25zm1.917 23.658h11.96v-4.859H3.167zM86.555 17.507h16.816v-4.859H86.555zm0 23.657h16.816v-4.859H86.555zm0 70.985h16.816v-4.859H86.555zM72.556 53.005h12.233v-4.871H72.556zm-4.583 23.657h16.816v-4.871H67.973zm18.582 11.829h16.816V83.62H86.555zm-18.582 35.487h16.816v-4.859H67.973zM45.114 41.164H61.93v-4.859H45.114zm0 70.985H61.93v-4.859H45.114zM33.679 17.507h11.96v-4.859h-11.96zm11.435 47.327H61.93v-4.871H45.114zm0 23.657H61.93V83.62H45.114zM14.648 4.871h12.815V0H14.648zm-3.046 23.657h16.816v-4.871H11.602zM71.024 4.871H87.84V0H71.024zm-29.91 0h16.815V0H41.114zm4 23.657H61.93v-4.871H45.114zM33.679 100.32h11.96v-4.859h-11.96zm0 23.658h11.96v-4.859h-11.96z" />
            <path fill="#FFF" d="M22.824 15.926v108.052h72.894V15.926z" />
            <path fill="#F9E385" d="M52.184 114.523H66.55V33.462H52.184z" />
            <path fill="#333" d="M24.07 122.728h5.42V25.092h-5.42v97.636zm0-105.556h70.4v5.42h-70.4v-5.42zm65.12 105.556v-15.806h1.53c.69 0 1.25-.56 1.25-1.25v-8.98c0-.69-.56-1.25-1.25-1.25h-1.53v-47.26h1.53c.69 0 1.25-.56 1.25-1.25v-8.98c0-.69-.56-1.25-1.25-1.25h-1.53v-11.61h5.28v97.636h-5.28zm-2.64-86.026h-1.39c-.69 0-1.25.56-1.25 1.25v8.98c0 .69.56 1.25 1.25 1.25h1.39v47.26h-1.39c-.69 0-1.25.56-1.25 1.25v8.98c0 .69.56 1.25 1.25 1.25h1.39v15.806H32.04V25.092h54.51v11.61zm2.5 61.24h.42v6.48h-3.06v-6.48h2.64zm-2.5-52.26h-.14v-6.48h3.06v6.48h-2.92zm30.742 77.046H96.97V15.922c0-.69-.56-1.25-1.25-1.25h-72.9c-.69 0-1.25.56-1.25 1.25v106.806H1.25a1.25 1.25 0 0 0 0 2.5h21.551c.006 0 .012.004.019.004h72.9c.007 0 .012-.004.019-.004h21.553a1.25 1.25 0 1 0 0-2.5z" />
            <path fill="#333" d="M53.43 45.722H65.3v-11.01H53.43v11.01zm0 67.55H65.3v-11.009H53.43v11.009zm0-54.04H65.3v-11.01H53.43v11.01zm0 40.532H65.3V88.753H53.43v11.011zm0-27.022H65.3v-11.01H53.43v11.01zm0 13.511H65.3v-11.01H53.43v11.01zm-1.25 29.519h14.37c.69 0 1.25-.56 1.25-1.25v-81.06c0-.69-.56-1.25-1.25-1.25H52.18c-.69 0-1.25.56-1.25 1.25v81.06c0 .69.56 1.25 1.25 1.25zm-13.58-6.754c.69 0 1.25-.56 1.25-1.25v-67.55a1.25 1.25 0 0 0-2.5 0v67.55c0 .69.56 1.25 1.25 1.25" />
            <path fill="#FFF" d="M97.738 54.973c2.218.109 3.918-1.377 5.98-2.578 5.672-3.302 7.594-10.576 4.292-16.248-3.302-5.672-10.577-7.594-16.249-4.292l5.977 10.268-1.818 8.03v3.769l1.818 1.05z" />
            <path fill="#F9E385" d="M102.075 49.572a8.62 8.62 0 1 0-8.675-14.9 8.62 8.62 0 0 0 8.674 14.898" />
            <path fill="#FF5A5A" d="M95.31 49.072a7.225 7.225 0 0 1-3.94-3.24c-2.04-3.51-.85-8.03 2.66-10.08a7.3 7.3 0 0 1 3.7-1c2.54 0 5.01 1.31 6.38 3.66a7.29 7.29 0 0 1 .75 5.59c-.5 1.91-1.71 3.5-3.41 4.49a7.358 7.358 0 0 1-6.14.58m10.96-11.91c-2.74-4.71-8.79-6.31-13.5-3.57-4.7 2.74-6.3 8.79-3.56 13.5a9.883 9.883 0 0 0 6.69 4.73c.61.11 1.23.17 1.85.17 1.69 0 3.4-.43 4.95-1.34a9.8 9.8 0 0 0 4.58-6.01c.67-2.55.31-5.21-1.01-7.48" />
            <path fill="#333" d="M121.52 29.482c-.19.01-.38.07-.55.16l-6.53 3.81c-.17.09-.31.23-.42.39l-1.19 1.83-.94-1.59c-.02-.05-.05-.1-.08-.15l-1.01-1.74 2.18-.14c.19-.01.38-.07.55-.17l6.53-3.8c.16-.1.31-.23.41-.39l.32-.49 1.31 2.24-.58.04zm-5.19 34.21c.7 1.2.89 2.6.53 3.95-.03.12-.07.25-.11.37l-4.52-7.76c-.35-.6-1.11-.8-1.71-.46-.6.35-.8 1.12-.45 1.71l5.12 8.79c-.23.2-.48.37-.75.53-.26.15-.54.28-.82.39l-5.12-8.8c-.34-.59-1.11-.8-1.7-.45-.6.35-.8 1.12-.46 1.71l4.52 7.77-.37-.09a5.21 5.21 0 0 1-3.18-2.42l-8.01-13.77c.06-.01.11-.01.17-.02.15-.02.29-.04.44-.07.02 0 .03 0 .05-.01l.36-.06.12-.03c.19-.03.38-.08.56-.13a.75.75 0 0 0 .16-.04c.03-.01.06-.01.09-.03h.01c.22-.06.43-.12.64-.19.09-.03.17-.06.25-.09.19-.07.38-.14.56-.22.06-.01.11-.04.17-.07.24-.09.47-.2.7-.32a11.352 11.352 0 0 0 1.57-.92c.11-.07.22-.14.33-.23.15-.1.3-.21.44-.33.03-.02.06-.05.09-.08.06-.04.12-.09.17-.14.12-.09.23-.19.34-.29.04-.03.08-.07.11-.1.13-.12.25-.23.37-.36.03-.02.05-.05.08-.08.1-.09.19-.19.29-.29.03-.03.07-.07.09-.11.15-.16.3-.33.44-.5.01-.01.01-.02.02-.03.14-.17.27-.33.39-.5l8.02 13.77zm8.36-34.77l-2.17-3.72c-.35-.6-.97-.97-1.65-.97a1.88 1.88 0 0 0-1.7.88l-.62.96-6.03 3.5-2.72.18c-.68.03-1.29.42-1.63 1.04-.33.61-.31 1.32.04 1.91l.81 1.4v.01l-.61.35c-.13-.19-.27-.38-.42-.56-.27-.34-.56-.66-.86-.96-1.64-1.69-3.71-2.9-6.04-3.52a13.1 13.1 0 0 0-9.96 1.35c-.1.06-.19.13-.27.21-.37.39-.47 1.01-.18 1.5.35.6 1.11.8 1.71.45 2.46-1.43 5.32-1.82 8.07-1.09 1.03.27 1.99.68 2.88 1.23.36.23.72.48 1.06.76.2.15.39.32.58.49.19.18.37.36.55.56.33.35.64.74.92 1.15.17.24.33.48.48.74a10.546 10.546 0 0 1 1.26 7.3c-.11.57-.26 1.14-.46 1.69-.07.19-.15.38-.23.57l-.01.01c-.08.19-.16.37-.25.55-.01.01-.02.02-.02.03-.11.23-.23.45-.37.67-.11.19-.23.38-.35.56-.05.07-.1.13-.14.2-.1.14-.2.28-.31.41-.04.05-.08.09-.12.14-.07.093-.149.179-.226.266-.078.088-.156.166-.224.244v.01c-.27.29-.56.56-.86.8-.2.17-.4.34-.62.49-.01.02-.02.03-.04.03-.11.09-.23.17-.36.25a10.552 10.552 0 0 1-6.37 1.75c-.08 0-.16 0-.24.01-.02.01-.04.01-.06.01-.02.01-.03.01-.04.01-.06.02-.12.04-.19.06-.05.02-.1.05-.14.07h-.02v.01c-.008.004-.013.01-.019.016-.004.002-.007.004-.011.004l-.01.01c-.06.04-.12.08-.17.13-.01 0-.02.01-.03.02-.04.04-.07.08-.11.12a.38.38 0 0 0-.09.13c-.03.04-.05.08-.07.12-.03.06-.05.12-.06.19-.01.01-.01.02-.01.03-.01.01-.01.03-.01.04-.01.02-.01.04-.01.07-.01.03-.01.06-.01.09-.01.01-.01.03-.01.04-.01.11 0 .21.02.31 0 .02.01.04.01.05l.06.18v.01c.01.03.03.06.05.08.01.04.03.08.06.12l9.03 15.52a7.654 7.654 0 0 0 4.7 3.57c.66.18 1.32.27 1.99.27.45 0 .9-.04 1.34-.13.08-.01.17-.03.25-.05.79-.16 1.56-.45 2.27-.87.76-.44 1.41-.99 1.95-1.62.03-.03.07-.07.1-.12a7.725 7.725 0 0 0 .74-8.81l-8.74-15c.21-.46.39-.94.54-1.42l.15-.54c.07-.28.14-.56.19-.84.05-.23.09-.46.12-.7.05-.32.08-.65.1-.98a12.825 12.825 0 0 0-.1-2.69c-.06-.41-.14-.82-.25-1.22a5.71 5.71 0 0 0-.19-.71c-.04-.15-.08-.3-.14-.44a9.68 9.68 0 0 0-.3-.81c-.07-.16-.13-.31-.2-.46l.61-.35.81 1.4c.35.59.96.96 1.65.98h.05c.66 0 1.28-.33 1.66-.89l1.5-2.3 6.02-3.51 1.16-.07c.67-.05 1.28-.45 1.58-1.02.34-.61.33-1.33-.02-1.94z" />
            <path fill="#333" d="M99.102 44.466a2.71 2.71 0 1 0-2.728-4.686 2.71 2.71 0 1 0 2.728 4.686m-2.792-5.791l-1.387-2.381-.863.503 1.387 2.38zm4.244 9.276l.863-.503-1.386-2.38-.864.502z" />
        </g>
    </symbol>
    <symbol viewBox="0 0 169 128" id="haski-why4" xmlns="http://www.w3.org/2000/svg">
        <defs>
            <path id="ga" d="M0 128h168.16V.697H0z" />
        </defs>
        <g fill="none" fill-rule="evenodd">
            <path fill="#EBEBEB" d="M14.976 36.791h16.816v-4.859H14.976zm0 70.985h16.816v-4.859H14.976zM3.541 13.134h11.96V8.275H3.541zm11.435 47.327h16.816V55.59H14.976zm0 23.657h16.816v-4.871H14.976zM3.541 95.947h11.96v-4.859H3.541zm0 23.658h11.96v-4.859H3.541zM145.205 13.134h16.816V8.275h-16.816zm0 23.657h16.816v-4.859h-16.816zm0 70.985h16.816v-4.859h-16.816zm-13.999-59.144h12.233v-4.871h-12.233zm13.999 35.486h16.816v-4.871h-16.816zm-18.582 35.487h16.816v-4.859h-16.816zM99.379 36.791h16.816v-4.859H99.379zm0 70.985h16.816v-4.859H99.379zM87.945 13.134h11.96V8.275h-11.96zm11.434 47.327h16.816V55.59H99.379zm0 23.657h16.816v-4.871H99.379zM87.945 95.947h11.96v-4.859h-11.96zm0 23.658h11.96v-4.859h-11.96z" />
            <g transform="translate(0 -.697)">
                <path fill="#FFF" d="M163.088 82.38V34.096c0-8.646-7.008-15.654-15.654-15.654-8.645 0-15.654 7.008-15.654 15.654V82.38h-3.819v6.861h38.946v-6.86h-3.819z" />
               <!--  <mask id="gb" fill="#fff">
                    <use xlink:href="#ga" />
                </mask> -->
                <path fill="#DDD" d="M133.03 81.13h13.01v-6.89h-13.01v6.89zm13.01-47.25v37.86h-13.01V34.1c0-.08.01-.15.01-.22h13zm0-14.12v11.62H133.3c1.18-6.2 6.36-11 12.74-11.62zm-16.83 68.23h36.45v-4.36h-36.45v4.36zm37.7-6.86h-2.57V34.1c0-9.33-7.59-16.91-16.91-16.91-.03 0-.07.01-.11.01-.01 0-.02-.01-.03-.01-.01 0-.03.01-.04.01-8.56.1-15.6 6.58-16.59 14.9-.08.16-.13.34-.13.53 0 .1.04.2.06.29-.03.39-.06.78-.06 1.18v47.03h-2.57c-.69 0-1.25.56-1.25 1.25v6.86c0 .69.56 1.25 1.25 1.25h38.95c.69 0 1.25-.56 1.25-1.25v-6.86c0-.69-.56-1.25-1.25-1.25zm-5.337-49.751h-13.03V19.748c6.513.5 11.823 5.339 13.03 11.631zm-13.03 49.751h13.295v-6.894h-13.295v6.894zm0-47.251h13.284c.001.073.011.144.011.217v37.64h-13.295V33.879z" mask="url(#gb)" />
                <path fill="#6D9FFF" d="M55.37 11.05l14.108-7.283 11 8.383 9.073-7.473 4.504 7.056 16.432-4.883-3.752 16 10.45 3.896-9.068 10.325 10.758 5.382L107.48 54.87l13.426 4.648-13.067 8.613 11.036 5.465-10.484 13.002 6.144 6.37-5.201 6.92 10.166 8.585-10.5 5.831 7.052 8.853-6.98 3.588H24.12l-8.61-6.843 9.217-6.757-12.44-7.13 12.288-9.434-6.978-7.701 6.978-12.144-11.378-12.135 11.429-3.445-7.333-12.181 7.583-4.517-10.238-17.026 11.15-5.46-5.055-13.87 18.937 3.742 4.627-9.898z" mask="url(#gb)" />
                <path fill="#FFF" d="M30.22 18.972v107.774h72.23V18.972z" mask="url(#gb)" />
                <path fill="#F9E385" d="M59.15 117.291h14.366V36.23H59.15z" mask="url(#gb)" />
                <path fill="#333" d="M31.47 125.496h5.04V27.86h-5.04v97.636zM101.2 25.36H31.47v-5.14h69.73v5.14zm-5.04 84.33h1.53c.69 0 1.25-.56 1.25-1.25v-8.98c0-.69-.56-1.25-1.25-1.25h-1.53V50.95h1.53c.69 0 1.25-.56 1.25-1.25v-8.98c0-.69-.56-1.25-1.25-1.25h-1.53V27.86h5.04v97.636h-5.04V109.69zm0-8.98h.28v6.48h-3.07v-6.48h2.79zm0-58.74h.28v6.48h-3.07v-6.48h2.79zm-2.5-14.11v11.61h-1.54c-.69 0-1.25.56-1.25 1.25v8.98c0 .69.56 1.25 1.25 1.25h1.54v47.26h-1.54c-.69 0-1.25.56-1.25 1.25v8.98c0 .69.56 1.25 1.25 1.25h1.54v15.806H39.01V27.86h54.65zm-76.09 92.08l7.89-5.79c.35-.25.54-.65.51-1.07a1.25 1.25 0 0 0-.62-1.02l-10.81-6.19 10.79-8.3c.28-.21.46-.53.49-.88.03-.34-.09-.69-.32-.95l-6.37-7.03 6.53-11.35c.27-.48.2-1.08-.17-1.48l-10-10.66 9.5-2.87c.37-.11.66-.38.8-.74s.1-.77-.09-1.1l-6.69-11.1 6.5-3.88a1.25 1.25 0 0 0 .44-1.72l-9.54-15.85 9.93-4.87c.57-.28.84-.95.62-1.55L22.67 9.76l16.76 3.31c.56.12 1.13-.17 1.37-.69l3.95-8.44 9.83 8.08c.38.31.92.37 1.36.14l13.41-6.92 10.37 7.9c.46.36 1.11.35 1.55-.03l7.99-6.57L93 12.4c.3.47.88.69 1.41.53l14.37-4.27-3.26 13.9c-.15.62.19 1.24.78 1.46l8.75 3.26-7.87 8.97c-.26.29-.36.68-.29 1.06s.32.7.67.88l9.27 4.64-10.27 11.2c-.29.31-.4.74-.29 1.15.1.41.4.74.8.87l11.03 3.82-10.95 7.22a1.247 1.247 0 1 0 .13 2.16l9.64 4.78-9.5 11.78c-.4.49-.37 1.2.07 1.66l5.4 5.6-4.56 6.07c-.39.53-.31 1.28.2 1.7l8.78 7.42-8.92 4.95c-.32.18-.54.49-.62.85-.07.36.02.74.25 1.02l6.1 7.67-5.342 2.746H103.7V18.97c0-.69-.56-1.25-1.25-1.25H30.22c-.69 0-1.25.56-1.25 1.25v106.526h-4.425l-6.975-5.556zm149.337 5.556h-52.669l2.382-1.226c.34-.17.57-.48.65-.85.08-.36-.01-.75-.24-1.04l-6.13-7.7 9.21-5.11c.36-.2.59-.57.63-.98.04-.41-.12-.81-.43-1.07l-9.27-7.82 4.49-5.98c.37-.49.33-1.18-.1-1.62l-5.38-5.58 9.8-12.14c.24-.29.33-.68.25-1.05-.09-.37-.33-.69-.67-.85l-9.09-4.5 11.25-7.42c.4-.26.62-.72.56-1.2-.06-.47-.39-.87-.84-1.02l-11.62-4.03L119.8 43.3c.26-.29.38-.69.3-1.07a1.24 1.24 0 0 0-.67-.9l-9.3-4.65 8-9.11a1.253 1.253 0 0 0-.51-2l-9.42-3.51 3.5-14.92c.11-.44-.03-.89-.36-1.2-.32-.3-.79-.41-1.21-.29L94.6 10.27l-4-6.26c-.19-.31-.5-.51-.85-.57-.36-.05-.72.04-.99.27l-8.31 6.85-10.21-7.79c-.39-.29-.91-.33-1.33-.11l-13.38 6.9L45.09.98c-.3-.24-.69-.34-1.07-.25-.38.08-.69.34-.86.69l-4.21 9.01-17.98-3.55c-.44-.09-.89.07-1.19.41-.29.34-.38.82-.22 1.24l4.67 12.81-10.14 4.97c-.32.15-.55.43-.65.77-.1.34-.06.7.13 1l9.59 15.95-6.51 3.87c-.28.17-.49.45-.57.77-.08.32-.03.67.14.95l6.5 10.8-9.88 2.98c-.42.13-.74.46-.85.88-.11.41 0 .86.29 1.18l10.75 11.46-6.52 11.34c-.27.47-.2 1.06.16 1.46l6.07 6.7-11.22 8.61c-.33.25-.51.65-.48 1.07.03.42.26.79.62 1l10.78 6.18-7.67 5.62a1.246 1.246 0 0 0-.04 1.98l5.815 4.616H1.25a1.25 1.25 0 0 0 0 2.5h22.848c.007 0 .014.004.022.004h84.95c.011 0 .021-.004.032-.004h57.805a1.25 1.25 0 1 0 0-2.5z" mask="url(#gb)" />
                <path fill="#333" d="M45.566 111.786c.69 0 1.25-.56 1.25-1.25v-67.55a1.25 1.25 0 0 0-2.5 0v67.55c0 .69.56 1.25 1.25 1.25M60.4 48.49h11.87V37.48H60.4v11.01zm0 67.55h11.87v-11.009H60.4v11.009zm0-54.04h11.87V50.99H60.4V62zm0 40.531h11.87V91.52H60.4v11.011zm0-13.51h11.87v-11.01H60.4v11.01zm0-13.51h11.87v-11.01H60.4v11.01zm-2.501 28.27l.001.003v13.506c0 .69.56 1.25 1.25 1.25h14.37c.69 0 1.25-.56 1.25-1.25V36.23c0-.69-.56-1.25-1.25-1.25H59.15c-.69 0-1.25.56-1.25 1.25v13.507l-.001.003.001.003v13.504l-.001.003.001.004v13.504l-.001.003.001.003v13.503l-.001.004.001.003v13.504l-.001.003z" mask="url(#gb)" />
            </g>
        </g>
    </symbol>
</svg>