<?xml version="1.0" encoding="utf-8"?><svg xmlns="http://www.w3.org/2000/svg" xmlns:xlink="http://www.w3.org/1999/xlink"><symbol viewBox="-266 357 78 79" id="credit" xmlns="http://www.w3.org/2000/svg"><path fill="#006696" d="M-188.7 390.7l-8.4-29c-.5-1.7-1.6-3.1-3.1-3.9-1.5-.8-3.2-1-4.9-.5l-52.7 15.1c-1.7.5-3.1 1.6-3.9 3.1-.8 1.5-1 3.2-.5 4.9l8.4 29c.8 2.9 3.4 4.7 6.2 4.7.6 0 1.2-.1 1.8-.3l52.7-15.1c3.4-1 5.3-4.6 4.4-8z"/><path fill="#CDE7F9" d="M-194.7 370.3l-65.2 18.7-2.1-7.2 65.2-18.7 2.1 7.2z"/><path fill="#CDE7F9" d="M-203 434l-57.4-10.2c-2.8-.5-4.7-3.2-4.2-6l5.7-31.9c.5-2.7 3.2-4.6 6-4.1l57.4 10.2c2.8.5 4.7 3.2 4.2 6l-5.7 31.9c-.5 2.8-3.2 4.6-6 4.1z"/><path fill="#FFF" d="M-191.3 398.2l-5.6 31.3c-.1.7-.4 1.3-.7 1.9-.3 0-.5-.1-.8-.1l-56.8-10.1c-3-.5-5-3.4-4.4-6.4l5.6-31.3c.1-.7.4-1.3.7-1.9.3 0 .5.1.8.1l56.8 10.1c2.9.7 4.9 3.5 4.4 6.4z"/><path fill="#006696" d="M-202.3 435.3c-.4 0-.8-.1-1.2-.1l-56.8-10.1c-3.7-.6-6.1-4.2-5.5-7.9l5.6-31.3c.6-3.2 3.6-5.7 6.9-5.5.3 0 .7.1 1 .1l56.8 10.1c1.8.3 3.4 1.3 4.4 2.8 1 1.5 1.4 3.3 1.1 5.1l-5.6 31.3c-.2.8-.4 1.6-.9 2.3-1.3 2-3.5 3.2-5.8 3.2zm-51.3-52.3c-2 0-3.7 1.5-4.1 3.4l-5.6 31.2c-.4 2.3 1.1 4.4 3.4 4.8l56.8 10.1c1.7.3 3.4-.4 4.3-1.9.3-.4.4-.9.5-1.5l5.6-31.3c.2-1.1-.1-2.2-.7-3.1-.6-.9-1.6-1.5-2.7-1.7l-56.8-10.1c-.2 0-.4 0-.7.1.1 0 0 0 0 0z"/><path fill="#006696" d="M-241.8 403.1l-9.5-1.7c-1.2-.2-2.1-1.4-1.8-2.6l1.1-6.4c.2-1.2 1.4-2 2.6-1.8l9.5 1.7c1.2.2 2.1 1.4 1.8 2.6l-1.1 6.4c-.2 1.2-1.4 2-2.6 1.8z"/><path fill="#CDE7F9" d="M-214.7 410.1c4 0 7.3-3.2 7.3-7.2s-3.2-7.2-7.3-7.2c-4 0-7.3 3.2-7.3 7.2.1 4 3.3 7.2 7.3 7.2z"/><path fill="#006696" d="M-206.6 411.6c4 0 7.3-3.2 7.3-7.2s-3.2-7.2-7.3-7.2c-4 0-7.3 3.2-7.3 7.2s3.3 7.2 7.3 7.2zM-238.6 420.6l-.5-.1c-.4-.1-.6-.4-.6-.9l.4-2.4c.1-.4.4-.6.9-.6l.5.1c.4.1.6.4.6.9l-.4 2.4c-.1.4-.5.6-.9.6zm3 .5l-.5-.1c-.4-.1-.6-.4-.6-.9l.4-2.4c.1-.4.4-.6.9-.6l.5.1c.4.1.6.4.6.9l-.4 2.4c-.1.4-.4.7-.9.6zm3.1.6l-.5-.1c-.4-.1-.6-.4-.6-.9l.4-2.4c.1-.4.4-.6.9-.6l.5.1c.4.1.6.4.6.9l-.4 2.4c-.1.4-.5.6-.9.6zm5.5.9l-.5-.1c-.4-.1-.6-.4-.6-.9l.4-2.4c.1-.4.4-.6.9-.6l.5.1c.4.1.6.4.6.9l-.4 2.4c-.2.5-.5.7-.9.6zm3 .6l-.5-.1c-.4-.1-.6-.4-.6-.9l.4-2.4c.1-.4.4-.6.9-.6l.5.1c.4.1.6.4.6.9l-.4 2.4c-.1.4-.5.7-.9.6zm3.1.5l-.5-.1c-.4-.1-.6-.4-.6-.9l.4-2.4c.1-.4.4-.6.9-.6l.5.1c.4.1.6.4.6.9l-.4 2.4c-.1.5-.5.7-.9.6zm3 .6l-.5-.1c-.4-.1-.6-.4-.6-.9l.4-2.4c.1-.4.4-.6.9-.6l.5.1c.4.1.6.4.6.9l-.4 2.4c-.1.4-.5.7-.9.6zm5.3.9l-.5-.1c-.4-.1-.6-.4-.6-.9l.4-2.4c.1-.4.4-.6.9-.6l.5.1c.4.1.6.4.6.9l-.4 2.4c-.1.5-.4.7-.9.6zm3.1.6l-.5-.1c-.4-.1-.6-.4-.6-.9l.4-2.4c.1-.4.4-.6.9-.6l.5.1c.4.1.6.4.6.9l-.4 2.4c-.1.4-.5.7-.9.6zm3 .5l-.5-.1c-.4-.1-.6-.4-.6-.9l.4-2.4c.1-.4.4-.6.9-.6l.5.1c.4.1.6.4.6.9l-.4 2.4c0 .4-.4.7-.9.6zm3.1.6l-.5-.1c-.4-.1-.6-.4-.6-.9l.4-2.4c.1-.4.4-.6.9-.6l.5.1c.4.1.6.4.6.9l-.4 2.4c-.1.4-.5.6-.9.6zm-52.6-9.4l-.5-.1c-.4-.1-.6-.4-.6-.9l.4-2.4c.1-.4.4-.6.9-.6l.5.1c.4.1.6.4.6.9l-.4 2.4c-.2.4-.6.6-.9.6zm3 .5l-.5-.1c-.4-.1-.6-.4-.6-.9l.4-2.4c.1-.4.4-.6.9-.6l.5.1c.4.1.6.4.6.9l-.4 2.4c-.1.4-.5.7-.9.6zm3.1.5l-.5-.1c-.4-.1-.6-.4-.6-.9l.4-2.4c.1-.4.4-.6.9-.6l.5.1c.4.1.6.4.6.9l-.4 2.4c-.2.5-.5.8-.9.6zm3 .6l-.5-.1c-.4-.1-.6-.4-.6-.9l.4-2.4c.1-.4.4-.6.9-.6l.5.1c.4.1.6.4.6.9l-.4 2.4c-.1.4-.5.7-.9.6zm5.3.9l-.5-.1c-.4-.1-.6-.4-.6-.9l.4-2.4c.1-.4.4-.6.9-.6l.5.1c.4.1.6.4.6.9l-.4 2.4c-.2.4-.6.7-.9.6z"/></symbol><symbol viewBox="-264 357 82 80" id="delivery" xmlns="http://www.w3.org/2000/svg"><path fill="#CDE7F9" d="M-221.1 358.2h-32.7v49.7h32.7v-49.7z"/><path fill="#006696" d="M-221.1 409.1h-32.7c-.7 0-1.3-.6-1.3-1.2v-49.7c0-.7.6-1.2 1.3-1.2h32.7c.7 0 1.3.6 1.3 1.2v49.7c0 .7-.6 1.2-1.3 1.2zm-31.4-2.4h30.2v-47.2h-30.2v47.2z"/><path fill="#FFF" d="M-225.3 362.3h-27.2v47.3h27.2v-47.3z"/><path fill="#006696" d="M-228.1 382.4c-.8 0-1.5.4-2.1.9h-6.2v3.6h6.2c.5.6 1.2.9 2.1.9 1.5 0 2.7-1.2 2.8-2.7 0-1.5-1.3-2.7-2.8-2.7zm45.3 15.7l-5.7-13c-1-2.2-3.2-3.7-5.7-3.7h-12.7c-2.9 0-5.3 2.3-5.3 5.2v14.2h-50.5c-.7 0-1.3.6-1.3 1.2v23.7c0 .7.6 1.2 1.3 1.2h3.5c.6 5.1 5.1 9.1 10.4 9.1 5.4 0 9.8-4 10.4-9.1h28.1c.6 5.1 5.1 9.1 10.4 9.1 5.4 0 9.8-4 10.4-9.1h1.7c2.9 0 5.2-2.3 5.4-5.3v-21.9c0-.4-.1-1-.4-1.6z"/><path fill="#FFF" d="M-208.9 408.3H-264v7.1h55.1v-7.1z"/><path fill="#CDE7F9" d="M-215.7 411.8H-264v3.6h48.3v-3.6z"/><path fill="#FFF" d="M-248.7 435c5.1 0 9.2-4.1 9.2-9.1 0-5.1-4.1-9.1-9.2-9.1s-9.2 4.1-9.2 9.1c-.1 5 4.1 9.1 9.2 9.1zm48.9 0c5.1 0 9.2-4.1 9.2-9.1 0-5.1-4.1-9.1-9.2-9.1s-9.2 4.1-9.2 9.1 4.1 9.1 9.2 9.1z"/><path fill="#006696" d="M-248.7 429.2c1.9 0 3.4-1.5 3.4-3.4s-1.5-3.4-3.4-3.4-3.4 1.5-3.4 3.4 1.5 3.4 3.4 3.4zm48.9 0c1.9 0 3.4-1.5 3.4-3.4s-1.5-3.4-3.4-3.4-3.4 1.5-3.4 3.4 1.6 3.4 3.4 3.4z"/><path fill="#CDE7F9" d="M-192.2 386.9l1.5 14.3h-10.8c-.5 0-1-.4-1.2-.9l-3.8-11.8c-.1-.4-.1-.8.2-1.1s.6-.5 1-.5h13.1zm9.8 13v.5c-.1.1-.1.2-.2.3-.2.3-.5.4-.9.4h-4.6l-1.5-14.3h1.2c.3 0 .6.1.8.3l4.8 11c.3.6.4 1.2.4 1.8zm.1 10.4v6.2c-.1.3-.2.5-.4.7-.2.2-.5.3-.8.3-.1 0-.2 0-.3-.1l-5.8-1.4c-.6-.2-.9-.6-.9-1.2v-4.1c0-.7.6-1.2 1.3-1.2h5.9c.4-.2.9.3 1 .8z"/></symbol><symbol viewBox="-271 356 69 82" id="gar" xmlns="http://www.w3.org/2000/svg"><path fill="#CDE7F9" d="M-205.5 436v.2h-54.2c-5.5-.1-9.9-4.5-9.9-9.9v-58.5c0-5.4 4.5-9.9 10.1-9.9h55.9c-3.6 0-6.8 1.9-8.6 4.7-1 1.5-1.5 3.3-1.5 5.2v58.5c0 2.6 1 5 2.7 6.7.5.8 1.2 1.3 1.9 1.5 1.1.7 2.3 1.2 3.6 1.5z"/><path fill="#FFF" d="M-205.5 436.1c0 .7-.6 1.3-1.3 1.3h-39l-13.7-1.3h-.2c-.9-.1-1.7-.7-2.5-1.7-1.9-2.2-3.5-6.2-3.5-8.2v-58.5c0-2.8 2.3-5.2 5.3-5.2h49.8c-1.1 1.5-1.8 3.2-1.8 5.2v58.5c0 3.3.5 5.4 1.4 6.7.5.8 1.2 1.3 1.9 1.5.7.3 1.5.4 2.3.4.6 0 1.2.5 1.3 1v.3z"/><path d="M-223.6 369.6h-35c-.4 0-.8.4-.8.8v7.8c0 .4.4.8.8.8h35c.4 0 .8-.4.8-.8v-7.8c0-.5-.4-.8-.8-.8zm0 13.4h-35c-.4 0-.8.4-.8.8v5.1c0 .4.4.8.8.8h35c.4 0 .8-.4.8-.8v-5.1c0-.4-.4-.8-.8-.8zm0 10.5h-35c-.4 0-.8.4-.8.8v5.1c0 .4.4.8.8.8h35c.4 0 .8-.4.8-.8v-5.1c0-.4-.4-.8-.8-.8zm-15.3 14.2h-19.8c-.4 0-.8.4-.8.8v5.1c0 .4.4.8.8.8h19.8c.4 0 .8-.4.8-.8v-5.1c0-.4-.3-.8-.8-.8z" fill="#006696"/><path fill="#CDE7F9" d="M-222.5 411.1c-.1 0-.1-.1-.2-.1h-9.2c-.1 0-.1 0-.2.1s-.2.2-.2.3v17.8c0 .2.1.3.2.3h.1c.1 0 .2-.1.3-.2l4.4-5.7 4.4 5.7c.1.1.3.2.4.1.2-.1.3-.2.3-.3v-17.8c-.1 0-.2-.1-.3-.2z"/><path fill="#006696" d="M-219.8 410.8c-.1-.2-.2-.4-.2-.5-.1-.2-.1-.4-.1-.6-.1-.5-.2-1.1-.6-1.8-.4-.6-1-.9-1.5-1.1-.2-.1-.4-.2-.5-.3-.1-.1-.3-.2-.4-.4-.4-.4-.9-.8-1.5-1.1-.7-.2-1.3-.1-1.9-.1-.2.1-.4.1-.6.1s-.4-.1-.6-.1c-.5-.1-1.2-.2-1.9.1-.7.2-1.2.7-1.5 1.1l-.4.4c-.1.1-.3.2-.5.3-.5.3-1.1.5-1.5 1.1s-.5 1.3-.6 1.8c-.1.2-.1.4-.1.6-.1.2-.2.3-.2.5-.3.5-.6 1-.6 1.8 0 .7.3 1.3.6 1.8.1.2.2.4.2.5.1.2.1.4.1.6.1.5.2 1.1.6 1.7.4.6 1 .9 1.5 1.1.1.1.2.1.3.2s.1.1.2.1l.2.2.2.2c.4.4.9.8 1.5 1.1.7.2 1.3.1 1.9.1.2-.1.4-.1.6-.1.2 0 .4.1.6.1.3.1.6.1 1 .1.3 0 .6-.1.9-.2.7-.2 1.2-.7 1.5-1.1l.2-.2.2-.2c.1-.1.1-.1.2-.1.1-.1.2-.1.3-.2.5-.3 1.1-.5 1.5-1.1s.5-1.2.6-1.7c.1-.2.1-.4.1-.6.1-.2.2-.3.2-.5.3-.5.6-1 .6-1.8 0-.7-.4-1.3-.6-1.8z"/><path fill="#006696" d="M-203.5 356.6h-55.9c-6.3 0-11.4 5-11.4 11.1v58.5c0 6.1 5.1 11.1 11.4 11.1h52.7c.7 0 1.3-.6 1.3-1.3v-.2c-.1-.6-.6-1-1.3-1-.8 0-1.6-.1-2.3-.4s-1.3-.7-1.9-1.5c-.9-1.3-1.4-3.3-1.4-6.7v-58.4c0-1.9.6-3.7 1.8-5.2 1.6-2.1 4.2-3.4 7-3.4.7 0 1.3-.6 1.3-1.3 0-.7-.6-1.3-1.3-1.3zm-10.1 6c-.9 1.6-1.3 3.3-1.3 5.2v58.5c0 1.8 0 5.9 2.2 8.6h-46.7c-.9 0-1.8-.2-2.7-.4-3.5-1.1-6.1-4.4-6.1-8.2v-58.5c0-4.8 3.9-8.6 8.8-8.6h48.7c-1.2.9-2.2 2.1-2.9 3.4z"/></symbol><symbol viewBox="-258 355 95 84" id="zamer" xmlns="http://www.w3.org/2000/svg"><title>Group</title><desc>Created using Figma</desc><path fill="#CDE7F9" d="M-224.9 358.8c-.7-.1-1.2-.2-1.8-.2l-18.2-2.2c-6.3-.7-11.8 4.2-11.8 10.5l.1 19.7c.4 14.6 12.5 26.3 27.4 26.3 15.2 0 27.4-12.2 27.4-27.2 0-13.6-10-24.8-23.1-26.9z"/><path fill="#FFF" d="M-228.2 364.2c-.6-.1-1.1-.2-1.6-.2l-16.7-1.9c-5.8-.6-10.9 3.6-10.9 9.1v17c.4 12.7 11.5 22.9 25.2 22.9 13.9 0 25.2-10.6 25.2-23.6 0-11.8-9.2-21.5-21.2-23.3z"/><path fill="#006696" d="M-169.6 412.9h-30.9v-4.6h4.3c1.9 0 3.4-1.5 3.4-3.4v-11.1c0-1.9-1.5-3.4-3.4-3.4h-4.3V385.5c0-13.9-10-25.8-24-28-.1 0-.1 0-.2-.1-.6-.1-1.2-.2-1.8-.2l-18.2-2.2c-3.4-.3-6.8.7-9.3 3-2.5 2.2-4 5.5-4 8.8v25c-.1 14.8-.2 27.7 7.4 35.2.7.7 1.3 1.3 2.1 1.8.4.3.9.6 1.3.9.4.3.9.5 1.3.8.8.4 1.6.8 2.5 1.1.4.2.9.3 1.3.5s.9.3 1.3.4c1.4.4 2.9.7 4.4.9.4.1.9.1 1.3.2.4 0 .9.1 1.3.1 1.4.1 2.9.2 4.4.2h63.3v4c0 .7.6 1.3 1.3 1.3.7 0 1.3-.5 1.3-1.3V419c.1-3.4-2.7-6.1-6.1-6.1zm-54.7-1.8c-.3.1-.6.1-1 .2-.5.1-1 .1-1.5.2s-1 .1-1.6.1h-1.5c-1.5 0-2.9-.2-4.3-.4-11.5-2.2-20.3-11.8-21-23.7 0-.3-.1-.6-.1-.9V367c0-.4.1-.9.1-1.4.3-2.1 1.4-4.1 3-5.5 2-1.7 4.6-2.6 7.3-2.3l18.1 2.2c.5.1 1.1.1 1.7.2h.1c12.7 2 22 12.7 22 25.5v.4c0 .7-.1 1.4-.1 2.1-.1.8-.2 1.5-.3 2.3v.1c-.3 1.7-.9 3.4-1.5 5-2.5 6-7.2 10.8-13.1 13.5-.4.2-.8.4-1.3.5-.4.2-.8.3-1.3.5-.3.1-.7.2-1 .4-.1 0-.1 0-.2.1-.4.1-.9.2-1.3.3-.6 0-.9.1-1.2.2z"/><path d="M-177.5 421.9v11.8h-2.6v-11.8c0-.7.6-1.3 1.3-1.3.7 0 1.3.6 1.3 1.3zm-14 0v11.8h-2.6v-11.8c0-.7.6-1.3 1.3-1.3.6 0 1.3.6 1.3 1.3zm-7.1 3.3v8.5h-2.6v-8.5c0-.7.6-1.3 1.3-1.3.7 0 1.3.6 1.3 1.3zm-14.1 0v8.5h-2.6v-8.5c0-.7.6-1.3 1.3-1.3.7 0 1.3.6 1.3 1.3zm28.2 0v8.5h-2.6v-8.5c0-.7.6-1.3 1.3-1.3.7 0 1.3.6 1.3 1.3zm14 0v8.5h-2.6v-8.5c0-.7.6-1.3 1.3-1.3.7 0 1.3.6 1.3 1.3zm-35.2-3.3v11.8h-2.6v-11.8c0-.2.1-.3.1-.5.2-.5.7-.8 1.2-.8s1 .3 1.2.8c.1.2.1.3.1.5zm-14 0v11.8h-2.6v-11.8c0-.7.6-1.3 1.3-1.3.4 0 .7.2.9.4.2.2.4.5.4.9zm-7.1 3.3v8.5h-2.6v-8.5c0-.7.6-1.3 1.3-1.3.7 0 1.3.6 1.3 1.3zm-14 0v7.1c-.4-.1-.8-.2-1.3-.4-.4-.2-.9-.3-1.3-.5h-.1v-6.2c0-.7.6-1.3 1.3-1.3.8 0 1.4.6 1.4 1.3zm7-3.3v11.6c-.4 0-.8 0-1.3-.1-.4-.1-.9-.1-1.3-.2h-.1v-11.4c0-.7.6-1.3 1.3-1.3.8.1 1.4.7 1.4 1.4zm-12.1-3.4v11.9c-.4-.2-.9-.5-1.3-.7-.4-.3-.9-.5-1.3-.9v-10.2c0-.7.6-1.3 1.3-1.3.7-.1 1.3.5 1.3 1.2z" fill="#FFF"/><path fill="#CDE7F9" d="M-229.2 397.2c6.4 0 11.6-5.2 11.6-11.5 0-6.4-5.2-11.5-11.6-11.5-6.4 0-11.6 5.2-11.6 11.5-.1 6.3 5.1 11.5 11.6 11.5z"/><g fill="#006696"><path d="M-229.2 372.8c-7.1 0-13 5.8-13 12.8 0 2.2.5 4.4 1.6 6.2l.1.1c.3.5.6 1 1 1.5.4.6.9 1.1 1.5 1.6 2.3 2.2 5.4 3.5 8.8 3.5 3 0 5.8-1 8-2.7.7-.6 1.4-1.2 2-1.9.6-.6 1-1.3 1.4-2.1 1-1.9 1.6-4 1.6-6.2-.1-7-5.9-12.8-13-12.8zm4.9 21.8c-.9.5-2 .9-3.1 1.1-.6.1-1.2.2-1.8.2-.9 0-1.8-.1-2.6-.3-1.2-.3-2.3-.8-3.3-1.5-.7-.4-1.2-.9-1.7-1.4l-.1-.1c-1.7-1.9-2.7-4.3-2.7-6.9 0-5.7 4.6-10.2 10.3-10.2 5.7 0 10.3 4.6 10.3 10.2 0 3-1.3 5.7-3.4 7.6l-.1.1c-.5.5-1.1.9-1.8 1.2z"/><path d="M-229.2 380.9c-2.7 0-4.8 2.2-4.8 4.8 0 2.7 2.1 4.8 4.8 4.8 2.6 0 4.8-2.1 4.8-4.8 0-2.7-2.1-4.8-4.8-4.8z"/></g><path fill="#CDE7F9" d="M-203 397.1v15.8h-14.9v-.1l-.1-1c5.3-2.2 9.7-6 12.8-10.7.5-.7.9-1.5 1.3-2.2.2-.4.4-.9.7-1.4.1-.2.1-.3.2-.4z"/></symbol></svg>