<?xml version="1.0" encoding="utf-8"?>
<!-- Generator: Adobe Illustrator 17.0.0, SVG Export Plug-In . SVG Version: 6.00 Build 0)  -->
<!DOCTYPE svg PUBLIC "-//W3C//DTD SVG 1.1//EN" "http://www.w3.org/Graphics/SVG/1.1/DTD/svg11.dtd">
<svg version="1.1" id="Слой_1" xmlns="http://www.w3.org/2000/svg" xmlns:xlink="http://www.w3.org/1999/xlink" x="0px" y="0px"
	 width="80px" height="80px" viewBox="0 0 80 80" enable-background="new 0 0 80 80" xml:space="preserve">
<g>
	<g>
		<rect x="0" y="36.667" width="13.333" height="6.667"/>
	</g>
</g>
<g>
	<g>
		<rect x="66.667" y="36.667" width="13.333" height="6.667"/>
	</g>
</g>
<g>
	<g>
		<rect x="36.667" y="66.667" width="6.667" height="13.333"/>
	</g>
</g>
<g>
	<g>
		<rect x="36.667" width="6.667" height="13.333"/>
	</g>
</g>
<g>
	<g>
		<rect x="9.768" y="60.228" transform="matrix(-0.7071 0.7071 -0.7071 -0.7071 73.001 96.885)" width="13.333" height="6.667"/>
	</g>
</g>
<g>
	<g>
		
			<rect x="56.902" y="13.105" transform="matrix(-0.7071 0.7071 -0.7071 -0.7071 120.1416 -16.8872)" width="13.333" height="6.667"/>
	</g>
</g>
<g>
	<g>
		<rect x="60.229" y="56.887" transform="matrix(-0.707 0.7072 -0.7072 -0.707 153.4474 63.5351)" width="6.667" height="13.333"/>
	</g>
</g>
<g>
	<g>
		<rect x="13.107" y="9.763" transform="matrix(-0.707 0.7072 -0.7072 -0.707 39.6826 16.4196)" width="6.667" height="13.333"/>
	</g>
</g>
<g>
	<g>
		<path d="M40,20c-11.046,0-20,8.954-20,20s8.954,20,20,20s20-8.954,20-20S51.046,20,40,20z M40,53.967
			c-7.714,0-13.967-6.253-13.967-13.967C26.052,32.294,32.294,26.052,40,26.033c7.714,0,13.967,6.253,13.967,13.967
			S47.714,53.967,40,53.967z"/>
	</g>
</g>
</svg>
