<?xml version="1.0" encoding="utf-8"?>
<!-- Generator: Adobe Illustrator 17.0.0, SVG Export Plug-In . SVG Version: 6.00 Build 0)  -->
<!DOCTYPE svg PUBLIC "-//W3C//DTD SVG 1.1//EN" "http://www.w3.org/Graphics/SVG/1.1/DTD/svg11.dtd">
<svg version="1.1" id="Слой_1" xmlns="http://www.w3.org/2000/svg" xmlns:xlink="http://www.w3.org/1999/xlink" x="0px" y="0px"
	 width="80px" height="80px" viewBox="0 0 80 80" enable-background="new 0 0 80 80" xml:space="preserve">
<g>
	<g>
		<path d="M78.537,1.452c-3.389-3.389-11.632-0.642-18.41,6.137c-5.529,5.529-10.168,11.081-13.501,15.955L34.354,11.27
			c-0.321-0.321-0.764-0.516-1.2-0.533c-0.437-0.018-0.865,0.145-1.162,0.441c-1.699,1.699-3.398,3.398-5.097,5.097
			c-0.297,0.297-0.459,0.725-0.441,1.162c0.018,0.437,0.216,0.875,0.537,1.197l34.365,34.365c0.321,0.321,0.76,0.519,1.197,0.537
			c0.437,0.018,0.865-0.145,1.162-0.441c1.699-1.699,3.398-3.398,5.097-5.097c0.297-0.297,0.459-0.725,0.441-1.162
			c-0.018-0.437-0.212-0.879-0.533-1.2L56.446,33.362c4.874-3.332,10.426-7.972,15.955-13.501
			C79.179,13.083,81.927,4.841,78.537,1.452L78.537,1.452z"/>
		<path d="M-0.011,45.635l3.958,3.958C7.839,45.552,14.1,39.218,14.54,39.851c0.41,0.59-5.164,6.746-9.232,11.103l4.046,4.046
			c2.992-2.794,7.066-6.424,7.64-6.037c0.572,0.386-3.067,4.607-5.918,7.759l6.792,6.792c3.449-3.815,8.736-9.473,9.297-8.936
			c0.576,0.55-4.501,6.682-7.747,10.486l4.695,4.695c5.499-5.73,17.003-17.547,17.781-16.937
			c0.737,0.578-10.165,11.983-16.358,18.36l4.426,4.426c2.351-1.915,4.795-3.738,5.093-3.321c0.255,0.356-1.362,2.639-3.287,5.128
			L34.353,80L58.9,55.454L24.535,21.089L-0.011,45.635L-0.011,45.635z"/>
	</g>
</g>
</svg>
