<?xml version="1.0" encoding="utf-8"?>
<!-- Generator: Adobe Illustrator 19.2.1, SVG Export Plug-In . SVG Version: 6.00 Build 0)  -->
<svg version="1.1" id="Слой_1" xmlns="http://www.w3.org/2000/svg" xmlns:xlink="http://www.w3.org/1999/xlink" x="0px" y="0px"
	 viewBox="0 0 340 95" style="enable-background:new 0 0 340 95;" xml:space="preserve">
<style type="text/css">
	.st0{fill:#D8D8D8;}
	.st1{fill:#070707;}
</style>
<polygon class="st0" points="60.4,52.9 54.9,52.9 54.5,52.9 49,52.9 49,52.9 43.6,52.9 43.1,52.9 34.1,52.9 34.1,9.6 0,9.6 0,85.8 
	34.1,85.8 34.1,85.8 43.6,85.8 43.6,80 49,80 49,73 54.9,73 54.9,58 60.4,58 "/>
<polygon class="st1" points="0,0 0,6.9 37.1,6.9 37.1,50.3 43.1,50.3 43.1,6.9 43.1,4.5 43.1,0 "/>
<polygon class="st1" points="340,0 298.3,0 298.3,4.6 298.3,6.9 298.3,50.3 304.3,50.3 304.3,6.9 340,6.9 "/>
<polygon class="st0" points="307.3,9.6 307.3,52.9 300,52.9 300,52.9 299.8,52.9 299.8,52.9 286.9,52.9 286.9,52.9 281,52.9 281,58 
	285.8,58 285.8,72.7 292.7,72.7 292.7,79.4 300,79.4 300,85.8 310.1,85.8 310.1,85.8 340,85.8 340,9.6 "/>
<path class="st0" d="M295.6,82.9h-6.5v-7h-6.6V60.8H58.3v15.1h-5.9v7H47v2.9h5.4v0h5.9H268V90h-22.4c-1.4,0-2.5,1.1-2.5,2.5
	c0,1.4,1.1,2.5,2.5,2.5h24.8c1.9,0,3.5-1.5,3.5-3.5V90h0v-4.2h8.7h6.6v0h6.5V82.9z"/>
</svg>
