<?xml version="1.0" encoding="utf-8"?>
<!-- Generator: Adobe Illustrator 19.2.1, SVG Export Plug-In . SVG Version: 6.00 Build 0)  -->
<svg version="1.1" id="Слой_1" xmlns="http://www.w3.org/2000/svg" xmlns:xlink="http://www.w3.org/1999/xlink" x="0px" y="0px"
	 viewBox="0 0 340 95" style="enable-background:new 0 0 340 95;" xml:space="preserve">
<style type="text/css">
	.st0{fill:#070707;}
	.st1{fill:#D8D8D8;}
</style>
<polygon class="st0" points="60.2,44.5 42.9,44.5 42.9,6.9 42.9,6.9 42.9,0 0,0 0,6.9 36.9,6.9 36.9,50.4 42.9,50.4 42.9,50.4 
	60.2,50.4 "/>
<polygon class="st0" points="340,0 298.5,0 298.5,3.8 298.5,6.9 298.5,44.2 281.5,44.2 281.5,50.1 298.5,50.1 298.5,50.1 
	304.4,50.1 304.4,6.9 340,6.9 "/>
<polygon class="st1" points="60.1,53.1 54.6,53.1 54.3,53.1 48.8,53.1 48.8,53.1 43.4,53.1 42.9,53.1 34,53.1 34,10 0,10 0,85.8 
	31.6,85.8 34,85.8 43.4,85.8 43.4,80 48.8,80 48.8,73.1 54.6,73.1 54.6,58.1 60.1,58.1 "/>
<polygon class="st1" points="307.4,10 307.4,53.1 300.6,53.1 300.2,53.1 292.9,53.1 292.9,53.1 287.1,53.1 286.1,53.1 281.2,53.1 
	281.2,58.1 286.1,58.1 286.1,72.8 292.9,72.8 292.9,79.4 300.2,79.4 300.2,85.8 307.4,85.8 307.4,85.8 340,85.8 340,10 "/>
<path class="st1" d="M289.3,82.9V76h-6.6V60.9H58.1V76h-5.9v6.9h-5.4v2.9h5.4h5.9h210.2V90H246c-1.4,0-2.5,1.1-2.5,2.5
	s1.1,2.5,2.5,2.5h24.6c1.9,0,3.4-1.5,3.4-3.4V90h0v-4.2h8.6h6.6h6.5v-2.9H289.3z"/>
</svg>
