<?xml version="1.0" encoding="utf-8"?>
<!-- Generator: Adobe Illustrator 19.2.1, SVG Export Plug-In . SVG Version: 6.00 Build 0)  -->
<svg version="1.1" id="Слой_1" xmlns="http://www.w3.org/2000/svg" xmlns:xlink="http://www.w3.org/1999/xlink" x="0px" y="0px"
	 viewBox="0 0 340 95" style="enable-background:new 0 0 340 95;" xml:space="preserve">
<style type="text/css">
	.st0{fill:#070707;}
	.st1{fill:#D8D8D8;}
</style>
<polygon class="st0" points="60.1,50.5 42.8,0.1 42.8,0.1 42.8,0.1 36.9,0.1 0,0.1 0,7 36.9,7 36.9,50.5 42.5,50.5 42.5,50.5 "/>
<polygon class="st0" points="340,0 304.5,0 300.2,0 282.2,50.4 298.6,50.4 304.5,50.4 304.5,6.8 340,6.8 "/>
<polygon class="st1" points="60,53.2 54.5,53.2 54.2,53.2 48.7,53.2 48.7,53.2 43.3,53.2 42.8,53.2 33.9,53.2 33.9,10.1 0,10.1 
	0,85.9 31.6,85.9 33.9,85.9 43.3,85.9 43.3,80 48.7,80 48.7,73.2 54.5,73.2 54.5,58.2 60,58.2 "/>
<polygon class="st1" points="340,10.1 307.5,10.1 307.5,53.2 300.2,53.2 300.2,53.2 293,53.2 293,53.2 287.2,53.2 287.2,53.2 
	281.4,53.2 281.4,58.2 286.2,58.2 286.2,72.8 293,72.8 293,79.4 300.2,79.4 300.2,85.9 310.3,85.9 310.3,85.9 340,85.9 "/>
<path class="st1" d="M289.4,82.9V76h-6.6V61H58v15h-5.9v6.9h-5.3v2.9h5.3H58h210.4V90h-22.2c-1.4,0-2.5,1.1-2.5,2.5
	c0,1.4,1.1,2.5,2.5,2.5h24.6c1.9,0,3.4-1.5,3.4-3.4V90v0v-4.2h8.6h6.6h6.5v-2.9H289.4z"/>
</svg>
