<?xml version="1.0" encoding="utf-8"?>
<!-- Generator: Adobe Illustrator 19.2.1, SVG Export Plug-In . SVG Version: 6.00 Build 0)  -->
<svg version="1.1" id="Слой_1" xmlns="http://www.w3.org/2000/svg" xmlns:xlink="http://www.w3.org/1999/xlink" x="0px" y="0px"
	 viewBox="0 0 260 170" style="enable-background:new 0 0 260 170;" xml:space="preserve">
<style type="text/css">
	.st0{fill:#2F76DD;}
	.st1{fill:#BFBFBF;}
</style>
<rect x="0" y="129.7" class="st0" width="260" height="40.3"/>
<rect x="0" y="0" class="st0" width="260" height="40.3"/>
<path class="st0" d="M130,46.2l-34.3,58.3H164L130,46.2z M129.8,59l23.5,39.7h-46.5L129.8,59z"/>
<path class="st0" d="M131,46.2l-34.3,58.3H165L131,46.2z M130.8,59l23.5,39.7h-46.5L130.8,59z"/>
<path class="st0" d="M130.7,124.5L165,66.2H96.7L130.7,124.5z M130.8,111.7L107.3,72h46.5L130.8,111.7z"/>
<g>
	<path class="st1" d="M254.9,5.4v159.9H5.5V5.4h253.4H254.9z M260.2,0H0v170h260.2V0L260.2,0z"/>
</g>
</svg>
