<?xml version="1.0" encoding="utf-8"?>
<!-- Generator: Adobe Illustrator 17.0.0, SVG Export Plug-In . SVG Version: 6.00 Build 0)  -->
<!DOCTYPE svg PUBLIC "-//W3C//DTD SVG 1.1//EN" "http://www.w3.org/Graphics/SVG/1.1/DTD/svg11.dtd">
<svg version="1.1" id="Слой_1" xmlns="http://www.w3.org/2000/svg" xmlns:xlink="http://www.w3.org/1999/xlink" x="0px" y="0px"
	 width="104px" height="104px" viewBox="0 0 104 104" enable-background="new 0 0 104 104" xml:space="preserve">
<g>
	<g id="palette">
		<path d="M52,0C23.111,0,0,23.111,0,52s23.111,52,52,52c4.622,0,8.667-4.044,8.667-8.667c0-2.311-0.578-4.044-2.311-5.778
			c-1.156-1.733-2.311-3.467-2.311-5.778c0-4.622,4.045-8.667,8.667-8.667h10.4C91.289,75.111,104,62.4,104,46.222
			C104,20.8,80.889,0,52,0z M20.222,52c-4.622,0-8.667-4.044-8.667-8.667s4.044-8.667,8.667-8.667s8.667,4.044,8.667,8.667
			S24.844,52,20.222,52z M37.556,28.889c-4.622,0-8.667-4.044-8.667-8.667s4.044-8.667,8.667-8.667s8.667,4.044,8.667,8.667
			S42.178,28.889,37.556,28.889z M66.444,28.889c-4.622,0-8.667-4.044-8.667-8.667s4.044-8.667,8.667-8.667s8.667,4.044,8.667,8.667
			S71.067,28.889,66.444,28.889z M83.778,52c-4.622,0-8.667-4.044-8.667-8.667s4.044-8.667,8.667-8.667
			c4.622,0,8.667,4.044,8.667,8.667S88.4,52,83.778,52z"/>
	</g>
</g>
</svg>
