<?xml version="1.0" encoding="utf-8"?>
<!-- Generator: Adobe Illustrator 17.0.0, SVG Export Plug-In . SVG Version: 6.00 Build 0)  -->
<!DOCTYPE svg PUBLIC "-//W3C//DTD SVG 1.1//EN" "http://www.w3.org/Graphics/SVG/1.1/DTD/svg11.dtd">
<svg version="1.1" id="Слой_1" xmlns="http://www.w3.org/2000/svg" xmlns:xlink="http://www.w3.org/1999/xlink" x="0px" y="0px"
	 width="385px" height="270px" viewBox="0 0 385 270" enable-background="new 0 0 385 270" xml:space="preserve">
<rect id="XMLID_6_" x="103.111" y="-0.008" fill="#2F2F2F" width="53.208" height="108.086"/>
<rect id="XMLID_2_" x="106.228" y="2.997" fill="#FFFFFF" width="47.197" height="101.88"/>
<path id="XMLID_8_" fill="#2F2F2F" d="M110.718,50.639h1.113c0.554,0,1.002,0.448,1.002,1.002v1.725c0,0.215,0.175,0.39,0.39,0.39
	h4.174c0.554,0,1.002,0.448,1.002,1.002l0,0c0,0.554-0.448,1.002-1.002,1.002h-4.286c-0.215,0-0.39,0.175-0.39,0.39v5.399
	c0,0.554-0.448,1.002-1.002,1.002h-0.984c-0.563,0-1.021-0.457-1.021-1.021v-9.887C109.716,51.088,110.164,50.639,110.718,50.639z"
	/>
<rect id="XMLID_7_" y="-0.008" fill="#2F2F2F" width="53.208" height="108.086"/>
<rect id="XMLID_5_" x="3.118" y="2.997" fill="#FFFFFF" width="47.197" height="101.88"/>
<path id="XMLID_4_" fill="#2F2F2F" d="M7.607,50.639H8.72c0.554,0,1.002,0.448,1.002,1.002v1.725c0,0.215,0.175,0.39,0.39,0.39
	h4.174c0.554,0,1.002,0.448,1.002,1.002l0,0c0,0.554-0.448,1.002-1.002,1.002H10c-0.215,0-0.39,0.175-0.39,0.39v5.399
	c0,0.554-0.448,1.002-1.002,1.002H7.626c-0.563,0-1.021-0.457-1.021-1.021v-9.887C6.605,51.088,7.053,50.639,7.607,50.639z"/>
<rect id="XMLID_1_" x="83.54" y="-0.008" fill="#2F2F2F" width="15.844" height="108.309"/>
<rect id="XMLID_12_" x="186.102" y="-0.008" fill="#2F2F2F" width="53.208" height="108.086"/>
<rect id="XMLID_11_" x="189.219" y="2.997" fill="#FFFFFF" width="47.197" height="101.88"/>
<path id="XMLID_10_" fill="#2F2F2F" d="M193.709,50.639h1.113c0.553,0,1.002,0.448,1.002,1.002v1.725c0,0.215,0.175,0.39,0.39,0.39
	h4.174c0.553,0,1.002,0.448,1.002,1.002l0,0c0,0.554-0.448,1.002-1.002,1.002h-4.286c-0.215,0-0.39,0.175-0.39,0.39v5.399
	c0,0.554-0.448,1.002-1.002,1.002h-0.984c-0.563,0-1.021-0.457-1.021-1.021v-9.887C192.707,51.088,193.156,50.639,193.709,50.639z"
	/>
<rect id="XMLID_9_" x="242.733" y="-0.008" fill="#2F2F2F" width="15.844" height="108.309"/>
<rect id="XMLID_16_" x="309.081" y="-0.008" fill="#2F2F2F" width="53.208" height="108.086"/>
<rect id="XMLID_15_" x="312.198" y="2.997" fill="#FFFFFF" width="47.197" height="101.88"/>
<path id="XMLID_14_" fill="#2F2F2F" d="M316.688,50.639h1.113c0.553,0,1.002,0.448,1.002,1.002v1.725c0,0.215,0.175,0.39,0.39,0.39
	h4.174c0.553,0,1.002,0.448,1.002,1.002l0,0c0,0.554-0.448,1.002-1.002,1.002h-4.286c-0.215,0-0.39,0.175-0.39,0.39v5.399
	c0,0.554-0.448,1.002-1.002,1.002h-0.983c-0.563,0-1.021-0.457-1.021-1.021v-9.887C315.686,51.088,316.134,50.639,316.688,50.639z"
	/>
<rect id="XMLID_13_" x="365.712" y="-0.008" fill="#2F2F2F" width="15.844" height="108.309"/>
<rect id="XMLID_17_" x="289.762" y="-0.008" fill="#2F2F2F" width="15.844" height="108.309"/>
<rect id="XMLID_33_" x="103.111" y="161.699" fill="#2F2F2F" width="53.208" height="108.086"/>
<rect id="XMLID_32_" x="106.228" y="164.705" fill="#FFFFFF" width="47.197" height="101.88"/>
<path id="XMLID_31_" fill="#2F2F2F" d="M110.718,212.348h1.113c0.554,0,1.002,0.448,1.002,1.002v1.725c0,0.215,0.175,0.39,0.39,0.39
	h4.174c0.554,0,1.002,0.448,1.002,1.002l0,0c0,0.554-0.448,1.002-1.002,1.002h-4.286c-0.215,0-0.39,0.175-0.39,0.39v5.399
	c0,0.554-0.448,1.002-1.002,1.002h-0.984c-0.563,0-1.021-0.457-1.021-1.021v-9.888C109.716,212.796,110.164,212.348,110.718,212.348
	z"/>
<rect id="XMLID_30_" y="161.699" fill="#2F2F2F" width="53.208" height="108.086"/>
<rect id="XMLID_29_" x="3.118" y="164.705" fill="#FFFFFF" width="47.197" height="101.88"/>
<path id="XMLID_28_" fill="#2F2F2F" d="M7.607,212.348H8.72c0.554,0,1.002,0.448,1.002,1.002v1.725c0,0.215,0.175,0.39,0.39,0.39
	h4.174c0.554,0,1.002,0.448,1.002,1.002l0,0c0,0.554-0.448,1.002-1.002,1.002H10c-0.215,0-0.39,0.175-0.39,0.39v5.399
	c0,0.554-0.448,1.002-1.002,1.002H7.626c-0.563,0-1.021-0.457-1.021-1.021v-9.888C6.605,212.796,7.053,212.348,7.607,212.348z"/>
<rect id="XMLID_27_" x="83.54" y="161.699" fill="#2F2F2F" width="15.844" height="108.309"/>
<rect id="XMLID_34_" x="0.192" y="140.84" fill="#2F2F2F" width="53.017" height="17.353"/>
<rect id="XMLID_35_" x="83.207" y="140.84" fill="#2F2F2F" width="73.112" height="17.353"/>
<rect id="XMLID_36_" x="186.102" y="140.84" fill="#2F2F2F" width="73.112" height="17.353"/>
<rect id="XMLID_37_" x="289.762" y="140.84" fill="#2F2F2F" width="91.793" height="17.353"/>
<rect id="XMLID_26_" x="186.102" y="161.699" fill="#2F2F2F" width="53.208" height="108.086"/>
<rect id="XMLID_25_" x="189.219" y="164.705" fill="#FFFFFF" width="47.197" height="101.88"/>
<path id="XMLID_24_" fill="#2F2F2F" d="M193.709,212.348h1.113c0.553,0,1.002,0.448,1.002,1.002v1.725c0,0.215,0.175,0.39,0.39,0.39
	h4.174c0.553,0,1.002,0.448,1.002,1.002l0,0c0,0.554-0.448,1.002-1.002,1.002h-4.286c-0.215,0-0.39,0.175-0.39,0.39v5.399
	c0,0.554-0.448,1.002-1.002,1.002h-0.984c-0.563,0-1.021-0.457-1.021-1.021v-9.888C192.707,212.796,193.156,212.348,193.709,212.348
	z"/>
<rect id="XMLID_23_" x="242.733" y="161.699" fill="#2F2F2F" width="15.844" height="108.309"/>
<rect id="XMLID_22_" x="309.081" y="161.699" fill="#2F2F2F" width="53.208" height="108.086"/>
<rect id="XMLID_21_" x="312.198" y="164.705" fill="#FFFFFF" width="47.197" height="101.88"/>
<path id="XMLID_20_" fill="#2F2F2F" d="M316.688,212.348h1.113c0.553,0,1.002,0.448,1.002,1.002v1.725c0,0.215,0.175,0.39,0.39,0.39
	h4.174c0.553,0,1.002,0.448,1.002,1.002l0,0c0,0.554-0.448,1.002-1.002,1.002h-4.286c-0.215,0-0.39,0.175-0.39,0.39v5.399
	c0,0.554-0.448,1.002-1.002,1.002h-0.983c-0.563,0-1.021-0.457-1.021-1.021v-9.888C315.686,212.796,316.134,212.348,316.688,212.348
	z"/>
<rect id="XMLID_19_" x="365.712" y="161.699" fill="#2F2F2F" width="15.844" height="108.309"/>
<rect id="XMLID_18_" x="289.762" y="161.699" fill="#2F2F2F" width="15.844" height="108.309"/>
</svg>
