<?xml version="1.0" encoding="utf-8"?>
<!-- Generator: Adobe Illustrator 19.2.1, SVG Export Plug-In . SVG Version: 6.00 Build 0)  -->
<svg version="1.1" id="Слой_1" xmlns="http://www.w3.org/2000/svg" xmlns:xlink="http://www.w3.org/1999/xlink" x="0px" y="0px"
	 viewBox="0 0 260 170" style="enable-background:new 0 0 260 170;" xml:space="preserve">
<style type="text/css">
	.st0{fill:#CE2121;}
	.st1{fill:#BFBFBF;}
	.st2{fill:#FFFFFF;}
</style>
<rect x="-0.2" y="0" class="st0" width="260.2" height="170"/>
<g>
	<path class="st1" d="M254.7,5.4v159.9H5.3V5.4h253.4H254.7z M260,0H-0.2v170H260V0L260,0z"/>
</g>
<path class="st2" d="M140.2,59.2c0,0-11.5-18.9-36.3-19C79.1,40,58.5,62,59.2,86.8c0.7,24.8,25.2,42.7,44.4,42.6
	c19.1,0,26.9-8.6,36.6-18.2c0,0-9.7,9.8-24.1,10.1c-14.5,0.3-37.5-9.3-37.5-34.9c0-26.1,22.4-38.5,38.5-37.8
	C133.8,49.3,137.9,56.1,140.2,59.2z"/>
<polygon class="st2" points="155.3,64.4 163.9,76.5 178.4,72.5 170.1,84.8 178.4,97.5 163.9,92.7 155.3,104.6 154.5,89.6 
	140.2,84.8 154.5,80.2 "/>
</svg>
