<?xml version="1.0" encoding="utf-8"?>
<!-- Generator: Adobe Illustrator 17.1.0, SVG Export Plug-In . SVG Version: 6.00 Build 0)  -->
<!DOCTYPE svg PUBLIC "-//W3C//DTD SVG 1.1//EN" "http://www.w3.org/Graphics/SVG/1.1/DTD/svg11.dtd">
<svg version="1.1" id="Layer_1" xmlns="http://www.w3.org/2000/svg" xmlns:xlink="http://www.w3.org/1999/xlink" x="0px" y="0px"
	 viewBox="0 0 121 121" enable-background="new 0 0 121 121" xml:space="preserve">
<g>
	<g>
		<g>
			<path fill="#FFFFFF" d="M113.9,119.4H7.1c-3,0-5.5-2.5-5.5-5.5V7.1c0-3,2.5-5.5,5.5-5.5h106.8c3,0,5.5,2.5,5.5,5.5v106.8
				C119.4,116.9,116.9,119.4,113.9,119.4z"/>
		</g>
		<g>
			<path fill="#2875D4" d="M113.9,120.5H7.1c-3.6,0-6.6-3-6.6-6.6V7.1c0-3.6,3-6.6,6.6-6.6h106.8c3.6,0,6.6,3,6.6,6.6v106.8
				C120.5,117.5,117.5,120.5,113.9,120.5z M7.1,2.8c-2.4,0-4.3,1.9-4.3,4.3v106.8c0,2.4,1.9,4.3,4.3,4.3h106.8
				c2.4,0,4.3-1.9,4.3-4.3V7.1c0-2.4-1.9-4.3-4.3-4.3H7.1z"/>
		</g>
	</g>
	<g>
		<g>
			<g>
				<path fill="#2875D4" d="M21,78.5l-2.1-24.9l0.6-0.1c18.4-3.2,37.2-4.8,55.8-4.9c-0.2-1.9-0.3-3.8-0.5-5.7
					c-5.5,0-11.1,0.2-16.6,0.5c-14.8,0.8-29.7,2.6-44.4,5.4c-0.6,0.1-1.3,0.2-1.9,0.4c0.9,10.1,1.7,20.3,2.6,30.4
					c0.6-0.1,1.3-0.2,1.9-0.4C17.9,79.1,19.5,78.8,21,78.5C21,78.6,21,78.5,21,78.5z"/>
			</g>
		</g>
	</g>
	<g>
		<g>
			<path fill="#2875D4" d="M73,70.5c-0.5-0.9-1.4-1.5-2.3-1.9c-0.9-0.4-2-0.5-2.8,0c-0.8,0.5-0.8,1.5-0.5,2.4
				c0.3,0.8,0.9,1.7,1.5,2.3c0.6,0.7,1.3,1.2,2,1.7c0.2,0.1,0.3,0.2,0.5,0.3l0,0c0.6-0.6,1.2-1.3,1.6-2.2c0.2-0.4,0.4-0.9,0.4-1.3
				C73.4,71.4,73.2,71,73,70.5z M73,70.5c-0.5-0.9-1.4-1.5-2.3-1.9c-0.9-0.4-2-0.5-2.8,0c-0.8,0.5-0.8,1.5-0.5,2.4
				c0.3,0.8,0.9,1.7,1.5,2.3c0.6,0.7,1.3,1.2,2,1.7c0.2,0.1,0.3,0.2,0.5,0.3l0,0c0.6-0.6,1.2-1.3,1.6-2.2c0.2-0.4,0.4-0.9,0.4-1.3
				C73.4,71.4,73.2,71,73,70.5z M73,70.5c-0.5-0.9-1.4-1.5-2.3-1.9c-0.9-0.4-2-0.5-2.8,0c-0.8,0.5-0.8,1.5-0.5,2.4
				c0.3,0.8,0.9,1.7,1.5,2.3c0.6,0.7,1.3,1.2,2,1.7c0.2,0.1,0.3,0.2,0.5,0.3l0,0c0.6-0.6,1.2-1.3,1.6-2.2c0.2-0.4,0.4-0.9,0.4-1.3
				C73.4,71.4,73.2,71,73,70.5z M74.2,77.3c-0.4-0.2-1-0.5-1.6-0.8c-0.3-0.2-0.7-0.4-1.1-0.6c-0.6,0.6-1.2,1-1.7,1.4
				c-0.1,0.1-0.2,0.2-0.3,0.2c1.7,0,3.4-0.1,5.1-0.1C74.5,77.4,74.3,77.4,74.2,77.3z M74.2,77.3c-0.4-0.2-1-0.5-1.6-0.8
				c-0.3-0.2-0.7-0.4-1.1-0.6c-0.6,0.6-1.2,1-1.7,1.4c-0.1,0.1-0.2,0.2-0.3,0.2c1.7,0,3.4-0.1,5.1-0.1
				C74.5,77.4,74.3,77.4,74.2,77.3z M73,70.5c-0.5-0.9-1.4-1.5-2.3-1.9c-0.9-0.4-2-0.5-2.8,0c-0.8,0.5-0.8,1.5-0.5,2.4
				c0.3,0.8,0.9,1.7,1.5,2.3c0.6,0.7,1.3,1.2,2,1.7c0.2,0.1,0.3,0.2,0.5,0.3l0,0c0.6-0.6,1.2-1.3,1.6-2.2c0.2-0.4,0.4-0.9,0.4-1.3
				C73.4,71.4,73.2,71,73,70.5z M73,70.5c-0.5-0.9-1.4-1.5-2.3-1.9c-0.9-0.4-2-0.5-2.8,0c-0.8,0.5-0.8,1.5-0.5,2.4
				c0.3,0.8,0.9,1.7,1.5,2.3c0.6,0.7,1.3,1.2,2,1.7c0.2,0.1,0.3,0.2,0.5,0.3l0,0c0.6-0.6,1.2-1.3,1.6-2.2c0.2-0.4,0.4-0.9,0.4-1.3
				C73.4,71.4,73.2,71,73,70.5z M74.2,77.3c-0.4-0.2-1-0.5-1.6-0.8c-0.3-0.2-0.7-0.4-1.1-0.6c-0.6,0.6-1.2,1-1.7,1.4
				c-0.1,0.1-0.2,0.2-0.3,0.2c1.7,0,3.4-0.1,5.1-0.1C74.5,77.4,74.3,77.4,74.2,77.3z M74.2,77.3c-0.4-0.2-1-0.5-1.6-0.8
				c-0.3-0.2-0.7-0.4-1.1-0.6c-0.6,0.6-1.2,1-1.7,1.4c-0.1,0.1-0.2,0.2-0.3,0.2c1.7,0,3.4-0.1,5.1-0.1
				C74.5,77.4,74.3,77.4,74.2,77.3z M73,70.5c-0.5-0.9-1.4-1.5-2.3-1.9c-0.9-0.4-2-0.5-2.8,0c-0.8,0.5-0.8,1.5-0.5,2.4
				c0.3,0.8,0.9,1.7,1.5,2.3c0.6,0.7,1.3,1.2,2,1.7c0.2,0.1,0.3,0.2,0.5,0.3l0,0c0.6-0.6,1.2-1.3,1.6-2.2c0.2-0.4,0.4-0.9,0.4-1.3
				C73.4,71.4,73.2,71,73,70.5z M73,70.5c-0.5-0.9-1.4-1.5-2.3-1.9c-0.9-0.4-2-0.5-2.8,0c-0.8,0.5-0.8,1.5-0.5,2.4
				c0.3,0.8,0.9,1.7,1.5,2.3c0.6,0.7,1.3,1.2,2,1.7c0.2,0.1,0.3,0.2,0.5,0.3l0,0c0.6-0.6,1.2-1.3,1.6-2.2c0.2-0.4,0.4-0.9,0.4-1.3
				C73.4,71.4,73.2,71,73,70.5z M74.2,77.3c-0.4-0.2-1-0.5-1.6-0.8c-0.3-0.2-0.7-0.4-1.1-0.6c-0.6,0.6-1.2,1-1.7,1.4
				c-0.1,0.1-0.2,0.2-0.3,0.2c1.7,0,3.4-0.1,5.1-0.1C74.5,77.4,74.3,77.4,74.2,77.3z M74.2,77.3c-0.4-0.2-1-0.5-1.6-0.8
				c-0.3-0.2-0.7-0.4-1.1-0.6c-0.6,0.6-1.2,1-1.7,1.4c-0.1,0.1-0.2,0.2-0.3,0.2c1.7,0,3.4-0.1,5.1-0.1
				C74.5,77.4,74.3,77.4,74.2,77.3z M73,70.5c-0.5-0.9-1.4-1.5-2.3-1.9c-0.9-0.4-2-0.5-2.8,0c-0.8,0.5-0.8,1.5-0.5,2.4
				c0.3,0.8,0.9,1.7,1.5,2.3c0.6,0.7,1.3,1.2,2,1.7c0.2,0.1,0.3,0.2,0.5,0.3l0,0c0.6-0.6,1.2-1.3,1.6-2.2c0.2-0.4,0.4-0.9,0.4-1.3
				C73.4,71.4,73.2,71,73,70.5z M73,70.5c-0.5-0.9-1.4-1.5-2.3-1.9c-0.9-0.4-2-0.5-2.8,0c-0.8,0.5-0.8,1.5-0.5,2.4
				c0.3,0.8,0.9,1.7,1.5,2.3c0.6,0.7,1.3,1.2,2,1.7c0.2,0.1,0.3,0.2,0.5,0.3l0,0c0.6-0.6,1.2-1.3,1.6-2.2c0.2-0.4,0.4-0.9,0.4-1.3
				C73.4,71.4,73.2,71,73,70.5z M74.2,77.3c-0.4-0.2-1-0.5-1.6-0.8c-0.3-0.2-0.7-0.4-1.1-0.6c-0.6,0.6-1.2,1-1.7,1.4
				c-0.1,0.1-0.2,0.2-0.3,0.2c1.7,0,3.4-0.1,5.1-0.1C74.5,77.4,74.3,77.4,74.2,77.3z M74.2,77.3c-0.4-0.2-1-0.5-1.6-0.8
				c-0.3-0.2-0.7-0.4-1.1-0.6c-0.6,0.6-1.2,1-1.7,1.4c-0.1,0.1-0.2,0.2-0.3,0.2c1.7,0,3.4-0.1,5.1-0.1
				C74.5,77.4,74.3,77.4,74.2,77.3z M73,70.5c-0.5-0.9-1.4-1.5-2.3-1.9c-0.9-0.4-2-0.5-2.8,0c-0.8,0.5-0.8,1.5-0.5,2.4
				c0.3,0.8,0.9,1.7,1.5,2.3c0.6,0.7,1.3,1.2,2,1.7c0.2,0.1,0.3,0.2,0.5,0.3l0,0c0.6-0.6,1.2-1.3,1.6-2.2c0.2-0.4,0.4-0.9,0.4-1.3
				C73.4,71.4,73.2,71,73,70.5z M73,70.5c-0.5-0.9-1.4-1.5-2.3-1.9c-0.9-0.4-2-0.5-2.8,0c-0.8,0.5-0.8,1.5-0.5,2.4
				c0.3,0.8,0.9,1.7,1.5,2.3c0.6,0.7,1.3,1.2,2,1.7c0.2,0.1,0.3,0.2,0.5,0.3l0,0c0.6-0.6,1.2-1.3,1.6-2.2c0.2-0.4,0.4-0.9,0.4-1.3
				C73.4,71.4,73.2,71,73,70.5z M74.2,77.3c-0.4-0.2-1-0.5-1.6-0.8c-0.3-0.2-0.7-0.4-1.1-0.6c-0.6,0.6-1.2,1-1.7,1.4
				c-0.1,0.1-0.2,0.2-0.3,0.2c1.7,0,3.4-0.1,5.1-0.1C74.5,77.4,74.3,77.4,74.2,77.3z M74.2,77.3c-0.4-0.2-1-0.5-1.6-0.8
				c-0.3-0.2-0.7-0.4-1.1-0.6c-0.6,0.6-1.2,1-1.7,1.4c-0.1,0.1-0.2,0.2-0.3,0.2c1.7,0,3.4-0.1,5.1-0.1
				C74.5,77.4,74.3,77.4,74.2,77.3z M73,70.5c-0.5-0.9-1.4-1.5-2.3-1.9c-0.9-0.4-2-0.5-2.8,0c-0.8,0.5-0.8,1.5-0.5,2.4
				c0.3,0.8,0.9,1.7,1.5,2.3c0.6,0.7,1.3,1.2,2,1.7c0.2,0.1,0.3,0.2,0.5,0.3l0,0c0.6-0.6,1.2-1.3,1.6-2.2c0.2-0.4,0.4-0.9,0.4-1.3
				C73.4,71.4,73.2,71,73,70.5z M74.2,77.3c-0.4-0.2-1-0.5-1.6-0.8c-0.3-0.2-0.7-0.4-1.1-0.6c-0.6,0.6-1.2,1-1.7,1.4
				c-0.1,0.1-0.2,0.2-0.3,0.2c1.7,0,3.4-0.1,5.1-0.1C74.5,77.4,74.3,77.4,74.2,77.3z M73,70.5c-0.5-0.9-1.4-1.5-2.3-1.9
				c-0.9-0.4-2-0.5-2.8,0c-0.8,0.5-0.8,1.5-0.5,2.4c0.3,0.8,0.9,1.7,1.5,2.3c0.6,0.7,1.3,1.2,2,1.7c0.2,0.1,0.3,0.2,0.5,0.3l0,0
				c0.6-0.6,1.2-1.3,1.6-2.2c0.2-0.4,0.4-0.9,0.4-1.3C73.4,71.4,73.2,71,73,70.5z M73,70.5c-0.5-0.9-1.4-1.5-2.3-1.9
				c-0.9-0.4-2-0.5-2.8,0c-0.8,0.5-0.8,1.5-0.5,2.4c0.3,0.8,0.9,1.7,1.5,2.3c0.6,0.7,1.3,1.2,2,1.7c0.2,0.1,0.3,0.2,0.5,0.3l0,0
				c0.6-0.6,1.2-1.3,1.6-2.2c0.2-0.4,0.4-0.9,0.4-1.3C73.4,71.4,73.2,71,73,70.5z M74.2,77.3c-0.4-0.2-1-0.5-1.6-0.8
				c-0.3-0.2-0.7-0.4-1.1-0.6c-0.6,0.6-1.2,1-1.7,1.4c-0.1,0.1-0.2,0.2-0.3,0.2c1.7,0,3.4-0.1,5.1-0.1
				C74.5,77.4,74.3,77.4,74.2,77.3z M74.2,77.3c-0.4-0.2-1-0.5-1.6-0.8c-0.3-0.2-0.7-0.4-1.1-0.6c-0.6,0.6-1.2,1-1.7,1.4
				c-0.1,0.1-0.2,0.2-0.3,0.2c1.7,0,3.4-0.1,5.1-0.1C74.5,77.4,74.3,77.4,74.2,77.3z M73,70.5c-0.5-0.9-1.4-1.5-2.3-1.9
				c-0.9-0.4-2-0.5-2.8,0c-0.8,0.5-0.8,1.5-0.5,2.4c0.3,0.8,0.9,1.7,1.5,2.3c0.6,0.7,1.3,1.2,2,1.7c0.2,0.1,0.3,0.2,0.5,0.3l0,0
				c0.6-0.6,1.2-1.3,1.6-2.2c0.2-0.4,0.4-0.9,0.4-1.3C73.4,71.4,73.2,71,73,70.5z M73,70.5c-0.5-0.9-1.4-1.5-2.3-1.9
				c-0.9-0.4-2-0.5-2.8,0c-0.8,0.5-0.8,1.5-0.5,2.4c0.3,0.8,0.9,1.7,1.5,2.3c0.6,0.7,1.3,1.2,2,1.7c0.2,0.1,0.3,0.2,0.5,0.3l0,0
				c0.6-0.6,1.2-1.3,1.6-2.2c0.2-0.4,0.4-0.9,0.4-1.3C73.4,71.4,73.2,71,73,70.5z M74.2,77.3c-0.4-0.2-1-0.5-1.6-0.8
				c-0.3-0.2-0.7-0.4-1.1-0.6c-0.6,0.6-1.2,1-1.7,1.4c-0.1,0.1-0.2,0.2-0.3,0.2c1.7,0,3.4-0.1,5.1-0.1
				C74.5,77.4,74.3,77.4,74.2,77.3z M74.2,77.3c-0.4-0.2-1-0.5-1.6-0.8c-0.3-0.2-0.7-0.4-1.1-0.6c-0.6,0.6-1.2,1-1.7,1.4
				c-0.1,0.1-0.2,0.2-0.3,0.2c1.7,0,3.4-0.1,5.1-0.1C74.5,77.4,74.3,77.4,74.2,77.3z M73,70.5c-0.5-0.9-1.4-1.5-2.3-1.9
				c-0.9-0.4-2-0.5-2.8,0c-0.8,0.5-0.8,1.5-0.5,2.4c0.3,0.8,0.9,1.7,1.5,2.3c0.6,0.7,1.3,1.2,2,1.7c0.2,0.1,0.3,0.2,0.5,0.3l0,0
				c0.6-0.6,1.2-1.3,1.6-2.2c0.2-0.4,0.4-0.9,0.4-1.3C73.4,71.4,73.2,71,73,70.5z M73,70.5c-0.5-0.9-1.4-1.5-2.3-1.9
				c-0.9-0.4-2-0.5-2.8,0c-0.8,0.5-0.8,1.5-0.5,2.4c0.3,0.8,0.9,1.7,1.5,2.3c0.6,0.7,1.3,1.2,2,1.7c0.2,0.1,0.3,0.2,0.5,0.3l0,0
				c0.6-0.6,1.2-1.3,1.6-2.2c0.2-0.4,0.4-0.9,0.4-1.3C73.4,71.4,73.2,71,73,70.5z M74.2,77.3c-0.4-0.2-1-0.5-1.6-0.8
				c-0.3-0.2-0.7-0.4-1.1-0.6c-0.6,0.6-1.2,1-1.7,1.4c-0.1,0.1-0.2,0.2-0.3,0.2c1.7,0,3.4-0.1,5.1-0.1
				C74.5,77.4,74.3,77.4,74.2,77.3z M74.2,77.3c-0.4-0.2-1-0.5-1.6-0.8c-0.3-0.2-0.7-0.4-1.1-0.6c-0.6,0.6-1.2,1-1.7,1.4
				c-0.1,0.1-0.2,0.2-0.3,0.2c1.7,0,3.4-0.1,5.1-0.1C74.5,77.4,74.3,77.4,74.2,77.3z M73,70.5c-0.5-0.9-1.4-1.5-2.3-1.9
				c-0.9-0.4-2-0.5-2.8,0c-0.8,0.5-0.8,1.5-0.5,2.4c0.3,0.8,0.9,1.7,1.5,2.3c0.6,0.7,1.3,1.2,2,1.7c0.2,0.1,0.3,0.2,0.5,0.3l0,0
				c0.6-0.6,1.2-1.3,1.6-2.2c0.2-0.4,0.4-0.9,0.4-1.3C73.4,71.4,73.2,71,73,70.5z M73,70.5c-0.5-0.9-1.4-1.5-2.3-1.9
				c-0.9-0.4-2-0.5-2.8,0c-0.8,0.5-0.8,1.5-0.5,2.4c0.3,0.8,0.9,1.7,1.5,2.3c0.6,0.7,1.3,1.2,2,1.7c0.2,0.1,0.3,0.2,0.5,0.3l0,0
				c0.6-0.6,1.2-1.3,1.6-2.2c0.2-0.4,0.4-0.9,0.4-1.3C73.4,71.4,73.2,71,73,70.5z M74.2,77.3c-0.4-0.2-1-0.5-1.6-0.8
				c-0.3-0.2-0.7-0.4-1.1-0.6c-0.6,0.6-1.2,1-1.7,1.4c-0.1,0.1-0.2,0.2-0.3,0.2c1.7,0,3.4-0.1,5.1-0.1
				C74.5,77.4,74.3,77.4,74.2,77.3z M74.2,77.3c-0.4-0.2-1-0.5-1.6-0.8c-0.3-0.2-0.7-0.4-1.1-0.6c-0.6,0.6-1.2,1-1.7,1.4
				c-0.1,0.1-0.2,0.2-0.3,0.2c1.7,0,3.4-0.1,5.1-0.1C74.5,77.4,74.3,77.4,74.2,77.3z M73,70.5c-0.5-0.9-1.4-1.5-2.3-1.9
				c-0.9-0.4-2-0.5-2.8,0c-0.8,0.5-0.8,1.5-0.5,2.4c0.3,0.8,0.9,1.7,1.5,2.3c0.6,0.7,1.3,1.2,2,1.7c0.2,0.1,0.3,0.2,0.5,0.3l0,0
				c0.6-0.6,1.2-1.3,1.6-2.2c0.2-0.4,0.4-0.9,0.4-1.3C73.4,71.4,73.2,71,73,70.5z M73,70.5c-0.5-0.9-1.4-1.5-2.3-1.9
				c-0.9-0.4-2-0.5-2.8,0c-0.8,0.5-0.8,1.5-0.5,2.4c0.3,0.8,0.9,1.7,1.5,2.3c0.6,0.7,1.3,1.2,2,1.7c0.2,0.1,0.3,0.2,0.5,0.3l0,0
				c0.6-0.6,1.2-1.3,1.6-2.2c0.2-0.4,0.4-0.9,0.4-1.3C73.4,71.4,73.2,71,73,70.5z M73,70.5c-0.5-0.9-1.4-1.5-2.3-1.9
				c-0.9-0.4-2-0.5-2.8,0c-0.8,0.5-0.8,1.5-0.5,2.4c0.3,0.8,0.9,1.7,1.5,2.3c0.6,0.7,1.3,1.2,2,1.7c0.2,0.1,0.3,0.2,0.5,0.3l0,0
				c0.6-0.6,1.2-1.3,1.6-2.2c0.2-0.4,0.4-0.9,0.4-1.3C73.4,71.4,73.2,71,73,70.5z"/>
		</g>
	</g>
	<g>
		<g>
			<g>
				<path fill="#2875D4" d="M79,70.7l-0.1,0.5l-1.3,5c0,0.1,0,0.2,0,0.2c0.1,0,0.1,0,0.2,0l4.3-2.7l0.4-0.2l0.6-0.9l-3.6-2.6
					L79,70.7z"/>
			</g>
		</g>
		<g>
			<g>
				<path fill="#2875D4" d="M107.6,35.5c-1-0.7-2.9,0.2-4.3,2.1l3.6,2.6C108.3,38.4,108.6,36.3,107.6,35.5z"/>
			</g>
		</g>
		<g>
			<g>
				<polygon fill="#2875D4" points="104.9,40 104.1,39.5 103.5,39 102.7,38.5 101.8,39.8 80,69.3 80.8,69.8 81.5,70.3 82.2,70.8 
					82.9,71.3 83.6,71.9 105.3,42.4 106.3,41.1 105.6,40.6 				"/>
			</g>
		</g>
	</g>
	<g>
		<g>
			<path fill="#2875D4" d="M84.3,58.7c-9.1-0.2-18.2,0-27.3,0.6c-0.2-1.9-0.3-3.8-0.5-5.7c9.1-0.6,18.2-0.8,27.3-0.6L84.3,58.7z"/>
		</g>
	</g>
	<g>
		<g>
			<path fill="#FFFFFF" d="M73,70.5c-0.5-0.9-1.4-1.5-2.3-1.9c-0.9-0.4-2-0.5-2.8,0c-0.8,0.5-0.8,1.5-0.5,2.4
				c0.3,0.8,0.9,1.7,1.5,2.3c0.6,0.7,1.3,1.2,2,1.7c0.2,0.1,0.3,0.2,0.5,0.3l0,0c0.6-0.6,1.2-1.3,1.6-2.2c0.2-0.4,0.4-0.9,0.4-1.3
				C73.4,71.4,73.2,71,73,70.5z M74.2,77.3c-0.4-0.2-1-0.5-1.6-0.8c-0.3-0.2-0.7-0.4-1.1-0.6c-0.6,0.6-1.2,1-1.7,1.4
				c-0.1,0.1-0.2,0.2-0.3,0.2c1.7,0,3.4-0.1,5.1-0.1C74.5,77.4,74.3,77.4,74.2,77.3z M73,70.5c-0.5-0.9-1.4-1.5-2.3-1.9
				c-0.9-0.4-2-0.5-2.8,0c-0.8,0.5-0.8,1.5-0.5,2.4c0.3,0.8,0.9,1.7,1.5,2.3c0.6,0.7,1.3,1.2,2,1.7c0.2,0.1,0.3,0.2,0.5,0.3l0,0
				c0.6-0.6,1.2-1.3,1.6-2.2c0.2-0.4,0.4-0.9,0.4-1.3C73.4,71.4,73.2,71,73,70.5z M74.2,77.3c-0.4-0.2-1-0.5-1.6-0.8
				c-0.3-0.2-0.7-0.4-1.1-0.6c-0.6,0.6-1.2,1-1.7,1.4c-0.1,0.1-0.2,0.2-0.3,0.2c1.7,0,3.4-0.1,5.1-0.1
				C74.5,77.4,74.3,77.4,74.2,77.3z M74.2,77.3c-0.4-0.2-1-0.5-1.6-0.8c-0.3-0.2-0.7-0.4-1.1-0.6c-0.6,0.6-1.2,1-1.7,1.4
				c-0.1,0.1-0.2,0.2-0.3,0.2c1.7,0,3.4-0.1,5.1-0.1C74.5,77.4,74.3,77.4,74.2,77.3z M73,70.5c-0.5-0.9-1.4-1.5-2.3-1.9
				c-0.9-0.4-2-0.5-2.8,0c-0.8,0.5-0.8,1.5-0.5,2.4c0.3,0.8,0.9,1.7,1.5,2.3c0.6,0.7,1.3,1.2,2,1.7c0.2,0.1,0.3,0.2,0.5,0.3l0,0
				c0.6-0.6,1.2-1.3,1.6-2.2c0.2-0.4,0.4-0.9,0.4-1.3C73.4,71.4,73.2,71,73,70.5z"/>
		</g>
	</g>
	<g>
		<g>
			<path fill="#2875D4" d="M82.2,77.5c-2.5,0-4.9,0-7.4,0c-0.2-0.1-0.4-0.2-0.6-0.3c-0.6-0.4-1.5-0.8-2.5-1.5
				c0.6-0.6,1.3-1.3,1.8-2.2c0.2-0.4,0.4-1,0.4-1.5c0-0.6-0.2-1.2-0.5-1.7c-0.6-1-1.6-1.8-2.6-2.2c-1.1-0.4-2.3-0.6-3.4,0
				c-0.5,0.3-0.8,0.9-0.9,1.5c0,0.3,0,0.6,0,0.9c0.1,0.3,0.1,0.5,0.2,0.8c0.4,1.1,1.1,1.9,1.8,2.5c0.7,0.7,1.4,1.2,2.1,1.7
				c0.1,0.1,0.3,0.2,0.4,0.3c-0.5,0.5-1,1-1.5,1.4c-0.2,0.2-0.5,0.4-0.7,0.5c-2.3,0-4.7,0.1-7,0.3c0,0.2,0.1,0.5,0.1,0.7
				c2-0.1,4-0.2,6-0.2c-0.5,0.4-1,0.7-1.4,1c-0.7,0.5-1.1,0.7-1.2,0.8c0.1-0.1,0.5-0.3,1.2-0.7c0.5-0.3,1.1-0.7,1.8-1.1
				c4.6-0.1,9.2-0.2,13.8-0.1C82.2,78,82.2,77.7,82.2,77.5z M70.9,75.1c-0.7-0.5-1.3-1-2-1.7c-0.6-0.6-1.3-1.5-1.5-2.3
				c-0.3-0.9-0.3-2,0.5-2.4c0.8-0.5,1.9-0.3,2.8,0c1,0.4,1.8,1,2.3,1.9c0.2,0.4,0.4,0.9,0.4,1.3c0,0.5-0.2,0.9-0.4,1.3
				c-0.4,0.8-1,1.5-1.6,2.2l0,0C71.2,75.3,71,75.2,70.9,75.1z M69.5,77.6c0.1-0.1,0.2-0.1,0.3-0.2c0.5-0.4,1.1-0.9,1.7-1.4
				c0.4,0.2,0.8,0.4,1.1,0.6c0.6,0.3,1.1,0.6,1.6,0.8c0.2,0.1,0.3,0.1,0.4,0.2C72.9,77.5,71.2,77.5,69.5,77.6z"/>
		</g>
	</g>
	<g>
		<g>
			<path fill="#2875D4" d="M51.2,69c-8.4,0.7-16.9,1.7-25.3,3c-0.1-0.7-0.1-1.4-0.2-2.1c8.4-1.3,16.8-2.3,25.3-3
				C51.1,67.5,51.2,68.3,51.2,69z"/>
		</g>
	</g>
	<g>
		<g>
			<path fill="#2875D4" d="M47.2,79.6c-6.8,0.6-13.6,1.5-20.3,2.5L26.7,80c6.8-1,13.5-1.9,20.3-2.5C47,78.2,47.1,78.9,47.2,79.6z"/>
		</g>
	</g>
	<g>
		<g>
			<path fill="#2875D4" d="M57.2,73.7c-10.3,0.6-20.5,1.7-30.8,3.3c-0.1-0.7-0.1-1.4-0.2-2.1c10.2-1.6,20.5-2.7,30.8-3.3
				C57,72.3,57.1,73,57.2,73.7z"/>
		</g>
	</g>
	<g>
		<g>
			<path fill="#2875D4" d="M85.9,70.5L84.8,72l0.7,8.6c-20.5-0.5-41.3,1-61.7,4.3l-2.5-29.2c18.2-3.1,36.7-4.7,55-4.8
				c2.2,0,4.5,0,6.7,0l0.2,1.9l0.5,5.8l0.3,3.6l1.2-1.6l-0.9-10.4c0-0.3-0.3-0.6-0.6-0.6c-2.4,0-4.9-0.1-7.3,0
				c-18.6,0.1-37.4,1.7-55.8,4.9c-0.3,0.1-0.6,0.4-0.5,0.7l2.6,30.5c0,0.2,0.1,0.3,0.2,0.5c0.1,0.1,0.3,0.1,0.4,0.1c0,0,0.1,0,0.1,0
				c20.8-3.4,42-4.9,62.9-4.3c0.2,0,0.4-0.1,0.5-0.2c0.1-0.1,0.2-0.3,0.2-0.5L85.9,70.5z"/>
		</g>
	</g>
</g>
</svg>
