<?xml version="1.0" encoding="utf-8"?>
<!-- Generator: Adobe Illustrator 19.0.0, SVG Export Plug-In . SVG Version: 6.00 Build 0)  -->
<svg version="1.1" id="Слой_1" xmlns="http://www.w3.org/2000/svg" xmlns:xlink="http://www.w3.org/1999/xlink" x="0px" y="0px"
	 viewBox="0 0 39 43.4" style="enable-background:new 0 0 39 43.4;" xml:space="preserve">
<style type="text/css">
	.st0{fill:#FFFFFF;}
	.st1{fill:#2875D4;}
</style>
<g>
	<g>
		<polygon id="XMLID_14_" class="st0" points="29.1,12 29.1,0.5 21.5,0.5 8.1,0.5 0.5,0.5 0.5,36.5 8.1,36.5 21.5,36.5 29.1,36.5 
			29.1,28.8 		"/>
	</g>
	<g>
		<path id="XMLID_13_" class="st1" d="M29.1,37H0.5C0.2,37,0,36.8,0,36.5v-36C0,0.2,0.2,0,0.5,0h28.6c0.3,0,0.5,0.2,0.5,0.5V12
			c0,0.3-0.2,0.5-0.5,0.5c-0.3,0-0.5-0.2-0.5-0.5V1H1v35h27.6v-7.2c0-0.3,0.2-0.5,0.5-0.5c0.3,0,0.5,0.2,0.5,0.5v7.7
			C29.6,36.8,29.3,37,29.1,37z"/>
	</g>
	<g>
		<polygon id="XMLID_12_" class="st0" points="15.3,5.1 5.8,2.2 0.5,0.5 0.5,36.5 5.8,38.2 15.3,41.2 20.6,42.9 20.6,6.8 		"/>
		<path class="st1" d="M20.6,43.4c-0.1,0-0.1,0-0.1,0L0.3,37C0.1,36.9,0,36.8,0,36.5v-36c0-0.2,0.1-0.3,0.2-0.4C0.3,0,0.5,0,0.6,0.1
			l14.8,4.6l0,0l5.4,1.7c0.2,0.1,0.3,0.3,0.3,0.5v36.1c0,0.2-0.1,0.3-0.2,0.4C20.9,43.4,20.8,43.4,20.6,43.4z M1,36.2l19.2,6.1V7.1
			L1,1.2V36.2z"/>
	</g>
	<g>
		<path class="st1" d="M18.2,39.8c0,0-0.1,0-0.1,0L2.8,35c-0.2-0.1-0.3-0.3-0.3-0.5V4.1c0-0.2,0.1-0.3,0.2-0.4
			C2.8,3.6,3,3.6,3.1,3.6l15.2,4.7c0.2,0.1,0.3,0.3,0.3,0.5v30.5c0,0.2-0.1,0.3-0.2,0.4C18.4,39.8,18.3,39.8,18.2,39.8z M3.5,34.1
			l14.2,4.5V9.2l-2.5-0.8l0,0L3.5,4.8V34.1z"/>
	</g>
	<g>
		<g>
			<path id="XMLID_7_" class="st1" d="M15.4,23.1l-2.8-0.9c-0.1,0-0.2,0-0.2,0.1c0,0.1,0.1,0.2,0.2,0.2l2.8,0.9V23.1z"/>
		</g>
		<g>
			<path id="XMLID_6_" class="st1" d="M15.6,22.9v0.8l-1.1-0.3c0.1,0.5,0.5,1,1,1.2c0.6,0.2,1.1-0.2,1.1-0.9c0-0.7-0.5-1.4-1.1-1.6
				c-0.5-0.2-0.9,0.1-1,0.6L15.6,22.9z"/>
		</g>
	</g>
	<g>
		<path class="st1" d="M16.3,36.3C16.3,36.3,16.3,36.3,16.3,36.3L4.7,32.6c-0.1,0-0.2-0.1-0.2-0.2v-9l-1.6-0.5
			c-0.1,0-0.2-0.1-0.2-0.2v-6.7c0-0.1,0-0.2,0.1-0.2c0.1,0,0.1-0.1,0.2,0l1.5,0.5V7.3c0-0.1,0-0.2,0.1-0.2c0.1,0,0.1-0.1,0.2,0
			l11.6,3.6c0.1,0,0.2,0.1,0.2,0.2v9l1.7,0.5c0.1,0,0.2,0.1,0.2,0.2v6.8c0,0.1,0,0.2-0.1,0.2c-0.1,0-0.1,0.1-0.2,0l-1.5-0.5v8.9
			c0,0.1,0,0.2-0.1,0.2C16.4,36.3,16.4,36.3,16.3,36.3z M5,32.2l11.1,3.5v-8.9c0-0.1,0-0.2,0.1-0.2c0.1,0,0.1-0.1,0.2,0l1.5,0.5
			v-6.2l-1.7-0.5c-0.1,0-0.2-0.1-0.2-0.2v-9L5,7.7v8.8c0,0.1,0,0.2-0.1,0.2c-0.1,0-0.1,0.1-0.2,0l-1.5-0.5v6.2L4.9,23
			C5,23,5,23.1,5,23.2V32.2z"/>
	</g>
	<g>
		<g>
			<path id="XMLID_3_" class="st1" d="M25.8,25.1c-0.1,0-0.2,0-0.3,0c-0.4-0.1-0.7-0.5-0.8-0.9c-0.5-2.4-0.5-4.9,0-7.3l0.1-0.6
				c0.1-0.4,0.3-0.6,0.6-0.8c0.3-0.2,0.7-0.2,1,0l10.9,5.1c0.1,0,0.1,0,0.2,0c0,0,0.1-0.1,0.1-0.1l0.1-0.5c0.5-2.3,0.5-4.6,0-6.9
				c0-0.1-0.1-0.1-0.1-0.1c0,0-0.1,0-0.2,0.1l-3.8,4.1c-0.2,0.2-0.5,0.2-0.7,0c-0.2-0.2-0.2-0.5,0-0.7l3.8-4.1
				c0.3-0.3,0.7-0.5,1.2-0.3c0.4,0.1,0.7,0.5,0.8,0.9c0.5,2.4,0.5,4.9,0,7.3l-0.1,0.5c-0.1,0.4-0.3,0.6-0.6,0.8
				c-0.3,0.2-0.7,0.2-1,0L26,16.4c-0.1,0-0.1,0-0.2,0c0,0-0.1,0.1-0.1,0.1l-0.1,0.6c-0.5,2.3-0.5,4.6,0,6.8c0,0.1,0.1,0.2,0.1,0.2
				c0,0,0.1,0,0.2-0.1l3.7-4.1c0.2-0.2,0.5-0.2,0.7,0c0.2,0.2,0.2,0.5,0,0.7l-3.7,4.1C26.4,24.9,26.1,25.1,25.8,25.1z"/>
		</g>
		<g>
			<path id="XMLID_2_" class="st1" d="M29.9,23C29.8,23,29.8,23,29.9,23c-0.3,0-0.5-0.3-0.5-0.5l0.1-1.7L27.8,21
				c-0.3,0-0.5-0.2-0.5-0.5c0-0.3,0.2-0.5,0.5-0.5l2.2-0.2c0.1,0,0.3,0,0.4,0.1c0.1,0.1,0.2,0.2,0.1,0.4l-0.2,2.2
				C30.3,22.8,30.1,23,29.9,23z"/>
		</g>
		<g>
			<path id="XMLID_1_" class="st1" d="M35.5,17.3h-2.3c-0.3,0-0.5-0.2-0.5-0.4l-0.2-2.3c0-0.3,0.2-0.5,0.4-0.5
				c0.3,0,0.5,0.2,0.5,0.4l0.2,1.9h1.8c0.3,0,0.5,0.2,0.5,0.5C36,17.1,35.8,17.3,35.5,17.3z"/>
		</g>
	</g>
</g>
</svg>
