<?xml version="1.0" encoding="utf-8"?>
<!-- Generator: Adobe Illustrator 19.0.0, SVG Export Plug-In . SVG Version: 6.00 Build 0)  -->
<svg version="1.1" id="Слой_1" xmlns="http://www.w3.org/2000/svg" xmlns:xlink="http://www.w3.org/1999/xlink" x="0px" y="0px"
	 viewBox="0 0 39 43.4" style="enable-background:new 0 0 39 43.4;" xml:space="preserve">
<style type="text/css">
	.st0{fill:#FFFFFF;}
	.st1{fill:#2875D4;}
</style>
<g>
	<g>
		<rect id="XMLID_23_" x="4.3" y="0.6" class="st0" width="34.2" height="39.7"/>
		<path class="st1" d="M38.5,40.8H4.3c-0.3,0-0.5-0.2-0.5-0.5V0.6c0-0.3,0.2-0.5,0.5-0.5h34.2c0.3,0,0.5,0.2,0.5,0.5v39.7
			C39,40.6,38.8,40.8,38.5,40.8z M4.8,39.8H38V1.1H4.8V39.8z"/>
	</g>
	<g>
		<rect id="XMLID_20_" x="0.5" y="3.1" class="st0" width="34.2" height="39.7"/>
		<path class="st1" d="M34.7,43.3H0.5c-0.3,0-0.5-0.2-0.5-0.5V3.1c0-0.3,0.2-0.5,0.5-0.5h34.2c0.3,0,0.5,0.2,0.5,0.5v39.7
			C35.1,43.1,34.9,43.3,34.7,43.3z M1,42.3h33.2V3.6H1V42.3z"/>
	</g>
	<g>
		<g>
			<g>
				<g>
					<path class="st1" d="M10.2,40c-0.4,0-0.6-0.4-0.8-0.8C9.3,39,9.1,38.8,9,38.7c-0.1,0-0.4,0-0.6,0.1c-0.4,0.1-0.8,0.2-1.1,0
						c-0.3-0.3-0.2-0.7,0-1.1c0.1-0.2,0.1-0.5,0.1-0.6c0-0.1-0.3-0.2-0.5-0.3c-0.4-0.2-0.8-0.4-0.8-0.8c0-0.4,0.4-0.6,0.8-0.8
						c0.2-0.1,0.4-0.2,0.5-0.3c0-0.1,0-0.4-0.1-0.6c-0.1-0.4-0.2-0.8,0-1.1c0.3-0.3,0.7-0.2,1.1,0c0.2,0.1,0.5,0.1,0.6,0.1
						c0.1,0,0.2-0.3,0.3-0.5c0.2-0.4,0.4-0.8,0.8-0.8c0.4,0,0.6,0.4,0.8,0.8c0.1,0.2,0.2,0.4,0.3,0.5c0.1,0,0.4,0,0.6-0.1
						c0.4-0.1,0.8-0.2,1.1,0c0.3,0.3,0.2,0.7,0,1.1c-0.1,0.2-0.1,0.5-0.1,0.6c0,0.1,0.3,0.2,0.5,0.3c0.4,0.2,0.8,0.4,0.8,0.8
						c0,0.4-0.4,0.6-0.8,0.8C13.3,36.9,13,37,13,37.1c0,0.1,0,0.4,0.1,0.6c0.1,0.4,0.2,0.8,0,1.1c-0.3,0.3-0.7,0.2-1.1,0
						c-0.2-0.1-0.5-0.1-0.6-0.1c-0.1,0-0.2,0.3-0.3,0.5C10.8,39.6,10.6,40,10.2,40z M8.9,38.2c0.1,0,0.2,0,0.3,0
						c0.3,0.1,0.4,0.4,0.6,0.7c0.1,0.2,0.3,0.5,0.4,0.5c0.1,0,0.3-0.3,0.4-0.5c0.2-0.3,0.3-0.6,0.6-0.7c0.3-0.1,0.6,0,0.9,0.1
						c0.2,0,0.5,0.1,0.6,0.1c0.1-0.1,0-0.4-0.1-0.6c-0.1-0.3-0.2-0.7-0.1-0.9c0.1-0.3,0.4-0.4,0.7-0.6c0.2-0.1,0.5-0.3,0.5-0.4
						c0-0.1-0.3-0.3-0.5-0.4c-0.3-0.2-0.6-0.3-0.7-0.6c-0.1-0.3,0-0.6,0.1-0.9c0-0.2,0.1-0.5,0.1-0.6c-0.1-0.1-0.4,0-0.6,0.1
						c-0.3,0.1-0.7,0.2-0.9,0.1c-0.3-0.1-0.4-0.4-0.6-0.7c-0.1-0.2-0.3-0.5-0.4-0.5c-0.1,0-0.3,0.3-0.4,0.5
						c-0.2,0.3-0.3,0.6-0.6,0.7c-0.3,0.1-0.6,0-0.9-0.1c-0.2,0-0.5-0.1-0.6-0.1c-0.1,0.1,0,0.4,0.1,0.6C7.9,34.4,8,34.7,7.9,35
						c-0.1,0.3-0.4,0.4-0.7,0.6C7,35.7,6.7,35.9,6.7,36c0,0.1,0.3,0.3,0.5,0.4c0.3,0.2,0.6,0.3,0.7,0.6c0.1,0.3,0,0.6-0.1,0.9
						c0,0.2-0.1,0.5-0.1,0.6c0.1,0.1,0.4,0,0.6-0.1C8.5,38.3,8.7,38.2,8.9,38.2z"/>
				</g>
			</g>
			<g>
				<g>
					<circle id="XMLID_15_" class="st1" cx="10.2" cy="36" r="1.3"/>
				</g>
			</g>
		</g>
		<g>
			<g>
				<path class="st1" d="M16.5,20.5H7.8v-1.8l3.1-3.1c0.9-0.9,1.5-1.6,1.8-2c0.3-0.4,0.5-0.7,0.6-1c0.1-0.3,0.2-0.6,0.2-1
					c0-0.5-0.1-0.9-0.4-1.1c-0.3-0.2-0.6-0.4-1.1-0.4c-0.5,0-0.9,0.1-1.4,0.3c-0.5,0.2-0.9,0.5-1.4,0.9L7.8,9.7
					c0.6-0.5,1.1-0.9,1.5-1.1c0.4-0.2,0.8-0.4,1.3-0.5C11.1,8,11.6,8,12.2,8c0.8,0,1.5,0.1,2,0.4c0.6,0.3,1.1,0.7,1.4,1.2
					c0.3,0.5,0.5,1.1,0.5,1.7c0,0.6-0.1,1.1-0.3,1.6c-0.2,0.5-0.5,1-0.9,1.5c-0.4,0.5-1.2,1.3-2.2,2.2l-1.6,1.5v0.1h5.4V20.5z"/>
			</g>
			<g>
				<path class="st1" d="M26.6,17.9h-1.5v2.6h-2.6v-2.6h-5.3v-1.8l5.4-8h2.4v7.8h1.5V17.9z M22.6,15.9v-2.1c0-0.3,0-0.9,0-1.5
					c0-0.7,0.1-1.1,0.1-1.2h-0.1c-0.2,0.5-0.5,0.9-0.8,1.4l-2.3,3.4H22.6z"/>
			</g>
			<g>
				<path class="st1" d="M14,28.3h-1.3v-3.9l-0.1,0.3c-0.2,0.6-0.3,1.1-0.4,1.4l-0.9,2.2h-1l-0.9-2.2c-0.1-0.3-0.3-0.8-0.4-1.4
					l-0.1-0.3v3.9H7.8v-4.9h1.8l0.8,2.1c0.1,0.2,0.2,0.5,0.2,0.8c0.1,0.3,0.1,0.5,0.2,0.8c0.1-0.4,0.2-0.8,0.2-0.9
					c0.1-0.2,0.1-0.4,0.2-0.5c0.1-0.2,0.4-0.9,0.9-2.2H14V28.3z"/>
			</g>
			<g>
				<path class="st1" d="M17.7,28.4c-0.8,0-1.4-0.2-1.9-0.7c-0.4-0.4-0.7-1.1-0.7-1.9c0-0.8,0.2-1.5,0.6-1.9s1-0.7,1.7-0.7
					c0.7,0,1.2,0.2,1.6,0.6c0.4,0.4,0.6,0.9,0.6,1.6v0.7h-3.2c0,0.4,0.1,0.7,0.3,0.9c0.2,0.2,0.5,0.3,0.9,0.3c0.3,0,0.6,0,0.8-0.1
					c0.3-0.1,0.5-0.2,0.8-0.3v1c-0.2,0.1-0.5,0.2-0.8,0.3C18.4,28.4,18,28.4,17.7,28.4z M17.5,24.3c-0.3,0-0.5,0.1-0.7,0.3
					c-0.2,0.2-0.3,0.4-0.3,0.8h1.9c0-0.3-0.1-0.6-0.3-0.8C18,24.3,17.8,24.3,17.5,24.3z"/>
			</g>
			<g>
				<path class="st1" d="M22.8,28.4c-1.5,0-2.3-0.8-2.3-2.5c0-0.8,0.2-1.5,0.6-1.9c0.4-0.4,1-0.7,1.8-0.7c0.6,0,1.1,0.1,1.5,0.3
					l-0.4,1c-0.2-0.1-0.4-0.2-0.6-0.2c-0.2-0.1-0.4-0.1-0.5-0.1c-0.7,0-1,0.5-1,1.5c0,1,0.3,1.4,1,1.4c0.3,0,0.5,0,0.7-0.1
					c0.2-0.1,0.4-0.2,0.7-0.3V28c-0.2,0.1-0.4,0.2-0.7,0.3C23.4,28.4,23.1,28.4,22.8,28.4z"/>
			</g>
			<g>
				<path class="st1" d="M25.2,27.7c0-0.2,0.1-0.4,0.2-0.6c0.1-0.1,0.3-0.2,0.6-0.2c0.2,0,0.4,0.1,0.6,0.2s0.2,0.3,0.2,0.6
					c0,0.2-0.1,0.4-0.2,0.5s-0.3,0.2-0.6,0.2c-0.2,0-0.4-0.1-0.6-0.2C25.3,28.1,25.2,27.9,25.2,27.7z"/>
			</g>
		</g>
		<g>
			<g>
				<line id="XMLID_6_" class="st0" x1="17.8" y1="33.2" x2="28.5" y2="33.2"/>
			</g>
			<g>
				<path id="XMLID_5_" class="st1" d="M28.5,33.7H17.8c-0.3,0-0.5-0.2-0.5-0.5s0.2-0.5,0.5-0.5h10.6c0.3,0,0.5,0.2,0.5,0.5
					S28.7,33.7,28.5,33.7z"/>
			</g>
		</g>
		<g>
			<g>
				<line id="XMLID_4_" class="st0" x1="17.8" y1="35.6" x2="25.5" y2="35.6"/>
			</g>
			<g>
				<path id="XMLID_3_" class="st1" d="M25.5,36.1h-7.7c-0.3,0-0.5-0.2-0.5-0.5s0.2-0.5,0.5-0.5h7.7c0.3,0,0.5,0.2,0.5,0.5
					S25.8,36.1,25.5,36.1z"/>
			</g>
		</g>
		<g>
			<g>
				<line id="XMLID_2_" class="st0" x1="17.8" y1="38.1" x2="23.4" y2="38.1"/>
			</g>
			<g>
				<path id="XMLID_1_" class="st1" d="M23.4,38.6h-5.5c-0.3,0-0.5-0.2-0.5-0.5s0.2-0.5,0.5-0.5h5.5c0.3,0,0.5,0.2,0.5,0.5
					S23.6,38.6,23.4,38.6z"/>
			</g>
		</g>
	</g>
</g>
</svg>
