<?xml version="1.0" encoding="utf-8"?>
<!-- Generator: Adobe Illustrator 19.0.0, SVG Export Plug-In . SVG Version: 6.00 Build 0)  -->
<svg version="1.1" id="Слой_1" xmlns="http://www.w3.org/2000/svg" xmlns:xlink="http://www.w3.org/1999/xlink" x="0px" y="0px"
	 viewBox="0 0 39 43.4" style="enable-background:new 0 0 39 43.4;" xml:space="preserve">
<style type="text/css">
	.st0{fill:#FFFFFF;}
	.st1{fill:#2875D4;}
</style>
<g>
	<g>
		<g>
			<path id="XMLID_77_" class="st0" d="M38.5,0.6v42.3h-27V19.2c0.2,0.1,0.3,0.1,0.5,0.2c0.8,0.3,1.6,0.6,2.3,0.9
				c0.1,0,0.2,0.1,0.2,0.1c0.1,0,0.2,0.1,0.2,0.1c0.1,0,0.2,0.1,0.2,0.1c0.1,0,0.2,0.1,0.2,0.1c1,0.3,2.1,0.6,3.1,0.8
				c1.3,0.3,2.8,0.4,3.6,0.5c0.1,0,0.3,0,0.5,0c0.2,0,0.4,0,0.5,0c0-0.2,0-0.4,0-0.5V21c-0.2,0-0.3,0-0.5,0c-0.3,0-0.5,0-0.5,0
				c-0.8-0.1-2.2-0.2-3.4-0.5c-1-0.2-2.1-0.5-3.3-0.9c-0.1,0-0.2,0-0.2-0.1c-0.1,0-0.2,0-0.2-0.1c-0.1,0-0.2-0.1-0.2-0.1
				c-0.1,0-0.2-0.1-0.2-0.1c-0.8-0.3-1.5-0.6-2.3-0.9c-0.1,0-0.2-0.1-0.3-0.1c-0.1,0-0.1,0-0.2,0V0.6H38.5z"/>
			<path class="st1" d="M38.5,0.1h-27c-0.3,0-0.5,0.2-0.5,0.5v15.4l0.5-0.2v2.4c0.1,0,0.1,0,0.2,0c0.1,0,0.2,0.1,0.3,0.1V1.1h26
				v41.3H12v-23c-0.2-0.1-0.3-0.1-0.5-0.2v23.1L11,42.1v0.8c0,0.1,0.1,0.3,0.2,0.4c0,0,0,0,0,0c0,0,0,0,0.1,0c0,0,0,0,0,0
				c0,0,0.1,0,0.2,0h27c0.3,0,0.5-0.2,0.5-0.5V0.6C39,0.3,38.8,0.1,38.5,0.1z"/>
		</g>
		<g>
			<path id="XMLID_51_" class="st0" d="M35.2,3.9v35.7H14.8V20.4c0.1,0,0.2,0.1,0.2,0.1c0.1,0,0.2,0.1,0.2,0.1
				c1,0.3,2.1,0.6,3.1,0.8c1.3,0.3,2.8,0.4,3.6,0.5c0.1,0,0.3,0,0.5,0c0.2,0,0.4,0,0.5,0c0-0.2,0-0.4,0-0.5V21c-0.2,0-0.3,0-0.5,0
				c-0.3,0-0.5,0-0.5,0c-0.8-0.1-2.2-0.2-3.4-0.5c-1-0.2-2.1-0.5-3.3-0.9c-0.1,0-0.2,0-0.2-0.1c-0.1,0-0.2,0-0.2-0.1V3.9H35.2z"/>
			<path class="st1" d="M35.2,3.4H14.8c-0.3,0-0.5,0.2-0.5,0.5v15.3c0.1,0,0.2,0.1,0.2,0.1c0.1,0,0.2,0.1,0.2,0.1
				c0.1,0,0.2,0,0.2,0.1c0.1,0,0.2,0.1,0.2,0.1V4.4h19.4v34.7H15.3V20.6c-0.1,0-0.2,0-0.2-0.1c-0.1,0-0.2,0-0.2-0.1
				c-0.1,0-0.2,0-0.2-0.1c-0.1,0-0.2,0-0.2-0.1v19.3c0,0.3,0.2,0.5,0.5,0.5h20.4c0.3,0,0.5-0.2,0.5-0.5V3.9
				C35.7,3.6,35.4,3.4,35.2,3.4z"/>
		</g>
		<g>
			<g>
				<path id="XMLID_3_" class="st1" d="M31.6,21.5h-3.8c-0.1,0-0.2,0.1-0.2,0.2c0,0.1,0.1,0.2,0.2,0.2h3.8V21.5z"/>
			</g>
			<g>
				<path id="XMLID_2_" class="st1" d="M31.8,21.3v0.9h-1.5c0.2,0.6,0.7,1,1.4,1c0.8,0,1.5-0.7,1.5-1.5c0-0.8-0.7-1.5-1.5-1.5
					c-0.7,0-1.2,0.4-1.4,1H31.8z"/>
			</g>
		</g>
		<g>
			<path class="st1" d="M35.2,17.5H33V7c0-0.1-0.1-0.2-0.2-0.2H17.2C17.1,6.8,17,6.9,17,7v10.5h-2.2c-0.1,0-0.2,0.1-0.2,0.2v1.5
				c0.1,0,0.2,0.1,0.2,0.1c0.1,0,0.2,0,0.2,0.1V18h2.2c0.1,0,0.2-0.1,0.2-0.2V7.2h15v10.5c0,0.1,0.1,0.2,0.2,0.2h2.2v7.4h-2.2
				c-0.1,0-0.2,0.1-0.2,0.2v10.5h-15V25.7c0-0.1-0.1-0.2-0.2-0.2H15v-4.9c-0.1,0-0.2,0-0.2-0.1c-0.1,0-0.2,0-0.2-0.1v5.3
				c0,0.1,0.1,0.2,0.2,0.2H17v10.5c0,0.1,0.1,0.2,0.2,0.2h15.5c0.1,0,0.2-0.1,0.2-0.2V25.9h2.2c0.1,0,0.2-0.1,0.2-0.2v-7.9
				C35.4,17.6,35.3,17.5,35.2,17.5z"/>
		</g>
	</g>
	<g>
		<path class="st1" d="M11.8,14.8C11.7,14.8,11.7,14.8,11.8,14.8c-0.1-0.1-0.2-0.1-0.3-0.1c-0.1,0-0.1,0-0.2,0
			c-0.1,0-0.2,0.1-0.3,0.1c-2.3,0.9-4.5,1.7-6.6,2.1c-1.8,0.4-3,0.5-3.8,0.6c-0.3,0-0.5,0.2-0.5,0.5c0,0.1,0,0.1,0,0.3
			c0,0.7-0.1,1.8-0.1,3.1c0,1.8,0.1,3.7,0.4,5.5c0.3,2.3,0.9,4.4,1.6,6.2c0.9,2.2,2,4.2,3.4,5.8c1.6,1.8,3.5,3.3,5.8,4.3
			c0,0,0,0,0,0c0,0,0,0,0.1,0c0,0,0,0,0,0c0,0,0.1,0,0.2,0c0,0,0.1,0,0.1,0c0,0,0,0,0.1,0c0,0,0,0,0,0c0.1-0.1,0.2-0.2,0.2-0.4V19.4
			c-0.2-0.1-0.3-0.1-0.5-0.2v23.1L11,42.1c-1.9-1-3.5-2.2-4.8-3.8c-1.3-1.5-2.4-3.4-3.2-5.5c-0.7-1.8-1.2-3.8-1.6-6
			C1.1,25.2,1,23.6,1,21.9c0-0.2,0-0.3,0-0.5c0-0.2,0-0.3,0-0.5c0-1,0.1-1.8,0.1-2.4c0.8,0,2-0.2,3.5-0.6c2-0.5,4.1-1.1,6.4-2
			l0.5-0.2v2.4c0.1,0,0.1,0,0.2,0c0.1,0,0.2,0.1,0.3,0.1v-3.1C12,15,11.9,14.9,11.8,14.8z"/>
	</g>
	<g>
		<path id="XMLID_40_" class="st1" d="M11.7,18.2c-0.1,0-0.1,0-0.2,0v-3c0.2,0.1,0.3,0.1,0.5,0.2c0.8,0.3,1.6,0.6,2.3,0.9
			c0.2,0.1,0.3,0.1,0.5,0.2c0.2,0.1,0.3,0.1,0.5,0.2c0.6,0.2,1.2,0.4,1.7,0.5c0.2,0,0.3,0.1,0.5,0.1c0.3,0.1,0.7,0.2,0.9,0.2
			c1.8,0.4,3.1,0.6,3.9,0.6c0,0.1,0,0.2,0,0.3c0,0.6,0.1,1.5,0.1,2.6c-0.3,0-0.5,0-0.5,0c-0.8-0.1-2.2-0.2-3.4-0.5
			c-1-0.2-2.1-0.5-3.3-0.9c-0.1,0-0.2,0-0.2-0.1c-0.1,0-0.2,0-0.2-0.1c-0.1,0-0.2-0.1-0.2-0.1c-0.1,0-0.2-0.1-0.2-0.1
			c-0.8-0.3-1.5-0.6-2.3-0.9C11.9,18.3,11.8,18.2,11.7,18.2z"/>
		<path id="XMLID_41_" class="st1" d="M22,21.9c0.1,0,0.3,0,0.5,0c0,1.4-0.1,3.1-0.4,4.9c-0.3,2-0.8,4.1-1.6,6.1
			c-0.4,1.1-1,2.2-1.6,3.2c-0.1,0.2-0.2,0.3-0.3,0.5c-0.4,0.7-0.9,1.3-1.4,1.9c-0.1,0.1-0.3,0.3-0.4,0.4c-0.1,0.2-0.3,0.3-0.5,0.5
			c-0.2,0.2-0.3,0.3-0.5,0.5c-0.9,0.9-2,1.7-3.3,2.3c-0.2,0.1-0.3,0.2-0.5,0.2c-0.2,0.1-0.3,0.2-0.5,0.2V19.2
			c0.2,0.1,0.3,0.1,0.5,0.2c0.8,0.3,1.6,0.6,2.3,0.9c0.1,0,0.2,0.1,0.2,0.1c0.1,0,0.2,0.1,0.2,0.1c0.1,0,0.2,0.1,0.2,0.1
			c0.1,0,0.2,0.1,0.2,0.1c1,0.3,2.1,0.6,3.1,0.8C19.6,21.7,21.1,21.9,22,21.9z"/>
		<path class="st1" d="M22.5,22c-0.2,0-0.4,0-0.5,0c0,1.6-0.1,3.2-0.4,4.8c-0.3,2.2-0.8,4.2-1.6,6c-0.5,1.3-1.1,2.4-1.7,3.4
			c-0.1,0.2-0.2,0.3-0.3,0.5c-0.4,0.6-0.8,1.1-1.2,1.6c-0.2,0.3-0.5,0.5-0.7,0.8c-0.2,0.2-0.3,0.3-0.5,0.5c-0.2,0.2-0.4,0.3-0.6,0.5
			c-0.9,0.8-1.9,1.5-3,2V19.4c-0.2-0.1-0.3-0.1-0.5-0.2v23.1L11,42.1v0.8c0,0.1,0.1,0.3,0.2,0.4c0,0,0,0,0,0c0,0,0,0,0.1,0
			c0,0,0,0,0,0c0,0,0.1,0,0.2,0c0,0,0.1,0,0.1,0c0,0,0,0,0.1,0c0,0,0,0,0,0c0.3-0.1,0.6-0.3,0.8-0.4c0.3-0.2,0.6-0.3,0.9-0.5
			c1.1-0.7,2.1-1.4,3-2.3c0.2-0.2,0.3-0.3,0.5-0.5c0.2-0.2,0.3-0.3,0.5-0.5c0,0,0.1-0.1,0.1-0.1c0.6-0.7,1.2-1.4,1.6-2.3
			c0.1-0.2,0.2-0.3,0.3-0.5c0.5-0.9,1-1.9,1.5-3c0.8-1.9,1.3-4,1.6-6.2c0.2-1.6,0.4-3.3,0.4-4.9C22.9,22,22.7,22,22.5,22z
			 M22.8,18.3c0-0.1,0-0.2,0-0.2c0-0.3-0.2-0.5-0.5-0.5c-0.7,0-2-0.1-3.8-0.6c-0.4-0.1-0.7-0.2-1.1-0.3c-0.2,0-0.3-0.1-0.5-0.1
			c-0.6-0.1-1.1-0.3-1.7-0.5c-0.2,0-0.3-0.1-0.5-0.2c-0.2-0.1-0.3-0.1-0.5-0.2c-0.8-0.3-1.5-0.6-2.3-0.9c-0.1,0-0.1-0.1-0.2-0.1
			c0,0,0,0-0.1,0c-0.1,0-0.1,0-0.2,0c-0.1,0-0.1,0-0.2,0c0,0-0.1,0-0.1,0C11.1,14.9,11,15,11,15.2v0.7l0.5-0.2v2.4
			c0.1,0,0.1,0,0.2,0c0.1,0,0.2,0.1,0.3,0.1v-2.4c0.8,0.3,1.6,0.6,2.3,0.9c0.2,0.1,0.3,0.1,0.5,0.2c0.2,0.1,0.3,0.1,0.5,0.2
			c0.4,0.1,0.8,0.3,1.3,0.4c0.3,0.1,0.6,0.2,0.9,0.2v0c0.3,0.1,0.6,0.1,0.8,0.2c1.6,0.4,2.7,0.5,3.5,0.6c0,0.6,0.1,1.4,0.1,2.4
			c0,0,0.2,0,0.5,0c0.2,0,0.3,0,0.5,0C22.9,19.9,22.9,19,22.8,18.3z"/>
	</g>
	<g>
		<path id="XMLID_1_" class="st1" d="M1,21c0,0.2,0,0.3,0,0.5c0,0.2,0,0.3,0,0.5c-0.2,0-0.4,0-0.5,0h0C0.2,22,0,21.8,0,21.5
			C0,21.3,0.2,21,0.5,21C0.6,21,0.8,21,1,21z"/>
	</g>
	<g>
		<path id="XMLID_7_" class="st1" d="M11.5,18.2v1c-0.2,0.1-0.3,0.1-0.5,0.2c-2.2,0.9-4.4,1.6-6.4,2c-1.3,0.3-2.8,0.5-3.6,0.5
			c0-0.2,0-0.3,0-0.5c0-0.2,0-0.3,0-0.5c0.8-0.1,2.2-0.2,3.4-0.5c2.1-0.5,4.3-1.2,6.6-2.1c0.1,0,0.2-0.1,0.3-0.1
			C11.4,18.2,11.4,18.2,11.5,18.2z"/>
	</g>
</g>
</svg>
