<?xml version="1.0" encoding="utf-8"?>
<!-- Generator: Adobe Illustrator 19.0.0, SVG Export Plug-In . SVG Version: 6.00 Build 0)  -->
<svg version="1.1" id="Слой_1" xmlns="http://www.w3.org/2000/svg" xmlns:xlink="http://www.w3.org/1999/xlink" x="0px" y="0px"
	 viewBox="0 0 39 43.4" style="enable-background:new 0 0 39 43.4;" xml:space="preserve">
<style type="text/css">
	.st0{fill:#FFFFFF;}
	.st1{fill:#2875D4;}
</style>
<g>
	<g>
		<rect id="XMLID_45_" x="0.5" y="0.5" class="st0" width="38" height="42.4"/>
		<path class="st1" d="M38.5,43.4h-38c-0.3,0-0.5-0.2-0.5-0.5V0.5C0,0.2,0.2,0,0.5,0h38C38.8,0,39,0.2,39,0.5v42.4
			C39,43.2,38.8,43.4,38.5,43.4z M1,42.4h37V1H1V42.4z"/>
	</g>
	<g>
		<path class="st1" d="M38.5,43.4c-0.1,0-0.2,0-0.3-0.1L36,41.4c-0.1-0.1-0.2-0.2-0.2-0.4V2.4c0-0.1,0.1-0.3,0.2-0.4l2.2-1.9
			C38.3,0,38.5,0,38.7,0.1C38.9,0.1,39,0.3,39,0.5v42.4c0,0.2-0.1,0.4-0.3,0.4C38.6,43.4,38.6,43.4,38.5,43.4z M36.8,40.8l1.2,1V1.6
			l-1.2,1V40.8z"/>
	</g>
	<g>
		<path class="st1" d="M0.5,43.4c-0.1,0-0.1,0-0.2,0C0.1,43.3,0,43.1,0,42.9V0.5c0-0.2,0.1-0.4,0.3-0.4C0.5,0,0.7,0,0.8,0.1L3,2
			c0.1,0.1,0.2,0.2,0.2,0.4V41c0,0.1-0.1,0.3-0.2,0.4l-2.2,1.9C0.7,43.4,0.6,43.4,0.5,43.4z M1,1.6v40.2l1.2-1V2.6L1,1.6z"/>
	</g>
	<g>
		<path class="st1" d="M36.3,2.9H2.7c-0.1,0-0.2,0-0.3-0.1L0.2,0.9C0,0.8,0,0.5,0,0.3C0.1,0.2,0.3,0,0.5,0h38c0.2,0,0.4,0.1,0.5,0.3
			c0.1,0.2,0,0.4-0.1,0.5l-2.2,1.9C36.6,2.9,36.4,2.9,36.3,2.9z M2.8,1.9h33.3l1-0.9H1.8L2.8,1.9z"/>
	</g>
	<g>
		<path class="st1" d="M38.5,43.4h-38c-0.2,0-0.4-0.1-0.5-0.3c-0.1-0.2,0-0.4,0.1-0.5l2.2-1.9c0.1-0.1,0.2-0.1,0.3-0.1h33.7
			c0.1,0,0.2,0,0.3,0.1l2.2,1.9c0.2,0.1,0.2,0.4,0.1,0.5C38.9,43.3,38.7,43.4,38.5,43.4z M1.8,42.4h35.4l-1-0.9H2.8L1.8,42.4z"/>
	</g>
	<g>
		<g>
			<rect id="XMLID_34_" x="25.4" y="33.3" class="st1" width="4.5" height="1.4"/>
		</g>
		<g>
			<g>
				<g>
					<g>
						<path class="st1" d="M28.9,16.5c-0.2-0.4-0.5-0.8-0.9-1.1c-1.2-0.8-3.1-0.8-4.3-0.1c-0.7,0.3-1.1,1-1.3,1.7
							c-0.3,1.2-0.2,2.5,0.7,3.4c1,0.9,2.6,1.1,3.9,0.7c0.1,0,0.3-0.1,0.4-0.1l0,0c0.4-0.2,0.8-0.5,1.1-0.8
							C29.3,19.2,29.3,17.6,28.9,16.5z M26.7,19.1c0,0.2-0.2,0.4-0.4,0.5c-0.4,0.2-0.9,0.1-1.2-0.1c-0.3-0.2-0.3-0.5-0.4-0.9
							c0-0.6-0.1-1.3,0.1-1.9c0.1-0.4,0.5-0.5,0.9-0.5c0.4,0,0.7,0.1,0.9,0.3c0.1,0.2,0.1,0.5,0.2,0.7C26.7,18,26.8,18.6,26.7,19.1z
							"/>
					</g>
				</g>
				<g>
					<g>
						<path id="XMLID_31_" class="st1" d="M15.6,19.7c-0.3,0-0.7,0-1,0l0-3.2l0,0l0.9,0c0-0.5,0-1.1,0-1.6l-3.5,0l-0.6,0
							c0,0.5,0,1.1,0,1.6c0.3,0,0.6,0,0.9,0v3.1l0,0.1l-0.9,0c0,0.5,0,1,0,1.5h4.1V19.7z"/>
					</g>
				</g>
				<g>
					<g>
						<path id="XMLID_30_" class="st1" d="M19.9,19.8c-0.9,0.2-1.8,0.1-2.5-0.6c-0.1-0.1-0.1-0.2-0.2-0.3l-1.3,0c0,0.7,0,1.6,0,2.3
							l1.4,0l0-0.4c0.2,0.1,0.3,0.2,0.5,0.2c1,0.4,2.2,0.5,3.2,0c0.7-0.4,1.1-1.1,1-1.9c-0.1-0.8-0.8-1.5-1.6-1.7l-2.3-0.7L18,16.7
							c-0.1-0.1-0.1-0.1-0.1-0.2c0.2-0.3,0.6-0.2,0.9-0.2c0.7,0.1,1.3,0.3,1.7,0.9c0.4,0,0.9,0,1.3,0c0-0.8,0-1.4,0-2.2
							c-0.4,0-0.9,0-1.4,0c0,0.1,0,0.2,0,0.4L20,15.1c-1-0.4-2.5-0.5-3.4,0.2c-0.6,0.4-0.8,1.2-0.6,1.9c0.1,0.7,0.8,1.1,1.4,1.4
							c0.8,0.3,1.7,0.5,2.5,0.8c0.1,0,0.2,0.1,0.2,0.2C20.1,19.7,20,19.7,19.9,19.8z"/>
					</g>
				</g>
				<g>
					<g>
						<g>
							<path class="st1" d="M17.7,28.9c-0.2,0-0.4,0-0.5-0.1c0,0-0.1,0-0.1-0.1v-0.2c0,0,0-0.1,0-0.1c0,0,0,0,0,0c0.1,0,0.3,0,0.5,0
								c0.2,0,0.3-0.1,0.3-0.4v0c-0.1,0-0.2,0-0.3,0c-0.4,0-0.7-0.2-0.7-0.6v0c0-0.4,0.2-0.7,0.7-0.7c0.4,0,0.7,0.3,0.7,0.8v0.4
								C18.5,28.7,18.2,28.9,17.7,28.9z M18,27.7c0-0.4-0.1-0.4-0.3-0.4c-0.1,0-0.3,0.1-0.3,0.3v0c0,0.2,0.1,0.3,0.3,0.3
								c0.1,0,0.2,0,0.2,0V27.7z"/>
						</g>
					</g>
					<g>
						<g>
							<path class="st1" d="M19.4,28.9c-0.5,0-0.7-0.3-0.7-0.9v-0.2c0-0.6,0.3-0.9,0.7-0.9c0.5,0,0.7,0.3,0.7,0.9v0.2
								C20.2,28.7,19.9,28.9,19.4,28.9z M19.7,27.8c0-0.4-0.1-0.5-0.3-0.5s-0.3,0.1-0.3,0.5v0.2c0,0.4,0.1,0.5,0.3,0.5
								s0.3-0.1,0.3-0.5V27.8z"/>
						</g>
					</g>
					<g>
						<g>
							<path class="st1" d="M21.1,28.9c-0.5,0-0.7-0.3-0.7-0.9v-0.2c0-0.6,0.3-0.9,0.7-0.9c0.5,0,0.7,0.3,0.7,0.9v0.2
								C21.8,28.7,21.6,28.9,21.1,28.9z M21.4,27.8c0-0.4-0.1-0.5-0.3-0.5c-0.1,0-0.3,0.1-0.3,0.5v0.2c0,0.4,0.1,0.5,0.3,0.5
								c0.1,0,0.3-0.1,0.3-0.5V27.8z"/>
						</g>
					</g>
					<g>
						<g>
							<path class="st1" d="M22.6,28.5v-1.1l-0.3,0.1c0,0,0,0,0,0c0,0,0,0,0,0v-0.3c0,0,0,0,0,0l0.5-0.2c0,0,0,0,0.1,0H23
								c0,0,0.1,0,0.1,0.1v1.5h0.4c0,0,0.1,0,0.1,0.1v0.3c0,0,0,0.1-0.1,0.1h-1.2c0,0-0.1,0-0.1-0.1v-0.3c0,0,0-0.1,0.1-0.1H22.6z"
								/>
						</g>
					</g>
				</g>
				<g>
					<g>
						<g>
							<path class="st1" d="M26,21.9c-0.4,0.6-0.9,1.1-1.5,1.6c-0.2-0.2-0.5-0.3-0.7-0.4c0.3-0.3,0.6-0.7,0.8-1.1h-0.3
								c-0.2,0.4-0.5,0.7-0.7,1c-0.1-0.1-0.3-0.1-0.4-0.2c0,0-0.1,0-0.1-0.1c0,0-0.1,0-0.1,0c-0.2-0.1-0.4-0.1-0.6-0.2
								c0.1-0.2,0.1-0.3,0.2-0.5h-0.3c-0.1,0.2-0.1,0.3-0.2,0.5c-0.6-0.1-1.2-0.2-1.7-0.2v-0.2H20v0.2c-0.6,0-1.2,0.1-1.7,0.2
								c-0.1-0.1-0.1-0.3-0.2-0.5h-0.3c0.1,0.2,0.1,0.4,0.2,0.5c-0.2,0.1-0.4,0.1-0.6,0.2c0,0-0.1,0-0.1,0c0,0,0,0,0,0
								c0,0-0.1,0-0.1,0.1c-0.1,0.1-0.3,0.1-0.4,0.2c-0.3-0.3-0.5-0.6-0.7-1h-0.3c0.2,0.4,0.5,0.8,0.8,1.1c-0.2,0.1-0.5,0.3-0.7,0.4
								c-0.6-0.5-1.1-1-1.5-1.6h-0.3c0.5,0.7,1.1,1.3,1.7,1.8c0.8,0.6,1.6,1,2.5,1.2c0.6,0.2,1.3,0.3,2,0.3c0.7,0,1.3-0.1,2-0.3
								c0.9-0.2,1.8-0.7,2.5-1.2c0.7-0.5,1.3-1.1,1.7-1.8H26z M22.7,22.9c0,0,0.1,0,0.1,0.1c0,0,0.1,0,0.1,0c0.1,0,0.2,0.1,0.3,0.1
								c-0.3,0.3-0.6,0.6-0.9,0.8c0,0,0,0,0,0c-0.3,0.2-0.6,0.3-0.9,0.4c0,0,0,0,0,0c0,0-0.1,0-0.1,0c0,0,0,0-0.1,0c0,0,0,0,0,0
								c0,0-0.1,0-0.1,0c0,0,0,0,0,0c0,0,0,0-0.1,0c0.4-0.4,0.8-0.9,1.1-1.5C22.3,22.7,22.5,22.8,22.7,22.9z M21.9,22.6
								c-0.3,0.7-0.7,1.2-1.1,1.5c0,0,0,0,0,0c0,0-0.1,0-0.1,0c0,0-0.1,0-0.1,0c0,0-0.1,0-0.1,0c0,0,0,0-0.1,0c0,0,0,0,0,0h0v-1.6
								C20.8,22.4,21.3,22.5,21.9,22.6z M20,22.4V24c0,0,0,0,0,0h0c0,0-0.1,0-0.1,0c0,0,0,0-0.1,0c0,0,0,0,0,0h0c0,0,0,0-0.1,0
								c0,0-0.1,0-0.1,0c0,0-0.1,0-0.1,0c0,0-0.1-0.1-0.1-0.1c-0.4-0.3-0.7-0.8-1-1.4C18.9,22.5,19.4,22.4,20,22.4z M17.2,23
								C17.3,22.9,17.3,22.9,17.2,23c0.1,0,0.1,0,0.1,0c0,0,0.1,0,0.1-0.1c0.2-0.1,0.4-0.1,0.6-0.2c0.3,0.6,0.7,1.1,1.1,1.5
								c0,0-0.1,0-0.1,0c0,0,0,0-0.1,0c0,0,0,0,0,0c0,0,0,0,0,0c0,0,0,0,0,0c0,0-0.1,0-0.1,0c0,0,0,0,0,0c0,0,0,0,0,0
								c-0.3-0.1-0.6-0.3-0.9-0.4h0c-0.3-0.2-0.6-0.5-0.9-0.8C17,23,17.1,23,17.2,23z M17.1,24.3C17,24.3,17,24.2,17.1,24.3
								c-0.1-0.1-0.2-0.1-0.3-0.1c0,0-0.1,0-0.1-0.1c-0.1,0-0.1-0.1-0.2-0.1c0,0-0.1,0-0.1-0.1c-0.1,0-0.1-0.1-0.2-0.1
								c0,0-0.1,0-0.1-0.1c-0.1,0-0.1-0.1-0.2-0.1c0,0,0,0,0,0c0.2-0.1,0.4-0.3,0.7-0.4c0.5,0.6,1.1,1,1.8,1.3c0,0,0,0-0.1,0
								c-0.1,0-0.1,0.1-0.2,0.1c0,0,0,0-0.1,0c-0.3-0.1-0.6-0.2-0.9-0.3C17.2,24.3,17.1,24.3,17.1,24.3z M18.5,24.8
								c0.1-0.1,0.2-0.1,0.3-0.2l0,0c0,0,0,0,0,0c0,0,0.1,0,0.2-0.1c0.1,0,0.2-0.1,0.3-0.1c0.1,0,0.1,0,0.2,0c0.2,0,0.4-0.1,0.6-0.1
								h0c0.2,0,0.4,0,0.6,0.1c0.1,0,0.2,0,0.2,0.1c0,0,0,0,0,0c0,0,0,0,0,0c0,0,0,0,0.1,0c0.1,0,0.1,0,0.2,0.1c0,0,0,0,0.1,0
								c0,0,0,0,0,0c0,0,0,0,0,0c0,0,0.1,0,0.1,0.1c0,0,0.1,0.1,0.1,0.1c0,0,0,0,0,0C20.7,25,19.5,25,18.5,24.8z M24.2,23.6
								c-0.1,0-0.1,0.1-0.2,0.1c0,0-0.1,0-0.1,0.1c0,0-0.1,0.1-0.1,0.1c0,0-0.1,0.1-0.1,0.1c0,0-0.1,0.1-0.1,0.1c0,0-0.1,0-0.1,0.1
								c0,0-0.1,0-0.1,0.1c0,0-0.1,0-0.1,0.1c-0.1,0-0.1,0.1-0.2,0.1c-0.1,0-0.2,0.1-0.2,0.1c-0.1,0-0.2,0.1-0.3,0.1
								c-0.1,0-0.2,0.1-0.3,0.1c0,0-0.1,0-0.1-0.1c0,0-0.1-0.1-0.1-0.1c0,0,0,0-0.1,0c0.7-0.3,1.3-0.7,1.8-1.3
								C23.8,23.3,24,23.5,24.2,23.6C24.3,23.6,24.3,23.6,24.2,23.6z"/>
						</g>
					</g>
				</g>
				<g>
					<g>
						<g>
							<path class="st1" d="M14.2,14.2c0.4-0.6,0.9-1.1,1.5-1.6c0.2,0.2,0.5,0.3,0.7,0.4c-0.3,0.3-0.6,0.7-0.8,1.1H16
								c0.2-0.4,0.5-0.7,0.7-1c0.1,0.1,0.3,0.1,0.4,0.2c0,0,0.1,0,0.1,0.1c0,0,0.1,0,0.1,0c0.2,0.1,0.4,0.1,0.6,0.2
								c-0.1,0.2-0.1,0.3-0.2,0.5H18c0.1-0.2,0.1-0.3,0.2-0.5c0.6,0.1,1.2,0.2,1.7,0.2v0.2h0.3v-0.2c0.6,0,1.2-0.1,1.7-0.2
								c0.1,0.1,0.1,0.3,0.2,0.5h0.3c-0.1-0.2-0.1-0.4-0.2-0.5c0.2-0.1,0.4-0.1,0.6-0.2c0,0,0.1,0,0.1,0c0,0,0,0,0,0
								c0,0,0.1,0,0.1-0.1c0.1-0.1,0.3-0.1,0.4-0.2c0.3,0.3,0.5,0.6,0.7,1h0.3c-0.2-0.4-0.5-0.8-0.8-1.1c0.2-0.1,0.5-0.3,0.7-0.4
								c0.6,0.5,1.1,1,1.5,1.6h0.3c-0.5-0.7-1.1-1.3-1.7-1.8c-0.8-0.6-1.6-1-2.5-1.2c-0.6-0.2-1.3-0.3-2-0.3c-0.7,0-1.3,0.1-2,0.3
								c-0.9,0.2-1.8,0.7-2.5,1.2c-0.7,0.5-1.3,1.1-1.7,1.8H14.2z M17.5,13.2c0,0-0.1,0-0.1-0.1c0,0-0.1,0-0.1,0
								c-0.1,0-0.2-0.1-0.3-0.1c0.3-0.3,0.6-0.6,0.9-0.8c0,0,0,0,0,0c0.3-0.2,0.6-0.3,0.9-0.4c0,0,0,0,0,0c0,0,0.1,0,0.1,0
								c0,0,0,0,0.1,0c0,0,0,0,0,0c0,0,0.1,0,0.1,0c0,0,0,0,0,0c0,0,0,0,0.1,0c-0.4,0.4-0.8,0.9-1.1,1.5
								C17.9,13.3,17.7,13.3,17.5,13.2z M18.3,13.5c0.3-0.7,0.7-1.2,1.1-1.5c0,0,0,0,0,0c0,0,0.1,0,0.1,0c0,0,0.1,0,0.1,0
								c0,0,0.1,0,0.1,0c0,0,0,0,0.1,0c0,0,0,0,0,0h0v1.6C19.4,13.7,18.9,13.6,18.3,13.5z M20.2,13.7V12c0,0,0,0,0,0h0
								c0,0,0.1,0,0.1,0c0,0,0,0,0.1,0c0,0,0,0,0,0h0c0,0,0,0,0.1,0c0,0,0.1,0,0.1,0c0,0,0.1,0,0.1,0c0,0,0.1,0.1,0.1,0.1
								c0.4,0.3,0.7,0.8,1,1.4C21.3,13.6,20.8,13.7,20.2,13.7z M23,13.1C23,13.1,22.9,13.1,23,13.1c-0.1,0-0.1,0-0.1,0
								c0,0-0.1,0-0.1,0.1c-0.2,0.1-0.4,0.1-0.6,0.2c-0.3-0.6-0.7-1.1-1.1-1.5c0,0,0.1,0,0.1,0c0,0,0,0,0.1,0c0,0,0,0,0,0
								c0,0,0,0,0,0c0,0,0,0,0,0c0,0,0.1,0,0.1,0c0,0,0,0,0,0c0,0,0,0,0,0c0.3,0.1,0.6,0.3,0.9,0.4h0c0.3,0.2,0.6,0.5,0.9,0.8
								C23.2,13,23.1,13.1,23,13.1z M23.2,11.8C23.2,11.8,23.2,11.8,23.2,11.8c0.1,0.1,0.2,0.1,0.3,0.1c0,0,0.1,0,0.1,0.1
								c0.1,0,0.1,0.1,0.2,0.1c0,0,0.1,0,0.1,0.1c0.1,0,0.1,0.1,0.2,0.1c0,0,0.1,0,0.1,0.1c0.1,0,0.1,0.1,0.2,0.1c0,0,0,0,0,0
								c-0.2,0.1-0.4,0.3-0.7,0.4c-0.5-0.6-1.1-1-1.8-1.3c0,0,0,0,0.1,0c0.1,0,0.1-0.1,0.2-0.1c0,0,0,0,0.1,0
								c0.3,0.1,0.6,0.2,0.9,0.3C23,11.7,23.1,11.8,23.2,11.8z M21.7,11.3c-0.1,0.1-0.2,0.1-0.3,0.2l0,0c0,0,0,0,0,0
								c0,0-0.1,0-0.2,0.1c-0.1,0-0.2,0.1-0.3,0.1c-0.1,0-0.1,0-0.2,0c-0.2,0-0.4,0.1-0.6,0.1h0c-0.2,0-0.4,0-0.6-0.1
								c-0.1,0-0.2,0-0.2-0.1c0,0,0,0,0,0c0,0,0,0,0,0c0,0,0,0-0.1,0c-0.1,0-0.1,0-0.2-0.1c0,0,0,0-0.1,0c0,0,0,0,0,0c0,0,0,0,0,0
								c0,0-0.1,0-0.1-0.1c0,0-0.1-0.1-0.1-0.1c0,0,0,0,0,0C19.6,11.1,20.7,11.1,21.7,11.3z M16,12.4c0.1,0,0.1-0.1,0.2-0.1
								c0,0,0.1,0,0.1-0.1c0,0,0.1-0.1,0.1-0.1c0,0,0.1-0.1,0.1-0.1c0,0,0.1-0.1,0.1-0.1c0,0,0.1,0,0.1-0.1c0,0,0.1,0,0.1-0.1
								c0,0,0.1,0,0.1-0.1c0.1,0,0.1-0.1,0.2-0.1c0.1,0,0.2-0.1,0.2-0.1c0.1,0,0.2-0.1,0.3-0.1c0.1,0,0.2-0.1,0.3-0.1
								c0,0,0.1,0,0.1,0.1c0,0,0.1,0.1,0.1,0.1c0,0,0,0,0.1,0c-0.7,0.3-1.3,0.7-1.8,1.3C16.4,12.7,16.2,12.6,16,12.4
								C16,12.4,16,12.4,16,12.4z"/>
						</g>
					</g>
				</g>
			</g>
			<g>
				<g>
					<rect id="XMLID_6_" x="10" y="6.1" class="st1" width="20.8" height="2.7"/>
				</g>
			</g>
			<g>
				<g>
					<rect id="XMLID_5_" x="19.7" y="33.3" class="st1" width="7.3" height="1.4"/>
				</g>
			</g>
			<g>
				<g>
					<rect id="XMLID_4_" x="19.7" y="35.7" class="st1" width="4.5" height="1.4"/>
				</g>
			</g>
			<g>
				<g>
					<path class="st1" d="M12.8,38.3c-0.2,0-0.4-0.1-0.5-0.1c-0.1-0.1-0.3-0.1-0.4-0.1c-0.1,0-0.2,0.1-0.4,0.1
						c-0.2,0.1-0.5,0.2-0.8,0.1c-0.3-0.1-0.4-0.3-0.6-0.5c-0.1-0.1-0.2-0.2-0.2-0.3c-0.1-0.1-0.2-0.1-0.4-0.1
						c-0.2-0.1-0.5-0.1-0.7-0.4c-0.2-0.2-0.1-0.5-0.1-0.8c0-0.1,0-0.3,0-0.4c0-0.1-0.1-0.2-0.2-0.3c-0.2-0.2-0.3-0.4-0.3-0.7
						c0-0.3,0.2-0.5,0.3-0.7c0.1-0.1,0.2-0.2,0.2-0.3c0-0.1,0-0.2,0-0.4c0-0.2,0-0.5,0.1-0.8c0.2-0.2,0.4-0.3,0.7-0.4
						c0.1,0,0.3-0.1,0.4-0.1c0.1-0.1,0.2-0.2,0.2-0.3c0.1-0.2,0.3-0.5,0.6-0.5c0.3-0.1,0.5,0,0.8,0.1c0.1,0.1,0.3,0.1,0.4,0.1
						c0.1,0,0.2-0.1,0.4-0.1c0.2-0.1,0.5-0.2,0.8-0.1c0.3,0.1,0.4,0.3,0.6,0.5c0.1,0.1,0.2,0.2,0.2,0.3c0.1,0.1,0.2,0.1,0.4,0.1
						c0.2,0.1,0.5,0.1,0.7,0.4c0.2,0.2,0.1,0.5,0.1,0.8c0,0.1,0,0.3,0,0.4c0,0.1,0.1,0.2,0.2,0.3c0.2,0.2,0.3,0.4,0.3,0.7
						c0,0.3-0.2,0.5-0.3,0.7c-0.1,0.1-0.2,0.2-0.2,0.3c0,0.1,0,0.2,0,0.4c0,0.2,0,0.5-0.1,0.8c-0.2,0.2-0.4,0.3-0.7,0.4
						c-0.1,0-0.3,0.1-0.4,0.1c-0.1,0.1-0.2,0.2-0.2,0.3c-0.1,0.2-0.3,0.5-0.6,0.5C13,38.3,12.9,38.3,12.8,38.3z M11,31.7
						C11,31.7,10.9,31.7,11,31.7c-0.2,0-0.3,0.2-0.4,0.3c-0.1,0.2-0.2,0.3-0.4,0.4c-0.2,0.1-0.3,0.2-0.5,0.2c-0.2,0-0.3,0.1-0.4,0.2
						c-0.1,0.1-0.1,0.3,0,0.4c0,0.2,0,0.4,0,0.6c-0.1,0.2-0.2,0.3-0.3,0.5c-0.1,0.1-0.2,0.3-0.2,0.4s0.1,0.3,0.2,0.4
						c0.1,0.1,0.2,0.3,0.3,0.5c0.1,0.2,0,0.4,0,0.6c0,0.2,0,0.4,0,0.4c0.1,0.1,0.2,0.1,0.4,0.2c0.2,0,0.4,0.1,0.5,0.2
						c0.2,0.1,0.3,0.3,0.4,0.4c0.1,0.2,0.2,0.3,0.3,0.3c0.1,0,0.3,0,0.4-0.1c0.2-0.1,0.4-0.1,0.6-0.1c0.2,0,0.4,0.1,0.6,0.1
						c0.2,0.1,0.3,0.1,0.4,0.1c0.1,0,0.2-0.2,0.3-0.3c0.1-0.2,0.2-0.3,0.4-0.4c0.2-0.1,0.3-0.2,0.5-0.2c0.2,0,0.3-0.1,0.4-0.2
						c0.1-0.1,0.1-0.3,0-0.4c0-0.2,0-0.4,0-0.6c0.1-0.2,0.2-0.3,0.3-0.5c0.1-0.1,0.2-0.3,0.2-0.4s-0.1-0.3-0.2-0.4
						c-0.1-0.1-0.2-0.3-0.3-0.5c-0.1-0.2,0-0.4,0-0.6c0-0.2,0-0.4,0-0.4c-0.1-0.1-0.2-0.1-0.4-0.2c-0.2,0-0.4-0.1-0.5-0.2
						c-0.2-0.1-0.3-0.3-0.4-0.4c-0.1-0.2-0.2-0.3-0.3-0.3c-0.1,0-0.3,0-0.4,0.1c-0.2,0.1-0.4,0.1-0.6,0.1c-0.2,0-0.4-0.1-0.6-0.1
						C11.2,31.8,11.1,31.7,11,31.7z"/>
				</g>
			</g>
		</g>
		<g>
			<circle id="XMLID_1_" class="st1" cx="11.9" cy="34.8" r="1.3"/>
		</g>
	</g>
</g>
</svg>
