<?xml version="1.0" encoding="utf-8"?>
<!-- Generator: Adobe Illustrator 19.0.0, SVG Export Plug-In . SVG Version: 6.00 Build 0)  -->
<svg version="1.1" id="Слой_1" xmlns="http://www.w3.org/2000/svg" xmlns:xlink="http://www.w3.org/1999/xlink" x="0px" y="0px"
	 viewBox="0 0 39 43.4" style="enable-background:new 0 0 39 43.4;" xml:space="preserve">
<style type="text/css">
	.st0{fill:#FFFFFF;}
	.st1{fill:#2875D4;}
	.st2{fill:none;}
</style>
<g>
	<g>
		<g>
			<polygon id="XMLID_21_" class="st0" points="25.4,5.1 15.9,2.2 10.6,0.5 10.6,36.5 15.9,38.2 25.4,41.2 30.8,42.9 30.8,6.8 			
				"/>
			<path class="st1" d="M30.8,43.4c-0.1,0-0.1,0-0.1,0L10.5,37c-0.2-0.1-0.3-0.3-0.3-0.5v-36c0-0.2,0.1-0.3,0.2-0.4
				C10.4,0,10.6,0,10.8,0.1l14.8,4.6l0,0l5.4,1.7c0.2,0.1,0.3,0.3,0.3,0.5v36.1c0,0.2-0.1,0.3-0.2,0.4C31,43.4,30.9,43.4,30.8,43.4z
				 M11.1,36.2l19.2,6.1V7.1L11.1,1.2V36.2z"/>
		</g>
		<g>
			<path class="st1" d="M28.3,39.8c0,0-0.1,0-0.1,0L12.9,35c-0.2-0.1-0.3-0.3-0.3-0.5V4.1c0-0.2,0.1-0.3,0.2-0.4
				c0.1-0.1,0.3-0.1,0.4-0.1l15.2,4.7c0.2,0.1,0.3,0.3,0.3,0.5v30.4c0,0.2-0.1,0.3-0.2,0.4C28.5,39.7,28.4,39.8,28.3,39.8z
				 M13.6,34.1l14.2,4.5V9.2l-2.5-0.8l0,0L13.6,4.8V34.1z"/>
		</g>
		<g>
			<g>
				<path id="XMLID_16_" class="st1" d="M25.6,23.1l-2.8-0.9c-0.1,0-0.2,0-0.2,0.1c0,0.1,0.1,0.2,0.2,0.2l2.8,0.9V23.1z"/>
			</g>
			<g>
				<path id="XMLID_15_" class="st1" d="M25.7,22.9v0.8l-1.1-0.3c0.1,0.5,0.5,1,1,1.2c0.6,0.2,1.1-0.2,1.1-0.9
					c0-0.7-0.5-1.4-1.1-1.6c-0.5-0.2-0.9,0.1-1,0.6L25.7,22.9z"/>
			</g>
		</g>
		<g>
			<path class="st1" d="M26.4,36.3C26.4,36.3,26.4,36.3,26.4,36.3l-11.6-3.7c-0.1,0-0.2-0.1-0.2-0.2v-9L13,22.9
				c-0.1,0-0.2-0.1-0.2-0.2v-6.7c0-0.1,0-0.2,0.1-0.2c0.1,0,0.1-0.1,0.2,0l1.5,0.5V7.3c0-0.1,0-0.2,0.1-0.2c0.1,0,0.1-0.1,0.2,0
				l11.6,3.6c0.1,0,0.2,0.1,0.2,0.2v9l1.7,0.5c0.1,0,0.2,0.1,0.2,0.2v6.8c0,0.1,0,0.2-0.1,0.2c-0.1,0-0.1,0.1-0.2,0l-1.5-0.5v8.9
				c0,0.1,0,0.2-0.1,0.2C26.5,36.3,26.5,36.3,26.4,36.3z M15.1,32.2l11.1,3.5v-8.8c0-0.1,0-0.2,0.1-0.2c0.1,0,0.1-0.1,0.2,0l1.5,0.5
				v-6.2l-1.7-0.5c-0.1,0-0.2-0.1-0.2-0.2v-9L15.1,7.7v8.8c0,0.1,0,0.2-0.1,0.2c-0.1,0-0.1,0.1-0.2,0l-1.5-0.5v6.2L15,23
				c0.1,0,0.2,0.1,0.2,0.2V32.2z"/>
		</g>
	</g>
	<g id="XMLID_29_">
		<g id="XMLID_36_">
			<path id="XMLID_12_" class="st1" d="M36.2,18.4c0,0,0.1,0,0.4,0.1c0.2,0.1,0.6,0.2,0.9,0.4c0.4,0.2,0.7,0.6,1,1.1
				c0.1,0.2,0.3,0.5,0.3,0.8c0.1,0.3,0.1,0.6,0.1,0.9c0,0.2,0,0.6-0.1,0.9c-0.1,0.3-0.2,0.6-0.3,0.8c-0.3,0.5-0.6,0.9-1,1.1
				c-0.4,0.2-0.7,0.4-0.9,0.4C36.4,25,36.2,25,36.2,25s0.1-0.1,0.3-0.2c0.2-0.1,0.4-0.4,0.6-0.7c0.2-0.3,0.4-0.7,0.6-1.1
				c0.1-0.2,0.1-0.4,0.2-0.6c0-0.2,0.1-0.4,0.1-0.7c0-0.2,0-0.4-0.1-0.7c-0.1-0.2-0.1-0.4-0.2-0.6c-0.2-0.4-0.4-0.8-0.6-1.1
				c-0.2-0.3-0.5-0.5-0.6-0.7C36.3,18.5,36.2,18.4,36.2,18.4z"/>
		</g>
		<g id="XMLID_34_">
			<path id="XMLID_11_" class="st1" d="M34.6,19.1c0,0,0.1,0,0.3,0c0.2,0,0.5,0.1,0.8,0.3c0.3,0.2,0.6,0.5,0.8,0.9
				c0.1,0.2,0.2,0.4,0.3,0.7c0.1,0.2,0.1,0.5,0.1,0.8c0,0.2,0,0.5-0.1,0.7c-0.1,0.2-0.2,0.5-0.3,0.7c-0.2,0.4-0.5,0.7-0.8,0.9
				c-0.3,0.2-0.6,0.3-0.8,0.3c-0.2,0-0.3,0-0.3,0s0.1-0.1,0.2-0.2c0.1-0.1,0.3-0.3,0.5-0.6c0.2-0.2,0.3-0.5,0.4-0.9
				c0.1-0.2,0.1-0.3,0.1-0.5c0-0.2,0-0.3,0-0.5c0-0.1,0-0.3,0-0.5c0-0.2-0.1-0.3-0.1-0.5c-0.1-0.3-0.3-0.6-0.4-0.9
				c-0.2-0.2-0.4-0.4-0.5-0.6C34.7,19.1,34.6,19.1,34.6,19.1z"/>
		</g>
		<g id="XMLID_32_">
			<path id="XMLID_10_" class="st1" d="M32.9,19.8c0,0,0.1,0,0.2,0c0.2,0,0.4,0.1,0.6,0.2c0.2,0.1,0.5,0.3,0.7,0.6
				c0.1,0.1,0.2,0.3,0.2,0.5c0,0.2,0.1,0.3,0.1,0.6c0,0.1,0,0.4-0.1,0.5c0,0.2-0.1,0.3-0.2,0.5c-0.2,0.3-0.4,0.5-0.7,0.6
				c-0.2,0.1-0.4,0.2-0.6,0.2c-0.1,0-0.2,0-0.2,0s0.2-0.3,0.4-0.6c0.1-0.2,0.2-0.4,0.3-0.6c0-0.1,0-0.2,0.1-0.3c0-0.1,0-0.2,0-0.4
				c0-0.1,0-0.2,0-0.3c0-0.1,0-0.2-0.1-0.3c-0.1-0.2-0.2-0.4-0.3-0.6C33.2,20.1,32.9,19.8,32.9,19.8z"/>
		</g>
		<g id="XMLID_30_">
			<path id="XMLID_9_" class="st2" d="M36.2,25"/>
		</g>
	</g>
	<g id="XMLID_40_">
		<g id="XMLID_45_">
			<path id="XMLID_8_" class="st1" d="M3.3,15.2c0,0,0.1,0,0.2,0c0.1,0,0.3,0.1,0.5,0.1c0.2,0.1,0.5,0.2,0.8,0.3
				c0.3,0.2,0.6,0.3,0.9,0.6c0.6,0.5,1.3,1.2,1.8,2.2C7.8,19,8,19.5,8.1,20c0.1,0.6,0.2,1.1,0.2,1.7c0,0.5-0.1,1.1-0.2,1.6
				c-0.1,0.5-0.3,1.1-0.6,1.5c-0.5,0.9-1.2,1.7-1.8,2.2c-0.3,0.3-0.6,0.4-0.9,0.6C4.5,27.8,4.2,27.9,4,28c-0.2,0.1-0.4,0.1-0.5,0.1
				c-0.1,0-0.2,0-0.2,0s0.2-0.1,0.6-0.4c0.4-0.3,0.9-0.7,1.4-1.2c0.5-0.6,1-1.3,1.3-2.1C6.8,24,6.9,23.6,7,23.1
				c0.1-0.5,0.1-0.9,0.1-1.4c0-0.4,0-0.9-0.1-1.4c-0.1-0.5-0.2-0.9-0.4-1.3c-0.3-0.8-0.8-1.5-1.3-2.1c-0.3-0.3-0.5-0.5-0.7-0.7
				c-0.2-0.2-0.5-0.4-0.6-0.5C3.5,15.4,3.3,15.2,3.3,15.2z"/>
		</g>
		<g id="XMLID_43_">
			<path id="XMLID_7_" class="st1" d="M1.7,16.6c0,0,0,0,0.1,0c0.1,0,0.2,0,0.4,0.1c0,0,0,0,0,0c0.2,0.1,0.4,0.1,0.6,0.2
				c0.2,0.1,0.5,0.3,0.8,0.5c0.5,0.4,1.1,1,1.5,1.7c0.2,0.4,0.4,0.8,0.5,1.2c0.1,0.4,0.2,0.9,0.2,1.4c0,0.4-0.1,0.9-0.2,1.3
				c-0.1,0.4-0.3,0.8-0.5,1.2C4.7,25,4.1,25.6,3.6,26c-0.3,0.2-0.5,0.3-0.8,0.5c-0.2,0.1-0.4,0.2-0.6,0.2c-0.2,0.1-0.3,0.1-0.4,0.1
				c-0.1,0-0.1,0-0.1,0s0.2-0.1,0.4-0.3c0.3-0.2,0.7-0.5,1-1c0.1-0.1,0.1-0.1,0.2-0.2c0.3-0.4,0.6-0.9,0.9-1.5
				c0-0.1,0.1-0.1,0.1-0.2c0.1-0.3,0.2-0.6,0.2-0.8c0,0,0-0.1,0-0.1c0.1-0.3,0.1-0.6,0.1-1c0-0.3,0-0.6-0.1-1c0,0,0-0.1,0-0.1
				c-0.1-0.3-0.1-0.6-0.2-0.9c0-0.1,0-0.1-0.1-0.2c-0.2-0.6-0.6-1.1-0.9-1.5c0-0.1-0.1-0.1-0.1-0.2c-0.2-0.2-0.4-0.4-0.6-0.6
				c-0.1-0.1-0.3-0.2-0.4-0.3c0,0-0.1-0.1-0.1-0.1C1.8,16.7,1.7,16.6,1.7,16.6z"/>
		</g>
		<g id="XMLID_41_">
			<path id="XMLID_6_" class="st1" d="M0,18C0,18,0,18,0,18c0.2,0,0.3,0,0.4,0.1c0,0,0,0,0,0c0.1,0,0.3,0.1,0.5,0.1
				c0.2,0.1,0.4,0.2,0.6,0.3c0.4,0.3,0.8,0.7,1.1,1.2c0.2,0.3,0.3,0.6,0.4,0.9c0.1,0.3,0.1,0.6,0.1,1c0,0.3-0.1,0.7-0.1,1
				c-0.1,0.3-0.2,0.6-0.4,0.9c-0.3,0.6-0.7,1-1.1,1.2c-0.2,0.1-0.4,0.2-0.6,0.3c-0.2,0.1-0.3,0.1-0.5,0.2c-0.1,0-0.3,0-0.3,0.1
				c-0.1,0-0.1,0-0.1,0s0.1-0.1,0.3-0.2C0.5,25,0.7,24.8,1,24.4c0,0,0.1-0.1,0.1-0.2c0.2-0.3,0.4-0.7,0.6-1.1c0,0,0-0.1,0.1-0.1
				c0.1-0.2,0.1-0.4,0.2-0.6c0,0,0-0.1,0-0.1C2,22.2,2,22,2,21.7c0-0.2,0-0.5-0.1-0.7c0,0,0-0.1,0-0.1c0-0.2-0.1-0.4-0.2-0.6
				c0,0,0-0.1,0-0.1c-0.2-0.4-0.4-0.8-0.6-1.1C1.1,19.1,1,19,1,19c-0.1-0.2-0.3-0.3-0.4-0.4c-0.1-0.1-0.2-0.2-0.2-0.2
				c0,0-0.1-0.1-0.1-0.1C0.1,18.1,0,18,0,18z"/>
		</g>
	</g>
	<g id="XMLID_38_">
		<path id="XMLID_5_" class="st2" d="M8.9,29.8"/>
	</g>
	<g id="XMLID_33_">
		<g id="XMLID_35_">
			<path id="XMLID_4_" class="st1" d="M7.3,5.8L4.9,4.1C4.8,4,4.7,4,4.7,4.2v0.7c0,0.1-0.1,0.2-0.2,0.2l-4.2,0C0.1,5.1,0,5.2,0,5.3
				l0,1.2c0,0.1,0.1,0.2,0.2,0.2h4.3c0.1,0,0.2,0.1,0.2,0.2v0.7c0,0.1,0.1,0.2,0.2,0.1l2.5-1.7C7.4,6,7.4,5.9,7.3,5.8z"/>
		</g>
	</g>
	<g id="XMLID_25_">
		<g id="XMLID_28_">
			<path id="XMLID_3_" class="st1" d="M7.3,37.3l-2.5-1.7c-0.1-0.1-0.2,0-0.2,0.1v0.7c0,0.1-0.1,0.2-0.2,0.2l-4.2,0
				c-0.1,0-0.2,0.1-0.2,0.2L0,38c0,0.1,0.1,0.2,0.2,0.2h4.3c0.1,0,0.2,0.1,0.2,0.2v0.7c0,0.1,0.1,0.2,0.2,0.1l2.5-1.7
				C7.4,37.5,7.4,37.3,7.3,37.3z"/>
		</g>
	</g>
	<g id="XMLID_26_">
		<g id="XMLID_27_">
			<path id="XMLID_2_" class="st1" d="M38.4,11.8l-1.7-1.2c-0.1-0.1-0.1,0-0.1,0.1v0.5c0,0.1-0.1,0.2-0.2,0.2l-2.9,0
				c-0.1,0-0.2,0.1-0.2,0.2l0,0.8c0,0.1,0.1,0.2,0.2,0.2h3c0.1,0,0.1,0.1,0.1,0.2v0.5c0,0.1,0.1,0.1,0.1,0.1l1.7-1.2
				C38.5,11.9,38.5,11.8,38.4,11.8z"/>
		</g>
	</g>
	<g id="XMLID_23_">
		<g id="XMLID_24_">
			<path id="XMLID_1_" class="st1" d="M38.4,30.7l-1.7-1.2c-0.1-0.1-0.1,0-0.1,0.1V30c0,0.1-0.1,0.2-0.2,0.2l-2.9,0
				c-0.1,0-0.2,0.1-0.2,0.2l0,0.8c0,0.1,0.1,0.2,0.2,0.2h3c0.1,0,0.1,0.1,0.1,0.2V32c0,0.1,0.1,0.1,0.1,0.1l1.7-1.2
				C38.5,30.8,38.5,30.7,38.4,30.7z"/>
		</g>
	</g>
</g>
</svg>
