<?xml version="1.0" encoding="utf-8"?>
<!-- Generator: Adobe Illustrator 19.0.0, SVG Export Plug-In . SVG Version: 6.00 Build 0)  -->
<svg version="1.1" id="Слой_1" xmlns="http://www.w3.org/2000/svg" xmlns:xlink="http://www.w3.org/1999/xlink" x="0px" y="0px"
	 viewBox="0 0 39 43.4" style="enable-background:new 0 0 39 43.4;" xml:space="preserve">
<style type="text/css">
	.st0{fill:#2875D4;}
	.st1{fill:#FFFFFF;}
</style>
<g>
	<g>
		<path id="XMLID_15_" class="st0" d="M7.1,41.1H0.5c-0.3,0-0.5-0.2-0.5-0.5c0-0.3,0.2-0.5,0.5-0.5h6.6c2.1,0,3.8-1.7,3.8-3.8V10.6
			c0-2.1-1.7-3.8-3.8-3.8H0.5C0.2,6.8,0,6.6,0,6.3C0,6,0.2,5.8,0.5,5.8h6.6c2.6,0,4.8,2.1,4.8,4.8v25.8C11.9,39,9.7,41.1,7.1,41.1z"
			/>
	</g>
	<g>
		<polygon id="XMLID_14_" class="st1" points="31.3,0.5 20.6,0.5 13.4,0.5 13.4,42.9 20.6,42.9 31.3,42.9 38.5,42.9 38.5,0.5 		"/>
		<path class="st0" d="M38.5,43.4H13.4c-0.3,0-0.5-0.2-0.5-0.5V0.5c0-0.3,0.2-0.5,0.5-0.5h25.1C38.8,0,39,0.2,39,0.5v42.4
			C39,43.2,38.8,43.4,38.5,43.4z M13.9,42.4H38V1H13.9V42.4z"/>
	</g>
	<g>
		<polygon id="XMLID_11_" class="st1" points="31.3,3.8 20.6,3.8 16.7,3.8 16.7,39.6 20.6,39.6 31.3,39.6 35.2,39.6 35.2,3.8 		"/>
		<path class="st0" d="M35.2,40.1H16.7c-0.3,0-0.5-0.2-0.5-0.5V3.8c0-0.3,0.2-0.5,0.5-0.5h18.4c0.3,0,0.5,0.2,0.5,0.5v35.7
			C35.7,39.9,35.4,40.1,35.2,40.1z M17.2,39.1h17.4V4.3H17.2V39.1z"/>
	</g>
	<g>
		<path id="XMLID_8_" class="st0" d="M31.6,21.5h-3.8c-0.1,0-0.2,0.1-0.2,0.2c0,0.1,0.1,0.2,0.2,0.2h3.8V21.5z"/>
	</g>
	<g>
		<path id="XMLID_7_" class="st0" d="M31.8,21.2v0.9h-1.5c0.2,0.6,0.7,1,1.4,1c0.8,0,1.5-0.7,1.5-1.5c0-0.8-0.7-1.5-1.5-1.5
			c-0.7,0-1.2,0.4-1.4,1H31.8z"/>
	</g>
	<g>
		<path class="st0" d="M32.7,36.7H19.2c-0.1,0-0.2-0.1-0.2-0.2V25.9h-2.2c-0.1,0-0.2-0.1-0.2-0.2v-7.9c0-0.1,0.1-0.2,0.2-0.2h2.2V7
			c0-0.1,0.1-0.2,0.2-0.2h13.5C32.9,6.7,33,6.8,33,7v10.5h2.2c0.1,0,0.2,0.1,0.2,0.2v7.9c0,0.1-0.1,0.2-0.2,0.2H33v10.5
			C33,36.6,32.9,36.7,32.7,36.7z M19.4,36.2h13.1V25.7c0-0.1,0.1-0.2,0.2-0.2h2.2V18h-2.2c-0.1,0-0.2-0.1-0.2-0.2V7.2H19.4v10.5
			c0,0.1-0.1,0.2-0.2,0.2H17v7.4h2.2c0.1,0,0.2,0.1,0.2,0.2V36.2z"/>
	</g>
	<g>
		<path id="XMLID_4_" class="st0" d="M7.5,4.9c0,0-0.1,0-0.1,0H0.5C0.2,4.9,0,4.7,0,4.4C0,4.2,0.2,4,0.5,4h6.9c0.8,0,1.5,0,1.9-0.4
			c0.2-0.2,0.4-0.7,0.4-1.4C9.6,1.6,9.4,1,7.9,1C7.5,1,6.8,1.3,6.8,1.7c0,0.3,0.1,0.6,0.8,0.6c0.3,0,0.5,0.2,0.5,0.5
			S7.8,3.3,7.6,3.3c-1.1,0-1.7-0.6-1.7-1.6c0-1,1.1-1.7,2.1-1.7c2.3,0,2.7,1.4,2.7,2.2c0,1-0.2,1.6-0.7,2.1C9.3,4.9,8.4,4.9,7.5,4.9
			z"/>
	</g>
	<g>
		<path id="XMLID_3_" class="st0" d="M5.6,12.7c-1,0-2.1-0.6-2.1-1.7c0-1,0.6-1.6,1.7-1.6c0.3,0,0.5,0.2,0.5,0.5
			c0,0.3-0.2,0.5-0.5,0.5c-0.7,0-0.8,0.3-0.8,0.6c0,0.4,0.6,0.7,1.1,0.7c1.5,0,1.7-0.6,1.7-1.2c0-0.7-0.1-1.1-0.4-1.4
			C6.5,8.8,5.9,8.8,5,8.8H0.5C0.2,8.8,0,8.6,0,8.3c0-0.3,0.2-0.5,0.5-0.5H5c0.9,0,1.9,0,2.5,0.6C8,8.9,8.3,9.6,8.3,10.6
			C8.3,11.4,7.9,12.7,5.6,12.7z"/>
	</g>
	<g>
		<path id="XMLID_2_" class="st0" d="M8.1,29.6c-0.5,0-1.6-0.2-1.6-1.9c0-0.8,0.5-1.5,1.3-1.5c0.3,0,0.5,0.2,0.5,0.5
			S8,27.2,7.7,27.2c-0.1,0-0.3,0.3-0.3,0.5c0,0.9,0.4,0.9,0.6,0.9c0.3,0,0.6,0,0.8-0.2C9,28.3,9,27.8,9,27.4v-4.8
			c0-0.3,0.2-0.5,0.5-0.5c0.3,0,0.5,0.2,0.5,0.5v4.7c0,0.7,0,1.4-0.5,1.9C9.2,29.5,8.8,29.6,8.1,29.6z"/>
	</g>
	<g>
		<path id="XMLID_1_" class="st0" d="M3.5,43.4c-0.1,0-0.2,0-0.3-0.1l-3-2.3C0.1,40.9,0,40.8,0,40.6c0-0.2,0.1-0.3,0.2-0.4l3-2.2
			c0.2-0.2,0.5-0.1,0.7,0.1c0.2,0.2,0.1,0.5-0.1,0.7l-2.5,1.8l2.5,1.9c0.2,0.2,0.3,0.5,0.1,0.7C3.8,43.3,3.7,43.4,3.5,43.4z"/>
	</g>
</g>
</svg>
