<?xml version="1.0" encoding="utf-8"?>
<!-- Generator: Adobe Illustrator 17.0.0, SVG Export Plug-In . SVG Version: 6.00 Build 0)  -->
<!DOCTYPE svg PUBLIC "-//W3C//DTD SVG 1.1//EN" "http://www.w3.org/Graphics/SVG/1.1/DTD/svg11.dtd">
<svg version="1.1" id="Слой_1" xmlns="http://www.w3.org/2000/svg" xmlns:xlink="http://www.w3.org/1999/xlink" x="0px" y="0px"
	 width="740px" height="440px" viewBox="0 0 740 440" enable-background="new 0 0 740 440" xml:space="preserve">
<g>
	<g>
		<path fill="#8A8A8C" d="M94.978,191.985H3.751c-0.494,0-0.895-0.401-0.895-0.894V6.252c0-0.494,0.401-0.895,0.895-0.895h91.227
			c0.494,0,0.894,0.401,0.894,0.895v184.839C95.872,191.585,95.471,191.985,94.978,191.985z M4.645,190.197h89.438V7.146H4.645
			V190.197z"/>
	</g>
	<g>
		<path fill="#8A8A8C" d="M91.102,191.985c-0.494,0-0.895-0.401-0.895-0.894V10.128c0-0.494,0.401-0.894,0.895-0.894
			c0.494,0,0.894,0.401,0.894,0.894v180.963C91.996,191.585,91.596,191.985,91.102,191.985z"/>
	</g>
	<g>
		<path fill="#8A8A8C" d="M7.626,191.985c-0.494,0-0.894-0.401-0.894-0.894v-70.209c0-0.494,0.401-0.895,0.894-0.895
			c0.494,0,0.894,0.401,0.894,0.895v70.209C8.52,191.585,8.12,191.985,7.626,191.985z"/>
	</g>
	<g>
		<path fill="#8A8A8C" d="M7.626,127.273c-0.494,0-0.894-0.401-0.894-0.894V10.128c0-0.494,0.401-0.894,0.894-0.894
			c0.494,0,0.894,0.401,0.894,0.894v116.251C8.52,126.873,8.12,127.273,7.626,127.273z"/>
	</g>
	<g>
		<path fill="#8A8A8C" d="M91.102,11.022H7.626c-0.494,0-0.894-0.4-0.894-0.894c0-0.494,0.401-0.894,0.894-0.894h83.476
			c0.494,0,0.894,0.401,0.894,0.894C91.996,10.622,91.596,11.022,91.102,11.022z"/>
	</g>
	<g>
		<path fill="#8A8A8C" d="M14.669,109.044L14.669,109.044c-1.53,0-2.77-1.24-2.77-2.771V89.418c0-1.53,1.24-2.771,2.77-2.771l0,0
			c1.53,0,2.77,1.24,2.77,2.771v16.856C17.439,107.804,16.2,109.044,14.669,109.044z"/>
	</g>
	<g>
		<path fill="#8A8A8C" d="M25.446,96.337h-8.559c-0.889,0-1.609-0.72-1.609-1.608l0,0c0-0.888,0.72-1.609,1.609-1.609h8.559
			c0.888,0,1.608,0.721,1.608,1.609l0,0C27.054,95.617,26.334,96.337,25.446,96.337z"/>
	</g>
</g>
<g>
	<path fill="#8A8A8C" d="M361.404,436.135c-0.493,0-0.894-0.401-0.894-0.895V254.277c0-0.494,0.401-0.895,0.894-0.895
		c0.494,0,0.895,0.401,0.895,0.895V435.24C362.299,435.734,361.898,436.135,361.404,436.135z"/>
</g>
<g>
	<g>
		<path fill="#8A8A8C" d="M255.023,191.985c-0.238,0-0.465-0.094-0.633-0.262c-0.168-0.168-0.262-0.395-0.262-0.633V6.252
			c0-0.494,0.4-0.895,0.894-0.895l121.586-0.049c0.238,0,0.466,0.094,0.633,0.262c0.168,0.168,0.262,0.395,0.262,0.632v184.839
			c0,0.494-0.4,0.894-0.894,0.894L255.023,191.985z M255.917,7.146v183.05l119.797-0.049V7.097L255.917,7.146z"/>
	</g>
	<g>
		<path fill="#8A8A8C" d="M372.733,191.937c-0.494,0-0.894-0.401-0.894-0.894V10.079c0-0.494,0.401-0.894,0.894-0.894
			c0.494,0,0.894,0.401,0.894,0.894v180.963C373.627,191.536,373.227,191.937,372.733,191.937z"/>
	</g>
	<g>
		<path fill="#8A8A8C" d="M289.257,191.937c-0.494,0-0.894-0.401-0.894-0.894v-70.209c0-0.494,0.401-0.895,0.894-0.895
			c0.493,0,0.894,0.401,0.894,0.895v70.209C290.151,191.536,289.751,191.937,289.257,191.937z"/>
	</g>
	<g>
		<path fill="#8A8A8C" d="M289.257,121.728c-0.494,0-0.894-0.401-0.894-0.894V10.079c0-0.494,0.401-0.894,0.894-0.894
			c0.493,0,0.894,0.401,0.894,0.894v110.754C290.151,121.327,289.751,121.728,289.257,121.728z"/>
	</g>
	<g>
		<path fill="#8A8A8C" d="M372.733,10.973h-83.475c-0.494,0-0.894-0.4-0.894-0.894c0-0.494,0.401-0.894,0.894-0.894h83.475
			c0.494,0,0.894,0.401,0.894,0.894C373.627,10.573,373.227,10.973,372.733,10.973z"/>
	</g>
	<g>
		<path fill="#8A8A8C" d="M296.3,108.994L296.3,108.994c-1.53,0-2.77-1.24-2.77-2.769V89.368c0-1.53,1.24-2.771,2.77-2.771l0,0
			c1.531,0,2.771,1.24,2.771,2.771v16.857C299.071,107.754,297.831,108.994,296.3,108.994z"/>
	</g>
	<g>
		<path fill="#8A8A8C" d="M307.076,96.286h-8.559c-0.888,0-1.608-0.72-1.608-1.608l0,0c0-0.888,0.72-1.608,1.608-1.608h8.559
			c0.889,0,1.609,0.72,1.609,1.608l0,0C308.685,95.567,307.965,96.286,307.076,96.286z"/>
	</g>
	<g>
		<rect x="260.24" y="11.122" fill="#D7EDFB" width="23.75" height="45.265"/>
	</g>
	<g>
		<rect x="260.24" y="140.51" fill="#D7EDFB" width="23.75" height="45.265"/>
	</g>
	<g>
		<rect x="260.24" y="61.667" fill="#A5DBF5" width="23.75" height="73.57"/>
	</g>
	<g>
		<path fill="#8A8A8C" d="M283.99,11.122v174.652h-23.75V11.122H283.99 M283.99,9.334h-23.75c-0.988,0-1.789,0.8-1.789,1.789
			v174.652c0,0.988,0.801,1.789,1.789,1.789h23.75c0.988,0,1.789-0.801,1.789-1.789V11.122
			C285.779,10.134,284.978,9.334,283.99,9.334L283.99,9.334z"/>
	</g>
</g>
<g>
	<g>
		<path fill="#8A8A8C" d="M117.04,191.985c-0.238,0-0.466-0.094-0.633-0.262c-0.168-0.168-0.262-0.395-0.262-0.633V6.252
			c0-0.494,0.4-0.895,0.894-0.895l121.587-0.049c0.238,0,0.465,0.094,0.633,0.262c0.168,0.168,0.262,0.395,0.262,0.632v184.839
			c0,0.494-0.4,0.894-0.894,0.894L117.04,191.985z M117.933,7.146v183.05l119.797-0.049V7.097L117.933,7.146z"/>
	</g>
	<g>
		<path fill="#8A8A8C" d="M234.75,191.937c-0.494,0-0.895-0.401-0.895-0.894V10.079c0-0.494,0.401-0.894,0.895-0.894
			c0.494,0,0.894,0.401,0.894,0.894v180.963C235.644,191.536,235.244,191.937,234.75,191.937z"/>
	</g>
	<g>
		<path fill="#8A8A8C" d="M151.274,191.937c-0.494,0-0.895-0.401-0.895-0.894v-70.209c0-0.494,0.401-0.895,0.895-0.895
			c0.493,0,0.894,0.401,0.894,0.895v70.209C152.168,191.536,151.768,191.937,151.274,191.937z"/>
	</g>
	<g>
		<path fill="#8A8A8C" d="M151.274,121.728c-0.494,0-0.895-0.401-0.895-0.894V10.079c0-0.494,0.401-0.894,0.895-0.894
			c0.493,0,0.894,0.401,0.894,0.894v110.754C152.168,121.327,151.768,121.728,151.274,121.728z"/>
	</g>
	<g>
		<path fill="#8A8A8C" d="M234.75,10.973h-83.476c-0.494,0-0.895-0.4-0.895-0.894c0-0.494,0.401-0.894,0.895-0.894h83.476
			c0.494,0,0.894,0.401,0.894,0.894C235.644,10.573,235.244,10.973,234.75,10.973z"/>
	</g>
	<g>
		<path fill="#8A8A8C" d="M158.317,108.994L158.317,108.994c-1.53,0-2.77-1.24-2.77-2.769V89.368c0-1.53,1.24-2.771,2.77-2.771l0,0
			c1.53,0,2.77,1.24,2.77,2.771v16.857C161.087,107.754,159.847,108.994,158.317,108.994z"/>
	</g>
	<g>
		<path fill="#8A8A8C" d="M169.093,96.286h-8.558c-0.889,0-1.609-0.72-1.609-1.608l0,0c0-0.888,0.72-1.608,1.609-1.608h8.558
			c0.888,0,1.609,0.72,1.609,1.608l0,0C170.702,95.567,169.982,96.286,169.093,96.286z"/>
	</g>
	<g>
		<rect x="122.256" y="11.122" fill="#D7EDFB" width="23.75" height="174.652"/>
	</g>
	<g>
		<polygon fill="#A5DBF5" points="122.256,93.07 146.007,101.852 146.007,185.775 122.256,185.775 		"/>
	</g>
	<g>
		<path fill="#8A8A8C" d="M146.007,11.122v174.652h-23.75V11.122H146.007 M146.007,9.334h-23.75c-0.988,0-1.789,0.8-1.789,1.789
			v174.652c0,0.988,0.801,1.789,1.789,1.789h23.75c0.988,0,1.789-0.801,1.789-1.789V11.122
			C147.795,10.134,146.995,9.334,146.007,9.334L146.007,9.334z"/>
	</g>
</g>
<g>
	<g>
		<path fill="#8A8A8C" d="M580.378,191.985c-0.238,0-0.465-0.094-0.633-0.262c-0.168-0.168-0.262-0.395-0.262-0.633V6.252
			c0-0.494,0.4-0.895,0.895-0.895l155.871-0.049c0.237,0,0.464,0.094,0.633,0.262c0.167,0.168,0.262,0.395,0.262,0.632v184.839
			c0,0.494-0.4,0.894-0.894,0.894L580.378,191.985z M581.273,7.146v183.05l154.082-0.049V7.097L581.273,7.146z"/>
	</g>
	<g>
		<path fill="#8A8A8C" d="M698.089,191.937c-0.494,0-0.894-0.401-0.894-0.894V10.079c0-0.494,0.4-0.894,0.894-0.894
			c0.493,0,0.895,0.401,0.895,0.894v180.963C698.984,191.536,698.583,191.937,698.089,191.937z"/>
	</g>
	<g>
		<path fill="#8A8A8C" d="M614.614,191.937c-0.494,0-0.895-0.401-0.895-0.894v-70.209c0-0.494,0.4-0.895,0.895-0.895
			c0.493,0,0.894,0.401,0.894,0.895v70.209C615.507,191.536,615.107,191.937,614.614,191.937z"/>
	</g>
	<g>
		<path fill="#8A8A8C" d="M614.614,121.728c-0.494,0-0.895-0.401-0.895-0.894V10.079c0-0.494,0.4-0.894,0.895-0.894
			c0.493,0,0.894,0.401,0.894,0.894v110.754C615.507,121.327,615.107,121.728,614.614,121.728z"/>
	</g>
	<g>
		<path fill="#8A8A8C" d="M698.089,10.973h-83.476c-0.494,0-0.895-0.4-0.895-0.894c0-0.494,0.4-0.894,0.895-0.894h83.476
			c0.493,0,0.895,0.401,0.895,0.894C698.984,10.573,698.583,10.973,698.089,10.973z"/>
	</g>
	<g>
		<path fill="#8A8A8C" d="M621.657,108.994L621.657,108.994c-1.53,0-2.77-1.24-2.77-2.769V89.368c0-1.53,1.24-2.771,2.77-2.771l0,0
			c1.529,0,2.77,1.24,2.77,2.771v16.857C624.427,107.754,623.186,108.994,621.657,108.994z"/>
	</g>
	<g>
		<path fill="#8A8A8C" d="M632.433,96.286h-8.559c-0.889,0-1.61-0.72-1.61-1.608l0,0c0-0.888,0.72-1.608,1.61-1.608h8.559
			c0.888,0,1.608,0.72,1.608,1.608l0,0C634.041,95.567,633.32,96.286,632.433,96.286z"/>
	</g>
	<g>
		<rect x="707.231" y="11.37" fill="#DBEAFF" width="23.751" height="84.551"/>
	</g>
	<g>
		<rect x="707.231" y="101.206" fill="#A5DBF5" width="23.751" height="84.551"/>
	</g>
	<g>
		<rect x="585.645" y="11.37" fill="#DBEAFF" width="23.751" height="84.551"/>
	</g>
	<g>
		<rect x="585.645" y="101.206" fill="#A5DBF5" width="23.751" height="84.551"/>
	</g>
	<g>
		<path fill="#8A8A8C" d="M609.396,11.37v174.386h-23.751V11.37H609.396 M609.396,9.582h-23.751c-0.988,0-1.789,0.801-1.789,1.789
			v174.386c0,0.987,0.801,1.789,1.789,1.789h23.751c0.988,0,1.788-0.801,1.788-1.789V11.37
			C611.185,10.383,610.384,9.582,609.396,9.582L609.396,9.582z"/>
	</g>
	<g>
		<path fill="#8A8A8C" d="M730.982,11.37v174.386h-23.751V11.37H730.982 M730.982,9.582h-23.751c-0.988,0-1.789,0.801-1.789,1.789
			v174.386c0,0.987,0.801,1.789,1.789,1.789h23.751c0.988,0,1.789-0.801,1.789-1.789V11.37
			C732.771,10.383,731.97,9.582,730.982,9.582L730.982,9.582z"/>
	</g>
</g>
<g>
	<g>
		<path fill="#8A8A8C" d="M400.309,191.985c-0.237,0-0.465-0.094-0.633-0.262c-0.168-0.168-0.262-0.395-0.262-0.633V6.252
			c0-0.494,0.4-0.895,0.894-0.895l155.871-0.049c0.237,0,0.464,0.094,0.632,0.262c0.168,0.168,0.262,0.395,0.262,0.632v184.839
			c0,0.494-0.4,0.894-0.894,0.894L400.309,191.985z M401.204,7.146v183.05l154.083-0.049V7.097L401.204,7.146z"/>
	</g>
	<g>
		<path fill="#8A8A8C" d="M518.02,191.937c-0.493,0-0.894-0.401-0.894-0.894V10.079c0-0.494,0.4-0.894,0.894-0.894
			c0.494,0,0.894,0.401,0.894,0.894v180.963C518.914,191.536,518.514,191.937,518.02,191.937z"/>
	</g>
	<g>
		<path fill="#8A8A8C" d="M434.545,191.937c-0.494,0-0.894-0.401-0.894-0.894v-70.209c0-0.494,0.401-0.895,0.894-0.895
			c0.493,0,0.894,0.401,0.894,0.895v70.209C435.439,191.536,435.038,191.937,434.545,191.937z"/>
	</g>
	<g>
		<path fill="#8A8A8C" d="M434.545,121.728c-0.494,0-0.894-0.401-0.894-0.894V10.079c0-0.494,0.401-0.894,0.894-0.894
			c0.493,0,0.894,0.401,0.894,0.894v110.754C435.439,121.327,435.038,121.728,434.545,121.728z"/>
	</g>
	<g>
		<path fill="#8A8A8C" d="M518.02,10.973h-83.475c-0.494,0-0.894-0.4-0.894-0.894c0-0.494,0.401-0.894,0.894-0.894h83.475
			c0.494,0,0.894,0.401,0.894,0.894C518.914,10.573,518.514,10.973,518.02,10.973z"/>
	</g>
	<g>
		<path fill="#8A8A8C" d="M441.588,108.994L441.588,108.994c-1.53,0-2.77-1.24-2.77-2.769V89.368c0-1.53,1.24-2.771,2.77-2.771l0,0
			c1.53,0,2.77,1.24,2.77,2.771v16.857C444.358,107.754,443.117,108.994,441.588,108.994z"/>
	</g>
	<g>
		<path fill="#8A8A8C" d="M452.364,96.286h-8.559c-0.888,0-1.609-0.72-1.609-1.608l0,0c0-0.888,0.72-1.608,1.609-1.608h8.559
			c0.888,0,1.608,0.72,1.608,1.608l0,0C453.972,95.567,453.252,96.286,452.364,96.286z"/>
	</g>
	<g>
		<rect x="405.526" y="11.122" fill="#D7EDFB" width="23.751" height="174.652"/>
	</g>
	<g>
		<polygon fill="#A5DBF5" points="405.526,93.07 429.278,101.852 429.278,185.775 405.526,185.775 		"/>
	</g>
	<g>
		<rect x="527.163" y="11.439" fill="#DBEAFF" width="23.751" height="174.653"/>
	</g>
	<g>
		<polygon fill="#A5DBF5" points="527.163,93.387 550.914,102.169 550.914,186.092 527.163,186.092 		"/>
	</g>
	<g>
		<path fill="#8A8A8C" d="M550.914,11.37v174.386h-23.751V11.37H550.914 M550.914,9.582h-23.751c-0.988,0-1.789,0.801-1.789,1.789
			v174.386c0,0.987,0.801,1.789,1.789,1.789h23.751c0.988,0,1.789-0.801,1.789-1.789V11.37
			C552.703,10.383,551.901,9.582,550.914,9.582L550.914,9.582z"/>
	</g>
	<g>
		<path fill="#8A8A8C" d="M429.278,11.37v174.386h-23.751V11.37H429.278 M429.278,9.582h-23.751c-0.987,0-1.789,0.801-1.789,1.789
			v174.386c0,0.987,0.801,1.789,1.789,1.789h23.751c0.988,0,1.789-0.801,1.789-1.789V11.37
			C431.067,10.383,430.265,9.582,429.278,9.582L429.278,9.582z"/>
	</g>
</g>
<g>
	<g>
		<path fill="#8A8A8C" d="M94.978,437.376H3.751c-0.494,0-0.895-0.4-0.895-0.895V228.713c0-0.494,0.401-0.895,0.895-0.895h91.227
			c0.494,0,0.894,0.401,0.894,0.895v207.769C95.872,436.976,95.471,437.376,94.978,437.376z M4.645,435.587h89.438v-205.98H4.645
			V435.587z"/>
	</g>
	<g>
		<path fill="#8A8A8C" d="M91.102,436.184c-0.494,0-0.895-0.401-0.895-0.895V254.326c0-0.494,0.401-0.895,0.895-0.895
			c0.494,0,0.894,0.401,0.894,0.895v180.963C91.996,435.783,91.596,436.184,91.102,436.184z"/>
	</g>
	<g>
		<path fill="#8A8A8C" d="M7.626,436.184c-0.494,0-0.894-0.401-0.894-0.895V365.08c0-0.493,0.401-0.895,0.894-0.895
			c0.494,0,0.894,0.401,0.894,0.895v70.209C8.52,435.783,8.12,436.184,7.626,436.184z"/>
	</g>
	<g>
		<path fill="#8A8A8C" d="M7.626,372.187c-0.494,0-0.894-0.401-0.894-0.894V254.326c0-0.494,0.401-0.895,0.894-0.895
			c0.494,0,0.894,0.401,0.894,0.895v116.966C8.52,371.786,8.12,372.187,7.626,372.187z"/>
	</g>
	<g>
		<path fill="#8A8A8C" d="M91.102,255.221H7.626c-0.494,0-0.894-0.401-0.894-0.895c0-0.494,0.401-0.895,0.894-0.895h83.476
			c0.494,0,0.894,0.401,0.894,0.895C91.996,254.82,91.596,255.221,91.102,255.221z"/>
	</g>
	<g>
		<path fill="#8A8A8C" d="M14.669,353.241L14.669,353.241c-1.53,0-2.77-1.239-2.77-2.769v-16.856c0-1.53,1.24-2.771,2.77-2.771l0,0
			c1.53,0,2.771,1.241,2.771,2.771v16.856C17.44,352.002,16.2,353.241,14.669,353.241z"/>
	</g>
	<g>
		<path fill="#8A8A8C" d="M25.445,340.534h-8.558c-0.889,0-1.608-0.72-1.608-1.607l0,0c0-0.89,0.72-1.609,1.608-1.609h8.558
			c0.888,0,1.61,0.72,1.61,1.609l0,0C27.055,339.814,26.334,340.534,25.445,340.534z"/>
	</g>
	<g>
		<rect x="9.014" y="233.953" fill="#A5DBF5" width="80.638" height="15.107"/>
	</g>
	<g>
		<polygon fill="#DBEAFF" points="9.014,233.953 89.652,249.06 89.652,233.953 		"/>
	</g>
</g>
<g>
	<g>
		<path fill="#8A8A8C" d="M116.791,436.184c-0.236,0-0.464-0.095-0.632-0.264c-0.168-0.167-0.262-0.393-0.262-0.631V228.736
			c0-0.493,0.401-0.894,0.894-0.894l121.586-0.049c0.236,0,0.465,0.096,0.633,0.263c0.168,0.168,0.262,0.393,0.262,0.631V435.24
			c0,0.493-0.401,0.895-0.895,0.895L116.791,436.184z M117.685,229.63v204.764l119.797-0.049V229.581L117.685,229.63z"/>
	</g>
	<g>
		<path fill="#8A8A8C" d="M234.501,436.135c-0.494,0-0.894-0.401-0.894-0.895V254.277c0-0.494,0.401-0.895,0.894-0.895
			c0.494,0,0.895,0.401,0.895,0.895V435.24C235.396,435.734,234.995,436.135,234.501,436.135z"/>
	</g>
	<g>
		<path fill="#8A8A8C" d="M151.026,436.135c-0.494,0-0.895-0.401-0.895-0.895v-70.209c0-0.493,0.401-0.895,0.895-0.895
			s0.894,0.401,0.894,0.895v70.209C151.92,435.734,151.519,436.135,151.026,436.135z"/>
	</g>
	<g>
		<path fill="#8A8A8C" d="M151.026,365.926c-0.494,0-0.895-0.4-0.895-0.894V254.277c0-0.494,0.401-0.895,0.895-0.895
			s0.894,0.401,0.894,0.895v110.754C151.92,365.525,151.519,365.926,151.026,365.926z"/>
	</g>
	<g>
		<path fill="#8A8A8C" d="M234.501,255.171h-83.476c-0.494,0-0.895-0.4-0.895-0.894c0-0.494,0.401-0.895,0.895-0.895h83.476
			c0.494,0,0.895,0.401,0.895,0.895C235.396,254.771,234.995,255.171,234.501,255.171z"/>
	</g>
	<g>
		<path fill="#8A8A8C" d="M158.069,353.192L158.069,353.192c-1.53,0-2.77-1.241-2.77-2.769v-16.858c0-1.53,1.24-2.769,2.77-2.769
			l0,0c1.53,0,2.771,1.239,2.771,2.769v16.858C160.839,351.951,159.599,353.192,158.069,353.192z"/>
	</g>
	<g>
		<path fill="#8A8A8C" d="M168.844,340.484h-8.558c-0.889,0-1.608-0.72-1.608-1.609l0,0c0-0.888,0.72-1.607,1.608-1.607h8.558
			c0.888,0,1.609,0.72,1.609,1.607l0,0C170.454,339.765,169.733,340.484,168.844,340.484z"/>
	</g>
	<g>
		<rect x="122.008" y="255.321" fill="#DBEAFF" width="23.75" height="174.651"/>
	</g>
	<g>
		<polygon fill="#A5DBF5" points="122.008,337.268 145.758,346.049 145.758,429.972 122.008,429.972 		"/>
	</g>
	<g>
		<rect x="122.353" y="233.953" fill="#A5DBF5" width="112.189" height="15.107"/>
	</g>
	<g>
		<path fill="#8A8A8C" d="M145.758,255.567v174.386h-23.75V255.567H145.758 M145.758,253.779h-23.75
			c-0.988,0-1.789,0.801-1.789,1.789v174.386c0,0.988,0.8,1.788,1.789,1.788h23.75c0.989,0,1.789-0.801,1.789-1.788V255.567
			C147.547,254.58,146.747,253.779,145.758,253.779L145.758,253.779z"/>
	</g>
	<g>
		<polygon fill="#DBEAFF" points="122.353,233.953 234.542,249.06 234.542,233.953 		"/>
	</g>
</g>
<g>
	<g>
		<path fill="#8A8A8C" d="M255.618,436.184c-0.236,0-0.465-0.095-0.633-0.264c-0.168-0.167-0.262-0.393-0.262-0.631V228.736
			c0-0.493,0.401-0.894,0.895-0.894l121.587-0.049c0.236,0,0.465,0.096,0.632,0.263c0.168,0.168,0.262,0.393,0.262,0.631V435.24
			c0,0.493-0.401,0.895-0.894,0.895L255.618,436.184z M256.513,229.63v204.764l119.798-0.049V229.581L256.513,229.63z"/>
	</g>
	<g>
		<path fill="#8A8A8C" d="M289.854,436.135c-0.494,0-0.894-0.401-0.894-0.895v-70.209c0-0.493,0.4-0.895,0.894-0.895
			c0.494,0,0.895,0.401,0.895,0.895v70.209C290.748,435.734,290.348,436.135,289.854,436.135z"/>
	</g>
	<g>
		<path fill="#8A8A8C" d="M289.854,365.926c-0.494,0-0.894-0.4-0.894-0.894V254.277c0-0.494,0.4-0.895,0.894-0.895
			c0.494,0,0.895,0.401,0.895,0.895v110.754C290.748,365.525,290.348,365.926,289.854,365.926z"/>
	</g>
	<g>
		<path fill="#8A8A8C" d="M373.329,255.171h-83.476c-0.494,0-0.894-0.4-0.894-0.894c0-0.494,0.4-0.895,0.894-0.895h83.476
			c0.494,0,0.895,0.401,0.895,0.895C374.224,254.771,373.823,255.171,373.329,255.171z"/>
	</g>
	<g>
		<path fill="#8A8A8C" d="M296.897,353.192L296.897,353.192c-1.53,0-2.771-1.241-2.771-2.769v-16.858c0-1.53,1.24-2.769,2.771-2.769
			l0,0c1.529,0,2.769,1.239,2.769,2.769v16.858C299.666,351.951,298.426,353.192,296.897,353.192z"/>
	</g>
	<g>
		<path fill="#8A8A8C" d="M307.673,340.484h-8.558c-0.888,0-1.609-0.72-1.609-1.609l0,0c0-0.888,0.721-1.607,1.609-1.607h8.558
			c0.889,0,1.608,0.72,1.608,1.607l0,0C309.281,339.765,308.561,340.484,307.673,340.484z"/>
	</g>
	<g>
		<rect x="261.18" y="233.953" fill="#A5DBF5" width="112.189" height="15.107"/>
	</g>
	<g>
		<rect x="260.885" y="255.567" fill="#DBEAFF" width="23.751" height="84.552"/>
	</g>
	<g>
		<rect x="260.885" y="345.404" fill="#A5DBF5" width="23.751" height="84.55"/>
	</g>
	<g>
		<path fill="#8A8A8C" d="M284.637,255.567v174.386h-23.751V255.567H284.637 M284.637,253.779h-23.751
			c-0.988,0-1.789,0.801-1.789,1.789v174.386c0,0.988,0.801,1.788,1.789,1.788h23.751c0.987,0,1.789-0.801,1.789-1.788V255.567
			C286.425,254.58,285.624,253.779,284.637,253.779L284.637,253.779z"/>
	</g>
	<g>
		<polygon fill="#DBEAFF" points="261.18,233.953 373.369,249.06 373.369,233.953 		"/>
	</g>
</g>
<g>
	<g>
		<path fill="#8A8A8C" d="M400.012,436.184c-0.236,0-0.465-0.095-0.633-0.264c-0.168-0.167-0.262-0.393-0.262-0.631l0.021-206.553
			c0-0.493,0.401-0.894,0.894-0.894l152.143-0.061c0.236,0,0.464,0.093,0.633,0.261c0.167,0.168,0.262,0.396,0.262,0.634
			l-0.021,206.551c0,0.494-0.4,0.895-0.894,0.895L400.012,436.184z M400.927,229.63l-0.021,204.764l150.354-0.063l0.021-204.762
			L400.927,229.63z"/>
	</g>
	<g>
		<path fill="#8A8A8C" d="M517.722,436.135c-0.494,0-0.895-0.401-0.895-0.895V254.277c0-0.494,0.401-0.895,0.895-0.895
			c0.493,0,0.895,0.401,0.895,0.895V435.24C518.616,435.734,518.215,436.135,517.722,436.135z"/>
	</g>
	<g>
		<path fill="#8A8A8C" d="M434.246,436.135c-0.494,0-0.895-0.401-0.895-0.895v-70.209c0-0.493,0.401-0.895,0.895-0.895
			c0.494,0,0.894,0.401,0.894,0.895v70.209C435.141,435.734,434.74,436.135,434.246,436.135z"/>
	</g>
	<g>
		<path fill="#8A8A8C" d="M434.246,365.926c-0.494,0-0.895-0.4-0.895-0.894V254.277c0-0.494,0.401-0.895,0.895-0.895
			c0.494,0,0.894,0.401,0.894,0.895v110.754C435.141,365.525,434.74,365.926,434.246,365.926z"/>
	</g>
	<g>
		<path fill="#8A8A8C" d="M517.722,255.171h-83.476c-0.494,0-0.895-0.4-0.895-0.894c0-0.494,0.401-0.895,0.895-0.895h83.476
			c0.493,0,0.895,0.401,0.895,0.895C518.616,254.771,518.215,255.171,517.722,255.171z"/>
	</g>
	<g>
		<path fill="#8A8A8C" d="M441.289,353.192L441.289,353.192c-1.53,0-2.77-1.241-2.77-2.769v-16.858c0-1.53,1.24-2.769,2.77-2.769
			l0,0c1.53,0,2.771,1.239,2.771,2.769v16.858C444.06,351.951,442.82,353.192,441.289,353.192z"/>
	</g>
	<g>
		<path fill="#8A8A8C" d="M452.065,340.484h-8.558c-0.889,0-1.608-0.72-1.608-1.609l0,0c0-0.888,0.72-1.607,1.608-1.607h8.558
			c0.889,0,1.609,0.72,1.609,1.607l0,0C453.675,339.765,452.954,340.484,452.065,340.484z"/>
	</g>
	<g>
		<rect x="405.229" y="255.321" fill="#DBEAFF" width="23.75" height="174.651"/>
	</g>
	<g>
		<polygon fill="#A5DBF5" points="405.229,337.268 428.979,346.049 428.979,429.972 405.229,429.972 		"/>
	</g>
	<g>
		<rect x="522.989" y="255.321" fill="#DBEAFF" width="23.75" height="174.651"/>
	</g>
	<g>
		<polygon fill="#A5DBF5" points="522.989,337.268 546.739,346.049 546.739,429.972 522.989,429.972 		"/>
	</g>
	<g>
		<rect x="405.574" y="233.953" fill="#A5DBF5" width="141.206" height="15.107"/>
	</g>
	<g>
		<path fill="#8A8A8C" d="M546.739,255.567v174.386h-23.75V255.567H546.739 M546.739,253.779h-23.75
			c-0.989,0-1.788,0.801-1.788,1.789v174.386c0,0.988,0.8,1.788,1.788,1.788h23.75c0.989,0,1.789-0.801,1.789-1.788V255.567
			C548.528,254.58,547.728,253.779,546.739,253.779L546.739,253.779z"/>
	</g>
	<g>
		<path fill="#8A8A8C" d="M428.979,255.567v174.386h-23.75V255.567H428.979 M428.979,253.779h-23.75
			c-0.988,0-1.789,0.801-1.789,1.789v174.386c0,0.988,0.8,1.788,1.789,1.788h23.75c0.989,0,1.789-0.801,1.789-1.788V255.567
			C430.768,254.58,429.968,253.779,428.979,253.779L428.979,253.779z"/>
	</g>
	<g>
		<polygon fill="#DBEAFF" points="405.229,233.953 546.78,249.06 546.78,233.953 		"/>
	</g>
</g>
<g>
	<g>
		<path fill="#8A8A8C" d="M579.037,436.184c-0.236,0-0.464-0.095-0.633-0.264c-0.167-0.167-0.262-0.393-0.262-0.631l0.021-206.553
			c0-0.493,0.4-0.894,0.895-0.894l152.142-0.061c0.237,0,0.465,0.093,0.633,0.261c0.167,0.168,0.262,0.396,0.262,0.634
			l-0.021,206.551c0,0.494-0.401,0.895-0.895,0.895L579.037,436.184z M579.953,229.63l-0.021,204.764l150.354-0.063l0.021-204.762
			L579.953,229.63z"/>
	</g>
	<g>
		<path fill="#8A8A8C" d="M696.747,436.135c-0.493,0-0.894-0.401-0.894-0.895V254.277c0-0.494,0.4-0.895,0.894-0.895
			c0.494,0,0.894,0.401,0.894,0.895V435.24C697.641,435.734,697.241,436.135,696.747,436.135z"/>
	</g>
	<g>
		<path fill="#8A8A8C" d="M613.271,436.135c-0.493,0-0.894-0.401-0.894-0.895v-70.209c0-0.493,0.4-0.895,0.894-0.895
			c0.494,0,0.894,0.401,0.894,0.895v70.209C614.166,435.734,613.766,436.135,613.271,436.135z"/>
	</g>
	<g>
		<path fill="#8A8A8C" d="M613.271,365.926c-0.493,0-0.894-0.4-0.894-0.894V254.277c0-0.494,0.4-0.895,0.894-0.895
			c0.494,0,0.894,0.401,0.894,0.895v110.754C614.166,365.525,613.766,365.926,613.271,365.926z"/>
	</g>
	<g>
		<path fill="#8A8A8C" d="M696.747,255.171h-83.476c-0.493,0-0.894-0.4-0.894-0.894c0-0.494,0.4-0.895,0.894-0.895h83.476
			c0.494,0,0.894,0.401,0.894,0.895C697.641,254.771,697.241,255.171,696.747,255.171z"/>
	</g>
	<g>
		<path fill="#8A8A8C" d="M620.315,353.192L620.315,353.192c-1.529,0-2.77-1.241-2.77-2.769v-16.858c0-1.53,1.241-2.769,2.77-2.769
			l0,0c1.53,0,2.77,1.239,2.77,2.769v16.858C623.085,351.951,621.845,353.192,620.315,353.192z"/>
	</g>
	<g>
		<path fill="#8A8A8C" d="M631.091,340.484h-8.559c-0.887,0-1.608-0.72-1.608-1.609l0,0c0-0.888,0.721-1.607,1.608-1.607h8.559
			c0.889,0,1.609,0.72,1.609,1.607l0,0C632.7,339.765,631.981,340.484,631.091,340.484z"/>
	</g>
	<g>
		<rect x="584.599" y="233.953" fill="#A5DBF5" width="141.206" height="15.107"/>
	</g>
	<g>
		<rect x="584.254" y="255.567" fill="#DBEAFF" width="23.752" height="84.552"/>
	</g>
	<g>
		<rect x="584.254" y="345.404" fill="#A5DBF5" width="23.752" height="84.55"/>
	</g>
	<g>
		<rect x="702.015" y="255.567" fill="#DBEAFF" width="23.751" height="84.552"/>
	</g>
	<g>
		<rect x="702.015" y="345.404" fill="#A5DBF5" width="23.751" height="84.55"/>
	</g>
	<g>
		<path fill="#8A8A8C" d="M608.006,255.567v174.386h-23.752V255.567H608.006 M608.006,253.779h-23.752
			c-0.988,0-1.789,0.801-1.789,1.789v174.386c0,0.988,0.801,1.788,1.789,1.788h23.752c0.987,0,1.788-0.801,1.788-1.788V255.567
			C609.794,254.58,608.993,253.779,608.006,253.779L608.006,253.779z"/>
	</g>
	<g>
		<path fill="#8A8A8C" d="M725.766,255.567v174.386h-23.751V255.567H725.766 M725.766,253.779h-23.751
			c-0.988,0-1.789,0.801-1.789,1.789v174.386c0,0.988,0.801,1.788,1.789,1.788h23.751c0.988,0,1.789-0.801,1.789-1.788V255.567
			C727.555,254.58,726.753,253.779,725.766,253.779L725.766,253.779z"/>
	</g>
	<g>
		<polygon fill="#DBEAFF" points="584.599,233.953 725.805,249.06 725.805,233.953 		"/>
	</g>
</g>
</svg>
