<?xml version="1.0" encoding="utf-8"?>
<!-- Generator: Adobe Illustrator 17.0.0, SVG Export Plug-In . SVG Version: 6.00 Build 0)  -->
<!DOCTYPE svg PUBLIC "-//W3C//DTD SVG 1.1//EN" "http://www.w3.org/Graphics/SVG/1.1/DTD/svg11.dtd">
<svg version="1.1" id="Слой_1" xmlns="http://www.w3.org/2000/svg" xmlns:xlink="http://www.w3.org/1999/xlink" x="0px" y="0px"
	 width="85px" height="70px" viewBox="0 0 85 70" enable-background="new 0 0 85 70" xml:space="preserve">
<g>
	<rect fill="#ACACAC" width="48.39" height="65.068"/>
	<g>
		<path fill="#FFFFFF" d="M43.674,54.893c-0.003-0.176-0.356-0.421-0.373-0.596c-0.017-0.175,0.284-0.483,0.253-0.656
			c-0.031-0.173-0.42-0.357-0.466-0.527c-0.045-0.17,0.201-0.523,0.142-0.688c-0.06-0.166-0.474-0.283-0.546-0.443
			c-0.073-0.16,0.111-0.549,0.026-0.703c-0.086-0.154-0.514-0.201-0.612-0.347c-0.098-0.146,0.02-0.56-0.09-0.697
			c-0.109-0.137-0.54-0.114-0.66-0.242c-0.121-0.128-0.073-0.555-0.204-0.672c-0.131-0.118-0.551-0.023-0.691-0.129
			c-0.14-0.106-0.163-0.536-0.312-0.63c-0.148-0.095-0.547,0.067-0.703-0.015c-0.156-0.082-0.25-0.502-0.411-0.57
			c-0.162-0.068-0.529,0.157-0.696,0.102c-0.167-0.055-0.328-0.454-0.5-0.495c-0.171-0.041-0.495,0.242-0.669,0.215
			c-0.174-0.027-0.399-0.394-0.574-0.406c-0.175-0.012-0.449,0.32-0.625,0.322c-0.176,0.002-0.458-0.323-0.633-0.306
			c-0.175,0.017-0.39,0.39-0.563,0.421c-0.173,0.031-0.505-0.243-0.674-0.198c-0.17,0.045-0.321,0.448-0.487,0.507
			c-0.165,0.06-0.538-0.157-0.698-0.083c-0.16,0.072-0.243,0.495-0.396,0.581c-0.153,0.085-0.557-0.066-0.702,0.032
			c-0.146,0.098-0.158,0.528-0.295,0.638c-0.138,0.109-0.56,0.026-0.688,0.147c-0.128,0.121-0.069,0.547-0.187,0.678
			c-0.117,0.131-0.548,0.119-0.654,0.258c-0.106,0.141,0.022,0.551-0.072,0.7c-0.094,0.148-0.521,0.206-0.603,0.362
			c-0.082,0.156,0.113,0.54,0.044,0.702c-0.068,0.162-0.479,0.29-0.534,0.457c-0.055,0.167,0.2,0.514,0.159,0.684
			c-0.041,0.171-0.425,0.365-0.452,0.539c-0.027,0.174,0.281,0.474,0.269,0.65c-0.012,0.175-0.359,0.43-0.357,0.605
			c0.002,0.176,0.356,0.421,0.373,0.596c0.017,0.175-0.284,0.483-0.252,0.656c0.031,0.173,0.42,0.357,0.465,0.527
			c0.045,0.17-0.201,0.524-0.142,0.688c0.06,0.166,0.474,0.283,0.546,0.443c0.073,0.161-0.112,0.549-0.026,0.703
			c0.086,0.154,0.514,0.201,0.612,0.347c0.098,0.146-0.02,0.56,0.09,0.697c0.11,0.137,0.54,0.114,0.66,0.242
			c0.121,0.127,0.073,0.555,0.204,0.673c0.131,0.117,0.551,0.023,0.691,0.129c0.14,0.106,0.163,0.536,0.311,0.63
			c0.148,0.094,0.547-0.068,0.703,0.014c0.156,0.082,0.249,0.502,0.411,0.57c0.162,0.068,0.529-0.157,0.695-0.102
			c0.167,0.055,0.329,0.455,0.5,0.495c0.17,0.041,0.496-0.242,0.669-0.215c0.173,0.027,0.398,0.393,0.574,0.406
			c0.175,0.012,0.449-0.32,0.625-0.322c0.176-0.002,0.458,0.323,0.633,0.306c0.175-0.017,0.391-0.389,0.563-0.42
			c0.173-0.032,0.504,0.243,0.675,0.197c0.17-0.045,0.321-0.448,0.486-0.507c0.165-0.059,0.538,0.156,0.698,0.084
			c0.16-0.073,0.243-0.495,0.396-0.581c0.154-0.086,0.557,0.066,0.702-0.032c0.146-0.098,0.158-0.528,0.295-0.638
			c0.137-0.11,0.56-0.027,0.688-0.147c0.128-0.121,0.069-0.547,0.186-0.678c0.118-0.131,0.548-0.119,0.654-0.258
			c0.106-0.14-0.022-0.551,0.072-0.7c0.094-0.148,0.521-0.206,0.603-0.362c0.082-0.156-0.113-0.54-0.044-0.702
			c0.068-0.162,0.479-0.29,0.534-0.457s-0.2-0.514-0.159-0.685c0.041-0.171,0.425-0.364,0.452-0.538
			c0.027-0.174-0.281-0.474-0.269-0.649C43.329,55.323,43.676,55.068,43.674,54.893z"/>
		<circle fill="none" stroke="#ACACAC" stroke-width="0.5" stroke-miterlimit="10" cx="36.058" cy="54.99" r="5.952"/>
		<circle fill="none" stroke="#ACACAC" stroke-width="0.5" stroke-miterlimit="10" cx="36.058" cy="54.99" r="3.448"/>
		<circle fill="#ACACAC" cx="36.058" cy="54.99" r="1.905"/>
		<g>
			<circle fill="#ACACAC" cx="36.058" cy="50.134" r="0.384"/>
			<circle fill="#ACACAC" cx="33.63" cy="50.784" r="0.384"/>
			<circle fill="#ACACAC" cx="31.852" cy="52.562" r="0.384"/>
			<circle fill="#ACACAC" cx="31.202" cy="54.99" r="0.384"/>
			<circle fill="#ACACAC" cx="31.852" cy="57.418" r="0.384"/>
			<circle fill="#ACACAC" cx="33.63" cy="59.196" r="0.384"/>
			<circle fill="#ACACAC" cx="36.058" cy="59.847" r="0.384"/>
			<circle fill="#ACACAC" cx="38.486" cy="59.196" r="0.384"/>
			<circle fill="#ACACAC" cx="40.264" cy="57.418" r="0.384"/>
			<circle fill="#ACACAC" cx="40.915" cy="54.99" r="0.384"/>
			<circle fill="#ACACAC" cx="40.264" cy="52.562" r="0.384"/>
			<circle fill="#ACACAC" cx="38.486" cy="50.784" r="0.384"/>
		</g>
	</g>
	<g>
		<rect x="5.018" y="11.989" fill="#FFFFFF" width="18.261" height="34.243"/>
		<g>
			<rect x="11.875" y="17.963" fill="none" stroke="#898989" stroke-miterlimit="10" width="4.547" height="22.295"/>
			<line fill="none" stroke="#898989" stroke-miterlimit="10" x1="11.875" y1="23.537" x2="16.422" y2="23.537"/>
			<line fill="none" stroke="#898989" stroke-miterlimit="10" x1="11.875" y1="29.11" x2="16.422" y2="29.11"/>
			<line fill="none" stroke="#898989" stroke-miterlimit="10" x1="11.875" y1="34.684" x2="16.422" y2="34.684"/>
		</g>
		
			<line fill="none" stroke="#898989" stroke-linecap="round" stroke-linejoin="round" stroke-miterlimit="10" x1="18.699" y1="30.63" x2="21.092" y2="30.63"/>
		<circle fill="#898989" cx="20.858" cy="32.679" r="0.715"/>
	</g>
	<rect x="3.827" y="3.934" fill="#FFFFFF" width="40.125" height="3.017"/>
	<line fill="none" stroke="#FFFFFF" stroke-miterlimit="10" x1="23.279" y1="17.716" x2="30.419" y2="17.716"/>
	<circle fill="#FFFFFF" cx="30.419" cy="17.716" r="1.13"/>
	<line fill="none" stroke="#FFFFFF" stroke-miterlimit="10" x1="20.858" y1="27.171" x2="30.419" y2="27.171"/>
	<circle fill="#FFFFFF" cx="30.419" cy="27.171" r="1.13"/>
	<line fill="none" stroke="#FFFFFF" stroke-miterlimit="10" x1="5.018" y1="59.752" x2="19.896" y2="59.752"/>
	<path fill="none" stroke="#FFFFFF" stroke-miterlimit="10" d="M7.758,61.797c0.181-0.181,7.179-5.852,6.391-8.506
		c-0.788-2.655-3.39-2.677-3.454-0.102c-0.063,2.576-0.316,7.297,2.305,5.31c2.621-1.988,3.095-4.712,3.422-2.786
		c0.328,1.927,1.729,1.188,1.864,0.36c0.136-0.828,1.22-1.393,1.609-0.624"/>
	<text transform="matrix(1 0 0 1 36.0581 19.7549)" fill="#FFFFFF" font-family="'MyriadPro-Bold'" font-size="9.5818">1</text>
	<text transform="matrix(1 0 0 1 36.0581 30.6304)" fill="#FFFFFF" font-family="'MyriadPro-Bold'" font-size="9.5818">2</text>
	<rect fill="#ACACAC" width="48.39" height="65.068"/>
	<g>
		<path fill="#FFFFFF" d="M43.674,54.893c-0.003-0.176-0.356-0.421-0.373-0.596c-0.017-0.175,0.284-0.483,0.253-0.656
			c-0.031-0.173-0.42-0.357-0.466-0.527c-0.045-0.17,0.201-0.523,0.142-0.688c-0.06-0.166-0.474-0.283-0.546-0.443
			c-0.073-0.16,0.111-0.549,0.026-0.703c-0.086-0.154-0.514-0.201-0.612-0.347c-0.098-0.146,0.02-0.56-0.09-0.697
			c-0.109-0.137-0.54-0.114-0.66-0.242c-0.121-0.128-0.073-0.555-0.204-0.672c-0.131-0.118-0.551-0.023-0.691-0.129
			c-0.14-0.106-0.163-0.536-0.312-0.63c-0.148-0.095-0.547,0.067-0.703-0.015c-0.156-0.082-0.25-0.502-0.411-0.57
			c-0.162-0.068-0.529,0.157-0.696,0.102c-0.167-0.055-0.328-0.454-0.5-0.495c-0.171-0.041-0.495,0.242-0.669,0.215
			c-0.174-0.027-0.399-0.394-0.574-0.406c-0.175-0.012-0.449,0.32-0.625,0.322c-0.176,0.002-0.458-0.323-0.633-0.306
			c-0.175,0.017-0.39,0.39-0.563,0.421c-0.173,0.031-0.505-0.243-0.674-0.198c-0.17,0.045-0.321,0.448-0.487,0.507
			c-0.165,0.06-0.538-0.157-0.698-0.083c-0.16,0.072-0.243,0.495-0.396,0.581c-0.153,0.085-0.557-0.066-0.702,0.032
			c-0.146,0.098-0.158,0.528-0.295,0.638c-0.138,0.109-0.56,0.026-0.688,0.147c-0.128,0.121-0.069,0.547-0.187,0.678
			c-0.117,0.131-0.548,0.119-0.654,0.258c-0.106,0.141,0.022,0.551-0.072,0.7c-0.094,0.148-0.521,0.206-0.603,0.362
			c-0.082,0.156,0.113,0.54,0.044,0.702c-0.068,0.162-0.479,0.29-0.534,0.457c-0.055,0.167,0.2,0.514,0.159,0.684
			c-0.041,0.171-0.425,0.365-0.452,0.539c-0.027,0.174,0.281,0.474,0.269,0.65c-0.012,0.175-0.359,0.43-0.357,0.605
			c0.002,0.176,0.356,0.421,0.373,0.596c0.017,0.175-0.284,0.483-0.252,0.656c0.031,0.173,0.42,0.357,0.465,0.527
			c0.045,0.17-0.201,0.524-0.142,0.688c0.06,0.166,0.474,0.283,0.546,0.443c0.073,0.161-0.112,0.549-0.026,0.703
			c0.086,0.154,0.514,0.201,0.612,0.347c0.098,0.146-0.02,0.56,0.09,0.697c0.11,0.137,0.54,0.114,0.66,0.242
			c0.121,0.127,0.073,0.555,0.204,0.673c0.131,0.117,0.551,0.023,0.691,0.129c0.14,0.106,0.163,0.536,0.311,0.63
			c0.148,0.094,0.547-0.068,0.703,0.014c0.156,0.082,0.249,0.502,0.411,0.57c0.162,0.068,0.529-0.157,0.695-0.102
			c0.167,0.055,0.329,0.455,0.5,0.495c0.17,0.041,0.496-0.242,0.669-0.215c0.173,0.027,0.398,0.393,0.574,0.406
			c0.175,0.012,0.449-0.32,0.625-0.322c0.176-0.002,0.458,0.323,0.633,0.306c0.175-0.017,0.391-0.389,0.563-0.42
			c0.173-0.032,0.504,0.243,0.675,0.197c0.17-0.045,0.321-0.448,0.486-0.507c0.165-0.059,0.538,0.156,0.698,0.084
			c0.16-0.073,0.243-0.495,0.396-0.581c0.154-0.086,0.557,0.066,0.702-0.032c0.146-0.098,0.158-0.528,0.295-0.638
			c0.137-0.11,0.56-0.027,0.688-0.147c0.128-0.121,0.069-0.547,0.186-0.678c0.118-0.131,0.548-0.119,0.654-0.258
			c0.106-0.14-0.022-0.551,0.072-0.7c0.094-0.148,0.521-0.206,0.603-0.362c0.082-0.156-0.113-0.54-0.044-0.702
			c0.068-0.162,0.479-0.29,0.534-0.457s-0.2-0.514-0.159-0.685c0.041-0.171,0.425-0.364,0.452-0.538
			c0.027-0.174-0.281-0.474-0.269-0.649C43.329,55.323,43.676,55.068,43.674,54.893z"/>
		<circle fill="none" stroke="#ACACAC" stroke-width="0.5" stroke-miterlimit="10" cx="36.058" cy="54.99" r="5.952"/>
		<circle fill="none" stroke="#ACACAC" stroke-width="0.5" stroke-miterlimit="10" cx="36.058" cy="54.99" r="3.448"/>
		<circle fill="#ACACAC" cx="36.058" cy="54.99" r="1.905"/>
		<g>
			<circle fill="#ACACAC" cx="36.058" cy="50.134" r="0.384"/>
			<circle fill="#ACACAC" cx="33.63" cy="50.784" r="0.384"/>
			<circle fill="#ACACAC" cx="31.852" cy="52.562" r="0.384"/>
			<circle fill="#ACACAC" cx="31.202" cy="54.99" r="0.384"/>
			<circle fill="#ACACAC" cx="31.852" cy="57.418" r="0.384"/>
			<circle fill="#ACACAC" cx="33.63" cy="59.196" r="0.384"/>
			<circle fill="#ACACAC" cx="36.058" cy="59.847" r="0.384"/>
			<circle fill="#ACACAC" cx="38.486" cy="59.196" r="0.384"/>
			<circle fill="#ACACAC" cx="40.264" cy="57.418" r="0.384"/>
			<circle fill="#ACACAC" cx="40.915" cy="54.99" r="0.384"/>
			<circle fill="#ACACAC" cx="40.264" cy="52.562" r="0.384"/>
			<circle fill="#ACACAC" cx="38.486" cy="50.784" r="0.384"/>
		</g>
	</g>
	<g>
		<rect x="5.018" y="11.989" fill="#2975D5" width="18.261" height="34.243"/>
		<g>
			<rect x="11.875" y="17.963" fill="none" stroke="#FFFFFF" stroke-miterlimit="10" width="4.547" height="22.295"/>
			<line fill="none" stroke="#FFFFFF" stroke-miterlimit="10" x1="11.875" y1="23.537" x2="16.422" y2="23.537"/>
			<line fill="none" stroke="#FFFFFF" stroke-miterlimit="10" x1="11.875" y1="29.11" x2="16.422" y2="29.11"/>
			<line fill="none" stroke="#FFFFFF" stroke-miterlimit="10" x1="11.875" y1="34.684" x2="16.422" y2="34.684"/>
		</g>
		
			<line fill="none" stroke="#FFFFFF" stroke-linecap="round" stroke-linejoin="round" stroke-miterlimit="10" x1="18.699" y1="30.63" x2="21.092" y2="30.63"/>
		<circle fill="#FFFFFF" cx="20.858" cy="32.679" r="0.715"/>
	</g>
	<rect x="3.827" y="3.934" fill="#FFFFFF" width="40.125" height="3.017"/>
	<line fill="none" stroke="#FFFFFF" stroke-miterlimit="10" x1="23.279" y1="17.716" x2="30.419" y2="17.716"/>
	<circle fill="#FFFFFF" cx="30.419" cy="17.716" r="1.13"/>
	<line fill="none" stroke="#FFFFFF" stroke-miterlimit="10" x1="20.858" y1="27.171" x2="30.419" y2="27.171"/>
	<circle fill="#FFFFFF" cx="30.419" cy="27.171" r="1.13"/>
	<line fill="none" stroke="#FFFFFF" stroke-miterlimit="10" x1="5.018" y1="59.752" x2="19.896" y2="59.752"/>
	<path fill="none" stroke="#FFFFFF" stroke-miterlimit="10" d="M7.758,61.797c0.181-0.181,7.179-5.852,6.391-8.506
		c-0.788-2.655-3.39-2.677-3.454-0.102c-0.063,2.576-0.316,7.297,2.305,5.31c2.621-1.988,3.095-4.712,3.422-2.786
		c0.328,1.927,1.729,1.188,1.864,0.36c0.136-0.828,1.22-1.393,1.609-0.624"/>
	<text transform="matrix(1 0 0 1 36.0581 19.7549)" fill="#FFFFFF" font-family="'MyriadPro-Bold'" font-size="9.5818">1</text>
	<text transform="matrix(1 0 0 1 36.0581 30.6304)" fill="#FFFFFF" font-family="'MyriadPro-Bold'" font-size="9.5818">2</text>
</g>
</svg>
