<?xml version="1.0" encoding="utf-8"?>
<!-- Generator: Adobe Illustrator 17.0.0, SVG Export Plug-In . SVG Version: 6.00 Build 0)  -->
<!DOCTYPE svg PUBLIC "-//W3C//DTD SVG 1.1//EN" "http://www.w3.org/Graphics/SVG/1.1/DTD/svg11.dtd">
<svg version="1.1" id="Слой_1" xmlns="http://www.w3.org/2000/svg" xmlns:xlink="http://www.w3.org/1999/xlink" x="0px" y="0px"
	 width="85px" height="70px" viewBox="0 0 85 70" enable-background="new 0 0 85 70" xml:space="preserve">
<g>
	<rect x="0" fill="#6B6B6B" width="45.802" height="57.521"/>
	<g>
		<polygon fill="#ACACAC" points="20.658,70.282 0,57.408 0,0 20.684,5.602 		"/>
		<g>
			<polygon fill="none" stroke="#FFFFFF" stroke-width="2" stroke-miterlimit="10" points="12.317,54.321 7.189,51.441 
				7.194,12.416 12.327,14.121 			"/>
			<line fill="none" stroke="#FFFFFF" stroke-width="2" stroke-miterlimit="10" x1="7.193" y1="22.178" x2="12.324" y2="24.177"/>
			<line fill="none" stroke="#FFFFFF" stroke-width="2" stroke-miterlimit="10" x1="7.192" y1="31.936" x2="12.322" y2="34.229"/>
			<line fill="none" stroke="#FFFFFF" stroke-width="2" stroke-miterlimit="10" x1="7.19" y1="41.69" x2="12.319" y2="44.277"/>
		</g>
		
			<line fill="none" stroke="#FFFFFF" stroke-width="1.5" stroke-linecap="round" stroke-linejoin="round" stroke-miterlimit="10" x1="15.009" y1="38.213" x2="17.922" y2="39.562"/>
		<path fill="#FFFFFF" d="M18.517,43.662c0,0.737-0.397,1.139-0.887,0.899c-0.485-0.239-0.877-1.023-0.877-1.753
			s0.393-1.135,0.878-0.903C18.12,42.138,18.518,42.925,18.517,43.662z"/>
	</g>
	<polygon fill="#C6C6C6" points="2.725,0 0,0 20.684,5.602 23.408,5.602 	"/>
	<polygon fill="#9E9E9E" points="22.488,5.602 21.578,5.602 20.658,5.602 20.658,70.282 21.578,70.282 22.488,70.282 23.408,70.282 
		23.408,5.602 	"/>
	<rect x="23.449" y="53.462" fill="#ED1C24" width="22.352" height="4.06"/>
	<rect x="0" fill="#6B6B6B" width="45.802" height="57.521"/>
	<g>
		<polygon fill="#ACACAC" points="20.658,70.282 0,57.408 0,0 20.684,5.602 		"/>
		<g>
			<polygon fill="none" stroke="#FFFFFF" stroke-width="2" stroke-miterlimit="10" points="12.317,54.321 7.189,51.441 
				7.194,12.416 12.327,14.121 			"/>
			<line fill="none" stroke="#FFFFFF" stroke-width="2" stroke-miterlimit="10" x1="7.193" y1="22.178" x2="12.324" y2="24.177"/>
			<line fill="none" stroke="#FFFFFF" stroke-width="2" stroke-miterlimit="10" x1="7.192" y1="31.936" x2="12.322" y2="34.229"/>
			<line fill="none" stroke="#FFFFFF" stroke-width="2" stroke-miterlimit="10" x1="7.19" y1="41.69" x2="12.319" y2="44.277"/>
		</g>
		
			<line fill="none" stroke="#FFFFFF" stroke-width="1.5" stroke-linecap="round" stroke-linejoin="round" stroke-miterlimit="10" x1="15.009" y1="38.213" x2="17.922" y2="39.562"/>
		<path fill="#FFFFFF" d="M18.517,43.662c0,0.737-0.397,1.139-0.887,0.899c-0.485-0.239-0.877-1.023-0.877-1.753
			s0.393-1.135,0.878-0.903C18.12,42.138,18.518,42.925,18.517,43.662z"/>
	</g>
	<polygon fill="#C6C6C6" points="2.725,0 0,0 20.684,5.602 23.408,5.602 	"/>
	<polygon fill="#9E9E9E" points="22.488,5.602 21.578,5.602 20.658,5.602 20.658,70.282 21.578,70.282 22.488,70.282 23.408,70.282 
		23.408,5.602 	"/>
	<rect x="23.449" y="53.462" fill="#2975D5" width="22.352" height="4.06"/>
</g>
</svg>
