<?xml version="1.0" encoding="utf-8"?>
<!-- Generator: Adobe Illustrator 17.0.0, SVG Export Plug-In . SVG Version: 6.00 Build 0)  -->
<!DOCTYPE svg PUBLIC "-//W3C//DTD SVG 1.1//EN" "http://www.w3.org/Graphics/SVG/1.1/DTD/svg11.dtd">
<svg version="1.1" id="Слой_1" xmlns="http://www.w3.org/2000/svg" xmlns:xlink="http://www.w3.org/1999/xlink" x="0px" y="0px"
	 width="85px" height="70px" viewBox="0 0 85 70" enable-background="new 0 0 85 70" xml:space="preserve">
<g>
	<g>
		<rect y="0" fill="#ACACAC" width="34.865" height="65.377"/>
		<g>
			
				<rect x="13.092" y="11.405" fill="none" stroke="#FFFFFF" stroke-width="2" stroke-miterlimit="10" width="8.681" height="42.566"/>
			<line fill="none" stroke="#FFFFFF" stroke-width="2" stroke-miterlimit="10" x1="13.092" y1="22.047" x2="21.773" y2="22.047"/>
			<line fill="none" stroke="#FFFFFF" stroke-width="2" stroke-miterlimit="10" x1="13.092" y1="32.689" x2="21.773" y2="32.689"/>
			<line fill="none" stroke="#FFFFFF" stroke-width="2" stroke-miterlimit="10" x1="13.092" y1="43.33" x2="21.773" y2="43.33"/>
		</g>
		
			<line fill="none" stroke="#FFFFFF" stroke-width="1.5" stroke-linecap="round" stroke-linejoin="round" stroke-miterlimit="10" x1="26.121" y1="35.591" x2="30.689" y2="35.591"/>
		<circle fill="#FFFFFF" cx="30.243" cy="39.503" r="1.365"/>
	</g>
	<path fill="none" stroke="#2975D5" stroke-width="1.5" stroke-miterlimit="10" d="M64.334,10.441H53.048c0,0-3.16,0.034-3.16-3.681
		c0-1.806,1.875-2.119,2.743-2.119c0.868,0,1.945,1.008,1.945,2.327c0,1.319-0.764,1.493-1.563,1.493"/>
	<path fill="none" stroke="#2975D5" stroke-width="1.5" stroke-miterlimit="10" d="M61.422,17.941H49.904
		c0,0-3.225-0.035-3.225,3.757c0,1.843,1.914,2.162,2.8,2.162c0.886,0,1.985-1.028,1.985-2.375c0-1.347-0.78-1.524-1.595-1.524"/>
	<line fill="none" stroke="#2975D5" stroke-width="1.5" stroke-miterlimit="10" x1="45.92" y1="14.287" x2="67.914" y2="14.287"/>
	<path fill="none" stroke="#2975D5" stroke-width="1.5" stroke-miterlimit="10" d="M62.38,58.135"/>
	<path fill="none" stroke="#2975D5" stroke-width="1.5" stroke-miterlimit="10" d="M48.848,54.022h12.099
		c0,0,3.388-0.037,3.388,3.946c0,1.936-2.01,2.271-2.941,2.271s-2.085-1.079-2.085-2.494c0-1.415,0.819-1.601,1.675-1.601"/>
	<path fill="none" stroke="#2975D5" stroke-width="1.5" stroke-miterlimit="10" d="M47.126,46.273h12.991
		c0,0,3.638,0.04,3.638-4.237c0-2.078-2.159-2.438-3.158-2.438c-0.999,0-2.238,1.159-2.238,2.679c0,1.519,0.879,1.719,1.799,1.719"
		/>
	<line fill="none" stroke="#2975D5" stroke-width="1.5" stroke-miterlimit="10" x1="77.351" y1="50.061" x2="50.753" y2="50.061"/>
	<polyline fill="none" stroke="#2975D5" stroke-width="1.5" stroke-miterlimit="10" points="74.518,47.228 77.351,50.061 
		74.518,52.893 	"/>
	<polyline fill="none" stroke="#2975D5" stroke-width="1.5" stroke-miterlimit="10" points="74.518,17.12 71.686,14.287 
		74.518,11.455 	"/>
	<path fill="none" stroke="#2975D5" stroke-width="1.5" stroke-miterlimit="10" d="M51.664,50.061h-6.986
		c-2.476,0-4.501-2.025-4.501-4.501V18.789c0-2.476,2.026-4.502,4.501-4.502h4.146"/>
	<line fill="none" stroke="#2975D5" stroke-width="1.5" stroke-miterlimit="10" x1="71.686" y1="14.287" x2="84.044" y2="14.287"/>
	<g>
		<rect y="0" fill="#ACACAC" width="34.865" height="65.377"/>
		<g>
			
				<rect x="13.092" y="11.405" fill="none" stroke="#FFFFFF" stroke-width="2" stroke-miterlimit="10" width="8.681" height="42.566"/>
			<line fill="none" stroke="#FFFFFF" stroke-width="2" stroke-miterlimit="10" x1="13.092" y1="22.047" x2="21.773" y2="22.047"/>
			<line fill="none" stroke="#FFFFFF" stroke-width="2" stroke-miterlimit="10" x1="13.092" y1="32.689" x2="21.773" y2="32.689"/>
			<line fill="none" stroke="#FFFFFF" stroke-width="2" stroke-miterlimit="10" x1="13.092" y1="43.33" x2="21.773" y2="43.33"/>
		</g>
		
			<line fill="none" stroke="#FFFFFF" stroke-width="1.5" stroke-linecap="round" stroke-linejoin="round" stroke-miterlimit="10" x1="26.121" y1="35.591" x2="30.689" y2="35.591"/>
		<circle fill="#FFFFFF" cx="30.243" cy="39.503" r="1.365"/>
	</g>
	<path fill="none" stroke="#2975D5" stroke-width="1.5" stroke-miterlimit="10" d="M64.334,10.441H53.048c0,0-3.16,0.034-3.16-3.681
		c0-1.806,1.875-2.119,2.743-2.119c0.868,0,1.945,1.008,1.945,2.327c0,1.319-0.764,1.493-1.563,1.493"/>
	<path fill="none" stroke="#2975D5" stroke-width="1.5" stroke-miterlimit="10" d="M61.422,17.941H49.904
		c0,0-3.225-0.035-3.225,3.757c0,1.843,1.914,2.162,2.8,2.162c0.886,0,1.985-1.028,1.985-2.375c0-1.347-0.78-1.524-1.595-1.524"/>
	<line fill="none" stroke="#2975D5" stroke-width="1.5" stroke-miterlimit="10" x1="45.92" y1="14.287" x2="67.914" y2="14.287"/>
	<path fill="none" stroke="#2975D5" stroke-width="1.5" stroke-miterlimit="10" d="M62.38,58.135"/>
	<path fill="none" stroke="#2975D5" stroke-width="1.5" stroke-miterlimit="10" d="M48.848,54.022h12.099
		c0,0,3.388-0.037,3.388,3.946c0,1.936-2.01,2.271-2.941,2.271s-2.085-1.079-2.085-2.494c0-1.415,0.819-1.601,1.675-1.601"/>
	<path fill="none" stroke="#2975D5" stroke-width="1.5" stroke-miterlimit="10" d="M47.126,46.273h12.991
		c0,0,3.638,0.04,3.638-4.237c0-2.078-2.159-2.438-3.158-2.438c-0.999,0-2.238,1.159-2.238,2.679c0,1.519,0.879,1.719,1.799,1.719"
		/>
	<line fill="none" stroke="#2975D5" stroke-width="1.5" stroke-miterlimit="10" x1="77.351" y1="50.061" x2="50.753" y2="50.061"/>
	<polyline fill="none" stroke="#2975D5" stroke-width="1.5" stroke-miterlimit="10" points="74.518,47.228 77.351,50.061 
		74.518,52.893 	"/>
	<polyline fill="none" stroke="#2975D5" stroke-width="1.5" stroke-miterlimit="10" points="74.518,17.12 71.686,14.287 
		74.518,11.455 	"/>
	<path fill="none" stroke="#2975D5" stroke-width="1.5" stroke-miterlimit="10" d="M51.664,50.061h-6.986
		c-2.476,0-4.501-2.025-4.501-4.501V18.789c0-2.476,2.026-4.502,4.501-4.502h4.146"/>
	<line fill="none" stroke="#2975D5" stroke-width="1.5" stroke-miterlimit="10" x1="71.686" y1="14.287" x2="84.044" y2="14.287"/>
</g>
</svg>
