<?xml version="1.0" encoding="utf-8"?>
<!-- Generator: Adobe Illustrator 17.0.0, SVG Export Plug-In . SVG Version: 6.00 Build 0)  -->
<!DOCTYPE svg PUBLIC "-//W3C//DTD SVG 1.1//EN" "http://www.w3.org/Graphics/SVG/1.1/DTD/svg11.dtd">
<svg version="1.1" id="Слой_1" xmlns="http://www.w3.org/2000/svg" xmlns:xlink="http://www.w3.org/1999/xlink" x="0px" y="0px"
	 width="85px" height="70px" viewBox="0 0 85 70" enable-background="new 0 0 85 70" xml:space="preserve">
<g>
	<g>
		<polygon fill="#ACACAC" points="65.068,65.068 33.13,59.718 33.13,0 65.068,5.18 		"/>
		<g>
			<polygon fill="none" stroke="#898989" stroke-width="2" stroke-miterlimit="10" points="53.054,52.619 45.101,51.294 
				45.101,12.371 53.054,13.668 			"/>
			<line fill="none" stroke="#898989" stroke-width="2" stroke-miterlimit="10" x1="45.101" y1="22.102" x2="53.054" y2="23.406"/>
			<line fill="none" stroke="#898989" stroke-width="2" stroke-miterlimit="10" x1="45.101" y1="31.833" x2="53.054" y2="33.144"/>
			<line fill="none" stroke="#898989" stroke-width="2" stroke-miterlimit="10" x1="45.101" y1="41.564" x2="53.054" y2="42.881"/>
		</g>
	</g>
	<g>
		<polygon fill="#ED1C24" points="11.972,0 11.972,59.718 43.91,65.068 43.91,5.18 		"/>
		<polygon fill="#C61A27" points="46.351,5.18 45.137,5.18 43.91,5.18 43.91,65.068 45.137,65.068 46.351,65.068 47.577,65.068 
			47.577,5.18 		"/>
		<polygon fill="#FF4057" points="15.639,0 11.972,0 43.91,5.18 47.577,5.18 		"/>
	</g>
	<g>
		<polygon fill="#ACACAC" points="31.938,65.068 0,59.718 0,0 31.938,5.18 		"/>
		<g>
			<polygon fill="none" stroke="#FFFFFF" stroke-width="2" stroke-miterlimit="10" points="19.924,52.619 11.972,51.294 
				11.972,12.371 19.924,13.668 			"/>
			<line fill="none" stroke="#FFFFFF" stroke-width="2" stroke-miterlimit="10" x1="11.972" y1="22.102" x2="19.924" y2="23.406"/>
			<line fill="none" stroke="#FFFFFF" stroke-width="2" stroke-miterlimit="10" x1="11.972" y1="31.833" x2="19.924" y2="33.144"/>
			<line fill="none" stroke="#FFFFFF" stroke-width="2" stroke-miterlimit="10" x1="11.972" y1="41.564" x2="19.924" y2="42.881"/>
		</g>
		
			<line fill="none" stroke="#FFFFFF" stroke-width="1.5" stroke-linecap="round" stroke-linejoin="round" stroke-miterlimit="10" x1="23.911" y1="36.458" x2="28.103" y2="37.149"/>
		<path fill="#FFFFFF" d="M28.947,40.871c0,0.69-0.561,1.157-1.254,1.043c-0.691-0.115-1.253-0.767-1.253-1.458
			s0.562-1.157,1.253-1.043C28.386,39.528,28.947,40.181,28.947,40.871z"/>
	</g>
	<g>
		<polygon fill="#ACACAC" points="65.068,65.068 33.13,59.718 33.13,0 65.068,5.18 		"/>
		<g>
			<polygon fill="none" stroke="#898989" stroke-width="2" stroke-miterlimit="10" points="53.054,52.619 45.101,51.294 
				45.101,12.371 53.054,13.668 			"/>
			<line fill="none" stroke="#898989" stroke-width="2" stroke-miterlimit="10" x1="45.101" y1="22.102" x2="53.054" y2="23.406"/>
			<line fill="none" stroke="#898989" stroke-width="2" stroke-miterlimit="10" x1="45.101" y1="31.833" x2="53.054" y2="33.144"/>
			<line fill="none" stroke="#898989" stroke-width="2" stroke-miterlimit="10" x1="45.101" y1="41.564" x2="53.054" y2="42.881"/>
		</g>
	</g>
	<g>
		<polygon fill="#2975D5" points="11.972,0 11.972,59.718 43.91,65.068 43.91,5.18 		"/>
		<polygon fill="#174C8E" points="46.351,5.18 45.137,5.18 43.91,5.18 43.91,65.068 45.137,65.068 46.351,65.068 47.577,65.068 
			47.577,5.18 		"/>
		<polygon fill="#629DD1" points="15.639,0 11.972,0 43.91,5.18 47.577,5.18 		"/>
	</g>
	<g>
		<polygon fill="#ACACAC" points="31.938,65.068 0,59.718 0,0 31.938,5.18 		"/>
		<g>
			<polygon fill="none" stroke="#FFFFFF" stroke-width="2" stroke-miterlimit="10" points="19.924,52.619 11.972,51.294 
				11.972,12.371 19.924,13.668 			"/>
			<line fill="none" stroke="#FFFFFF" stroke-width="2" stroke-miterlimit="10" x1="11.972" y1="22.102" x2="19.924" y2="23.406"/>
			<line fill="none" stroke="#FFFFFF" stroke-width="2" stroke-miterlimit="10" x1="11.972" y1="31.833" x2="19.924" y2="33.144"/>
			<line fill="none" stroke="#FFFFFF" stroke-width="2" stroke-miterlimit="10" x1="11.972" y1="41.564" x2="19.924" y2="42.881"/>
		</g>
		
			<line fill="none" stroke="#FFFFFF" stroke-width="1.5" stroke-linecap="round" stroke-linejoin="round" stroke-miterlimit="10" x1="23.911" y1="36.458" x2="28.103" y2="37.149"/>
		<path fill="#FFFFFF" d="M28.947,40.871c0,0.69-0.561,1.157-1.254,1.043c-0.691-0.115-1.253-0.767-1.253-1.458
			s0.562-1.157,1.253-1.043C28.386,39.528,28.947,40.181,28.947,40.871z"/>
	</g>
</g>
</svg>
