<?xml version="1.0" encoding="utf-8"?>
<!-- Generator: Adobe Illustrator 17.0.0, SVG Export Plug-In . SVG Version: 6.00 Build 0)  -->
<!DOCTYPE svg PUBLIC "-//W3C//DTD SVG 1.1//EN" "http://www.w3.org/Graphics/SVG/1.1/DTD/svg11.dtd">
<svg version="1.1" id="Слой_1" xmlns="http://www.w3.org/2000/svg" xmlns:xlink="http://www.w3.org/1999/xlink" x="0px" y="0px"
	 width="85px" height="70px" viewBox="0 0 85 70" enable-background="new 0 0 85 70" xml:space="preserve">
<g>
	<rect x="0" fill="#6B6B6B" width="45.802" height="59.719"/>
	<g>
		<polygon fill="#ACACAC" points="31.938,65.068 0,59.719 0,0 31.938,5.18 		"/>
		<g>
			<polygon fill="none" stroke="#FFFFFF" stroke-width="2" stroke-miterlimit="10" points="19.924,52.619 11.972,51.295 
				11.972,12.371 19.924,13.668 			"/>
			<line fill="none" stroke="#FFFFFF" stroke-width="2" stroke-miterlimit="10" x1="11.972" y1="22.101" x2="19.924" y2="23.406"/>
			<line fill="none" stroke="#FFFFFF" stroke-width="2" stroke-miterlimit="10" x1="11.972" y1="31.833" x2="19.924" y2="33.144"/>
			<line fill="none" stroke="#FFFFFF" stroke-width="2" stroke-miterlimit="10" x1="11.972" y1="41.563" x2="19.924" y2="42.882"/>
		</g>
		
			<line fill="none" stroke="#FFFFFF" stroke-width="1.5" stroke-linecap="round" stroke-linejoin="round" stroke-miterlimit="10" x1="23.911" y1="36.457" x2="28.103" y2="37.149"/>
		<path fill="#FFFFFF" d="M28.947,40.871c0,0.691-0.562,1.157-1.254,1.043c-0.691-0.114-1.253-0.768-1.253-1.457
			c0-0.69,0.561-1.157,1.253-1.043C28.386,39.528,28.947,40.181,28.947,40.871z"/>
	</g>
	<rect x="34.962" y="5.18" fill="#ED1C24" width="1.81" height="59.889"/>
	<rect x="31.938" y="5.18" fill="#ED1C24" width="1.81" height="59.889"/>
	<rect x="33.748" y="5.18" fill="#898989" width="1.214" height="59.889"/>
	<polygon fill="#C6C6C6" points="4.833,0 0,0 31.938,5.18 36.771,5.18 	"/>
	<rect x="0" fill="#6B6B6B" width="45.802" height="59.719"/>
	<g>
		<polygon fill="#ACACAC" points="31.938,65.068 0,59.719 0,0 31.938,5.18 		"/>
		<g>
			<polygon fill="none" stroke="#FFFFFF" stroke-width="2" stroke-miterlimit="10" points="19.924,52.619 11.972,51.295 
				11.972,12.371 19.924,13.668 			"/>
			<line fill="none" stroke="#FFFFFF" stroke-width="2" stroke-miterlimit="10" x1="11.972" y1="22.101" x2="19.924" y2="23.406"/>
			<line fill="none" stroke="#FFFFFF" stroke-width="2" stroke-miterlimit="10" x1="11.972" y1="31.833" x2="19.924" y2="33.144"/>
			<line fill="none" stroke="#FFFFFF" stroke-width="2" stroke-miterlimit="10" x1="11.972" y1="41.563" x2="19.924" y2="42.882"/>
		</g>
		
			<line fill="none" stroke="#FFFFFF" stroke-width="1.5" stroke-linecap="round" stroke-linejoin="round" stroke-miterlimit="10" x1="23.911" y1="36.457" x2="28.103" y2="37.149"/>
		<path fill="#FFFFFF" d="M28.947,40.871c0,0.691-0.562,1.157-1.254,1.043c-0.691-0.114-1.253-0.768-1.253-1.457
			c0-0.69,0.561-1.157,1.253-1.043C28.386,39.528,28.947,40.181,28.947,40.871z"/>
	</g>
	<rect x="34.962" y="5.18" fill="#2975D5" width="1.81" height="59.889"/>
	<rect x="31.938" y="5.18" fill="#2975D5" width="1.81" height="59.889"/>
	<rect x="33.748" y="5.18" fill="#C6C6C6" width="1.214" height="59.889"/>
	<polygon fill="#C6C6C6" points="4.833,0 0,0 31.938,5.18 36.771,5.18 	"/>
</g>
</svg>
