<?xml version="1.0" encoding="utf-8"?>
<!-- Generator: Adobe Illustrator 17.0.0, SVG Export Plug-In . SVG Version: 6.00 Build 0)  -->
<!DOCTYPE svg PUBLIC "-//W3C//DTD SVG 1.1//EN" "http://www.w3.org/Graphics/SVG/1.1/DTD/svg11.dtd">
<svg version="1.1" id="Слой_1" xmlns="http://www.w3.org/2000/svg" xmlns:xlink="http://www.w3.org/1999/xlink" x="0px" y="0px"
	 width="85px" height="70px" viewBox="0 0 85 70" enable-background="new 0 0 85 70" xml:space="preserve">
<g>
	<g>
		<path fill="#ACACAC" d="M50.778,31.708c0-0.2-0.162-0.362-0.363-0.362H15.738v-9.99c0-0.097-0.038-0.188-0.106-0.257
			c-0.068-0.068-0.16-0.106-0.257-0.106l-15.011,0c-0.097,0-0.189,0.038-0.257,0.106C0.039,21.166,0,21.259,0,21.355v16.976v9.859
			h9.859h0h38.53l0,0h2.389v-3.396l0,0V31.708z"/>
		<path fill="#ACACAC" d="M65.068,0.009c0,0-9.745,0-9.842,0L3.683,0C3.682,0,3.68,0.001,3.68,0.001H0v3.682v9.515
			c0,0.1,0.04,0.19,0.106,0.256c0.066,0.066,0.156,0.106,0.256,0.106l19.078,0l0.008,3.004c-0.006,0.026-0.009,0.052-0.009,0.079
			v7.676c0,0.193,0.17,0.363,0.363,0.363h34.893l0.009,10.785c0,0.2,0.162,0.362,0.362,0.362h3.735l0,0h6.267v-9.251l0,0
			L65.068,0.009z"/>
		<g>
			<g>
				<rect x="15.418" y="16.636" fill="#ED1C24" width="4.387" height="10.561"/>
			</g>
			<g>
				<polygon fill="#ED1C24" points="55.063,35.471 41.715,24.321 45.504,24.321 52.521,29.896 52.521,24.321 55.063,24.321 				"/>
			</g>
		</g>
	</g>
	<g>
		<path fill="#ACACAC" d="M50.778,31.708c0-0.2-0.162-0.362-0.363-0.362H15.738v-9.99c0-0.097-0.038-0.188-0.106-0.257
			c-0.068-0.068-0.16-0.106-0.257-0.106l-15.011,0c-0.097,0-0.189,0.038-0.257,0.106C0.039,21.166,0,21.259,0,21.355v16.976v9.859
			h9.859h0h38.53l0,0h2.389v-3.396l0,0V31.708z"/>
		<path fill="#ACACAC" d="M65.068,0.009c0,0-9.745,0-9.842,0L3.683,0C3.682,0,3.68,0.001,3.68,0.001H0v3.682v9.515
			c0,0.1,0.04,0.19,0.106,0.256c0.066,0.066,0.156,0.106,0.256,0.106l19.078,0l0.008,3.004c-0.006,0.026-0.009,0.052-0.009,0.079
			v7.676c0,0.193,0.17,0.363,0.363,0.363h34.893l0.009,10.785c0,0.2,0.162,0.362,0.362,0.362h3.735l0,0h6.267v-9.251l0,0
			L65.068,0.009z"/>
		<g>
			<g>
				<rect x="15.418" y="16.636" fill="#2975D5" width="4.387" height="10.561"/>
			</g>
			<g>
				<polygon fill="#2975D5" points="55.063,35.471 41.715,24.321 45.504,24.321 52.521,29.896 52.521,24.321 55.063,24.321 				"/>
			</g>
		</g>
	</g>
</g>
</svg>
