<?xml version="1.0" encoding="utf-8"?>
<!-- Generator: Adobe Illustrator 17.0.0, SVG Export Plug-In . SVG Version: 6.00 Build 0)  -->
<!DOCTYPE svg PUBLIC "-//W3C//DTD SVG 1.1//EN" "http://www.w3.org/Graphics/SVG/1.1/DTD/svg11.dtd">
<svg version="1.1" id="Слой_1" xmlns="http://www.w3.org/2000/svg" xmlns:xlink="http://www.w3.org/1999/xlink" x="0px" y="0px"
	 width="30px" height="28px" viewBox="0 0 30 28" enable-background="new 0 0 30 28" xml:space="preserve">
<path fill="#727272" d="M5.317,0.244L5.317,0.244c0.427,0,0.776,0.349,0.776,0.776v2.557c0,0.427-0.349,0.776-0.776,0.776l0,0
	c-0.427,0-0.776-0.349-0.776-0.776V1.019C4.541,0.593,4.89,0.244,5.317,0.244L5.317,0.244z M2.011,2.706
	c-0.936,0-1.701,0.765-1.701,1.701v21.648c0,0.936,0.765,1.701,1.701,1.701h25.978c0.936,0,1.701-0.765,1.701-1.701V4.407
	c0-0.936-0.765-1.701-1.701-1.701h-1.595v0.87c0,0.941-0.77,1.711-1.711,1.711l0,0c-0.941,0-1.711-0.77-1.711-1.711v-0.87h-3.033
	v0.87c0,0.941-0.77,1.711-1.711,1.711l0,0c-0.941,0-1.711-0.77-1.711-1.711v-0.87h-3.033v0.87c0,0.941-0.77,1.711-1.711,1.711l0,0
	c-0.941,0-1.711-0.77-1.711-1.711v-0.87H7.028v0.87c0,0.941-0.77,1.711-1.711,1.711l0,0c-0.941,0-1.711-0.77-1.711-1.711v-0.87
	L2.011,2.706L2.011,2.706z M3.712,11.421h4.867v3.903H3.712V11.421L3.712,11.421z M9.615,11.421h4.867v3.903H9.615V11.421
	L9.615,11.421z M15.518,11.421h4.867v3.903h-4.867V11.421L15.518,11.421z M21.421,11.421h4.867v3.903h-4.867V11.421L21.421,11.421z
	 M3.712,16.178h4.867v3.903H3.712V16.178L3.712,16.178z M9.615,16.178h4.867v3.903H9.615V16.178L9.615,16.178z M15.518,16.178h4.867
	v3.903h-4.867V16.178L15.518,16.178z M21.421,16.178h4.867v3.903h-4.867V16.178L21.421,16.178z M3.712,20.935h4.867v3.903H3.712
	V20.935L3.712,20.935z M9.615,20.935h4.867v3.903H9.615V20.935L9.615,20.935z M15.518,20.935h4.867v3.903h-4.867V20.935
	L15.518,20.935z M21.421,20.935h4.867v3.903h-4.867V20.935L21.421,20.935z M2.513,10.292h24.973v15.674H2.513V10.292L2.513,10.292z
	 M3.197,6.512h10.816c0.344,0,0.626,0.282,0.626,0.626v1.479c0,0.344-0.282,0.626-0.626,0.626H3.197
	c-0.344,0-0.626-0.281-0.626-0.626V7.138C2.571,6.793,2.852,6.512,3.197,6.512L3.197,6.512z M24.683,0.244L24.683,0.244
	c0.427,0,0.776,0.349,0.776,0.776v2.557c0,0.427-0.349,0.776-0.776,0.776l0,0c-0.427,0-0.776-0.349-0.776-0.776V1.019
	C23.907,0.593,24.256,0.244,24.683,0.244L24.683,0.244z M18.228,0.244L18.228,0.244c0.427,0,0.776,0.349,0.776,0.776v2.557
	c0,0.427-0.349,0.776-0.776,0.776l0,0c-0.427,0-0.776-0.349-0.776-0.776V1.019C17.451,0.593,17.801,0.244,18.228,0.244L18.228,0.244
	z M11.772,0.244L11.772,0.244c0.427,0,0.776,0.349,0.776,0.776v2.557c0,0.427-0.349,0.776-0.776,0.776l0,0
	c-0.427,0-0.776-0.349-0.776-0.776V1.019C10.996,0.593,11.346,0.244,11.772,0.244z"/>
</svg>
