<?xml version="1.0" encoding="utf-8"?>
<!-- Generator: Adobe Illustrator 17.0.0, SVG Export Plug-In . SVG Version: 6.00 Build 0)  -->
<!DOCTYPE svg PUBLIC "-//W3C//DTD SVG 1.1//EN" "http://www.w3.org/Graphics/SVG/1.1/DTD/svg11.dtd">
<svg version="1.1" id="Слой_1" xmlns="http://www.w3.org/2000/svg" xmlns:xlink="http://www.w3.org/1999/xlink" x="0px" y="0px"
	 width="28px" height="28px" viewBox="0 0 28 28" enable-background="new 0 0 28 28" xml:space="preserve">
<g>
	<path fill="#3770B5" d="M0.015,13.999c0,7.711,6.273,13.986,13.985,13.986c7.71,0,13.985-6.275,13.985-13.986
		c0-7.71-6.274-13.985-13.985-13.985C6.288,0.015,0.015,6.289,0.015,13.999z M2.248,13.999C2.248,7.519,7.52,2.249,14,2.249
		c6.479,0,11.752,5.271,11.752,11.751c0,6.481-5.273,11.752-11.752,11.752C7.52,25.752,2.248,20.48,2.248,13.999z"/>
	<path fill="#3770B5" d="M15.331,16.157c-0.534,0.701-1.536,0.835-2.236,0.299c-0.7-0.534-0.834-1.535-0.3-2.235
		c0.535-0.701,5.592-4.695,5.592-4.695S15.866,15.458,15.331,16.157z"/>
	<path fill="#3770B5" d="M15.1,13.912c0.7,0.535,0.834,1.536,0.299,2.237c-0.534,0.699-1.535,0.835-2.235,0.299
		c-0.7-0.534-6.549-7.007-6.549-7.007S14.4,13.378,15.1,13.912z"/>
</g>
</svg>
