<?xml version="1.0" encoding="utf-8"?>
<!-- Generator: Adobe Illustrator 17.0.0, SVG Export Plug-In . SVG Version: 6.00 Build 0)  -->
<!DOCTYPE svg PUBLIC "-//W3C//DTD SVG 1.1//EN" "http://www.w3.org/Graphics/SVG/1.1/DTD/svg11.dtd">
<svg version="1.1" id="Слой_1" xmlns="http://www.w3.org/2000/svg" xmlns:xlink="http://www.w3.org/1999/xlink" x="0px" y="0px"
	 width="36px" height="36px" viewBox="0 0 36 36" enable-background="new 0 0 36 36" xml:space="preserve">
<g>
	<g>
		<polygon points="22.236,25.057 15.31,18.131 21.669,11.771 19.346,9.449 10.675,18.119 19.924,27.369 		"/>
		<path d="M35.985,18c0-9.933-8.052-17.985-17.985-17.985C8.067,0.015,0.015,8.067,0.015,18c0,9.933,8.052,17.985,17.985,17.985
			C27.933,35.985,35.985,27.933,35.985,18z M1.65,18C1.65,8.97,8.97,1.65,18,1.65S34.35,8.97,34.35,18S27.03,34.35,18,34.35
			S1.65,27.03,1.65,18z"/>
	</g>
</g>
</svg>
