<?xml version="1.0" encoding="utf-8"?>
<!-- Generator: Adobe Illustrator 17.0.0, SVG Export Plug-In . SVG Version: 6.00 Build 0)  -->
<!DOCTYPE svg PUBLIC "-//W3C//DTD SVG 1.1//EN" "http://www.w3.org/Graphics/SVG/1.1/DTD/svg11.dtd">
<svg version="1.1" id="Слой_1" xmlns="http://www.w3.org/2000/svg" xmlns:xlink="http://www.w3.org/1999/xlink" x="0px" y="0px"
	 width="34px" height="34px" viewBox="0 0 34 34" enable-background="new 0 0 34 34" xml:space="preserve">
<g>
	<g>
		<path fill="#2875D4" d="M17,0C7.626,0,0,7.626,0,16.999c0,9.374,7.626,17,17,17s17-7.626,17-17C34,7.626,26.373,0,17,0z
			 M17,32.472c-8.531,0-15.474-6.94-15.474-15.473C1.526,8.468,8.469,1.526,17,1.526c8.532,0,15.475,6.941,15.475,15.473
			S25.532,32.472,17,32.472z"/>
		<path fill="#2875D4" d="M16.89,11.453c-0.631,0-1.144,0.512-1.144,1.144v12.92c0,0.633,0.513,1.146,1.144,1.146
			c0.633,0,1.146-0.513,1.146-1.146v-12.92C18.036,11.965,17.522,11.453,16.89,11.453z"/>
		<circle fill="#2875D4" cx="16.962" cy="8.281" r="1.391"/>
	</g>
</g>
</svg>
