<?xml version="1.0" encoding="utf-8"?>
<!-- Generator: Adobe Illustrator 17.0.0, SVG Export Plug-In . SVG Version: 6.00 Build 0)  -->
<!DOCTYPE svg PUBLIC "-//W3C//DTD SVG 1.1//EN" "http://www.w3.org/Graphics/SVG/1.1/DTD/svg11.dtd">
<svg version="1.1" id="Слой_1" xmlns="http://www.w3.org/2000/svg" xmlns:xlink="http://www.w3.org/1999/xlink" x="0px" y="0px"
	 width="20px" height="20px" viewBox="0 0 20 20" enable-background="new 0 0 20 20" xml:space="preserve">
<g>
	<path fill="#030104" d="M9.875,0.009C4.357,0.083-0.056,4.616,0.018,10.134c0.074,5.516,4.607,9.93,10.124,9.856
		c5.517-0.074,9.93-4.608,9.857-10.125C19.925,4.349,15.392-0.064,9.875,0.009z M9.845,16.082L9.79,16.081
		c-0.85-0.025-1.449-0.651-1.425-1.488c0.024-0.823,0.637-1.42,1.459-1.42l0.049,0.001c0.873,0.026,1.466,0.646,1.441,1.507
		C11.291,15.505,10.687,16.082,9.845,16.082z M13.42,8.988c-0.2,0.284-0.639,0.636-1.193,1.068l-0.61,0.421
		c-0.335,0.26-0.537,0.505-0.613,0.746c-0.06,0.19-0.089,0.24-0.094,0.626l-0.001,0.098H8.581l0.007-0.197
		c0.028-0.81,0.048-1.286,0.384-1.68c0.527-0.618,1.688-1.366,1.737-1.398c0.166-0.125,0.307-0.268,0.411-0.421
		c0.244-0.337,0.353-0.602,0.353-0.863c0-0.362-0.107-0.696-0.32-0.994c-0.204-0.287-0.591-0.433-1.152-0.433
		c-0.556,0-0.936,0.176-1.164,0.538C8.603,6.872,8.485,7.263,8.485,7.662v0.099h-2.4l0.004-0.104
		c0.062-1.47,0.587-2.529,1.559-3.147c0.611-0.393,1.371-0.593,2.258-0.593c1.161,0,2.141,0.282,2.913,0.839
		c0.782,0.564,1.179,1.408,1.179,2.51C13.998,7.883,13.804,8.462,13.42,8.988z"/>
</g>
</svg>
