<?xml version="1.0" encoding="utf-8"?>
<!-- Generator: Adobe Illustrator 17.0.0, SVG Export Plug-In . SVG Version: 6.00 Build 0)  -->
<!DOCTYPE svg PUBLIC "-//W3C//DTD SVG 1.1//EN" "http://www.w3.org/Graphics/SVG/1.1/DTD/svg11.dtd">
<svg version="1.1" id="Слой_1" xmlns="http://www.w3.org/2000/svg" xmlns:xlink="http://www.w3.org/1999/xlink" x="0px" y="0px"
	 width="125px" height="125px" viewBox="0 0 125 125" enable-background="new 0 0 125 125" xml:space="preserve">
<g>
	<g>
		<g>
			<g>
				<g>
					<g>
						<polygon fill="#FFFFFF" points="111.391,15.993 88.328,15.993 75.262,15.993 75.262,111.876 88.328,111.876 111.391,111.876 
							124.456,111.876 124.456,15.993 						"/>
						<path fill="#666666" d="M124.456,112.36H75.262c-0.267,0-0.484-0.216-0.484-0.484V15.993c0-0.267,0.216-0.484,0.484-0.484
							h49.194c0.267,0,0.484,0.216,0.484,0.484v95.883C124.94,112.143,124.724,112.36,124.456,112.36z M75.746,111.392h48.226
							V16.477H75.746V111.392z"/>
					</g>
				</g>
			</g>
		</g>
	</g>
	<g>
		<polygon fill="#FFFFFF" points="111.39,21.567 88.328,21.567 81.301,21.567 81.301,105.906 88.328,105.906 111.39,105.906 
			118.417,105.906 118.417,21.567 		"/>
		<path fill="#666666" d="M118.417,106.39H81.301c-0.267,0-0.484-0.216-0.484-0.484V21.567c0-0.267,0.216-0.484,0.484-0.484h37.115
			c0.267,0,0.484,0.216,0.484,0.484v84.339C118.901,106.173,118.684,106.39,118.417,106.39z M81.785,105.422h36.148V22.051H81.785
			V105.422z"/>
	</g>
	<g>
		<path fill="#666666" d="M88.251,63.573h6.946c0.217,0,0.394-0.177,0.394-0.394c0-0.229-0.177-0.406-0.394-0.406h-6.946V63.573z"/>
	</g>
	<g>
		<path fill="#666666" d="M87.805,64.02v-1.693h2.722c-0.359-1.073-1.305-1.872-2.499-1.872c-1.501,0-2.718,1.217-2.718,2.718
			s1.217,2.718,2.718,2.718c1.194,0,2.14-0.799,2.499-1.872H87.805z"/>
	</g>
</g>
<g>
	<g>
		<path fill="#FFFFFF" d="M24.063,59.139c-1.2-3.736-4.2-6.833-7.433-8.526c-0.01-0.01-0.01-0.019-0.019-0.019
			c0.716-0.319,2.149-0.745,2.584-0.668c0.639,0.136,3.697,2.603,4.026,3.262C23.492,53.739,23.889,57.029,24.063,59.139z"/>
		<path fill="#2875D4" d="M24.063,59.623c-0.207,0-0.395-0.133-0.46-0.336c-1.083-3.369-3.773-6.452-7.197-8.246
			c-0.043-0.023-0.082-0.052-0.117-0.086c-0.002-0.001-0.004-0.003-0.006-0.005c-0.072-0.066-0.124-0.155-0.146-0.256
			c-0.047-0.224,0.068-0.45,0.277-0.543c0.757-0.337,2.32-0.797,2.866-0.702c0.804,0.17,3.981,2.735,4.374,3.522
			c0.371,0.755,0.77,4.723,0.88,5.994c0.021,0.054,0.032,0.113,0.032,0.174c0,0.267-0.216,0.484-0.484,0.484
			C24.077,59.622,24.07,59.623,24.063,59.623z M17.75,50.69c2.294,1.395,4.223,3.344,5.525,5.547
			c-0.18-1.439-0.371-2.597-0.489-2.836c-0.259-0.518-3.127-2.849-3.696-3.003C18.813,50.399,18.274,50.527,17.75,50.69z"/>
	</g>
	<g>
		<path fill="#FFFFFF" d="M17.753,60.262c0,3.262-2.642,5.904-5.904,5.904c-3.252,0-5.894-2.642-5.894-5.904
			c0-3.252,2.642-5.894,5.894-5.894C15.111,54.368,17.753,57.01,17.753,60.262z"/>
		<path fill="#2875D4" d="M11.849,66.649c-3.517,0-6.378-2.866-6.378-6.388c0-3.517,2.861-6.378,6.378-6.378
			c3.523,0,6.388,2.861,6.388,6.378C18.237,63.784,15.371,66.649,11.849,66.649z M11.849,54.851c-2.983,0-5.41,2.427-5.41,5.41
			c0,2.989,2.427,5.42,5.41,5.42c2.989,0,5.42-2.431,5.42-5.42C17.269,57.278,14.837,54.851,11.849,54.851z"/>
	</g>
	<g>
		<g>
			<g>
				<path fill="#FFFFFF" stroke="#2875D4" stroke-linecap="round" stroke-linejoin="round" stroke-miterlimit="10" d="
					M24.613,71.333"/>
			</g>
			<g>
				<path fill="#FFFFFF" stroke="#2875D4" stroke-linecap="round" stroke-linejoin="round" stroke-miterlimit="10" d="
					M24.613,69.194"/>
			</g>
		</g>
		<g>
			<path fill="#FFFFFF" d="M22.098,67.646c0,0.532-0.426,0.948-0.948,0.948c-0.532,0-0.958-0.416-0.958-0.948
				c0-0.523,0.426-0.949,0.958-0.949C21.673,66.698,22.098,67.123,22.098,67.646z"/>
			<path fill="#2875D4" d="M21.15,69.078c-0.809,0-1.442-0.629-1.442-1.432c0-0.79,0.647-1.432,1.442-1.432
				c0.789,0,1.432,0.643,1.432,1.432C22.582,68.436,21.939,69.078,21.15,69.078z M21.15,67.181c-0.262,0-0.474,0.208-0.474,0.465
				c0,0.26,0.208,0.465,0.474,0.465c0.26,0,0.464-0.204,0.464-0.465C21.614,67.39,21.406,67.181,21.15,67.181z"/>
		</g>
		<g>
			<path fill="#FFFFFF" d="M23.7,66.194h-1.602v0.397c0,2.023-1.432,3.775-3.116,4.655H23.7h1.979h0.242h0.949h0.242h0.948h0.242
				h0.948h0.232h0.958h0.242h0.948h0.232h14.405h0.242h0.958h0.232h0.948h0.242h0.61v-5.052H23.7z"/>
			<path fill="#2875D4" d="M49.501,71.73H18.982c-0.223,0-0.417-0.152-0.47-0.369c-0.053-0.216,0.048-0.441,0.246-0.544
				c1.318-0.689,2.856-2.21,2.856-4.227v-0.397c0-0.267,0.216-0.484,0.484-0.484h27.403c0.267,0,0.484,0.216,0.484,0.484v5.052
				C49.985,71.514,49.769,71.73,49.501,71.73z M20.541,70.763h28.476v-4.084H22.581C22.553,68.184,21.79,69.671,20.541,70.763z"/>
		</g>
		<g>
			<path fill="#FFFFFF" stroke="#2875D4" stroke-linecap="round" stroke-linejoin="round" stroke-miterlimit="10" d="M11.452,49.18
				h-0.397c-6.339,0-11.072,5.139-11.072,11.469c0,0,0.077,10.433,5.294,10.598h0.126c5.333,0,9.572,0,9.572,0h4.984
				c2.565,0,4.655-2.081,4.655-4.655v-3.978C24.615,55.19,17.056,49.18,11.452,49.18z M11.849,66.165
				c-3.252,0-5.894-2.642-5.894-5.904c0-3.252,2.642-5.894,5.894-5.894c3.262,0,5.904,2.642,5.904,5.894
				C17.753,63.523,15.111,66.165,11.849,66.165z M21.15,68.595c-0.532,0-0.958-0.416-0.958-0.948c0-0.523,0.426-0.949,0.958-0.949
				c0.523,0,0.948,0.426,0.948,0.949C22.098,68.178,21.673,68.595,21.15,68.595z"/>
		</g>
	</g>
	<g>
		<line fill="#FFFFFF" x1="27.886" y1="71.246" x2="27.886" y2="68.341"/>
		<path fill="#2875D4" d="M27.886,71.73c-0.267,0-0.484-0.216-0.484-0.484v-2.905c0-0.267,0.216-0.484,0.484-0.484
			s0.484,0.216,0.484,0.484v2.905C28.37,71.514,28.154,71.73,27.886,71.73z"/>
	</g>
	<g>
		<line fill="#FFFFFF" x1="45.428" y1="71.246" x2="45.428" y2="68.341"/>
		<path fill="#2875D4" d="M45.428,71.73c-0.267,0-0.484-0.216-0.484-0.484v-2.905c0-0.267,0.216-0.484,0.484-0.484
			c0.267,0,0.484,0.216,0.484,0.484v2.905C45.912,71.514,45.695,71.73,45.428,71.73z"/>
	</g>
	<g>
		<line fill="#FFFFFF" x1="41.042" y1="71.246" x2="41.042" y2="68.341"/>
		<path fill="#2875D4" d="M41.042,71.73c-0.267,0-0.484-0.216-0.484-0.484v-2.905c0-0.267,0.216-0.484,0.484-0.484
			c0.267,0,0.484,0.216,0.484,0.484v2.905C41.526,71.514,41.31,71.73,41.042,71.73z"/>
	</g>
	<g>
		<line fill="#FFFFFF" x1="36.657" y1="71.246" x2="36.657" y2="68.341"/>
		<path fill="#2875D4" d="M36.657,71.73c-0.267,0-0.484-0.216-0.484-0.484v-2.905c0-0.267,0.216-0.484,0.484-0.484
			c0.267,0,0.484,0.216,0.484,0.484v2.905C37.141,71.514,36.924,71.73,36.657,71.73z"/>
	</g>
	<g>
		<line fill="#FFFFFF" x1="32.272" y1="71.246" x2="32.272" y2="68.341"/>
		<path fill="#2875D4" d="M32.271,71.73c-0.267,0-0.484-0.216-0.484-0.484v-2.905c0-0.267,0.216-0.484,0.484-0.484
			c0.267,0,0.484,0.216,0.484,0.484v2.905C32.755,71.514,32.539,71.73,32.271,71.73z"/>
	</g>
</g>
<g>
	<line fill="#FFFFFF" x1="62.879" y1="15.363" x2="62.879" y2="111.876"/>
	<path fill="#2875D4" d="M62.879,112.36c-0.267,0-0.484-0.216-0.484-0.484V15.363c0-0.267,0.216-0.484,0.484-0.484
		c0.267,0,0.484,0.216,0.484,0.484v96.513C63.363,112.143,63.146,112.36,62.879,112.36z"/>
</g>
<g>
	<path fill="#2875D4" d="M66.529,19.497c-0.124,0-0.248-0.047-0.342-0.142l-3.308-3.308l-3.308,3.308
		c-0.189,0.189-0.495,0.189-0.684,0c-0.189-0.189-0.189-0.495,0-0.684l3.65-3.65c0.189-0.189,0.495-0.189,0.684,0l3.65,3.65
		c0.189,0.189,0.189,0.495,0,0.684C66.776,19.45,66.653,19.497,66.529,19.497z"/>
</g>
<g>
	<path fill="#2875D4" d="M62.879,112.36c-0.124,0-0.248-0.047-0.342-0.142l-3.65-3.65c-0.189-0.189-0.189-0.495,0-0.684
		s0.495-0.189,0.684,0l3.308,3.308l3.308-3.308c0.189-0.189,0.495-0.189,0.684,0s0.189,0.495,0,0.684l-3.65,3.65
		C63.126,112.313,63.003,112.36,62.879,112.36z"/>
</g>
</svg>
