<?xml version="1.0" encoding="utf-8"?>
<!-- Generator: Adobe Illustrator 17.0.0, SVG Export Plug-In . SVG Version: 6.00 Build 0)  -->
<!DOCTYPE svg PUBLIC "-//W3C//DTD SVG 1.1//EN" "http://www.w3.org/Graphics/SVG/1.1/DTD/svg11.dtd">
<svg version="1.1" id="Слой_1" xmlns="http://www.w3.org/2000/svg" xmlns:xlink="http://www.w3.org/1999/xlink" x="0px" y="0px"
	 width="110px" height="85px" viewBox="0 0 110 85" enable-background="new 0 0 110 85" xml:space="preserve">
<g>
	<g>
		<g>
			
				<rect x="25.086" y="0.803" fill="#FFFFFF" stroke="#666666" stroke-linecap="round" stroke-linejoin="round" stroke-miterlimit="10" width="29.61" height="45.678"/>
		</g>
		<g>
			
				<rect x="54.696" y="18.401" fill="#FFFFFF" stroke="#666666" stroke-linecap="round" stroke-linejoin="round" stroke-miterlimit="10" width="30.217" height="28.08"/>
		</g>
		<g>
			<g>
				<g>
					<rect x="31.198" y="9.143" fill="#666666" width="6.197" height="6.197"/>
				</g>
				<g>
					<rect x="42.387" y="9.143" fill="#666666" width="6.197" height="6.197"/>
				</g>
			</g>
			<g>
				<g>
					<rect x="31.198" y="20.543" fill="#666666" width="6.197" height="6.197"/>
				</g>
				<g>
					<rect x="42.387" y="20.543" fill="#666666" width="6.197" height="6.197"/>
				</g>
			</g>
			<g>
				<g>
					<rect x="31.198" y="31.943" fill="#666666" width="6.197" height="6.197"/>
				</g>
				<g>
					<rect x="42.387" y="31.943" fill="#666666" width="6.197" height="6.197"/>
				</g>
				<g>
					<rect x="67.01" y="34.659" fill="#666666" width="6.197" height="11.821"/>
				</g>
				<g>
					<rect x="60.813" y="24.675" fill="#666666" width="6.197" height="6.197"/>
				</g>
				<g>
					<rect x="73.207" y="24.675" fill="#666666" width="6.197" height="6.197"/>
				</g>
			</g>
		</g>
	</g>
	<g>
		<g>
			<g>
				<path fill="#FFFFFF" stroke="#2875D4" stroke-linecap="round" stroke-linejoin="round" stroke-miterlimit="10" d="M3.486,65.157
					c33.306-7.073,69.722-7.073,103.027,0"/>
				<path fill="#FFFFFF" stroke="#2875D4" stroke-linecap="round" stroke-linejoin="round" stroke-miterlimit="10" d="
					M106.514,84.197c-33.246-7.707-69.781-7.707-103.027,0"/>
			</g>
		</g>
		<g>
			<g>
				<path fill="#2875D4" d="M23.618,71.774c-0.277-0.218-0.693-0.337-1.288-0.396v-0.06c0.872-0.357,1.268-0.891,1.169-1.625
					c-0.059-0.515-0.376-0.911-0.951-1.149c-0.555-0.238-1.288-0.297-2.14-0.159c-0.575,0.079-1.09,0.198-1.545,0.337
					c-0.456,0.159-0.911,0.357-1.367,0.614c0.238,0.376,0.495,0.753,0.753,1.129c0.297-0.178,0.654-0.337,1.05-0.456
					c0.376-0.139,0.733-0.238,1.05-0.277c0.515-0.079,0.872-0.079,1.11,0c0.238,0.06,0.357,0.198,0.396,0.416
					c0.04,0.238-0.099,0.436-0.376,0.575c-0.277,0.159-0.773,0.277-1.486,0.396c-0.238,0.04-0.456,0.059-0.694,0.099
					c0.059,0.416,0.139,0.812,0.198,1.228c0.238-0.04,0.475-0.079,0.713-0.119c0.674-0.099,1.169-0.099,1.506-0.02
					c0.337,0.079,0.515,0.258,0.555,0.515c0.04,0.238-0.079,0.436-0.376,0.614c-0.277,0.178-0.713,0.297-1.327,0.396
					c-0.376,0.059-0.793,0.079-1.228,0.059c-0.416-0.04-0.832-0.099-1.209-0.198c0.079,0.495,0.158,0.971,0.238,1.466
					c0.654,0.178,1.545,0.159,2.675,0c0.674-0.099,1.248-0.277,1.744-0.515c0.475-0.238,0.832-0.515,1.05-0.872
					c0.238-0.337,0.317-0.713,0.257-1.11C24.054,72.29,23.896,71.972,23.618,71.774z"/>
			</g>
			<g>
				<path fill="#2875D4" d="M30.949,69.397c-0.079-0.793-0.376-1.347-0.931-1.664c-0.535-0.337-1.268-0.436-2.219-0.337
					c-0.971,0.119-1.843,0.416-2.596,0.911c0.277,0.376,0.535,0.753,0.793,1.129c0.693-0.416,1.327-0.654,1.882-0.713
					c0.733-0.079,1.129,0.198,1.189,0.872c0.02,0.099,0.04,0.178,0.04,0.277c-0.396,0.059-0.793,0.119-1.189,0.178
					c-1.03,0.158-1.783,0.436-2.259,0.812c-0.456,0.396-0.654,0.951-0.555,1.625c0.079,0.674,0.337,1.149,0.753,1.466
					c0.416,0.297,0.951,0.416,1.605,0.337c0.535-0.059,0.951-0.178,1.268-0.376c0.317-0.178,0.594-0.475,0.872-0.891
					c0.02,0,0.04,0,0.04,0c0.158,0.277,0.317,0.575,0.456,0.852c0.436-0.059,0.872-0.099,1.308-0.139
					C31.246,72.29,31.108,70.843,30.949,69.397z M29.008,72.428c-0.238,0.277-0.575,0.436-1.01,0.476
					c-0.594,0.079-0.931-0.139-0.991-0.634c-0.04-0.357,0.059-0.634,0.317-0.832c0.238-0.198,0.634-0.337,1.169-0.416
					c0.258-0.04,0.495-0.079,0.733-0.119c0.02,0.198,0.04,0.376,0.059,0.555C29.325,71.834,29.225,72.171,29.008,72.428z"/>
			</g>
			<g>
				<path fill="#2875D4" d="M45.888,64.127c-0.891,0.04-1.783,0.059-2.675,0.119c-0.654,2.219-1.308,4.438-1.922,6.657
					c-0.02,0-0.04,0-0.04,0c-0.852-2.12-1.704-4.26-2.576-6.4c-0.892,0.06-1.783,0.139-2.675,0.198
					c0.238,2.853,0.456,5.706,0.694,8.559c0.555-0.059,1.11-0.099,1.684-0.139c-0.099-1.327-0.198-2.655-0.297-3.982
					c-0.02-0.456-0.139-1.367-0.317-2.714h0.059c0.911,2.179,1.783,4.359,2.635,6.558c0.575-0.04,1.149-0.079,1.724-0.099
					c0.654-2.279,1.308-4.557,2.001-6.836h0.059v2.001c0,0.258,0.02,0.475,0.02,0.654c0.059,1.367,0.119,2.714,0.178,4.062
					c0.594-0.02,1.189-0.06,1.763-0.079C46.106,69.833,45.987,66.98,45.888,64.127z"/>
			</g>
			<g>
				<path fill="#2875D4" d="M55.715,72.527c-1.129-1.486-2.279-2.972-3.467-4.438c1.09-1.387,2.199-2.774,3.329-4.141h-2.08
					c-1.11,1.387-2.179,2.794-3.249,4.2c-0.02-1.387-0.04-2.774-0.079-4.161c-0.654,0.02-1.308,0.04-1.961,0.059
					c0.079,2.853,0.158,5.706,0.258,8.559c0.614,0,1.248-0.02,1.882-0.04c-0.02-1.446-0.059-2.893-0.079-4.339
					c1.11,1.427,2.219,2.853,3.309,4.299H55.715z"/>
			</g>
			<g>
				<path fill="#2875D4" d="M61.422,64.008c-0.812-0.04-1.605-0.04-2.397-0.059c-1.149,2.853-2.239,5.706-3.309,8.579
					c0.693,0,1.367,0,2.041,0.02c0.238-0.693,0.456-1.367,0.674-2.041c1.11,0.02,2.199,0.04,3.289,0.079
					c0.198,0.674,0.396,1.367,0.594,2.061c0.674,0.02,1.347,0.04,2.021,0.059C63.403,69.793,62.432,66.9,61.422,64.008z
					 M58.945,68.981c0.674-1.961,1.11-3.19,1.248-3.685c0.04,0.139,0.079,0.337,0.159,0.575c0.079,0.258,0.396,1.308,0.951,3.17
					C60.51,69.02,59.737,69.001,58.945,68.981z"/>
			</g>
			<g>
				<path fill="#2875D4" d="M72.556,71.675c0.178-2.338,0.357-4.696,0.535-7.034c-1.803-0.139-3.586-0.258-5.389-0.357
					c-0.238,1.308-0.575,2.496-0.971,3.626c-0.396,1.11-0.931,2.219-1.565,3.329c-0.238-0.02-0.475-0.02-0.694-0.04
					c-0.059,1.347-0.119,2.675-0.178,4.002c0.614,0.04,1.209,0.059,1.803,0.079c0.04-0.832,0.079-1.644,0.119-2.477
					c1.862,0.079,3.725,0.198,5.587,0.337c-0.059,0.832-0.119,1.664-0.178,2.477c0.594,0.059,1.189,0.099,1.803,0.139
					c0.099-1.328,0.218-2.655,0.317-3.982C73.349,71.735,72.953,71.695,72.556,71.675z M70.654,71.537
					c-1.169-0.079-2.338-0.139-3.487-0.218c0.416-0.773,0.812-1.644,1.169-2.635c0.376-0.971,0.654-1.922,0.832-2.794
					c0.614,0.04,1.248,0.079,1.862,0.119C70.912,67.851,70.793,69.694,70.654,71.537z"/>
			</g>
			<g>
				<path fill="#2875D4" d="M81.195,68.902c-0.218-0.555-0.575-0.991-1.05-1.308c-0.495-0.337-1.07-0.535-1.744-0.594
					c-1.07-0.099-1.942,0.119-2.595,0.654c-0.634,0.535-1.01,1.347-1.09,2.417c-0.06,0.674,0.02,1.288,0.258,1.823
					c0.218,0.535,0.555,0.971,1.03,1.288c0.475,0.317,1.05,0.515,1.704,0.575c1.03,0.099,1.882-0.099,2.516-0.634
					c0.654-0.535,1.05-1.327,1.169-2.397C81.472,70.051,81.413,69.436,81.195,68.902z M78.996,71.953
					c-0.258,0.297-0.634,0.436-1.129,0.376c-0.495-0.04-0.852-0.238-1.03-0.594c-0.198-0.357-0.258-0.852-0.198-1.506
					c0.059-0.634,0.218-1.129,0.456-1.426c0.258-0.297,0.634-0.416,1.149-0.376c0.515,0.059,0.852,0.258,1.05,0.614
					c0.178,0.337,0.238,0.832,0.178,1.486C79.412,71.16,79.233,71.636,78.996,71.953z"/>
			</g>
			<g>
				<path fill="#2875D4" d="M89.516,68.485c-0.971,1.585-1.506,2.477-1.645,2.675c-0.119,0.198-0.218,0.416-0.337,0.654
					c-0.119,0.258-0.277,0.654-0.495,1.209c0-0.277-0.02-0.614-0.079-1.01c-0.04-0.416-0.099-0.773-0.198-1.09
					c-0.258-0.971-0.535-1.942-0.812-2.932c-0.872-0.099-1.744-0.218-2.615-0.317c-0.258,2.16-0.515,4.339-0.793,6.499
					c0.575,0.079,1.149,0.139,1.724,0.218c0.218-1.704,0.436-3.408,0.654-5.132c0.04,0.139,0.059,0.277,0.079,0.416
					c0.099,0.792,0.218,1.426,0.337,1.882c0.277,1.03,0.555,2.061,0.832,3.091c0.436,0.059,0.872,0.119,1.308,0.178
					c0.535-0.911,1.09-1.823,1.625-2.734c0.238-0.396,0.535-0.971,0.872-1.763c0.059-0.099,0.099-0.218,0.159-0.337
					c-0.258,1.704-0.515,3.408-0.773,5.112c0.575,0.079,1.149,0.178,1.724,0.258c0.337-2.16,0.694-4.319,1.03-6.479
					C91.24,68.763,90.388,68.624,89.516,68.485z"/>
			</g>
		</g>
	</g>
</g>
</svg>
