<?xml version="1.0" encoding="utf-8"?>
<!-- Generator: Adobe Illustrator 17.0.0, SVG Export Plug-In . SVG Version: 6.00 Build 0)  -->
<!DOCTYPE svg PUBLIC "-//W3C//DTD SVG 1.1//EN" "http://www.w3.org/Graphics/SVG/1.1/DTD/svg11.dtd">
<svg version="1.1" id="Слой_1" xmlns="http://www.w3.org/2000/svg" xmlns:xlink="http://www.w3.org/1999/xlink" x="0px" y="0px"
	 width="180px" height="155px" viewBox="0 0 180 155" enable-background="new 0 0 180 155" xml:space="preserve">
<g>
	<g>
		<g>
			<g>
				
					<rect x="38.373" y="21.975" transform="matrix(-0.9763 -0.2162 0.2162 -0.9763 161.299 111.1815)" fill="#FFFFFF" width="96.717" height="49.586"/>
			</g>
		</g>
		<g>
			<g>
				<path fill="#666666" d="M128.586,82.028c-0.043,0-0.086-0.005-0.13-0.014L34.027,61.102c-0.323-0.071-0.526-0.391-0.455-0.714
					l10.721-48.413c0.034-0.154,0.129-0.29,0.263-0.375c0.133-0.086,0.296-0.114,0.45-0.079l94.429,20.912
					c0.155,0.034,0.29,0.128,0.376,0.263c0.085,0.133,0.114,0.296,0.079,0.451L129.169,81.56
					C129.107,81.839,128.86,82.028,128.586,82.028z M34.87,60.064l93.261,20.653l10.463-47.245L45.332,12.819L34.87,60.064z"/>
			</g>
		</g>
	</g>
</g>
<g>
	<g>
		<g>
			<polygon fill="#FFFFFF" points="41.345,55.927 49.469,19.293 132.107,37.596 124,74.229 			"/>
		</g>
	</g>
	<g>
		<g>
			<path fill="#666666" d="M124,74.827c-0.043,0-0.086-0.005-0.129-0.014L41.217,56.511c-0.155-0.034-0.29-0.128-0.376-0.263
				c-0.085-0.133-0.114-0.296-0.079-0.451l8.124-36.634c0.072-0.322,0.39-0.523,0.713-0.454l82.639,18.303
				c0.323,0.071,0.526,0.391,0.455,0.714l-8.108,36.634c-0.034,0.154-0.129,0.29-0.263,0.375
				C124.225,74.796,124.113,74.827,124,74.827z M42.059,55.472l81.487,18.043l7.849-35.465L49.923,20.007L42.059,55.472z"/>
		</g>
	</g>
</g>
<g>
	<g>
		<g>
			<g>
				<path fill="#666666" d="M84.431,58.105l1.514-6.836c0.047-0.214-0.088-0.426-0.302-0.474c-0.225-0.05-0.438,0.086-0.485,0.299
					l-1.514,6.836L84.431,58.105z"/>
			</g>
		</g>
	</g>
</g>
<g>
	<g>
		<g>
			<g>
				<path fill="#666666" d="M84.773,58.641l-1.666-0.369l0.593-2.679c-1.134,0.12-2.126,0.876-2.387,2.051
					c-0.327,1.477,0.605,2.94,2.083,3.267s2.94-0.605,3.267-2.083c0.26-1.175-0.32-2.28-1.298-2.868L84.773,58.641z"/>
			</g>
		</g>
	</g>
</g>
<g>
	<g>
		<g>
			<path fill="#FFFFFF" d="M135.214,127.063c2.531,0,11.418,0,11.418,0v3.69c0,0-12.546,0-13.784,0
				C132.848,129.897,132.683,127.063,135.214,127.063z"/>
		</g>
	</g>
	<g>
		<g>
			<path fill="#666666" d="M146.632,131.351h-13.784c-0.331,0-0.598-0.267-0.598-0.598l-0.001-0.145
				c-0.007-0.776-0.021-2.39,0.96-3.379c0.502-0.507,1.177-0.764,2.005-0.764h11.418c0.331,0,0.598,0.267,0.598,0.598v3.69
				C147.23,131.083,146.962,131.351,146.632,131.351z M133.446,130.155h12.588v-2.494h-10.82c-0.505,0-0.883,0.134-1.156,0.409
				C133.555,128.578,133.461,129.494,133.446,130.155z"/>
		</g>
	</g>
</g>
<g>
	<g>
		<g>
			<path fill="#FFFFFF" d="M163.344,126.414c1.916-1.654,8.642-7.462,8.642-7.462l2.411,2.793c0,0-9.496,8.199-10.433,9.008
				C163.405,130.105,161.428,128.068,163.344,126.414z"/>
		</g>
	</g>
	<g>
		<g>
			<path fill="#666666" d="M163.965,131.351c-0.015,0-0.029,0-0.044-0.001c-0.158-0.012-0.305-0.086-0.409-0.206l-0.095-0.11
				c-0.512-0.583-1.578-1.795-1.482-3.185c0.049-0.711,0.392-1.347,1.019-1.889l8.642-7.462c0.12-0.103,0.281-0.158,0.435-0.144
				c0.158,0.012,0.305,0.086,0.409,0.206l2.411,2.793c0.216,0.25,0.188,0.628-0.062,0.844l-10.432,9.008
				C164.247,131.3,164.108,131.351,163.965,131.351z M171.925,119.795l-8.19,7.072c-0.382,0.329-0.58,0.677-0.607,1.064
				c-0.049,0.712,0.478,1.468,0.899,1.979l9.527-8.227L171.925,119.795z"/>
		</g>
	</g>
</g>
<g>
	<g>
		<g>
			<path fill="#FFFFFF" d="M136.279,45.01c-0.137-0.399-0.252-0.799-0.326-1.198c4.614-0.746,10.342-1.986,15.323-3.342
				c0.946,3.857-1.145,7.872-4.961,9.249C142.239,51.19,137.74,49.077,136.279,45.01z"/>
		</g>
	</g>
	<g>
		<g>
			<path fill="#666666" d="M143.652,50.785c-3.55,0-6.739-2.24-7.936-5.574c-0.164-0.479-0.278-0.898-0.35-1.291
				c-0.029-0.158,0.006-0.321,0.099-0.453c0.093-0.132,0.234-0.22,0.393-0.245c4.677-0.757,10.382-2.002,15.262-3.33
				c0.155-0.043,0.322-0.021,0.461,0.062c0.139,0.082,0.239,0.216,0.277,0.373c1.031,4.205-1.264,8.484-5.338,9.955
				C145.593,50.616,144.629,50.785,143.652,50.785z M136.682,44.298c0.046,0.164,0.1,0.335,0.163,0.517
				c1.024,2.851,3.761,4.774,6.807,4.774c0.837,0,1.666-0.146,2.462-0.433c3.303-1.191,5.244-4.535,4.704-7.944
				C146.262,42.429,141.074,43.562,136.682,44.298z"/>
		</g>
	</g>
</g>
<g>
	<g>
		<g>
			<path fill="#FFFFFF" d="M132.256,42.848c0,0,1.052-0.535,2.056-1.494c1.003-0.959,0.039-5.645,6.33-7.916
				c9.092-3.281,11.731,6.692,11.731,6.692c-6.117,1.734-14.418,3.516-19.845,4.143C132.416,43.868,132.256,42.848,132.256,42.848z"
				/>
		</g>
	</g>
	<g>
		<g>
			<path fill="#666666" d="M132.528,44.871c-0.266,0-0.504-0.178-0.576-0.439c-0.117-0.425-0.269-1.383-0.287-1.49
				c-0.04-0.256,0.089-0.508,0.319-0.626c0.01-0.005,0.992-0.513,1.914-1.393c0.142-0.137,0.276-0.683,0.393-1.166
				c0.464-1.912,1.241-5.11,6.148-6.881c1.284-0.463,2.522-0.697,3.681-0.697c6.691,0,8.81,7.721,8.831,7.799
				c0.084,0.315-0.101,0.639-0.415,0.729c-6.516,1.847-14.716,3.558-19.939,4.162C132.574,44.87,132.55,44.871,132.528,44.871z
				 M132.914,43.163c0.025,0.144,0.053,0.303,0.082,0.452c5.017-0.627,12.485-2.189,18.621-3.893
				c-0.579-1.657-2.647-6.347-7.497-6.347c-1.02,0-2.122,0.21-3.275,0.627c-4.302,1.551-4.958,4.25-5.392,6.036
				c-0.186,0.766-0.333,1.37-0.728,1.749C134.039,42.442,133.335,42.909,132.914,43.163z"/>
		</g>
	</g>
</g>
<g>
	<g>
		<g>
			<path fill="#FFFFFF" d="M171.978,118.951l-5.363,4.631c0,0-16.332-19.277-16.982-20.435c-0.223-0.406-0.589-4.144-0.63-6.297
				v-0.02c1.239-1.849,2.641-3.677,3.981-5.22c0.345-0.386,0.65-0.752,0.934-1.056c0.081-0.081,0.162-0.183,0.244-0.284
				c1.422-1.625,2.702-4.124,3.514-6.419c-0.366,4.509-0.772,14.219-0.609,16.027C157.312,102.701,171.978,118.951,171.978,118.951z
				"/>
		</g>
	</g>
	<g>
		<g>
			<path fill="#666666" d="M166.615,124.181c-0.015,0-0.031-0.001-0.047-0.002c-0.159-0.012-0.307-0.088-0.409-0.209
				c-1.676-1.977-16.387-19.355-17.047-20.528c-0.363-0.661-0.676-4.998-0.707-6.579c-0.002-0.123,0.033-0.263,0.101-0.364
				c1.219-1.819,2.65-3.693,4.027-5.279l0.401-0.457c0.193-0.221,0.374-0.43,0.548-0.616c0.082-0.083,0.147-0.167,0.214-0.25
				c1.275-1.458,2.547-3.784,3.418-6.245c0.1-0.284,0.396-0.443,0.689-0.385c0.294,0.063,0.495,0.334,0.471,0.633
				c-0.368,4.537-0.768,14.166-0.61,15.926c0.165,1.913,9.14,12.501,14.758,18.727c0.108,0.119,0.163,0.277,0.153,0.438
				c-0.01,0.16-0.084,0.31-0.206,0.416l-5.363,4.631C166.897,124.129,166.758,124.181,166.615,124.181z M149.606,97.007
				c0.057,2.266,0.404,5.463,0.566,5.881c0.449,0.785,9.973,12.129,16.509,19.848l4.444-3.838
				c-2.696-3.004-14.415-16.211-14.653-18.969c-0.132-1.465,0.089-7.781,0.374-12.66c-0.691,1.334-1.462,2.515-2.233,3.394
				c-0.079,0.1-0.176,0.22-0.272,0.314c-0.15,0.161-0.321,0.359-0.505,0.569l-0.405,0.463
				C152.13,93.507,150.775,95.278,149.606,97.007z"/>
		</g>
	</g>
</g>
<g>
	<g>
		<g>
			<path fill="#FFFFFF" d="M35.33,99.575c-2.531,0-11.418,0-11.418,0v3.69c0,0,12.546,0,13.784,0
				C37.696,102.409,37.861,99.575,35.33,99.575z"/>
		</g>
	</g>
	<g>
		<g>
			<path fill="#666666" d="M37.696,103.863H23.912c-0.331,0-0.598-0.267-0.598-0.598v-3.69c0-0.331,0.267-0.598,0.598-0.598H35.33
				c0.829,0,1.503,0.257,2.005,0.764c0.981,0.989,0.967,2.604,0.96,3.379l-0.001,0.145
				C38.294,103.595,38.026,103.863,37.696,103.863z M24.51,102.667h12.588c-0.015-0.661-0.109-1.577-0.612-2.085
				c-0.273-0.274-0.651-0.409-1.156-0.409H24.51V102.667z"/>
		</g>
	</g>
</g>
<g>
	<g>
		<g>
			<path fill="#FFFFFF" d="M11.054,90.787c-0.694-0.598-5.908-5.095-8.695-7.511c-1.041-0.897-1.734-1.495-1.734-1.495l1.734-2.021
				l0.67-0.777l1.627,1.399l0.61,0.526l2.105,1.818l0.61,0.538c0,0,0,0,0.012,0c1.507,1.304,2.954,2.548,3.684,3.181
				C13.59,88.096,11.616,90.141,11.054,90.787z"/>
		</g>
	</g>
	<g>
		<g>
			<path fill="#666666" d="M11.054,91.385c-0.138,0-0.277-0.048-0.391-0.145c-0.694-0.598-5.909-5.096-8.696-7.513l-1.733-1.494
				c-0.249-0.216-0.278-0.592-0.063-0.842l2.405-2.8c0.216-0.252,0.593-0.278,0.843-0.063l4.895,4.232
				c0.025,0.015,0.048,0.033,0.069,0.051l3.685,3.183c0.625,0.538,0.968,1.175,1.017,1.888c0.095,1.399-0.978,2.615-1.494,3.199
				l-0.086,0.098C11.387,91.315,11.221,91.385,11.054,91.385z M1.467,81.717l1.282,1.105c2.442,2.119,6.748,5.833,8.243,7.121
				c0.423-0.512,0.948-1.265,0.9-1.98c-0.027-0.388-0.225-0.736-0.607-1.065L7.663,83.77c-0.027-0.016-0.054-0.036-0.078-0.057
				l-4.493-3.887L1.467,81.717z"/>
		</g>
	</g>
</g>
<g>
	<g>
		<g>
			<path fill="#FFFFFF" d="M34.264,17.522c0.137-0.399,0.252-0.799,0.326-1.198c-4.614-0.746-10.342-1.986-15.323-3.342
				c-0.946,3.857,1.145,7.872,4.961,9.249C28.305,23.701,32.803,21.589,34.264,17.522z"/>
		</g>
	</g>
	<g>
		<g>
			<path fill="#666666" d="M26.893,23.297C26.892,23.297,26.892,23.297,26.893,23.297c-0.978,0-1.942-0.169-2.868-0.503
				c-4.075-1.471-6.37-5.75-5.339-9.955c0.039-0.157,0.138-0.291,0.277-0.373s0.305-0.105,0.461-0.062
				c4.883,1.329,10.589,2.573,15.261,3.329c0.159,0.026,0.301,0.113,0.394,0.245c0.093,0.131,0.128,0.294,0.099,0.453
				c-0.072,0.392-0.186,0.813-0.347,1.284C33.63,21.057,30.441,23.297,26.893,23.297z M19.726,13.724
				c-0.54,3.408,1.4,6.752,4.704,7.944c0.795,0.287,1.624,0.433,2.461,0.433c0,0,0.001,0,0.001,0c3.046,0,5.782-1.921,6.809-4.782
				c0.061-0.178,0.114-0.348,0.16-0.51C29.473,16.074,24.286,14.942,19.726,13.724z"/>
		</g>
	</g>
</g>
<g>
	<g>
		<g>
			<path fill="#FFFFFF" d="M38.445,15.366c0,0-1.052-0.535-2.056-1.494c-1.003-0.959-0.039-5.645-6.33-7.916
				c-9.092-3.281-11.731,6.692-11.731,6.692c6.117,1.734,14.418,3.516,19.845,4.142C38.285,16.386,38.445,15.366,38.445,15.366z"/>
		</g>
	</g>
	<g>
		<g>
			<path fill="#666666" d="M38.174,17.389c-0.023,0-0.046-0.001-0.069-0.004c-5.23-0.605-13.43-2.316-19.939-4.162
				c-0.314-0.09-0.499-0.413-0.415-0.729c0.02-0.078,2.139-7.799,8.83-7.799c1.159,0,2.397,0.235,3.682,0.697
				c4.906,1.771,5.684,4.969,6.148,6.88c0.117,0.484,0.25,1.03,0.392,1.167c0.922,0.881,1.904,1.389,1.914,1.393
				c0.23,0.118,0.359,0.37,0.319,0.626c-0.018,0.107-0.169,1.065-0.287,1.49C38.678,17.212,38.44,17.389,38.174,17.389z
				 M19.084,12.239c6.13,1.704,13.597,3.265,18.621,3.893c0.029-0.15,0.057-0.308,0.082-0.452c-0.421-0.253-1.125-0.721-1.811-1.376
				c-0.395-0.378-0.543-0.982-0.728-1.749c-0.434-1.786-1.09-4.485-5.392-6.036c-1.153-0.417-2.255-0.627-3.276-0.627
				C21.731,5.893,19.664,10.582,19.084,12.239z"/>
		</g>
	</g>
</g>
<g>
	<g>
		<g>
			<path fill="#FFFFFF" d="M21.602,69.449c-0.02,2.153,0,7.597-1.117,8.613c-1.93,1.727-12.5,5.201-12.5,5.201L3.03,78.985
				c0,0,10.345-3.991,11.868-6.368c0.812-1.259-2.052-12.655-2.417-17.164c0.081,0.142,0.163,0.305,0.264,0.508
				c0.792,2.397,2.153,5.139,3.677,6.866c0.061,0.081,0.122,0.162,0.203,0.244c0.284,0.305,0.609,0.67,0.955,1.077
				c1.32,1.523,2.702,3.331,3.9,5.139C21.521,69.327,21.561,69.388,21.602,69.449z"/>
		</g>
	</g>
	<g>
		<g>
			<path fill="#666666" d="M7.984,83.861c-0.141,0-0.28-0.05-0.391-0.145l-4.954-4.277c-0.159-0.138-0.234-0.348-0.199-0.556
				c0.036-0.207,0.178-0.38,0.374-0.456c2.827-1.091,10.417-4.318,11.58-6.132c0.324-0.719-0.58-5.506-1.239-9.002
				c-0.551-2.918-1.12-5.936-1.271-7.792c-0.022-0.279,0.151-0.536,0.419-0.619c0.27-0.085,0.557,0.03,0.696,0.273
				c0.086,0.151,0.173,0.322,0.281,0.538c0.889,2.669,2.252,5.221,3.59,6.737c0.075,0.097,0.118,0.157,0.176,0.215
				c0.306,0.327,0.637,0.7,0.989,1.113c1.364,1.574,2.766,3.421,3.943,5.196c-0.004-0.016,0.055,0.063,0.121,0.162
				c0.066,0.099,0.101,0.216,0.1,0.336l-0.003,0.363c-0.034,4.531-0.27,7.74-1.31,8.687c-1.97,1.761-11.622,4.966-12.716,5.326
				C8.11,83.851,8.047,83.861,7.984,83.861z M4.169,79.178l3.95,3.411c3.126-1.041,10.513-3.672,11.967-4.973
				c0.861-0.783,0.902-6.069,0.915-7.806l0.001-0.164c-0.008-0.012-0.016-0.022-0.02-0.029c-1.15-1.733-2.518-3.537-3.854-5.079
				c-0.343-0.403-0.661-0.762-0.94-1.061c-0.086-0.084-0.165-0.186-0.241-0.287c-0.831-0.94-1.584-2.139-2.219-3.369
				c0.188,1.05,0.397,2.157,0.603,3.249c1.17,6.202,1.625,9.01,1.07,9.871C14.044,75.06,6.864,78.095,4.169,79.178z"/>
		</g>
	</g>
</g>
<g>
	<g>
		<g>
			<polygon fill="#FFFFFF" points="179.338,132.158 179.158,151.151 62.235,151.152 48.132,142.396 16.161,124.013 13.662,122.578 
				2.359,116.071 2.359,91.409 13.662,91.409 13.662,104.601 33.062,104.601 33.062,112.806 52.485,112.806 52.485,125.987 
				71.885,125.987 72.064,132.158 			"/>
		</g>
	</g>
	<g>
		<g>
			<path fill="#2875D4" d="M179.158,151.749l-116.68,0l-0.841-0.598l-14.103-8.409L2.061,116.59c-0.185-0.107-0.3-0.305-0.3-0.519
				V91.41c0-0.331,0.267-0.598,0.598-0.598h11.303c0.331,0,0.598,0.267,0.598,0.598v12.593h18.801c0.331,0,0.598,0.267,0.598,0.598
				v7.607h18.826c0.331,0,0.598,0.267,0.598,0.598v12.582h18.801c0.324,0,0.588,0.257,0.598,0.581l0.162,5.591h106.692
				c0.159,0,0.312,0.064,0.425,0.178c0.113,0.113,0.175,0.266,0.173,0.426l-0.179,18.993
				C179.753,151.485,179.486,151.749,179.158,151.749z M62.833,150.553l115.733,0l0.168-17.797H72.064
				c-0.324,0-0.588-0.257-0.598-0.581l-0.162-5.591H52.486c-0.331,0-0.598-0.267-0.598-0.598v-12.582H33.061
				c-0.331,0-0.598-0.267-0.598-0.598v-7.607H13.662c-0.331,0-0.598-0.267-0.598-0.598V92.008H2.957v23.718l45.472,26.153
				c0.186,0.107,15.581,8.91,15.581,9.123L62.833,150.553z"/>
		</g>
	</g>
</g>
<g>
	<g>
		<g>
			<path fill="#FFFFFF" d="M30.813,73.325c-0.742-4.796-6.949-12.642-6.901-15.943c0.012-0.694,0.251-2.38,0.622-4.605
				c0,0,0.179-0.957,0.443-2.356c0.371-2.033,0.921-4.987,1.352-7.356v-0.012c0.263-1.459,0.478-2.691,0.586-3.337
				c0.502-2.99,1.041-6.423,1.088-7.738c0.227-1.95,0.155-3.851-0.634-5.071c-0.538-0.813-1.639-1.447-2.942-1.806
				c0,0-3.54-1.364-6.1,0.825c-1.029,1.268-1.866,6.542-2.464,8.863c-2.009,7.655-3.983,16.792-3.779,18.407
				c0.084,0.777,0.311,1.722,0.646,2.727c0,0.012,0,0.024,0.012,0.036c0.096,0.299,0.203,0.61,0.323,0.909
				c0,0.012,0,0.024,0.012,0.036c0.12,0.299,0.239,0.598,0.359,0.897c0.132,0.311,0.275,0.622,0.419,0.933
				c0.144,0.299,0.299,0.61,0.443,0.897c0,0,0,0,0.012,0.012c0.155,0.299,0.323,0.598,0.49,0.885c0.191,0.347,0.395,0.67,0.61,0.981
				c0.144,0.215,0.299,0.419,0.455,0.622c0.179,0.251,0.371,0.478,0.562,0.694c0.024,0.036,0.06,0.084,0.096,0.12
				c0.024,0.048,0.072,0.084,0.108,0.132c0.144,0.144,0.287,0.311,0.443,0.49c0,0.012,0.012,0.012,0.012,0.012
				c0.311,0.359,0.646,0.765,1.005,1.196c0.179,0.227,0.371,0.455,0.55,0.694c0.849,1.064,1.746,2.261,2.572,3.421
				c0.012,0.012,0.012,0.024,0.036,0.036c0.012,0.024,0.024,0.036,0.036,0.048c0,0.036,0.024,0.06,0.06,0.084
				c0.012,0.024,0.024,0.036,0.036,0.06c0.036,0.048,0.06,0.108,0.108,0.155v0.012c0.048,0.06,0.084,0.12,0.12,0.167
				c1.184,1.698,2.105,3.205,2.273,3.875c0.383,1.591,0.036,26.253,0.036,26.253h6.901C30.813,99.578,31.543,78.109,30.813,73.325z"
				/>
		</g>
	</g>
	<g>
		<g>
			<path fill="#666666" d="M30.813,100.176h-6.901c-0.16,0-0.314-0.064-0.426-0.179c-0.113-0.113-0.175-0.267-0.172-0.427
				c0.139-9.884,0.249-24.991-0.02-26.104c-0.048-0.196-0.353-1.052-2.181-3.673c-0.028-0.035-0.062-0.086-0.095-0.145
				c-0.056-0.065-0.093-0.126-0.116-0.165l0.011-0.012c-0.033-0.035-0.065-0.075-0.094-0.118c-0.012-0.013-0.023-0.027-0.036-0.044
				c-0.021-0.022-0.04-0.046-0.056-0.068c-0.845-1.188-1.727-2.362-2.557-3.401c-0.12-0.16-0.234-0.3-0.346-0.438l-0.37-0.456
				c-0.286-0.343-0.555-0.667-0.808-0.96c-0.009-0.009-0.018-0.02-0.027-0.03l-0.001,0.001c-0.154-0.179-0.284-0.329-0.413-0.46
				c-0.064-0.07-0.115-0.125-0.158-0.185c-0.055-0.062-0.098-0.123-0.121-0.159c-0.153-0.162-0.358-0.406-0.55-0.675
				c-0.16-0.209-0.319-0.418-0.465-0.638c-0.221-0.32-0.435-0.659-0.636-1.023c-0.157-0.27-0.319-0.559-0.473-0.851
				c-0.016-0.022-0.03-0.046-0.041-0.068c-0.146-0.293-0.303-0.605-0.447-0.905c-0.15-0.325-0.296-0.642-0.43-0.959l-0.364-0.909
				h0.002c-0.008-0.019-0.015-0.036-0.021-0.055c-0.122-0.306-0.232-0.625-0.33-0.931l0,0c-0.004-0.009-0.006-0.019-0.009-0.028
				h-0.001c-0.353-1.061-0.586-2.046-0.673-2.851c-0.241-1.917,2.122-12.249,3.796-18.624c0.159-0.62,0.338-1.459,0.532-2.376
				c0.683-3.216,1.267-5.752,2.046-6.711c1.153-0.999,2.496-1.466,4.068-1.466c1.5,0,2.662,0.44,2.711,0.459
				c1.46,0.398,2.626,1.127,3.226,2.034c0.769,1.19,1.013,3.03,0.729,5.471c-0.036,1.05-0.405,3.679-1.093,7.768
				c-0.107,0.646-0.324,1.882-0.587,3.344l-1.795,9.727c-0.492,2.955-0.604,4.082-0.611,4.506c-0.022,1.482,1.544,4.323,3.057,7.07
				c1.695,3.077,3.448,6.257,3.837,8.772c0.729,4.785,0.037,25.485,0.006,26.363C31.4,99.92,31.135,100.176,30.813,100.176z
				 M24.518,98.98h5.716c0.109-3.454,0.634-21.324-0.012-25.564c-0.356-2.303-2.057-5.39-3.702-8.376
				c-1.734-3.147-3.232-5.865-3.206-7.666c0.012-0.686,0.218-2.222,0.63-4.695l1.796-9.721c0.262-1.466,0.477-2.695,0.584-3.339
				c0.67-3.982,1.043-6.631,1.081-7.662c0.255-2.205,0.072-3.78-0.538-4.725c-0.43-0.649-1.379-1.218-2.599-1.553
				c-0.065-0.022-1.069-0.398-2.337-0.398c-1.279,0-2.361,0.37-3.215,1.101c-0.583,0.734-1.246,3.852-1.729,6.129
				c-0.199,0.936-0.381,1.792-0.544,2.428c-2.181,8.305-3.94,16.801-3.766,18.184c0.079,0.731,0.293,1.632,0.62,2.612
				c0.001,0.005,0.003,0.011,0.005,0.015c0.004,0.009,0.006,0.019,0.01,0.029c0.091,0.285,0.194,0.582,0.308,0.868
				c0.006,0.016,0.013,0.034,0.018,0.053l0.352,0.881c0.124,0.293,0.265,0.599,0.406,0.904c0.131,0.271,0.274,0.559,0.409,0.83
				c0.012,0.018,0.023,0.035,0.033,0.053c0.151,0.291,0.314,0.582,0.477,0.861c0.188,0.341,0.381,0.647,0.585,0.943
				c0.138,0.207,0.282,0.395,0.426,0.582c0.19,0.265,0.369,0.477,0.545,0.676c0.035,0.039,0.161,0.202,0.184,0.249
				c0.144,0.125,0.291,0.294,0.45,0.478c0.011,0.011,0.02,0.021,0.03,0.033c0.262,0.303,0.543,0.639,0.839,0.996l0.381,0.467
				c0.121,0.15,0.244,0.301,0.362,0.459c0.821,1.029,1.705,2.204,2.548,3.388c0.03,0.029,0.057,0.063,0.081,0.098
				c0.016,0.022,0.032,0.044,0.046,0.067c0.033,0.039,0.062,0.081,0.085,0.126c0.004,0.001,0.029,0.04,0.052,0.079
				c0.048,0.048,0.083,0.1,0.107,0.157c0.006,0.009,0.013,0.019,0.02,0.028c0.995,1.427,2.181,3.247,2.401,4.129
				C24.825,74.712,24.577,94.618,24.518,98.98z"/>
		</g>
	</g>
</g>
<g>
	<g>
		<g>
			<path fill="#FFFFFF" d="M20.683,68.11c-0.012-0.012-0.024-0.036-0.036-0.048c-0.562-0.777-1.136-1.555-1.722-2.284
				c-0.287-0.359-0.562-0.706-0.849-1.041c0,0.012,0.012,0.024,0.012,0.036c0.179,0.227,0.371,0.455,0.55,0.694
				c0.849,1.064,1.746,2.261,2.572,3.421C21.041,68.624,20.862,68.373,20.683,68.11z"/>
		</g>
	</g>
	<g>
		<g>
			<path fill="#666666" d="M21.209,69.486c-0.187,0-0.371-0.088-0.488-0.251c-0.839-1.182-1.722-2.356-2.551-3.395
				c-0.12-0.159-0.234-0.3-0.346-0.438l-0.207-0.258c-0.046-0.06-0.081-0.126-0.102-0.197c-0.023-0.068-0.037-0.144-0.037-0.209
				c0-0.25,0.156-0.474,0.391-0.561c0.233-0.091,0.499-0.02,0.662,0.172c0.256,0.3,0.503,0.609,0.757,0.926l0.104,0.13
				c0.592,0.737,1.172,1.522,1.74,2.308l0.196,0.28c0.132,0.192,0.262,0.381,0.386,0.576c0.173,0.274,0.097,0.637-0.172,0.816
				C21.44,69.453,21.324,69.486,21.209,69.486z"/>
		</g>
	</g>
</g>
<g>
	<g>
		<g>
			<path fill="#FFFFFF" d="M19.631,25.291c-4.732,1.087,0.138,17.675,1.425,20.051c1.286,2.376,11.268,13.544,12.939,15.416
				c1.422,1.594,2.895,0.802,3.42,0.433c0.525-0.369,1.283-2.079,0.824-3.487c-0.459-1.408-10.752-12.882-12.244-15.101
				c-1.695-2.522-1.714-11.584-2.631-15.374C23.116,26.208,22.331,24.671,19.631,25.291z"/>
		</g>
	</g>
	<g>
		<g>
			<path fill="#666666" d="M35.88,62.316L35.88,62.316c-0.862,0-1.646-0.39-2.333-1.159c-4.42-4.951-11.886-13.436-13.019-15.53
				c-1.09-2.015-4.968-14.727-2.932-19.231c0.419-0.926,1.058-1.494,1.9-1.688c2.351-0.542,3.956,0.349,4.448,2.38
				c0.358,1.479,0.578,3.689,0.81,6.028c0.36,3.615,0.767,7.714,1.736,9.154c0.611,0.909,2.817,3.505,5.153,6.254
				c4.269,5.021,6.881,8.133,7.163,8.996c0.527,1.615-0.26,3.607-1.048,4.162C37.421,61.919,36.729,62.316,35.88,62.316z
				 M20.782,25.746c-0.306,0-0.648,0.042-1.018,0.127c-0.465,0.107-0.818,0.439-1.077,1.015c-1.739,3.849,1.708,15.977,2.894,18.168
				c0.785,1.452,5.446,7.001,12.788,15.224c0.521,0.583,1.005,0.839,1.511,0.839c0.519,0,0.968-0.262,1.19-0.417
				c0.307-0.216,0.977-1.653,0.599-2.811c-0.255-0.731-4.117-5.276-6.937-8.593c-2.461-2.896-4.586-5.396-5.235-6.36
				c-1.136-1.691-1.541-5.764-1.933-9.704c-0.228-2.296-0.444-4.466-0.782-5.865C22.517,26.278,21.863,25.746,20.782,25.746z"/>
		</g>
	</g>
</g>
<g>
	<g>
		<g>
			<path fill="#FFFFFF" d="M153.787,59.135c-0.304-2.635-0.73-8.719-8.388-6.496c-1.13,0.328-2.065,1.259-2.498,2.009
				c-0.76,1.313-0.76,2.922-0.615,4.889c0.039,0.466,0.124,1.075,0.234,1.755c0,0,2.147,11.683,2.43,13.162
				c0.961,4.939,1.656,9.198,1.68,10.417c0.053,3.301-6.154,11.146-6.894,15.939c-0.74,4.794,0.002,26.253,0.002,26.253h6.893
				c0,0-0.345-24.656,0.039-26.253c0.383-1.585,5.031-7.844,7.25-10.248c2.232-2.391,4.213-7.118,4.543-9.878
				C158.688,78.841,154.747,67.459,153.787,59.135z"/>
		</g>
	</g>
	<g>
		<g>
			<path fill="#666666" d="M146.632,127.661h-6.893c-0.322,0-0.586-0.256-0.597-0.577c-0.03-0.878-0.735-21.572,0.005-26.366
				c0.387-2.511,2.138-5.689,3.831-8.762c1.514-2.75,3.08-5.592,3.056-7.077c-0.023-1.156-0.694-5.3-1.669-10.311
				c-0.284-1.481-2.431-13.168-2.431-13.168c-0.116-0.71-0.202-1.336-0.242-1.814c-0.14-1.892-0.191-3.712,0.693-5.239
				c0.467-0.807,1.494-1.89,2.849-2.283c1.149-0.333,2.207-0.502,3.142-0.502c5.164,0,5.713,4.895,5.977,7.248l0.029,0.257
				c0.541,4.693,2.015,10.281,3.2,14.771c1.042,3.95,1.58,6.051,1.475,6.919c-0.337,2.809-2.349,7.695-4.699,10.213
				c-2.358,2.556-6.784,8.647-7.106,9.981c-0.268,1.118-0.16,16.224-0.022,26.105c0.002,0.16-0.06,0.314-0.172,0.427
				C146.945,127.597,146.792,127.661,146.632,127.661z M140.318,126.465h5.708c-0.058-4.36-0.305-24.262,0.063-25.796
				c0.432-1.787,5.283-8.229,7.392-10.513c2.132-2.285,4.075-6.922,4.388-9.544c0.083-0.682-0.659-3.494-1.444-6.47
				c-1.194-4.527-2.681-10.162-3.231-14.939l-0.03-0.26c-0.336-2.994-1.011-6.186-4.789-6.186c-0.822,0-1.768,0.153-2.809,0.456
				c-0.944,0.273-1.775,1.091-2.147,1.733c-0.646,1.117-0.686,2.511-0.536,4.545c0.038,0.449,0.121,1.042,0.228,1.704l0,0
				c0-0.001,2.143,11.668,2.427,13.145c1.002,5.15,1.666,9.279,1.691,10.518c0.029,1.805-1.469,4.525-3.204,7.675
				c-1.643,2.982-3.341,6.065-3.696,8.368C139.672,105.148,140.207,123.013,140.318,126.465z"/>
		</g>
	</g>
</g>
<g>
	<g>
		<g>
			<path fill="#FFFFFF" d="M150.913,52.779c5.287,2.051-4.171,17.176-5.966,19.196c-1.795,2.02-15.444,10.962-17.5,12.404
				c-1.749,1.227-3.001,0.12-3.428-0.36c-0.427-0.479-0.774-2.318-0.006-3.583c0.769-1.265,14.792-10.436,16.751-12.256
				c2.226-2.068,4.314-10.887,6.072-14.367C147.311,52.876,148.33,51.777,150.913,52.779z"/>
		</g>
	</g>
	<g>
		<g>
			<path fill="#666666" d="M125.876,85.536c-1.139,0-1.932-0.701-2.304-1.119c-0.641-0.719-0.952-2.837-0.069-4.29
				c0.461-0.76,3.876-3.165,9.445-7.037c3.232-2.247,6.575-4.572,7.409-5.346c1.271-1.182,2.605-5.079,3.78-8.517
				c0.761-2.224,1.479-4.325,2.165-5.682c0.735-1.454,1.918-1.76,2.78-1.76c0.609,0,1.298,0.148,2.048,0.439
				c0.945,0.367,1.579,1.118,1.834,2.174c1.194,4.942-5.988,16.197-7.57,17.976c-1.347,1.515-8.402,6.305-14.91,10.674
				c-1.278,0.858-2.253,1.514-2.693,1.822C127.16,85.311,126.516,85.536,125.876,85.536z M149.082,52.98
				c-0.788,0-1.332,0.35-1.712,1.104c-0.648,1.284-1.354,3.346-2.101,5.529c-1.281,3.747-2.606,7.62-4.098,9.007
				c-0.896,0.833-4.124,3.077-7.54,5.452c-3.661,2.544-8.673,6.029-9.108,6.679c-0.631,1.04-0.307,2.591-0.057,2.872
				c0.238,0.267,0.739,0.717,1.41,0.717c0.389,0,0.802-0.151,1.228-0.45c0.444-0.312,1.426-0.972,2.713-1.836
				c4.325-2.904,13.325-8.948,14.683-10.476c1.791-2.015,8.312-12.715,7.301-16.9c-0.166-0.687-0.517-1.112-1.104-1.341
				C150.086,53.1,149.543,52.98,149.082,52.98z"/>
		</g>
	</g>
</g>
</svg>
