<?xml version="1.0" encoding="utf-8"?>
<!-- Generator: Adobe Illustrator 17.0.0, SVG Export Plug-In . SVG Version: 6.00 Build 0)  -->
<!DOCTYPE svg PUBLIC "-//W3C//DTD SVG 1.1//EN" "http://www.w3.org/Graphics/SVG/1.1/DTD/svg11.dtd">
<svg version="1.1" id="Слой_1" xmlns="http://www.w3.org/2000/svg" xmlns:xlink="http://www.w3.org/1999/xlink" x="0px" y="0px"
	 width="125px" height="125px" viewBox="0 0 125 125" enable-background="new 0 0 125 125" xml:space="preserve">
<g>
	<g>
		<g>
			<path fill="#FFFFFF" d="M65.699,50.412c-1.65-1.398-4.122-1.194-5.52,0.456c-1.398,1.65-1.194,4.121,0.456,5.52
				c1.65,1.398,4.121,1.194,5.52-0.456C67.554,54.281,67.349,51.81,65.699,50.412z M63.867,53.993
				c-0.328,0.387-0.906,0.434-1.293,0.107c-0.387-0.328-0.434-0.906-0.107-1.293c0.328-0.387,0.906-0.434,1.293-0.107
				C64.147,53.028,64.195,53.606,63.867,53.993z"/>
			<path fill="#2875D4" d="M63.165,57.851L63.165,57.851c-1.051,0-2.072-0.375-2.874-1.055c-0.907-0.768-1.461-1.844-1.559-3.028
				c-0.098-1.185,0.271-2.337,1.039-3.244c0.847-1,2.086-1.573,3.398-1.573c1.051,0,2.072,0.375,2.874,1.055
				c0.907,0.768,1.461,1.844,1.559,3.028s-0.271,2.337-1.039,3.244C65.716,57.277,64.478,57.851,63.165,57.851z M63.17,50.018
				c-0.997,0-1.939,0.436-2.582,1.196c-0.584,0.689-0.865,1.565-0.79,2.465c0.074,0.9,0.495,1.717,1.184,2.302
				c1.372,1.162,3.607,0.974,4.766-0.394c0.584-0.689,0.865-1.565,0.79-2.465c-0.074-0.9-0.495-1.717-1.184-2.302
				C64.743,50.302,63.968,50.018,63.17,50.018z M63.168,54.851c-0.343,0-0.676-0.123-0.938-0.344
				c-0.296-0.25-0.477-0.601-0.509-0.988c-0.031-0.387,0.089-0.762,0.339-1.058c0.499-0.588,1.458-0.668,2.046-0.169
				c0.296,0.25,0.477,0.601,0.509,0.988c0.031,0.387-0.089,0.762-0.339,1.058C63.999,54.664,63.595,54.851,63.168,54.851z
				 M63.168,53.017c-0.113,0-0.219,0.05-0.292,0.136c-0.067,0.078-0.098,0.177-0.09,0.279c0.008,0.102,0.056,0.194,0.135,0.26
				c0.244,0.208,0.425,0.091,0.539-0.044c0.067-0.078,0.098-0.177,0.09-0.279c-0.008-0.102-0.056-0.194-0.135-0.26
				C63.326,53.032,63.232,53.017,63.168,53.017z"/>
		</g>
		<g>
			<path fill="#2875D4" d="M51.021,69.308c-0.372,0-0.73-0.131-1.017-0.377c-0.67-0.557-0.759-1.551-0.203-2.221l1.371-1.733
				c0.051-0.065,0.116-0.116,0.189-0.15c0.082-0.044,0.173-0.077,0.271-0.063c1.17,0.044,1.542-0.69,1.694-1.314
				c0.035-0.164-0.079-0.903-0.577-1.589c-0.014-0.02-0.026-0.04-0.038-0.062c-0.038-0.04-0.104-0.127-0.125-0.155
				c-0.006-0.009-0.044-0.059-0.159-0.152c-0.112-0.091-0.182-0.222-0.195-0.365c-0.013-0.143,0.032-0.285,0.125-0.395l2.648-3.115
				l-2.366-3.612c-0.128-0.022-0.252-0.079-0.361-0.171c-0.249-0.221-0.345-0.444-0.338-0.675c0.008-0.214,0.107-0.41,0.272-0.538
				l2.756-1.91c0.239-0.135,0.476-0.142,0.687-0.046c0.218,0.099,0.379,0.298,0.429,0.534c0.046,0.173,0.045,0.334,0.005,0.473
				l0.66,1.271c0.16-1.121,0.631-2.183,1.39-3.068c0.19-0.224,0.403-0.44,0.646-0.655l-0.077-0.109
				c-0.17-0.241-0.114-0.574,0.127-0.745c0.24-0.169,0.573-0.115,0.745,0.127l0.363,0.513c0.165,0.233,0.118,0.555-0.107,0.73
				c-0.355,0.276-0.643,0.549-0.883,0.832c-1.127,1.313-1.484,3.1-0.959,4.786c0.002,0.005,0.003,0.009,0.004,0.014
				c0.286,0.883,0.821,1.681,1.546,2.302c0.713,0.611,1.583,1.004,2.518,1.136c0.006,0.001,0.013,0.002,0.018,0.003
				c1.233,0.171,2.479-0.106,3.512-0.784c0.235-0.155,0.557-0.1,0.724,0.131l0.375,0.513c0.174,0.238,0.122,0.572-0.116,0.747
				c-0.238,0.173-0.573,0.123-0.746-0.116l-0.088-0.119c-1.073,0.583-2.295,0.832-3.522,0.72l-5.98,7.068
				c-0.808,0.935-2.095,1.244-3.203,0.816l-0.813,0.967c-0.275,0.323-0.656,0.519-1.074,0.552
				C51.106,69.306,51.063,69.308,51.021,69.308z M51.856,65.831l-1.227,1.55c-0.184,0.222-0.158,0.548,0.051,0.721
				c0.12,0.103,0.249,0.145,0.383,0.135c0.134-0.011,0.256-0.074,0.343-0.177l1.077-1.28c0.167-0.199,0.453-0.249,0.678-0.117
				c0.742,0.432,1.694,0.27,2.265-0.39l5.589-6.607c-0.795-0.239-1.533-0.641-2.167-1.186c-0.865-0.741-1.507-1.691-1.857-2.751
				l-1.956-3.767l-1.69,1.172l2.772,4.231c0.13,0.198,0.114,0.458-0.04,0.639l-2.589,3.045c0.071,0.082,0.116,0.155,0.144,0.201
				c0.008,0.014,0.016,0.028,0.023,0.043c0.537,0.771,0.841,1.79,0.709,2.397C54.045,65,53.118,65.78,51.856,65.831z"/>
		</g>
		<g>
			<path fill="#FFFFFF" d="M38.339,116.577c-2.246,0-10.131,0-10.131,0v3.274c0,0,11.131,0,12.23,0
				C40.438,119.091,40.585,116.577,38.339,116.577z"/>
			<path fill="#666666" d="M40.438,120.385H28.209c-0.295,0-0.534-0.239-0.534-0.534v-3.274c0-0.295,0.239-0.534,0.534-0.534h10.13
				c0.737,0,1.336,0.228,1.782,0.679c0.871,0.879,0.859,2.312,0.852,3.001l-0.001,0.128
				C40.972,120.146,40.733,120.385,40.438,120.385z M28.743,119.316h11.161c-0.014-0.586-0.098-1.395-0.541-1.843
				c-0.242-0.244-0.577-0.362-1.024-0.362h-9.596V119.316z"/>
		</g>
		<g>
			<path fill="#FFFFFF" d="M13.38,116.001c-1.7-1.468-7.668-6.621-7.668-6.621l-2.139,2.478c0,0,8.425,7.275,9.257,7.993
				C13.326,119.276,15.08,117.468,13.38,116.001z"/>
			<path fill="#666666" d="M12.829,120.385c-0.124,0-0.248-0.043-0.35-0.13l-9.257-7.992c-0.223-0.192-0.247-0.53-0.055-0.753
				l2.139-2.478c0.093-0.107,0.224-0.173,0.366-0.184c0.137-0.015,0.281,0.035,0.388,0.128l7.668,6.621
				c0.558,0.481,0.863,1.046,0.906,1.678c0.085,1.236-0.863,2.313-1.318,2.83l-0.083,0.095
				C13.128,120.322,12.979,120.385,12.829,120.385z M4.326,111.803l8.448,7.294c0.372-0.452,0.838-1.12,0.795-1.749
				c-0.024-0.342-0.199-0.651-0.538-0.943l-7.264-6.272L4.326,111.803z"/>
		</g>
		<g>
			<path fill="#FFFFFF" d="M28.488,47.951c3.618,1.305,7.609-0.569,8.905-4.178c0.121-0.354,0.224-0.709,0.289-1.063
				c-4.094-0.662-9.176-1.762-13.596-2.965C23.247,43.168,25.103,46.73,28.488,47.951z"/>
			<path fill="#666666" d="M30.852,48.901L30.852,48.901c-0.867,0-1.724-0.15-2.546-0.447c-3.616-1.305-5.654-5.104-4.739-8.836
				c0.034-0.14,0.123-0.26,0.247-0.333c0.124-0.074,0.271-0.094,0.411-0.055c4.325,1.177,9.387,2.281,13.542,2.953
				c0.142,0.023,0.268,0.102,0.351,0.219c0.083,0.117,0.115,0.263,0.09,0.404c-0.064,0.345-0.162,0.707-0.309,1.14
				C36.834,46.913,34.002,48.901,30.852,48.901z M24.497,40.41c-0.477,3.021,1.244,5.983,4.172,7.04
				c0.705,0.255,1.44,0.383,2.183,0.383c2.701,0,5.127-1.703,6.038-4.239c0.054-0.16,0.101-0.308,0.141-0.449
				C33.133,42.491,28.533,41.487,24.497,40.41z"/>
		</g>
		<g>
			<path fill="#FFFFFF" d="M40.819,41.867c0,0-0.934-0.475-1.824-1.326c-0.89-0.851-0.034-5.009-5.616-7.023
				c-8.067-2.911-10.408,5.938-10.408,5.938c5.428,1.538,12.793,3.12,17.608,3.676C40.677,42.771,40.819,41.867,40.819,41.867z"/>
			<path fill="#666666" d="M40.578,43.665c-0.02,0-0.041-0.001-0.062-0.004c-4.634-0.535-11.908-2.053-17.691-3.692
				c-0.28-0.079-0.444-0.369-0.37-0.651c0.019-0.069,1.899-6.923,7.839-6.923c1.029,0,2.127,0.209,3.267,0.62
				c4.355,1.571,5.045,4.411,5.457,6.107c0.104,0.428,0.221,0.912,0.347,1.032c0.818,0.781,1.689,1.232,1.698,1.236
				c0.206,0.105,0.32,0.331,0.285,0.559c-0.016,0.095-0.15,0.945-0.254,1.322C41.028,43.506,40.816,43.665,40.578,43.665z
				 M23.646,39.09c5.443,1.512,12.064,2.896,16.513,3.452c0.025-0.131,0.05-0.269,0.072-0.394c-0.374-0.225-0.997-0.64-1.606-1.22
				c-0.352-0.336-0.482-0.873-0.647-1.553c-0.385-1.584-0.966-3.978-4.782-5.355c-1.022-0.369-1.999-0.556-2.904-0.556
				C25.996,33.464,24.161,37.617,23.646,39.09z"/>
		</g>
		<g>
			<path fill="#FFFFFF" d="M25.86,89.404c-0.032,2.073-0.128,5.631-0.31,5.951c-0.588,1.036-15.011,18.195-15.011,18.195
				l-4.829-4.167c0,0,13.024-14.423,13.238-16.923c0.15-1.603-0.491-11.047-0.801-15.065c0.694,2.34,2.073,5.171,3.59,6.795
				C22.794,85.333,24.471,87.459,25.86,89.404z"/>
			<path fill="#666666" d="M10.539,114.084c-0.127,0-0.251-0.046-0.348-0.13l-4.829-4.167c-0.11-0.094-0.175-0.227-0.185-0.371
				c-0.009-0.143,0.041-0.285,0.137-0.391c4.988-5.525,12.957-14.921,13.102-16.611c0.145-1.556-0.49-10.937-0.801-14.978
				c-0.022-0.272,0.166-0.517,0.435-0.567c0.273-0.051,0.531,0.113,0.609,0.373c0.622,2.094,1.935,4.941,3.468,6.583
				c1.063,1.149,2.738,3.266,4.168,5.268c0.066,0.093,0.101,0.204,0.099,0.318c-0.086,5.692-0.299,6.067-0.38,6.207
				c-0.594,1.048-13.587,16.514-15.066,18.275c-0.092,0.11-0.224,0.177-0.366,0.189C10.567,114.083,10.554,114.084,10.539,114.084z
				 M6.472,109.335l4.007,3.457c5.779-6.878,14.197-16.98,14.607-17.7c0.082-0.291,0.191-2.619,0.237-5.52
				c-1.382-1.926-2.968-3.928-3.978-5.019c-0.94-1.006-1.759-2.348-2.411-3.691c0.292,4.222,0.67,10.325,0.547,11.648
				C19.271,94.947,8.872,106.662,6.472,109.335z"/>
		</g>
		<g>
			<path fill="#FFFFFF" d="M53.842,63.58c-0.139,0.556-0.662,1.945-2.543,1.709c-2.212-0.278-11.987-1.218-14.231-2.051
				c-0.791-0.299-5.267-3.333-5.267-3.333c-3.633-2.308-7.92-5.48-7.912-8.386c0.001-0.224,0.476-0.813,0.519-0.856
				c1.613-1.859,2.863-1.421,3.633-0.876c2.821,1.998,8.12,8.045,10.727,8.74c2.286,0.609,12.458,1.571,13.59,2.244
				C53.479,61.444,53.97,63.025,53.842,63.58z"/>
			<path fill="#666666" d="M51.709,65.851c-0.15,0-0.309-0.01-0.477-0.031c-0.424-0.053-1.126-0.131-2-0.227
				c-5.069-0.56-10.62-1.211-12.35-1.853c-0.829-0.313-4.917-3.078-5.381-3.392c-3.494-2.219-8.156-5.559-8.148-8.83
				c0.002-0.499,0.67-1.225,0.676-1.232c1.38-1.595,2.897-1.943,4.318-0.934c1.099,0.778,2.532,2.124,4.049,3.549
				c2.352,2.209,5.018,4.713,6.506,5.11c0.957,0.255,3.5,0.595,5.961,0.923c4.374,0.585,7.078,0.969,7.765,1.377
				c1.283,0.769,1.925,2.558,1.733,3.389C54.026,65.05,53.034,65.851,51.709,65.851z M26.711,49.85c-0.592,0-1.23,0.392-1.9,1.163
				c-0.114,0.128-0.361,0.471-0.399,0.584c0.002,2.983,5.777,6.651,7.675,7.857c1.724,1.168,4.636,3.083,5.169,3.285
				c1.748,0.649,8.477,1.392,12.094,1.792c0.881,0.097,1.588,0.175,2.016,0.229c1.303,0.164,1.79-0.64,1.957-1.309
				c0.073-0.317-0.322-1.671-1.241-2.222c-0.547-0.324-4.484-0.851-7.36-1.235c-2.607-0.348-5.072-0.678-6.094-0.951
				c-1.749-0.466-4.399-2.955-6.962-5.363c-1.49-1.399-2.896-2.721-3.936-3.456C27.377,49.972,27.043,49.85,26.711,49.85z"/>
		</g>
		<g>
			<path fill="#FFFFFF" d="M28.209,116.577h6.116c0,0,0.656-19.04,0-23.294c-0.656-4.253-6.163-11.213-6.116-14.143
				c0.035-1.758,2.223-12.142,3.594-19.231c-3.632-2.308-7.179-5.612-7.917-8.518c0-0.009-1.241,2.092-1.568,3.192
				c-2.106,7.089-4.824,19.072-4.608,20.842c0.293,2.449,2.051,6.644,4.031,8.765c1.969,2.133,6.093,7.686,6.433,9.093
				C28.514,94.701,28.209,116.577,28.209,116.577z"/>
			<path fill="#666666" d="M34.326,117.111H28.21c-0.143,0-0.28-0.057-0.381-0.159c-0.1-0.102-0.155-0.239-0.153-0.382
				c0.122-8.766,0.217-22.169-0.021-23.162c-0.286-1.183-4.212-6.587-6.305-8.855c-2.085-2.233-3.871-6.57-4.169-9.064
				c-0.244-2.008,2.709-14.602,4.626-21.058c0.01-0.035,1.394-3.574,2.079-3.574c0.244,0,0.458,0.166,0.518,0.403
				c0.74,2.913,4.455,6.145,7.686,8.199c0.185,0.117,0.28,0.336,0.238,0.552c-0.372,1.925-0.804,4.093-1.238,6.266
				C29.948,72,28.768,77.918,28.744,79.151c-0.021,1.315,1.368,3.837,2.711,6.276c1.502,2.727,3.055,5.547,3.399,7.775
				c0.656,4.254,0.032,22.614,0.006,23.393C34.85,116.883,34.614,117.111,34.326,117.111z M28.751,116.043h5.058
				c0.098-3.072,0.57-18.911-0.011-22.678c-0.315-2.041-1.822-4.777-3.278-7.422c-1.54-2.795-2.87-5.21-2.844-6.81
				c0.026-1.33,1.163-7.03,2.366-13.064c0.407-2.038,0.813-4.072,1.168-5.904c-2.925-1.909-6.152-4.725-7.43-7.497
				c-0.359,0.668-0.787,1.522-0.948,2.07c-2.166,7.287-4.783,19.045-4.591,20.626c0.279,2.327,2.002,6.44,3.892,8.464
				c1.873,2.029,6.178,7.744,6.562,9.331C29.02,94.519,28.803,112.166,28.751,116.043z"/>
		</g>
	</g>
</g>
<g>
	<g>
		<g>
			<g>
				<g>
					<g>
						<polygon fill="#FFFFFF" points="107.427,11.217 86.73,19.177 77.623,22.679 77.623,102.432 86.73,105.934 107.427,113.894 
							122.914,119.851 122.914,5.261 						"/>
						<path fill="#666666" d="M122.915,120.385c-0.065,0-0.129-0.011-0.192-0.035L77.43,102.93
							c-0.207-0.079-0.342-0.278-0.342-0.499V22.679c0-0.221,0.136-0.419,0.342-0.499l45.292-17.419
							c0.166-0.063,0.348-0.041,0.495,0.058c0.145,0.1,0.232,0.264,0.232,0.44v114.59c0,0.176-0.087,0.341-0.232,0.44
							C123.127,120.353,123.021,120.385,122.915,120.385z M78.156,102.065l44.224,17.008V6.038L78.156,23.046V102.065z"/>
					</g>
				</g>
			</g>
		</g>
	</g>
	<g>
		<polygon fill="#FFFFFF" points="107.427,17.186 86.73,24.221 81.642,25.95 81.642,98.819 86.73,100.532 107.427,107.501 
			115.331,110.163 115.331,14.5 		"/>
		<path fill="#666666" d="M115.332,110.697c-0.057,0-0.115-0.009-0.17-0.028L81.472,99.325c-0.218-0.073-0.364-0.276-0.364-0.506
			V25.95c0-0.229,0.146-0.432,0.362-0.506l33.689-11.45c0.164-0.055,0.343-0.028,0.483,0.072c0.14,0.1,0.223,0.262,0.223,0.434
			v95.663c0,0.172-0.082,0.333-0.222,0.434C115.552,110.663,115.442,110.697,115.332,110.697z M82.177,98.435l32.621,10.984V15.246
			L82.177,26.332V98.435z"/>
	</g>
	<g>
		<path fill="#666666" d="M86.672,62.229l5.519-0.016c0.181-0.001,0.329-0.169,0.329-0.376c0-0.218-0.148-0.385-0.329-0.383
			l-5.519,0.051V62.229z"/>
	</g>
	<g>
		<path fill="#666666" d="M86.335,62.632v-1.526l2.088-0.027c-0.28-0.979-1.01-1.691-1.92-1.665
			c-1.122,0.031-2.016,1.136-2.016,2.467s0.894,2.425,2.016,2.442c0.909,0.014,1.64-0.706,1.92-1.689L86.335,62.632z"/>
	</g>
</g>
</svg>
