<?xml version="1.0" encoding="utf-8"?>
<!-- Generator: Adobe Illustrator 17.0.0, SVG Export Plug-In . SVG Version: 6.00 Build 0)  -->
<!DOCTYPE svg PUBLIC "-//W3C//DTD SVG 1.1//EN" "http://www.w3.org/Graphics/SVG/1.1/DTD/svg11.dtd">
<svg version="1.1" id="Слой_1" xmlns="http://www.w3.org/2000/svg" xmlns:xlink="http://www.w3.org/1999/xlink" x="0px" y="0px"
	 width="180px" height="155px" viewBox="0 0 180 155" enable-background="new 0 0 180 155" xml:space="preserve">
<polygon fill="#FFFFFF" stroke="#2875D4" stroke-linecap="round" stroke-linejoin="round" stroke-miterlimit="10" points="
	161.082,151.926 68.436,113.015 68.436,2.899 161.082,41.811 "/>
<polygon fill="#FFFFFF" stroke="#2875D4" stroke-linecap="round" stroke-linejoin="round" stroke-miterlimit="10" points="
	130.803,24.871 98.715,11.394 98.715,2.899 130.803,16.377 "/>
<polygon fill="#FFFFFF" stroke="#2875D4" stroke-linecap="round" stroke-linejoin="round" stroke-miterlimit="10" points="
	178.279,82.552 178.279,111.911 168.925,107.986 168.925,78.627 "/>
<polygon fill="#FFFFFF" stroke="#2875D4" stroke-width="0.6" stroke-linecap="round" stroke-linejoin="round" stroke-miterlimit="10" points="
	172.756,82.878 172.756,85.634 170.586,84.723 170.586,81.967 "/>
<polygon fill="#FFFFFF" stroke="#2875D4" stroke-width="0.6" stroke-linecap="round" stroke-linejoin="round" stroke-miterlimit="10" points="
	102.854,7.354 102.854,10.11 100.684,9.199 100.684,6.443 "/>
<polygon fill="#FFFFFF" stroke="#2875D4" stroke-width="0.6" stroke-linecap="round" stroke-linejoin="round" stroke-miterlimit="10" points="
	107.603,9.438 107.603,12.194 105.433,11.284 105.433,8.528 "/>
<polygon fill="#FFFFFF" stroke="#2875D4" stroke-width="0.6" stroke-linecap="round" stroke-linejoin="round" stroke-miterlimit="10" points="
	112.517,11.272 112.517,14.028 110.347,13.117 110.347,10.361 "/>
<polygon fill="#FFFFFF" stroke="#2875D4" stroke-width="0.6" stroke-linecap="round" stroke-linejoin="round" stroke-miterlimit="10" points="
	117.182,13.105 117.182,15.861 115.012,14.95 115.012,12.194 "/>
<polygon fill="#FFFFFF" stroke="#2875D4" stroke-width="0.6" stroke-linecap="round" stroke-linejoin="round" stroke-miterlimit="10" points="
	122.096,15.537 122.096,18.293 119.926,17.382 119.926,14.626 "/>
<polygon fill="#FFFFFF" stroke="#2875D4" stroke-width="0.6" stroke-linecap="round" stroke-linejoin="round" stroke-miterlimit="10" points="
	126.811,17.621 126.811,20.377 124.641,19.467 124.641,16.711 "/>
<polygon fill="#FFFFFF" stroke="#2875D4" stroke-width="0.6" stroke-linecap="round" stroke-linejoin="round" stroke-miterlimit="10" points="
	176.272,84.343 176.272,87.098 174.102,86.188 174.102,83.432 "/>
<polygon fill="#FFFFFF" stroke="#2875D4" stroke-width="0.6" stroke-linecap="round" stroke-linejoin="round" stroke-miterlimit="10" points="
	172.756,88.009 172.756,90.765 170.586,89.854 170.586,87.098 "/>
<polygon fill="#FFFFFF" stroke="#2875D4" stroke-width="0.6" stroke-linecap="round" stroke-linejoin="round" stroke-miterlimit="10" points="
	176.272,89.474 176.272,92.23 174.102,91.319 174.102,88.563 "/>
<polygon fill="#FFFFFF" stroke="#2875D4" stroke-width="0.6" stroke-linecap="round" stroke-linejoin="round" stroke-miterlimit="10" points="
	172.756,93.14 172.756,95.896 170.586,94.986 170.586,92.23 "/>
<polygon fill="#FFFFFF" stroke="#2875D4" stroke-width="0.6" stroke-linecap="round" stroke-linejoin="round" stroke-miterlimit="10" points="
	176.272,94.605 176.272,97.361 174.102,96.45 174.102,93.694 "/>
<polygon fill="#FFFFFF" stroke="#2875D4" stroke-width="0.6" stroke-linecap="round" stroke-linejoin="round" stroke-miterlimit="10" points="
	172.756,98.271 172.756,101.027 170.586,100.117 170.586,97.361 "/>
<polygon fill="#FFFFFF" stroke="#2875D4" stroke-width="0.6" stroke-linecap="round" stroke-linejoin="round" stroke-miterlimit="10" points="
	176.272,99.736 176.272,102.492 174.102,101.581 174.102,98.825 "/>
<polygon fill="#FFFFFF" stroke="#2875D4" stroke-width="0.6" stroke-linecap="round" stroke-linejoin="round" stroke-miterlimit="10" points="
	172.756,103.765 172.756,106.521 170.586,105.61 170.586,102.855 "/>
<polygon fill="#FFFFFF" stroke="#2875D4" stroke-width="0.6" stroke-linecap="round" stroke-linejoin="round" stroke-miterlimit="10" points="
	176.272,105.23 176.272,107.986 174.102,107.075 174.102,104.319 "/>
<polygon fill="#FFFFFF" stroke="#2875D4" stroke-linecap="round" stroke-linejoin="round" stroke-miterlimit="10" points="
	75.78,5.979 75.78,116.09 68.443,113.008 68.443,2.898 "/>
<g>
	
		<rect x="43.219" y="51.062" transform="matrix(-0.9763 -0.2162 0.2162 -0.9763 150.9578 160.7337)" fill="#FFFFFF" stroke="#666666" stroke-linecap="round" stroke-linejoin="round" stroke-miterlimit="10" width="82.106" height="42.095"/>
</g>
<path fill="#FFFFFF" stroke="#666666" stroke-linecap="round" stroke-linejoin="round" stroke-miterlimit="10" d="M129.56,127.741
	c2.158,0,9.734,0,9.734,0v3.145c0,0-10.695,0-11.751,0C127.543,130.157,127.403,127.741,129.56,127.741z"/>
<path fill="#FFFFFF" stroke="#666666" stroke-linecap="round" stroke-linejoin="round" stroke-miterlimit="10" d="M158.018,123.316
	v4.161c-1.858,1.604-3.605,3.113-3.955,3.415c-0.477-0.556-2.16-2.287-0.524-3.7C154.381,126.461,156.335,124.777,158.018,123.316z"
	/>
<path fill="#FFFFFF" stroke="#666666" stroke-linecap="round" stroke-linejoin="round" stroke-miterlimit="10" d="M130.469,57.789
	c-0.116-0.34-0.215-0.681-0.278-1.022c3.933-0.636,8.817-1.693,13.063-2.849c0.807,3.288-0.976,6.711-4.229,7.885
	C135.549,63.058,131.714,61.257,130.469,57.789z"/>
<path fill="#FFFFFF" stroke="#666666" stroke-linecap="round" stroke-linejoin="round" stroke-miterlimit="10" d="M126.987,55.98
	c0,0,0.897-0.456,1.753-1.274c0.855-0.818,0.033-4.813,5.396-6.748c7.751-2.797,10.001,5.705,10.001,5.705
	c-5.215,1.478-12.291,2.998-16.918,3.532C127.124,56.849,126.987,55.98,126.987,55.98z"/>
<path fill="#FFFFFF" stroke="#666666" stroke-linecap="round" stroke-linejoin="round" stroke-miterlimit="10" d="M158.018,118.011
	v4.193l-2.319,1.906c0,0-13.294-15.771-13.849-16.756c-0.191-0.333-0.572-3.458-0.587-5.301c1.286-1.953,2.863-3.954,4.245-5.431
	c0.857-0.921,2.489-4.223,3.156-5.557c-0.302,3.843-0.619,11.968-0.476,13.509C148.33,106.322,154.635,114.009,158.018,118.011z"/>
<path fill="#FFFFFF" stroke="#666666" stroke-linecap="round" stroke-linejoin="round" stroke-miterlimit="10" d="M35.522,127.741
	c-2.158,0-9.734,0-9.734,0v3.145c0,0,10.695,0,11.751,0C37.539,130.157,37.68,127.741,35.522,127.741z"/>
<path fill="#FFFFFF" stroke="#666666" stroke-linecap="round" stroke-linejoin="round" stroke-miterlimit="10" d="M11.541,127.187
	c-1.633-1.41-7.368-6.361-7.368-6.361l-2.056,2.381c0,0,8.095,6.99,8.894,7.679C11.489,130.334,13.174,128.597,11.541,127.187z"/>
<path fill="#FFFFFF" stroke="#666666" stroke-linecap="round" stroke-linejoin="round" stroke-miterlimit="10" d="M34.614,57.789
	c0.116-0.34,0.215-0.681,0.278-1.022c-3.933-0.636-8.817-1.693-13.063-2.849c-0.807,3.288,0.976,6.711,4.229,7.885
	C29.534,63.058,33.369,61.257,34.614,57.789z"/>
<path fill="#FFFFFF" stroke="#666666" stroke-linecap="round" stroke-linejoin="round" stroke-miterlimit="10" d="M38.061,56.008
	c0,0-0.897-0.456-1.753-1.274c-0.855-0.818-0.033-4.813-5.396-6.748c-7.751-2.797-10.001,5.705-10.001,5.705
	c5.215,1.478,12.291,2.998,16.918,3.532C37.924,56.877,38.061,56.008,38.061,56.008z"/>
<path fill="#FFFFFF" stroke="#666666" stroke-linecap="round" stroke-linejoin="round" stroke-miterlimit="10" d="M4.173,120.826
	l4.586,3.959c0,0,13.912-16.443,14.475-17.433c0.191-0.338,0.281-3.864,0.304-5.699c-1.295-1.959-2.59-3.544-3.963-5.03
	c-0.856-0.912-2.884-5.524-3.548-6.853c0.304,3.85,1.004,13.259,0.869,14.801C16.682,106.969,4.173,120.826,4.173,120.826z"/>
<polygon fill="#FFFFFF" stroke="#2875D4" stroke-width="0.6" stroke-linecap="round" stroke-linejoin="round" stroke-miterlimit="10" points="
	132.771,23.547 134.68,19.642 136.227,25.054 "/>
<polygon fill="#FFFFFF" stroke="#2875D4" stroke-width="0.6" stroke-linecap="round" stroke-linejoin="round" stroke-miterlimit="10" points="
	96.696,4.299 95.033,8.315 93.152,3.01 "/>
<path fill="#FFFFFF" stroke="#666666" stroke-linecap="round" stroke-linejoin="round" stroke-miterlimit="10" d="M31.666,105.36
	c-0.63-4.087-5.922-10.774-5.877-13.589c0.024-1.187,0.791-5.749,1.793-10.699c0.916-4.768,1.688-10.954,1.688-10.954
	c0.193-1.67,0.136-3.293-0.538-4.325c-0.452-0.692-1.399-1.234-2.502-1.538c-5.1-1.75-6.067,3.81-6.067,3.81
	c-2.028,6.796-4.67,18.426-4.461,20.137c0.281,2.353,1.97,6.384,3.873,8.421c1.892,2.049,5.854,7.385,6.181,8.736
	c0.327,1.362,0.033,22.381,0.033,22.381h5.876C31.665,127.741,32.297,109.446,31.666,105.36z"/>
<path fill="#FFFFFF" stroke="#666666" stroke-linecap="round" stroke-linejoin="round" stroke-miterlimit="10" d="M22.569,64.358
	c-4.386,2.035,4.49,14.384,6.127,16.004c1.638,1.62,9.838,6.297,11.665,7.411c1.555,0.948,2.56-0.063,2.897-0.494
	c0.337-0.431,0.532-2.014-0.191-3.048c-0.723-1.034-9.254-5.885-11.02-7.325c-2.007-1.638-4.266-9.026-5.953-11.89
	C25.639,64.242,24.712,63.364,22.569,64.358z"/>
<path fill="#FFFFFF" stroke="#666666" stroke-linecap="round" stroke-linejoin="round" stroke-miterlimit="10" d="M144.743,67.482
	c-0.446-1.687-1.425-4.74-6.157-3.291c-1.552,0.475-2.009,1.248-2.49,1.921c-0.717,1.003-0.645,2.793-0.547,3.731
	c0.247,2.369,0.866,5.916,1.572,9.397h0h0c1.181,5.615,2.144,11.199,2.171,12.531c0.045,2.815-5.247,9.502-5.877,13.589
	c-0.63,4.087,0,22.381,0,22.381h5.877c0,0-0.293-21.019,0.034-22.381c0.326-1.351,4.289-6.688,6.181-8.736
	c1.903-2.038,3.591-6.068,3.873-8.421C149.595,86.441,146.078,72.538,144.743,67.482z"/>
<polygon fill="#FFFFFF" stroke="#666666" stroke-linecap="round" stroke-linejoin="round" stroke-miterlimit="10" points="
	45.742,79.885 52.638,48.785 122.793,64.323 115.91,95.422 "/>
<g>
	<path fill="#666666" d="M82.318,81.734l1.285-5.803c0.04-0.182-0.075-0.362-0.256-0.402c-0.191-0.042-0.372,0.073-0.412,0.254
		l-1.285,5.803L82.318,81.734z"/>
</g>
<g>
	<path fill="#666666" d="M82.609,82.189l-1.414-0.313l0.504-2.274c-0.963,0.102-1.805,0.744-2.026,1.742
		c-0.278,1.254,0.514,2.496,1.768,2.774c1.254,0.278,2.496-0.514,2.774-1.768c0.221-0.998-0.272-1.936-1.102-2.434L82.609,82.189z"
		/>
</g>
<path fill="#FFFFFF" stroke="#666666" stroke-linecap="round" stroke-linejoin="round" stroke-miterlimit="10" d="M143.36,64.656
	c4.163,2.457-5.886,13.872-7.676,15.322c-1.79,1.45-10.411,5.296-12.339,6.224c-1.641,0.79-2.541-0.315-2.834-0.777
	c-0.293-0.462-0.331-2.057,0.491-3.015c0.822-0.958,9.789-4.944,11.688-6.203c2.159-1.432,5.136-8.561,7.096-11.245
	C140.316,64.238,141.325,63.455,143.36,64.656z"/>
<polygon fill="#FFFFFF" stroke="#2875D4" stroke-linecap="round" stroke-linejoin="round" stroke-miterlimit="10" points="
	161.088,41.809 161.088,151.919 143.793,144.661 143.793,34.551 "/>
</svg>
