<?xml version="1.0" encoding="utf-8"?>
<!-- Generator: Adobe Illustrator 17.0.0, SVG Export Plug-In . SVG Version: 6.00 Build 0)  -->
<!DOCTYPE svg PUBLIC "-//W3C//DTD SVG 1.1//EN" "http://www.w3.org/Graphics/SVG/1.1/DTD/svg11.dtd">
<svg version="1.1" id="Слой_1" xmlns="http://www.w3.org/2000/svg" xmlns:xlink="http://www.w3.org/1999/xlink" x="0px" y="0px"
	 width="110px" height="85px" viewBox="0 0 110 85" enable-background="new 0 0 110 85" xml:space="preserve">
<g>
	<g>
		<g>
			<g>
				<path fill="#FFFFFF" stroke="#2875D4" stroke-linecap="round" stroke-linejoin="round" stroke-miterlimit="10" d="
					M106.273,25.735c-33.419-8.655-70.515-8.655-103.934,0"/>
				<path fill="#FFFFFF" stroke="#2875D4" stroke-linecap="round" stroke-linejoin="round" stroke-miterlimit="10" d="M2.338,6.427
					c33.519-7.915,70.415-7.915,103.934,0"/>
			</g>
			<g>
				<g>
					<path fill="#2875D4" d="M26.303,13.823c-0.34,0.04-0.68,0.1-1.019,0.14c-0.24-1.759-0.48-3.498-0.72-5.237
						c-1.679,0.22-3.338,0.48-4.997,0.74c0.06,1.159,0.04,2.199-0.08,3.138c-0.12,0.919-0.34,1.699-0.62,2.358
						c-0.2,0.02-0.4,0.06-0.58,0.1c0.2,1.199,0.42,2.419,0.62,3.638c0.56-0.1,1.119-0.2,1.659-0.28
						c-0.12-0.78-0.26-1.559-0.38-2.339c1.539-0.26,3.078-0.5,4.617-0.72c0.1,0.78,0.22,1.559,0.32,2.358
						c0.56-0.08,1.119-0.16,1.679-0.24C26.642,16.261,26.462,15.042,26.303,13.823z M20.826,14.622c0.22-0.62,0.38-1.259,0.46-1.939
						c0.08-0.68,0.1-1.379,0.1-2.139c0.48-0.06,0.959-0.14,1.439-0.22c0.2,1.299,0.38,2.598,0.58,3.898
						C22.545,14.362,21.686,14.502,20.826,14.622z"/>
				</g>
				<g>
					<path fill="#2875D4" d="M33.598,10.965c-0.08-0.7-0.28-1.279-0.6-1.759c-0.34-0.5-0.78-0.839-1.319-1.059
						c-0.56-0.22-1.179-0.3-1.859-0.22c-1.099,0.12-1.899,0.52-2.439,1.199c-0.52,0.66-0.72,1.539-0.58,2.618
						c0.1,0.68,0.32,1.259,0.659,1.739c0.32,0.5,0.76,0.839,1.299,1.059c0.54,0.2,1.139,0.28,1.799,0.2
						c1.059-0.12,1.859-0.5,2.379-1.179C33.478,12.903,33.698,12.044,33.598,10.965z M31.459,12.684
						c-0.18,0.36-0.52,0.56-1.039,0.62c-0.5,0.06-0.879-0.06-1.159-0.38c-0.26-0.3-0.44-0.78-0.5-1.419
						c-0.08-0.66-0.04-1.159,0.16-1.519c0.18-0.34,0.54-0.56,1.039-0.62c0.52-0.06,0.919,0.08,1.179,0.38
						c0.26,0.3,0.42,0.78,0.5,1.419C31.699,11.824,31.639,12.324,31.459,12.684z"/>
				</g>
				<g>
					<path fill="#2875D4" d="M48.329,4.708c-0.919,0.02-1.819,0.06-2.718,0.08c-0.7,2.239-1.379,4.477-2.039,6.716
						c0,0-0.02,0-0.04,0c-0.82-2.159-1.679-4.317-2.558-6.476c-0.899,0.06-1.799,0.12-2.718,0.18c0.22,2.878,0.44,5.756,0.64,8.635
						c0.58-0.04,1.139-0.08,1.719-0.12c-0.1-1.339-0.18-2.678-0.26-4.017c-0.04-0.46-0.14-1.379-0.32-2.738
						c0.02-0.02,0.04-0.02,0.06-0.02c0.899,2.219,1.779,4.437,2.638,6.636c0.58-0.02,1.159-0.06,1.739-0.08
						c0.68-2.299,1.379-4.577,2.099-6.876h0.06c-0.02,1.099-0.02,1.759-0.02,2.019s0,0.48,0.02,0.68
						c0.04,1.359,0.1,2.718,0.14,4.077l1.799-0.06C48.489,10.465,48.409,7.587,48.329,4.708z"/>
				</g>
				<g>
					<path fill="#2875D4" d="M58.222,13.303c-1.139-1.519-2.298-3.018-3.478-4.517c1.139-1.399,2.279-2.758,3.458-4.137
						c-0.72,0-1.419-0.02-2.139-0.02c-1.139,1.379-2.239,2.778-3.338,4.197c-0.02-1.399-0.02-2.798-0.04-4.197
						c-0.659,0-1.319,0.02-1.999,0.02c0.06,2.878,0.1,5.776,0.16,8.655c0.64-0.02,1.279-0.02,1.919-0.02
						c-0.02-1.459-0.02-2.938-0.04-4.397c1.119,1.459,2.239,2.918,3.318,4.397C56.763,13.283,57.483,13.303,58.222,13.303z"/>
				</g>
				<g>
					<path fill="#2875D4" d="M64.139,4.809c-0.8-0.04-1.619-0.06-2.439-0.1c-1.199,2.858-2.358,5.716-3.478,8.595
						c0.68,0.02,1.379,0.04,2.059,0.06c0.24-0.68,0.48-1.359,0.72-2.039c1.119,0.02,2.219,0.08,3.338,0.12
						c0.18,0.7,0.36,1.399,0.56,2.099c0.68,0.04,1.359,0.06,2.059,0.12C66.057,10.705,65.118,7.747,64.139,4.809z M61.54,9.805
						c0.72-1.979,1.179-3.198,1.339-3.698c0.02,0.14,0.08,0.34,0.14,0.58c0.08,0.24,0.38,1.319,0.919,3.198
						C63.139,9.865,62.34,9.825,61.54,9.805z"/>
				</g>
				<g>
					<path fill="#2875D4" d="M75.312,12.803c0.24-2.379,0.48-4.737,0.7-7.096c-1.819-0.18-3.638-0.34-5.457-0.48
						c-0.28,1.299-0.639,2.518-1.079,3.618c-0.44,1.119-0.979,2.239-1.659,3.338c-0.24-0.02-0.48-0.04-0.7-0.04
						c-0.08,1.339-0.18,2.678-0.26,4.037c0.62,0.02,1.219,0.06,1.839,0.12c0.06-0.84,0.1-1.679,0.16-2.518
						c1.899,0.12,3.778,0.28,5.656,0.46c-0.08,0.839-0.16,1.679-0.24,2.518c0.6,0.06,1.219,0.12,1.819,0.18l0.42-4.017
						C76.111,12.883,75.711,12.843,75.312,12.803z M73.393,12.604c-1.179-0.1-2.358-0.2-3.558-0.28
						c0.46-0.779,0.859-1.659,1.259-2.638c0.4-0.979,0.7-1.919,0.899-2.818c0.64,0.06,1.279,0.12,1.899,0.18
						C73.733,8.906,73.553,10.745,73.393,12.604z"/>
				</g>
				<g>
					<path fill="#2875D4" d="M83.366,9.066c-0.44-0.44-1.159-0.74-2.099-0.859c-0.999-0.12-1.939-0.04-2.798,0.28
						c0.18,0.42,0.34,0.839,0.5,1.279c0.8-0.24,1.479-0.3,2.039-0.24c0.74,0.1,1.059,0.48,0.979,1.139c-0.02,0.1-0.02,0.2-0.04,0.28
						c-0.4-0.04-0.819-0.08-1.219-0.12c-1.059-0.08-1.859,0-2.419,0.28c-0.56,0.26-0.879,0.76-0.959,1.459
						c-0.06,0.66,0.06,1.199,0.42,1.599c0.34,0.4,0.819,0.64,1.499,0.72c0.52,0.06,0.979,0.04,1.319-0.06
						c0.36-0.1,0.72-0.32,1.079-0.659h0.06c0.08,0.32,0.16,0.64,0.24,0.939c0.44,0.06,0.879,0.12,1.319,0.18
						c0.2-1.459,0.4-2.898,0.6-4.357C84.006,10.145,83.826,9.526,83.366,9.066z M81.748,12.544c-0.06,0.38-0.24,0.68-0.52,0.899
						c-0.3,0.2-0.66,0.28-1.099,0.22c-0.62-0.08-0.879-0.36-0.82-0.879c0.04-0.34,0.2-0.6,0.5-0.74c0.28-0.14,0.7-0.18,1.259-0.12
						c0.26,0.02,0.5,0.04,0.74,0.08C81.788,12.184,81.768,12.364,81.748,12.544z"/>
				</g>
			</g>
		</g>
		<g>
			<g>
				
					<rect x="24.128" y="38.429" fill="#FFFFFF" stroke="#666666" stroke-linecap="round" stroke-linejoin="round" stroke-miterlimit="10" width="29.871" height="46.08"/>
			</g>
			<g>
				
					<rect x="53.999" y="56.182" fill="#FFFFFF" stroke="#666666" stroke-linecap="round" stroke-linejoin="round" stroke-miterlimit="10" width="30.483" height="28.327"/>
			</g>
			<g>
				<g>
					<g>
						<rect x="30.293" y="46.842" fill="#666666" width="6.252" height="6.252"/>
					</g>
					<g>
						<rect x="41.582" y="46.842" fill="#666666" width="6.252" height="6.252"/>
					</g>
				</g>
				<g>
					<g>
						<rect x="30.293" y="58.343" fill="#666666" width="6.252" height="6.252"/>
					</g>
					<g>
						<rect x="41.582" y="58.343" fill="#666666" width="6.252" height="6.252"/>
					</g>
				</g>
				<g>
					<g>
						<rect x="30.293" y="69.844" fill="#666666" width="6.252" height="6.252"/>
					</g>
					<g>
						<rect x="41.582" y="69.844" fill="#666666" width="6.252" height="6.252"/>
					</g>
					<g>
						<rect x="66.421" y="72.584" fill="#666666" width="6.252" height="11.925"/>
					</g>
					<g>
						<rect x="60.169" y="62.511" fill="#666666" width="6.252" height="6.252"/>
					</g>
					<g>
						<rect x="72.673" y="62.511" fill="#666666" width="6.252" height="6.252"/>
					</g>
				</g>
			</g>
		</g>
	</g>
</g>
</svg>
