<?xml version="1.0" encoding="utf-8"?>
<!-- Generator: Adobe Illustrator 17.0.0, SVG Export Plug-In . SVG Version: 6.00 Build 0)  -->
<!DOCTYPE svg PUBLIC "-//W3C//DTD SVG 1.1//EN" "http://www.w3.org/Graphics/SVG/1.1/DTD/svg11.dtd">
<svg version="1.1" id="Слой_1" xmlns="http://www.w3.org/2000/svg" xmlns:xlink="http://www.w3.org/1999/xlink" x="0px" y="0px"
	 width="125px" height="125px" viewBox="0 0 125 125" enable-background="new 0 0 125 125" xml:space="preserve">
<g>
	<g>
		<g>
			<path fill="#2875D4" d="M100.593,7.359H73.18c-0.352,0-0.638-0.255-0.638-0.569c0-0.315,0.285-0.569,0.638-0.569h27.413
				c0.352,0,0.638,0.255,0.638,0.569C101.231,7.104,100.946,7.359,100.593,7.359z"/>
		</g>
		<g>
			<path fill="#2875D4" d="M117.984,13.622c-0.352,0-0.638-0.255-0.638-0.569V7.359h-6.375c-0.352,0-0.638-0.255-0.638-0.569
				c0-0.315,0.285-0.569,0.638-0.569h7.013c0.352,0,0.638,0.255,0.638,0.569v6.263C118.622,13.367,118.337,13.622,117.984,13.622z"
				/>
		</g>
		<g>
			<path fill="#2875D4" d="M117.984,107.296c-0.352,0-0.638-0.255-0.638-0.569V94.604c0-0.315,0.285-0.569,0.638-0.569
				s0.638,0.255,0.638,0.569v12.123C118.622,107.042,118.337,107.296,117.984,107.296z M117.984,88.561
				c-0.352,0-0.638-0.255-0.638-0.569V75.869c0-0.315,0.285-0.569,0.638-0.569s0.638,0.255,0.638,0.569v12.123
				C118.622,88.306,118.337,88.561,117.984,88.561z M117.984,69.827c-0.352,0-0.638-0.255-0.638-0.569V57.135
				c0-0.315,0.285-0.569,0.638-0.569s0.638,0.255,0.638,0.569v12.123C118.622,69.572,118.337,69.827,117.984,69.827z
				 M117.984,51.091c-0.352,0-0.638-0.255-0.638-0.569V38.399c0-0.315,0.285-0.569,0.638-0.569s0.638,0.255,0.638,0.569v12.123
				C118.622,50.837,118.337,51.091,117.984,51.091z M117.984,32.357c-0.352,0-0.638-0.255-0.638-0.569V19.665
				c0-0.315,0.285-0.569,0.638-0.569s0.638,0.255,0.638,0.569v12.123C118.622,32.102,118.337,32.357,117.984,32.357z"/>
		</g>
		<g>
			<path fill="#2875D4" d="M117.984,120.171c-0.352,0-0.638-0.255-0.638-0.569v-6.263c0-0.315,0.285-0.569,0.638-0.569
				s0.638,0.255,0.638,0.569v6.263C118.622,119.916,118.337,120.171,117.984,120.171z"/>
		</g>
	</g>
	<g>
		<path fill="#2875D4" d="M117.984,120.171H73.18c-0.352,0-0.638-0.255-0.638-0.569s0.285-0.569,0.638-0.569h44.804
			c0.352,0,0.638,0.255,0.638,0.569S118.337,120.171,117.984,120.171z"/>
	</g>
	<g>
		<g>
			<path fill="#2875D4" d="M73.18,12.022c-0.163,0-0.326-0.056-0.451-0.167c-0.249-0.223-0.249-0.583,0-0.806l9.046-4.663
				l0.901,0.805l-9.046,4.664C73.506,11.966,73.343,12.022,73.18,12.022z"/>
		</g>
		<g>
			<path fill="#2875D4" d="M73.18,29.927c-0.163,0-0.326-0.056-0.451-0.167c-0.249-0.223-0.249-0.583,0-0.806
				c0.436-0.389,44.804-21.794,44.804-21.794l0.901,0.805c0,0-44.368,21.407-44.804,21.795
				C73.506,29.871,73.343,29.927,73.18,29.927z"/>
		</g>
		<g>
			<path fill="#2875D4" d="M73.18,47.833c-0.163,0-0.326-0.056-0.451-0.167c-0.249-0.222-0.249-0.583,0-0.805l44.804-21.795
				c0.249-0.222,0.652-0.222,0.901,0c0.249,0.222,0.249,0.583,0,0.805L73.631,47.666C73.506,47.777,73.343,47.833,73.18,47.833z"/>
		</g>
		<g>
			<path fill="#2875D4" d="M73.18,65.738c-0.163,0-0.326-0.056-0.451-0.167c-0.249-0.223-0.249-0.583,0-0.806
				c0.436-0.389,44.804-21.794,44.804-21.794l0.901,0.805c0,0-44.368,21.407-44.804,21.795
				C73.506,65.682,73.343,65.738,73.18,65.738z"/>
		</g>
		<g>
			<path fill="#2875D4" d="M73.18,83.643c-0.163,0-0.326-0.056-0.451-0.167c-0.249-0.223-0.249-0.583,0-0.806
				c0.436-0.389,44.804-21.794,44.804-21.794l0.901,0.805c0,0-44.368,21.407-44.804,21.795
				C73.506,83.587,73.343,83.643,73.18,83.643z"/>
		</g>
		<g>
			<path fill="#2875D4" d="M73.18,101.548c-0.163,0-0.326-0.056-0.451-0.167c-0.249-0.223-0.249-0.583,0-0.806
				c0.436-0.389,44.804-21.794,44.804-21.794l0.901,0.805c0,0-44.368,21.407-44.804,21.795
				C73.506,101.492,73.343,101.548,73.18,101.548z"/>
		</g>
		<g>
			<path fill="#2875D4" d="M73.18,119.453c-0.163,0-0.326-0.056-0.451-0.167c-0.249-0.222-0.249-0.583,0-0.805l44.804-21.795
				c0.249-0.222,0.652-0.222,0.901,0c0.249,0.222,0.249,0.583,0,0.805l-44.804,21.795C73.506,119.398,73.343,119.453,73.18,119.453z
				"/>
		</g>
		<g>
			<path fill="#2875D4" d="M113.939,120.111c-0.163,0-0.326-0.056-0.451-0.167c-0.249-0.222-0.249-0.583,0-0.805
				c1.532-1.369,4.057-3.52,4.057-3.52l0.879,0.824c0,0-2.51,2.14-4.034,3.501C114.265,120.055,114.102,120.111,113.939,120.111z"/>
		</g>
	</g>
	<g>
		<g>
			<g>
				<g>
					<g>
						<polygon fill="#FFFFFF" points="55.967,6.79 25.583,6.79 8.369,6.79 8.369,119.602 25.583,119.602 55.967,119.602 
							73.18,119.602 73.18,6.79 						"/>
						<path fill="#666666" d="M73.18,120.171H8.37c-0.352,0-0.638-0.255-0.638-0.569V6.789c0-0.315,0.285-0.569,0.638-0.569h64.81
							c0.352,0,0.638,0.255,0.638,0.569v112.812C73.817,119.916,73.532,120.171,73.18,120.171z M9.007,119.032h63.535V7.359H9.007
							V119.032z"/>
					</g>
				</g>
			</g>
		</g>
	</g>
	<g>
		<polygon fill="#FFFFFF" points="55.966,13.348 25.583,13.348 16.326,13.348 16.326,112.578 25.583,112.578 55.966,112.578 
			65.223,112.578 65.223,13.348 		"/>
		<path fill="#666666" d="M65.223,113.147H16.325c-0.352,0-0.638-0.255-0.638-0.569v-99.23c0-0.315,0.285-0.569,0.638-0.569h48.898
			c0.352,0,0.638,0.255,0.638,0.569v99.23C65.861,112.892,65.576,113.147,65.223,113.147z M16.963,112.008h47.623V13.917H16.963
			V112.008z"/>
	</g>
	<g>
		<path fill="#666666" d="M25.482,62.771h9.151c0.286,0,0.519-0.208,0.519-0.464c0-0.269-0.233-0.477-0.519-0.477h-9.151V62.771z"/>
	</g>
	<g>
		<path fill="#666666" d="M24.894,63.296v-1.992h3.587c-0.473-1.262-1.719-2.202-3.292-2.202c-1.978,0-3.581,1.432-3.581,3.198
			c0,1.766,1.603,3.198,3.581,3.198c1.573,0,2.819-0.94,3.293-2.203H24.894z"/>
	</g>
</g>
</svg>
