<?xml version="1.0" encoding="utf-8"?>
<!-- Generator: Adobe Illustrator 17.0.0, SVG Export Plug-In . SVG Version: 6.00 Build 0)  -->
<!DOCTYPE svg PUBLIC "-//W3C//DTD SVG 1.1//EN" "http://www.w3.org/Graphics/SVG/1.1/DTD/svg11.dtd">
<svg version="1.1" id="Слой_1" xmlns="http://www.w3.org/2000/svg" xmlns:xlink="http://www.w3.org/1999/xlink" x="0px" y="0px"
	 width="240px" height="400px" viewBox="0 0 240 400" enable-background="new 0 0 240 400" xml:space="preserve">
<rect x="4.176" y="1.771" fill="#E1E1E1" width="230.905" height="397.11"/>
<g>
	<rect x="225.155" y="1.724" fill="#BCBCBC" width="9.926" height="397.157"/>
	<rect x="228.137" y="1.724" fill="#E1E1E1" width="1.455" height="397.157"/>
</g>
<rect x="13.731" y="1.724" fill="#B5B5B5" width="211.425" height="11.14"/>
<rect x="13.731" y="9.798" fill="#E1E1E1" width="211.425" height="1.455"/>
<g>
	<rect x="4.176" y="1.724" fill="#BCBCBC" width="9.926" height="397.157"/>
	<rect x="9.665" y="1.724" fill="#E1E1E1" width="1.455" height="397.157"/>
</g>
<g opacity="0.3">
	<g>
		<polygon fill="#C6C6C6" points="49.924,169.149 59.119,174.407 60.652,175.244 60.652,259.86 59.119,261.384 49.924,270.703 		"/>
		<polygon fill="#B5B5B5" points="188.624,129.949 179.428,139.267 177.896,140.791 60.652,175.244 59.119,174.407 49.924,169.149 
					"/>
		<polygon fill="#C6C6C6" points="188.624,129.949 179.428,139.267 177.896,140.791 177.896,225.407 179.428,226.245 
			188.624,231.115 		"/>
		<polygon fill="#C6C6C6" points="188.624,129.949 179.428,139.267 59.119,174.407 49.924,169.149 		"/>
		<polygon fill="#B5B5B5" points="188.624,129.949 179.428,139.267 179.428,226.245 188.624,231.502 		"/>
		<polygon fill="#B5B5B5" points="49.924,169.149 59.119,174.407 59.119,261.384 49.924,270.703 		"/>
		<polygon fill="#B5B5B5" points="49.924,270.703 59.119,261.384 60.652,259.86 177.896,225.407 179.428,226.245 188.624,231.502 		
			"/>
		<polygon fill="#C6C6C6" points="49.924,270.703 59.119,261.384 179.428,226.245 188.624,231.502 		"/>
	</g>
	<g>
		<polygon fill="#C6C6C6" points="50.633,292.771 59.829,298.029 61.362,298.866 61.362,346.894 59.829,348.015 50.633,354.737 		
			"/>
		<polygon fill="#B5B5B5" points="189.334,253.571 180.138,262.889 178.606,264.413 61.362,298.866 59.829,298.029 50.633,292.771 
					"/>
		<polygon fill="#B5B5B5" points="189.334,354.737 180.138,348.015 178.606,346.894 61.362,346.894 50.633,354.737 		"/>
		<polygon fill="#C6C6C6" points="189.334,253.571 180.138,262.889 178.606,264.413 178.606,346.894 180.138,348.015 
			189.334,354.737 		"/>
		<polygon fill="#C6C6C6" points="189.334,253.571 180.138,262.889 59.829,298.029 50.633,292.771 		"/>
		<polygon fill="#B5B5B5" points="189.334,253.571 180.138,262.889 180.138,348.015 189.334,354.737 		"/>
		<polygon fill="#B5B5B5" points="50.633,292.771 59.829,298.029 59.829,348.015 50.633,354.737 		"/>
		<polygon fill="#C6C6C6" points="189.334,354.737 180.138,348.015 59.829,348.015 50.633,354.737 		"/>
	</g>
	<g>
		<polygon fill="#C6C6C6" points="189.334,107.881 180.138,102.623 178.606,101.785 178.606,53.758 180.138,52.637 189.334,45.914 
					"/>
		<polygon fill="#B5B5B5" points="50.633,147.081 59.829,137.762 61.362,136.238 178.606,101.785 180.138,102.623 189.334,107.881 
					"/>
		<polygon fill="#B5B5B5" points="50.633,45.914 59.829,52.637 61.362,53.758 178.606,53.758 189.334,45.914 		"/>
		<polygon fill="#C6C6C6" points="50.633,147.081 59.829,137.762 61.362,136.238 61.362,53.758 59.829,52.637 50.633,45.914 		"/>
		<polygon fill="#C6C6C6" points="50.633,147.081 59.829,137.762 180.138,102.623 189.334,107.881 		"/>
		<polygon fill="#B5B5B5" points="50.633,147.081 59.829,137.762 59.829,52.637 50.633,45.914 		"/>
		<polygon fill="#B5B5B5" points="189.334,107.881 180.138,102.623 180.138,52.637 189.334,45.914 		"/>
		<polygon fill="#C6C6C6" points="50.633,45.914 59.829,52.637 180.138,52.637 189.334,45.914 		"/>
	</g>
</g>
<rect x="13.916" y="387.741" fill="#B5B5B5" width="211.425" height="11.14"/>
<rect x="13.916" y="389.351" fill="#E1E1E1" width="211.425" height="1.455"/>
<g>
	
		<image overflow="visible" opacity="0.5" enable-background="new    " width="174" height="260" xlink:href="CBCC75D.png"  transform="matrix(1 0 0 1 36 69)">
	</image>
	<g>
		<g>
			<path fill="#FFFFFF" d="M133.608,207.705v35.097h-30.53v-60.491c33.955,0,43.656-12.84,43.656-26.821
				c0-21.4-11.699-29.674-26.822-29.674c-15.122,0-25.395,8.274-25.395,21.97H61.704c0-32.242,25.966-53.357,58.208-53.357
				c33.384,0,60.205,21.115,60.205,61.061C180.118,181.74,160.43,202.569,133.608,207.705z M119.056,267.055
				c9.131,0,16.835,7.704,16.835,16.834c0,8.56-7.704,15.978-16.835,15.978c-8.56,0-15.978-7.419-15.978-15.978
				C103.078,274.758,110.497,267.055,119.056,267.055z"/>
		</g>
	</g>
</g>
<rect x="4.176" y="1.771" fill="#E1E1E1" width="230.905" height="397.11"/>
<g>
	<rect x="225.155" y="1.724" fill="#BCBCBC" width="9.926" height="397.157"/>
	<rect x="228.137" y="1.724" fill="#E1E1E1" width="1.455" height="397.157"/>
</g>
<rect x="13.731" y="1.724" fill="#B5B5B5" width="211.425" height="11.14"/>
<rect x="13.731" y="9.798" fill="#E1E1E1" width="211.425" height="1.455"/>
<g>
	<rect x="4.176" y="1.724" fill="#BCBCBC" width="9.926" height="397.157"/>
	<rect x="9.665" y="1.724" fill="#E1E1E1" width="1.455" height="397.157"/>
</g>
<g opacity="0.3">
	<g>
		<polygon fill="#C6C6C6" points="49.924,169.149 59.119,174.407 60.652,175.244 60.652,259.86 59.119,261.384 49.924,270.703 		"/>
		<polygon fill="#B5B5B5" points="188.624,129.949 179.428,139.267 177.896,140.791 60.652,175.244 59.119,174.407 49.924,169.149 
					"/>
		<polygon fill="#C6C6C6" points="188.624,129.949 179.428,139.267 177.896,140.791 177.896,225.407 179.428,226.245 
			188.624,231.115 		"/>
		<polygon fill="#C6C6C6" points="188.624,129.949 179.428,139.267 59.119,174.407 49.924,169.149 		"/>
		<polygon fill="#B5B5B5" points="188.624,129.949 179.428,139.267 179.428,226.245 188.624,231.502 		"/>
		<polygon fill="#B5B5B5" points="49.924,169.149 59.119,174.407 59.119,261.384 49.924,270.703 		"/>
		<polygon fill="#B5B5B5" points="49.924,270.703 59.119,261.384 60.652,259.86 177.896,225.407 179.428,226.245 188.624,231.502 		
			"/>
		<polygon fill="#C6C6C6" points="49.924,270.703 59.119,261.384 179.428,226.245 188.624,231.502 		"/>
	</g>
	<g>
		<polygon fill="#C6C6C6" points="50.633,292.771 59.829,298.029 61.362,298.866 61.362,346.894 59.829,348.015 50.633,354.737 		
			"/>
		<polygon fill="#B5B5B5" points="189.334,253.571 180.138,262.889 178.606,264.413 61.362,298.866 59.829,298.029 50.633,292.771 
					"/>
		<polygon fill="#B5B5B5" points="189.334,354.737 180.138,348.015 178.606,346.894 61.362,346.894 50.633,354.737 		"/>
		<polygon fill="#C6C6C6" points="189.334,253.571 180.138,262.889 178.606,264.413 178.606,346.894 180.138,348.015 
			189.334,354.737 		"/>
		<polygon fill="#C6C6C6" points="189.334,253.571 180.138,262.889 59.829,298.029 50.633,292.771 		"/>
		<polygon fill="#B5B5B5" points="189.334,253.571 180.138,262.889 180.138,348.015 189.334,354.737 		"/>
		<polygon fill="#B5B5B5" points="50.633,292.771 59.829,298.029 59.829,348.015 50.633,354.737 		"/>
		<polygon fill="#C6C6C6" points="189.334,354.737 180.138,348.015 59.829,348.015 50.633,354.737 		"/>
	</g>
	<g>
		<polygon fill="#C6C6C6" points="189.334,107.881 180.138,102.623 178.606,101.785 178.606,53.758 180.138,52.637 189.334,45.914 
					"/>
		<polygon fill="#B5B5B5" points="50.633,147.081 59.829,137.762 61.362,136.238 178.606,101.785 180.138,102.623 189.334,107.881 
					"/>
		<polygon fill="#B5B5B5" points="50.633,45.914 59.829,52.637 61.362,53.758 178.606,53.758 189.334,45.914 		"/>
		<polygon fill="#C6C6C6" points="50.633,147.081 59.829,137.762 61.362,136.238 61.362,53.758 59.829,52.637 50.633,45.914 		"/>
		<polygon fill="#C6C6C6" points="50.633,147.081 59.829,137.762 180.138,102.623 189.334,107.881 		"/>
		<polygon fill="#B5B5B5" points="50.633,147.081 59.829,137.762 59.829,52.637 50.633,45.914 		"/>
		<polygon fill="#B5B5B5" points="189.334,107.881 180.138,102.623 180.138,52.637 189.334,45.914 		"/>
		<polygon fill="#C6C6C6" points="50.633,45.914 59.829,52.637 180.138,52.637 189.334,45.914 		"/>
	</g>
</g>
<rect x="13.916" y="387.741" fill="#B5B5B5" width="211.425" height="11.14"/>
<rect x="13.916" y="389.351" fill="#E1E1E1" width="211.425" height="1.455"/>
<g>
	
		<image display="none" overflow="visible" opacity="0.5" enable-background="new    " width="148" height="218" xlink:href="CBCC75F.png"  transform="matrix(1 0 0 1 49 90)">
	</image>
	<g>
		<g>
			<path fill="#FFFFFF" d="M130.967,205.509v27.797h-24.18v-47.909c26.892,0,34.576-10.17,34.576-21.242
				c0-16.949-9.265-23.502-21.243-23.502c-11.977,0-20.113,6.553-20.113,17.4H74.019c0-25.536,20.565-42.259,46.101-42.259
				c26.44,0,47.683,16.723,47.683,48.361C167.803,184.945,152.21,201.441,130.967,205.509z M119.442,252.514
				c7.231,0,13.333,6.101,13.333,13.333c0,6.779-6.102,12.655-13.333,12.655c-6.779,0-12.655-5.876-12.655-12.655
				C106.787,258.616,112.663,252.514,119.442,252.514z"/>
		</g>
	</g>
</g>
<g>
	<circle fill="#B5B5B5" cx="119.554" cy="84.994" r="5.258"/>
	
		<radialGradient id="SVGID_1_" cx="404.119" cy="-82.929" r="2.777" gradientTransform="matrix(1 0 0 -1 -284.6 2.1)" gradientUnits="userSpaceOnUse">
		<stop  offset="0" style="stop-color:#CCE0F4"/>
		<stop  offset="0.0641" style="stop-color:#C3DCF2"/>
		<stop  offset="0.1706" style="stop-color:#A9D2EE"/>
		<stop  offset="0.3066" style="stop-color:#80C2E7"/>
		<stop  offset="0.4649" style="stop-color:#47ACDE"/>
		<stop  offset="0.5674" style="stop-color:#1E9CD7"/>
		<stop  offset="0.8652" style="stop-color:#0075BE"/>
		<stop  offset="0.9944" style="stop-color:#005B97"/>
	</radialGradient>
	<circle fill="url(#SVGID_1_)" cx="119.519" cy="85.029" r="2.777"/>
	<circle fill="#E1E1E1" cx="119.519" cy="85.029" r="2.777"/>
	<circle opacity="0.4" fill="#FFFFFF" enable-background="new    " cx="119.519" cy="85.028" r="1.392"/>
</g>
<g>
	<path fill="#B5B5B5" d="M210.018,130.13L210.018,130.13c-2.836,0-5.157-2.32-5.157-5.157v-6.68c0-2.836,2.32-5.157,5.157-5.157l0,0
		c2.836,0,5.157,2.32,5.157,5.157v6.68C215.174,127.81,212.854,130.13,210.018,130.13z"/>
	<path fill="#E1E1E1" d="M206.908,123.685v-4.103c0-1.717,1.392-3.11,3.11-3.11l0,0c1.717,0,3.11,1.392,3.11,3.11v4.103
		c0,1.717-1.392,3.11-3.11,3.11l0,0C208.3,126.795,206.908,125.402,206.908,123.685z"/>
	<path fill="#B5B5B5" stroke="#B5B5B6" stroke-width="0.4" stroke-miterlimit="10" d="M211.605,119.535
		c0,0.324-0.097,0.625-0.263,0.876c-0.118,0.178-0.271,0.33-0.449,0.449c-0.251,0.166-0.552,0.263-0.876,0.263
		c-0.877,0-1.588-0.711-1.588-1.588c0-0.324,0.097-0.625,0.264-0.876c0.117-0.178,0.27-0.33,0.448-0.449
		c0.251-0.166,0.552-0.263,0.876-0.263C210.894,117.947,211.605,118.658,211.605,119.535z"/>
	<path fill="#E1E1E1" d="M211.342,120.411c-0.118,0.178-0.271,0.33-0.449,0.449l-2.2-2.201c0.117-0.178,0.27-0.33,0.448-0.449
		L211.342,120.411z"/>
</g>
<g>
	<path fill="#B5B5B5" d="M210.018,242.12L210.018,242.12c-2.836,0-5.157-2.32-5.157-5.157v-6.68c0-2.836,2.32-5.157,5.157-5.157l0,0
		c2.836,0,5.157,2.32,5.157,5.157v6.68C215.174,239.799,212.854,242.12,210.018,242.12z"/>
	<path fill="#E1E1E1" d="M206.908,235.675v-4.103c0-1.717,1.392-3.11,3.11-3.11l0,0c1.717,0,3.11,1.392,3.11,3.11v4.103
		c0,1.717-1.392,3.11-3.11,3.11l0,0C208.3,238.784,206.908,237.392,206.908,235.675z"/>
	<path fill="#B5B5B5" stroke="#B5B5B6" stroke-width="0.4" stroke-miterlimit="10" d="M211.605,231.524
		c0,0.324-0.097,0.625-0.263,0.876c-0.118,0.178-0.271,0.33-0.449,0.449c-0.251,0.166-0.552,0.263-0.876,0.263
		c-0.877,0-1.588-0.711-1.588-1.588c0-0.324,0.097-0.625,0.264-0.876c0.117-0.178,0.27-0.33,0.448-0.449
		c0.251-0.166,0.552-0.263,0.876-0.263C210.894,229.937,211.605,230.648,211.605,231.524z"/>
	<path fill="#E1E1E1" d="M211.342,232.401c-0.118,0.178-0.271,0.33-0.449,0.449l-2.2-2.201c0.117-0.178,0.27-0.33,0.448-0.449
		L211.342,232.401z"/>
</g>
<g>
	<circle fill="#B5B5B5" cx="210.178" cy="213.107" r="6.388"/>
	<circle fill="#E1E1E1" cx="210.178" cy="213.107" r="3.627"/>
	<path fill="#A0A0A0" d="M213.006,212.453l-0.43-1.207c-0.118-0.33-0.447-0.536-0.795-0.494c-1.025,0.122-3.133,0.326-4.288,0.104
		c-1.567-0.301-7.123-2.333-16.088-2.29c-9.227,0.045-12.985,2.109-13.618,2.29s-1.205,0.723-1.265,0.874
		c-0.06,0.151-0.181,1.778-0.181,1.778s4.429,0.03,4.549,0c0.121-0.03,17.745-0.422,17.745-0.422l11.72,1.627l2.471-1.647
		L213.006,212.453z"/>
	<path fill="#BCBCBC" d="M213.006,212.453c0,0-0.06,3.886-4.278,3.736c-4.218-0.151-11.117-3.133-17.655-2.531
		c-5.214,0.481-10.35,1.632-12.217,2.078c-0.476,0.114-0.976-0.035-1.31-0.392c-0.481-0.515-1.106-1.274-1.205-1.837
		c0.874-0.241,8.074-2.651,14.552-2.651c6.477,0,19.342,2.38,20.125,2.41C211.801,213.297,212.916,212.815,213.006,212.453z"/>
</g>
</svg>
