<?xml version="1.0" encoding="utf-8"?>
<!-- Generator: Adobe Illustrator 17.1.0, SVG Export Plug-In . SVG Version: 6.00 Build 0)  -->
<!DOCTYPE svg PUBLIC "-//W3C//DTD SVG 1.1//EN" "http://www.w3.org/Graphics/SVG/1.1/DTD/svg11.dtd">
<svg version="1.1" id="Layer_1" xmlns="http://www.w3.org/2000/svg" xmlns:xlink="http://www.w3.org/1999/xlink" x="0px" y="0px"
	 viewBox="0 0 336 540" enable-background="new 0 0 336 540" xml:space="preserve">
<g>
	<g>
		
			<linearGradient id="SVGID_1_" gradientUnits="userSpaceOnUse" x1="-169.0829" y1="298.2812" x2="43.4591" y2="298.2812" gradientTransform="matrix(1.1024 0 0 -1.1024 237.292 598.8663)">
			<stop  offset="0" style="stop-color:#4A2105"/>
			<stop  offset="0.5" style="stop-color:#704426"/>
			<stop  offset="1" style="stop-color:#4A2105"/>
		</linearGradient>
		<rect x="50.9" y="0.1" fill="url(#SVGID_1_)" width="234.3" height="539.9"/>
		<g>
			<g>
				
					<linearGradient id="SVGID_2_" gradientUnits="userSpaceOnUse" x1="-120.914" y1="336.7891" x2="-120.914" y2="211.5136" gradientTransform="matrix(1.1024 0 0 -1.1024 237.292 598.8663)">
					<stop  offset="5.102041e-002" style="stop-color:#4A2105"/>
					<stop  offset="0.2704" style="stop-color:#704426"/>
					<stop  offset="1" style="stop-color:#4A2105"/>
				</linearGradient>
				<polygon fill="url(#SVGID_2_)" points="98.7,227.6 107.8,234.8 109.3,235.9 109.3,351 107.8,353.1 98.7,365.7 				"/>
				
					<linearGradient id="SVGID_3_" gradientUnits="userSpaceOnUse" x1="-63.1747" y1="385.1395" x2="-63.1747" y2="329.2599" gradientTransform="matrix(1.1024 0 0 -1.1024 237.292 598.8663)">
					<stop  offset="0" style="stop-color:#4A2105"/>
					<stop  offset="0.5" style="stop-color:#704426"/>
					<stop  offset="1" style="stop-color:#4A2105"/>
				</linearGradient>
				<polygon fill="url(#SVGID_3_)" points="236.6,174.3 227.5,187 225.9,189.1 109.3,235.9 107.8,234.8 98.7,227.6 				"/>
				
					<linearGradient id="SVGID_4_" gradientUnits="userSpaceOnUse" x1="-206.0191" y1="260.3175" x2="-206.0191" y2="385.1395" gradientTransform="matrix(-1.1024 0 0 -1.1024 4.1406 598.8663)">
					<stop  offset="0" style="stop-color:#4A2105"/>
					<stop  offset="0.5" style="stop-color:#704426"/>
					<stop  offset="1" style="stop-color:#4A2105"/>
				</linearGradient>
				<polygon fill="url(#SVGID_4_)" points="236.6,174.3 227.5,187 225.9,189.1 225.9,304.1 227.5,305.3 236.6,311.9 				"/>
				
					<linearGradient id="SVGID_5_" gradientUnits="userSpaceOnUse" x1="-132.699" y1="455.8723" x2="-132.699" y2="330.7782" gradientTransform="matrix(0 1.1024 1.1024 0 -265.9401 350.8334)">
					<stop  offset="5.102041e-002" style="stop-color:#4A2105"/>
					<stop  offset="0.5102" style="stop-color:#704426"/>
					<stop  offset="1" style="stop-color:#4A2105"/>
				</linearGradient>
				<polygon fill="url(#SVGID_5_)" points="236.6,174.3 227.5,187 107.8,234.8 98.7,227.6 				"/>
				
					<linearGradient id="SVGID_6_" gradientUnits="userSpaceOnUse" x1="-4.7552" y1="385.1395" x2="-4.7552" y2="259.864" gradientTransform="matrix(1.1024 0 0 -1.1024 237.292 598.8663)">
					<stop  offset="5.102041e-002" style="stop-color:#4A2105"/>
					<stop  offset="0.5102" style="stop-color:#704426"/>
					<stop  offset="1" style="stop-color:#4A2105"/>
				</linearGradient>
				<polygon fill="url(#SVGID_6_)" points="236.6,174.3 227.5,187 227.5,305.3 236.6,312.4 				"/>
				
					<linearGradient id="SVGID_7_" gradientUnits="userSpaceOnUse" x1="-121.5943" y1="211.5136" x2="-121.5943" y2="336.7891" gradientTransform="matrix(1.1024 0 0 -1.1024 237.292 598.8663)">
					<stop  offset="5.102041e-002" style="stop-color:#4A2105"/>
					<stop  offset="0.5102" style="stop-color:#704426"/>
					<stop  offset="1" style="stop-color:#4A2105"/>
				</linearGradient>
				<polygon fill="url(#SVGID_7_)" points="98.7,227.6 107.8,234.8 107.8,353.1 98.7,365.7 				"/>
				
					<linearGradient id="SVGID_8_" gradientUnits="userSpaceOnUse" x1="-4653.8252" y1="1444.6803" x2="-4653.8252" y2="1388.8007" gradientTransform="matrix(-1.1024 0 0 1.1024 -4962.5894 -1226.8728)">
					<stop  offset="0" style="stop-color:#4A2105"/>
					<stop  offset="0.5" style="stop-color:#704426"/>
					<stop  offset="1" style="stop-color:#4A2105"/>
				</linearGradient>
				<polygon fill="url(#SVGID_8_)" points="98.7,365.7 107.8,353.1 109.3,351 225.9,304.1 227.5,305.3 236.6,312.4 				"/>
				
					<linearGradient id="SVGID_9_" gradientUnits="userSpaceOnUse" x1="-1192.2852" y1="-4134.7783" x2="-1192.2852" y2="-4259.8721" gradientTransform="matrix(0 -1.1024 -1.1024 0 -4459.3569 -978.8398)">
					<stop  offset="5.102041e-002" style="stop-color:#4A2105"/>
					<stop  offset="0.5102" style="stop-color:#704426"/>
					<stop  offset="1" style="stop-color:#4A2105"/>
				</linearGradient>
				<polygon fill="url(#SVGID_9_)" points="98.7,365.7 107.8,353.1 227.5,305.3 236.6,312.4 				"/>
			</g>
			<g>
				
					<linearGradient id="SVGID_10_" gradientUnits="userSpaceOnUse" x1="-120.2336" y1="184.2995" x2="-120.2336" y2="107.828" gradientTransform="matrix(1.1024 0 0 -1.1024 237.292 598.8663)">
					<stop  offset="5.102041e-002" style="stop-color:#4A2105"/>
					<stop  offset="0.2704" style="stop-color:#704426"/>
					<stop  offset="1" style="stop-color:#4A2105"/>
				</linearGradient>
				<polygon fill="url(#SVGID_10_)" points="99.4,395.7 108.5,402.9 110.1,404 110.1,469.3 108.5,470.8 99.4,480 				"/>
				
					<linearGradient id="SVGID_11_" gradientUnits="userSpaceOnUse" x1="-62.5398" y1="232.6499" x2="-62.5398" y2="176.7703" gradientTransform="matrix(1.1024 0 0 -1.1024 237.292 598.8663)">
					<stop  offset="0" style="stop-color:#4A2105"/>
					<stop  offset="0.5" style="stop-color:#704426"/>
					<stop  offset="1" style="stop-color:#4A2105"/>
				</linearGradient>
				<polygon fill="url(#SVGID_11_)" points="237.3,342.4 228.2,355.1 226.7,357.2 110.1,404 108.5,402.9 99.4,395.7 				"/>
				
					<linearGradient id="SVGID_12_" gradientUnits="userSpaceOnUse" x1="-348.8188" y1="-75.5868" x2="-348.8188" y2="49.5073" gradientTransform="matrix(0 -1.1024 1.1024 0 182.7246 90.1224)">
					<stop  offset="5.102041e-002" style="stop-color:#4A2105"/>
					<stop  offset="0.2704" style="stop-color:#704426"/>
					<stop  offset="1" style="stop-color:#4A2105"/>
				</linearGradient>
				<polygon fill="url(#SVGID_12_)" points="237.3,480 228.2,470.8 226.7,469.3 110.1,469.3 99.4,480 				"/>
				
					<linearGradient id="SVGID_13_" gradientUnits="userSpaceOnUse" x1="-206.6994" y1="107.828" x2="-206.6994" y2="232.6499" gradientTransform="matrix(-1.1024 0 0 -1.1024 4.1406 598.8663)">
					<stop  offset="0" style="stop-color:#4A2105"/>
					<stop  offset="0.5" style="stop-color:#704426"/>
					<stop  offset="1" style="stop-color:#4A2105"/>
				</linearGradient>
				<polygon fill="url(#SVGID_13_)" points="237.3,342.4 228.2,355.1 226.7,357.2 226.7,469.3 228.2,470.8 237.3,480 				"/>
				
					<linearGradient id="SVGID_14_" gradientUnits="userSpaceOnUse" x1="19.7906" y1="456.5073" x2="19.7906" y2="331.4132" gradientTransform="matrix(0 1.1024 1.1024 0 -265.9401 350.8334)">
					<stop  offset="5.102041e-002" style="stop-color:#4A2105"/>
					<stop  offset="0.5102" style="stop-color:#704426"/>
					<stop  offset="1" style="stop-color:#4A2105"/>
				</linearGradient>
				<polygon fill="url(#SVGID_14_)" points="237.3,342.4 228.2,355.1 108.5,402.9 99.4,395.7 				"/>
				
					<linearGradient id="SVGID_15_" gradientUnits="userSpaceOnUse" x1="-4.1202" y1="232.6499" x2="-4.1202" y2="107.828" gradientTransform="matrix(1.1024 0 0 -1.1024 237.292 598.8663)">
					<stop  offset="5.102041e-002" style="stop-color:#4A2105"/>
					<stop  offset="0.5102" style="stop-color:#704426"/>
					<stop  offset="1" style="stop-color:#4A2105"/>
				</linearGradient>
				<polygon fill="url(#SVGID_15_)" points="237.3,342.4 228.2,355.1 228.2,470.8 237.3,480 				"/>
				
					<linearGradient id="SVGID_16_" gradientUnits="userSpaceOnUse" x1="-120.9593" y1="107.828" x2="-120.9593" y2="184.2995" gradientTransform="matrix(1.1024 0 0 -1.1024 237.292 598.8663)">
					<stop  offset="5.102041e-002" style="stop-color:#4A2105"/>
					<stop  offset="0.5102" style="stop-color:#704426"/>
					<stop  offset="1" style="stop-color:#4A2105"/>
				</linearGradient>
				<polygon fill="url(#SVGID_16_)" points="99.4,395.7 108.5,402.9 108.5,470.8 99.4,480 				"/>
				
					<linearGradient id="SVGID_17_" gradientUnits="userSpaceOnUse" x1="-125.0868" y1="112.0008" x2="7.270837e-003" y2="112.0008" gradientTransform="matrix(1.1024 0 0 -1.1024 237.292 598.8663)">
					<stop  offset="5.102041e-002" style="stop-color:#4A2105"/>
					<stop  offset="0.5102" style="stop-color:#704426"/>
					<stop  offset="1" style="stop-color:#4A2105"/>
				</linearGradient>
				<polygon fill="url(#SVGID_17_)" points="237.3,480 228.2,470.8 108.5,470.8 99.4,480 				"/>
			</g>
			<g>
				
					<linearGradient id="SVGID_18_" gradientUnits="userSpaceOnUse" x1="-4712.1992" y1="1243.8403" x2="-4712.1992" y2="1167.4595" gradientTransform="matrix(-1.1024 0 0 1.1024 -4962.5894 -1226.8728)">
					<stop  offset="5.102041e-002" style="stop-color:#4A2105"/>
					<stop  offset="0.2704" style="stop-color:#704426"/>
					<stop  offset="1" style="stop-color:#4A2105"/>
				</linearGradient>
				<polygon fill="url(#SVGID_18_)" points="237.3,144.3 228.2,137.2 226.7,136.1 226.7,70.7 228.2,69.2 237.3,60.1 				"/>
				
					<linearGradient id="SVGID_19_" gradientUnits="userSpaceOnUse" x1="-4654.4604" y1="1292.1907" x2="-4654.4604" y2="1236.3236" gradientTransform="matrix(-1.1024 0 0 1.1024 -4962.5894 -1226.8728)">
					<stop  offset="0" style="stop-color:#4A2105"/>
					<stop  offset="0.5" style="stop-color:#704426"/>
					<stop  offset="1" style="stop-color:#4A2105"/>
				</linearGradient>
				<polygon fill="url(#SVGID_19_)" points="99.4,197.6 108.5,185 110.1,182.9 226.7,136.1 228.2,137.2 237.3,144.3 				"/>
				
					<linearGradient id="SVGID_20_" gradientUnits="userSpaceOnUse" x1="710.7673" y1="-4667.5073" x2="710.7673" y2="-4542.4131" gradientTransform="matrix(0 1.1024 -1.1024 0 -4908.022 -718.1288)">
					<stop  offset="5.102041e-002" style="stop-color:#4A2105"/>
					<stop  offset="0.2704" style="stop-color:#704426"/>
					<stop  offset="1" style="stop-color:#4A2105"/>
				</linearGradient>
				<polygon fill="url(#SVGID_20_)" points="99.4,60.1 108.5,69.2 110.1,70.7 226.7,70.7 237.3,60.1 				"/>
				
					<linearGradient id="SVGID_21_" gradientUnits="userSpaceOnUse" x1="4385.2666" y1="1167.4595" x2="4385.2666" y2="1292.1907" gradientTransform="matrix(1.1024 0 0 1.1024 -4729.438 -1226.8728)">
					<stop  offset="0" style="stop-color:#4A2105"/>
					<stop  offset="0.5" style="stop-color:#704426"/>
					<stop  offset="1" style="stop-color:#4A2105"/>
				</linearGradient>
				<polygon fill="url(#SVGID_21_)" points="99.4,197.6 108.5,185 110.1,182.9 110.1,70.7 108.5,69.2 99.4,60.1 				"/>
				
					<linearGradient id="SVGID_22_" gradientUnits="userSpaceOnUse" x1="-1039.7955" y1="-4135.4131" x2="-1039.7955" y2="-4260.5073" gradientTransform="matrix(0 -1.1024 -1.1024 0 -4459.3569 -978.8398)">
					<stop  offset="5.102041e-002" style="stop-color:#4A2105"/>
					<stop  offset="0.5102" style="stop-color:#704426"/>
					<stop  offset="1" style="stop-color:#4A2105"/>
				</linearGradient>
				<polygon fill="url(#SVGID_22_)" points="99.4,197.6 108.5,185 228.2,137.2 237.3,144.3 				"/>
				
					<linearGradient id="SVGID_23_" gradientUnits="userSpaceOnUse" x1="-4596.0405" y1="1292.1907" x2="-4596.0405" y2="1167.4595" gradientTransform="matrix(-1.1024 0 0 1.1024 -4962.5894 -1226.8728)">
					<stop  offset="5.102041e-002" style="stop-color:#4A2105"/>
					<stop  offset="0.5102" style="stop-color:#704426"/>
					<stop  offset="1" style="stop-color:#4A2105"/>
				</linearGradient>
				<polygon fill="url(#SVGID_23_)" points="99.4,197.6 108.5,185 108.5,69.2 99.4,60.1 				"/>
				
					<linearGradient id="SVGID_24_" gradientUnits="userSpaceOnUse" x1="-4712.8799" y1="1167.4595" x2="-4712.8799" y2="1243.8403" gradientTransform="matrix(-1.1024 0 0 1.1024 -4962.5894 -1226.8728)">
					<stop  offset="5.102041e-002" style="stop-color:#4A2105"/>
					<stop  offset="0.5102" style="stop-color:#704426"/>
					<stop  offset="1" style="stop-color:#4A2105"/>
				</linearGradient>
				<polygon fill="url(#SVGID_24_)" points="237.3,144.3 228.2,137.2 228.2,69.2 237.3,60.1 				"/>
				
					<linearGradient id="SVGID_25_" gradientUnits="userSpaceOnUse" x1="-4717.0073" y1="1171.5869" x2="-4591.9131" y2="1171.5869" gradientTransform="matrix(-1.1024 0 0 1.1024 -4962.5894 -1226.8728)">
					<stop  offset="5.102041e-002" style="stop-color:#4A2105"/>
					<stop  offset="0.5102" style="stop-color:#704426"/>
					<stop  offset="1" style="stop-color:#4A2105"/>
				</linearGradient>
				<polygon fill="url(#SVGID_25_)" points="99.4,60.1 108.5,69.2 228.2,69.2 237.3,60.1 				"/>
			</g>
		</g>
	</g>
	<g>
		
			<linearGradient id="SVGID_26_" gradientUnits="userSpaceOnUse" x1="-68.0279" y1="422.6042" x2="-52.1982" y2="422.6042" gradientTransform="matrix(1.1024 0 0 -1.1024 237.292 598.8663)">
			<stop  offset="0" style="stop-color:#FFFFFF"/>
			<stop  offset="1" style="stop-color:#000000"/>
		</linearGradient>
		<circle fill="url(#SVGID_26_)" cx="168" cy="133" r="5.7"/>
		
			<radialGradient id="SVGID_27_" cx="-62.891" cy="422.537" r="2.7266" gradientTransform="matrix(1.1024 0 0 -1.1024 237.292 598.8663)" gradientUnits="userSpaceOnUse">
			<stop  offset="0" style="stop-color:#CCE0F4"/>
			<stop  offset="6.405089e-002" style="stop-color:#C3DCF2"/>
			<stop  offset="0.1706" style="stop-color:#A9D2EE"/>
			<stop  offset="0.3066" style="stop-color:#80C2E7"/>
			<stop  offset="0.4649" style="stop-color:#47ACDE"/>
			<stop  offset="0.5674" style="stop-color:#1E9CD7"/>
			<stop  offset="0.8652" style="stop-color:#0075BE"/>
			<stop  offset="0.9944" style="stop-color:#005B97"/>
		</radialGradient>
		<circle fill="url(#SVGID_27_)" cx="168" cy="133.1" r="3"/>
		<circle opacity="0.4" fill="#FFFFFF" enable-background="new    " cx="168" cy="133.1" r="3"/>
	</g>
	<g>
		
			<linearGradient id="SVGID_28_" gradientUnits="userSpaceOnUse" x1="219.3295" y1="447.1599" x2="224.1735" y2="447.1599" gradientTransform="matrix(0 -1.1024 -1.1024 0 660.9359 781.7823)">
			<stop  offset="0" style="stop-color:#4A2105"/>
			<stop  offset="0.5" style="stop-color:#704426"/>
			<stop  offset="1" style="stop-color:#4A2105"/>
		</linearGradient>
		<polygon fill="url(#SVGID_28_)" points="61.3,540 67.2,534.7 267.2,536 274.7,540 		"/>
		
			<linearGradient id="SVGID_29_" gradientUnits="userSpaceOnUse" x1="-61.6326" y1="66.1568" x2="-61.6326" y2="74.4118" gradientTransform="matrix(1.1024 0 0 -1.1024 237.292 598.8663)">
			<stop  offset="0" style="stop-color:#4A2105"/>
			<stop  offset="0.5" style="stop-color:#704426"/>
			<stop  offset="1" style="stop-color:#4A2105"/>
		</linearGradient>
		<polygon fill="url(#SVGID_29_)" points="78.6,525.9 85.6,516.8 254,516.8 260.1,525.9 		"/>
		
			<linearGradient id="SVGID_30_" gradientUnits="userSpaceOnUse" x1="-159.6855" y1="291.4777" x2="-154.317" y2="291.4777" gradientTransform="matrix(1.1024 0 0 -1.1024 237.292 598.8663)">
			<stop  offset="0" style="stop-color:#4A2105"/>
			<stop  offset="0.5" style="stop-color:#704426"/>
			<stop  offset="1" style="stop-color:#4A2105"/>
		</linearGradient>
		<polygon fill="url(#SVGID_30_)" points="61.3,15.1 67.2,21.1 67.2,534.7 61.3,540 		"/>
		
			<linearGradient id="SVGID_31_" gradientUnits="userSpaceOnUse" x1="-505.8502" y1="287.2595" x2="-500.2818" y2="287.2595" gradientTransform="matrix(-1.1024 0 0 -1.1024 -297.5343 598.8663)">
			<stop  offset="0" style="stop-color:#4A2105"/>
			<stop  offset="0.5" style="stop-color:#704426"/>
			<stop  offset="1" style="stop-color:#4A2105"/>
		</linearGradient>
		<polygon fill="url(#SVGID_31_)" points="259.2,38.5 254,44 254,516.8 260.1,525.9 		"/>
		
			<linearGradient id="SVGID_32_" gradientUnits="userSpaceOnUse" x1="-306.5001" y1="481.8772" x2="-300.4861" y2="481.8772" gradientTransform="matrix(0 1.1024 1.1024 0 -363.2071 352.9639)">
			<stop  offset="0" style="stop-color:#4A2105"/>
			<stop  offset="0.5" style="stop-color:#704426"/>
			<stop  offset="1" style="stop-color:#4A2105"/>
		</linearGradient>
		<polygon fill="url(#SVGID_32_)" points="274.7,15.1 268.8,21.1 66.7,21.7 61.3,15.2 		"/>
		
			<linearGradient id="SVGID_33_" gradientUnits="userSpaceOnUse" x1="-634.3566" y1="290.9334" x2="-623.5385" y2="290.9334" gradientTransform="matrix(-1.1024 0 0 -1.1024 -620.9377 598.8663)">
			<stop  offset="0" style="stop-color:#4A2105"/>
			<stop  offset="0.5" style="stop-color:#704426"/>
			<stop  offset="1" style="stop-color:#4A2105"/>
		</linearGradient>
		<path fill="url(#SVGID_33_)" d="M77,38.2L66.4,21.7l0.5,512.9c0,0,1.1-0.8,11.4-8.7L77,38.2z"/>
		
			<linearGradient id="SVGID_34_" gradientUnits="userSpaceOnUse" x1="-290.3867" y1="290.5623" x2="-281.7502" y2="290.5623" gradientTransform="matrix(1.1024 0 0 -1.1024 579.0882 598.8663)">
			<stop  offset="0" style="stop-color:#4A2105"/>
			<stop  offset="0.5" style="stop-color:#704426"/>
			<stop  offset="1" style="stop-color:#4A2105"/>
		</linearGradient>
		<path fill="url(#SVGID_34_)" d="M259,38.5c0,0,6.5-12,9.5-17.4L266.9,536c0,0,0.6,0.9-7.3-10L259,38.5z"/>
		
			<linearGradient id="SVGID_35_" gradientUnits="userSpaceOnUse" x1="-62.9026" y1="508.564" x2="-62.9026" y2="502.7964" gradientTransform="matrix(1.1024 0 0 -1.1024 237.292 598.8663)">
			<stop  offset="0" style="stop-color:#4A2105"/>
			<stop  offset="0.5" style="stop-color:#704426"/>
			<stop  offset="1" style="stop-color:#4A2105"/>
		</linearGradient>
		<polygon fill="url(#SVGID_35_)" points="76.9,38.2 82.8,44.6 253.7,44 259,38.5 		"/>
		
			<linearGradient id="SVGID_36_" gradientUnits="userSpaceOnUse" x1="-145.2381" y1="287.3955" x2="-137.5957" y2="287.3955" gradientTransform="matrix(1.1024 0 0 -1.1024 237.292 598.8663)">
			<stop  offset="0" style="stop-color:#4A2105"/>
			<stop  offset="0.5" style="stop-color:#704426"/>
			<stop  offset="1" style="stop-color:#4A2105"/>
		</linearGradient>
		<polygon fill="url(#SVGID_36_)" points="77.2,38.2 83.1,44.6 85.6,516.8 78.6,525.9 		"/>
		
			<linearGradient id="SVGID_37_" gradientUnits="userSpaceOnUse" x1="-63.3562" y1="524.1418" x2="-63.3562" y2="508.3577" gradientTransform="matrix(1.1024 0 0 -1.1024 237.292 598.8663)">
			<stop  offset="0" style="stop-color:#4A2105"/>
			<stop  offset="0.5" style="stop-color:#704426"/>
			<stop  offset="1" style="stop-color:#4A2105"/>
		</linearGradient>
		<polygon fill="url(#SVGID_37_)" points="66.4,21.7 76.9,38.2 259,38.5 268.5,21.1 		"/>
		
			<linearGradient id="SVGID_38_" gradientUnits="userSpaceOnUse" x1="-449.9603" y1="291.4777" x2="-443.1879" y2="291.4777" gradientTransform="matrix(-1.1024 0 0 -1.1024 -221.3501 598.8663)">
			<stop  offset="0" style="stop-color:#4A2105"/>
			<stop  offset="0.5" style="stop-color:#704426"/>
			<stop  offset="1" style="stop-color:#4A2105"/>
		</linearGradient>
		<polygon fill="url(#SVGID_38_)" points="274.7,15.1 268.8,21.1 267.2,536 274.7,540 		"/>
		
			<linearGradient id="SVGID_39_" gradientUnits="userSpaceOnUse" x1="-63.8551" y1="57.0427" x2="-63.8551" y2="66.1655" gradientTransform="matrix(1.1024 0 0 -1.1024 237.292 598.8663)">
			<stop  offset="0" style="stop-color:#4A2105"/>
			<stop  offset="0.5" style="stop-color:#704426"/>
			<stop  offset="1" style="stop-color:#4A2105"/>
		</linearGradient>
		<polygon fill="url(#SVGID_39_)" points="66.9,534.7 78.4,525.9 259.6,525.9 266.9,536 		"/>
	</g>
	<g>
		
			<linearGradient id="SVGID_40_" gradientUnits="userSpaceOnUse" x1="2.0181" y1="270.3414" x2="12.4935" y2="270.3414" gradientTransform="matrix(1.1024 0 0 -1.1024 237.292 598.8663)">
			<stop  offset="0" style="stop-color:#E5E2DF"/>
			<stop  offset="0" style="stop-color:#DED9D6"/>
			<stop  offset="6.299578e-002" style="stop-color:#CFCAC9"/>
			<stop  offset="0.1833" style="stop-color:#A8A4A7"/>
			<stop  offset="0.264" style="stop-color:#8B878D"/>
			<stop  offset="0.5225" style="stop-color:#F3F4F4"/>
			<stop  offset="0.5842" style="stop-color:#E5E5E6"/>
			<stop  offset="0.7027" style="stop-color:#C0BEC0"/>
			<stop  offset="0.8647" style="stop-color:#858085"/>
			<stop  offset="0.8764" style="stop-color:#807B80"/>
			<stop  offset="1" style="stop-color:#D1D3D4"/>
			<stop  offset="1" style="stop-color:#A7A9AC"/>
		</linearGradient>
		<path fill="url(#SVGID_40_)" d="M251.1,329.5c0,2.3-2.6,4.2-5.8,4.2l0,0c-3.2,0-5.8-1.9-5.8-4.2v-57.3c0-2.3,2.6-4.2,5.8-4.2l0,0
			c3.2,0,5.8,1.9,5.8,4.2V329.5z"/>
		<path fill="#383335" d="M245.8,327.2c1.5,0,2.7,1.2,2.7,2.7s-1.2,2.7-2.7,2.7s-2.7-1.2-2.7-2.7
			C243.2,328.4,244.4,327.2,245.8,327.2z"/>
		<path opacity="0.24" fill="#383335" enable-background="new    " d="M245.8,268.9c1.5,0,2.7,1.2,2.7,2.7s-1.2,2.7-2.7,2.7
			s-2.7-1.2-2.7-2.7C243.2,270.1,244.4,268.9,245.8,268.9z"/>
		<path opacity="0.24" fill="#383335" enable-background="new    " d="M250.1,320.8c0,1.7-1.9,3.1-4.3,3.1l0,0
			c-2.4,0-4.3-1.4-4.3-3.1v-42.4c0-1.7,1.9-3.1,4.3-3.1l0,0c2.4,0,4.3,1.4,4.3,3.1V320.8z"/>
		
			<linearGradient id="SVGID_41_" gradientUnits="userSpaceOnUse" x1="4.5555" y1="271.0218" x2="11.5862" y2="271.0218" gradientTransform="matrix(1.1024 0 0 -1.1024 237.292 598.8663)">
			<stop  offset="5.618000e-003" style="stop-color:#C4C6C8"/>
			<stop  offset="0.3595" style="stop-color:#939598"/>
			<stop  offset="0.5867" style="stop-color:#A2A4A7"/>
			<stop  offset="0.6517" style="stop-color:#A7A9AC"/>
			<stop  offset="0.8652" style="stop-color:#A9ABAE"/>
			<stop  offset="1" style="stop-color:#A7A9AC"/>
			<stop  offset="1" style="stop-color:#D1D3D4"/>
		</linearGradient>
		<path fill="url(#SVGID_41_)" d="M250.1,320.9c0,1.7-1.7,3-3.9,3l0,0c-2.1,0-3.9-1.4-3.9-3v-41.6c0-1.7,1.7-3,3.9-3l0,0
			c2.1,0,3.9,1.4,3.9,3V320.9z"/>
		<path opacity="0.24" fill="#383335" enable-background="new    " d="M248.9,317.7c0,1.4-1.1,2.6-2.5,2.6l0,0
			c-1.4,0-2.5-1.2-2.5-2.6v-35.5c0-1.4,1.1-2.6,2.5-2.6l0,0c1.4,0,2.5,1.2,2.5,2.6V317.7z"/>
		<path opacity="0.24" fill="#383335" enable-background="new    " d="M250.1,293.8c0,2.3-1.9,4.2-4.1,4.2c-2.3,0-4.1-1.9-4.1-4.2
			c0-2.3,1.8-4.2,4.1-4.2C248.3,289.6,250.1,291.5,250.1,293.8z"/>
		
			<radialGradient id="SVGID_42_" cx="8.1157" cy="276.307" r="3.3637" gradientTransform="matrix(1.1024 0 0 -1.1024 237.292 598.8663)" gradientUnits="userSpaceOnUse">
			<stop  offset="5.618000e-003" style="stop-color:#C4C6C8"/>
			<stop  offset="0.2978" style="stop-color:#BCBEC0"/>
			<stop  offset="0.6573" style="stop-color:#A7A9AC"/>
			<stop  offset="1" style="stop-color:#9B9DA0"/>
		</radialGradient>
		<ellipse fill="url(#SVGID_42_)" cx="246.2" cy="294.3" rx="3.7" ry="3.7"/>
		
			<linearGradient id="SVGID_43_" gradientUnits="userSpaceOnUse" x1="6.141" y1="279.1298" x2="29.9128" y2="279.1298" gradientTransform="matrix(1.0972 -0.1067 -0.1067 -1.0972 247.236 604.4451)">
			<stop  offset="0" style="stop-color:#E5E2DF"/>
			<stop  offset="0" style="stop-color:#DED9D6"/>
			<stop  offset="6.299578e-002" style="stop-color:#CFCAC9"/>
			<stop  offset="0.1833" style="stop-color:#A8A4A7"/>
			<stop  offset="0.264" style="stop-color:#8B878D"/>
			<stop  offset="0.5225" style="stop-color:#F3F4F4"/>
			<stop  offset="0.5842" style="stop-color:#E5E5E6"/>
			<stop  offset="0.7027" style="stop-color:#C0BEC0"/>
			<stop  offset="0.8647" style="stop-color:#858085"/>
			<stop  offset="0.8764" style="stop-color:#807B80"/>
			<stop  offset="1" style="stop-color:#D1D3D4"/>
			<stop  offset="1" style="stop-color:#A7A9AC"/>
		</linearGradient>
		<path fill="url(#SVGID_43_)" d="M224.5,298.3c0,0-1.2,3.2,3.3,2.1s12.2-3.9,15.1-3.4c3,0.5,4.3,0.8,5.3,0.3c0,0-2.3-1.6,0.8-3.2
			c3.1-1.6-2-2.1-2-2.1l-1.2,2.9L224.5,298.3z"/>
		
			<linearGradient id="SVGID_44_" gradientUnits="userSpaceOnUse" x1="17.8457" y1="276.9388" x2="17.4451" y2="282.668" gradientTransform="matrix(1.0972 -0.1067 -0.1067 -1.0972 247.236 604.4451)">
			<stop  offset="5.618000e-003" style="stop-color:#BBBCBE"/>
			<stop  offset="0.2921" style="stop-color:#989CA0"/>
			<stop  offset="0.6517" style="stop-color:#BFBEC2"/>
			<stop  offset="0.8652" style="stop-color:#9EA0A4"/>
			<stop  offset="1" style="stop-color:#A7A9AC"/>
			<stop  offset="1" style="stop-color:#C3C6CA"/>
		</linearGradient>
		<path fill="url(#SVGID_44_)" d="M249,293.3c-1.9,0.2-4.3,1.9-3.3,4c-0.6-0.5-1-0.8-1.5-1.6c-5.6,0.9-14,3.2-18,3.5
			c-2.5,0.2-2-2.3,0.6-2.7c3.5-0.6,15.7-2.5,18-2.8c-0.2-0.5-2-1.8-1.2-2.3C246.7,290.6,248.5,293.4,249,293.3z"/>
		<path opacity="0.22" fill="#FFFFFF" enable-background="new    " d="M234.9,296.4c0.1,0.5-1.7,1.4-4,1.8c-2.3,0.5-4.2,0.4-4.4-0.1
			c-0.1-0.5,1.7-1.4,4-1.9C232.8,295.8,234.8,295.8,234.9,296.4z"/>
		<path opacity="0.22" fill="#FFFFFF" enable-background="new    " d="M245.4,294.4c0,0.3-0.8,0.7-2,0.9c-1.2,0.2-2.1,0.2-2.2-0.1
			c0-0.3,0.8-0.7,2-0.9S245.3,294.2,245.4,294.4z"/>
		
			<linearGradient id="SVGID_45_" gradientUnits="userSpaceOnUse" x1="6.0549" y1="258.594" x2="10.557" y2="258.594" gradientTransform="matrix(1.1024 0 0 -1.1024 237.292 598.8663)">
			<stop  offset="0" style="stop-color:#E5E2DF"/>
			<stop  offset="0" style="stop-color:#DED9D6"/>
			<stop  offset="6.299578e-002" style="stop-color:#CFCAC9"/>
			<stop  offset="0.1833" style="stop-color:#A8A4A7"/>
			<stop  offset="0.264" style="stop-color:#8B878D"/>
			<stop  offset="0.5225" style="stop-color:#F3F4F4"/>
			<stop  offset="0.5842" style="stop-color:#E5E5E6"/>
			<stop  offset="0.7027" style="stop-color:#C0BEC0"/>
			<stop  offset="0.8647" style="stop-color:#858085"/>
			<stop  offset="0.8764" style="stop-color:#807B80"/>
			<stop  offset="1" style="stop-color:#D1D3D4"/>
			<stop  offset="1" style="stop-color:#A7A9AC"/>
		</linearGradient>
		<path fill="url(#SVGID_45_)" d="M246.1,311.2l2.7,1.2c0-0.2,0.1-0.3,0.1-0.5c0-1.4-1.1-2.5-2.5-2.5s-2.5,1.1-2.5,2.5
			c0,0.8,0.4,1.5,0.9,1.9v2.8c0,0.9,0.7,1.6,1.6,1.6s1.6-0.7,1.6-1.6v-2.8c0.2-0.2,0.4-0.5,0.6-0.7l-2.8-1.3L246.1,311.2z"/>
		
			<linearGradient id="SVGID_46_" gradientUnits="userSpaceOnUse" x1="6.5222" y1="258.6393" x2="10.4881" y2="258.6393" gradientTransform="matrix(1.1024 0 0 -1.1024 237.292 598.8663)">
			<stop  offset="5.618000e-003" style="stop-color:#BBBCBE"/>
			<stop  offset="0.2921" style="stop-color:#989CA0"/>
			<stop  offset="0.6517" style="stop-color:#BFBEC2"/>
			<stop  offset="0.8652" style="stop-color:#9EA0A4"/>
			<stop  offset="1" style="stop-color:#A7A9AC"/>
			<stop  offset="1" style="stop-color:#C3C6CA"/>
		</linearGradient>
		<path fill="url(#SVGID_46_)" d="M246.4,311.4l2.4,1.1c0-0.1,0.1-0.3,0.1-0.4c0-1.2-1-2.2-2.2-2.2s-2.2,1-2.2,2.2
			c0,0.7,0.3,1.3,0.8,1.7v2.4c0,0.8,0.6,1.4,1.4,1.4s1.4-0.6,1.4-1.4v-2.4c0.2-0.2,0.4-0.4,0.5-0.7l-2.5-1.1L246.4,311.4z"/>
		
			<linearGradient id="SVGID_47_" gradientUnits="userSpaceOnUse" x1="8.3463" y1="257.7821" x2="9.0684" y2="258.9839" gradientTransform="matrix(1.1024 0 0 -1.1024 237.292 598.8663)">
			<stop  offset="5.618000e-003" style="stop-color:#BBBCBE"/>
			<stop  offset="0.2921" style="stop-color:#989CA0"/>
			<stop  offset="0.6517" style="stop-color:#BFBEC2"/>
			<stop  offset="0.8652" style="stop-color:#9EA0A4"/>
			<stop  offset="1" style="stop-color:#A7A9AC"/>
			<stop  offset="1" style="stop-color:#C3C6CA"/>
		</linearGradient>
		<path fill="url(#SVGID_47_)" d="M245.3,313.8c0,0,1.4,0.5,2.2,0.2c0.8-0.2,0.6-0.1,0.6-0.1v1C248.1,314.9,246.3,315.1,245.3,313.8
			z"/>
		
			<linearGradient id="SVGID_48_" gradientUnits="userSpaceOnUse" x1="77.1494" y1="176.9272" x2="81.5207" y2="176.9272" gradientTransform="matrix(0 -1.1024 -1.1024 0 441.1393 417.4338)">
			<stop  offset="5.618000e-003" style="stop-color:#C4C6C8"/>
			<stop  offset="0.3595" style="stop-color:#939598"/>
			<stop  offset="0.5867" style="stop-color:#A2A4A7"/>
			<stop  offset="0.6517" style="stop-color:#A7A9AC"/>
			<stop  offset="0.8652" style="stop-color:#A9ABAE"/>
			<stop  offset="1" style="stop-color:#A7A9AC"/>
			<stop  offset="1" style="stop-color:#D1D3D4"/>
		</linearGradient>
		<ellipse fill="url(#SVGID_48_)" cx="246.1" cy="330" rx="2.4" ry="2.4"/>
		
			<linearGradient id="SVGID_49_" gradientUnits="userSpaceOnUse" x1="-58.9824" y1="171.0537" x2="-58.9824" y2="174.0639" gradientTransform="matrix(0 1.1024 1.1024 0 55.8574 395.0204)">
			<stop  offset="5.618000e-003" style="stop-color:#C4C6C8"/>
			<stop  offset="0.3595" style="stop-color:#939598"/>
			<stop  offset="0.5867" style="stop-color:#A2A4A7"/>
			<stop  offset="0.6517" style="stop-color:#A7A9AC"/>
			<stop  offset="0.8652" style="stop-color:#A9ABAE"/>
			<stop  offset="1" style="stop-color:#A7A9AC"/>
			<stop  offset="1" style="stop-color:#D1D3D4"/>
		</linearGradient>
		<path fill="url(#SVGID_49_)" d="M246.1,331.7c-0.9,0-1.7-0.8-1.7-1.7c0-0.9,0.7-1.7,1.7-1.7c0.9,0,1.7,0.8,1.7,1.7
			C247.7,330.9,247,331.7,246.1,331.7z"/>
		
			<linearGradient id="SVGID_50_" gradientUnits="userSpaceOnUse" x1="130.6526" y1="178.4582" x2="133.7142" y2="175.3967" gradientTransform="matrix(0 -1.1024 -1.1024 0 441.1393 417.4338)">
			<stop  offset="5.618000e-003" style="stop-color:#C4C6C8"/>
			<stop  offset="0.3595" style="stop-color:#939598"/>
			<stop  offset="0.5867" style="stop-color:#A2A4A7"/>
			<stop  offset="0.6517" style="stop-color:#A7A9AC"/>
			<stop  offset="0.8652" style="stop-color:#A9ABAE"/>
			<stop  offset="1" style="stop-color:#A7A9AC"/>
			<stop  offset="1" style="stop-color:#D1D3D4"/>
		</linearGradient>
		<path fill="url(#SVGID_50_)" d="M246.1,269.3c1.3,0,2.4,1.1,2.4,2.4s-1.1,2.4-2.4,2.4s-2.4-1.1-2.4-2.4
			C243.8,270.4,244.8,269.3,246.1,269.3z"/>
		
			<linearGradient id="SVGID_51_" gradientUnits="userSpaceOnUse" x1="-111.7777" y1="171.0537" x2="-111.7777" y2="174.0639" gradientTransform="matrix(0 1.1024 1.1024 0 55.8574 395.0204)">
			<stop  offset="5.618000e-003" style="stop-color:#C4C6C8"/>
			<stop  offset="0.3595" style="stop-color:#939598"/>
			<stop  offset="0.5867" style="stop-color:#A2A4A7"/>
			<stop  offset="0.6517" style="stop-color:#A7A9AC"/>
			<stop  offset="0.8652" style="stop-color:#A9ABAE"/>
			<stop  offset="1" style="stop-color:#A7A9AC"/>
			<stop  offset="1" style="stop-color:#D1D3D4"/>
		</linearGradient>
		<path fill="url(#SVGID_51_)" d="M246.1,273.5c-0.9,0-1.7-0.8-1.7-1.7c0-0.9,0.7-1.7,1.7-1.7c0.9,0,1.7,0.8,1.7,1.7
			C247.7,272.7,247,273.5,246.1,273.5z"/>
		<path opacity="0.22" fill="#FFFFFF" enable-background="new    " d="M249.6,281.4c0-2.3-1.6-4.1-3.5-4.1l0,0
			c-1.9,0-3.5,1.9-3.5,4.1l0.2-0.1c0-1.3,1.5-2.3,3.4-2.3l0,0c1.9,0,3.4,1,3.4,2.3V281.4z"/>
	</g>
	<g>
		
			<linearGradient id="SVGID_52_" gradientUnits="userSpaceOnUse" x1="-165.7718" y1="53.3998" x2="-165.7718" y2="543.2533" gradientTransform="matrix(1.1024 0 0 -1.1024 237.292 598.8663)">
			<stop  offset="0" style="stop-color:#4A2105"/>
			<stop  offset="0.5" style="stop-color:#704426"/>
			<stop  offset="1" style="stop-color:#4A2105"/>
		</linearGradient>
		<rect x="47.8" fill="url(#SVGID_52_)" width="13.5" height="540"/>
		
			<linearGradient id="SVGID_53_" gradientUnits="userSpaceOnUse" x1="-165.16" y1="298.3265" x2="-163.3655" y2="298.3265" gradientTransform="matrix(1.1024 0 0 -1.1024 237.292 598.8663)">
			<stop  offset="0" style="stop-color:#4A2105"/>
			<stop  offset="0.5" style="stop-color:#704426"/>
			<stop  offset="1" style="stop-color:#4A2105"/>
		</linearGradient>
		<rect x="55.2" fill="url(#SVGID_53_)" width="2" height="540"/>
		
			<linearGradient id="SVGID_54_" gradientUnits="userSpaceOnUse" x1="3181.0566" y1="53.3998" x2="3181.0566" y2="543.2533" gradientTransform="matrix(-1.1024 0 0 -1.1024 3788.1526 598.8663)">
			<stop  offset="0" style="stop-color:#4A2105"/>
			<stop  offset="0.5" style="stop-color:#704426"/>
			<stop  offset="1" style="stop-color:#4A2105"/>
		</linearGradient>
		<rect x="274.7" fill="url(#SVGID_54_)" width="13.5" height="540"/>
		
			<linearGradient id="SVGID_55_" gradientUnits="userSpaceOnUse" x1="3181.6687" y1="298.3265" x2="3183.4629" y2="298.3265" gradientTransform="matrix(-1.1024 0 0 -1.1024 3788.1526 598.8663)">
			<stop  offset="0" style="stop-color:#4A2105"/>
			<stop  offset="0.5" style="stop-color:#704426"/>
			<stop  offset="1" style="stop-color:#4A2105"/>
		</linearGradient>
		<rect x="278.8" fill="url(#SVGID_55_)" width="2" height="540"/>
		
			<linearGradient id="SVGID_56_" gradientUnits="userSpaceOnUse" x1="-89.9868" y1="489.3362" x2="-35.637" y2="583.4727" gradientTransform="matrix(1.1024 0 0 -1.1024 237.292 598.8663)">
			<stop  offset="0" style="stop-color:#4A2105"/>
			<stop  offset="0.5" style="stop-color:#704426"/>
			<stop  offset="1" style="stop-color:#4A2105"/>
		</linearGradient>
		<rect x="61.3" fill="url(#SVGID_56_)" width="213.5" height="15.1"/>
		
			<linearGradient id="SVGID_57_" gradientUnits="userSpaceOnUse" x1="-62.8119" y1="531.4999" x2="-62.8119" y2="533.2939" gradientTransform="matrix(1.1024 0 0 -1.1024 237.292 598.8663)">
			<stop  offset="0" style="stop-color:#4A2105"/>
			<stop  offset="0.7755" style="stop-color:#704426"/>
			<stop  offset="1" style="stop-color:#4A2105"/>
		</linearGradient>
		<rect x="61.3" y="11" fill="url(#SVGID_57_)" width="213.5" height="2"/>
	</g>
	<rect x="61.3" y="15.1" opacity="0.25" fill="#231F20" enable-background="new    " width="213.5" height="524.9"/>
	<polygon opacity="0.5" fill="#EA9F5E" enable-background="new    " points="47.8,0 47.8,540 61.3,540 61.3,15.1 274.7,15.1 
		274.7,540 288.2,540 288.2,0 	"/>
</g>
</svg>
