<?xml version="1.0" encoding="utf-8"?>
<!-- Generator: Adobe Illustrator 17.1.0, SVG Export Plug-In . SVG Version: 6.00 Build 0)  -->
<!DOCTYPE svg PUBLIC "-//W3C//DTD SVG 1.1//EN" "http://www.w3.org/Graphics/SVG/1.1/DTD/svg11.dtd">
<svg version="1.1" id="Layer_1" xmlns="http://www.w3.org/2000/svg" xmlns:xlink="http://www.w3.org/1999/xlink" x="0px" y="0px"
	 viewBox="0 0 120 120" enable-background="new 0 0 120 120" xml:space="preserve">
<g id="Layer_1_1_">
	<g>
		<g>
			<path fill="#FFFFFF" d="M113.4,118.9H6.6c-3,0-5.5-2.5-5.5-5.5V6.6c0-3,2.5-5.5,5.5-5.5h106.8c3,0,5.5,2.5,5.5,5.5v106.8
				C118.9,116.4,116.4,118.9,113.4,118.9z"/>
			<path fill="#2875D4" d="M113.4,120H6.6C3,120,0,117,0,113.4V6.6C0,2.9,2.9,0,6.6,0h106.8c3.6,0,6.6,3,6.6,6.6v106.8
				C120,117.1,117.1,120,113.4,120z M6.6,2.3c-2.4,0-4.3,1.9-4.3,4.3v106.8c0,2.4,1.9,4.3,4.3,4.3h106.8c2.4,0,4.3-1.9,4.3-4.3V6.6
				c0-2.4-1.9-4.3-4.3-4.3C113.4,2.3,6.6,2.3,6.6,2.3z"/>
		</g>
		<g>
			<g>
				<g>
					<path fill="#2875D4" d="M88.3,21.3H73c-0.7,0-1.3,0.6-1.3,1.3s0.6,1.3,1.3,1.3h14v72.3H73c-0.7,0-1.3,0.6-1.3,1.3
						s0.6,1.3,1.3,1.3h15.3c0.7,0,1.3-0.6,1.3-1.3V22.6C89.6,21.9,89,21.3,88.3,21.3z"/>
				</g>
			</g>
			<g>
				<g>
					<path fill="#2875D4" d="M68.1,15.2L30.9,29.8c-0.3,0.1-0.6,0.6-0.6,1v58.4c0,0.4,0.3,0.9,0.6,1L68,104.8
						c0.7,0.3,1.2-0.1,1.2-0.7V16C69.2,15.3,68.7,15,68.1,15.2z M66.9,102L31.5,88.8V31.2l35.4-13.1V102z"/>
				</g>
			</g>
			<g>
				<g>
					<path fill="#2875D4" d="M61.9,36.2L60.6,40v11.9L57.9,52V33.5c-0.3-0.4-0.7-0.9-1.1-1.3l-20.1,5.5c-0.2,0-0.3,0.3-0.3,0.5v15.6
						l-1.6,0.1v-19l18.6-5.8c-0.7-0.5-1.4-1-2.1-1.4l0,0l-17.1,5.7c-0.3,0.1-0.6,0.6-0.6,1v51.3c0,0.5,0.3,0.9,0.6,1l27.5,9.2
						c0.6,0.2,1.1-0.2,1.1-0.8V34C62.4,34.6,62.1,35.3,61.9,36.2z M60.6,93.2l-25.9-8.1v-19l1.6,0.1v15.6c0,0.2,0.1,0.5,0.3,0.5
						L57.4,88c0.3,0.1,0.5-0.1,0.5-0.4V68l2.7,0.2C60.6,68.2,60.6,93.2,60.6,93.2z M60.6,67.1l-3.2-0.2c-0.3,0-0.5,0.2-0.5,0.5v19.5
						l-20-5.2V65.9c0-0.2-0.1-0.4-0.3-0.4l-1.9-0.1V54.6l1.9-0.1c0.2,0,0.3-0.2,0.3-0.5V38.4l20-5.2v19.5c0,0.3,0.2,0.5,0.5,0.5
						l3.2-0.2V67.1z"/>
				</g>
			</g>
			<g>
				<g>
					<path fill="#2875D4" d="M55.8,60.4h-5.2c-0.2,0-0.3-0.2-0.3-0.4s0.1-0.4,0.3-0.4h5.2V60.4z"/>
				</g>
			</g>
			<g>
				<g>
					<path fill="#2875D4" d="M56,62.6c-0.9,0-1.5-0.7-1.8-1.8h2v-1.6h-2c0.3-1.1,0.9-1.8,1.8-1.8c1.1,0,1.9,1.2,1.9,2.6
						C57.9,61.4,57,62.6,56,62.6z"/>
				</g>
			</g>
			<g>
				<g>
					<path fill="#2875D4" d="M65.4,30.6c-1.7,0.4-3.7,2.9-4.8,6.8c-0.4-3.9-5.7-9.2-9.4-11.2L65.4,30.6z"/>
				</g>
				<g>
					<polygon fill="#2875D4" points="66.1,19.2 66.1,30.2 50,25.2 					"/>
				</g>
			</g>
		</g>
	</g>
	<g>
		<g>
			<path fill="#FFFFFF" d="M1313.4,321h-106.6c-3,0-5.5-2.4-5.5-5.5V208.9c0-3,2.4-5.5,5.5-5.5h106.6c3,0,5.5,2.4,5.5,5.5v106.6
				C1318.9,318.5,1316.4,321,1313.4,321z"/>
			<path fill="#2875D4" d="M1313.4,322.1h-106.6c-3.6,0-6.6-3-6.6-6.6V208.9c0-3.6,3-6.6,6.6-6.6h106.6c3.6,0,6.6,3,6.6,6.6v106.6
				C1320,319.1,1317,322.1,1313.4,322.1z M1206.8,204.6c-2.4,0-4.3,1.9-4.3,4.3v106.6c0,2.4,1.9,4.3,4.3,4.3h106.6
				c2.4,0,4.3-1.9,4.3-4.3V208.9c0-2.4-1.9-4.3-4.3-4.3L1206.8,204.6L1206.8,204.6z"/>
		</g>
		<g>
			<g>
				<g>
					<path fill="#2875D4" d="M1288.3,223.6H1273c-0.7,0-1.3,0.6-1.3,1.3s0.6,1.3,1.3,1.3h14v72.1h-14c-0.7,0-1.3,0.6-1.3,1.3
						s0.6,1.3,1.3,1.3h15.3c0.7,0,1.3-0.6,1.3-1.3v-74.7C1289.6,224.1,1289.1,223.6,1288.3,223.6z"/>
				</g>
			</g>
			<g>
				<g>
					<path fill="#2875D4" d="M1268.1,217.5l-37,14.6c-0.3,0.1-0.6,0.6-0.6,1v58.2c0,0.4,0.3,0.9,0.6,1l37,14.5
						c0.7,0.3,1.2-0.1,1.2-0.7v-87.9C1269.3,217.6,1268.8,217.3,1268.1,217.5z M1267,304.1l-35.4-13.1v-57.5l35.4-13.1V304.1z"/>
				</g>
			</g>
			<g>
				<g>
					<path fill="#2875D4" d="M1262,238.4l-1.3,3.8V254l-2.7,0.2v-18.5c-0.3-0.4-0.7-0.9-1.1-1.3l-20.1,5.5c-0.2,0-0.3,0.3-0.3,0.5
						V256l-1.6,0.1v-18.9l18.6-5.8c-0.7-0.5-1.4-1-2-1.4l0,0l-17.1,5.7c-0.3,0.1-0.6,0.6-0.6,1v51.2c0,0.5,0.3,0.9,0.6,1l27.5,9.2
						c0.6,0.2,1.1-0.2,1.1-0.8v-60.9C1262.5,236.9,1262.2,237.6,1262,238.4z M1260.7,295.4l-25.9-8.1v-18.9l1.6,0.1V284
						c0,0.2,0.1,0.5,0.3,0.5l20.7,5.6c0.3,0.1,0.5-0.1,0.5-0.4v-19.6l2.7,0.2v25.1H1260.7z M1260.7,269.2l-3.2-0.2
						c-0.3,0-0.5,0.2-0.5,0.5V289l-19.9-5.2v-15.7c0-0.2-0.1-0.4-0.3-0.4l-1.9-0.1v-10.7l1.9-0.1c0.2,0,0.3-0.2,0.3-0.5v-15.7
						l19.9-5.2v19.4c0,0.3,0.2,0.5,0.5,0.5l3.2-0.2V269.2z"/>
				</g>
			</g>
			<g>
				<g>
					<path fill="#2875D4" d="M1255.9,262.6h-5.2c-0.2,0-0.3-0.2-0.3-0.4c0-0.2,0.1-0.4,0.3-0.4h5.2V262.6z"/>
				</g>
			</g>
			<g>
				<g>
					<path fill="#2875D4" d="M1256.1,264.8c-0.9,0-1.5-0.7-1.8-1.8h2v-1.6h-2c0.3-1.1,0.9-1.8,1.8-1.8c1,0,1.9,1.2,1.9,2.6
						C1257.9,263.6,1257.1,264.8,1256.1,264.8z"/>
				</g>
			</g>
			<g>
				<g>
					<path fill="#2875D4" d="M1265.5,232.8c-1.7,0.4-3.6,2.9-4.8,6.8c-0.4-3.9-5.7-9.1-9.4-11.2L1265.5,232.8z"/>
				</g>
				<g>
					<polygon fill="#2875D4" points="1266.2,221.5 1266.2,232.4 1250.1,227.4 					"/>
				</g>
			</g>
		</g>
	</g>
</g>
</svg>
