<?xml version="1.0" encoding="utf-8"?>
<!-- Generator: Adobe Illustrator 17.1.0, SVG Export Plug-In . SVG Version: 6.00 Build 0)  -->
<!DOCTYPE svg PUBLIC "-//W3C//DTD SVG 1.1//EN" "http://www.w3.org/Graphics/SVG/1.1/DTD/svg11.dtd">
<svg version="1.1" id="Layer_1" xmlns="http://www.w3.org/2000/svg" xmlns:xlink="http://www.w3.org/1999/xlink" x="0px" y="0px"
	 viewBox="0 0 120 120" enable-background="new 0 0 120 120" xml:space="preserve">
<g id="Layer_2">
	<g>
		<g>
			<g>
				<path fill="#FFFFFF" d="M118.9,6.6v106.8c0,3-2.4,5.5-5.5,5.5H6.6c-3,0-5.5-2.4-5.5-5.5V6.6c0-3,2.5-5.5,5.5-5.5h106.8
					C116.4,1.1,118.9,3.6,118.9,6.6z"/>
			</g>
			<g>
				<path fill="#2875D4" d="M113.4,0c3.6,0,6.6,3,6.6,6.6v106.8c0,3.6-3,6.6-6.6,6.6H6.6C3,120,0,117,0,113.4V6.6C0,2.9,3,0,6.6,0
					 M6.6,2.2c-2.4,0-4.3,1.9-4.3,4.3v106.8c0,2.4,2,4.3,4.3,4.3h106.8c2.4,0,4.3-2,4.3-4.3V6.6c0-2.4-1.9-4.3-4.3-4.3L6.6,2.2
					L6.6,2.2z"/>
			</g>
		</g>
		<g>
			<g>
				
					<rect x="22.1" y="74.5" transform="matrix(0.7071 0.7071 -0.7071 0.7071 64.3425 1.3259)" fill="#ED1C24" width="16.9" height="7.6"/>
			</g>
			<g>
				
					<rect x="37.7" y="71.7" transform="matrix(0.7071 0.7071 -0.7071 0.7071 67.0597 -10.9174)" fill="#ED1C24" width="18.1" height="7.5"/>
			</g>
			<g>
				<polygon fill="#ED1C24" points="108.7,46.4 78.9,49.1 83.5,44.5 98.8,42.8 92.1,36 95.1,32.9 				"/>
			</g>
			<g>
				<path fill="#2875D4" d="M66.3,119.5h-18c-0.2,0-0.3-0.1-0.5-0.2L17.6,89.1c-0.1-0.1-0.2-0.3-0.2-0.5s0.1-0.3,0.2-0.5l8.7-8.7
					c0.3-0.3,0.7-0.3,0.9,0l6.6,6.6l9-9c0.3-0.3,0.7-0.3,0.9,0l12.1,12.1l42.2-42c0.3-0.3,0.7-0.3,0.9,0l19.6,19.6
					c0.1,0.1,0.2,0.3,0.2,0.5s-0.1,0.3-0.2,0.5l-51.8,51.8C66.6,119.5,66.4,119.5,66.3,119.5z M48.5,118.2H66l51.1-51.1L98.5,48.4
					L56.4,90.5c-0.3,0.3-0.7,0.3-0.9,0L43.3,78.4l-9,9c-0.3,0.3-0.7,0.3-0.9,0l-6.6-6.6L19,88.7L48.5,118.2z"/>
			</g>
			<g>
				<path fill="#2875D4" d="M10,81.3c-0.2,0-0.3-0.1-0.5-0.2l-8.9-8.9c-0.1-0.1-0.2-0.3-0.2-0.5v-3c0-0.2,0.1-0.3,0.2-0.5L68.3,0.7
					c0.1-0.1,0.3-0.2,0.5-0.2h18c0.2,0,0.3,0.1,0.5,0.2l32.1,32.1c0.1,0.1,0.2,0.3,0.2,0.5v3c0,0.2-0.1,0.3-0.2,0.5L109.2,47
					c-0.3,0.3-0.7,0.3-0.9,0L95.1,33.8L84,45l-0.1,0.1l-4.5,4.5L52.8,76.2c-0.1,0.1-0.3,0.2-0.5,0.2l0,0c-0.2,0-0.3-0.1-0.5-0.2
					L43,67.3l-9.1,9.1c-0.3,0.3-0.7,0.3-0.9,0l-8.9-8.9L10.5,81.1C10.4,81.3,10.2,81.3,10,81.3z M1.8,71.5l8.3,8.3l13.6-13.6
					c0.3-0.3,0.7-0.3,0.9,0l8.9,8.9l9.1-9.1c0.3-0.3,0.7-0.3,0.9,0l8.9,8.9L83.1,44l0.1-0.1l11.5-11.5c0.3-0.3,0.7-0.3,0.9,0
					l13.1,13.1l9.5-9.5v-2.5L86.5,1.8H69L1.8,69V71.5z"/>
			</g>
		</g>
	</g>
</g>
</svg>
