<?xml version="1.0" encoding="utf-8"?>
<!-- Generator: Adobe Illustrator 17.1.0, SVG Export Plug-In . SVG Version: 6.00 Build 0)  -->
<!DOCTYPE svg PUBLIC "-//W3C//DTD SVG 1.1//EN" "http://www.w3.org/Graphics/SVG/1.1/DTD/svg11.dtd">
<svg version="1.1" id="Layer_1" xmlns="http://www.w3.org/2000/svg" xmlns:xlink="http://www.w3.org/1999/xlink" x="0px" y="0px"
	 viewBox="0 0 120 120" enable-background="new 0 0 120 120" xml:space="preserve">
<g id="Layer_3">
	<g>
		<g>
			<path fill="#FFFFFF" d="M113.4,118.9H6.6c-3,0-5.5-2.5-5.5-5.5V6.6c0-3,2.5-5.5,5.5-5.5h106.8c3,0,5.5,2.5,5.5,5.5v106.8
				C118.9,116.4,116.4,118.9,113.4,118.9z"/>
			<path fill="#2875D4" d="M113.4,120H6.6C3,120,0,117,0,113.4V6.6C0,3,3,0,6.6,0h106.8c3.6,0,6.6,3,6.6,6.6v106.8
				C120,117,117,120,113.4,120z M6.6,2.3c-2.4,0-4.3,1.9-4.3,4.3v106.8c0,2.4,1.9,4.3,4.3,4.3h106.8c2.4,0,4.3-1.9,4.3-4.3V6.6
				c0-2.4-1.9-4.3-4.3-4.3C113.4,2.3,6.6,2.3,6.6,2.3z"/>
		</g>
		<g>
			<g>
				<g>
					<g id="Layer_5_13_">
						<g>
							<path fill="#2875D4" d="M18.9,79.6c0,0.3,0.2,0.5,0.5,0.5l0,0h6.3c0.2,0.1,0.4,0.3,0.4,0.5v1.6c0,0.3,0.2,0.4,0.4,0.2
								l5.6-3.9c0.2-0.2,0.2-0.5,0-0.7L26.5,74c-0.2-0.2-0.4-0.1-0.4,0.2v1.6c0,0.3-0.2,0.5-0.5,0.5h-6.2c-0.3,0-0.5,0.2-0.5,0.5
								L18.9,79.6z"/>
						</g>
					</g>
				</g>
			</g>
			<g>
				<path fill="#2875D4" d="M58.3,76.8c0-0.3-0.2-0.5-0.5-0.5l0,0h-6.3c-0.2-0.1-0.4-0.3-0.4-0.5v-1.6c0-0.3-0.2-0.4-0.4-0.2
					l-5.6,3.9c-0.2,0.2-0.2,0.5,0,0.7l5.6,3.9c0.2,0.2,0.4,0.1,0.4-0.2v-1.6c0-0.3,0.2-0.5,0.5-0.5h6.2c0.3,0,0.5-0.2,0.5-0.5V76.8z
					"/>
			</g>
			<path fill="#B13424" d="M42.1,61h2c-0.3,1.3-1,2.2-1.9,2.2c-1.1-0.1-1.9-1.5-1.9-3.2s0.8-3.2,1.9-3.2c0.9-0.1,1.6,0.9,1.9,2.2h-2
				V61z"/>
			<path fill="#B13424" d="M48.3,60c0,0.3-0.1,0.5-0.3,0.5l-5.5-0.1v-0.9H48C48.2,59.5,48.3,59.7,48.3,60z"/>
			<path fill="#2875D4" d="M100.3,29.1h-38l2.5,1.7h34.7v58.5H64.7L62.2,91h38c0.5,0,0.8-0.4,0.8-0.8V29.9
				C101.1,29.5,100.7,29.1,100.3,29.1z"/>
			<g>
				<path fill="#2875D4" d="M65.2,33.5L36.5,14.3C36.2,14.1,36,14,35.7,14c-0.4,0-0.7,0.3-0.7,0.8v54.6l0,0v35.9
					c0,0.8,0.6,1,1.4,0.5l28.7-19.2c0.3-0.2,0.5-0.7,0.5-1.1V70.3V34.6C65.7,34.2,65.5,33.7,65.2,33.5z M36.4,15.7l28,18.7
					c0,0,0,0.1,0,0.2v34.3h-1h-0.5l-20.3-0.6l-6.2-0.2V15.7z M37.9,102V69.7l3.5,0.1V94c0,0.4,0.3,0.5,0.6,0.3l21.2-11.5
					c0.1-0.1,0.3-0.3,0.3-0.6v-12H63V82L42.5,92.7V69.8l20.3,0.4h0.5h1.3v14.9L37.9,102z"/>
				<path fill="#2875D4" d="M48.3,60c0,0.3-0.1,0.5-0.3,0.5l-5.5-0.1v-0.9H48C48.2,59.5,48.3,59.7,48.3,60z"/>
				<path fill="#2875D4" d="M42.1,61h2c-0.3,1.3-1,2.2-1.9,2.2c-1.1-0.1-1.9-1.5-1.9-3.2s0.8-3.2,1.9-3.2c0.9-0.1,1.6,0.9,1.9,2.2
					h-2V61z"/>
			</g>
			<path fill="#2875D4" d="M36.5,105.7c-0.3,0.2-0.5,0.3-0.7,0.3C36,106,36.2,105.9,36.5,105.7z"/>
		</g>
	</g>
</g>
</svg>
