<?xml version="1.0" encoding="utf-8"?>
<!-- Generator: Adobe Illustrator 17.1.0, SVG Export Plug-In . SVG Version: 6.00 Build 0)  -->
<!DOCTYPE svg PUBLIC "-//W3C//DTD SVG 1.1//EN" "http://www.w3.org/Graphics/SVG/1.1/DTD/svg11.dtd">
<svg version="1.1" id="Layer_1" xmlns="http://www.w3.org/2000/svg" xmlns:xlink="http://www.w3.org/1999/xlink" x="0px" y="0px"
	 viewBox="0 0 120 120" enable-background="new 0 0 120 120" xml:space="preserve">
<g id="Layer_4">
	<g>
		<g>
			<g>
				<path fill="#FFFFFF" d="M113.4,118.9H6.6c-3,0-5.5-2.5-5.5-5.5V6.6c0-3,2.5-5.5,5.5-5.5h106.8c3,0,5.5,2.5,5.5,5.5v106.8
					C118.9,116.4,116.4,118.9,113.4,118.9z"/>
			</g>
			<g>
				<path fill="#2875D4" d="M113.4,120H6.6C3,120,0,117,0,113.4V6.6C0,2.9,2.9,0,6.6,0h106.8c3.6,0,6.6,3,6.6,6.6v106.8
					C120,117.1,117.1,120,113.4,120z M6.6,2.2c-2.4,0-4.3,1.9-4.3,4.3v106.8c0,2.4,1.9,4.3,4.3,4.3h106.8c2.4,0,4.3-1.9,4.3-4.3V6.6
					c0-2.4-1.9-4.3-4.3-4.3L6.6,2.2L6.6,2.2z"/>
			</g>
		</g>
		<g>
			<g>
				<g>
					<path fill="#2875D4" d="M43.9,100.6H40c-0.3,0-0.6-0.3-0.6-0.6V20c0-0.3,0.3-0.6,0.6-0.6h3.9c0.3,0,0.6,0.3,0.6,0.6v80
						C44.5,100.3,44.3,100.6,43.9,100.6z M40.6,99.4h2.7V20.6h-2.7V99.4z"/>
				</g>
			</g>
			<g>
				<g>
					<g>
						<path fill="#2875D4" d="M37.6,45.8H25.3c-0.4,0-0.7-0.3-0.7-0.7v-7.8c0-0.4,0.3-0.7,0.7-0.7h12.4c0.4,0,0.7,0.3,0.7,0.7v7.8
							C38.3,45.5,38,45.8,37.6,45.8z M25.9,44.5H37V38H25.9V44.5z"/>
					</g>
				</g>
				<g>
					<g>
						<path fill="#2875D4" d="M37.6,58.3H25.3c-0.4,0-0.7-0.3-0.7-0.7v-7.8c0-0.4,0.3-0.7,0.7-0.7h12.4c0.4,0,0.7,0.3,0.7,0.7v7.8
							C38.3,58,38,58.3,37.6,58.3z M25.9,57H37v-6.5H25.9V57z"/>
					</g>
				</g>
				<g>
					<g>
						<path fill="#2875D4" d="M37.6,70.8H25.3c-0.4,0-0.7-0.3-0.7-0.7v-7.8c0-0.4,0.3-0.7,0.7-0.7h12.4c0.4,0,0.7,0.3,0.7,0.7v7.8
							C38.3,70.5,38,70.8,37.6,70.8z M25.9,69.5H37V63H25.9V69.5z"/>
					</g>
				</g>
				<g>
					<g>
						<path fill="#2875D4" d="M37.6,83.3H25.3c-0.4,0-0.7-0.3-0.7-0.7v-7.8c0-0.4,0.3-0.7,0.7-0.7h12.4c0.4,0,0.7,0.3,0.7,0.7v7.8
							C38.3,83,38,83.3,37.6,83.3z M25.9,82H37v-6.5H25.9V82z"/>
					</g>
				</g>
			</g>
		</g>
		<g>
			<path fill="#2875D4" d="M80.5,58.3v3.4H74c-0.6,1.3-1.9,2.2-3.5,2.2c-1.5,0-2.8-0.9-3.5-2.2h-6.5v-3.4H67
				c0.6-1.3,1.9-2.2,3.5-2.2c1.5,0,2.8,0.9,3.5,2.2H80.5z"/>
		</g>
		<g>
			<path fill="#2875D4" d="M56.2,85.8c0,1.4-1.1,2.5-2.5,2.5s-2.5-1.1-2.5-2.5s1.1-2.5,2.5-2.5C55.1,83.2,56.2,84.4,56.2,85.8z"/>
		</g>
		<g>
			<path fill="#2875D4" d="M89.9,85.8c0,1.4-1.1,2.5-2.5,2.5s-2.5-1.1-2.5-2.5s1.1-2.5,2.5-2.5C88.8,83.2,89.9,84.4,89.9,85.8z"/>
		</g>
		<g>
			<path fill="#2875D4" d="M89.9,34.2c0,1.4-1.1,2.5-2.5,2.5s-2.5-1.1-2.5-2.5s1.1-2.5,2.5-2.5S89.9,32.8,89.9,34.2z"/>
		</g>
		<g>
			<path fill="#2875D4" d="M56.2,34.2c0,1.4-1.1,2.5-2.5,2.5s-2.5-1.1-2.5-2.5s1.1-2.5,2.5-2.5C55.1,31.7,56.2,32.8,56.2,34.2z"/>
		</g>
		<g>
			<path fill="#2875D4" d="M94.7,92.7H46.3c-0.4,0-0.7-0.3-0.7-0.7V28c0-0.4,0.3-0.7,0.7-0.7h48.4c0.4,0,0.7,0.3,0.7,0.7v64
				C95.4,92.4,95.1,92.7,94.7,92.7z M47,91.4h47.1V28.6H47V91.4z"/>
		</g>
	</g>
</g>
</svg>
