<?xml version="1.0" encoding="utf-8"?>
<!-- Generator: Adobe Illustrator 17.1.0, SVG Export Plug-In . SVG Version: 6.00 Build 0)  -->
<!DOCTYPE svg PUBLIC "-//W3C//DTD SVG 1.1//EN" "http://www.w3.org/Graphics/SVG/1.1/DTD/svg11.dtd">
<svg version="1.1" id="Layer_1" xmlns="http://www.w3.org/2000/svg" xmlns:xlink="http://www.w3.org/1999/xlink" x="0px" y="0px"
	 viewBox="0 0 120 120" enable-background="new 0 0 120 120" xml:space="preserve">
<g id="Layer_5">
	<g>
		<g>
			<g>
				<path fill="#FFFFFF" d="M113.4,118.9H6.6c-3,0-5.5-2.5-5.5-5.5V6.6c0-3,2.5-5.5,5.5-5.5h106.8c3,0,5.5,2.5,5.5,5.5v106.8
					C118.9,116.4,116.4,118.9,113.4,118.9z"/>
			</g>
			<g>
				<path fill="#2875D4" d="M113.4,120H6.6C3,120,0,117,0,113.4V6.6C0,2.9,2.9,0,6.6,0h106.8c3.6,0,6.6,3,6.6,6.6v106.8
					C120,117.1,117.1,120,113.4,120z M6.6,2.2c-2.4,0-4.3,1.9-4.3,4.3v106.8c0,2.4,1.9,4.3,4.3,4.3h106.8c2.4,0,4.3-1.9,4.3-4.3V6.6
					c0-2.4-1.9-4.3-4.3-4.3L6.6,2.2L6.6,2.2z"/>
			</g>
			<g>
				<rect x="1.1" y="59" fill="#2875D4" width="117.8" height="2"/>
			</g>
		</g>
		<g>
			<g>
				<g>
					<g>
						<g display="none">
							<g display="inline">
								<path fill="#2875D4" d="M27.9,83.2c-0.3,0-0.5-0.1-0.7-0.3c-0.2-0.2-0.3-0.4-0.3-0.7s0.1-0.5,0.3-0.7
									c0.4-0.4,5.1-1.5,5.2-1.5l2.2-0.2c0.5-0.1,1,0.3,1.1,0.9c0.1,0.5-0.3,1-0.9,1.1c-0.3,0.1-6.1,1.3-6.6,1.4
									C28.1,83.2,28,83.2,27.9,83.2z"/>
							</g>
						</g>
						<g>
							<g>
								<path fill="#2875D4" d="M33.1,107.5c-9.4,0-17.1-7.7-17.1-17.1s7.7-17.1,17.1-17.1c4.7,0,9,1.9,12.3,5.2
									c0.2,0.2,0.2,0.5,0.2,0.7c-0.1,0.3-0.3,0.4-0.6,0.5c-1.8,0.2-3.4,0.5-4.9,0.8c-0.1,0-0.3,0-0.4,0l-2.2-0.9
									c-1.4-0.6-2.9-0.9-4.4-0.9c-6.5,0-11.7,5.3-11.7,11.7c0,6.5,5.3,11.7,11.7,11.7c2.5,0,4.9-0.8,7-2.3
									c0.1-0.1,0.2-0.1,0.3-0.2s0.2-0.2,0.3-0.3c0.6-0.4,1.7-1.1,2.3-1.3c0.2-0.1,0.5-0.2,1.1-0.3c0.5-0.1,1.9-0.5,3.7-1
									c0.3-0.1,0.6,0,0.7,0.2c0.2,0.2,0.2,0.5,0.1,0.8C45.7,103.6,39.7,107.5,33.1,107.5z M33.1,74.7c-8.7,0-15.7,7-15.7,15.7
									s7,15.7,15.7,15.7c5.5,0,10.6-2.9,13.4-7.6c-1,0.3-1.8,0.5-2.1,0.5c-0.7,0.2-0.9,0.2-0.9,0.2c-0.5,0.2-1.5,0.8-2.1,1.2
									c-0.1,0.1-0.2,0.1-0.3,0.2s-0.2,0.2-0.3,0.3c-2.3,1.7-5,2.6-7.8,2.6c-7.2,0-13.1-5.9-13.1-13.1S25.8,77.3,33,77.3
									c1.7,0,3.4,0.3,4.9,1l2,0.8c1-0.2,2.1-0.4,3.3-0.6C40.5,76,36.9,74.7,33.1,74.7z"/>
							</g>
						</g>
					</g>
					<g>
						<g display="none">
							<g display="inline">
								<path fill="#2875D4" d="M32.3,82.1c-0.3,0-0.5-0.1-0.7-0.3c-0.4-0.4-0.4-1,0-1.4l0,0l0,0l0,0c0.2-0.2,0.5-0.3,0.8-0.3
									c0.5,0,1,0.4,1,1c0,0.5-0.3,0.9-0.8,1C32.5,82.1,32.4,82.1,32.3,82.1z"/>
							</g>
						</g>
						<g>
							<g>
								<path fill="#2875D4" d="M39.6,98.2c-0.2,0.1-0.3,0.3-0.5,0.4c-1.7,1.3-3.8,2-6.1,2c-5.6,0-10.2-4.6-10.2-10.2
									S27.4,80.2,33,80.2c1.4,0,2.7,0.3,3.8,0.7c-2.6,0-3.5,0.3-4.7,0.4c-4.6,0.7-8.2,4.3-8.2,9c0,5,4.1,9.1,9.1,9.1
									c0.7,0,1.3-0.1,2-0.2l3-0.7L39.6,98.2z"/>
							</g>
						</g>
					</g>
					<g display="none">
						<g display="inline">
							<g>
								<path fill="#2875D4" d="M34.4,97.5c-0.5,0.1-1,0.2-1.6,0.2c-4.1,0-7.3-3.3-7.3-7.3c0-3.8,2.9-6.9,6.6-7.3
									c-1.7,0.9-2.9,1.8-3.7,2.9c-1.1,1.6-1.3,3.6-0.5,5.7l0,0l0,0C29.3,94.7,31.5,96.6,34.4,97.5z"/>
							</g>
						</g>
					</g>
					<g>
						<g>
							<g>
								<path fill="#2875D4" d="M38.9,97.5c-4.7,0-8.2-2.1-10.1-6c-0.8-1.9-0.6-3.7,0.4-5.2c3.2-4.7,15-6.9,36-6.9
									c26.7,0,35.7,5.9,38.6,10.9c0.5,0.8,0.4,2-0.1,3.1c-0.9,2-3,3.5-5.5,3.9c-0.4,0.1-0.8,0.1-1.1,0.1l0,0c-3,0-5-2.2-6.4-3.8
									c-0.5-0.5-0.9-1.1-1.2-1.3c-1-0.7-6.8-2.3-12.5-3.2c-1,0-1.9-0.1-2.9-0.1c-5.4,0-11.3,1.9-12.4,2.3
									c-1.3,0.5-16.3,5.4-17.6,5.5c-0.1,0-0.3,0.1-0.5,0.1C42.6,97.2,40.9,97.5,38.9,97.5z M65.2,80.9c-20.2,0-32,2.1-34.8,6.3
									c-0.8,1.1-0.9,2.4-0.3,3.8c1.6,3.4,4.6,5.1,8.8,5.1c1.9,0,3.5-0.3,4.4-0.5c0.3-0.1,0.6-0.1,0.7-0.1c1-0.1,15.5-4.7,17.3-5.4
									c1.9-0.8,7.9-2.4,12.9-2.4c1,0,2,0.1,2.9,0.2c5.9,0.9,11.9,2.6,13.1,3.4c0.5,0.3,1,0.9,1.5,1.5c1.3,1.5,2.9,3.4,5.3,3.4l0,0
									c0.3,0,0.6,0,0.9-0.1c2.1-0.4,3.8-1.5,4.5-3.1c0.4-0.8,0.4-1.5,0.2-1.8C100.3,87.2,92.6,80.9,65.2,80.9z"/>
							</g>
						</g>
					</g>
				</g>
			</g>
			<g>
				<g>
					<g>
						<path fill="#2875D4" d="M69.5,53.1L69.5,53.1c-8.2,0-14.3-6.9-14.3-15.9c0-10.4,7.9-19.2,17.3-19.2c3.9,0,7.5,1.6,10.1,4.5
							c3.1,3.4,4.6,8.2,4.2,13.2c-0.8,9-7.7,16.6-15.7,17.5C70.5,53.1,70,53.1,69.5,53.1z M72.4,19.2c-8.7,0-16,8.2-16,17.9
							c0,8.3,5.6,14.6,13,14.6l0,0c0.4,0,0.9,0,1.4-0.1c7.4-0.8,13.8-7.9,14.6-16.3c0.4-4.6-1-9.1-3.8-12.2
							C79.2,20.7,75.9,19.2,72.4,19.2z M71.8,49.5c-5.4,0-9.2-4.4-9.2-10.5c0-7.4,5.7-13.8,12.2-13.8c3.3,0,5.5,1.7,6.7,3.1
							c1.9,2.2,2.8,5.4,2.5,8.7c-0.5,6.3-5.5,12-11.2,12.6C72.5,49.5,72.2,49.5,71.8,49.5z M74.8,26.4c-5.8,0-10.9,5.8-10.9,12.5
							c0,5.3,3.3,9.2,7.9,9.2c0.3,0,0.6,0,0.9,0c5-0.5,9.5-5.6,10-11.4c0.3-2.9-0.6-5.8-2.2-7.7C79.5,27.9,77.6,26.4,74.8,26.4z"/>
					</g>
				</g>
				<g>
					<path fill="#2875D4" d="M75.3,36.1L75.3,36.1c-0.7,0-0.9-0.7-0.9-1.1c-0.2-1,0.6-2,1.4-2c0.2,0,0.4,0.1,0.5,0.2
						c0.2,0.2,0.4,0.5,0.4,0.9C76.8,35.1,76,36,75.3,36.1z"/>
				</g>
				<g>
					<path fill="#2875D4" d="M73.6,42c-0.1,0-0.2,0-0.3,0c-1.8,0-2.2-1.9-2.3-3c-0.1-0.8,0-1.7,0.3-2.4c0.3,0.9,0.9,1.6,2.1,1.7
						c0.1,0,0.2,0,0.3,0c1.5-0.1,3-1.5,3.7-3.4c0.2,0.4,0.3,0.8,0.3,1.3C77.9,39.1,75.7,41.8,73.6,42z"/>
				</g>
				<g>
					<path fill="#2875D4" d="M72.3,47c-3.9,0-6.7-3.2-6.7-7.8c0-5.8,4.6-11.1,9.7-11.1c1.9,0,3.6,0.7,4.8,2.2c1.4,1.6,2.1,4,1.9,6.6
						c-0.4,5-4.5,9.7-8.9,10.1C72.8,47,72.6,47,72.3,47z M75.3,29.4c-4.4,0-8.3,4.7-8.3,9.8c0,4.1,2.6,6.8,6,6.5
						c3.8-0.4,7.3-4.5,7.7-8.9c0.2-2.2-0.4-4.2-1.6-5.6C78.1,30,76.8,29.4,75.3,29.4z"/>
				</g>
				<g>
					<path fill="#2875D4" d="M43.1,34.3L43.1,34.3c-5.6,0-9.9-4.7-9.9-11c0-7.1,5.4-13.2,11.9-13.2c2.6,0,5,1.1,6.9,3
						c0.2,0.1,0.3,0.3,0.3,0.5c0,0.4-0.3,0.7-0.7,0.7l0,0c-0.1,0-0.1,0-0.2,0c-0.6-0.2-1-0.4-1.4-0.5c-0.9-0.3-1.8-0.5-2.7-0.5
						c-5.1,0-9.6,4.8-9.6,10.3c0,2.4,0.9,4.5,2.4,5.9l0,0c0,0,0.5,0.4,0.7,0.5l3.7,3c0.2,0.2,0.3,0.5,0.2,0.7s-0.3,0.4-0.5,0.4h-0.1
						C43.8,34.3,43.5,34.3,43.1,34.3z M45.1,11.4c-5.7,0-10.6,5.4-10.6,11.9c0,5.2,3.3,9.1,7.7,9.6L40,31.1
						c-0.2-0.1-0.8-0.6-0.8-0.6c-1.8-1.7-2.9-4.2-2.9-6.9c0-6.2,5.1-11.6,10.9-11.6c0.3,0,0.6,0,0.8,0
						C47.2,11.6,46.2,11.4,45.1,11.4z"/>
				</g>
				<g>
					<path fill="#2875D4" d="M54,39.5c-0.1,0-0.3,0-0.4-0.1l-12.2-9.7c-0.2-0.1-0.4-0.3-0.5-0.4c-1.5-1.4-2.3-3.3-2.3-5.5
						c0-5.1,4.2-9.5,8.9-9.5c0.9,0,1.7,0.2,2.5,0.5c0.6,0.2,1.8,0.6,3.2,1.1c3,1.1,7.1,2.5,9.8,3.5c0.2,0.1,0.4,0.3,0.4,0.5
						s-0.1,0.5-0.3,0.6c-5.3,3.5-8.6,9.8-8.6,16.4c0,0.6,0,1.2,0.1,1.9c0,0.1,0,0.1,0,0.2C54.6,39.2,54.3,39.5,54,39.5L54,39.5z
						 M47.5,15.4c-4.1,0-7.6,3.9-7.6,8.2c0,1.8,0.7,3.5,1.8,4.5c0.2,0.2,0.3,0.3,0.5,0.4l11,8.8c0-0.2,0-0.4,0-0.7
						c0-6.6,3.1-12.9,8.1-16.7c-2.7-0.9-6.1-2.1-8.6-3.1c-1.4-0.5-2.6-0.9-3.1-1.1c-0.1,0-0.1,0-0.1-0.1
						C48.8,15.5,48.2,15.4,47.5,15.4z"/>
				</g>
			</g>
		</g>
	</g>
</g>
</svg>
