<?xml version="1.0" encoding="utf-8"?>
<!-- Generator: Adobe Illustrator 17.1.0, SVG Export Plug-In . SVG Version: 6.00 Build 0)  -->
<!DOCTYPE svg PUBLIC "-//W3C//DTD SVG 1.1//EN" "http://www.w3.org/Graphics/SVG/1.1/DTD/svg11.dtd">
<svg version="1.1" id="Layer_6" xmlns="http://www.w3.org/2000/svg" xmlns:xlink="http://www.w3.org/1999/xlink" x="0px" y="0px"
	 viewBox="0 0 120 120" enable-background="new 0 0 120 120" xml:space="preserve">
<g>
	<g>
		<path fill="#FFFFFF" d="M113.4,118.9H6.6c-3,0-5.5-2.5-5.5-5.5V6.6c0-3,2.5-5.5,5.5-5.5h106.8c3,0,5.5,2.5,5.5,5.5v106.8
			C118.9,116.4,116.4,118.9,113.4,118.9z"/>
		<path fill="#2875D4" d="M113.4,120H6.6c-3.6,0-6.6-3-6.6-6.6V6.6C0,2.9,2.9,0,6.6,0h106.8c3.6,0,6.6,3,6.6,6.6v106.8
			C120,117.1,117.1,120,113.4,120z M6.6,2.2c-2.4,0-4.3,1.9-4.3,4.3v106.8c0,2.4,1.9,4.3,4.3,4.3h106.8c2.4,0,4.3-1.9,4.3-4.3V6.6
			c0-2.4-1.9-4.3-4.3-4.3H6.6z"/>
	</g>
	<g>
		<g>
			<path fill="#2875D4" d="M92,17.4l-4.1-4.1c-0.1-0.1-0.3-0.2-0.5-0.2c-0.2,0-0.3,0.1-0.5,0.2c-0.3,0.3-0.3,0.7,0,1l3,3H57l0,0
				H44.4l3-3c0.3-0.3,0.3-0.7,0-1c-0.3-0.3-0.7-0.3-1,0l-4.1,4.1c-0.3,0.3-0.3,0.7,0,1l4.1,4.1c0.1,0.1,0.3,0.2,0.5,0.2
				c0.2,0,0.3-0.1,0.5-0.2c0.3-0.3,0.3-0.7,0-1l-3-3h10h0h35.5l-3,3c-0.3,0.3-0.3,0.7,0,1c0.3,0.3,0.7,0.3,1,0l4.1-4.1
				C92.2,18,92.2,17.6,92,17.4z"/>
		</g>
		<g>
			<path fill="#2875D4" d="M32.1,102.9l4.1-4.1c0.1-0.1,0.2-0.3,0.2-0.5c0-0.2-0.1-0.3-0.2-0.5c-0.3-0.3-0.7-0.3-1,0l-3,3V49.7l0,0
				V32.5l3,3c0.3,0.3,0.7,0.3,1,0c0.3-0.3,0.3-0.7,0-1l-4.1-4.1c-0.3-0.3-0.7-0.3-1,0L27,34.6c-0.1,0.1-0.2,0.3-0.2,0.5
				c0,0.2,0.1,0.3,0.2,0.5c0.3,0.3,0.7,0.3,1,0l3-3v14.6v0v53.7l-3-3c-0.3-0.3-0.7-0.3-1,0c-0.3,0.3-0.3,0.7,0,1l4.1,4.1
				C31.4,103.1,31.8,103.1,32.1,102.9z"/>
		</g>
		<g>
			<g>
				<g>
					<path fill="#2875D4" d="M92.2,26.4H42.1c-0.6,0-1.1,0.5-1.1,1.1v78.5c0,0.6,0.5,1.1,1.1,1.1h50.1c0.6,0,1.1-0.5,1.1-1.1V27.4
						C93.2,26.8,92.8,26.4,92.2,26.4z M91.1,104.8H43.2V28.5h47.9V104.8z"/>
				</g>
				<g>
					<path fill="#2875D4" d="M48.2,100.8H86c0.6,0,1.1-0.5,1.1-1.1V33.6c0-0.6-0.5-1.1-1.1-1.1H48.2c-0.6,0-1.1,0.5-1.1,1.1v66.2
						C47.2,100.4,47.6,100.8,48.2,100.8z M81.5,59.9h3.5v13.6h-3.5c-0.3,0-0.5,0.2-0.5,0.5v19.4H53.3V74c0-0.3-0.2-0.5-0.5-0.5h-3.5
						V59.9h3.5c0.3,0,0.5-0.2,0.5-0.5V39.9h27.7v19.4C80.9,59.6,81.2,59.9,81.5,59.9z M49.3,98.7V74.5h2.9V94c0,0.3,0.2,0.5,0.5,0.5
						h28.7c0.3,0,0.5-0.2,0.5-0.5V74.5h2.9v24.1H49.3z M84.9,34.7v24.1H82V39.4c0-0.3-0.2-0.5-0.5-0.5H52.8c-0.3,0-0.5,0.2-0.5,0.5
						v19.4h-2.9V34.7H84.9z"/>
				</g>
				<g>
					<path fill="#2875D4" d="M62.4,66.3h-7.1v0.8h7.1c0.2,0,0.4-0.2,0.4-0.4C62.8,66.4,62.6,66.3,62.4,66.3z"/>
				</g>
				<g>
					<path fill="#2875D4" d="M54.8,65.8h2.8c-0.4-1.1-1.3-1.9-2.5-1.9c-1.5,0-2.8,1.2-2.8,2.8c0,1.5,1.2,2.8,2.8,2.8
						c1.2,0,2.2-0.8,2.5-1.9h-2.8V65.8z"/>
				</g>
			</g>
		</g>
	</g>
</g>
</svg>
