<?xml version="1.0" encoding="utf-8"?>
<!-- Generator: Adobe Illustrator 17.0.0, SVG Export Plug-In . SVG Version: 6.00 Build 0)  -->
<!DOCTYPE svg PUBLIC "-//W3C//DTD SVG 1.1//EN" "http://www.w3.org/Graphics/SVG/1.1/DTD/svg11.dtd">
<svg version="1.1" id="Слой_1" xmlns="http://www.w3.org/2000/svg" xmlns:xlink="http://www.w3.org/1999/xlink" x="0px" y="0px"
	 width="114px" height="174px" viewBox="0 0 114 174" enable-background="new 0 0 114 174" xml:space="preserve">
<g>
	<g>
		<g>
			<g>
				<path fill="#AFAFAF" d="M111.01,0.045H2.99c-1.283,0-2.321,1.037-2.321,2.32v169.27c0,1.283,1.038,2.32,2.321,2.32H111.01
					c1.283,0,2.321-1.037,2.321-2.32V2.365C113.331,1.083,112.293,0.045,111.01,0.045z M108.691,169.314H5.309V4.686h103.381
					V169.314z"/>
			</g>
		</g>
		<g>
			<g>
				<path fill="#AFAFAF" d="M16.25,160.695h81.5c1.283,0,2.321-1.037,2.321-2.32V15.625c0-1.282-1.038-2.32-2.321-2.32h-81.5
					c-1.283,0-2.321,1.038-2.321,2.32v142.75C13.929,159.657,14.967,160.695,16.25,160.695z M87.982,72.328h7.448v29.344h-7.448
					c-0.641,0-1.161,0.521-1.161,1.161v41.915H27.176v-41.915c0-0.639-0.519-1.161-1.161-1.161H18.57V72.328h7.446
					c0.641,0,1.161-0.521,1.161-1.16V29.253h59.645v41.915C86.822,71.807,87.341,72.328,87.982,72.328z M18.57,156.054v-52.061
					h6.286v41.915c0,0.639,0.519,1.16,1.161,1.16h61.966c0.641,0,1.161-0.521,1.161-1.16v-41.915h6.288v52.061H18.57z M95.43,17.946
					v52.061h-6.288V28.092c0-0.638-0.519-1.159-1.161-1.159H26.016c-0.641,0-1.161,0.521-1.161,1.159v41.915H18.57V17.946H95.43z"/>
			</g>
		</g>
		<g>
			<g>
				<path fill="#AFAFAF" d="M46.763,86.121H31.511v1.757h15.253c0.477,0,0.866-0.389,0.866-0.867
					C47.629,86.51,47.24,86.121,46.763,86.121z"/>
			</g>
		</g>
		<g>
			<g>
				<path fill="#AFAFAF" d="M30.529,85.141h5.978c-0.789-2.355-2.865-4.109-5.487-4.109c-3.296,0-5.969,2.672-5.969,5.968
					c0,3.297,2.673,5.97,5.969,5.97c2.623,0,4.699-1.755,5.489-4.111h-5.979V85.141z"/>
			</g>
		</g>
	</g>
</g>
</svg>
