<?xml version="1.0" encoding="utf-8"?>
<!-- Generator: Adobe Illustrator 17.0.0, SVG Export Plug-In . SVG Version: 6.00 Build 0)  -->
<!DOCTYPE svg PUBLIC "-//W3C//DTD SVG 1.1//EN" "http://www.w3.org/Graphics/SVG/1.1/DTD/svg11.dtd">
<svg version="1.1" id="Слой_1" xmlns="http://www.w3.org/2000/svg" xmlns:xlink="http://www.w3.org/1999/xlink" x="0px" y="0px"
	 width="15px" height="14px" viewBox="0 0 15 14" enable-background="new 0 0 15 14" xml:space="preserve">
<g>
	<path fill="#045F87" d="M11.14,13.606c1.683,0,3.266,0,3.266,0c0.232-0.503,0.336-2.04,0.046-2.379
		c-0.196-0.23-0.678-0.765-1.642-0.789V9.666c0.236,0.359,0.619,0.545,0.955,0.545c0.519,0,1.492-0.828,1.147-0.928
		c-0.375-0.11-0.827-0.39-0.875-0.614c-0.022-0.104,0.062-0.652,0.144-1.183c0.124-0.803,0.278-1.802,0.242-2.297
		c-0.139-1.851-1.71-2.779-3.283-2.784C9.566,2.409,7.996,3.337,7.857,5.188C7.821,5.683,7.975,6.682,8.099,7.485
		c0.082,0.53,0.167,1.079,0.144,1.183c-0.049,0.224-0.5,0.504-0.875,0.614c-0.345,0.1,0.628,0.928,1.147,0.928
		c0.336,0,0.719-0.186,0.955-0.545v0.771c-0.964,0.024-1.446,0.559-1.642,0.789c-0.29,0.34-0.186,1.877,0.046,2.379
		C7.873,13.606,9.457,13.606,11.14,13.606z"/>
	<path fill="#0475B3" d="M4.39,0.394c-1.704,0-2.226,0.47-2.672,1.131C1.104,2.434,1.112,3.068,1.106,4.793
		C0.794,4.918,0.629,5.065,0.614,5.228C0.401,7.576,1.318,6.295,1.525,8.008C1.59,8.545,1.589,8.599,1.92,8.949V9.98
		c-0.361-0.015-0.669,0.008-0.788,0.028c0,0-0.818,0.208-1.045,0.528c-0.272,0.383,0.298,2.667,0.449,3.057c6.675,0,1.892,0,3.854,0
		s-2.822,0,3.854,0c0.15-0.39,0.721-2.674,0.449-3.057c-0.227-0.32-1.045-0.528-1.045-0.528C7.529,9.987,7.22,9.964,6.859,9.98
		V8.949c0.331-0.35,0.33-0.404,0.395-0.941c0.208-1.712,1.124-0.431,0.912-2.779c-0.015-0.164-0.181-0.31-0.492-0.435
		C7.668,3.068,7.675,2.434,7.062,1.524C6.616,0.863,6.094,0.394,4.39,0.394z"/>
</g>
</svg>
