<?xml version="1.0" encoding="utf-8"?>
<!-- Generator: Adobe Illustrator 17.0.0, SVG Export Plug-In . SVG Version: 6.00 Build 0)  -->
<!DOCTYPE svg PUBLIC "-//W3C//DTD SVG 1.1//EN" "http://www.w3.org/Graphics/SVG/1.1/DTD/svg11.dtd">
<svg version="1.1" id="Слой_1" xmlns="http://www.w3.org/2000/svg" xmlns:xlink="http://www.w3.org/1999/xlink" x="0px" y="0px"
	 width="65px" height="65px" viewBox="0 0 65 65" enable-background="new 0 0 65 65" xml:space="preserve">
<path fill="#2875D4" d="M32.453,18.518c-15.163,0-32.119,15.704-32.119,15.704s16.956,15.704,32.119,15.704
	C47.504,49.926,65,34.222,65,34.222S47.504,18.518,32.453,18.518z M32.666,46.982c-6.615,0-11.999-5.723-11.999-12.76
	c0-7.037,5.384-12.762,11.999-12.762c6.617,0,11.999,5.725,11.999,12.762C44.666,41.259,39.283,46.982,32.666,46.982z"/>
<path fill="#2875D4" d="M32.668,23.801c-5.401,0-9.798,4.674-9.798,10.421c0,5.747,4.397,10.421,9.798,10.421
	c5.401,0,9.798-4.674,9.798-10.421c0-2.912-1.129-5.548-2.945-7.441c-0.821,1.272-3.544,3.444-4.295,2.68
	c-1.167-1.422,1.111-4.101,2.036-4.442C35.816,24.164,34.481,23.801,32.668,23.801z"/>
</svg>
