<?xml version="1.0" encoding="utf-8"?>
<!-- Generator: Adobe Illustrator 17.0.0, SVG Export Plug-In . SVG Version: 6.00 Build 0)  -->
<!DOCTYPE svg PUBLIC "-//W3C//DTD SVG 1.1//EN" "http://www.w3.org/Graphics/SVG/1.1/DTD/svg11.dtd">
<svg version="1.1" id="Слой_1" xmlns="http://www.w3.org/2000/svg" xmlns:xlink="http://www.w3.org/1999/xlink" x="0px" y="0px"
	 width="50px" height="32px" viewBox="0 0 50 32" enable-background="new 0 0 50 32" xml:space="preserve">
<g>
	<g>
		<g>
			<path fill="#2875D4" d="M19.912,30.808c-0.779,0-3.514,0-3.514,0v1.136c0,0,3.862,0,4.243,0
				C20.641,31.68,20.692,30.808,19.912,30.808z"/>
		</g>
		<g>
			<path fill="#2875D4" d="M1.841,31.943c0.261,0.031,1.122,0.186,1.214-0.588c0.093-0.774,0.418-3.489,0.418-3.489l-1.128-0.135
				C2.345,27.731,1.886,31.565,1.841,31.943z"/>
		</g>
		<g>
			<path fill="#2875D4" d="M18.319,30.573c0,0,0-5.667,0-6.008v-1.126c0-0.87-2.581-0.87-2.979-0.87h-1.456
				c-0.032,0.102-0.069,0.179-0.097,0.224c-0.232,0.35-0.915,1.691-1.256,2.362h2.711c0,0,1.154-0.09,1.154,0.939
				c0,1.029,0,4.48,0,4.48H18.319z"/>
		</g>
		<g>
			<path fill="#2875D4" d="M13.449,22.569c0.159-0.236,0.475-1.955,0.764-3.768c-0.898-0.923-2.459-2.76-2.776-4.122
				c-0.744,1.939-1.451,5.792-1.719,7.187c-0.358,1.829,0.54,6.207-0.02,6.715c-0.48,0.439-5.975-0.61-5.975-0.61l-0.248,1.935
				c0,0,7.146,1.268,8.02,0.736c0.72-0.435,0.586-5.487,0.586-5.487S13.12,23.057,13.449,22.569z"/>
		</g>
		<g>
			<path fill="#2875D4" d="M12.13,13.557c-1.482,0.923,2.244,4.956,2.903,5.464c0.658,0.508,3.803,1.822,4.508,2.14
				c0.599,0.271,0.914-0.135,1.016-0.305c0.101-0.169,0.101-0.745-0.203-1.084c-0.305-0.338-3.576-1.7-4.272-2.138
				c-0.792-0.498-1.928-3.046-2.658-3.998C13.225,13.38,12.854,13.106,12.13,13.557z"/>
		</g>
		<g>
			<path fill="#2875D4" d="M20.453,8.793c-0.415,0.195-2.659,2.935-3.28,3.475c-0.196,0.17-0.553,0.321-0.988,0.459
				c-0.483,0.493-1.149,0.792-1.867,0.792c-0.176,0-0.35-0.023-0.522-0.058c0.282,0.383,0.604,0.948,0.946,1.551
				c0.028,0.049,0.057,0.102,0.089,0.154c1.451-0.439,3.008-1.24,3.366-1.496c0.679-0.484,2.841-3.114,3.349-3.699
				c0.435-0.496,0.134-0.915,0.004-1.061C21.417,8.765,20.864,8.602,20.453,8.793z"/>
		</g>
		<g>
			<path fill="#2875D4" d="M16.587,11.723c0.042-0.123,0.077-0.246,0.1-0.369c-1.42-0.23-3.183-0.611-4.717-1.028
				c-0.291,1.187,0.353,2.423,1.527,2.847C14.752,13.625,16.137,12.975,16.587,11.723z"/>
		</g>
		<g>
			<path fill="#2875D4" d="M17.873,10.901c0,0-0.324-0.165-0.632-0.46c-0.309-0.295-0.012-1.738-1.949-2.436
				c-2.798-1.01-3.611,2.06-3.611,2.06c1.883,0.534,4.438,1.082,6.109,1.275C17.824,11.215,17.873,10.901,17.873,10.901z"/>
		</g>
		<g>
			<path fill="#2875D4" d="M23.486,0.871h0.864V0.023h-1.728v31.92h1.728v-0.848h-0.864c-0.067,0-0.122-0.054-0.122-0.122
				s0.055-0.122,0.122-0.122h0.864v-2.255h-0.547c-0.067,0-0.122-0.054-0.122-0.122c0-0.068,0.055-0.122,0.122-0.122h0.547v-2.254
				h-0.864c-0.067,0-0.122-0.054-0.122-0.122c0-0.067,0.055-0.122,0.122-0.122h0.864V23.6h-0.547c-0.067,0-0.122-0.054-0.122-0.122
				c0-0.067,0.055-0.122,0.122-0.122h0.547v-2.254h-0.864c-0.067,0-0.122-0.055-0.122-0.122c0-0.067,0.055-0.122,0.122-0.122h0.864
				v-2.255h-0.547c-0.067,0-0.122-0.054-0.122-0.122c0-0.068,0.055-0.122,0.122-0.122h0.547v-2.255h-0.864
				c-0.067,0-0.122-0.054-0.122-0.122c0-0.067,0.055-0.122,0.122-0.122h0.864v-2.254h-0.547c-0.067,0-0.122-0.054-0.122-0.122
				c0-0.067,0.055-0.122,0.122-0.122h0.547v-2.255h-0.864c-0.067,0-0.122-0.055-0.122-0.122c0-0.067,0.055-0.122,0.122-0.122h0.864
				V8.61h-0.547c-0.067,0-0.122-0.054-0.122-0.122c0-0.067,0.055-0.122,0.122-0.122h0.547V6.112h-0.864
				c-0.067,0-0.122-0.055-0.122-0.122s0.055-0.122,0.122-0.122h0.864V3.613h-0.547c-0.067,0-0.122-0.054-0.122-0.122
				c0-0.067,0.055-0.122,0.122-0.122h0.547V1.115h-0.864c-0.067,0-0.122-0.054-0.122-0.122S23.419,0.871,23.486,0.871z"/>
		</g>
	</g>
	<g>
		<path fill="#2875D4" d="M26.03,0.025v31.918h22.129V0.025H26.03z M46.676,30.463H27.514V1.505h19.162V30.463z"/>
		<path fill="#2875D4" d="M28.673,3.363v25.243h16.845V3.363H28.673z M45.111,28.199H29.079v-10.63h1.744v9.077h12.54v-9.077h1.748
			V28.199z M45.111,17.163h-2.154v9.077H31.229v-9.077h-2.15v-2.358h2.15V5.724h11.727v9.081h2.154V17.163z M45.111,14.399h-1.748
			V5.318h-12.54v9.081h-1.744V3.769h16.032V14.399z"/>
		<path fill="#2875D4" d="M42.046,15.984c0,0.492-0.398,0.89-0.89,0.89c-0.411,0-0.752-0.272-0.858-0.647h0.899v-0.492h-0.899
			c0.106-0.374,0.447-0.646,0.858-0.646C41.648,15.09,42.046,15.488,42.046,15.984z"/>
		<path fill="#2875D4" d="M41.115,15.818v0.329h-2.318c-0.089,0-0.158-0.073-0.158-0.167c0-0.09,0.069-0.162,0.158-0.162H41.115z"/>
	</g>
</g>
</svg>
