<?xml version="1.0" encoding="utf-8"?>
<!-- Generator: Adobe Illustrator 17.0.0, SVG Export Plug-In . SVG Version: 6.00 Build 0)  -->
<!DOCTYPE svg PUBLIC "-//W3C//DTD SVG 1.1//EN" "http://www.w3.org/Graphics/SVG/1.1/DTD/svg11.dtd">
<svg version="1.1" id="Layer_1" xmlns="http://www.w3.org/2000/svg" xmlns:xlink="http://www.w3.org/1999/xlink" x="0px" y="0px"
	 width="158.109px" height="158px" viewBox="26 0 158.109 158" enable-background="new 26 0 158.109 158" xml:space="preserve">
<g>
	<g>
		<circle fill="#F9E385" cx="61.667" cy="46.595" r="12.723"/>
		<rect x="82.056" y="35.667" fill="#333333" width="38.222" height="5.111"/>
		<rect x="82.056" y="45.889" fill="#333333" width="43.333" height="5.111"/>
		<rect x="82.056" y="61.167" fill="#333333" width="53.5" height="5.111"/>
		<rect x="82.056" y="71.334" fill="#333333" width="10.222" height="5.111"/>
		<rect x="97.388" y="71.334" fill="#333333" width="38.222" height="5.111"/>
		<rect x="82.056" y="86.666" fill="#333333" width="53.5" height="5.111"/>
		<rect x="82.056" y="96.833" fill="#333333" width="38.222" height="5.111"/>
		<rect x="125.389" y="96.833" fill="#333333" width="10.222" height="5.111"/>
		<rect x="125.389" y="35.667" fill="#333333" width="10.222" height="5.111"/>
		<path fill="#333333" d="M176.388,117.222h-5.111h-5.111h-5.111h-5.111v-104.5C155.945,5.709,150.236,0,143.222,0h-104.5
			C31.709,0,26,5.709,26,12.723s5.709,12.723,12.723,12.723V158h107.055v-15.278h10.222V132.5h5.111h5.111h5.111h5.111
			c4.241,0,7.666-3.425,7.666-7.666S180.575,117.222,176.388,117.222z M150.889,12.723v104.5h-5.111V20.389h-2.555
			c-4.241,0-7.666-3.425-7.666-7.666s3.425-7.666,7.666-7.666C147.463,5.056,150.889,8.536,150.889,12.723z M31.111,12.723
			c0-4.241,3.425-7.666,7.666-7.666h94.332c-1.631,2.12-2.61,4.785-2.61,7.666s0.979,5.491,2.61,7.666H38.723
			C34.536,20.389,31.111,16.964,31.111,12.723z M43.833,152.944V25.5h96.833v91.777H68.898l-22.944,7.666l22.944,7.666h71.769
			v20.389L43.833,152.944L43.833,152.944z M62.102,124.888l4.676-1.577v3.099L62.102,124.888z M150.889,137.611h-5.111V132.5h5.111
			V137.611z M155.999,127.444H71.889v-5.111h84.111V127.444L155.999,127.444z M166.167,127.444h-5.111v-5.111h5.111V127.444z
			 M176.388,127.444h-5.111v-5.111h5.111c1.414,0,2.555,1.142,2.555,2.555C178.944,126.302,177.802,127.444,176.388,127.444z"/>
	</g>
</g>
</svg>
