<?xml version="1.0" encoding="utf-8"?>
<!-- Generator: Adobe Illustrator 17.0.0, SVG Export Plug-In . SVG Version: 6.00 Build 0)  -->
<!DOCTYPE svg PUBLIC "-//W3C//DTD SVG 1.1//EN" "http://www.w3.org/Graphics/SVG/1.1/DTD/svg11.dtd">
<svg version="1.1" id="Слой_1" xmlns="http://www.w3.org/2000/svg" xmlns:xlink="http://www.w3.org/1999/xlink" x="0px" y="0px"
	 width="80px" height="80px" viewBox="0 0 80 80" enable-background="new 0 0 80 80" xml:space="preserve">
<g>
	<g>
		<g>
			<g>
				<path fill="#FFFFFF" d="M73.163,79.893c-0.157,0-0.314-0.034-0.461-0.101L47.606,68.328c-0.395-0.18-0.649-0.574-0.649-1.009
					V12.554c0-0.435,0.254-0.829,0.649-1.009L72.702,0.081c0.344-0.157,0.744-0.129,1.061,0.076c0.318,0.204,0.51,0.555,0.51,0.933
					v77.693c0,0.378-0.192,0.729-0.51,0.933C73.582,79.833,73.373,79.893,73.163,79.893z M49.177,66.606l22.876,10.45V2.817
					l-22.876,10.45V66.606z"/>
			</g>
		</g>
	</g>
	<g>
		<g>
			<g>
				<path fill="#FFFFFF" d="M40.76,79.893c-0.157,0-0.314-0.034-0.461-0.101L15.202,68.328c-0.395-0.18-0.649-0.574-0.649-1.009
					V12.554c0-0.435,0.254-0.829,0.649-1.009L40.299,0.081c0.343-0.157,0.745-0.129,1.061,0.076c0.318,0.204,0.51,0.555,0.51,0.933
					v77.693c0,0.378-0.192,0.729-0.51,0.933C41.178,79.833,40.969,79.893,40.76,79.893z M16.773,66.606l22.877,10.45V2.817
					l-22.877,10.45V66.606z"/>
			</g>
		</g>
		<g>
			<g>
				<path fill="#FFFFFF" d="M35.355,46.996c-0.034,0-0.17-0.005-0.203-0.009c-1.561-0.144-2.738-1.878-2.738-4.033
					c0-2.194,1.212-3.849,2.819-3.849c1.666,0.03,2.94,1.806,2.94,4.042C38.172,45.342,36.961,46.996,35.355,46.996z M35.232,41.325
					c-0.114,0-0.598,0.543-0.598,1.629c0,1.152,0.535,1.806,0.721,1.822l0.001,1.11v-1.11c0.122-0.013,0.597-0.548,0.597-1.629
					C35.952,41.98,35.411,41.328,35.232,41.325z"/>
			</g>
		</g>
		<g>
			<g>
				<path fill="#FFFFFF" d="M67.759,46.996c-0.034,0-0.17-0.005-0.203-0.009c-1.561-0.144-2.738-1.878-2.738-4.033
					c0-2.194,1.212-3.849,2.819-3.849c1.666,0.03,2.94,1.806,2.94,4.042C70.576,45.342,69.365,46.996,67.759,46.996z M67.636,41.325
					c-0.114,0-0.598,0.543-0.598,1.629c0,1.152,0.535,1.806,0.721,1.822l0.001,1.11v-1.11c0.122-0.013,0.597-0.548,0.597-1.629
					C68.356,41.98,67.815,41.328,67.636,41.325z"/>
			</g>
		</g>
	</g>
	<g>
		<g>
			<g>
				<path fill="#FFFFFF" d="M18.04,35.071c-1.614,0-2.684-1.372-3.718-2.7c-0.829-1.065-1.687-2.167-2.543-2.167
					c-1.792,0-3.774,1.763-4.387,2.443c-0.409,0.455-1.112,0.491-1.567,0.081c-0.455-0.411-0.492-1.113-0.081-1.568
					c0.117-0.129,2.9-3.176,6.035-3.176c1.94,0,3.191,1.605,4.294,3.023c0.64,0.822,1.436,1.844,1.966,1.844
					c1.378,0,3.933-1.445,5.221-2.355c0.501-0.354,1.193-0.234,1.547,0.266c0.354,0.5,0.235,1.193-0.265,1.547
					C24.144,32.591,20.564,35.071,18.04,35.071z"/>
			</g>
		</g>
		<g>
			<g>
				<path fill="#FFFFFF" d="M18.04,43.48c-1.614,0-2.684-1.372-3.718-2.7c-0.829-1.065-1.687-2.167-2.543-2.167
					c-1.792,0-3.774,1.763-4.387,2.443c-0.409,0.455-1.112,0.491-1.567,0.081c-0.455-0.411-0.492-1.113-0.081-1.568
					c0.117-0.129,2.9-3.176,6.035-3.176c1.94,0,3.191,1.605,4.294,3.023c0.64,0.822,1.436,1.844,1.966,1.844
					c1.378,0,3.933-1.445,5.221-2.355c0.501-0.353,1.193-0.235,1.547,0.266c0.354,0.5,0.235,1.193-0.265,1.547
					C24.144,41,20.564,43.48,18.04,43.48z"/>
			</g>
		</g>
		<g>
			<g>
				<path fill="#FFFFFF" d="M18.04,51.889c-1.614,0-2.684-1.372-3.718-2.7c-0.829-1.065-1.687-2.167-2.543-2.167
					c-1.792,0-3.774,1.763-4.387,2.443c-0.409,0.455-1.112,0.491-1.567,0.081c-0.455-0.411-0.492-1.113-0.081-1.568
					c0.117-0.129,2.9-3.176,6.035-3.176c1.94,0,3.191,1.605,4.294,3.023c0.64,0.822,1.436,1.844,1.966,1.844
					c1.378,0,3.933-1.445,5.221-2.355c0.501-0.354,1.193-0.235,1.547,0.266c0.354,0.5,0.235,1.193-0.265,1.547
					C24.144,49.409,20.564,51.889,18.04,51.889z"/>
			</g>
		</g>
	</g>
	<g>
		<g>
			<g>
				<path fill="#FFFFFF" d="M51.633,39.359c-1.614,0-2.683-1.372-3.717-2.7c-0.83-1.065-1.688-2.167-2.543-2.167
					c-1.57,0-3.228,1.353-3.867,1.935c-0.455,0.412-1.155,0.378-1.568-0.075c-0.412-0.454-0.379-1.155,0.074-1.568
					c1.032-0.938,3.1-2.511,5.361-2.511c1.941,0,3.191,1.606,4.294,3.023c0.64,0.822,1.436,1.844,1.966,1.844
					c1.378,0,3.933-1.445,5.221-2.355c0.502-0.353,1.193-0.234,1.547,0.266c0.354,0.5,0.235,1.193-0.265,1.547
					C57.736,36.879,54.157,39.359,51.633,39.359z"/>
			</g>
		</g>
		<g>
			<g>
				<path fill="#FFFFFF" d="M51.633,47.768c-1.614,0-2.683-1.372-3.717-2.7c-0.83-1.065-1.688-2.167-2.543-2.167
					c-1.569,0-3.227,1.353-3.867,1.934c-0.454,0.413-1.157,0.378-1.568-0.075c-0.412-0.454-0.378-1.157,0.075-1.568
					c1.032-0.938,3.1-2.51,5.359-2.51c1.941,0,3.191,1.606,4.294,3.023c0.64,0.822,1.436,1.844,1.966,1.844
					c1.378,0,3.933-1.445,5.221-2.355c0.502-0.354,1.193-0.235,1.547,0.266c0.354,0.5,0.235,1.193-0.265,1.547
					C57.736,45.288,54.157,47.768,51.633,47.768z"/>
			</g>
		</g>
	</g>
</g>
</svg>
