<?xml version="1.0" encoding="utf-8"?>
<!-- Generator: Adobe Illustrator 17.0.0, SVG Export Plug-In . SVG Version: 6.00 Build 0)  -->
<!DOCTYPE svg PUBLIC "-//W3C//DTD SVG 1.1//EN" "http://www.w3.org/Graphics/SVG/1.1/DTD/svg11.dtd">
<svg version="1.1" id="Слой_1" xmlns="http://www.w3.org/2000/svg" xmlns:xlink="http://www.w3.org/1999/xlink" x="0px" y="0px"
	 width="80px" height="80px" viewBox="0 0 80 80" enable-background="new 0 0 80 80" xml:space="preserve">
<g>
	<g>
		<g>
			<g>
				<g>
					<path fill="#FFFFFF" d="M70.003,79.912c-0.157,0-0.313-0.034-0.459-0.1L47.639,69.805c-0.394-0.179-0.647-0.573-0.647-1.006
						V30.538c0-0.433,0.253-0.827,0.647-1.006l21.905-10.005c0.34-0.157,0.739-0.129,1.058,0.076
						c0.317,0.203,0.508,0.554,0.508,0.93v58.272c0,0.376-0.191,0.727-0.508,0.93C70.42,79.853,70.212,79.912,70.003,79.912z
						 M49.205,68.088l19.692,8.995V22.255l-19.692,8.995V68.088z"/>
				</g>
			</g>
			<g>
				<g>
					<path fill="#FFFFFF" d="M64.518,56.339c-0.035,0-0.171-0.005-0.204-0.009c-1.563-0.144-2.741-1.88-2.741-4.04
						c0-2.198,1.214-3.856,2.821-3.856c1.668,0.03,2.944,1.809,2.944,4.05C67.337,54.682,66.125,56.339,64.518,56.339z
						 M64.394,50.647c-0.116,0-0.608,0.547-0.608,1.643c0,1.161,0.542,1.819,0.729,1.836l0.003,1.107v-1.107
						c0.12,0,0.606-0.527,0.606-1.641C65.124,51.308,64.575,50.651,64.394,50.647z"/>
				</g>
			</g>
		</g>
		<g>
			<g>
				<g>
					<path fill="#FFFFFF" d="M42.516,30.374c-0.19,0-0.38-0.05-0.551-0.147c-0.317-0.183-0.524-0.509-0.552-0.873
						c-0.821-10.52,5.769-14.238,6.05-14.391L69.248,0.467c0.025-0.015,0.13-0.076,0.156-0.09c0.343-0.193,0.762-0.188,1.1,0.011
						c0.338,0.198,0.547,0.562,0.547,0.954v14.014c0,0.425-0.243,0.812-0.626,0.996l-7.175,3.465L48.509,27.6l-5.511,2.664
						C42.845,30.337,42.68,30.374,42.516,30.374z M68.837,3.414L48.605,16.856c-0.287,0.164-5.029,2.913-5.05,10.681l3.955-1.912
						l14.742-7.781l6.585-3.181V3.414z"/>
				</g>
			</g>
			<g>
				<g>
					<path fill="#FFFFFF" d="M62.767,19.931c-0.19,0-0.38-0.05-0.551-0.147c-0.317-0.182-0.523-0.509-0.552-0.873
						C60.6,5.347,69.054,0.573,69.415,0.377c0.344-0.185,0.759-0.178,1.095,0.019c0.335,0.2,0.541,0.562,0.541,0.952v13.625
						c0.012,0.036,0.022,0.071,0.03,0.108c0.111,0.484-0.167,1.005-0.602,1.244l0.001,0.002c-0.009,0.003-0.017,0.008-0.026,0.011
						c-0.009,0.005-0.018,0.011-0.028,0.015c-0.001,0-0.001,0-0.002,0.001l-7.175,3.467C63.097,19.895,62.932,19.931,62.767,19.931z
						 M68.838,3.562c-2.028,1.866-5.193,5.998-5.049,13.54l5.049-2.44V3.562z"/>
				</g>
			</g>
		</g>
	</g>
	<g>
		<g>
			<g>
				<g>
					<path fill="#FFFFFF" d="M19.679,32.649c-2.275,0-4.126-1.85-4.126-4.125s1.851-4.125,4.126-4.125s4.125,1.85,4.125,4.125
						S21.954,32.649,19.679,32.649z M19.679,26.613c-1.055,0-1.913,0.858-1.913,1.912s0.858,1.912,1.913,1.912
						c1.054,0,1.912-0.858,1.912-1.912S20.733,26.613,19.679,26.613z"/>
				</g>
			</g>
			<g>
				<g>
					<g>
						<path fill="#FFFFFF" d="M19.679,23.667c-0.216,0-0.432-0.064-0.62-0.19l-2.998-2.027c-0.506-0.343-0.639-1.03-0.296-1.537
							c0.343-0.504,1.029-0.64,1.537-0.296l2.377,1.608l2.376-1.608c0.508-0.344,1.194-0.207,1.537,0.296
							c0.343,0.507,0.21,1.194-0.296,1.537L20.3,23.477C20.112,23.603,19.896,23.667,19.679,23.667z"/>
					</g>
				</g>
				<g>
					<g>
						<path fill="#FFFFFF" d="M19.675,26.613c-0.612,0-1.107-0.495-1.107-1.107v-7.238c0-0.612,0.495-1.107,1.107-1.107
							c0.612,0,1.107,0.495,1.107,1.107v7.238C20.782,26.118,20.287,26.613,19.675,26.613z"/>
					</g>
				</g>
			</g>
			<g>
				<g>
					<g>
						<path fill="#FFFFFF" d="M11.262,28.23c-0.411,0-0.805-0.229-0.996-0.622c-0.267-0.55-0.038-1.212,0.511-1.479l2.58-1.253
							l-0.203-2.863c-0.044-0.609,0.415-1.139,1.024-1.182c0.626-0.057,1.139,0.416,1.182,1.024l0.257,3.609
							c0.032,0.452-0.213,0.876-0.619,1.074l-3.254,1.581C11.588,28.195,11.424,28.23,11.262,28.23z"/>
					</g>
				</g>
				<g>
					<g>
						<path fill="#FFFFFF" d="M17.071,28.125c-0.188,0-0.377-0.048-0.552-0.148l-6.276-3.619c-0.528-0.305-0.711-0.982-0.405-1.512
							c0.305-0.528,0.98-0.71,1.512-0.405l6.276,3.619c0.528,0.305,0.711,0.982,0.405,1.512
							C17.826,27.927,17.453,28.125,17.071,28.125z"/>
					</g>
				</g>
			</g>
			<g>
				<g>
					<g>
						<path fill="#FFFFFF" d="M14.258,36.221c-0.026,0-0.053-0.001-0.08-0.003c-0.609-0.043-1.069-0.573-1.024-1.182l0.203-2.861
							l-2.58-1.255c-0.549-0.267-0.778-0.929-0.511-1.479c0.267-0.549,0.928-0.778,1.479-0.511l3.254,1.582
							c0.406,0.198,0.652,0.622,0.619,1.074l-0.257,3.608C15.319,35.776,14.833,36.221,14.258,36.221z"/>
					</g>
				</g>
				<g>
					<g>
						<path fill="#FFFFFF" d="M10.797,34.762c-0.383,0-0.754-0.199-0.96-0.553c-0.306-0.529-0.124-1.206,0.405-1.512l6.276-3.62
							c0.531-0.306,1.205-0.123,1.512,0.405c0.306,0.529,0.124,1.206-0.405,1.512l-6.276,3.62
							C11.174,34.715,10.985,34.762,10.797,34.762z"/>
					</g>
				</g>
			</g>
			<g>
				<g>
					<g>
						<path fill="#FFFFFF" d="M22.675,37.622c-0.213,0-0.429-0.062-0.619-0.19l-2.376-1.608l-2.377,1.608
							c-0.508,0.344-1.194,0.209-1.537-0.296c-0.343-0.507-0.21-1.194,0.296-1.537l2.998-2.027c0.376-0.253,0.864-0.253,1.241,0
							l2.997,2.027c0.506,0.343,0.639,1.03,0.296,1.537C23.378,37.451,23.03,37.622,22.675,37.622z"/>
					</g>
				</g>
				<g>
					<g>
						<path fill="#FFFFFF" d="M19.675,39.887c-0.612,0-1.107-0.495-1.107-1.107v-7.239c0-0.612,0.495-1.107,1.107-1.107
							c0.612,0,1.107,0.495,1.107,1.107v7.239C20.782,39.392,20.287,39.887,19.675,39.887z"/>
					</g>
				</g>
			</g>
			<g>
				<g>
					<g>
						<path fill="#FFFFFF" d="M25.1,36.221c-0.575,0-1.061-0.445-1.102-1.028l-0.257-3.608c-0.032-0.452,0.213-0.876,0.619-1.074
							l3.255-1.582c0.55-0.266,1.212-0.037,1.479,0.511c0.267,0.55,0.038,1.212-0.511,1.479l-2.582,1.255l0.203,2.861
							c0.044,0.609-0.415,1.139-1.024,1.182C25.153,36.22,25.126,36.221,25.1,36.221z"/>
					</g>
				</g>
				<g>
					<g>
						<path fill="#FFFFFF" d="M28.561,34.762c-0.188,0-0.377-0.048-0.552-0.148l-6.276-3.62c-0.529-0.306-0.711-0.982-0.405-1.512
							c0.306-0.528,0.98-0.711,1.512-0.405l6.276,3.62c0.529,0.306,0.711,0.982,0.405,1.512
							C29.315,34.564,28.943,34.762,28.561,34.762z"/>
					</g>
				</g>
			</g>
			<g>
				<g>
					<g>
						<path fill="#FFFFFF" d="M28.097,28.23c-0.162,0-0.326-0.036-0.482-0.111l-3.255-1.581c-0.407-0.198-0.653-0.622-0.62-1.074
							l0.257-3.609c0.043-0.608,0.56-1.078,1.182-1.024c0.609,0.043,1.069,0.573,1.024,1.182l-0.203,2.863l2.58,1.253
							c0.55,0.267,0.779,0.929,0.512,1.478C28.902,28.001,28.508,28.23,28.097,28.23z"/>
					</g>
				</g>
				<g>
					<g>
						<path fill="#FFFFFF" d="M22.287,28.125c-0.383,0-0.754-0.199-0.96-0.553c-0.306-0.529-0.123-1.207,0.405-1.512l6.276-3.619
							c0.533-0.307,1.206-0.122,1.512,0.405c0.306,0.529,0.123,1.207-0.405,1.512l-6.276,3.619
							C22.664,28.078,22.474,28.125,22.287,28.125z"/>
					</g>
				</g>
			</g>
		</g>
		<g>
			<g>
				<g>
					<path fill="#FFFFFF" d="M19.679,52.857c-0.612,0-1.107-0.495-1.107-1.107v-3.32c0-0.612,0.495-1.107,1.107-1.107
						s1.107,0.495,1.107,1.107v3.32C20.786,52.362,20.291,52.857,19.679,52.857z"/>
				</g>
			</g>
			<g>
				<g>
					<path fill="#FFFFFF" d="M15.707,54.503c-0.283,0-0.566-0.108-0.782-0.324l-2.348-2.348c-0.432-0.432-0.432-1.132,0-1.565
						c0.432-0.432,1.132-0.432,1.565,0l2.348,2.348c0.432,0.432,0.432,1.132,0,1.565C16.273,54.395,15.99,54.503,15.707,54.503z"/>
				</g>
			</g>
			<g>
				<g>
					<path fill="#FFFFFF" d="M14.061,58.475h-3.32c-0.612,0-1.107-0.495-1.107-1.107c0-0.612,0.495-1.107,1.107-1.107h3.32
						c0.612,0,1.107,0.495,1.107,1.107C15.168,57.98,14.673,58.475,14.061,58.475z"/>
				</g>
			</g>
			<g>
				<g>
					<path fill="#FFFFFF" d="M13.359,64.795c-0.283,0-0.566-0.108-0.782-0.324c-0.432-0.432-0.432-1.132,0-1.565l2.348-2.347
						c0.432-0.432,1.132-0.432,1.565,0s0.432,1.132,0,1.565l-2.348,2.347C13.925,64.686,13.642,64.795,13.359,64.795z"/>
				</g>
			</g>
			<g>
				<g>
					<path fill="#FFFFFF" d="M19.679,67.412c-0.612,0-1.107-0.495-1.107-1.107v-3.32c0-0.612,0.495-1.107,1.107-1.107
						s1.107,0.495,1.107,1.107v3.32C20.786,66.917,20.291,67.412,19.679,67.412z"/>
				</g>
			</g>
			<g>
				<g>
					<path fill="#FFFFFF" d="M25.999,64.795c-0.283,0-0.566-0.108-0.782-0.324l-2.347-2.347c-0.432-0.432-0.432-1.132,0-1.565
						c0.432-0.432,1.132-0.432,1.565,0l2.347,2.347c0.432,0.432,0.432,1.132,0,1.565C26.565,64.686,26.282,64.795,25.999,64.795z"/>
				</g>
			</g>
			<g>
				<g>
					<path fill="#FFFFFF" d="M28.616,58.475h-3.32c-0.612,0-1.107-0.495-1.107-1.107c0-0.612,0.495-1.107,1.107-1.107h3.32
						c0.612,0,1.107,0.495,1.107,1.107C29.723,57.98,29.228,58.475,28.616,58.475z"/>
				</g>
			</g>
			<g>
				<g>
					<path fill="#FFFFFF" d="M23.652,54.503c-0.283,0-0.566-0.108-0.782-0.324c-0.432-0.432-0.432-1.132,0-1.565l2.347-2.348
						c0.432-0.432,1.132-0.432,1.565,0c0.432,0.432,0.432,1.132,0,1.565l-2.347,2.348C24.218,54.395,23.935,54.503,23.652,54.503z"
						/>
				</g>
			</g>
			<g>
				<g>
					<path fill="#FFFFFF" d="M19.679,61.493c-2.275,0-4.126-1.85-4.126-4.125s1.851-4.125,4.126-4.125s4.125,1.85,4.125,4.125
						S21.954,61.493,19.679,61.493z M19.679,55.457c-1.055,0-1.913,0.858-1.913,1.912s0.858,1.912,1.913,1.912
						c1.054,0,1.912-0.858,1.912-1.912S20.733,55.457,19.679,55.457z"/>
				</g>
			</g>
		</g>
	</g>
</g>
</svg>
