<?xml version="1.0" encoding="utf-8"?>
<!-- Generator: Adobe Illustrator 17.0.0, SVG Export Plug-In . SVG Version: 6.00 Build 0)  -->
<!DOCTYPE svg PUBLIC "-//W3C//DTD SVG 1.1//EN" "http://www.w3.org/Graphics/SVG/1.1/DTD/svg11.dtd">
<svg version="1.1" id="Слой_1" xmlns="http://www.w3.org/2000/svg" xmlns:xlink="http://www.w3.org/1999/xlink" x="0px" y="0px"
	 width="80px" height="80px" viewBox="0 0 80 80" enable-background="new 0 0 80 80" xml:space="preserve">
<g>
	<g>
		<g>
			<g>
				<path fill="#FFFFFF" d="M35.147,79.958c-0.158,0-0.317-0.034-0.465-0.102l-10.226-4.675c-0.043-0.014-0.083-0.032-0.122-0.051
					l-6.531-2.983c-0.029-0.011-0.059-0.022-0.08-0.032l-12.16-5.559c-0.398-0.182-0.653-0.579-0.653-1.017V14.673
					c0-0.439,0.257-0.838,0.658-1.019l0.627-0.284c0.032-0.019,0.064-0.036,0.097-0.051L19.894,7.11
					c0.039-0.017,0.08-0.033,0.121-0.047l14.667-6.71c0.343-0.156,0.747-0.129,1.07,0.078c0.32,0.205,0.513,0.56,0.513,0.941v77.468
					c0,0.381-0.193,0.735-0.515,0.942C35.568,79.898,35.358,79.958,35.147,79.958z M25.246,73.087
					c0.022,0.008,0.043,0.016,0.062,0.025l8.72,3.986V3.112l-13.17,6.023c-0.04,0.019-0.081,0.034-0.123,0.048L7.308,15.314
					c-0.034,0.02-0.068,0.038-0.103,0.054l-0.059,0.026V64.82l11.461,5.24c0.029,0.011,0.059,0.022,0.079,0.031l6.544,2.987
					C25.233,73.08,25.238,73.082,25.246,73.087z"/>
			</g>
		</g>
		<g>
			<g>
				<path fill="#FFFFFF" d="M6.027,27.224c-0.14,0-0.282-0.026-0.417-0.081c-0.424-0.17-0.701-0.581-0.701-1.038v-0.045
					c0-0.287,0.11-0.564,0.309-0.772l0.604-0.634c1.659-1.739,3.435-3.602,5.298-5.535c0.039-0.05,0.082-0.097,0.129-0.139
					l9.678-10.127c0.037-0.043,0.078-0.083,0.12-0.12c0.692-0.735,1.448-1.524,2.199-2.309l1.291-1.35
					c0.091-0.095,0.198-0.174,0.316-0.232c0.486-0.238,1.108-0.113,1.429,0.327c0.321,0.437,0.315,1.025-0.06,1.417l-3.548,3.715
					c-0.025,0.032-0.05,0.061-0.075,0.088L12.9,20.532c-0.025,0.034-0.052,0.066-0.079,0.094l-5.986,6.253
					C6.621,27.104,6.327,27.224,6.027,27.224z"/>
			</g>
		</g>
		<g>
			<g>
				<path fill="#FFFFFF" d="M35.122,24.702c-0.291,0-0.574-0.11-0.782-0.328l-2.327-2.427c-0.03-0.032-0.058-0.063-0.083-0.097
					L19.552,8.904c-0.268-0.279-0.373-0.675-0.279-1.049c0.094-0.374,0.375-0.673,0.742-0.792c0.411-0.13,0.891-0.028,1.187,0.283
					c0.454,0.477,0.921,0.966,1.387,1.443c0.034,0.035,0.066,0.071,0.094,0.109c1.809,1.887,3.618,3.782,5.395,5.647
					c0.032,0.029,0.062,0.061,0.09,0.094c1.877,1.953,3.71,3.874,5.464,5.718c0.003,0.004,0.008,0.009,0.012,0.013l0,0
					c0.799,0.82,1.573,1.63,2.316,2.418c0.196,0.208,0.305,0.482,0.305,0.767c0,0.457-0.277,0.89-0.701,1.061
					C35.421,24.672,35.27,24.702,35.122,24.702z"/>
			</g>
		</g>
		<g>
			<g>
				<path fill="#FFFFFF" d="M35.147,45.262c-0.296,0-0.591-0.117-0.812-0.348l-0.003-0.003L5.936,15.122
					c-0.406-0.425-0.415-1.091-0.02-1.526c0.209-0.229,0.508-0.368,0.818-0.371c0.291-0.01,0.613,0.114,0.828,0.338l5.243,5.466
					c0.009,0.01,0.017,0.019,0.027,0.028l5.503,5.75c0.013,0.014,0.026,0.028,0.038,0.043c1.821,1.909,3.63,3.804,5.439,5.689
					c0.032,0.029,0.061,0.06,0.09,0.093c1.846,1.923,3.679,3.837,5.47,5.715c0.085,0.083,0.154,0.176,0.208,0.275l6.38,6.755
					c0.424,0.449,0.404,1.156-0.044,1.58C35.7,45.16,35.423,45.262,35.147,45.262z"/>
			</g>
		</g>
		<g>
			<g>
				<path fill="#FFFFFF" d="M7.756,36.963c-0.288,0-0.572-0.11-0.784-0.323l-1.752-1.83c-0.424-0.442-0.412-1.144,0.026-1.573
					c0.437-0.428,1.139-0.425,1.572,0.008c0.429,0.429,0.853,0.871,1.287,1.324l0.452,0.471c0.075,0.078,0.138,0.166,0.187,0.261
					c0.088,0.165,0.138,0.351,0.138,0.537c0,0.452-0.272,0.866-0.69,1.039C8.05,36.935,7.902,36.963,7.756,36.963z"/>
			</g>
		</g>
		<g>
			<g>
				<path fill="#FFFFFF" d="M35.122,65.612c-0.291,0-0.575-0.11-0.783-0.329l-5.314-5.559c-0.031-0.033-0.059-0.066-0.085-0.101
					L23.5,53.952c-0.029-0.031-0.057-0.063-0.083-0.097l-5.434-5.676c-0.031-0.033-0.06-0.067-0.086-0.103L6.954,36.622
					c-0.426-0.446-0.411-1.151,0.033-1.579c0.445-0.426,1.151-0.415,1.579,0.027c1.104,1.141,2.249,2.335,3.435,3.571l2.069,2.157
					c0.003,0.003,0.007,0.007,0.01,0.01c1.492,1.558,3.015,3.153,4.564,4.776l0.915,0.959c0.034,0.031,0.066,0.063,0.096,0.098
					l0.388,0.404c1.687,1.76,3.39,3.537,5.085,5.315c0.028,0.029,0.055,0.061,0.08,0.094l2.047,2.137
					c1.146,1.196,2.279,2.379,3.395,3.538c0.034,0.035,0.066,0.073,0.094,0.111l5.211,5.451c0.199,0.208,0.31,0.485,0.31,0.772
					c0,0.457-0.279,0.89-0.702,1.061C35.42,65.582,35.27,65.612,35.122,65.612z"/>
			</g>
		</g>
		<g>
			<g>
				<path fill="#FFFFFF" d="M24.832,75.248c-0.168,0-0.34-0.038-0.499-0.118l-0.068-0.034c-0.116-0.058-0.22-0.135-0.309-0.228
					L13.733,64.175c-0.029-0.032-0.058-0.064-0.084-0.099l-5.431-5.673c-0.043-0.045-0.083-0.094-0.118-0.146l-2.93-3.5
					c-0.385-0.459-0.339-1.139,0.103-1.543c0.441-0.405,1.123-0.391,1.546,0.034c0.146,0.146,0.541,0.616,1.652,1.952
					c0.618,0.744,1.215,1.464,1.354,1.611c0.027,0.029,0.055,0.061,0.079,0.094l5.442,5.673c0.003,0.003,0.008,0.007,0.011,0.011
					c1.725,1.811,3.502,3.664,5.293,5.529l0.223,0.233c0.003,0.003,0.007,0.007,0.01,0.01l4.642,4.871
					c0.274,0.204,0.451,0.53,0.451,0.898c0,0.618-0.5,1.119-1.119,1.119C24.846,75.25,24.839,75.248,24.832,75.248z"/>
			</g>
		</g>
		<g>
			<g>
				<path fill="#FFFFFF" d="M6.027,50.324c-0.14,0-0.282-0.026-0.416-0.081c-0.424-0.169-0.702-0.581-0.702-1.038v-0.044
					c0-0.287,0.11-0.564,0.308-0.771c2.187-2.297,4.613-4.835,7.163-7.496c0.024-0.032,0.05-0.062,0.079-0.092
					c3.153-3.288,6.486-6.766,9.751-10.199c0.003-0.003,0.008-0.008,0.011-0.011c0.004-0.005,0.01-0.01,0.014-0.015
					c2.125-2.215,4.228-4.414,6.251-6.527l3.514-3.673c0.031-0.032,0.062-0.061,0.096-0.09l2.242-2.35
					c0.316-0.331,0.803-0.436,1.225-0.264c0.425,0.169,0.702,0.581,0.702,1.038c0,0.287-0.11,0.587-0.309,0.795L14.164,42.301
					c-0.025,0.034-0.051,0.066-0.079,0.094l-7.25,7.584C6.621,50.204,6.327,50.324,6.027,50.324z"/>
			</g>
		</g>
		<g>
			<g>
				<path fill="#FFFFFF" d="M10.525,68.716c-0.163,0-0.328-0.035-0.481-0.108c-0.323-0.155-0.566-0.46-0.63-0.813
					c-0.066-0.352,0.031-0.72,0.277-0.98l4.018-4.219c0.033-0.034,0.067-0.066,0.103-0.094l9.675-10.12l0.001,0.001
					c0.21-0.225,0.507-0.368,0.83-0.368c0.57,0,1.041,0.427,1.11,0.979c0.054,0.327-0.04,0.672-0.288,0.933L11.334,68.37
					C11.117,68.597,10.823,68.716,10.525,68.716z"/>
			</g>
		</g>
		<g>
			<g>
				
					<path fill="none" stroke="#FFFFFF" stroke-width="2" stroke-linecap="round" stroke-linejoin="round" stroke-miterlimit="10" d="
					M34.095,42.908"/>
			</g>
		</g>
		<g>
			<g>
				<path fill="#FFFFFF" d="M25.896,75.73c-0.177,0-0.355-0.042-0.519-0.128l-0.023-0.012c-0.312-0.163-0.529-0.464-0.586-0.811
					c-0.056-0.347,0.054-0.701,0.298-0.956l7.104-7.406c0.428-0.446,1.135-0.461,1.58-0.032c0.446,0.426,0.462,1.134,0.036,1.58
					l-7.081,7.418C26.489,75.611,26.194,75.73,25.896,75.73z"/>
			</g>
		</g>
		<g>
			<g>
				<path fill="#FFFFFF" d="M32.977,68.313c-0.277,0-0.555-0.103-0.771-0.308c-0.446-0.425-0.465-1.13-0.043-1.577
					c0.669-0.71,1.33-1.403,1.973-2.077l0.201-0.211c0.316-0.331,0.801-0.435,1.226-0.267c0.424,0.17,0.702,0.581,0.702,1.039
					c0,0.288-0.111,0.59-0.311,0.797l-2.17,2.259C33.565,68.198,33.271,68.313,32.977,68.313z"/>
			</g>
		</g>
		<g>
			<g>
				<path fill="#FFFFFF" d="M29.138,51.148c-0.034,0-0.175-0.005-0.209-0.009c-1.603-0.145-2.812-1.93-2.812-4.152
					c0-2.259,1.244-3.962,2.893-3.962c1.711,0.031,3.018,1.858,3.018,4.162C32.029,49.445,30.786,51.148,29.138,51.148z
					 M29.01,45.262c-0.163,0-0.655,0.612-0.655,1.725c0,1.216,0.578,1.906,0.777,1.924l0.007,1.119v-1.119
					c0.163,0,0.653-0.611,0.653-1.724C29.792,45.953,29.205,45.265,29.01,45.262z"/>
			</g>
		</g>
	</g>
	<g>
		<g>
			<g>
				<path fill="#FFFFFF" d="M50.098,72.878c-4.208,0-7.631-3.423-7.631-7.631c0-2.403,1.116-4.63,3.016-6.071V11.947
					c0-2.544,2.07-4.615,4.615-4.615c2.544,0,4.615,2.07,4.615,4.615v47.228c1.9,1.44,3.017,3.666,3.017,6.072
					C57.73,69.455,54.306,72.878,50.098,72.878z M50.099,9.57c-1.311,0-2.378,1.066-2.378,2.377v47.811
					c0,0.381-0.194,0.737-0.517,0.943c-1.565,1-2.5,2.699-2.5,4.546c0,2.974,2.42,5.393,5.393,5.393c2.975,0,5.395-2.42,5.395-5.393
					c0-1.847-0.935-3.547-2.501-4.546c-0.321-0.205-0.517-0.56-0.517-0.943V11.947C52.475,10.636,51.409,9.57,50.099,9.57z"/>
			</g>
		</g>
		<g>
			<g>
				<path fill="#FFFFFF" d="M53.594,20.165h-3.495c-0.618,0-1.119-0.5-1.119-1.119s0.5-1.119,1.119-1.119h3.495
					c0.618,0,1.119,0.5,1.119,1.119S54.212,20.165,53.594,20.165z"/>
			</g>
		</g>
		<g>
			<g>
				<path fill="#FFFFFF" d="M53.594,28.53h-3.495c-0.618,0-1.119-0.5-1.119-1.119s0.5-1.119,1.119-1.119h3.495
					c0.618,0,1.119,0.5,1.119,1.119S54.212,28.53,53.594,28.53z"/>
			</g>
		</g>
		<g>
			<g>
				<path fill="#FFFFFF" d="M53.594,36.896h-3.495c-0.618,0-1.119-0.5-1.119-1.119s0.5-1.119,1.119-1.119h3.495
					c0.618,0,1.119,0.5,1.119,1.119S54.212,36.896,53.594,36.896z"/>
			</g>
		</g>
		<g>
			<g>
				<path fill="#FFFFFF" d="M53.594,45.262h-3.495c-0.618,0-1.119-0.5-1.119-1.119s0.5-1.119,1.119-1.119h3.495
					c0.618,0,1.119,0.5,1.119,1.119S54.212,45.262,53.594,45.262z"/>
			</g>
		</g>
		<g>
			<g>
				<path fill="#FFFFFF" d="M53.594,53.628h-3.495c-0.618,0-1.119-0.5-1.119-1.119s0.5-1.119,1.119-1.119h3.495
					c0.618,0,1.119,0.5,1.119,1.119S54.212,53.628,53.594,53.628z"/>
			</g>
		</g>
	</g>
	<g>
		<g>
			<g>
				<path fill="#FFFFFF" d="M68.355,59.465c-0.618,0-1.119-0.5-1.119-1.119v-36.48c0-0.618,0.5-1.119,1.119-1.119
					c0.618,0,1.119,0.5,1.119,1.119v36.48C69.474,58.964,68.973,59.465,68.355,59.465z"/>
			</g>
		</g>
		<g>
			<g>
				<path fill="#FFFFFF" d="M73.148,27.778c-0.286,0-0.572-0.109-0.791-0.328l-4.002-4.003l-4.003,4.003
					c-0.437,0.437-1.145,0.437-1.582,0s-0.437-1.145,0-1.582l4.794-4.794c0.21-0.21,0.494-0.328,0.791-0.328l0,0
					c0.297,0,0.581,0.118,0.791,0.328l4.793,4.794c0.437,0.437,0.437,1.145,0,1.582C73.72,27.669,73.434,27.778,73.148,27.778z"/>
			</g>
		</g>
	</g>
</g>
</svg>
