<?xml version="1.0" encoding="utf-8"?>
<!-- Generator: Adobe Illustrator 17.0.0, SVG Export Plug-In . SVG Version: 6.00 Build 0)  -->
<!DOCTYPE svg PUBLIC "-//W3C//DTD SVG 1.1//EN" "http://www.w3.org/Graphics/SVG/1.1/DTD/svg11.dtd">
<svg version="1.1" id="Слой_1" xmlns="http://www.w3.org/2000/svg" xmlns:xlink="http://www.w3.org/1999/xlink" x="0px" y="0px"
	 width="334.47px" height="239.101px" viewBox="0 0 334.47 239.101" enable-background="new 0 0 334.47 239.101"
	 xml:space="preserve">
<image overflow="visible" opacity="0.7" width="70" height="48" id="Layer_9_copy_2_xA0_Изображение_2_" xlink:href="F97D6EB.png"  transform="matrix(4.5537 -1.3385 0.4639 1.5781 52.1099 184.3303)">
</image>
<g>
	<defs>
		<rect id="SVGID_1_" x="3" y="4" width="334.47" height="239.101"/>
	</defs>
	<clipPath id="SVGID_2_">
		<use xlink:href="#SVGID_1_"  overflow="visible"/>
	</clipPath>
	<g clip-path="url(#SVGID_2_)">
		<defs>
			<rect id="SVGID_3_" x="3" y="4" width="334.47" height="239.101"/>
		</defs>
		<clipPath id="SVGID_4_">
			<use xlink:href="#SVGID_3_"  overflow="visible"/>
		</clipPath>
		<path clip-path="url(#SVGID_4_)" fill="#BF2631" d="M207.545,32.38c21.804,20.271,33.411,12.902,30.996,8.782
			c-4.394-7.498-6.969-18.532-15.036-23.083c-5.881-3.315-13.234-2.378-19.654-3.668c-6.698-1.347-13.051-4.153-19.74-5.607
			c-11.901-2.587-24.126-2.838-36.216-3.898c-4.129-0.361-8.335-0.607-12.556-0.751l-0.324,0.577
			C135.015,4.732,185.882,12.241,207.545,32.38"/>
		<path clip-path="url(#SVGID_4_)" fill="#E02B35" d="M99.588,12.255c0,0-4.268,8.564-3.894,15.622l7.042-9.424L99.588,12.255z"/>
	</g>
	<g clip-path="url(#SVGID_2_)">
		<defs>
			<path id="SVGID_5_" d="M5.304,131.467c-7.204,2.722,13.859,40.49,19.813,47.56c0.253-1.578,1.735-1.222,3.316-0.865
				c1.765,0.397,3.655,0.795,4.099-1.5c5.916-30.595,20.32-47.642,30.214-54.8L5.304,131.467z"/>
		</defs>
		<clipPath id="SVGID_6_">
			<use xlink:href="#SVGID_5_"  overflow="visible"/>
		</clipPath>
		
			<linearGradient id="SVGID_7_" gradientUnits="userSpaceOnUse" x1="-0.0766" y1="238.7792" x2="0.9234" y2="238.7792" gradientTransform="matrix(12.7998 -30.2627 -30.2627 -12.7998 7255.4341 3209.3855)">
			<stop  offset="0" style="stop-color:#D01D30"/>
			<stop  offset="0.9949" style="stop-color:#741D30"/>
			<stop  offset="1" style="stop-color:#741D30"/>
		</linearGradient>
		<polygon clip-path="url(#SVGID_6_)" fill="url(#SVGID_7_)" points="-22.409,170.352 7.91,98.669 83.255,130.537 52.936,202.22 		
			"/>
	</g>
	<g clip-path="url(#SVGID_2_)">
		<defs>
			<path id="SVGID_8_" d="M36.119,58.478c-5.504,4.488-19.42,41.988-22.073,52.976c-1.932,7.994-10.315,12.615-9.441,20.906
				c8.848,1.807,25.862,3.224,40.418-3.408c7.41-3.376,15.075-3.486,22.91-2.436c4.285,0.117,8.512,0.807,12.688,1.817
				L48.608,59.904c-3.62-4.097-4.067-6.534-5.412-6.534C42.117,53.369,40.46,54.938,36.119,58.478"/>
		</defs>
		<clipPath id="SVGID_9_">
			<use xlink:href="#SVGID_8_"  overflow="visible"/>
		</clipPath>
		
			<linearGradient id="SVGID_10_" gradientUnits="userSpaceOnUse" x1="-0.0705" y1="239.103" x2="0.9295" y2="239.103" gradientTransform="matrix(-53.6656 -13.9162 -13.9162 53.6656 3400.1196 -12729.2158)">
			<stop  offset="0" style="stop-color:#D01D30"/>
			<stop  offset="0.7908" style="stop-color:#E8262E"/>
			<stop  offset="1" style="stop-color:#E8262E"/>
		</linearGradient>
		<polygon clip-path="url(#SVGID_9_)" fill="url(#SVGID_10_)" points="75.776,154.266 -16.245,130.404 8.576,34.687 100.597,58.549 
					"/>
	</g>
	<g clip-path="url(#SVGID_2_)">
		<defs>
			<path id="SVGID_11_" d="M92.064,10.426c-11.532,6.423-24.815,14.759-34.941,23.053c-6.568,5.38-25.653,22.656-21.571,28.961
				c5.394,8.329,29.655,50.353,38.605,64.625c3.574,0.524,7.107,1.364,10.608,2.367c7.269,0.813,14.349,2.301,22.345,0.234
				l9.907-119.745c-0.847-3.87-3.761-5.236-7.408-5.236C103.848,4.684,96.254,8.091,92.064,10.426"/>
		</defs>
		<clipPath id="SVGID_12_">
			<use xlink:href="#SVGID_11_"  overflow="visible"/>
		</clipPath>
		
			<linearGradient id="SVGID_13_" gradientUnits="userSpaceOnUse" x1="-0.0422" y1="239.0589" x2="0.9578" y2="239.0589" gradientTransform="matrix(9.6169 -85.6653 -85.6653 -9.6169 20547.2051 2421.5081)">
			<stop  offset="0" style="stop-color:#BC1F30"/>
			<stop  offset="0.7908" style="stop-color:#E8262E"/>
			<stop  offset="1" style="stop-color:#E8262E"/>
		</linearGradient>
		<polygon clip-path="url(#SVGID_12_)" fill="url(#SVGID_13_)" points="17.385,130.152 32.535,-4.8 131.102,6.265 115.952,141.217 
					"/>
	</g>
	<g clip-path="url(#SVGID_2_)">
		<defs>
			<rect id="SVGID_14_" x="3" y="4" width="334.47" height="239.101"/>
		</defs>
		<clipPath id="SVGID_15_">
			<use xlink:href="#SVGID_14_"  overflow="visible"/>
		</clipPath>
		<g opacity="0.6" clip-path="url(#SVGID_15_)">
			<g>
				<defs>
					<rect id="SVGID_16_" x="49.629" y="12.487" width="59.702" height="118.683"/>
				</defs>
				<clipPath id="SVGID_17_">
					<use xlink:href="#SVGID_16_"  overflow="visible"/>
				</clipPath>
				<path clip-path="url(#SVGID_17_)" fill="#B71A22" d="M107.901,22.878c-2.287-2.264-5.653-9.754-8.614-10.391
					C91.445,29.784,96.8,56.5,97.768,73.478c0.55,9.644-4.738,23.586-4.284,32.945c0.193,3.993,1.75,15.047-6.393,15.363
					C71.096,122.407,55.6,87.019,51.648,89.849c-8.107,5.81,10.463,29.087,15.769,36.652c6.706,0.11,13.268,1.658,19.718,3.632
					c4.717,0.703,9.102,1.207,11.572,0.983c0.83-3.713,1.456-7.572,1.727-8.922c2.108-10.546,4.442-24.252,4.507-34.884
					c0.093-14.843,0.406-23.329,0.294-38.187C105.182,42.194,112.287,27.216,107.901,22.878"/>
			</g>
		</g>
	</g>
	<g clip-path="url(#SVGID_2_)">
		<defs>
			<path id="SVGID_18_" d="M100.435,47.233c3.883,17.878,0.103,29.017-0.285,42.71c-0.412,14.535-3.979,23.248,0.127,35.506
				c0.822,2.452,2.313,8.609,6.125,7.599c6.502-1.722,1.796-14.872,7.951-16.445l-6.886,1.562
				c-2.758-9.914,8.23-26.374,11.736-36.165c3.75-10.472,5.592-19.257,3.893-30.067c-1.157-7.367-7.78-30.159-18.012-30.634
				c-0.106-0.005-0.21-0.008-0.313-0.008C95.369,21.291,99.237,41.714,100.435,47.233"/>
		</defs>
		<clipPath id="SVGID_19_">
			<use xlink:href="#SVGID_18_"  overflow="visible"/>
		</clipPath>
		
			<linearGradient id="SVGID_20_" gradientUnits="userSpaceOnUse" x1="0.0536" y1="239.1666" x2="1.0536" y2="239.1666" gradientTransform="matrix(-5.394 69.9561 69.9561 5.394 -16618.1289 -1250.7252)">
			<stop  offset="0" style="stop-color:#D01D30"/>
			<stop  offset="0.9949" style="stop-color:#741D30"/>
			<stop  offset="1" style="stop-color:#741D30"/>
		</linearGradient>
		<polygon clip-path="url(#SVGID_19_)" fill="url(#SVGID_20_)" points="133.439,21.957 124.621,136.314 86.725,133.392 
			95.543,19.036 		"/>
	</g>
	<g clip-path="url(#SVGID_2_)">
		<defs>
			<path id="SVGID_21_" d="M126.226,4c-2.974,0.004-5.931,0.06-8.85,0.166c-4.625,0.168-13.288,0.723-15.291,5.33
				c-2.547,5.866,9.266,18.441,10.445,24.592c1.818,9.49,2.817,19.401,1.856,29.051c-2.256,22.679-13.373,43.509-16.193,65.892
				c-1.314,10.419,2.247,19.397-1.744,29.154c-2.846,6.954-4.54,7.96-1.077,15.01c2.087,4.25,6.079,13.038,10.474,14.192
				c0,0,181.073-105.877,185.578-107.019c-1.576-19.814-25.885-20.767-36.603-25.089c-9.298-3.749-11.29-5.601-16.279-14.117
				c-4.395-7.498-6.969-18.533-15.037-23.083c-5.88-3.315-13.233-2.378-19.654-3.668c-6.698-1.347-13.051-4.153-19.74-5.607
				c-11.901-2.587-24.126-2.839-36.216-3.898c-6.853-0.6-13.921-0.896-20.909-0.906H126.226z"/>
		</defs>
		<clipPath id="SVGID_22_">
			<use xlink:href="#SVGID_21_"  overflow="visible"/>
		</clipPath>
		
			<linearGradient id="SVGID_23_" gradientUnits="userSpaceOnUse" x1="0.0333" y1="239.4711" x2="1.0333" y2="239.4711" gradientTransform="matrix(-29.94 56.699 56.699 29.94 -13356.4717 -7130.1758)">
			<stop  offset="0" style="stop-color:#D01D30"/>
			<stop  offset="0.7908" style="stop-color:#E8262E"/>
			<stop  offset="1" style="stop-color:#E8262E"/>
		</linearGradient>
		<polygon clip-path="url(#SVGID_22_)" fill="url(#SVGID_23_)" points="367.147,43.986 247.922,269.77 16.186,147.401 
			135.411,-78.383 		"/>
	</g>
	<g clip-path="url(#SVGID_2_)">
		<defs>
			<path id="SVGID_24_" d="M121.276,80.738c-0.62,6.021,1.539,53.457,7.657,51.325c35.473-12.334,70.874-24.88,106.383-37.107
				c7.84-2.699,15.678-5.361,23.217-8.833c-12.42-10.511-25.457-22.782-38.955-32.154c-13.339-9.261-27.879-18.025-43.858-21.755
				c-4.128-0.964-8.016-1.418-11.663-1.419C137.862,30.793,124.006,54.233,121.276,80.738"/>
		</defs>
		<clipPath id="SVGID_25_">
			<use xlink:href="#SVGID_24_"  overflow="visible"/>
		</clipPath>
		<defs>
			<filter id="Adobe_OpacityMaskFilter" filterUnits="userSpaceOnUse" x="91.609" y="-7.938" width="195.97" height="180.864">
				<feColorMatrix  type="matrix" values="1 0 0 0 0  0 1 0 0 0  0 0 1 0 0  0 0 0 1 0"/>
			</filter>
		</defs>
		<mask maskUnits="userSpaceOnUse" x="91.609" y="-7.938" width="195.97" height="180.864" id="SVGID_26_">
			<g filter="url(#Adobe_OpacityMaskFilter)">
				
					<linearGradient id="SVGID_27_" gradientUnits="userSpaceOnUse" x1="-0.0654" y1="239.0106" x2="0.9346" y2="239.0106" gradientTransform="matrix(-21.1497 -68.7871 -68.7871 21.1497 16642.7109 -4932.5996)">
					<stop  offset="0" style="stop-color:#CCCCCC"/>
					<stop  offset="0.0153" style="stop-color:#CCCCCC"/>
					<stop  offset="0.9949" style="stop-color:#CCCCCC"/>
					<stop  offset="1" style="stop-color:#CCCCCC"/>
				</linearGradient>
				<polygon clip-path="url(#SVGID_25_)" fill="url(#SVGID_27_)" points="132.564,172.926 91.609,39.724 246.624,-7.938 
					287.58,125.264 				"/>
			</g>
		</mask>
		
			<linearGradient id="SVGID_28_" gradientUnits="userSpaceOnUse" x1="-0.0654" y1="239.0106" x2="0.9346" y2="239.0106" gradientTransform="matrix(-21.1497 -68.7871 -68.7871 21.1497 16642.7109 -4932.5996)">
			<stop  offset="0" style="stop-color:#E6472E"/>
			<stop  offset="0.0153" style="stop-color:#E6472E"/>
			<stop  offset="0.9949" style="stop-color:#E8262E"/>
			<stop  offset="1" style="stop-color:#E8262E"/>
		</linearGradient>
		<polygon clip-path="url(#SVGID_25_)" mask="url(#SVGID_26_)" fill="url(#SVGID_28_)" points="132.564,172.926 91.609,39.724 
			246.624,-7.938 287.58,125.264 		"/>
	</g>
	<g clip-path="url(#SVGID_2_)">
		<defs>
			<path id="SVGID_29_" d="M251.556,93.104c0.227-0.053,0.452-0.124,0.679-0.216L251.556,93.104z"/>
		</defs>
		<clipPath id="SVGID_30_">
			<use xlink:href="#SVGID_29_"  overflow="visible"/>
		</clipPath>
		<defs>
			<filter id="Adobe_OpacityMaskFilter_1_" filterUnits="userSpaceOnUse" x="251.495" y="92.697" width="0.8" height="0.597">
				<feColorMatrix  type="matrix" values="1 0 0 0 0  0 1 0 0 0  0 0 1 0 0  0 0 0 1 0"/>
			</filter>
		</defs>
		<mask maskUnits="userSpaceOnUse" x="251.495" y="92.697" width="0.8" height="0.597" id="SVGID_31_">
			<g filter="url(#Adobe_OpacityMaskFilter_1_)">
				
					<linearGradient id="SVGID_32_" gradientUnits="userSpaceOnUse" x1="-0.0619" y1="239.0787" x2="0.9381" y2="239.0787" gradientTransform="matrix(-22.3442 -72.6719 -72.6719 22.3442 17630.4355 -5235.2744)">
					<stop  offset="0" style="stop-color:#CCCCCC"/>
					<stop  offset="0.0153" style="stop-color:#CCCCCC"/>
					<stop  offset="0.9949" style="stop-color:#CCCCCC"/>
					<stop  offset="1" style="stop-color:#CCCCCC"/>
				</linearGradient>
				<polygon clip-path="url(#SVGID_30_)" fill="url(#SVGID_32_)" points="251.615,93.295 251.495,92.907 252.176,92.697 
					252.296,93.085 				"/>
			</g>
		</mask>
		
			<linearGradient id="SVGID_33_" gradientUnits="userSpaceOnUse" x1="-0.0619" y1="239.0787" x2="0.9381" y2="239.0787" gradientTransform="matrix(-22.3442 -72.6719 -72.6719 22.3442 17630.4336 -5235.2734)">
			<stop  offset="0" style="stop-color:#E6472E"/>
			<stop  offset="0.0153" style="stop-color:#E6472E"/>
			<stop  offset="0.9949" style="stop-color:#E8262E"/>
			<stop  offset="1" style="stop-color:#E8262E"/>
		</linearGradient>
		<polygon clip-path="url(#SVGID_30_)" mask="url(#SVGID_31_)" fill="url(#SVGID_33_)" points="251.615,93.295 251.495,92.907 
			252.176,92.697 252.296,93.085 		"/>
	</g>
	<g clip-path="url(#SVGID_2_)">
		<defs>
			<rect id="SVGID_34_" x="3" y="4" width="334.47" height="239.101"/>
		</defs>
		<clipPath id="SVGID_35_">
			<use xlink:href="#SVGID_34_"  overflow="visible"/>
		</clipPath>
		<g opacity="0.5" clip-path="url(#SVGID_35_)">
			<g>
				<defs>
					<rect id="SVGID_36_" x="97.929" y="67.477" width="192.164" height="110.695"/>
				</defs>
				<clipPath id="SVGID_37_">
					<use xlink:href="#SVGID_36_"  overflow="visible"/>
				</clipPath>
				<path clip-path="url(#SVGID_37_)" fill="#BF2631" d="M289.616,77.497c-4.623,1.737-5.111-2.018-5.352-5.727
					c-1.188,0.479-3.086-0.001-4.265,0.456c-0.004-1.454-1.014-3.327-0.901-4.749c-1.556,2.124-3.305,4.834-6.097,5.314
					c0.434-1.54-0.373-2.967-0.236-4.526c-3.582,0.962-4.412,4.524-7.453,5.45c0.034-1.476-1.179-3.065-1.309-4.219
					c-1.893,1.805-2.481,4.906-5.717,4.577c-0.082-1.745-1.146-3.863-1.035-5.585c-2.019,2.799-4.342,9.491-6.767,2.594
					c-0.838,1.811-1.844,3.783-2.919,5.721c-0.467-1.104-1.563-2.055-1.91-3.337c-0.328,3.564-3.536,7.513-4.932,1.437
					c-2.166,2.585-5.245,13.188-8.301,4.177c-1.877,2.312-4.579,8.786-6.218,2.482c-2.308,2.344-2.979,6.056-6.709,5.898
					c-0.171-0.953-0.539-2.035-0.633-3.005c-1.979,0.974-3.057,3.057-4.892,4.513c0.37-1.634-0.343-2.861-0.266-4.414
					c-3.294,1.383-3.18,5.206-7.177,5.619c0.023-0.965,0.035-1.511-0.09-2.472c-3.185,0.25-4.439,3.893-7.216,5.341
					c-0.193-0.678-0.614-1.494-0.793-2.365c-2.796,0.93-3.984,3.955-6.958,4.743c-0.088-0.999-0.799-2.352-0.906-2.992
					c-2.014,2.278-3.486,5.69-6.181,6.616c0.907-2.086,0.101-3.121,0.29-5.13c-2.262,2.069-3.062,5.222-5.465,7.276
					c0.19-1.574-0.695-3.401-0.667-4.973c-3.084,1.915-5.55,5.86-7.471,9.244c0.382-2.029-0.172-3.614-0.437-5.692
					c-3.251,2.773-5.355,6.872-8.671,9.748c-0.029-1.503-1.075-3.539-1.017-5.109c-1.578,2.253-2.365,5.139-3.872,7.535
					c-0.145-1.855-1.582-3.076-1.991-4.262c-1.191,1.911-1.803,4.749-2.81,6.36c-0.322-1.146-1.636-2.733-1.937-3.652
					c-2.155,1.505-1.954,4.305-2.046,7.189c-1.344-1.737-2.853-1.561-4.276-2.201c0.387,1.232,0.001,2.989,0.381,4.227
					c-1.613-0.876-1.979-0.127-3.778-0.553c0.446,1.127,0.421,3.068,1.1,4.15c-1.418-1.484-3.408-2.13-5.697-1.499
					c0.269,0.867-0.171,2.696,0.163,3.692c-2.589-0.988-4.669,0.035-4.617,3.154c-0.189-1.745-1.262-2.634-1.618-3.443
					c-0.927,2.429-1.562,5.103-2.251,7.509c-0.204-0.131-1.573,0.05-1.866,0.079c-0.128-1.17-0.59-2.48-0.722-3.653
					c-1.989,2.089-2.967,5.731-4.43,8.388c-0.079-1.643-1.111-3.651-1.265-5.047c-1.298,2.411-2.129,5.259-2.956,7.718
					c-0.617-0.373-0.909-0.834-1.462-1.199c-0.571,1.891-1.682,3.901-1.924,5.919c-0.324-0.735-0.635-1.388-0.87-2.228
					c-2.685,1.458-2.052,4.809-3.216,7.536c-0.343-1.309-1.1-2.486-1.485-3.705c-0.458,1.614-0.774,6.004-0.758,6.694
					c-0.335-0.813-1.294-2.001-1.507-2.472c-0.512,2.811-1.077,5.56-1.55,8.402c-2.397,1.296-1.221,5.135-0.899,8.096
					c-0.387-0.462-1.575-1.247-2.063-1.769c-2.262,2.951-3.134,9-2.675,12.799l190.126-93.455
					C289.686,83.713,290.757,80.223,289.616,77.497"/>
			</g>
		</g>
	</g>
	<g clip-path="url(#SVGID_2_)">
		<defs>
			<path id="SVGID_38_" d="M9.976,195.216c3.519,15.24,23.89,15.366,43.139,10.13c2.137-0.581,2.639-3.308,3.279-5.171
				c3.607-10.492-6.311-24.604-15.344-29.084c-2.956-1.466-6.013-2.128-9.006-2.128C18.853,168.961,6.879,181.805,9.976,195.216"/>
		</defs>
		<clipPath id="SVGID_39_">
			<use xlink:href="#SVGID_38_"  overflow="visible"/>
		</clipPath>
		
			<linearGradient id="SVGID_40_" gradientUnits="userSpaceOnUse" x1="-0.0146" y1="239.1451" x2="0.9854" y2="239.1451" gradientTransform="matrix(-106.0618 34.2405 34.2405 106.0618 -8118.6328 -25186.1406)">
			<stop  offset="0" style="stop-color:#A7ACAE"/>
			<stop  offset="0.0454" style="stop-color:#BFC4C7"/>
			<stop  offset="0.0936" style="stop-color:#D1D7D9"/>
			<stop  offset="0.1439" style="stop-color:#DCE1E4"/>
			<stop  offset="0.199" style="stop-color:#DFE5E8"/>
			<stop  offset="0.353" style="stop-color:#F2F5F6"/>
			<stop  offset="0.6754" style="stop-color:#F9FAFA"/>
			<stop  offset="0.7837" style="stop-color:#DFE5E8"/>
			<stop  offset="1" style="stop-color:#A7ACAE"/>
		</linearGradient>
		<polygon clip-path="url(#SVGID_39_)" fill="url(#SVGID_40_)" points="72.169,206.654 11.893,226.113 -5.29,172.889 54.987,153.43 
					"/>
	</g>
	<g clip-path="url(#SVGID_2_)">
		<defs>
			<path id="SVGID_41_" d="M27.995,169.36c0.368-1.467,0.328-3.081-0.63-4.216c-2.112,0.765-3.468,3.27-3.818,5.519
				c-0.084-1.668,0.584-4.155-1.635-4.421c-0.65,1.835-1.177,3.768-1.699,5.661c0.141-0.689-0.119-1.96-0.022-2.781
				c-0.474-0.235-0.897-0.451-1.5-0.482c-0.765,1.604-0.252,3.309-0.873,5.088c-0.03-1.494-0.824-1.702-1.474-2.435
				c-0.604,1.698-0.267,3.469-0.81,5.225c-0.194-1.489-0.635-2.704-1.874-3.451c-1.002,2.089-0.484,4.69-0.342,6.921
				c-0.316-1.433-0.926-3.005-2.764-2.972c-0.174,1.034,0.017,2.08,0.208,3.143c-0.349-0.863-1.058-1.456-2.16-1.486
				c-0.178,1.775,0.103,4.18,0.927,5.891c-0.436-0.802-0.803-0.408-1.931-0.989c-0.193,1.022,0.143,2.138,0.794,3.086
				c-0.75-0.271-1.587-0.484-2.272-0.551c-0.231,0.856,0.023,1.849,0.626,2.595c-1.588-0.233-1.23,2.2,1.092,3.622
				c-0.157,0.602-0.29,1.213-0.426,1.782c0.214,0.054,0.435,0.159,0.668,0.262c-0.052,0.165-0.112,0.365-0.196,0.621
				c0.981,0.05,1.848,0.542,2.758,0.632c-1.171,0.395-0.797,0.773-1.448,1.3c1.171,0.277,2.404,0.786,3.334,1.38
				c-0.771,0.917-1.243,2.063-1.361,3.283c1.187,0.604,2.511,0.693,3.817,0.4c-0.991,0.416-1.096,1.245-1.344,2.582
				c1.142-0.299,2.648-0.519,3.921,0.047c-0.325,0.061-0.693,0.089-1.011,0.159c-0.411,0.632-0.477,1.498-0.66,2.218
				c1.499,0.765,3.288,0.534,4.52-0.668c-0.323,0.583-0.272,1.656-0.541,2.291c1.502,0.812,3.345,0.665,4.167-0.647
				c-0.196,0.709-0.347,1.441-0.516,2.116c1.425,0.422,2.946,0.104,3.332-1.382c-0.144,0.99,0.166,2.047,0.246,2.895
				c1.145,0.064,2.045-0.327,2.583-1.075c-0.078,0.491-0.121,0.977-0.106,1.424c2.392,0.948,3.882-1.052,4.392-3.2
				c-0.094,0.484,0.067,1.889-0.011,2.537c0.422,0.167,0.81,0.26,1.257,0.331c0.169-0.794,0.833-1.775,0.901-2.577
				c-0.325,5.176,2.969,0.968,4.177-0.682c1.441,1.061,2.749,2.238,4.812,2.449c0.387-1.155,0.778-2.359,1.149-3.535
				c0.823,0.879,2.362,1.606,3.812,1.65c-0.299-0.944-0.459-2.095-0.435-3.312c0.79,1.121,2.126,1.353,3.623,1.65
				c-0.624-1.162-0.696-2.664,0.017-3.932c2.601,2.313,4.488-0.708,2.086-1.783c3.2,0.746,1.539-2.684-0.608-3.796
				c1.567-0.806,4.823-0.185,4.281-2.789c-1.492-0.533-3.113-0.936-4.588-1.477c2.551-1.046,5.485-0.398,5.527-4.226
				c-1.303-0.54-2.637-0.359-3.866,0.258c1.936-1.096,3.54-2.154,3.693-4.726c-2.429-1.323-4.041,0.25-6.356,0.655
				c1.282-1.749,3.18-2.997,3.342-5.566c-1.287-0.5-3.124,0.089-4.179,0.896c1.115-1.336,2.04-2.507,2.268-4.501
				c-1.311-0.38-2.938,0.072-3.928,1.079c0.476-1.268,0.763-2.688,0.749-3.887c-1.616-0.021-3.208,0.837-4.024,2.274
				c0.378-1.257,0.75-2.519,1.046-3.789c-1.338-0.561-2.656,0.193-3.317,1.425c0.275-1.106,0.399-2.25,0.227-3.261
				c-1.466-0.064-2.479,0.77-3.218,2.202c0.319-1.4,0.883-3.062,1.227-4.557c-1.551,0.026-2.427,1.643-3.348,3.003
				c1.46-4.764-0.349-4.36-2.8-0.626c0.063-1.351,0.422-2.971,0.069-4.244c-1.256,0.914-2.237,2.457-3.026,3.923
				c0.501-1.315,0.779-2.702,0.789-4.108c-2.022-0.52-3.858,2.014-4.402,3.798c0.174-1.556,0.851-3.319,0.295-4.734
				C29.437,165.518,28.542,167.475,27.995,169.36"/>
		</defs>
		<clipPath id="SVGID_42_">
			<use xlink:href="#SVGID_41_"  overflow="visible"/>
		</clipPath>
		
			<linearGradient id="SVGID_43_" gradientUnits="userSpaceOnUse" x1="-0.0146" y1="239.1491" x2="0.9854" y2="239.1491" gradientTransform="matrix(-106.0619 34.2405 34.2405 106.0619 -8118.938 -25187.0898)">
			<stop  offset="0" style="stop-color:#A7ACAE"/>
			<stop  offset="0.0454" style="stop-color:#BFC4C7"/>
			<stop  offset="0.0936" style="stop-color:#D1D7D9"/>
			<stop  offset="0.1439" style="stop-color:#DCE1E4"/>
			<stop  offset="0.199" style="stop-color:#DFE5E8"/>
			<stop  offset="0.353" style="stop-color:#F2F5F6"/>
			<stop  offset="0.6754" style="stop-color:#F9FAFA"/>
			<stop  offset="0.7837" style="stop-color:#DFE5E8"/>
			<stop  offset="1" style="stop-color:#A7ACAE"/>
		</linearGradient>
		<polygon clip-path="url(#SVGID_42_)" fill="url(#SVGID_43_)" points="74.423,209.547 10.331,230.238 -9.298,169.436 
			54.794,148.745 		"/>
	</g>
	<g clip-path="url(#SVGID_2_)">
		<defs>
			<rect id="SVGID_44_" x="3" y="4" width="334.47" height="239.101"/>
		</defs>
		<clipPath id="SVGID_45_">
			<use xlink:href="#SVGID_44_"  overflow="visible"/>
		</clipPath>
		<g opacity="0.75" clip-path="url(#SVGID_45_)">
			<g>
				<defs>
					<rect id="SVGID_46_" x="90.51" y="63.581" width="246.96" height="179.52"/>
				</defs>
				<clipPath id="SVGID_47_">
					<use xlink:href="#SVGID_46_"  overflow="visible"/>
				</clipPath>
				<g clip-path="url(#SVGID_47_)">
					<defs>
						<rect id="SVGID_48_" x="90.51" y="63.581" width="246.96" height="179.52"/>
					</defs>
					<clipPath id="SVGID_49_">
						<use xlink:href="#SVGID_48_"  overflow="visible"/>
					</clipPath>
					<g clip-path="url(#SVGID_49_)">
						
							<image overflow="visible" width="1029" height="748" xlink:href="F97D6E9.png"  transform="matrix(0.24 0 0 0.24 90.5102 63.581)">
						</image>
					</g>
				</g>
			</g>
		</g>
	</g>
	<g clip-path="url(#SVGID_2_)">
		<defs>
			<path id="SVGID_50_" d="M129.367,231.06c-1.518,1.337,2.01-2.272,0.045-3.523C127.654,230.882,126.581,233.677,129.367,231.06
				 M272.695,76.56c1.948-1.854,1.209-2.066,1.255-4.572c-2.827,0.77-5.24,3.053-7.888,4.369c2.527-1.74,1.212-1.413,1.445-4.117
				c-3.105,1.306-6.466,3.614-9.305,5.771c2.193-2.083,0.694-1.299,1.181-3.931c-3.695,0.624-7.183,3.828-8.852,7.029
				c0.588-1.545,0.117-2.224,0.298-3.675c-3.356,0.004-6.165,2.635-8.329,5.259c1.337-2.188,0.21-1.943,0.271-3.782
				c-2.506,1.132-4.062,3.392-5.65,5.723c0.229-1.022,0.036-1.746,0.11-2.805c-2.545,1.221-4.731,3.6-6.634,5.996
				c0.988-1.343,0.454-0.991,0.574-3.2c-2.427,0.941-4.407,2.806-5.789,5.121c0.95-1.855,0.483-1.855,0.795-3.769
				c-1.623,0.741-3.219,2.015-4.672,3.356c0.003-0.011,0.006-0.023,0.009-0.035c-0.457-0.13-0.867-0.075-1.236,0.1
				c-0.11-0.423-0.218-0.865-0.264-1.217c-0.651,0.637-1.272,1.333-1.861,2.067c0.006-0.416-0.045-0.816-0.205-1.159
				c-1.091,0.875-1.846,2.263-2.561,3.565c-0.033,0.007-0.067,0.017-0.101,0.023c0.262-0.81,0.307-1.682,0.29-2.512
				c-1.687-0.324-2.166,1.608-2.745,3.117c-0.026,0.007-0.051,0.015-0.075,0.023c0.22-0.88,0.129-1.782-0.319-2.474
				c-1.138,0.766-2.155,2.058-2.649,3.434c-0.005,0.002-0.01,0.004-0.016,0.007c0.179-0.703-0.006-1.787,0.079-2.469
				c-1.867-0.341-2.807,1.894-3.127,3.654c-0.011,0.005-0.022,0.01-0.033,0.014c0.079-1.285-0.112-2.571-1.355-2.969
				c-0.436,1.229-0.786,2.586-1.223,3.771c0.023-0.746-0.49-1.786-0.571-2.404c-1.169,0.763-1.569,2.296-1.734,3.811
				c-0.019,0.008-0.036,0.017-0.053,0.027c0.069-0.906,0.188-1.823,0.437-2.784c-1.746-0.743-2.496,1.255-2.888,2.905
				c0.045-0.478,0.048-0.972,0.118-1.418c-1.685-0.245-2.041,1.4-2.716,2.607c0.117-0.878-0.079-2.122-0.499-2.873
				c-1.587,1.361-1.805,3.451-2.925,5.138c0.146-0.632-0.12-2.178-0.103-2.775c-1.303,0.974-2.034,2.921-2.389,4.594
				c-1.489-0.432-0.774-1.975-0.695-3.401c-2.213,0.104-3.427,3.851-4.024,5.79c-1.143-5.128-2.555-0.966-4.378,1.733
				c0.138-1.095,0.295-2.114,0.497-3.219c-1.694,0.507-1.282,2.306-2.588,3.524c0.112-0.9-0.045-1.981,0.082-2.806
				c-0.79,1.571-2.028,2.867-2.842,4.436c-0.03,0.011-0.06,0.025-0.091,0.037c0.174-0.689,0.182-1.394,0.231-2.026
				c-1.475,0.496-2.376,2.06-3.357,3.34c-0.216,0.092-0.429,0.186-0.644,0.28c0.149-0.739,0.134-1.58,0.244-2.147
				c-1.487,0.172-2.099,1.78-2.699,3.244c-0.263,0.121-0.526,0.241-0.787,0.362c0.182-1.032,0.251-2.046-0.064-2.965
				c-2.213,0.589-2.113,3.584-3.942,4.575c0.343-0.939-0.121-1.572-0.122-2.089c-1.665,0.483-2.57,2.515-3.385,4.212
				c-0.148,0.08-0.3,0.158-0.448,0.237c0.195-1.029,0.409-2.144,0.124-3.164c-1.587,0.518-2.499,2.125-3.108,3.812
				c0.139-0.649,0.219-1.305,0.176-1.972c-1.958-0.443-3.342,3.007-4.26,5.343c-0.082,0.048-0.165,0.098-0.248,0.148
				c0.201-0.92,0.297-1.874,0.132-2.791c-1.614-0.136-2.64,2.817-3.522,4.9c-0.184,0.117-0.369,0.237-0.551,0.354
				c0.087-1.017,0.008-2.052-0.295-2.926c-1.59,0.797-1.944,2.942-2.376,4.68c-0.03,0.021-0.062,0.043-0.092,0.063
				c0.161-1.377,0.462-2.956-1.301-3.091c-0.568,1.632-0.995,3.375-1.533,5.033c-0.122,0.084-0.241,0.171-0.363,0.256
				c0.204-1.617,0.586-3.861-1.122-2.899c-0.714,0.402-1.617,3.765-1.916,5.09c-0.014,0.009-0.027,0.021-0.041,0.03
				c0.185-1.454,0.5-2.987-1.255-3.328c-0.643,1.827-0.965,4.215-1.975,5.705c0.256-1.359,0.353-2.921-1.071-3.272
				c-0.626,1.796-0.958,3.934-1.848,5.611c-0.054,0.042-0.108,0.085-0.161,0.127c0.185-0.873,0.026-1.823,0.076-2.675
				c-0.273-0.049-0.628-0.158-0.902-0.221c-0.538,1.544-0.991,3.147-1.448,4.739c-0.082,0.065-0.164,0.133-0.246,0.2
				c0.033-0.996-0.205-1.957-1.046-2.423c-0.438,1.337-0.499,2.715-0.91,4.051c-0.14,0.118-0.281,0.234-0.42,0.352
				c-0.371-1.255-0.267-2.566-1.267-3.508c-0.855,1.693-0.261,3.577-0.914,5.372c-0.036,0.032-0.072,0.063-0.108,0.096
				c-0.111-1.266-0.434-2.348-1.419-2.826c-0.589,1.654-1.06,3.4-1.534,5.107c0.111-1.535-0.295-1.684-1.293-2.295
				c-0.525,1.481-0.908,3.048-1.446,4.525c0.031-1.289-0.63-1.575-0.902-2.202c-0.3,1.457-0.501,3.039-1.003,4.498
				c-0.047,0.044-0.095,0.088-0.143,0.132c-0.157-1.025-0.579-2.162-1.271-2.957c-0.606,1.44-0.62,3.181-1.181,4.751
				c-0.091-1.458-0.76-1.541-1.585-2.205c-0.106,1.128-0.389,2.302-0.823,3.407c-0.244-1.078-1.142-1.573-1.63-2.117
				c-0.416,1.354-0.26,2.668-0.196,4.1c-0.119-1.322-0.753-1.709-1.648-2.391c-0.29,1.485,0.019,3.068-0.113,4.587
				c-0.095-0.124-0.21-0.231-0.344-0.323c-0.227-0.576-0.516-1.149-0.628-1.616c-0.224,0.512-0.497,2.045-0.659,3.222
				c-0.157,0.541-0.306,1.084-0.459,1.626c-0.019,0.018-0.037,0.039-0.054,0.055c-0.604-1.018-0.763-0.656-1.567-1.305
				c0.107,0.78-0.163,1.732-0.075,2.518c-0.36-1.212-1.41-1.739-2.783-1.709c-0.66,1.65,0.132,3.444,0.599,5.06
				c-0.023,0.034-0.048,0.067-0.071,0.101c-0.729-0.783-1.408-0.841-2.563-0.83c0.308,1,0.729,2.269,1.011,3.489
				c-0.264,0.534-0.504,1.086-0.727,1.651c-0.611-0.354-1.327-0.553-2.092-0.604c0.042,1.63,0.502,3.182,0.945,4.727
				c-0.027,0.161-0.053,0.322-0.078,0.485c-0.729-0.716-1.714-1.061-2.83-1.113c-0.648,1.356,0.196,2.61,1.29,3.585
				c-1.02-0.406-2.261-0.587-3.205-0.797c0.849,1.617,2.183,3.131,3.417,4.565c-0.721-0.691-1.835-0.899-3.024-1.131
				c0.734,1.284,1.988,2.948,3.368,4.146c-0.964-0.329-2.012-0.478-2.86-0.386c1.037,1.39,3.198,3.549,4.785,4.556
				c0.001,0.003,0.001,0.007,0.002,0.009c-1.277-0.721-3.015-1.186-4.488-1.07c0.68,1.655,3.145,3.113,4.886,3.691
				c-0.847,0.026-1.661-0.195-2.461-0.417c-0.863-0.238-1.712-0.478-2.57-0.406c0.341,2.05,2.278,3.375,4.278,4.016
				c-1.417-0.354-2.932-0.719-4.278-0.598c-0.379,1.701,1.412,2.309,3.206,2.609c-2.333,0.205,0.486,3.026,3.191,3.872
				c-0.7-0.157-1.526-0.14-2.209-0.261c-1.058,1.978,1.14,2.517,2.959,2.903c-0.323-0.009-0.635-0.003-0.899-0.038
				c-0.194,0.427-0.297,1.135-0.267,1.561c0.841,0.361,1.725,0.55,2.625,0.659c-0.683,0.009-1.375,0.146-2.008,0.23
				c-0.157,0.191-0.215,0.407-0.17,0.65c1.463,1.048,3.614,1.31,5.346,1.946c-0.267,0.009-0.532,0.005-0.79,0.001
				c-1.416-0.018-2.613-0.037-2.676,1.882c1.49,0.501,3.019,0.933,4.54,1.371c-0.745-0.058-1.344,0.282-1.594,1.144
				c1.35,0.594,2.833,0.769,4.28,1.019c-1.063-0.132-2.847,0.022-3.04,1.604c1.629,0.876,3.738,0.784,5.564,1.412
				c0.007,0.008,0.016,0.019,0.024,0.028c-1.469-0.308-3.113-0.109-3.19,1.681c1.104,0.082,2.271,0.186,3.412,0.36
				c-1.282,0.12-2.506,0.162-2.856,1.397c1.243,0.759,2.784,0.496,3.978,0.845c-0.521,0.036-1.143,0.316-1.748,0.379
				c-0.206,0.308-0.298,0.647-0.28,1.017c0.894,0.518,1.932,0.546,2.961,0.361c-0.183,0.111-0.355,0.227-0.515,0.339
				c1.385,0.643,2.87,1.004,4.412,1.126c-0.273,0.019-0.539,0.038-0.764,0.035c-0.304,0.608-0.346,1.087-0.215,1.703
				c0.997,0.34,2.036,0.43,3.071,0.333c-0.937,0.335-1.767,1.094-1.119,2.133c0.837,1.346,4.42,0.153,5.309-0.033
				c-1.572,0.374-0.912,0.501-1.647,1.442c0.937,0.495,2.001,0.687,3.03,0.493c-0.754,0.349-1.127,1.071-1.12,2.085
				c0.016,0.009,0.031,0.018,0.046,0.028c0.2-0.38,0.408-0.767,0.62-1.153c1.583-2.881,3.399-5.762,3.532-5.709
				c9.537-32.57,154.739-92.608,188.3-79.733c0.29,0.336,4.329-0.552,3.118-1.48c-0.029-0.098-0.056-0.196-0.084-0.294
				c0.412,0.045,0.809,0.019,1.088,0.066c-0.027-1.277-0.848-2.198-1.866-2.893c-0.024-0.093-0.05-0.184-0.073-0.276
				c3.11,0.712,3.009-3.077,0.081-4.069c1.959,0.447,1.941-0.498,1.156-1.902c-0.647-1.154-1.971-1.466-3.257-1.729
				c-0.004-0.02-0.009-0.039-0.015-0.06c0.262,0.005,0.556-0.011,0.855-0.027c0.446-0.023,0.901-0.048,1.276-0.004
				c0.815-2.084-1.424-2.538-2.916-3.465c3.656,1.277,2.088-2.492-0.406-3.445c0.385,0.103,0.775,0.173,1.151,0.287
				c0.938-1.788-1.577-3.841-3.126-4.542c0.609,0.204,1.069,0.143,1.538,0.082c0.251-0.032,0.505-0.065,0.785-0.058
				c-0.624-1.067-1.541-2.034-2.87-2.504c0.763,0.194,1.63,0.182,2.388,0.311c0.107-1.642-1.795-3.474-3.546-4.048
				c0.594,0.085,1.213,0.095,1.806,0.188c-0.384-1.253-1.949-2.407-3.487-2.983c0.712,0.159,1.432,0.255,2.175,0.27
				c0.629-1.7-1.304-3.111-2.974-3.528c1.347,0.153,1.955-0.72,1.358-2.136c-0.628-1.491-3.319-1.723-4.679-2.109
				c1.276,0.289,3.445,0.118,2.337-1.354c-0.383-0.509-2.737-0.895-3.823-1.114c-0.015-0.026-0.031-0.052-0.047-0.077
				c1.193,0.017,2.213-0.495,2.348-1.775c-0.979-0.417-2.152-0.831-3.231-1.139c0.28-0.001,1.163-0.185,1.645-0.183
				c0.003-0.02,0.283-0.862,0.215-0.823c-1.05-0.375-2.157-0.714-3.249-0.996c0.624,0.086,1.268-0.149,1.945-0.17
				c0.12-0.308,0.164-0.871,0.311-1.125c-1.158-0.408-2.825-0.879-3.707-1.116c1.078-0.257,0.727-0.552,1.3-0.924
				c-1.414-0.613-2.973-0.63-4.283-1.212c0.616-0.188,0.915-0.548,1.195-0.696c-0.821-0.365-1.701-0.49-2.593-0.442
				c0.743-0.174,1.262-0.61,1.474-1.478c-0.763-0.349-1.766-0.275-2.654-0.101c0.754-0.374,1.284-1.005,1.283-2.043
				c-1.538-0.363-2.905,0.183-4.489,0.356c1.189-0.356,1.753-1.182,1.484-2.335c-1.767-0.013-3.726,0.831-5.402,1.543
				c1.127-0.903,2.919-1.37,2.518-3.076c-1.219,0.134-2.458,0.343-3.545,0.809c0.207-0.631,0.258-1.355,0.221-2.035
				c-0.464,0.02-1.14,0.195-1.877,0.467c-0.063-0.281-0.156-0.575-0.284-0.886c-0.529,0.085-1.16,0.105-1.812,0.12
				c0.015-0.067,0.032-0.137,0.047-0.204c-0.339,0.007-0.644,0.093-0.928,0.229c-0.794,0.029-1.563,0.095-2.18,0.298
				c0.005-0.012,0.009-0.022,0.011-0.034c2.203-1.106,1.975-1.655,2.413-3.933c-2.041,0.37-4.493,0.507-6.329,0.362
				c2.377-1.25,2.655-2.448,1.79-4.926C279.038,71.267,276.901,75.54,272.695,76.56"/>
		</defs>
		<clipPath id="SVGID_51_">
			<use xlink:href="#SVGID_50_"  overflow="visible"/>
		</clipPath>
		
			<linearGradient id="SVGID_52_" gradientUnits="userSpaceOnUse" x1="-9.038528e-004" y1="239.1363" x2="0.9991" y2="239.1363" gradientTransform="matrix(-222.6669 150.6673 150.6673 222.6669 -35716.1953 -53164.293)">
			<stop  offset="0" style="stop-color:#A7ACAE"/>
			<stop  offset="0.0454" style="stop-color:#BFC4C7"/>
			<stop  offset="0.0936" style="stop-color:#D1D7D9"/>
			<stop  offset="0.1439" style="stop-color:#DCE1E4"/>
			<stop  offset="0.199" style="stop-color:#DFE5E8"/>
			<stop  offset="0.353" style="stop-color:#F2F5F6"/>
			<stop  offset="0.6754" style="stop-color:#F9FAFA"/>
			<stop  offset="0.7837" style="stop-color:#DFE5E8"/>
			<stop  offset="1" style="stop-color:#A7ACAE"/>
		</linearGradient>
		<polygon clip-path="url(#SVGID_51_)" fill="url(#SVGID_52_)" points="402.856,182.455 169.633,340.266 21.811,121.803 
			255.034,-36.007 		"/>
	</g>
	<g clip-path="url(#SVGID_2_)">
		<defs>
			<rect id="SVGID_53_" x="3" y="4" width="334.47" height="239.101"/>
		</defs>
		<clipPath id="SVGID_54_">
			<use xlink:href="#SVGID_53_"  overflow="visible"/>
		</clipPath>
		<path clip-path="url(#SVGID_54_)" fill="#ED2C2F" d="M103.527,6.055c-1.509-0.425-2.754,5.169-3.939,6.2
			c1.367,2.514,2.667,5.065,3.869,7.658c3.544,5.681,9.913,14.296,11.276,27.837c1.474,14.656-9.226,52.409-9.226,52.409
			s14.417-36.433,15.833-51.426C123.383,27.102,109.593,7.763,103.527,6.055"/>
		<g opacity="0.6" clip-path="url(#SVGID_54_)">
			<g>
				<defs>
					<rect id="SVGID_55_" x="35.552" y="12.255" width="64.036" height="76.057"/>
				</defs>
				<clipPath id="SVGID_56_">
					<use xlink:href="#SVGID_55_"  overflow="visible"/>
				</clipPath>
				<path clip-path="url(#SVGID_56_)" fill="#ED2C2F" d="M99.588,12.255l-3.894,15.622c0,0-1.142,18.913,1.141,30.22
					c0,0-56.682-10.158-46.483,30.215l-14.8-25.872C35.552,62.44,76.2,22.562,99.588,12.255"/>
			</g>
		</g>
		<g opacity="0.6" clip-path="url(#SVGID_54_)">
			<g>
				<defs>
					<rect id="SVGID_57_" x="16.036" y="58.478" width="27.623" height="63.928"/>
				</defs>
				<clipPath id="SVGID_58_">
					<use xlink:href="#SVGID_57_"  overflow="visible"/>
				</clipPath>
				<path clip-path="url(#SVGID_58_)" fill="#ED2C2F" d="M16.036,111.812c0,0,8.356,17.54,15.306,7.482
					c6.949-10.055,7.267-34.669,12.317-44.45l-7.54-16.366C36.119,58.478,27.462,74.601,16.036,111.812"/>
			</g>
		</g>
		<path clip-path="url(#SVGID_54_)" fill="#ED2C2F" d="M12.044,155.706c0,0-14.872-17.89-6.473-26.863
			c0,0,29.871,5.375,43.069-1.707c0,0-9.757,8.524-34.912,8.932C13.728,136.068-0.845,133.65,12.044,155.706"/>
	</g>
</g>
</svg>
