<?xml version="1.0" encoding="utf-8"?>
<!-- Generator: Adobe Illustrator 21.0.2, SVG Export Plug-In . SVG Version: 6.00 Build 0)  -->
<svg version="1.1" id="Layer_1" xmlns="http://www.w3.org/2000/svg" xmlns:xlink="http://www.w3.org/1999/xlink" x="0px" y="0px"
	 viewBox="0 0 310.2 116.3" style="enable-background:new 0 0 310.2 116.3;" xml:space="preserve">
<style type="text/css">
	.st0{fill-rule:evenodd;clip-rule:evenodd;fill:#F3F3F3;}
	.st1{opacity:0.75;}
	.st2{fill:#DE5B4C;}
	.st3{fill-rule:evenodd;clip-rule:evenodd;fill:#F2E188;stroke:#7E7E7E;stroke-width:3;stroke-miterlimit:10;}
	.st4{fill-rule:evenodd;clip-rule:evenodd;fill:#F2E188;}
	.st5{opacity:0.18;}
	.st6{fill-rule:evenodd;clip-rule:evenodd;fill:#DE5B4C;}
	.st7{opacity:0.14;}
	.st8{fill:#101010;}
</style>
<g>
	<polyline class="st0" points="0,1 80,1 80,52.9 51.9,52.9 51.8,115.2 0,115.2 	"/>
	<polygon points="52.8,116.3 0,116.3 0,114.2 50.8,114.2 50.8,51.9 78.9,51.9 78.9,2.1 0,2.1 0,0 81,0 81,54 52.9,54 	"/>
</g>
<g class="st1">
	<g>
		<rect x="50.8" y="45.7" class="st2" width="2.1" height="5.7"/>
	</g>
	<g>
		<path class="st2" d="M52.9,40.1h-2.1V29.7h2.1V40.1z M52.9,24h-2.1V13.6h2.1V24z"/>
	</g>
	<g>
		<rect x="50.8" y="2.1" class="st2" width="2.1" height="5.7"/>
	</g>
</g>
<g>
	<path class="st3" d="M0,111"/>
</g>
<g>
	<polygon class="st4" points="61.1,115.2 61.1,62.1 109,62.1 109,84.5 91.7,84.5 91.7,115.2 	"/>
	<path d="M92.7,116.3H60V61.1h50v24.4H92.7V116.3z M62.1,114.2h28.5V83.4h17.3V63.2H62.1V114.2z"/>
</g>
<g class="st5">
	<polygon class="st6" points="78.8,51.5 50.8,51.5 50.8,1 80,1 	"/>
</g>
<g>
	<polyline class="st4" points="199.6,115.3 99.7,115.3 99.7,92.2 199.6,92.2 	"/>
	<polygon points="199.6,116.3 98.6,116.3 98.6,91.2 199.6,91.2 199.6,93.3 100.7,93.3 100.7,114.2 199.6,114.2 	"/>
</g>
<g class="st7">
	<line class="st4" x1="67.1" y1="18.2" x2="241.7" y2="8.3"/>
	
		<rect x="66.9" y="12.7" transform="matrix(0.9984 -5.666030e-02 5.666030e-02 0.9984 -0.5009 8.7689)" class="st8" width="174.9" height="1"/>
</g>
<g class="st7">
	<line class="st4" x1="29.6" y1="26.3" x2="241.7" y2="35.9"/>
	
		<rect x="135.2" y="-75.1" transform="matrix(4.541321e-02 -0.999 0.999 4.541321e-02 98.4622 165.2106)" class="st8" width="1" height="212.3"/>
</g>
<g class="st7">
	<line class="st4" x1="83" y1="74.3" x2="241.7" y2="66.2"/>
	
		<rect x="82.9" y="69.7" transform="matrix(0.9987 -5.076535e-02 5.076535e-02 0.9987 -3.3565 8.3319)" class="st8" width="158.9" height="1"/>
</g>
<g class="st7">
	<line class="st4" x1="182.9" y1="104.8" x2="241.7" y2="102.7"/>
	
		<rect x="182.9" y="103.2" transform="matrix(0.9994 -3.516885e-02 3.516885e-02 0.9994 -3.5159 7.5313)" class="st8" width="58.8" height="1"/>
</g>
<g>
	<path d="M251.8,35.9c0-1.4,0.5-2.6,1.4-3.5c0.9-0.9,2.1-1.4,3.5-1.4c1.5,0,2.6,0.4,3.5,1.3l-0.7,1c-0.4-0.3-0.8-0.6-1.3-0.8
		c-0.5-0.2-1-0.3-1.5-0.3c-1.1,0-1.9,0.3-2.6,1c-0.6,0.7-1,1.6-1,2.6c0,1.1,0.3,2,1,2.7c0.7,0.7,1.5,1.1,2.6,1.1
		c0.5,0,1.1-0.1,1.6-0.3c0.5-0.2,1-0.5,1.4-0.9l0.7,1c-1,1-2.2,1.5-3.7,1.5c-1.5,0-2.6-0.5-3.5-1.4
		C252.2,38.5,251.8,37.3,251.8,35.9z"/>
	<path d="M263.2,40.7V35h-2.4v-1.1h6.1V35h-2.4v5.7H263.2z"/>
	<path d="M267.5,37.3c0-1.1,0.3-1.9,1-2.6c0.7-0.7,1.5-1,2.5-1c0.9,0,1.7,0.3,2.2,0.9c0.5,0.6,0.8,1.4,0.8,2.3c0,0.1,0,0.3-0.1,0.6
		h-5c0,0.7,0.3,1.3,0.7,1.7c0.4,0.4,1,0.6,1.6,0.6c0.7,0,1.4-0.3,2-0.8l0.6,1c-0.3,0.3-0.7,0.5-1.2,0.7c-0.5,0.2-1,0.3-1.4,0.3
		c-1.1,0-1.9-0.3-2.6-1C267.8,39.2,267.5,38.3,267.5,37.3z M268.9,36.5h3.7c0-0.6-0.2-1-0.5-1.3c-0.3-0.3-0.7-0.5-1.2-0.5
		c-0.5,0-1,0.2-1.3,0.5C269.2,35.5,269,35.9,268.9,36.5z"/>
	<path d="M275.5,40.7v-6.9h1.3v2.8h3.5v-2.8h1.3v6.9h-1.3v-2.9h-3.5v2.9H275.5z"/>
	<path d="M283.1,38.8c0-0.5,0.1-0.9,0.4-1.3c0.3-0.3,0.7-0.6,1.1-0.7c0.5-0.1,0.9-0.3,1.3-0.3c0.4-0.1,0.8-0.1,1.3-0.1h0.4v-0.1
		c0-1-0.5-1.5-1.5-1.5c-0.7,0-1.3,0.2-1.9,0.7l-0.5-1c0.3-0.2,0.7-0.4,1.1-0.6c0.5-0.2,1-0.2,1.4-0.2c0.9,0,1.5,0.2,2,0.7
		c0.5,0.5,0.7,1.1,0.7,2v4.3h-1.2V40l0-0.5h0c-0.2,0.4-0.5,0.7-0.9,1c-0.4,0.3-0.8,0.4-1.3,0.4c-0.6,0-1.2-0.2-1.6-0.6
		C283.3,39.9,283.1,39.4,283.1,38.8z M284.4,38.7c0,0.3,0.1,0.6,0.3,0.8c0.2,0.2,0.5,0.3,0.9,0.3c0.5,0,1-0.2,1.3-0.7
		c0.3-0.5,0.5-1,0.5-1.5v-0.3h-0.3C285.3,37.4,284.4,37.8,284.4,38.7z"/>
</g>
<g>
	<path d="M255.7,8.7c-1,0-1.7-0.2-2.2-0.7c-0.5-0.5-0.7-1.2-0.7-2.1V2.8h1.4v2.8c0,0.6,0.1,1.1,0.4,1.4c0.3,0.3,0.8,0.5,1.4,0.5
		c0.8,0,1.5-0.2,2.2-0.7v-4h1.4v9.6h-1.4V8.5l0-0.4h0C257.3,8.5,256.5,8.7,255.7,8.7z"/>
	<path d="M261.2,8.9c0-1.1,0.3-1.9,1-2.6c0.7-0.7,1.5-1,2.5-1c0.9,0,1.7,0.3,2.2,0.9c0.5,0.6,0.8,1.4,0.8,2.3c0,0.1,0,0.3-0.1,0.6
		h-5c0,0.7,0.3,1.3,0.7,1.7c0.4,0.4,1,0.6,1.6,0.6c0.7,0,1.4-0.3,2-0.8l0.6,1c-0.3,0.3-0.7,0.5-1.2,0.7c-0.5,0.2-1,0.3-1.4,0.3
		c-1.1,0-1.9-0.3-2.6-1C261.5,10.8,261.2,10,261.2,8.9z M262.6,8.2h3.7c0-0.6-0.2-1-0.5-1.3c-0.3-0.3-0.7-0.5-1.2-0.5
		c-0.5,0-1,0.2-1.3,0.5C262.9,7.2,262.7,7.6,262.6,8.2z"/>
	<path d="M270.8,12.4V6.6h-2.4V5.5h6.1v1.1h-2.4v5.7H270.8z"/>
	<path d="M275.8,12.4V5.5h2.8c0.7,0,1.3,0.2,1.7,0.5c0.4,0.3,0.6,0.7,0.6,1.3c0,0.3-0.1,0.6-0.3,0.9c-0.2,0.3-0.4,0.5-0.7,0.6v0
		c0.4,0.1,0.7,0.3,1,0.6c0.2,0.3,0.3,0.6,0.3,1c0,0.6-0.2,1.1-0.7,1.4c-0.5,0.3-1.1,0.5-1.8,0.5H275.8z M277.1,8.4h1.3
		c0.4,0,0.7-0.1,0.9-0.3c0.2-0.2,0.3-0.4,0.3-0.8c0-0.6-0.4-0.9-1.2-0.9h-1.2V8.4z M277.1,11.4h1.4c0.5,0,0.8-0.1,1-0.3
		c0.2-0.2,0.4-0.5,0.4-0.8c0-0.3-0.1-0.6-0.4-0.8c-0.2-0.2-0.6-0.3-1-0.3h-1.4V11.4z"/>
	<path d="M282.4,8.9c0-1.1,0.3-1.9,1-2.6c0.7-0.7,1.5-1,2.5-1c0.9,0,1.7,0.3,2.2,0.9c0.5,0.6,0.8,1.4,0.8,2.3c0,0.1,0,0.3-0.1,0.6
		h-5c0,0.7,0.3,1.3,0.7,1.7c0.4,0.4,1,0.6,1.6,0.6c0.7,0,1.4-0.3,2-0.8l0.6,1c-0.3,0.3-0.7,0.5-1.2,0.7c-0.5,0.2-1,0.3-1.4,0.3
		c-1.1,0-1.9-0.3-2.6-1C282.7,10.8,282.4,10,282.4,8.9z M283.8,8.2h3.7c0-0.6-0.2-1-0.5-1.3c-0.3-0.3-0.7-0.5-1.2-0.5
		c-0.5,0-1,0.2-1.3,0.5C284.1,7.2,283.9,7.6,283.8,8.2z"/>
	<path d="M290.4,15.1V5.5h1.2v0.6l0,0.5h0c0.2-0.4,0.5-0.7,0.9-0.9c0.4-0.2,0.9-0.3,1.4-0.3c0.9,0,1.7,0.3,2.2,1
		c0.5,0.7,0.8,1.5,0.8,2.6c0,1.1-0.3,2-0.9,2.6c-0.6,0.7-1.3,1-2.2,1s-1.6-0.4-2.1-1.2h0c0,0.2,0.1,0.4,0.1,0.6v3.1H290.4z M291.6,9
		c0,0.7,0.2,1.2,0.5,1.7c0.3,0.5,0.8,0.7,1.4,0.7c0.6,0,1-0.2,1.4-0.7c0.4-0.4,0.6-1,0.6-1.8c0-0.7-0.2-1.3-0.5-1.8
		c-0.4-0.4-0.8-0.7-1.4-0.7c-0.6,0-1,0.2-1.4,0.6C291.8,7.5,291.6,8.1,291.6,9z"/>
	<path d="M300,12.4V6.6h-2.4V5.5h6.1v1.1h-2.4v5.7H300z"/>
	<path d="M305,12.4V5.5h1.3V8h1.4c0.8,0,1.4,0.2,1.8,0.5c0.5,0.4,0.7,0.9,0.7,1.7c0,0.7-0.2,1.2-0.6,1.6c-0.4,0.4-1.1,0.6-1.9,0.6
		H305z M306.3,11.4h1.2c0.5,0,0.8-0.1,1-0.3c0.2-0.2,0.3-0.5,0.3-0.9c0-0.4-0.1-0.7-0.3-0.9c-0.2-0.2-0.6-0.3-1-0.3h-1.2V11.4z"/>
</g>
<g>
	<path d="M252.3,70.7v-9.6h1.3v4h1.4l2.4-4h1.5l-2.8,4.5v0l3,5h-1.5l-2.5-4.4h-1.4v4.4H252.3z"/>
	<path d="M259.6,67.2c0-1,0.4-1.9,1.1-2.6c0.7-0.7,1.6-1,2.6-1c1,0,1.9,0.3,2.6,1c0.7,0.7,1.1,1.5,1.1,2.6c0,1-0.4,1.9-1.1,2.6
		c-0.7,0.7-1.6,1-2.6,1c-1,0-1.9-0.3-2.6-1C260,69.1,259.6,68.3,259.6,67.2z M261,67.2c0,0.7,0.2,1.3,0.7,1.8c0.5,0.5,1,0.7,1.7,0.7
		c0.7,0,1.2-0.2,1.7-0.7c0.5-0.5,0.7-1.1,0.7-1.8c0-0.7-0.2-1.3-0.7-1.7c-0.5-0.5-1-0.7-1.7-0.7c-0.7,0-1.2,0.2-1.7,0.7
		S261,66.5,261,67.2z"/>
	<path d="M268.6,73.4v-9.6h1.2v0.6l0,0.5h0c0.2-0.4,0.5-0.7,0.9-0.9c0.4-0.2,0.9-0.3,1.4-0.3c0.9,0,1.7,0.3,2.2,1
		c0.5,0.7,0.8,1.5,0.8,2.6c0,1.1-0.3,2-0.9,2.6c-0.6,0.7-1.3,1-2.2,1s-1.6-0.4-2.1-1.2h0c0,0.2,0.1,0.4,0.1,0.6v3.1H268.6z
		 M269.9,67.3c0,0.7,0.2,1.2,0.5,1.7c0.3,0.5,0.8,0.7,1.4,0.7c0.6,0,1-0.2,1.4-0.7c0.4-0.4,0.6-1,0.6-1.8c0-0.7-0.2-1.3-0.5-1.8
		c-0.4-0.4-0.8-0.7-1.4-0.7c-0.6,0-1,0.2-1.4,0.6C270.1,65.8,269.9,66.5,269.9,67.3z"/>
	<path d="M276.3,67.2c0-1,0.4-1.9,1.1-2.6c0.7-0.7,1.6-1,2.6-1c1,0,1.9,0.3,2.6,1c0.7,0.7,1.1,1.5,1.1,2.6c0,1-0.4,1.9-1.1,2.6
		c-0.7,0.7-1.6,1-2.6,1c-1,0-1.9-0.3-2.6-1C276.7,69.1,276.3,68.3,276.3,67.2z M277.7,67.2c0,0.7,0.2,1.3,0.7,1.8
		c0.5,0.5,1,0.7,1.7,0.7c0.7,0,1.2-0.2,1.7-0.7c0.5-0.5,0.7-1.1,0.7-1.8c0-0.7-0.2-1.3-0.7-1.7c-0.5-0.5-1-0.7-1.7-0.7
		c-0.7,0-1.2,0.2-1.7,0.7S277.7,66.5,277.7,67.2z"/>
	<path d="M285,66.7c0-1.3,0.2-2.3,0.7-3.1c0.5-0.8,1.3-1.4,2.4-1.9l2.5-1.1l0.4,1.1l-2.6,1.1c-0.7,0.3-1.2,0.7-1.5,1.1
		c-0.3,0.4-0.5,1-0.6,1.6h0c0.5-0.8,1.4-1.2,2.4-1.2c0.9,0,1.6,0.3,2.1,0.9s0.8,1.3,0.8,2.3s-0.3,1.7-0.9,2.3s-1.4,0.9-2.3,0.9
		c-1.1,0-2-0.4-2.5-1.1C285.3,69,285,68,285,66.7z M286.4,67.6c0,0.7,0.2,1.2,0.6,1.6s0.8,0.6,1.4,0.6c0.6,0,1-0.2,1.4-0.6
		c0.4-0.4,0.6-0.9,0.6-1.5c0-0.7-0.2-1.2-0.6-1.6c-0.4-0.4-0.8-0.6-1.4-0.6c-0.6,0-1.1,0.2-1.4,0.6C286.5,66.5,286.4,67,286.4,67.6z
		"/>
	<path d="M293.2,70.7v-6.9h1.3v2.8h1l1.9-2.8h1.5l-2.3,3.3v0l2.6,3.6h-1.6l-2-3h-1v3H293.2z"/>
	<path d="M299.7,68.8c0-0.5,0.1-0.9,0.4-1.3c0.3-0.3,0.7-0.6,1.1-0.7c0.5-0.1,0.9-0.3,1.3-0.3c0.4-0.1,0.8-0.1,1.3-0.1h0.4v-0.1
		c0-1-0.5-1.5-1.5-1.5c-0.7,0-1.3,0.2-1.9,0.7l-0.5-1c0.3-0.2,0.7-0.4,1.1-0.6c0.5-0.2,1-0.2,1.4-0.2c0.9,0,1.5,0.2,2,0.7
		c0.5,0.5,0.7,1.1,0.7,2v4.3h-1.2V70l0-0.5h0c-0.2,0.4-0.5,0.7-0.9,1c-0.4,0.3-0.8,0.4-1.3,0.4c-0.6,0-1.2-0.2-1.6-0.6
		C299.9,69.9,299.7,69.4,299.7,68.8z M301,68.7c0,0.3,0.1,0.6,0.3,0.8c0.2,0.2,0.5,0.3,0.9,0.3c0.5,0,1-0.2,1.3-0.7
		c0.3-0.5,0.5-1,0.5-1.5v-0.3h-0.3C301.9,67.3,301,67.8,301,68.7z"/>
</g>
<g>
	<path d="M251.2,96.9h1c0.6-0.8,1-1.8,1.2-2.9c0.2-1.1,0.3-2.3,0.3-3.6v-2h5.6v8.4h1.1v3.1h-1.2v-1.9h-6.7v1.9h-1.2V96.9z
		 M253.5,96.9h4.4v-7.2h-3v0.9C254.9,93.4,254.4,95.5,253.5,96.9z"/>
	<path d="M261.8,98.1v-6.9h2.8c0.7,0,1.3,0.2,1.7,0.5c0.4,0.3,0.6,0.7,0.6,1.3c0,0.3-0.1,0.6-0.3,0.9c-0.2,0.3-0.4,0.5-0.7,0.6v0
		c0.4,0.1,0.7,0.3,1,0.6c0.2,0.3,0.3,0.6,0.3,1c0,0.6-0.2,1.1-0.7,1.4c-0.5,0.3-1.1,0.5-1.8,0.5H261.8z M263.1,94.1h1.3
		c0.4,0,0.7-0.1,0.9-0.3c0.2-0.2,0.3-0.4,0.3-0.8c0-0.6-0.4-0.9-1.2-0.9h-1.2V94.1z M263.1,97.1h1.4c0.5,0,0.8-0.1,1-0.3
		c0.2-0.2,0.4-0.5,0.4-0.8c0-0.3-0.1-0.6-0.4-0.8c-0.2-0.2-0.6-0.3-1-0.3h-1.4V97.1z"/>
	<path d="M268.4,94.6c0-1.1,0.3-1.9,1-2.6c0.7-0.7,1.5-1,2.5-1c0.9,0,1.7,0.3,2.2,0.9c0.5,0.6,0.8,1.4,0.8,2.3c0,0.1,0,0.3-0.1,0.6
		h-5c0,0.7,0.3,1.3,0.7,1.7c0.4,0.4,1,0.6,1.6,0.6c0.7,0,1.4-0.3,2-0.8l0.6,1c-0.3,0.3-0.7,0.5-1.2,0.7c-0.5,0.2-1,0.3-1.4,0.3
		c-1.1,0-1.9-0.3-2.6-1C268.7,96.5,268.4,95.7,268.4,94.6z M269.8,93.9h3.7c0-0.6-0.2-1-0.5-1.3c-0.3-0.3-0.7-0.5-1.2-0.5
		c-0.5,0-1,0.2-1.3,0.5C270.1,92.9,269.9,93.3,269.8,93.9z"/>
	<path d="M276.4,100.8v-9.6h1.2v0.6l0,0.5h0c0.2-0.4,0.5-0.7,0.9-0.9c0.4-0.2,0.9-0.3,1.4-0.3c0.9,0,1.7,0.3,2.2,1
		c0.5,0.7,0.8,1.5,0.8,2.6c0,1.1-0.3,2-0.9,2.6c-0.6,0.7-1.3,1-2.2,1s-1.6-0.4-2.1-1.2h0c0,0.2,0.1,0.4,0.1,0.6v3.1H276.4z
		 M277.6,94.7c0,0.7,0.2,1.2,0.5,1.7c0.3,0.5,0.8,0.7,1.4,0.7c0.6,0,1-0.2,1.4-0.7c0.4-0.4,0.6-1,0.6-1.8c0-0.7-0.2-1.3-0.5-1.8
		c-0.4-0.4-0.8-0.7-1.4-0.7c-0.6,0-1,0.2-1.4,0.6C277.8,93.2,277.6,93.9,277.6,94.7z"/>
	<path d="M284.5,98.1v-6.9h1.3V94h3.5v-2.8h1.3v6.9h-1.3v-2.9h-3.5v2.9H284.5z"/>
	<path d="M292.2,94.6c0-1,0.4-1.9,1.1-2.6c0.7-0.7,1.6-1,2.6-1c1,0,1.9,0.3,2.6,1c0.7,0.7,1.1,1.5,1.1,2.6c0,1-0.4,1.9-1.1,2.6
		c-0.7,0.7-1.6,1-2.6,1c-1,0-1.9-0.3-2.6-1C292.6,96.5,292.2,95.7,292.2,94.6z M293.5,94.6c0,0.7,0.2,1.3,0.7,1.8
		c0.5,0.5,1,0.7,1.7,0.7c0.7,0,1.2-0.2,1.7-0.7c0.5-0.5,0.7-1.1,0.7-1.8c0-0.7-0.2-1.3-0.7-1.7c-0.5-0.5-1-0.7-1.7-0.7
		c-0.7,0-1.2,0.2-1.7,0.7C293.8,93.3,293.5,93.9,293.5,94.6z"/>
	<path d="M300.7,94.6c0-1.1,0.3-1.9,1-2.6c0.7-0.7,1.5-1,2.5-1c0.9,0,1.7,0.3,2.2,0.9c0.5,0.6,0.8,1.4,0.8,2.3c0,0.1,0,0.3-0.1,0.6
		h-5c0,0.7,0.3,1.3,0.7,1.7c0.4,0.4,1,0.6,1.6,0.6c0.7,0,1.4-0.3,2-0.8l0.6,1c-0.3,0.3-0.7,0.5-1.2,0.7c-0.5,0.2-1,0.3-1.4,0.3
		c-1.1,0-1.9-0.3-2.6-1C301.1,96.5,300.7,95.7,300.7,94.6z M302.1,93.9h3.7c0-0.6-0.2-1-0.5-1.3c-0.3-0.3-0.7-0.5-1.2-0.5
		c-0.5,0-1,0.2-1.3,0.5C302.5,92.9,302.2,93.3,302.1,93.9z"/>
	<path d="M252.1,115.2v-6.9h6v6.9h-1.3v-5.7h-3.4v5.7H252.1z"/>
	<path d="M259.7,111.7c0-1,0.4-1.9,1.1-2.6c0.7-0.7,1.6-1,2.6-1c1,0,1.9,0.3,2.6,1c0.7,0.7,1.1,1.5,1.1,2.6c0,1-0.4,1.9-1.1,2.6
		c-0.7,0.7-1.6,1-2.6,1c-1,0-1.9-0.3-2.6-1C260,113.6,259.7,112.8,259.7,111.7z M261,111.7c0,0.7,0.2,1.3,0.7,1.8s1,0.7,1.7,0.7
		c0.7,0,1.2-0.2,1.7-0.7c0.5-0.5,0.7-1.1,0.7-1.8c0-0.7-0.2-1.3-0.7-1.7c-0.5-0.5-1-0.7-1.7-0.7c-0.7,0-1.2,0.2-1.7,0.7
		C261.3,110.4,261,111,261,111.7z"/>
	<path d="M267.7,115.2v-1.2c0.5-0.1,0.9-0.4,1.2-1c0.3-0.6,0.4-1.5,0.4-2.7v-2.1h4.6v6.9h-1.3v-5.8h-2v1c0,1.6-0.2,2.8-0.7,3.6
		C269.4,114.8,268.7,115.2,267.7,115.2z"/>
	<path d="M275.5,111.7c0-1,0.4-1.9,1.1-2.6c0.7-0.7,1.6-1,2.6-1c1,0,1.9,0.3,2.6,1c0.7,0.7,1.1,1.5,1.1,2.6c0,1-0.4,1.9-1.1,2.6
		c-0.7,0.7-1.6,1-2.6,1c-1,0-1.9-0.3-2.6-1C275.8,113.6,275.5,112.8,275.5,111.7z M276.8,111.7c0,0.7,0.2,1.3,0.7,1.8s1,0.7,1.7,0.7
		c0.7,0,1.2-0.2,1.7-0.7c0.5-0.5,0.7-1.1,0.7-1.8c0-0.7-0.2-1.3-0.7-1.7c-0.5-0.5-1-0.7-1.7-0.7c-0.7,0-1.2,0.2-1.7,0.7
		C277,110.4,276.8,111,276.8,111.7z"/>
	<path d="M285.9,115.2v-5.7h-2.4v-1.1h6.1v1.1h-2.4v5.7H285.9z"/>
	<path d="M290.8,115.2v-6.9h1.3v2.8h3.5v-2.8h1.3v6.9h-1.3v-2.9h-3.5v2.9H290.8z"/>
	<path d="M298.5,111.7c0-1,0.4-1.9,1.1-2.6c0.7-0.7,1.6-1,2.6-1c1,0,1.9,0.3,2.6,1c0.7,0.7,1.1,1.5,1.1,2.6c0,1-0.4,1.9-1.1,2.6
		c-0.7,0.7-1.6,1-2.6,1c-1,0-1.9-0.3-2.6-1C298.9,113.6,298.5,112.8,298.5,111.7z M299.9,111.7c0,0.7,0.2,1.3,0.7,1.8s1,0.7,1.7,0.7
		c0.7,0,1.2-0.2,1.7-0.7c0.5-0.5,0.7-1.1,0.7-1.8c0-0.7-0.2-1.3-0.7-1.7c-0.5-0.5-1-0.7-1.7-0.7c-0.7,0-1.2,0.2-1.7,0.7
		C300.1,110.4,299.9,111,299.9,111.7z"/>
</g>
</svg>
