<?xml version="1.0" encoding="utf-8"?>
<!-- Generator: Adobe Illustrator 17.1.0, SVG Export Plug-In . SVG Version: 6.00 Build 0)  -->
<!DOCTYPE svg PUBLIC "-//W3C//DTD SVG 1.1//EN" "http://www.w3.org/Graphics/SVG/1.1/DTD/svg11.dtd">
<svg version="1.1" id="Layer_1" xmlns="http://www.w3.org/2000/svg" xmlns:xlink="http://www.w3.org/1999/xlink" x="0px" y="0px"
	 viewBox="0 0 121 121" enable-background="new 0 0 121 121" xml:space="preserve">
<g>
	<g>
		<g>
			<path fill="#FFFFFF" d="M113.9,119.4H7.1c-3,0-5.5-2.5-5.5-5.5V7.1c0-3,2.5-5.5,5.5-5.5h106.8c3,0,5.5,2.5,5.5,5.5v106.8
				C119.4,116.9,116.9,119.4,113.9,119.4z"/>
		</g>
		<g>
			<path fill="#2875D4" d="M113.9,120.5H7.1c-3.6,0-6.6-3-6.6-6.6V7.1c0-3.6,3-6.6,6.6-6.6h106.8c3.6,0,6.6,3,6.6,6.6v106.8
				C120.5,117.6,117.6,120.5,113.9,120.5z M7.1,2.7c-2.4,0-4.3,1.9-4.3,4.3v106.8c0,2.4,1.9,4.3,4.3,4.3h106.8
				c2.4,0,4.3-1.9,4.3-4.3V7.1c0-2.4-1.9-4.3-4.3-4.3H7.1z"/>
		</g>
	</g>
	<g>
		<path fill="#2875D4" d="M103.3,95.2h-67c-1.9,0-3.5-1.6-3.5-3.5V51.8c0-1.9,1.6-3.5,3.5-3.5h67c1.9,0,3.5,1.6,3.5,3.5v39.9
			C106.8,93.7,105.2,95.2,103.3,95.2z M36.3,49.7c-1.2,0-2.2,1-2.2,2.2v39.9c0,1.2,1,2.2,2.2,2.2h67c1.2,0,2.2-1,2.2-2.2V51.8
			c0-1.2-1-2.2-2.2-2.2H36.3z"/>
	</g>
	<g>
		<path fill="#2875D4" d="M101.8,86.1c0,2.5-2,4.5-4.5,4.5c-0.7,0-1.4-0.2-2-0.5c1.4-0.8,2.3-2.3,2.3-4c0-1.7-0.9-3.2-2.3-4
			c0.6-0.3,1.3-0.5,2-0.5C99.7,81.6,101.8,83.6,101.8,86.1z"/>
	</g>
	<g>
		<path fill="#2875D4" d="M96.7,86.1c0,2.5-2,4.5-4.5,4.5c-2.5,0-4.5-2-4.5-4.5c0-2.5,2-4.5,4.5-4.5C94.7,81.6,96.7,83.6,96.7,86.1z
			"/>
	</g>
	<g>
		<polygon fill="#2875D4" points="100.8,68.2 98.8,68.2 95.7,63.9 95.7,68.2 93.9,68.2 93.9,59.8 95.7,59.8 95.7,63.9 98.7,59.8 
			100.6,59.8 97.6,63.8 		"/>
	</g>
	<g>
		<polygon fill="#2875D4" points="91.8,59.8 91.8,68.2 90,68.2 90,64.6 86.7,64.6 86.7,68.2 84.9,68.2 84.9,59.8 86.7,59.8 
			86.7,63.1 90,63.1 90,59.8 		"/>
	</g>
	<g>
		<path fill="#2875D4" d="M80.9,59.7h-2.2l-3,8.5h1.9l0.6-2h3.1l0.6,2h1.9L80.9,59.7z M78.7,64.7c0.6-1.9,1-3.1,1.1-3.6
			c0,0.1,0.1,0.3,0.2,0.6c0.1,0.2,0.4,1.3,1,3.1H78.7z"/>
	</g>
	<g>
		<path fill="#2875D4" d="M74.3,63.7c-0.6-0.5-1.4-0.7-2.5-0.7H71v-1.8h3.5v-1.5h-5.3v8.4h2.5c2.3,0,3.5-0.9,3.5-2.6
			C75.2,64.8,74.9,64.1,74.3,63.7z M72.9,66.5c-0.3,0.2-0.7,0.3-1.3,0.3H71v-2.3h0.5c0.7,0,1.2,0.1,1.5,0.3c0.3,0.2,0.4,0.5,0.4,0.8
			C73.4,66,73.2,66.3,72.9,66.5z"/>
	</g>
	<g>
		<path fill="#2875D4" d="M43.3,62.9c-0.1,0.3-0.1,0.6-0.1,0.8c0,0.3,0,0.6,0.1,0.8h-2.2v-1.7H43.3z"/>
	</g>
	<g>
		<path fill="#2875D4" d="M44.9,60.8c-0.7,0.4-1.2,1-1.5,1.7h-2.3v-1.7H44.9z"/>
	</g>
	<g>
		<path fill="#2875D4" d="M44.9,66.8h-3.8v-1.7h2.3C43.8,65.8,44.3,66.4,44.9,66.8z"/>
	</g>
	<g>
		<path fill="#2875D4" d="M52.1,60.8v1.7h-2.3c-0.3-0.7-0.8-1.3-1.5-1.7H52.1z"/>
	</g>
	<g>
		<path fill="#2875D4" d="M52.1,62.9v1.7h-2.2c0.1-0.3,0.1-0.5,0.1-0.8c0-0.3,0-0.6-0.1-0.8H52.1z"/>
	</g>
	<g>
		<path fill="#2875D4" d="M52.1,65.1v1.7h-3.8c0.7-0.4,1.2-1,1.5-1.7H52.1z"/>
	</g>
	<g>
		<path fill="#2875D4" d="M52,67.2c-0.2,0.7-0.8,1.1-1.5,1.1h-7.8c-0.7,0-1.3-0.5-1.5-1.1H52z"/>
	</g>
	<g>
		<path fill="#2875D4" d="M49.1,65.1c-0.5,0.9-1.4,1.5-2.5,1.5c-1.1,0-2-0.6-2.5-1.5H49.1z"/>
	</g>
	<g>
		<path fill="#2875D4" d="M49.4,63.8c0,0.3,0,0.6-0.1,0.8h-5.4c-0.1-0.3-0.1-0.5-0.1-0.8c0-0.3,0-0.6,0.1-0.8h5.4
			C49.4,63.2,49.4,63.5,49.4,63.8z"/>
	</g>
	<g>
		<path fill="#2875D4" d="M49.1,62.5h-5c0.5-0.9,1.4-1.5,2.5-1.5C47.7,61,48.6,61.6,49.1,62.5z"/>
	</g>
	<g>
		<path fill="#2875D4" d="M52,60.3H41.2c0.2-0.7,0.8-1.1,1.5-1.1h7.8C51.2,59.2,51.8,59.6,52,60.3z"/>
	</g>
	<g>
		<polygon fill="#2875D4" points="15.9,63.5 33.5,52.5 33.5,63.3 20.8,71.3 		"/>
	</g>
	<g>
		<polygon fill="#2875D4" points="79.9,34.3 56.3,49 39,49 75,26.5 		"/>
	</g>
	<g>
		<path fill="#2875D4" d="M31.6,92.2c0,0-0.1,0-0.1,0c-0.2,0-0.3-0.1-0.4-0.3L10.2,58.5c-1-1.6-0.5-3.8,1.1-4.8l56.9-35.5
			c0.6-0.3,1.2-0.5,1.8-0.5c1.2,0,2.3,0.6,2.9,1.6l17.3,27.6c0.2,0.3,0.1,0.7-0.2,0.9l-2.4,1.8c-0.1,0.1-0.3,0.1-0.4,0.1h-51
			c-1.2,0-2.2,1-2.2,2.2v38.3c0,0.2-0.1,0.4-0.3,0.5L32,92.1C31.9,92.1,31.8,92.2,31.6,92.2z M70,18.9c-0.4,0-0.8,0.1-1.2,0.3
			L12,54.8c-1,0.6-1.3,2-0.7,3l20.5,32.8l1-0.8v-38c0-1.9,1.6-3.5,3.5-3.5H87l1.7-1.3l-17-27.1C71.4,19.3,70.7,18.9,70,18.9z"/>
	</g>
	<g>
		<path fill="#2875D4" d="M31.6,92.2c0,0-0.1,0-0.1,0c-0.2,0-0.3-0.1-0.4-0.3L10.2,58.5c-1-1.6-0.5-3.8,1.1-4.8l56.9-35.5
			c0.6-0.3,1.2-0.5,1.8-0.5c1.2,0,2.3,0.6,2.9,1.6l17.3,27.6c0.2,0.3,0.1,0.7-0.2,0.9l-2.4,1.8c-0.1,0.1-0.3,0.1-0.4,0.1h-51
			c-1.2,0-2.2,1-2.2,2.2v38.3c0,0.2-0.1,0.4-0.3,0.5L32,92.1C31.9,92.1,31.8,92.2,31.6,92.2z M70,18.9c-0.4,0-0.8,0.1-1.2,0.3
			L12,54.8c-1,0.6-1.3,2-0.7,3l20.5,32.8l1-0.8v-38c0-1.9,1.6-3.5,3.5-3.5H87l1.7-1.3l-17-27.1C71.4,19.3,70.7,18.9,70,18.9z"/>
	</g>
</g>
</svg>
