<?xml version="1.0" encoding="utf-8"?>
<!-- Generator: Adobe Illustrator 17.0.0, SVG Export Plug-In . SVG Version: 6.00 Build 0)  -->
<!DOCTYPE svg PUBLIC "-//W3C//DTD SVG 1.1//EN" "http://www.w3.org/Graphics/SVG/1.1/DTD/svg11.dtd">
<svg version="1.1" id="Слой_1" xmlns="http://www.w3.org/2000/svg" xmlns:xlink="http://www.w3.org/1999/xlink" x="0px" y="0px"
	 width="50px" height="34px" viewBox="0 0 50 34" enable-background="new 0 0 50 34" xml:space="preserve">
<path fill-rule="evenodd" clip-rule="evenodd" fill="#2875D4" d="M48.796,30.901V3.099c0-1.704-1.375-3.098-3.056-3.098H4.26
	c-1.681,0-3.056,1.394-3.056,3.098v27.802c0,1.704,1.375,3.098,3.056,3.098h41.48C47.421,33.999,48.796,32.605,48.796,30.901z"/>
<path fill-rule="evenodd" clip-rule="evenodd" fill="#FFFFFF" d="M13.343,14.443c1.538-2.559,4.861-3.388,7.421-1.85
	c0.042,0.026,0.084,0.051,0.125,0.078l-0.697,1.16c-0.041-0.027-0.082-0.053-0.124-0.078c-1.92-1.153-4.412-0.532-5.566,1.388
	c-1.153,1.919-0.532,4.411,1.388,5.565s4.412,0.533,5.566-1.387l8.022-13.351l13.259,22.068H41.16L29.478,8.591l-6.863,11.423l0,0
	c-1.538,2.559-4.861,3.388-7.421,1.85C12.634,20.325,11.805,17.003,13.343,14.443L13.343,14.443z M10.253,12.586
	c-2.564,4.266-1.182,9.805,3.084,12.368c4.266,2.564,9.804,1.182,12.368-3.083l3.773-6.28l7.476,12.443h1.577l-9.054-15.068l0,0
	l-4.932,8.207c-2.179,3.626-6.886,4.801-10.512,2.621c-3.627-2.179-4.8-6.886-2.622-10.512c2.179-3.626,6.887-4.8,10.512-2.621
	c0.042,0.026,0.084,0.051,0.125,0.077l0.696-1.159c-0.041-0.025-0.083-0.051-0.125-0.077C18.355,6.939,12.817,8.32,10.253,12.586
	L10.253,12.586z M34.851,28.034h1.577l-6.95-11.568l-3.387,5.636c-2.692,4.479-8.507,5.93-12.986,3.238
	c-4.48-2.692-5.929-8.507-3.238-12.987c2.692-4.479,8.507-5.929,12.986-3.238c0.042,0.026,0.083,0.052,0.125,0.077l0.696-1.159
	c-0.041-0.025-0.083-0.051-0.124-0.077c-5.12-3.076-11.766-1.419-14.842,3.7c-3.076,5.119-1.419,11.766,3.7,14.841
	c1.594,0.958,3.335,1.457,5.07,1.535h0.968c3.502-0.155,6.863-2.006,8.804-5.235l0,0l2.228-3.708L34.851,28.034L34.851,28.034z
	 M11.799,13.514c-2.051,3.413-0.946,7.844,2.467,9.894c3.413,2.051,7.844,0.946,9.894-2.467l5.318-8.851l0,0l9.579,15.943h1.577
	L29.478,9.466l0,0l-6.477,10.78c-1.666,2.773-5.266,3.671-8.039,2.004c-2.773-1.666-3.67-5.265-2.005-8.039
	c1.666-2.773,5.266-3.67,8.039-2.004c0.042,0.025,0.084,0.051,0.125,0.077l0.696-1.159c-0.041-0.026-0.082-0.052-0.125-0.077
	C18.28,8.997,13.849,10.101,11.799,13.514z"/>
</svg>
