<?xml version="1.0" encoding="utf-8"?>
<!-- Generator: Adobe Illustrator 17.0.0, SVG Export Plug-In . SVG Version: 6.00 Build 0)  -->
<!DOCTYPE svg PUBLIC "-//W3C//DTD SVG 1.1//EN" "http://www.w3.org/Graphics/SVG/1.1/DTD/svg11.dtd">
<svg version="1.1" id="Слой_1" xmlns="http://www.w3.org/2000/svg" xmlns:xlink="http://www.w3.org/1999/xlink" x="0px" y="0px"
	 width="80px" height="55px" viewBox="0 0 80 55" enable-background="new 0 0 80 55" xml:space="preserve">
<path fill-rule="evenodd" clip-rule="evenodd" fill="#2875D4" d="M78.443,49.958V5.043c0-2.753-2.221-5.005-4.937-5.005H6.494
	c-2.716,0-4.937,2.253-4.937,5.005v44.915c0,2.753,2.221,5.005,4.937,5.005h67.011C76.222,54.963,78.443,52.711,78.443,49.958z"/>
<path fill-rule="evenodd" clip-rule="evenodd" fill="#FFFFFF" d="M21.169,23.369c2.485-4.135,7.853-5.474,11.988-2.99
	c0.068,0.042,0.135,0.083,0.201,0.125l-1.126,1.873c-0.066-0.044-0.132-0.085-0.2-0.126c-3.101-1.863-7.128-0.86-8.992,2.242
	c-1.863,3.101-0.86,7.126,2.242,8.991c3.101,1.864,7.128,0.86,8.991-2.241l12.96-21.569l21.421,35.651h-2.549L47.234,13.915
	L36.146,32.369l0,0c-2.485,4.135-7.854,5.473-11.989,2.989C20.023,32.872,18.684,27.504,21.169,23.369L21.169,23.369z
	 M16.176,20.369c-4.142,6.892-1.91,15.84,4.982,19.98c6.892,4.142,15.839,1.91,19.981-4.98l6.096-10.145l12.078,20.101h2.548
	L47.234,20.983l0,0l-7.968,13.259c-3.519,5.858-11.125,7.756-16.982,4.235c-5.859-3.52-7.755-11.125-4.235-16.983
	c3.52-5.858,11.125-7.754,16.983-4.235c0.068,0.042,0.135,0.083,0.202,0.124l1.124-1.873c-0.067-0.041-0.134-0.083-0.201-0.124
	C29.265,11.246,20.318,13.477,16.176,20.369L16.176,20.369z M55.914,45.325h2.548L47.234,26.637l-5.472,9.105
	c-4.348,7.236-13.743,9.58-20.979,5.232c-7.237-4.348-9.579-13.743-5.232-20.98c4.348-7.236,13.743-9.579,20.979-5.23
	c0.068,0.041,0.134,0.083,0.202,0.124l1.124-1.873c-0.067-0.04-0.133-0.083-0.2-0.124c-8.271-4.97-19.008-2.292-23.977,5.978
	c-4.969,8.27-2.292,19.008,5.978,23.976c2.574,1.547,5.387,2.354,8.19,2.48h1.564c5.658-0.25,11.088-3.241,14.222-8.458l0,0
	l3.599-5.99L55.914,45.325L55.914,45.325z M18.673,21.869c-3.313,5.513-1.529,12.672,3.985,15.984
	c5.513,3.313,12.672,1.529,15.984-3.986l8.592-14.298l0,0l15.475,25.756h2.548L47.234,15.329l0,0L36.77,32.744
	c-2.692,4.48-8.508,5.93-12.987,3.237c-4.48-2.691-5.929-8.506-3.238-12.986c2.692-4.48,8.507-5.93,12.987-3.238
	c0.068,0.041,0.135,0.083,0.201,0.124l1.125-1.872c-0.066-0.042-0.133-0.084-0.201-0.124C29.144,14.571,21.986,16.355,18.673,21.869
	z"/>
</svg>
