<?xml version="1.0" encoding="utf-8"?>
<!-- Generator: Adobe Illustrator 17.0.0, SVG Export Plug-In . SVG Version: 6.00 Build 0)  -->
<!DOCTYPE svg PUBLIC "-//W3C//DTD SVG 1.1//EN" "http://www.w3.org/Graphics/SVG/1.1/DTD/svg11.dtd">
<svg version="1.1" id="Слой_1" xmlns="http://www.w3.org/2000/svg" xmlns:xlink="http://www.w3.org/1999/xlink" x="0px" y="0px"
	 width="22px" height="22px" viewBox="0 0 22 22" enable-background="new 0 0 22 22" xml:space="preserve">
<path fill-rule="evenodd" clip-rule="evenodd" fill="#2875D4" d="M8.568,15.717l0.351,0.696c0.009,0.02,0.018,0.04,0.028,0.06
	l1.608,3.193c0.17,0.337,0.512,0.534,0.866,0.537l0.013,0c0.36,0.001,0.707-0.196,0.879-0.537l1.608-3.193
	c0.01-0.02,0.019-0.04,0.028-0.06l3.269-6.476c0.561-0.995,0.852-2.112,0.852-3.255c0-3.665-2.971-6.636-6.636-6.636
	c-3.665,0-6.636,2.971-6.636,6.636l0,0.054L4.8,6.789l0,0l0.001,0.054l0,0l0.001,0.053L4.804,6.95l0,0l0.002,0.053l0,0l0.003,0.053
	l0,0l0.003,0.053l0,0l0.003,0.053h0L4.82,7.216v0l0.005,0.053v0l0.005,0.053l0,0l0.005,0.053v0L4.84,7.427v0L4.846,7.48l0,0
	l0.007,0.053v0L4.86,7.585v0l0.007,0.052l0,0L4.875,7.69v0.001l0.008,0.052v0l0.009,0.052v0l0.009,0.052l0,0.001L4.91,7.899l0,0
	l0.01,0.052v0l0.01,0.051v0.001l0.011,0.051v0l0.011,0.051v0.001l0.011,0.051l0,0L4.976,8.21v0.001l0.012,0.051l0,0.001l0.013,0.051
	l0,0l0.013,0.051l0,0.001l0.013,0.05l0,0.001l0.014,0.05l0,0.001l0.014,0.05l0,0.001l0.015,0.05l0,0.001l0.015,0.05l0,0.001
	l0.015,0.05l0,0.001l0.016,0.05l0,0.001l0.016,0.05l0,0.001l0.017,0.049l0,0.001l0.017,0.049l0,0.001l0.017,0.049l0,0.001
	l0.018,0.049l0,0.001L5.223,9.02l0,0.001L5.242,9.07l0,0.001l0.019,0.049l0,0.001l0.019,0.049l0,0.001l0.02,0.048l0,0.001
	l0.02,0.048l0,0.001l0.02,0.048l0.001,0.001l0.021,0.047l0.001,0.001l0.021,0.047l0.001,0.001l0.022,0.047l0.001,0.001L5.43,9.509
	L5.43,9.51l0.022,0.047l0.001,0.001l0.023,0.047l0.001,0.001L5.5,9.653L5.5,9.654l0.023,0.046l0.001,0.001l0.024,0.046l0.001,0.001
	l0.024,0.046l0.001,0.001l0.024,0.046l0.001,0.001l0.025,0.046l0.001,0.001L5.65,9.936l0.001,0.001l1.201,2.38
	c0.012,0.032,0.026,0.063,0.042,0.095l1.608,3.193C8.522,15.644,8.544,15.682,8.568,15.717z M6.863,18.733L6.863,18.733h2.212h0.551
	c-0.229,0.844,0.158,1.765,0.969,2.173c0.925,0.466,2.06,0.092,2.526-0.834l0.675-1.339h2.211c0.886,0,1.61,0.725,1.61,1.611l0,0
	c0,0.886-0.725,1.61-1.61,1.61H6.863c-0.776,0-1.428-0.557-1.578-1.29l-0.001-0.005l-0.001-0.005l-0.001-0.005l-0.001-0.005
	L5.28,20.639l-0.001-0.005l-0.001-0.005l0-0.002l-0.001-0.008l-0.001-0.005l-0.001-0.005l-0.001-0.005L5.273,20.6l-0.001-0.005
	L5.27,20.58l-0.001-0.005L5.269,20.57l-0.001-0.005L5.267,20.56l-0.001-0.005L5.266,20.55l-0.001-0.005L5.265,20.54l-0.001-0.005
	l-0.001-0.01L5.262,20.52l-0.001-0.005L5.261,20.51l0-0.003l0-0.002l0-0.005L5.26,20.495l0-0.005l-0.001-0.005L5.258,20.48l0-0.005
	L5.258,20.47l-0.001-0.01l0-0.005l0-0.005l0-0.005l0-0.005l0-0.005L5.254,20.42l0-0.005V20.41l0-0.005l0-0.005v-0.005l0-0.005
	l0-0.009v-0.001l0-0.005v-0.005v-0.005v-0.005l0-0.005v-0.005v-0.005l0,0l0,0l0,0l0-0.042h0l0.001-0.041l0,0l0.003-0.041h0
	l0.004-0.04h0l0.004-0.04h0l0.005-0.04l0,0l0.007-0.039h0l0.007-0.04h0l0.008-0.039l0,0l0.009-0.039h0l0.01-0.038h0l0.011-0.038l0,0
	l0.012-0.038l0,0l0.013-0.037h0l0.014-0.037h0l0.015-0.036h0l0.016-0.036h0l0.017-0.036l0,0l0.017-0.035h0l0.018-0.034l0,0
	l0.019-0.034h0l0.02-0.033l0,0l0.021-0.033h0l0.021-0.032l0,0l0.022-0.032l0,0l0.023-0.031l0,0l0.024-0.031l0,0l0.024-0.03h0
	l0.025-0.03h0l0.026-0.029h0l0.026-0.029h0l0.027-0.028l0,0l0.028-0.027l0,0l0.028-0.026h0l0.029-0.026l0,0l0.03-0.025h0l0.03-0.024
	l0,0l0.031-0.024h0l0.031-0.023h0l0.032-0.022l0,0l0.032-0.021l0,0l0.033-0.021l0,0l0.033-0.02l0,0l0.034-0.019h0l0.034-0.018h0
	l0.035-0.017l0,0l0.035-0.017l0,0l0.036-0.016h0l0.036-0.015h0l0.037-0.014l0,0l0.037-0.013l0,0l0.038-0.012h0l0.038-0.011h0
	l0.038-0.01h0l0.038-0.01h0l0.039-0.009h0l0.039-0.007l0,0l0.04-0.007h0l0.04-0.006h0l0.04-0.004l0,0l0.041-0.004h0l0.041-0.003h0
	l0.041-0.001l0,0L6.863,18.733L6.863,18.733z M11.435,3.498c-1.757,0-3.181,1.424-3.181,3.181c0,1.757,1.424,3.181,3.181,3.181
	c1.757,0,3.181-1.424,3.181-3.181C14.616,4.923,13.192,3.498,11.435,3.498L11.435,3.498z"/>
</svg>
