<?xml version="1.0" encoding="utf-8"?>
<!-- Generator: Adobe Illustrator 17.0.0, SVG Export Plug-In . SVG Version: 6.00 Build 0)  -->
<!DOCTYPE svg PUBLIC "-//W3C//DTD SVG 1.1//EN" "http://www.w3.org/Graphics/SVG/1.1/DTD/svg11.dtd">
<svg version="1.1" id="Layer_1" xmlns="http://www.w3.org/2000/svg" xmlns:xlink="http://www.w3.org/1999/xlink" x="0px" y="0px"
	 width="231.36px" height="445.147px" viewBox="461.298 -202.496 231.36 445.147"
	 enable-background="new 461.298 -202.496 231.36 445.147" xml:space="preserve">
<path d="M652.26,161.215c-10.038,3.13-20.736-2.484-23.866-12.521c-0.196-0.627-0.293-0.941-0.489-1.568
	c-6.938-1.279-12.972-6.281-15.123-13.182c-3.13-10.038,2.484-20.736,12.521-23.866c3.451-1.076,7.194-1.21,10.604-0.209
	c2.236-2.762,5.394-4.779,8.844-5.855c10.038-3.13,20.736,2.484,23.866,12.521c2.054,6.587,0.245,14.035-4.423,18.932
	c0.196,0.627,0.391,1.255,0.587,1.882C667.911,147.387,662.297,158.086,652.26,161.215z M627.259,116.351
	c-6.587,2.054-10.257,9.049-8.204,15.636c1.565,5.019,6.482,8.648,11.677,8.75l3.117,0.061l0.253,3.019
	c-0.02,1.039,0.273,1.98,0.566,2.921c2.054,6.587,9.049,10.257,15.636,8.204c6.587-2.054,10.258-9.049,8.204-15.636
	c-0.293-0.941-0.587-1.882-1.194-2.725l-1.508-2.628l2.216-1.723c4.118-3.349,5.886-8.719,4.321-13.738
	c-2.054-6.587-9.049-10.257-15.636-8.204c-2.823,0.88-5.039,2.604-6.648,5.17l-1.707,2.253l-2.371-0.982
	C632.885,115.63,630.082,115.471,627.259,116.351z"/>
<path d="M666.731,216.708l-0.32,0.013c-3.517,0.147-7.101-1.305-9.765-3.755s-4.091-5.914-4.251-9.751
	c-0.147-3.517,1.305-7.101,3.755-9.765l0.306-0.333c-1.479-4.742-0.081-9.605,3.289-13.269c2.451-2.665,5.914-4.091,9.751-4.251
	c3.517-0.147,7.101,1.305,9.765,3.755c1.665,1.532,3.038,3.716,3.451,5.941c2.265,0.546,4.237,1.745,5.902,3.276
	c5.343,5.221,5.384,13.867,0.163,19.21l0,0c-3.383,3.344-8.126,4.824-12.655,3.732c0.013,0.32-0.306,0.333-0.306,0.333
	C673.711,215.135,670.248,216.561,666.731,216.708z M669.443,182.004c-1.918,0.08-3.49,0.786-5.035,2.132
	c-2.144,2.332-2.65,5.556-1.251,8.38l1.386,2.504l-2.491,1.706c-0.626,0.346-0.932,0.68-1.239,1.013
	c-1.225,1.332-2.104,3.291-2.024,5.209c0.08,1.918,0.8,3.81,2.132,5.035c1.332,1.225,3.291,2.104,5.209,2.024
	c1.918-0.08,3.81-0.8,5.035-2.132c0.306-0.333,0.613-0.666,0.906-1.319l1.492-2.625l2.611,1.172
	c2.931,1.159,6.115,0.705,8.259-1.626c2.757-2.998,2.57-7.474-0.108-10.244c-1.665-1.532-3.277-1.785-4.57-2.051l-2.571-0.213
	l-0.427-2.544c-0.053-1.279-0.44-2.864-2.105-4.396C673.64,182.79,671.681,181.911,669.443,182.004
	C669.763,181.991,669.443,182.004,669.443,182.004z"/>
<path d="M629.432,204.974c-8.499,0.355-15.936-6.485-16.291-14.984c-0.355-8.499,6.485-15.936,14.984-16.291
	c8.499-0.355,15.936,6.485,16.291,14.984S637.931,204.619,629.432,204.974z M628.409,180.498c-4.759,0.199-8.668,4.449-8.469,9.208
	c0.199,4.759,4.449,8.668,9.208,8.469s8.668-4.449,8.469-9.208C637.418,184.208,633.168,180.299,628.409,180.498z"/>
<path d="M539.434,64.008c-1.151,0.208-2.294,0.513-3.383,0.969c-5.402,2.262-9.219,7.256-9.956,13.036l-1.908,14.939
	c-0.152,0.06-0.316,0.108-0.466,0.171c-6.358,2.662-10.52,6.972-12.035,12.47c-7.832,28.389-19.875,53.112-32.627,79.287
	c-5.268,10.809-10.716,21.992-15.923,33.591l-1.839,4.093l4.07,1.883c28.099,12.981,98.588,21.993,130.044,16.628l4.468-0.764
	l-0.76-4.466c-2.127-12.538-4.585-24.73-6.964-36.518c-5.763-28.539-11.201-55.497-11.643-84.938
	c-0.091-6.234-3.567-11.8-10.013-16.144l1.831-14.32c0.554-4.329-0.622-8.62-3.302-12.088c-1.378-1.782-3.07-3.214-4.966-4.28
	 M571.446,114.524c0.456,30.279,5.977,57.635,11.821,86.598c2.072,10.268,4.207,20.844,6.117,31.638
	c-3.389,0.382-7.19,0.61-11.228,0.725l-5.986-38.892c-0.355-2.481-2.654-4.2-5.133-3.849c-2.469,0.375-4.199,2.657-3.845,5.135
	l5.803,37.668c-9.371-0.135-23.676-1.341-34.189-2.462c0.027-0.119,0.08-0.231,0.094-0.355l3.118-24.386
	c0.316-2.484-1.44-4.757-3.929-5.075c-2.487-0.322-4.753,1.442-5.073,3.925l-3.118,24.386c-0.016,0.152-0.008,0.305-0.013,0.457
	c-11.16-1.44-18.227-2.8-28.184-5.022l20.898-54.321c0.899-2.336-0.27-4.962-2.604-5.862c-2.342-0.903-4.962,0.27-5.862,2.604
	l-21.317,55.409c-5.788-1.528-11.082-3.152-15.497-4.873c4.57-9.983,9.299-19.692,13.893-29.119
	c12.944-26.564,25.164-51.649,33.213-80.847c0.76-2.75,3.047-4.943,6.796-6.512c10.304-4.314,28.041-2.412,37.953,4.078
	C568.004,107.421,571.384,110.481,571.446,114.524z M563.334,82.771l-1.419,11.102c-8.736-3.315-19.176-4.512-28.281-3.298
	l1.46-11.411c0.327-2.576,2.036-4.807,4.459-5.822c1.169-0.489,2.452-0.666,3.714-0.5l13.745,1.756
	c1.924,0.246,3.643,1.236,4.847,2.786C563.057,78.935,563.578,80.851,563.334,82.771z M555.214,65.224l-6.679-0.856"/>
<ellipse fill="none" stroke="#000000" stroke-width="6" stroke-miterlimit="10" cx="621.758" cy="225.172" rx="7.284" ry="7.178"/>
<path fill="#F8E285" stroke="#000000" stroke-width="8" stroke-miterlimit="10" d="M562.683,72.305l-21.822-2.795l33.108-258.498
	c0.764-5.966,6.22-10.182,12.185-9.418l0.218,0.028c5.966,0.764,10.182,6.22,9.418,12.185L562.683,72.305z"/>
</svg>
