<?xml version="1.0" encoding="utf-8"?>
<!-- Generator: Adobe Illustrator 17.1.0, SVG Export Plug-In . SVG Version: 6.00 Build 0)  -->
<!DOCTYPE svg PUBLIC "-//W3C//DTD SVG 1.1//EN" "http://www.w3.org/Graphics/SVG/1.1/DTD/svg11.dtd">
<svg version="1.1" id="Layer_1" xmlns="http://www.w3.org/2000/svg" xmlns:xlink="http://www.w3.org/1999/xlink" x="0px" y="0px"
	 viewBox="0 0 121 121" enable-background="new 0 0 121 121" xml:space="preserve">
<g>
	<g>
		<g>
			<path fill="#FFFFFF" d="M119.4,7.1v106.8c0,3-2.5,5.5-5.5,5.5H7.1c-3,0-5.5-2.4-5.5-5.5V7.1c0-3,2.4-5.5,5.5-5.5h106.8
				C116.9,1.6,119.4,4.1,119.4,7.1z"/>
		</g>
		<g>
			<path fill="#2875D4" d="M113.9,120.5H7.1c-3.6,0-6.6-3-6.6-6.6V7.1c0-3.6,3-6.6,6.6-6.6h106.8c3.6,0,6.6,3,6.6,6.6v106.8
				C120.5,117.6,117.6,120.5,113.9,120.5z M7.1,2.7c-2.4,0-4.3,2-4.3,4.3v106.8c0,2.4,1.9,4.3,4.3,4.3h106.8c2.4,0,4.3-1.9,4.3-4.3
				V7.1c0-2.4-2-4.3-4.3-4.3H7.1z"/>
		</g>
	</g>
	<g>
		<g>
			<path fill="#2875D4" d="M16.3,49.7v37.7c-0.9-0.2-1.7-0.3-2.6-0.5V49.2C14.6,49.4,15.4,49.6,16.3,49.7z"/>
		</g>
		<g>
			<path fill="#2875D4" d="M93.8,82.2v3.2C87.4,84,81,83.7,74.6,83.9v-3.2C81,80.5,87.4,80.8,93.8,82.2z"/>
		</g>
		<g>
			<path fill="#2875D4" d="M74.6,47.4v31.3c6.4-0.2,12.8,0.2,19.2,1.5V48.9C87.4,47.5,81,47.2,74.6,47.4z M91.7,78.2
				c-4.6-0.7-9.4-1.1-14.6-1.1h-0.4V48.8H77c5.3,0,10.2,0.4,14.8,1.2V78.2z"/>
		</g>
		<g>
			<path fill="#2875D4" d="M58.6,63.9c-0.1,0.9-0.1,1.7-0.2,2.6c-0.2,0-0.5,0-0.8,0c-0.9,0.1-1.5,0.4-2,0.9
				c-0.5,0.5-0.7,1.2-0.7,1.9v5.1c-0.9,0.1-1.8,0.2-2.7,0.3v-9.9c0.7-0.1,1.4-0.2,2.1-0.2c0.1,0.5,0.3,1.1,0.4,1.6c0,0,0.1,0,0.1,0
				c0.3-0.6,0.7-1.1,1.2-1.5c0.5-0.4,1.1-0.6,1.7-0.7C58.1,63.9,58.4,63.9,58.6,63.9z"/>
		</g>
		<g>
			<path fill="#2875D4" d="M49.3,69.3c-0.4-0.5-1-0.7-1.8-0.8v-0.1c0.6-0.2,1.1-0.5,1.4-1.1c0.4-0.5,0.6-1.2,0.6-2
				c0-1.1-0.4-1.9-1.3-2.4c-0.8-0.4-2.2-0.6-4-0.4c-1.4,0.1-2.7,0.3-4,0.4v13c1.6-0.1,3.2-0.3,4.9-0.4c1.5-0.2,2.6-0.6,3.5-1.4
				c0.9-0.8,1.3-1.7,1.3-2.9C49.8,70.4,49.6,69.7,49.3,69.3z M42.9,65c0.5,0,1-0.1,1.5-0.1c0.8-0.1,1.4,0,1.7,0.2
				c0.4,0.2,0.5,0.5,0.5,1c0,0.5-0.2,0.9-0.5,1.2c-0.3,0.3-0.9,0.4-1.6,0.5c-0.5,0.1-1.1,0.1-1.6,0.2V65z M46.4,72.7
				c-0.4,0.3-0.9,0.5-1.7,0.6c-0.6,0.1-1.2,0.1-1.8,0.2V70c0.6-0.1,1.1-0.1,1.7-0.2c1.5-0.2,2.3,0.3,2.3,1.4
				C47,71.9,46.8,72.3,46.4,72.7z"/>
		</g>
		<g>
			<path fill="#2875D4" d="M34.3,56c0,1.5-3.5,2.8-7.9,2.7c-4.3-0.2-7.9-1.9-7.9-3.3c0-1.5,3.5-2.1,7.9-2
				C30.8,53.5,34.3,54.5,34.3,56z"/>
		</g>
	</g>
	<g>
		<g>
			<path fill="#2875D4" d="M86.7,31.1c-20.4,0.8-40.8,6.6-61.2,1.8v5.9c3.3,0.4,6.8,0.7,10.6,0.7h0c7.8,0,15.9-0.9,23.7-1.9
				c6.5-0.8,13.2-1.5,19.8-1.8c1.5-0.1,3-0.1,4.4-0.1c6.6,0,12.6,0.6,18.2,1.9l2.1,0.5v3.9v30.5c1.4,0.2,2.9,0.5,4.3,0.8V42.1v-9.2
				C101.3,31.2,94,30.8,86.7,31.1z"/>
		</g>
		<g>
			<path fill="#2875D4" d="M79.7,38.5c-13.5,0.5-27.1,3.2-40.6,3.6h-5.7c-4.9-0.1-9.9-0.7-14.8-1.8v1.8v4c3.6,0.5,7.3,0.8,11.4,0.8
				c7.8,0,15.9-0.9,23.7-1.9c6.5-0.8,13.2-1.5,19.9-1.8c1.5-0.1,3-0.1,4.4-0.1c6.6,0,12.6,0.6,18.2,1.9l2.1,0.5V80
				c1.2,0.2,2.3,0.4,3.5,0.7V42.1v-1.8C94.3,38.5,87,38.2,79.7,38.5z"/>
		</g>
		<g>
			<path fill="#2875D4" d="M30,90.6c-6.5,0-12.3-0.6-17.7-1.9c-0.3-0.1-0.5-0.3-0.5-0.6V47.6c0-0.2,0.1-0.4,0.2-0.5
				c0.2-0.1,0.4-0.2,0.6-0.1c5.3,1.2,11,1.9,17.4,1.9c7.9,0,16.1-0.9,23.9-1.9c6.5-0.8,13.1-1.5,19.7-1.8c8.3-0.3,15.4,0.2,22.1,1.8
				c0.3,0.1,0.5,0.3,0.5,0.6v40.5c0,0.2-0.1,0.4-0.2,0.5c-0.2,0.1-0.4,0.2-0.6,0.1c-5.3-1.2-11-1.9-17.4-1.9c-1.4,0-2.8,0-4.3,0.1
				c-6.5,0.3-13.2,1-19.6,1.8C46.1,89.7,38,90.6,30,90.6z M13.1,87.6c5.2,1.2,10.7,1.7,16.9,1.7c7.9,0,16.1-0.9,23.9-1.9
				c6.5-0.8,13.1-1.5,19.7-1.8c1.5-0.1,3-0.1,4.4-0.1c6.2,0,11.7,0.6,16.9,1.7V48.1c-6.4-1.4-13.2-2-21.2-1.7
				c-6.5,0.3-13.2,1-19.6,1.8c-7.9,0.9-16,1.9-24,1.9c-6.2,0-11.7-0.6-16.9-1.7V87.6z"/>
		</g>
	</g>
</g>
</svg>
