<?xml version="1.0" encoding="utf-8"?>
<!-- Generator: Adobe Illustrator 17.0.0, SVG Export Plug-In . SVG Version: 6.00 Build 0)  -->
<!DOCTYPE svg PUBLIC "-//W3C//DTD SVG 1.1//EN" "http://www.w3.org/Graphics/SVG/1.1/DTD/svg11.dtd">
<svg version="1.1" id="Слой_1" xmlns="http://www.w3.org/2000/svg" xmlns:xlink="http://www.w3.org/1999/xlink" x="0px" y="0px"
	 width="455px" height="70px" viewBox="0 0 455 70" enable-background="new 0 0 455 70" xml:space="preserve">
<g>
	<path fill="#565656" d="M104.532,24.522c-3.389,0-6.147-2.757-6.147-6.146c0-3.389,2.757-6.147,6.147-6.147
		c3.389,0,6.146,2.757,6.146,6.147C110.678,21.765,107.921,24.522,104.532,24.522z M104.532,14.039
		c-2.391,0-4.337,1.945-4.337,4.337c0,2.391,1.946,4.336,4.337,4.336c2.391,0,4.336-1.945,4.336-4.336
		C108.868,15.985,106.923,14.039,104.532,14.039z"/>
</g>
<g>
	<path fill="#565656" d="M44.136,68.566c-0.5,0-0.905-0.405-0.905-0.905V48.39l-9.955-4.881v20.306c0,0.5-0.405,0.905-0.905,0.905
		c-0.5,0-0.905-0.405-0.905-0.905V42.056c0-0.312,0.161-0.603,0.426-0.768c0.265-0.165,0.596-0.182,0.877-0.044l11.765,5.769
		c0.31,0.152,0.506,0.467,0.506,0.812v19.835C45.041,68.161,44.635,68.566,44.136,68.566z"/>
</g>
<g>
	<path fill="#565656" d="M20.606,68.566c-0.5,0-0.905-0.405-0.905-0.905V47.826c0-0.346,0.197-0.66,0.506-0.812l11.765-5.769
		c0.281-0.138,0.612-0.121,0.877,0.044c0.265,0.165,0.426,0.456,0.426,0.768v21.758c0,0.5-0.405,0.905-0.905,0.905
		c-0.5,0-0.905-0.405-0.905-0.905V43.508l-9.955,4.881v19.271C21.511,68.161,21.105,68.566,20.606,68.566z"/>
</g>
<g>
	<path fill="#565656" d="M116.956,47.599c-0.006,0-0.012-0.001-0.018,0h-11.765c-0.397,0-0.748-0.259-0.865-0.638l-5.882-19.08
		c-0.085-0.275-0.034-0.574,0.137-0.804c0.171-0.232,0.441-0.368,0.728-0.368h11.765c0.397,0,0.748,0.259,0.865,0.638l5.832,18.917
		c0.069,0.128,0.109,0.275,0.109,0.43C117.861,47.195,117.456,47.599,116.956,47.599z M105.841,45.789h9.871l-5.324-17.27h-9.871
		L105.841,45.789z"/>
</g>
<g>
	<path fill="#565656" d="M166.805,47.599H155.04c-0.5,0-0.905-0.405-0.905-0.905v-19.08c0-0.5,0.405-0.905,0.905-0.905h11.765
		c0.5,0,0.905,0.405,0.905,0.905v19.08C167.71,47.195,167.305,47.599,166.805,47.599z M155.945,45.789h9.955v-17.27h-9.955V45.789z"
		/>
</g>
<g>
	<path fill="#565656" d="M99.29,28.519c-0.182,0-0.366-0.055-0.525-0.169l-9.427-6.741c-0.252-0.18-0.395-0.477-0.377-0.787
		l0.709-12.707L87.1,6.108c-0.394-0.308-0.464-0.877-0.156-1.271c0.308-0.393,0.877-0.462,1.27-0.156l2.941,2.3
		c0.234,0.183,0.363,0.468,0.346,0.764l-0.707,12.682l9.022,6.451c0.407,0.291,0.501,0.856,0.21,1.263
		C99.85,28.388,99.572,28.519,99.29,28.519z"/>
</g>
<g>
	<path fill="#565656" d="M216.778,24.522c-3.389,0-6.146-2.757-6.146-6.146c0-3.389,2.757-6.147,6.146-6.147
		c3.389,0,6.146,2.757,6.146,6.147C222.924,21.765,220.167,24.522,216.778,24.522z M216.778,14.039
		c-2.391,0-4.336,1.945-4.336,4.337c0,2.391,1.945,4.336,4.336,4.336s4.336-1.945,4.336-4.336
		C221.114,15.985,219.169,14.039,216.778,14.039z"/>
</g>
<g>
	<path fill="#565656" d="M160.923,24.522c-3.389,0-6.146-2.757-6.146-6.146c0-3.389,2.757-6.147,6.146-6.147
		s6.146,2.757,6.146,6.147C167.069,21.765,164.312,24.522,160.923,24.522z M160.923,14.039c-2.391,0-4.336,1.945-4.336,4.337
		c0,2.391,1.945,4.336,4.336,4.336s4.336-1.945,4.336-4.336C165.259,15.985,163.314,14.039,160.923,14.039z"/>
</g>
<g>
	<path fill="#565656" d="M213.304,47.713c-0.392,0-0.745-0.254-0.863-0.635l-5.354-17.167c-0.08-0.255-0.042-0.532,0.101-0.757
		s0.379-0.375,0.643-0.41l11.916-1.584c0.446-0.057,0.867,0.217,0.99,0.65l4.902,17.28c0.072,0.253,0.03,0.525-0.115,0.745
		c-0.145,0.22-0.379,0.366-0.64,0.399l-11.464,1.471C213.381,47.71,213.342,47.713,213.304,47.713z M209.134,30.397l4.809,15.417
		l9.668-1.24l-4.402-15.516L209.134,30.397z"/>
</g>
<g>
	<path fill="#565656" d="M223.197,68.566c-0.137,0-0.275-0.031-0.405-0.096c-0.447-0.224-0.627-0.768-0.403-1.214l7.757-15.451
		l-6.008-5.816c-0.359-0.348-0.369-0.921-0.021-1.28c0.346-0.361,0.92-0.369,1.279-0.021l6.486,6.278
		c0.285,0.276,0.357,0.703,0.179,1.056l-8.056,16.045C223.848,68.383,223.528,68.566,223.197,68.566z"/>
</g>
<g>
	<path fill="#565656" d="M210.81,68.566c-0.214,0-0.429-0.076-0.602-0.23c-0.373-0.332-0.406-0.904-0.073-1.277l11.296-12.671
		l-8.688-6.871c-0.392-0.31-0.459-0.879-0.148-1.271c0.31-0.393,0.879-0.46,1.271-0.148l9.441,7.466
		c0.196,0.155,0.319,0.383,0.34,0.631s-0.06,0.495-0.226,0.681l-11.935,13.387C211.307,68.463,211.059,68.566,210.81,68.566z"/>
</g>
<g>
	<path fill="#565656" d="M231.211,32.177c-0.083,0-0.166-0.011-0.247-0.034l-11.346-3.215c-0.481-0.136-0.761-0.636-0.624-1.117
		c0.136-0.481,0.638-0.763,1.117-0.624l11.076,3.138l8.696-2.918v-2.564c0-0.5,0.405-0.905,0.905-0.905
		c0.5,0,0.905,0.405,0.905,0.905v3.214c0,0.389-0.248,0.734-0.617,0.858l-9.578,3.215C231.406,32.161,231.308,32.177,231.211,32.177
		z"/>
</g>
<g>
	<path fill="#565656" d="M199.875,47.524c-0.368,0-0.715-0.226-0.849-0.592l-1.152-3.127c-0.1-0.271-0.064-0.574,0.096-0.815
		l9.227-13.852c0.277-0.416,0.838-0.528,1.255-0.251c0.416,0.277,0.529,0.839,0.251,1.255l-8.971,13.468l0.993,2.696
		c0.173,0.469-0.068,0.989-0.536,1.162C200.085,47.507,199.979,47.524,199.875,47.524z"/>
</g>
<g>
	<path fill="#565656" d="M166.804,28.519c-0.426,0-0.806-0.302-0.888-0.737c-0.093-0.491,0.23-0.964,0.721-1.057l10.882-2.055
		l-7.216-5.935c-0.208-0.171-0.329-0.425-0.33-0.695c-0.001-0.269,0.117-0.524,0.323-0.697l3.054-2.565
		c0.384-0.32,0.954-0.272,1.275,0.111c0.322,0.383,0.272,0.954-0.111,1.274l-2.221,1.865l7.87,6.472
		c0.271,0.224,0.389,0.583,0.302,0.924c-0.087,0.34-0.364,0.599-0.709,0.665l-12.783,2.414
		C166.916,28.514,166.86,28.519,166.804,28.519z"/>
</g>
<g>
	<path fill="#565656" d="M155.041,28.519c-0.056,0-0.112-0.005-0.169-0.016l-12.783-2.414c-0.345-0.065-0.622-0.324-0.709-0.665
		s0.031-0.7,0.302-0.924l7.87-6.472l-2.221-1.865c-0.383-0.321-0.433-0.892-0.111-1.274c0.322-0.384,0.892-0.432,1.275-0.111
		l3.054,2.565c0.206,0.173,0.324,0.429,0.323,0.697c-0.001,0.27-0.122,0.524-0.33,0.695l-7.216,5.935l10.882,2.055
		c0.491,0.093,0.814,0.566,0.721,1.057C155.847,28.217,155.467,28.519,155.041,28.519z"/>
</g>
<g>
	<path fill="#565656" d="M166.805,68.566c-0.374,0-0.724-0.233-0.855-0.607l-3.79-10.86c-0.069-0.2-0.067-0.417,0.007-0.616
		l3.79-10.106c0.176-0.468,0.697-0.703,1.165-0.529c0.468,0.176,0.705,0.697,0.53,1.166l-3.675,9.799l3.682,10.551
		c0.164,0.472-0.084,0.987-0.556,1.152C167.005,68.55,166.904,68.566,166.805,68.566z"/>
</g>
<g>
	<path fill="#565656" d="M155.04,68.566c-0.099,0-0.199-0.016-0.298-0.05c-0.472-0.165-0.721-0.681-0.556-1.152l3.682-10.551
		l-3.675-9.799c-0.175-0.468,0.062-0.99,0.53-1.166c0.468-0.173,0.99,0.062,1.165,0.529l3.79,10.106
		c0.074,0.199,0.076,0.416,0.007,0.616l-3.79,10.86C155.764,68.332,155.414,68.566,155.04,68.566z"/>
</g>
<g>
	<path fill="#565656" d="M102.684,68.566c-0.396,0-0.76-0.262-0.871-0.663L97.891,53.8c-0.084-0.303-0.005-0.629,0.21-0.86
		l6.41-6.863c0.342-0.366,0.914-0.385,1.279-0.043c0.365,0.341,0.385,0.914,0.044,1.279l-6.064,6.492l3.785,13.614
		c0.134,0.482-0.148,0.98-0.629,1.114C102.845,68.555,102.764,68.566,102.684,68.566z"/>
</g>
<g>
	<path fill="#565656" d="M119.202,68.566c-0.041,0-0.083-0.003-0.125-0.009c-0.495-0.067-0.841-0.524-0.773-1.019l1.844-13.421
		l-3.995-6.972c-0.248-0.434-0.099-0.986,0.335-1.236c0.433-0.246,0.987-0.097,1.235,0.336l4.148,7.24
		c0.099,0.173,0.139,0.375,0.111,0.573l-1.886,13.726C120.035,68.237,119.647,68.566,119.202,68.566z"/>
</g>
<g>
	<path fill="#565656" d="M120.294,42.961c-0.224,0-0.449-0.083-0.624-0.249l-2.376-2.262c-0.308-0.293-0.37-0.761-0.15-1.124
		l4.597-7.595l-10.943-3.248c-0.479-0.142-0.752-0.646-0.61-1.125c0.142-0.479,0.644-0.755,1.125-0.611l12.067,3.582
		c0.269,0.08,0.485,0.28,0.586,0.542c0.101,0.262,0.076,0.555-0.07,0.795l-4.827,7.975l1.849,1.761
		c0.362,0.346,0.376,0.918,0.031,1.28C120.772,42.867,120.533,42.961,120.294,42.961z"/>
</g>
<g>
	<path fill="#565656" d="M102.684,68.566H44.136c-0.5,0-0.905-0.405-0.905-0.905c0-0.5,0.405-0.905,0.905-0.905h58.549
		c0.5,0,0.905,0.405,0.905,0.905C103.589,68.161,103.184,68.566,102.684,68.566z"/>
</g>
<g>
	<path fill="#565656" d="M20.606,68.566H1.261c-0.5,0-0.905-0.405-0.905-0.905c0-0.5,0.405-0.905,0.905-0.905h19.344
		c0.5,0,0.905,0.405,0.905,0.905C21.511,68.161,21.105,68.566,20.606,68.566z"/>
</g>
<g>
	<path fill="#565656" d="M38.366,61.91c-1.918,0-3.365-2.31-3.365-5.373c0-3.063,1.447-5.373,3.365-5.373s3.365,2.31,3.365,5.373
		C41.731,59.6,40.284,61.91,38.366,61.91z M38.366,52.973c-0.634,0-1.555,1.388-1.555,3.563s0.921,3.563,1.555,3.563
		s1.555-1.388,1.555-3.563S39,52.973,38.366,52.973z"/>
</g>
<g>
	<path fill="#565656" d="M58.451,59.728c-0.232,0-0.463-0.088-0.64-0.265c-0.354-0.354-0.354-0.926,0-1.28
		c0.351-0.351,0.649-0.713,0.887-1.077c0.728-1.092,1.11-2.358,1.11-3.668c0-1.795-0.708-3.481-1.993-4.749
		c-0.399-0.301-0.487-0.88-0.186-1.279c0.301-0.399,0.859-0.49,1.258-0.187c0.067,0.05,0.136,0.115,0.203,0.182
		c1.628,1.607,2.528,3.751,2.528,6.034c0,1.668-0.487,3.281-1.41,4.665c-0.301,0.461-0.679,0.922-1.118,1.36
		C58.914,59.639,58.683,59.728,58.451,59.728z"/>
</g>
<g>
	<path fill="#565656" d="M51.927,57.392c-0.231,0-0.463-0.088-0.639-0.264c-0.354-0.354-0.354-0.926-0.001-1.28
		c0.182-0.183,0.335-0.369,0.456-0.553c0.375-0.562,0.57-1.21,0.57-1.881c0-0.919-0.363-1.783-1.022-2.433
		c-0.405-0.293-0.474-0.842-0.181-1.248c0.293-0.404,0.88-0.479,1.285-0.186c0.038,0.027,0.125,0.104,0.158,0.137
		c1.016,1.002,1.57,2.323,1.57,3.73c0,1.03-0.301,2.025-0.87,2.878c-0.184,0.282-0.416,0.565-0.685,0.834
		C52.391,57.303,52.159,57.392,51.927,57.392z"/>
</g>
<g>
	<path fill="#565656" d="M64.692,63.498c-0.232,0-0.463-0.088-0.64-0.265c-0.354-0.354-0.354-0.926,0-1.28
		c0.626-0.626,1.159-1.274,1.583-1.924c1.299-1.948,1.983-4.212,1.983-6.554c0-3.207-1.265-6.222-3.562-8.489
		c-0.038-0.038-0.065-0.068-0.094-0.092c-0.381-0.311-0.456-0.881-0.153-1.268c0.303-0.388,0.847-0.472,1.241-0.178
		c0.091,0.069,0.186,0.157,0.277,0.248c2.645,2.612,4.101,6.083,4.101,9.778c0,2.701-0.789,5.312-2.282,7.551
		c-0.488,0.748-1.1,1.493-1.814,2.207C65.155,63.41,64.923,63.498,64.692,63.498z"/>
</g>
<g>
	<path fill="#565656" d="M284.311,68.566c-0.5,0-0.905-0.405-0.905-0.905V47.826c0-0.346,0.196-0.66,0.506-0.812l11.765-5.769
		c0.282-0.137,0.612-0.12,0.878,0.044c0.265,0.165,0.426,0.456,0.426,0.768v21.758c0,0.5-0.405,0.905-0.905,0.905
		s-0.905-0.405-0.905-0.905V43.508l-9.955,4.881v19.271C285.216,68.161,284.811,68.566,284.311,68.566z"/>
</g>
<g>
	<path fill="#565656" d="M307.841,68.566c-0.5,0-0.905-0.405-0.905-0.905V48.39l-9.955-4.881v20.306c0,0.5-0.405,0.905-0.905,0.905
		s-0.905-0.405-0.905-0.905V42.056c0-0.312,0.161-0.603,0.426-0.768c0.264-0.165,0.596-0.182,0.878-0.044l11.765,5.769
		c0.31,0.152,0.506,0.467,0.506,0.812v19.835C308.746,68.161,308.341,68.566,307.841,68.566z"/>
</g>
<g>
	<path fill="#565656" d="M284.311,68.566h-61.113c-0.5,0-0.905-0.405-0.905-0.905c0-0.5,0.405-0.905,0.905-0.905h61.113
		c0.5,0,0.905,0.405,0.905,0.905C285.216,68.161,284.811,68.566,284.311,68.566z"/>
</g>
<g>
	<path fill="#565656" d="M327.185,68.566h-19.344c-0.5,0-0.905-0.405-0.905-0.905c0-0.5,0.405-0.905,0.905-0.905h19.344
		c0.5,0,0.905,0.405,0.905,0.905C328.09,68.161,327.685,68.566,327.185,68.566z"/>
</g>
<g>
	<path fill="#565656" d="M290.08,61.91c-1.919,0-3.365-2.31-3.365-5.373c0-3.063,1.447-5.373,3.365-5.373s3.365,2.31,3.365,5.373
		C293.446,59.6,291.999,61.91,290.08,61.91z M290.08,52.973c-0.635,0-1.555,1.388-1.555,3.563s0.921,3.563,1.555,3.563
		s1.555-1.388,1.555-3.563S290.715,52.973,290.08,52.973z"/>
</g>
<g>
	<path fill="#565656" d="M269.995,59.728c-0.232,0-0.463-0.088-0.64-0.265c-0.439-0.438-0.817-0.899-1.122-1.367
		c-0.917-1.377-1.405-2.99-1.405-4.658c0-2.283,0.899-4.427,2.532-6.038c0.063-0.063,0.132-0.127,0.198-0.178
		c0.399-0.302,0.966-0.223,1.268,0.176c0.297,0.393,0.224,0.95-0.159,1.255c-1.322,1.306-2.029,2.992-2.029,4.785
		c0,1.31,0.383,2.575,1.106,3.661c0.242,0.371,0.541,0.734,0.892,1.084c0.354,0.354,0.354,0.926,0,1.28
		C270.458,59.639,270.227,59.728,269.995,59.728z"/>
</g>
<g>
	<path fill="#565656" d="M276.52,57.392c-0.232,0-0.463-0.088-0.64-0.265c-0.27-0.27-0.502-0.552-0.691-0.842
		c-0.565-0.847-0.865-1.841-0.865-2.871c0-1.407,0.554-2.728,1.561-3.722c0.034-0.034,0.134-0.123,0.174-0.151
		c0.408-0.288,0.972-0.194,1.262,0.216c0.275,0.389,0.201,0.921-0.161,1.22c-0.669,0.668-1.026,1.525-1.026,2.437
		c0,0.671,0.195,1.319,0.566,1.874c0.125,0.192,0.279,0.377,0.46,0.559c0.354,0.354,0.354,0.926,0,1.28
		C276.983,57.303,276.752,57.392,276.52,57.392z"/>
</g>
<g>
	<path fill="#565656" d="M263.755,63.498c-0.232,0-0.463-0.088-0.64-0.265c-0.714-0.714-1.327-1.459-1.819-2.214
		c-1.488-2.232-2.277-4.842-2.277-7.544c0-3.694,1.456-7.167,4.101-9.777c0.087-0.087,0.183-0.178,0.275-0.247
		c0.399-0.3,0.966-0.219,1.267,0.179c0.3,0.399,0.221,0.964-0.176,1.266c-0.031,0.025-0.06,0.057-0.091,0.087
		c-2.301,2.272-3.566,5.287-3.566,8.493c0,2.343,0.684,4.607,1.978,6.547c0.43,0.658,0.962,1.305,1.588,1.931
		c0.354,0.354,0.354,0.926,0,1.28C264.218,63.41,263.986,63.498,263.755,63.498z"/>
</g>
<g>
	<g>
		<path fill="#565656" d="M396.279,52.752c-0.033,0-0.065-0.002-0.099-0.005c-0.527-0.057-12.942-1.477-16.643-9.855
			c-3.756-8.502,1.557-20.798,3.686-23.362c0.248-0.3,0.658-0.412,1.025-0.281c0.593,0.212,14.55,5.276,16.742,12.994
			c2.159,7.604-3.632,19.489-3.88,19.992C396.953,52.554,396.629,52.752,396.279,52.752z M384.27,21.241
			c-1.981,3.049-6.256,13.616-3.038,20.902c2.826,6.398,11.975,8.27,14.497,8.67c1.13-2.483,5.184-12.053,3.478-18.062
			C397.519,26.809,387,22.316,384.27,21.241z"/>
	</g>
	<g>
		<path fill="#565656" d="M400.107,57.242c-0.216,0-0.433-0.075-0.608-0.228c-10.283-8.94-12.96-25.404-13.069-26.101
			c-0.08-0.506,0.267-0.979,0.772-1.059c0.509-0.08,0.979,0.266,1.059,0.772c0.026,0.163,2.688,16.497,12.453,24.989
			c0.386,0.336,0.428,0.921,0.091,1.307C400.623,57.135,400.366,57.242,400.107,57.242z"/>
	</g>
</g>
<g>
	<path fill="#565656" d="M433.797,30.137c-2.529,0-4.488-1.815-6.383-3.57c-1.897-1.756-3.857-3.572-6.355-3.572
		c-5.065,0-10.002,3.891-10.051,3.93c-0.382,0.304-0.937,0.242-1.242-0.139c-0.304-0.381-0.242-0.937,0.138-1.242
		c0.221-0.176,5.462-4.317,11.155-4.317c3.191,0,5.51,2.148,7.556,4.043c1.721,1.594,3.346,3.099,5.182,3.099
		c4.298,0,11.455-3.622,11.526-3.659c0.434-0.22,0.967-0.049,1.189,0.386c0.221,0.435,0.049,0.967-0.386,1.189
		C445.817,26.442,438.52,30.137,433.797,30.137z"/>
</g>
<g>
	<path fill="#565656" d="M441.832,42.478c-2.528,0-4.487-1.815-6.382-3.57c-1.897-1.756-3.857-3.572-6.355-3.572
		c-5.066,0-10.002,3.891-10.051,3.93c-0.381,0.304-0.937,0.242-1.242-0.139c-0.304-0.381-0.243-0.937,0.138-1.242
		c0.221-0.176,5.461-4.317,11.155-4.317c3.191,0,5.51,2.148,7.556,4.043c1.721,1.594,3.346,3.099,5.181,3.099
		c4.299,0,11.456-3.622,11.527-3.659c0.435-0.22,0.967-0.049,1.189,0.386c0.221,0.435,0.049,0.967-0.386,1.189
		C453.853,38.784,446.555,42.478,441.832,42.478z"/>
</g>
<g>
	<path fill="#565656" d="M433.797,54.818c-2.529,0-4.488-1.815-6.383-3.57c-1.897-1.757-3.857-3.572-6.355-3.572
		c-5.065,0-10.002,3.891-10.051,3.93c-0.382,0.304-0.937,0.242-1.242-0.139c-0.304-0.381-0.242-0.937,0.138-1.242
		c0.221-0.176,5.462-4.317,11.155-4.317c3.19,0,5.51,2.148,7.556,4.043c1.721,1.593,3.346,3.099,5.182,3.099
		c4.303,0,11.455-3.621,11.526-3.658c0.434-0.22,0.967-0.049,1.189,0.386c0.221,0.435,0.049,0.967-0.386,1.189
		C445.817,51.125,438.52,54.818,433.797,54.818z"/>
</g>
<g>
	<path fill="#565656" d="M155.04,68.566H119.2c-0.5,0-0.905-0.405-0.905-0.905c0-0.5,0.405-0.905,0.905-0.905h35.84
		c0.5,0,0.905,0.405,0.905,0.905C155.945,68.161,155.54,68.566,155.04,68.566z"/>
</g>
<g>
	<path fill="#565656" d="M210.811,68.566h-44.006c-0.5,0-0.905-0.405-0.905-0.905c0-0.5,0.405-0.905,0.905-0.905h44.006
		c0.5,0,0.905,0.405,0.905,0.905C211.716,68.161,211.31,68.566,210.811,68.566z"/>
</g>
<g>
	<path fill="#565656" d="M353.154,37.015H335.46c-0.512,0-0.927-0.415-0.927-0.927c0-0.512,0.415-0.927,0.927-0.927h17.694
		c0.512,0,0.927,0.415,0.927,0.927C354.081,36.6,353.666,37.015,353.154,37.015z"/>
</g>
<g>
	<path fill="#565656" d="M353.154,44.896H335.46c-0.512,0-0.927-0.415-0.927-0.927c0-0.512,0.415-0.927,0.927-0.927h17.694
		c0.512,0,0.927,0.415,0.927,0.927C354.081,44.481,353.666,44.896,353.154,44.896z"/>
</g>
</svg>
