<?xml version="1.0" encoding="utf-8"?>
<!-- Generator: Adobe Illustrator 19.0.0, SVG Export Plug-In . SVG Version: 6.00 Build 0)  -->
<svg version="1.1" id="Layer_1" xmlns="http://www.w3.org/2000/svg" xmlns:xlink="http://www.w3.org/1999/xlink" x="0px" y="0px"
	 viewBox="0 0 460 100" style="enable-background:new 0 0 460 100;" xml:space="preserve">
<style type="text/css">
	.st0{fill:#7DBBD9;}
	.st1{fill:#FFFFFF;}
	.st2{fill:#B1DDEF;}
	.st3{fill:#B8E3F4;}
	.st4{enable-background:new    ;}
</style>
<g id="XMLID_1_">
	<g id="XMLID_765_">
		<polygon id="XMLID_380_" class="st0" points="34.5,86.9 38.3,64.5 44.4,64.5 40.6,86.9 		"/>
	</g>
	<g id="XMLID_764_">
		<path id="XMLID_381_" class="st0" d="M62.7,65.1c-1.2-0.5-3.1-0.9-5.5-0.9c-6,0-10.3,3-10.3,7.4c0,3.2,3,5,5.3,6.1
			c2.4,1.1,3.2,1.8,3.2,2.8c0,1.5-1.9,2.2-3.6,2.2c-2.4,0-3.7-0.3-5.7-1.2l-0.8-0.4l-0.9,5c1.4,0.6,4.1,1.2,6.8,1.2
			c6.4,0,10.6-3,10.6-7.6c0-2.5-1.6-4.5-5.1-6.1c-2.1-1-3.4-1.7-3.4-2.8c0-0.9,1.1-1.9,3.5-1.9c2,0,3.4,0.4,4.6,0.9l0.5,0.3
			L62.7,65.1"/>
	</g>
	<g id="XMLID_761_">
		<path id="XMLID_382_" class="st0" d="M78.3,64.6h-4.7c-1.5,0-2.6,0.4-3.2,1.9L61.3,87h6.4c0,0,1-2.8,1.3-3.4c0.7,0,6.9,0,7.8,0
			c0.2,0.8,0.7,3.4,0.7,3.4h5.7L78.3,64.6 M70.8,79c0.5-1.3,2.4-6.3,2.4-6.3c0,0.1,0.5-1.3,0.8-2.1l0.4,1.9c0,0,1.2,5.3,1.4,6.5
			L70.8,79L70.8,79z"/>
	</g>
	<g id="XMLID_760_">
		<path id="XMLID_383_" class="st0" d="M29.4,64.6l-6,15.3l-0.6-3.1c-1.1-3.6-4.6-7.4-8.4-9.4L19.9,87h6.4l9.6-22.3L29.4,64.6"/>
	</g>
	<g id="XMLID_759_">
		<path id="XMLID_384_" class="st1" d="M17.9,64.5H8.1L8,65c7.6,1.9,12.7,6.3,14.8,11.7l-2.1-10.3C20.3,65,19.2,64.6,17.9,64.5"/>
	</g>
</g>
<g id="XMLID_755_">
	<g id="XMLID_756_">
		<polygon id="XMLID_499_" class="st0" points="60.7,47.6 61.8,47.6 63,47.5 64.1,47.4 65.2,47.2 66.3,46.9 67.4,46.6 68.4,46.3 
			69.5,45.9 70.5,45.4 71.4,44.9 72.4,44.4 73.3,43.8 74.2,43.2 75,42.5 75.8,41.8 76.6,41 77.4,40.2 78.1,39.4 78.8,38.6 
			79.4,37.7 80,36.8 80.5,35.8 81,34.9 81.5,33.9 81.9,32.8 82.2,31.8 82.5,30.7 82.8,29.6 83,28.5 83.1,27.4 83.2,26.2 83.2,25.1 
			83.2,23.9 83.1,22.8 83,21.7 82.8,20.5 82.5,19.5 82.2,18.4 81.9,17.4 81.5,16.3 81,15.3 80.5,14.4 80,13.4 79.4,12.5 78.8,11.6 
			78.1,10.8 77.4,10 76.6,9.2 75.8,8.4 75,7.7 74.2,7.1 73.3,6.4 72.4,5.8 71.4,5.3 70.5,4.8 69.5,4.4 68.4,4 67.4,3.6 66.3,3.3 
			65.2,3 64.1,2.8 63,2.7 61.8,2.6 60.7,2.6 59.5,2.6 58.4,2.7 57.2,2.8 56.1,3 55,3.3 54,3.6 52.9,4 51.9,4.4 50.9,4.8 49.9,5.3 
			49,5.8 48.1,6.4 47.2,7.1 46.4,7.7 45.5,8.4 44.8,9.2 44,10 43.3,10.8 42.6,11.6 42,12.5 41.4,13.4 40.9,14.4 40.4,15.3 
			39.9,16.3 39.5,17.4 39.2,18.4 38.9,19.5 38.6,20.5 38.4,21.7 38.3,22.8 38.2,23.9 38.2,25.1 38.2,26.2 38.3,27.4 38.4,28.5 
			38.6,29.6 38.9,30.7 39.2,31.8 39.5,32.8 39.9,33.9 40.4,34.9 40.9,35.8 41.4,36.8 42,37.7 42.6,38.6 43.3,39.4 44,40.2 44.8,41 
			45.5,41.8 46.4,42.5 47.2,43.2 48.1,43.8 49,44.4 49.9,44.9 50.9,45.4 51.9,45.9 52.9,46.3 54,46.6 55,46.9 56.1,47.2 57.2,47.4 
			58.4,47.5 59.5,47.6 		"/>
	</g>
</g>
<g id="XMLID_753_">
	<g id="XMLID_754_">
		<polygon id="XMLID_500_" class="st2" points="30.5,47.6 31.7,47.6 32.8,47.5 34,47.4 35.1,47.2 36.1,46.9 37.2,46.6 38.3,46.3 
			39.3,45.9 40.3,45.4 41.2,44.9 42.2,44.4 43.1,43.8 44,43.2 44.8,42.5 45.6,41.8 46.4,41 47.2,40.2 47.9,39.4 48.6,38.6 
			49.2,37.7 49.8,36.8 50.3,35.8 50.8,34.9 51.3,33.9 51.7,32.8 52,31.8 52.3,30.7 52.6,29.6 52.8,28.5 52.9,27.4 53,26.2 53,25.1 
			53,23.9 52.9,22.8 52.8,21.7 52.6,20.5 52.3,19.5 52,18.4 51.7,17.4 51.3,16.3 50.8,15.3 50.3,14.4 49.8,13.4 49.2,12.5 
			48.6,11.6 47.9,10.8 47.2,10 46.4,9.2 45.6,8.4 44.8,7.7 44,7.1 43.1,6.4 42.2,5.8 41.2,5.3 40.3,4.8 39.3,4.4 38.3,4 37.2,3.6 
			36.1,3.3 35.1,3 34,2.8 32.8,2.7 31.7,2.6 30.5,2.6 29.4,2.6 28.2,2.7 27.1,2.8 26,3 24.9,3.3 23.8,3.6 22.8,4 21.7,4.4 20.7,4.8 
			19.8,5.3 18.8,5.8 17.9,6.4 17,7.1 16.2,7.7 15.3,8.4 14.6,9.2 13.8,10 13.1,10.8 12.4,11.6 11.8,12.5 11.2,13.4 10.7,14.4 
			10.2,15.3 9.7,16.3 9.3,17.4 9,18.4 8.7,19.5 8.4,20.5 8.2,21.7 8.1,22.8 8,23.9 8,25.1 8,26.2 8.1,27.4 8.2,28.5 8.4,29.6 
			8.7,30.7 9,31.8 9.3,32.8 9.7,33.9 10.2,34.9 10.7,35.8 11.2,36.8 11.8,37.7 12.4,38.6 13.1,39.4 13.8,40.2 14.6,41 15.3,41.8 
			16.2,42.5 17,43.2 17.9,43.8 18.8,44.4 19.8,44.9 20.7,45.4 21.7,45.9 22.8,46.3 23.8,46.6 24.9,46.9 26,47.2 27.1,47.4 
			28.2,47.5 29.4,47.6 		"/>
	</g>
</g>
<g id="XMLID_751_">
	<g id="XMLID_752_">
		<polygon id="XMLID_517_" class="st0" points="43,11.2 54.9,11.2 54.9,10 44,10 		"/>
	</g>
</g>
<g id="XMLID_749_">
	<g id="XMLID_750_">
		<polygon id="XMLID_518_" class="st0" points="41.2,13.9 54.9,13.9 54.9,12.7 41.9,12.7 		"/>
	</g>
</g>
<g id="XMLID_747_">
	<g id="XMLID_748_">
		<polygon id="XMLID_519_" class="st0" points="39.8,16.7 54.9,16.7 54.9,15.4 40.4,15.4 		"/>
	</g>
</g>
<g id="XMLID_745_">
	<g id="XMLID_746_">
		<polygon id="XMLID_520_" class="st0" points="38.9,19.4 54.9,19.4 54.9,18.2 39.3,18.2 		"/>
	</g>
</g>
<g id="XMLID_743_">
	<g id="XMLID_744_">
		<polygon id="XMLID_521_" class="st0" points="39.4,32.5 55,32.5 55,31.3 39.1,31.3 		"/>
	</g>
</g>
<g id="XMLID_741_">
	<g id="XMLID_742_">
		<polygon id="XMLID_522_" class="st0" points="40.6,35.2 55,35.2 55,34 40,34 		"/>
	</g>
</g>
<g id="XMLID_739_">
	<g id="XMLID_740_">
		<polygon id="XMLID_523_" class="st0" points="42.2,38 55,38 55,36.7 41.4,36.7 		"/>
	</g>
</g>
<g id="XMLID_737_">
	<g id="XMLID_738_">
		<polygon id="XMLID_528_" class="st0" points="44.4,40.7 55,40.7 55,39.5 43.3,39.5 		"/>
	</g>
</g>
<g id="XMLID_735_">
	<g id="XMLID_736_">
		<polygon id="XMLID_529_" class="st0" points="38.4,22.1 54.9,22.1 54.9,20.9 38.6,20.9 		"/>
	</g>
</g>
<g id="XMLID_733_">
	<g id="XMLID_734_">
		<polygon id="XMLID_530_" class="st0" points="48.5,29.8 54.8,29.8 54.8,28.6 48.7,28.6 		"/>
	</g>
</g>
<g id="XMLID_731_">
	<g id="XMLID_732_">
		<polygon id="XMLID_531_" class="st0" points="49,27.1 54.8,27.1 54.8,25.9 49.2,25.9 		"/>
	</g>
</g>
<g id="XMLID_710_">
	<g id="XMLID_729_">
		<polygon id="XMLID_385_" class="st1" points="31.9,24.8 32,24.7 32.1,24.6 32.2,24.5 32.3,24.5 32.5,24.4 32.8,24.3 33.2,24.3 
			33.4,24.3 33.6,24.3 34,24.3 34.8,24.4 34.9,24.4 35.3,22.6 34.8,22.6 34.7,22.5 33.9,22.5 33.2,22.4 32.5,22.4 32.1,22.5 
			31.7,22.5 31.3,22.6 31,22.7 30.8,22.8 30.5,22.9 30.3,23.1 30.1,23.2 29.9,23.4 29.8,23.6 29.7,23.9 29.6,24.1 29.5,24.4 
			29.4,24.7 29.4,25 29.4,25.5 29.5,25.9 29.6,26.2 29.8,26.5 30.1,26.8 30.3,27 30.6,27.1 30.9,27.3 31.2,27.4 31.5,27.5 
			31.8,27.6 32,27.7 32.2,27.8 32.3,28 32.4,28.1 32.4,28.4 32.3,28.6 32.2,28.7 32.2,28.8 32.1,28.9 31.9,29 31.8,29 31.6,29.1 
			31.3,29.1 31.1,29.1 30.7,29.1 30.3,29 29.7,28.9 29.1,28.8 29,28.8 28.8,28.7 28.5,30.5 28.9,30.6 29,30.7 29.1,30.7 29.3,30.7 
			29.4,30.8 29.8,30.8 30.1,30.8 30.6,30.8 30.9,30.8 31.2,30.9 31.5,30.9 31.8,30.8 32,30.8 32.3,30.8 32.5,30.8 32.8,30.7 
			33.1,30.6 33.3,30.5 33.6,30.4 33.8,30.3 34,30.1 34.2,29.9 34.4,29.7 34.5,29.4 34.7,29.1 34.8,28.8 34.8,28.4 34.8,28 
			34.8,27.5 34.7,27.2 34.6,26.9 34.4,26.7 34.3,26.5 34,26.3 33.8,26.2 33.6,26.1 33.3,26 33.1,25.9 32.8,25.8 32.6,25.7 
			32.4,25.6 32.2,25.5 32.1,25.4 32,25.3 31.9,25.2 31.9,25.1 31.9,25 31.9,24.9 		"/>
	</g>
	<g id="XMLID_728_">
		<polygon id="XMLID_532_" class="st1" points="38.7,29.1 38.6,29.1 38.4,29.1 38.3,29.1 38.1,29.1 37.9,29.1 37.8,29 37.6,29 
			37.6,28.9 37.5,28.8 37.4,28.7 37.5,28.6 38.2,24.4 39.5,24.4 39.8,22.6 38.5,22.6 38.8,20.7 36.7,20.7 35.2,29.1 35.1,29.4 
			35.1,29.6 35.2,29.8 35.2,29.9 35.2,30.1 35.3,30.2 35.4,30.3 35.5,30.4 35.6,30.5 35.7,30.6 35.9,30.7 36.1,30.7 36.4,30.8 
			36.6,30.8 37,30.8 37.5,30.8 37.9,30.8 38.3,30.7 38.5,30.6 38.6,30.6 38.8,30.5 38.8,30.4 39.1,28.9 39,29 		"/>
	</g>
	<g id="XMLID_725_">
		<path id="XMLID_533_" class="st1" d="M45.2,28.9L45,29h-0.2h-0.2h-0.2h-0.2H44h-0.2h-0.2h-0.2H43h-0.2h-0.1l-0.1-0.1l-0.1-0.1
			l-0.1-0.1l-0.1-0.1l-0.2-0.2L42,28.3l-0.1-0.1l-0.1-0.1L41.7,28l-0.1-0.1v-0.1v-0.1v-0.1v-0.1h4.9V27l0.1-0.6l0.1-0.6v-0.5
			l-0.1-0.5l-0.1-0.4L46.3,24l-0.2-0.3l-0.2-0.3l-0.3-0.2L45.3,23L45,22.9l-0.3-0.1l-0.3-0.1l-0.3-0.1h-0.3h-0.3h-0.6l-0.6,0.1
			l-0.5,0.1L41.4,23L41,23.2l-0.3,0.3l-0.3,0.3l-0.2,0.3L40,24.4l-0.2,0.3L39.7,25l-0.1,0.3l-0.1,0.3l-0.1,0.3v0.3v0.2V27v0.6
			l0.1,0.5l0.1,0.5l0.2,0.4l0.2,0.4l0.3,0.3l0.3,0.3l0.3,0.2l0.3,0.2l0.4,0.1l0.4,0.1l0.4,0.1l0.4,0.1h0.4h0.4h0.3h0.2h0.2h0.2H45
			h0.3h0.1h0.1l0.4-0.1l0.3-0.1l0.3-2L46,28.9L45.2,28.9z M43.1,24.2L43.1,24.2h0.2h0.1h0.1h0.1l0.1,0.1l0.1,0.1l0.1,0.1l0.1,0.1
			l0.1,0.2l0.1,0.3v0.1v0.2v0.2v0.2h-2.7v-0.2v-0.2l0.1-0.1l0.1-0.3l0.1-0.1l0.1-0.1l0.1-0.1l0.1-0.1l0.1-0.1l0.1-0.1l0.1-0.1h0.1
			h0.1L43.1,24.2z"/>
	</g>
	<g id="XMLID_724_">
		<polygon id="XMLID_534_" class="st1" points="58.5,28.3 58.3,28.4 58.2,28.5 58,28.6 57.8,28.6 57.6,28.7 57.4,28.7 57.2,28.7 
			57,28.8 56.7,28.8 56.2,28.7 55.7,28.6 55.5,28.5 55.2,28.4 55,28.3 54.9,28.1 54.7,27.9 54.6,27.7 54.5,27.5 54.4,27.3 
			54.3,27.1 54.3,26.8 54.2,26.6 54.2,26.3 54.2,26.1 54.3,25.8 54.3,25.5 54.4,25.1 54.6,24.6 54.7,24.3 54.9,23.9 55.1,23.6 
			55.3,23.4 55.5,23.2 55.7,23 55.9,22.9 56.1,22.8 56.3,22.7 56.5,22.7 56.7,22.6 56.9,22.6 57.1,22.6 57.7,22.6 58,22.6 
			58.2,22.6 58.5,22.7 58.6,22.7 59,22.9 59.1,22.9 59.4,23.1 59.6,23.2 60,21 59.5,20.8 59.2,20.7 58.9,20.6 58.7,20.6 58.5,20.5 
			58,20.5 57.8,20.4 57.5,20.4 57.3,20.4 57,20.4 56.7,20.4 56.5,20.5 56.2,20.5 55.9,20.5 55.7,20.6 55.5,20.7 55.2,20.7 55,20.8 
			54.8,20.9 54.6,21 54.4,21.1 54.2,21.3 54,21.4 53.8,21.5 53.6,21.7 53.5,21.8 53.3,22 53.2,22.2 52.9,22.6 52.8,22.8 52.6,23 
			52.5,23.3 52.4,23.5 52.3,23.7 52.2,24 52.1,24.3 52,24.9 51.9,25.2 51.9,25.5 51.8,26.1 51.8,26.7 51.8,27.3 51.9,27.8 52,28.2 
			52.2,28.7 52.4,29.1 52.7,29.4 53,29.7 53.3,30 53.6,30.2 53.9,30.4 54.3,30.5 54.6,30.7 55,30.7 55.3,30.8 55.8,30.8 56.2,30.8 
			56.5,30.8 56.8,30.8 57.3,30.7 57.5,30.7 57.8,30.6 57.9,30.5 58.1,30.5 58.2,30.4 58.4,30.2 58.7,28.2 58.6,28.1 		"/>
	</g>
	<g id="XMLID_721_">
		<path id="XMLID_535_" class="st1" d="M77.9,20.8l-0.5,2.9l-0.1-0.2l-0.1-0.1l-0.1-0.1L77,23.2l-0.1-0.1L76.8,23l-0.1-0.1l-0.2-0.1
			l-0.2-0.1l-0.2-0.1l-0.2-0.1h-0.2h-0.2h-0.2H75h-0.3l-0.3,0.1l-0.3,0.1l-0.3,0.1L73.5,23l-0.3,0.2l-0.3,0.2l-0.3,0.3L72.4,24
			l-0.2,0.3L72,24.6L71.8,25l-0.2,0.4l-0.1,0.4l-0.1,0.5l-0.1,0.4v0.4v0.4v0.4l0.1,0.4l0.1,0.4l0.1,0.4l0.2,0.3l0.2,0.3l0.2,0.3
			l0.2,0.3l0.3,0.2l0.3,0.2l0.3,0.1l0.4,0.1h0.4h0.2h0.2h0.1h0.3l0.3-0.1l0.1-0.1l0.3-0.1l0.1-0.1l0.1-0.1l0.1-0.1l0.1-0.1l0.1-0.1
			l0,0L76,30.9h2.2l1.7-10v-0.1L77.9,20.8L77.9,20.8z M75.2,24.6l0.2-0.1h0.2h0.2H76h0.1l0.1,0.1l0.1,0.1l0.1,0.1l0.1,0.1l0.1,0.1
			l0.1,0.1l0.1,0.2l0.1,0.2v0.2v0.2v0.2v0.2v0.2v0.2v0.2l-0.1,0.2l-0.1,0.2l-0.1,0.2l-0.1,0.2l-0.1,0.2l-0.1,0.2l-0.1,0.1l-0.1,0.1
			L76,28.4l-0.2,0.1l-0.2,0.1l-0.2,0.1l-0.2,0.1H75h-0.2l-0.3-0.1l-0.2-0.2l-0.2-0.2L73.9,28l-0.1-0.4l-0.1-0.4v-0.4v-0.3v-0.2
			l0.1-0.2l0.1-0.2l0.1-0.2l0.1-0.2l0.1-0.2l0.1-0.2l0.1-0.2l0.1-0.1l0.1-0.1l0.1-0.1l0.2-0.1L75.2,24.6z"/>
	</g>
	<g id="XMLID_718_">
		<path id="XMLID_536_" class="st1" d="M29,24.8v-0.3v-0.3L28.9,24l-0.1-0.2l-0.2-0.2l-0.2-0.2l-0.2-0.2L28,23.1L27.8,23l-0.2-0.1
			l-0.2-0.1l-0.2-0.1L27,22.6h-0.2h-0.2h-0.5h-0.7h-0.5h-0.4l-0.4,0.1l-0.4,0.1l-0.2,0.1L23.3,23l-0.2,0.1l-0.6,2l0.3-0.1h0.1h0.2
			h0.2l0.4-0.1l0.5-0.1h0.5h0.2h0.2h0.2h0.4h0.2h0.2l0.2,0.1l0.1,0.1l0.1,0.1l0.1,0.1l0.1,0.1v0.2v0.1v0.2v0.1l0,0h-0.3h-0.2h-0.4
			h-0.2h-0.4h-0.1H25L24.5,26h-0.1h-0.1h-0.1l-0.4,0.1l-0.3,0.1l-0.3,0.1L23,26.4l-0.2,0.1l-0.2,0.1l-0.2,0.2L22.2,27L22,27.2
			l-0.2,0.2l-0.1,0.2l-0.1,0.2l-0.1,0.3l-0.1,0.3v0.3V29v0.2v0.2v0.2v0.2V30l0.1,0.2l0.1,0.2l0.1,0.2l0.1,0.2l0.1,0.1l0.2,0.1
			l0.2,0.1l0.2,0.1l0.2,0.1l0.2,0.1l0.3,0.1h0.2h0.2h0.2H24h0.2h0.2l0.2-0.1l0.2-0.1l0.2-0.1l0.4-0.2l0.2-0.1l0.2-0.1l0.1-0.1
			l0.1-0.1L25.9,31l-0.1,0.4h2l0.3-1.7l0.8-4L29,24.8z M23.7,28.8l-0.1-0.2v-0.2v-0.3V28v-0.1l0.1-0.1l0.1-0.1l0.1-0.1l0.1-0.1
			l0.1-0.1l0.1-0.1l0.1-0.1l0.1-0.1l0.1-0.1h0.1h0.1h0.1h0.1H25h0.1h0.1h0.1h0.1h0.1h0.1h0.1h0.1H26h0.1h0.1h0.1l0,0l0,0l0,0v0.2
			v0.2l-0.1,0.2l-0.1,0.2v0.1V28v0.1L26,28.2l-0.1,0.1l-0.1,0.1l-0.1,0.1l-0.1,0.1l-0.1,0.1l-0.1,0.1l-0.1,0.1L25.1,29h-0.2h-0.2
			h-0.2h-0.2h-0.1h-0.1H24l-0.1-0.1L23.7,28.8z"/>
	</g>
	<g id="XMLID_717_">
		<polygon id="XMLID_537_" class="st1" points="22,20.7 18.2,20.7 15.8,26.5 15.5,20.7 11.8,20.7 10,30.8 12.2,30.8 13.5,23.4 
			13.5,23.4 13.5,23.7 13.9,29.6 13.9,30.5 13.9,30.8 16.3,30.8 19.4,23.4 19.4,23.4 18.1,30.8 18.1,30.8 20.3,30.8 22,20.8 		"/>
	</g>
	<g id="XMLID_713_">
		<path id="XMLID_538_" class="st1" d="M66.8,24.8v-0.3l-0.1-0.3l-0.1-0.3l-0.1-0.2l-0.2-0.2l-0.2-0.2l-0.2-0.2L65.7,23l-0.2-0.1
			l-0.2-0.1l-0.2-0.1l-0.3-0.1l-0.2-0.1h-0.2h-0.2h-0.3h-0.3h-0.2h-0.2H63h-0.2h-0.2h-0.2h-0.2H62h-0.2h-0.2h-0.2l-0.2,0.1L61,22.7
			l-0.2,0.1l0,0l0,0l-0.5,1.8h0.1h0.1l0.1-0.1h0.1h0.2h0.2h0.2h0.2h0.2h0.2h0.2h0.2h0.3h0.2H63h0.2h0.2l0,0h0.2h0.2l0.2,0.1l0.1,0.1
			l0.1,0.1l0.1,0.1l0.1,0.1v0.2l0,0v0.1v0.2v0.1l0,0h-0.1h-0.1h-0.1h-0.2h-0.2h-0.2h-0.2h-0.1h-0.1H63h-0.1h-0.1h-0.1h-0.1h-0.1
			h-0.1h-0.1h-0.1h-0.1H62h-0.1l0,0l0,0h-0.3l-0.3,0.1L61,25.8l-0.2,0.1L60.6,26l-0.2,0.2l-0.2,0.2L60,26.6l-0.2,0.2L59.6,27
			l-0.2,0.2l-0.1,0.3l-0.1,0.3l-0.1,0.3v0.3v0.3v0.2v0.2v0.2v0.2v0.2l0.1,0.2l0.1,0.2l0.1,0.2l0.1,0.2l0.1,0.1l0.2,0.1l0.2,0.1
			l0.2,0.1l0.2,0.1l0.3,0.1l0.3,0.1h0.2h0.2h0.2h0.2H62h0.2l0.2-0.1l0.2-0.1l0.2-0.1l0.2-0.1l0.2-0.1l0.2-0.1l0.2-0.1l0.1-0.1
			l0.1-0.1v0.1v0.3V31v0.1h0.1h1.9l0,0l0,0l0.3-1.7l0.8-4L66.8,24.8z M61.7,29L61.7,29l-0.2-0.2l-0.1-0.2v-0.2v-0.3V28v-0.1l0.1-0.1
			l0.1-0.1l0.1-0.1l0.1-0.1l0.1-0.1l0.1-0.1l0.1-0.1l0.1-0.1h0.1h0.1h0.1h0.1h0.1h0.1h0.1H63h0.1h0.1h0.1h0.1h0.1h0.1h0.1h0.1h0.1
			H64h0.1h0.1l0,0l0,0v0.2v0.2v0.2v0.2V28v0.1v0.1l-0.1,0.1L64,28.4l-0.1,0.1l-0.1,0.1l-0.1,0.1l-0.1,0.1l-0.1,0.1L63.4,29l-0.2,0.1
			L63,29.2h-0.2h-0.2h-0.2h-0.1h-0.1L61.7,29z M63.7,29.9L63.7,29.9L63.7,29.9L63.7,29.9L63.7,29.9z"/>
	</g>
	<g id="XMLID_712_">
		<polygon id="XMLID_539_" class="st1" points="71.6,24.5 71.8,24.5 72.2,22.6 72.2,22.5 71.9,22.5 71.7,22.5 71.5,22.6 71.3,22.6 
			71.2,22.7 71,22.8 70.9,22.9 70.7,23 70.4,23.2 70.2,23.4 69.8,23.8 70.1,22.6 67.8,22.6 66.4,30.8 66.4,30.8 68.6,30.8 
			69.4,26.3 69.5,26 69.6,25.8 69.7,25.6 69.7,25.5 69.8,25.3 70,25.2 70.1,25.1 70.2,24.9 70.4,24.8 70.6,24.7 70.8,24.7 
			71.1,24.6 71.3,24.6 		"/>
	</g>
	<g id="XMLID_711_">
		<polygon id="XMLID_540_" class="st1" points="51.9,23.4 52,23.3 52.2,23 52.3,22.7 52.5,22.5 52.4,22.5 52.2,22.5 52.2,22.5 
			52.1,22.5 51.8,22.5 51.6,22.5 51.4,22.6 51.2,22.6 51,22.7 50.8,22.8 50.7,22.8 50.5,22.9 50.4,23 50.2,23.3 49.9,23.5 
			49.7,23.8 50,22.6 50,22.6 47.7,22.6 46.3,30.8 46.3,30.8 48.5,30.8 49.3,26.5 49.3,26.3 49.4,26 49.4,25.8 49.5,25.7 49.6,25.5 
			49.6,25.4 49.8,25.3 49.9,25.2 50,25.1 50.2,25 50.3,24.9 50.6,24.8 50.8,24.8 51,24.7 51.3,24.7 51.3,24.7 51.4,24.7 51.5,24.7 
			51.5,24.7 51.6,24.7 51.8,23.9 		"/>
	</g>
</g>
<g id="XMLID_645_">
	<g id="XMLID_657_">
		<g id="XMLID_658_">
			<g id="XMLID_675_">
				<path id="XMLID_543_" class="st0" d="M283.2,64h-13.5c-0.4,0-0.7-0.3-0.7-0.7V60l4.2-4.2c0.3-0.3,0.3-0.7,0-1l-4.2-5.3V43
					c0-0.4,0.3-0.7,0.7-0.7h13.5l0,0c0.4,0,0.7,0.3,0.7,0.7v20.3C283.9,63.6,283.6,64,283.2,64z"/>
			</g>
			<g id="XMLID_674_">
				<path id="XMLID_544_" class="st0" d="M256.6,30.6h-13.5c-0.4,0-0.7-0.3-0.7-0.7V9.6c0-0.4,0.3-0.7,0.7-0.7h13.5
					c0.4,0,0.7,0.3,0.7,0.7v12.7l-4.2-4.2l4.2,5.3v6.5C257.3,30.3,257,30.6,256.6,30.6z"/>
			</g>
			<g id="XMLID_673_">
				<path id="XMLID_545_" class="st0" d="M235.6,56.5V43c0-0.4,0.3-0.7,0.7-0.7h3.3l4.2,4.2c0.3,0.3,0.7,0.3,1,0l5.3-4.2h6.5
					c0.4,0,0.7,0.3,0.7,0.7v13.5l0,0c0,0.4-0.3,0.7-0.7,0.7h-20.3C235.9,57.2,235.6,56.9,235.6,56.5z"/>
			</g>
			<g id="XMLID_672_">
				<path id="XMLID_546_" class="st0" d="M269,29.9V16.4l0,0l0,0c0-0.4,0.3-0.7,0.7-0.7H290c0.4,0,0.7,0.3,0.7,0.7v13.5
					c0,0.4-0.3,0.7-0.7,0.7h-3.3l-4.2-4.2c-0.3-0.3-0.7-0.3-1,0l-5.3,4.2h-6.5C269.3,30.6,269,30.3,269,29.9z"/>
			</g>
			<g id="XMLID_671_">
				<path id="XMLID_547_" class="st0" d="M257.8,70.1l-9.5-9.5c-0.3-0.3-0.3-0.7,0-1l2.4-2.4h5.9c0.4,0,0.7-0.3,0.7-0.7l0.8-6.7
					l4.6-4.6c0.3-0.3,0.7-0.3,1,0l9.5,9.5c0.3,0.3,0.3,0.7,0,1L258.9,70C258.6,70.3,258.1,70.3,257.8,70.1z"/>
			</g>
			<g id="XMLID_670_">
				<path id="XMLID_548_" class="st0" d="M262.6,27.7l-9.5-9.5c-0.3-0.3-0.3-0.7,0-1l14.3-14.3c0.3-0.3,0.7-0.3,1,0l9.5,9.5
					c0.3,0.3,0.3,0.7,0,1l-2.4,2.4h-5.9c-0.4,0-0.7,0.3-0.7,0.7l-0.8,6.7l-4.6,4.6C263.4,28,262.9,28,262.6,27.7z"/>
			</g>
			<g id="XMLID_669_">
				<path id="XMLID_549_" class="st0" d="M229.5,31.1l9.5-9.5c0.3-0.3,0.7-0.3,1,0l2.4,2.4v5.9c0,0.4,0.3,0.7,0.7,0.7l6.7,0.8l0,0
					l4.6,4.6c0.3,0.3,0.3,0.7,0,1l-9.5,9.5c0,0.2-0.7,0.3-1,0l-14.3-14.3C229.2,31.9,229.2,31.4,229.5,31.1z"/>
			</g>
			<g id="XMLID_668_">
				<path id="XMLID_550_" class="st0" d="M271.9,35.9l5.3-5.3l0,0l4.2-4.2l0,0l0,0c0.3-0.3,0.7-0.3,1,0l14.3,14.3
					c0.3,0.3,0.3,0.7,0,1l-9.5,9.5c-0.3,0.3-0.7,0.3-1,0l-2.4-2.4v-5.9c0-0.4-0.3-0.7-0.7-0.7l-6.7-0.8l-4.6-4.6
					C271.6,36.7,271.6,36.2,271.9,35.9z"/>
			</g>
			<g id="XMLID_659_">
				<path id="XMLID_551_" class="st0" d="M257.3,9.6l-4.2,7.5l4.2-4.2V9.6L257.3,9.6z M278,13.4l-8.3,2.4h5.9L278,13.4L278,13.4z
					 M240.1,21.6l2.4,8.3V24L240.1,21.6L240.1,21.6z M236.3,42.3l7.5,4.2l-4.2-4.2H236.3L236.3,42.3z M248.3,59.5l8.3-2.4h-5.9
					L248.3,59.5L248.3,59.5z M269,63.3l4.2-7.5L269,60V63.3L269,63.3z M286.2,51.3l-2.4-8.3v5.9L286.2,51.3L286.2,51.3z M290,30.6
					l-7.5-4.2l4.2,4.2H290z"/>
			</g>
		</g>
	</g>
	<g id="XMLID_646_">
		<path id="XMLID_541_" class="st0" d="M232.5,82.8c0,1-0.8,1.7-1.7,1.7h-2.6v-3.4h2.6C231.7,81.1,232.5,81.8,232.5,82.8L232.5,82.8
			z M297.3,76.6v10c0,0.2-0.2,0.3-0.3,0.3h-2.1c-0.2,0-0.3-0.1-0.3-0.3v-10h-3.3c-0.2,0-0.3-0.2-0.3-0.3v-1.7c0-0.2,0.1-0.3,0.3-0.3
			c3.1,0,6.2,0,9.4,0c0.2,0,0.3,0.2,0.3,0.3v1.7c0,0.2-0.1,0.3-0.3,0.3H297.3L297.3,76.6z M244.9,86.5v-1.7c0-0.1-0.1-0.3-0.3-0.3
			h-4.9c-0.3,0-0.9-0.2-0.9-1v-2.4h5.2c0.2,0,0.3-0.2,0.3-0.3v-1.7c0-0.2-0.1-0.3-0.3-0.3h-5.2v-1.3c0-0.6,0.5-0.9,0.9-0.9h4.9
			c0.2,0,0.3-0.2,0.3-0.3v-1.8c0-0.2-0.1-0.3-0.3-0.3h-5.1c-1.9,0-3.4,1.6-3.4,3.4v6c0,1.8,1.6,3.3,3.3,3.3h5.2
			C244.8,86.9,244.9,86.8,244.9,86.5L244.9,86.5L244.9,86.5z M265.6,80.2L265.6,80.2c0.4-0.3,0.7-0.6,1-1s0.4-0.8,0.6-1.3l0.8-3.2
			c0-0.1-0.1-0.4-0.3-0.4h-2c-0.1,0-0.1,0-0.2,0c-0.1,0-0.1,0.1-0.2,0.2l-0.8,3c-0.1,0.4-0.2,0.7-0.4,0.9s-0.3,0.4-0.5,0.5
			s-0.4,0.2-0.6,0.2c-0.2,0-0.4,0-0.6,0H261v-4.6c0-0.2-0.2-0.3-0.3-0.3h-2.1c-0.2,0-0.3,0.1-0.3,0.3v12.1c0,0.2,0.2,0.3,0.3,0.3
			h2.1c0.2,0,0.3-0.1,0.3-0.3v-5.4h1.5c0.4,0,0.8,0,1.1,0.1s0.5,0.2,0.7,0.5c0.2,0.2,0.3,0.5,0.5,0.9l1.1,3.9
			c0.1,0.2,0.2,0.2,0.3,0.2h2.1c0.3,0,0.3-0.2,0.3-0.4l-1.1-4.2c-0.1-0.3-0.1-0.5-0.2-0.7c-0.1-0.2-0.2-0.4-0.3-0.6
			c-0.1-0.2-0.3-0.3-0.5-0.5C266.2,80.4,266,80.3,265.6,80.2L265.6,80.2z M273.2,82l0.7-2.3l0.7-2.6h0.1l0.7,2.6l0.7,2.3H273.2
			L273.2,82z M276.7,84.3l0.7,2.3c0.1,0.2,0.2,0.3,0.3,0.3h2.3c0.2,0,0.4-0.2,0.3-0.4l-3.7-11.3c-0.2-0.5-0.4-1-1.1-1h-1.6
			c-0.3,0-0.6,0.1-0.8,0.4c-0.1,0.1-0.2,0.3-0.3,0.6l-3.7,11.2c-0.1,0.3,0.1,0.4,0.3,0.4h2.2c0.1,0,0.2,0,0.3-0.2c0,0,0-0.1,0.1-0.2
			l0.7-2.3h4V84.3z M287.9,78.3c0,0.9-0.7,1.7-1.7,1.7h-2.5v-3.3h2.3C287.2,76.6,287.9,77.4,287.9,78.3L287.9,78.3z M283.8,86.5
			v-4.2h3c2.1,0,4-1.7,4-4.1c0-0.6-0.1-1.1-0.4-1.6c-0.5-1.1-1.4-1.9-2.5-2.2c-0.4-0.1-0.9-0.2-1.4-0.2h-4.6c-0.5,0-0.9,0.3-0.9,0.9
			c0,0.1,0,0.2,0,0.2v11.2c0,0.2,0.1,0.3,0.3,0.3h2.1c0.1,0,0.2-0.1,0.3-0.2C283.8,86.7,283.8,86.6,283.8,86.5L283.8,86.5z
			 M226.3,86.9h4.7c2.3,0.1,4.3-1.5,4.3-4c0-0.2,0-0.5,0-0.7c-0.4-2-2-3.3-4-3.3h-3.2v-2.3h5.4c0.2,0,0.3-0.1,0.3-0.3v-1.6
			c0-0.2-0.1-0.4-0.3-0.4h-7.2c-0.7,0-1,0.5-1,0.9v10.9C225.4,86.5,225.8,86.9,226.3,86.9L226.3,86.9z M247.9,75.5l-0.2,2.7
			c-0.1,0.9-0.1,1.7-0.2,2.4c-0.1,1.1-0.2,3.9-1.7,3.9c0,0,0,0-0.1,0s-0.3,0.1-0.3,0.3v1.7v0.1c0,0.2,0.1,0.3,0.3,0.3h0.1
			c1.1,0,2.1-0.1,2.9-1.4c0.3-0.4,0.5-0.8,0.7-1.4c0.2-0.5,0.3-1.1,0.4-1.7c0.1-0.6,0.2-1.3,0.2-2.1c0.1-0.8,0.1-1.6,0.2-2.5
			l0.1-1.3h3.5v10c0,0.2,0.1,0.3,0.3,0.3h2.1c0.2,0,0.3-0.1,0.3-0.3V75.1c0-0.5-0.4-0.9-1-0.9h-6.9c-0.5,0-0.8,0.5-0.9,0.9
			C247.9,75.2,247.9,75.3,247.9,75.5z"/>
	</g>
</g>
<g id="XMLID_898_">
	<path id="XMLID_843_" class="st0" d="M350.7,54.3h-22.5l1.9-10.4h18.7C349,47.5,349.6,51,350.7,54.3z"/>
</g>
<g id="XMLID_894_">
	<path id="XMLID_258_" class="st0" d="M338.9,60.9c-2,0-4,1.4-5.1,2.5c-0.6,0.6-1,1-1,1l0.6-3.2h-6.2l-5.4,28.9h7.1l1.7-9.1
		c3.8,3.7,13.8,0.7,15.3-8.9C347.3,61.8,341.5,60.9,338.9,60.9z M338,73.1c-1,2.8-3,4.7-4.6,4.1c-1.5-0.5-1.9-3.3-0.9-6.1
		s3.1-4.7,4.6-4.1S339,70.3,338,73.1z"/>
</g>
<g id="XMLID_893_">
	<path id="XMLID_834_" class="st0" d="M451.2,43.9l-1.9,10.4H417c1.1-3.3,1.8-6.8,1.9-10.4H451.2z"/>
</g>
<g id="XMLID_892_">
	<path id="XMLID_835_" class="st0" d="M420.9,43.9c-0.2,3.6-0.8,7.1-1.9,10.4h-4.1c1.2-3.3,2-6.8,2.2-10.4c0-0.6,0-1.2,0-1.8
		c0-19.1-15.6-34.7-34.7-34.7c-19.1,0-34.7,15.6-34.7,34.7c0,0.6,0,1.2,0,1.8c0.2,3.6,0.9,7.1,2.2,10.4h-4.1
		c-1.1-3.3-1.8-6.8-1.9-10.4h0.5l0,0c0-0.6,0-1.2,0-1.8c0-21,17.1-38.1,38.1-38.1s38.1,17.1,38.1,38.1c0,0.6,0,1.2-0.1,1.8l0,0
		H420.9z"/>
</g>
<g id="XMLID_891_">
	<path id="XMLID_824_" class="st1" d="M346.3,54.3h-1.1c-1.1-3.4-1.7-6.9-1.9-10.4l0,0h1c0.2,3.5,0.8,6.9,1.9,10.2L346.3,54.3z"/>
	<path id="XMLID_825_" class="st1" d="M421.4,43.9L421.4,43.9c-0.2,3.6-0.8,7-1.9,10.4h-1.1l0.1-0.2c1.1-3.3,1.7-6.7,1.9-10.2H421.4
		z"/>
</g>
<g id="XMLID_890_">
	<path id="XMLID_265_" class="st3" d="M417,42.1c0,0.6,0,1.2,0,1.8c-0.2,3.6-0.9,7.1-2.2,10.4h-5.6c1.5-3.2,2.4-6.7,2.6-10.4
		c0-0.6,0.1-1.2,0.1-1.8c0-15.4-11.8-28.1-26.9-29.4c-0.9-0.1-1.7-0.1-2.6-0.1c-16.3,0-29.5,13.2-29.5,29.5c0,0.6,0,1.2,0.1,1.8
		c0.2,3.7,1.1,7.2,2.6,10.4H350c-1.2-3.3-2-6.8-2.2-10.4c0-0.6,0-1.2,0-1.8c0-19.1,15.6-34.7,34.7-34.7C401.5,7.5,417,23,417,42.1z"
		/>
</g>
<g id="XMLID_889_">
	<path id="XMLID_266_" class="st0" d="M411.8,42.1c0,0.6,0,1.2-0.1,1.8c-0.2,3.7-1.1,7.2-2.6,10.4h-30.2l1.5-10.4l4.4-31.2
		C400,14.1,411.8,26.8,411.8,42.1z"/>
</g>
<g id="XMLID_888_">
	<path id="XMLID_267_" class="st1" d="M385,12.8L380.6,44l-1.5,10.4h-23.6c-1.5-3.2-2.4-6.7-2.6-10.4c0-0.6-0.1-1.2-0.1-1.8
		c0-16.3,13.2-29.5,29.5-29.5C383.2,12.6,384.1,12.7,385,12.8z"/>
</g>
<g id="XMLID_887_">
	<path id="XMLID_268_" class="st3" d="M378.6,26.4L378.6,26.4c-1.2,0.2-2.3,0.5-2.3,0.5s-0.1,0-0.3,0.1s-0.6,0.1-1,0.3l-1-5.6
		c0.3-0.1,0.5-0.1,0.7-0.2c0,0,1.6-0.4,3.5-0.6L378.6,26.4z"/>
</g>
<g id="XMLID_886_">
	<path id="XMLID_269_" class="st3" d="M372.4,28.1c-0.1,0-0.1,0.1-0.2,0.1c-0.5,0.2-1,0.4-1.6,0.7c-0.4,0.2-0.9,0.4-1.3,0.7l0,0
		l-2.5-4.9c0.5-0.3,1-0.6,1.4-0.8c0.8-0.4,1.5-0.8,2.2-1.1L372.4,28.1z"/>
</g>
<g id="XMLID_885_">
	<path id="XMLID_270_" class="st3" d="M367.1,31L367.1,31c-0.2,0.2-0.5,0.4-0.7,0.6c-0.5,0.4-1,0.8-1.5,1.3l0,0l-3.3-3.3
		c0.5-0.7,1.1-1.3,1.6-1.9c0.2-0.2,0.4-0.4,0.7-0.6L367.1,31z"/>
</g>
<g id="XMLID_884_">
	<path id="XMLID_271_" class="st3" d="M363,35l-0.1,0.1c-0.4,0.5-0.7,1.1-1.1,1.6h-0.1l-3.1-1.8c0-0.1,0.1-0.2,0.1-0.3
		c0.3-0.7,0.5-1.3,0.8-1.9L363,35z"/>
</g>
<g id="XMLID_883_">
	<path id="XMLID_272_" class="st3" d="M360.4,40.1c-0.1,0.2-0.1,0.4-0.1,0.5c-0.1,0.3-0.2,0.7-0.2,1.1l0,0l-2.7-0.5
		c0.1-0.6,0.1-1.2,0.2-1.8L360.4,40.1z"/>
</g>
<g id="XMLID_882_">
	<path id="XMLID_273_" class="st1" d="M392.6,16l-2.1,7.2c-2-0.8-3.6-1.3-4.5-1.5l1.1-7.6c0.1,0,0.2,0,0.2,0h0.1
		c1.1,0.3,2.9,0.8,5,1.7C392.6,15.9,392.6,15.9,392.6,16z"/>
</g>
<g id="XMLID_881_">
	<path id="XMLID_275_" class="st1" d="M400.3,20.5l-3.4,6.1c-1.4-0.9-2.7-1.7-4.1-2.3l0,0l2.9-6.8c0.1,0,0.1,0.1,0.2,0.1
		C397.4,18.4,398.9,19.3,400.3,20.5z"/>
</g>
<g id="XMLID_880_">
	<path id="XMLID_276_" class="st1" d="M405.4,25.8l-4.1,4.5c-0.9-1-1.9-1.8-2.8-2.6l4.3-5.1c0.9,0.9,1.7,1.9,2.5,3
		C405.3,25.7,405.4,25.8,405.4,25.8z"/>
</g>
<g id="XMLID_879_">
	<path id="XMLID_277_" class="st1" d="M408.6,31.8l-3.8,3.3c-0.5-1-1.1-1.9-1.7-2.7l4.1-3.7l0,0c0,0.1,0.1,0.1,0.1,0.2
		C407.8,29.8,408.2,30.8,408.6,31.8z"/>
</g>
<g id="XMLID_878_">
	<path id="XMLID_278_" class="st1" d="M410.1,37.7l-3.5,2.2c0-0.1,0-0.1,0-0.2c-0.2-0.8-0.5-1.6-0.8-2.4l3.7-2.5
		c0.2,0.7,0.4,1.5,0.5,2.3C410.1,37.3,410.1,37.5,410.1,37.7z"/>
</g>
<g id="XMLID_877_">
	<path id="XMLID_279_" class="st1" d="M410.6,43.3l-3.4,0.5c0-0.6-0.1-1.3-0.2-1.9v-0.1c0.1,0,3.5-1.3,3.5-1.3
		c0.1,0.8,0.1,1.6,0.1,2.5C410.6,43,410.6,43.1,410.6,43.3z"/>
</g>
<g id="XMLID_876_">
	<path id="XMLID_283_" class="st1" d="M387.2,31.5l-1.1,3.9c-1.1-0.4-1.9-0.7-2.4-0.8l0.6-4.1c0.1,0,0.1,0,0.1,0s0,0,0.1,0
		C385,30.7,386,31,387.2,31.5C387.1,31.5,387.2,31.5,387.2,31.5z"/>
</g>
<g id="XMLID_875_">
	<path id="XMLID_285_" class="st1" d="M391.4,33.9l-1.9,3.3c-0.7-0.5-1.5-0.9-2.2-1.3l0,0l1.6-3.7c0,0,0.1,0,0.1,0.1
		C389.8,32.8,390.6,33.3,391.4,33.9z"/>
</g>
<g id="XMLID_874_">
	<path id="XMLID_291_" class="st1" d="M394.1,36.8l-2.2,2.4c-0.5-0.5-1-1-1.5-1.4l2.3-2.7C393.2,35.6,393.6,36.1,394.1,36.8
		L394.1,36.8z"/>
</g>
<g id="XMLID_873_">
	<path id="XMLID_293_" class="st1" d="M395.8,40l-2.1,1.8c-0.3-0.5-0.6-1-0.9-1.5l2.2-2l0,0v0.1C395.4,39,395.6,39.5,395.8,40z"/>
</g>
<g id="XMLID_872_">
	<path id="XMLID_297_" class="st1" d="M396.6,43.2l-1.9,1.2v-0.1c-0.1-0.5-0.2-0.9-0.4-1.3l2-1.4c0.1,0.4,0.2,0.8,0.3,1.2
		C396.6,43,396.6,43.1,396.6,43.2z"/>
</g>
<g id="XMLID_871_">
	<path id="XMLID_299_" class="st1" d="M396.9,46.2l-1.9,0.3c0-0.4-0.1-0.7-0.1-1l0,0c0.1,0,1.9-0.7,1.9-0.7
		C396.8,45.2,396.9,45.7,396.9,46.2C396.9,46.1,396.9,46.2,396.9,46.2z"/>
</g>
<g id="XMLID_867_">
	<path id="XMLID_304_" class="st0" d="M355.3,61.8c-5.7,2.6-12.6,13.1-4.9,19.8c1.6,1.4,7,1.2,9.5-3.2l-0.1,3.2h6.6
		c0,0,1.2-16,2.8-20C369.2,61.6,360.6,59.4,355.3,61.8z M360.3,72.3c-1,3.1-2.7,5.2-4.9,4.2c-1.3-0.6-1.3-3.5,0.1-6.4s3.1-4,5-4
		C361.7,66,361.3,69.1,360.3,72.3z"/>
</g>
<g id="XMLID_866_">
	<path id="XMLID_371_" class="st0" d="M387.1,61.2l-1.5,5.5c0,0-4.3-0.8-6.5,1.1c-2.2,1.9-5,11.6,4.8,8c0,4.1,0,5.6,0,5.6
		s-1.8,1-5.2,1s-12-2-8.5-13.2C373.6,58,387.1,61.2,387.1,61.2z"/>
</g>
<g id="XMLID_865_">
	<path id="XMLID_372_" class="st0" d="M389.1,61.3h6.5c0,0-1.9,7.7-0.7,8.5c1.6,1,3.8,0.5,4.3,0s1.7-8.3,1.7-8.3h6.8l-3.5,19.9h-6.8
		l1.3-7.3c0,0-1.4,1.2-5.2,1.2C390.1,75.3,385,75,389.1,61.3z"/>
</g>
<g id="XMLID_862_">
	<path id="XMLID_373_" class="st0" d="M428.3,67.8c0.5-7.7-7-7.1-7.6-7.1c-0.9,0-10.7-0.7-11.9,13c-1.1,11.8,16.9,7.1,16.9,7.1v-5
		c0,0-3.4,1.6-6,1.5s-4.6-0.3-4.4-3C415.3,74.3,427.8,75.5,428.3,67.8z M422,67.5c-0.5,2.6-6,1.8-6,1.8
		C416.7,65.3,422.5,65,422,67.5z"/>
</g>
<g id="XMLID_861_">
	<polygon id="XMLID_374_" class="st0" points="447.6,61.5 441.8,61.5 441.8,61.5 435.6,61.5 435.6,61.5 429.8,61.5 429.4,63.7 
		428.9,66.6 434.7,66.6 431.9,81.4 438,81.4 438.1,81.3 440.8,66.6 446.6,66.6 	"/>
</g>
<g id="XMLID_43_">
	<g id="XMLID_44_">
		<polygon id="XMLID_45_" class="st0" points="141.7,55.9 140.3,55.9 138.9,55.8 137.6,55.7 136.3,55.4 135,55.1 133.7,54.7 
			132.5,54.4 131.2,53.9 130,53.3 128.9,52.7 127.8,52.2 126.7,51.5 125.6,50.8 124.7,49.9 123.6,49.1 122.8,48.2 121.8,47.3 
			121,46.3 120.1,45.4 119.4,44.3 118.7,43.3 118.1,42.1 117.5,41.1 116.9,39.9 116.5,38.6 116.1,37.4 115.8,36.2 115.4,34.9 
			115.2,33.6 115,32.3 114.9,30.9 114.9,29.6 114.9,28.2 115,26.9 115.2,25.7 115.4,24.2 115.8,23.1 116.1,21.8 116.5,20.6 
			116.9,19.3 117.5,18.2 118.1,17.1 118.7,16 119.4,14.9 120.1,13.9 121,12.9 121.8,12 122.8,11.1 123.6,10.1 124.7,9.3 125.6,8.6 
			126.7,7.8 127.8,7.1 128.9,6.5 130,5.9 131.2,5.4 132.5,5 133.7,4.5 135,4.2 136.3,3.8 137.6,3.6 138.9,3.5 140.3,3.3 141.7,3.3 
			143.1,3.3 144.4,3.5 145.8,3.6 147.1,3.8 148.3,4.2 149.6,4.5 150.9,5 152.1,5.4 153.3,5.9 154.4,6.5 155.6,7.1 156.6,7.8 
			157.7,8.6 158.6,9.3 159.6,10.1 160.5,11.1 161.5,12 162.3,12.9 163.2,13.9 163.9,14.9 164.6,16 165.2,17.1 165.8,18.2 
			166.4,19.3 166.8,20.6 167.2,21.8 167.6,23.1 167.9,24.2 168.1,25.7 168.3,26.9 168.4,28.2 168.4,29.6 168.4,30.9 168.3,32.3 
			168.1,33.6 167.9,34.9 167.6,36.2 167.2,37.4 166.8,38.6 166.4,39.9 165.8,41.1 165.2,42.1 164.6,43.3 163.9,44.3 163.2,45.4 
			162.3,46.3 161.5,47.3 160.5,48.2 159.6,49.1 158.6,49.9 157.7,50.8 156.6,51.5 155.6,52.2 154.4,52.7 153.3,53.3 152.1,53.9 
			150.9,54.4 149.6,54.7 148.3,55.1 147.1,55.4 145.8,55.7 144.4,55.8 143.1,55.9 		"/>
	</g>
</g>
<g id="XMLID_40_">
	<g id="XMLID_41_">
		<polygon id="XMLID_42_" class="st2" points="177.5,55.9 176.1,55.9 174.8,55.8 173.4,55.7 172.1,55.4 170.8,55.1 169.6,54.7 
			168.3,54.4 167.1,53.9 165.9,53.3 164.7,52.7 163.6,52.2 162.6,51.5 161.5,50.8 160.5,49.9 159.5,49.1 158.6,48.2 157.7,47.3 
			156.9,46.3 156,45.4 155.3,44.3 154.6,43.3 154,42.1 153.4,41.1 152.8,39.9 152.3,38.6 152,37.4 151.6,36.2 151.3,34.9 151,33.6 
			150.9,32.3 150.8,30.9 150.8,29.6 150.8,28.2 150.9,26.9 151,25.7 151.3,24.2 151.6,23.1 152,21.8 152.3,20.6 152.8,19.3 
			153.4,18.2 154,17.1 154.6,16 155.3,14.9 156,13.9 156.9,12.9 157.7,12 158.6,11.1 159.5,10.1 160.5,9.3 161.5,8.6 162.6,7.8 
			163.6,7.1 164.7,6.5 165.9,5.9 167.1,5.4 168.3,5 169.6,4.5 170.8,4.2 172.1,3.8 173.4,3.6 174.8,3.5 176.1,3.3 177.5,3.3 
			178.8,3.3 180.3,3.5 181.6,3.6 182.9,3.8 184.2,4.2 185.5,4.5 186.7,5 188,5.4 189.2,5.9 190.2,6.5 191.4,7.1 192.5,7.8 
			193.6,8.6 194.5,9.3 195.5,10.1 196.4,11.1 197.4,12 198.2,12.9 199,13.9 199.8,14.9 200.5,16 201.1,17.1 201.7,18.2 202.2,19.3 
			202.7,20.6 203.1,21.8 203.4,23.1 203.8,24.2 204,25.7 204.2,26.9 204.3,28.2 204.3,29.6 204.3,30.9 204.2,32.3 204,33.6 
			203.8,34.9 203.4,36.2 203.1,37.4 202.7,38.6 202.2,39.9 201.7,41.1 201.1,42.1 200.5,43.3 199.8,44.3 199,45.4 198.2,46.3 
			197.4,47.3 196.4,48.2 195.5,49.1 194.5,49.9 193.6,50.8 192.5,51.5 191.4,52.2 190.2,52.7 189.2,53.3 188,53.9 186.7,54.4 
			185.5,54.7 184.2,55.1 182.9,55.4 181.6,55.7 180.3,55.8 178.8,55.9 		"/>
	</g>
</g>
<g id="XMLID_37_">
	<g id="XMLID_38_">
		<polygon id="XMLID_39_" class="st0" points="162.7,13.4 148.5,13.4 148.5,12 161.5,12 		"/>
	</g>
</g>
<g id="XMLID_34_">
	<g id="XMLID_35_">
		<polygon id="XMLID_36_" class="st0" points="164.8,16.5 148.5,16.5 148.5,15.1 164,15.1 		"/>
	</g>
</g>
<g id="XMLID_31_">
	<g id="XMLID_32_">
		<polygon id="XMLID_33_" class="st0" points="166.5,19.8 148.5,19.8 148.5,18.3 165.8,18.3 		"/>
	</g>
</g>
<g id="XMLID_28_">
	<g id="XMLID_29_">
		<polygon id="XMLID_30_" class="st0" points="167.6,23 148.5,23 148.5,21.6 167.1,21.6 		"/>
	</g>
</g>
<g id="XMLID_25_">
	<g id="XMLID_26_">
		<polygon id="XMLID_27_" class="st0" points="167,38.3 148.4,38.3 148.4,36.9 167.3,36.9 		"/>
	</g>
</g>
<g id="XMLID_22_">
	<g id="XMLID_23_">
		<polygon id="XMLID_24_" class="st0" points="165.5,41.4 148.4,41.4 148.4,40 166.2,40 		"/>
	</g>
</g>
<g id="XMLID_19_">
	<g id="XMLID_20_">
		<polygon id="XMLID_21_" class="st0" points="163.6,44.7 148.4,44.7 148.4,43.2 164.6,43.2 		"/>
	</g>
</g>
<g id="XMLID_16_">
	<g id="XMLID_17_">
		<polygon id="XMLID_18_" class="st0" points="161,47.8 148.4,47.8 148.4,46.4 162.2,46.4 		"/>
	</g>
</g>
<g id="XMLID_13_">
	<g id="XMLID_14_">
		<polygon id="XMLID_15_" class="st0" points="168.1,26.1 148.5,26.1 148.5,24.7 167.9,24.7 		"/>
	</g>
</g>
<g id="XMLID_10_">
	<g id="XMLID_11_">
		<polygon id="XMLID_12_" class="st0" points="169.1,31.7 150.6,31.7 150.6,30.3 168.4,30.3 		"/>
	</g>
</g>
<g id="XMLID_7_">
	<g id="XMLID_8_">
		<polygon id="XMLID_9_" class="st0" points="168.4,35 150.8,35 150.8,33.6 167.7,33.6 		"/>
	</g>
</g>
<g id="XMLID_4_">
	<g id="XMLID_5_">
		<polygon id="XMLID_6_" class="st0" points="169.3,29 150.8,29 150.8,27.5 168.6,27.5 		"/>
	</g>
</g>
<g id="XMLID_2_" class="st4">
	<path id="XMLID_60_" class="st1" d="M138.8,21.1c0,0.3,0,0.6-0.1,1.1c-0.1,0.4-0.2,0.8-0.3,1.1c-0.1,0.3-0.3,0.4-0.5,0.4
		c-0.1,0-0.3-0.1-0.4-0.2c-0.2-0.2-0.4-0.3-0.7-0.5s-0.6-0.3-1.1-0.5s-1-0.2-1.6-0.2c-0.7,0-1.4,0.1-1.9,0.4
		c-0.6,0.3-1.1,0.6-1.6,1.1c-0.5,0.5-0.9,1-1.2,1.6c-0.3,0.6-0.6,1.2-0.9,1.8s-0.4,1.3-0.5,1.9c-0.1,0.6-0.2,1.2-0.2,1.8
		c0,0.7,0.1,1.2,0.3,1.7c0.2,0.5,0.4,0.9,0.7,1.2s0.7,0.6,1.2,0.7c0.5,0.2,1,0.2,1.5,0.2c0.7,0,1.3-0.1,1.7-0.2
		c0.5-0.1,0.9-0.3,1.2-0.5s0.6-0.3,0.8-0.5c0.2-0.1,0.4-0.2,0.6-0.2c0.1,0,0.2,0,0.3,0.1c0,0.1,0.1,0.2,0.1,0.4c0,0.1,0,0.2,0,0.3
		c0,0.1,0,0.3-0.1,0.4c0,0.2-0.1,0.3-0.1,0.5c0,0.2-0.1,0.4-0.1,0.5c0,0.2-0.1,0.3-0.2,0.5s-0.1,0.3-0.3,0.4s-0.3,0.2-0.6,0.4
		c-0.3,0.2-0.7,0.3-1.1,0.5c-0.4,0.1-0.9,0.3-1.5,0.4c-0.6,0.1-1.1,0.1-1.8,0.1c-1,0-2-0.1-2.8-0.4c-0.8-0.3-1.5-0.7-2.1-1.2
		c-0.6-0.6-1-1.3-1.3-2.1c-0.3-0.8-0.5-1.8-0.5-2.9c0-0.9,0.1-1.8,0.3-2.7s0.5-1.9,0.8-2.8c0.4-0.9,0.8-1.8,1.4-2.6
		c0.6-0.8,1.2-1.5,2-2.1c0.8-0.6,1.6-1.1,2.6-1.4c1-0.4,2.1-0.5,3.3-0.5c0.7,0,1.3,0.1,1.9,0.2c0.6,0.1,1.1,0.3,1.6,0.5
		c0.4,0.2,0.8,0.4,0.9,0.6C138.7,20.6,138.8,20.8,138.8,21.1z"/>
	<path id="XMLID_62_" class="st1" d="M141.8,37.1c0,0.1-0.1,0.2-0.1,0.2c-0.1,0.1-0.2,0.1-0.3,0.2c-0.1,0-0.3,0.1-0.6,0.1
		c-0.2,0-0.5,0-0.9,0c-0.4,0-0.6,0-0.9,0c-0.2,0-0.4-0.1-0.5-0.1c-0.1,0-0.2-0.1-0.3-0.2c0-0.1,0-0.2,0-0.2l2.5-12.6
		c0-0.1,0.1-0.2,0.1-0.2c0.1-0.1,0.2-0.1,0.3-0.2s0.3-0.1,0.6-0.1s0.5,0,0.9,0c0.4,0,0.6,0,0.9,0s0.4,0.1,0.5,0.1
		c0.1,0.1,0.2,0.1,0.3,0.2c0,0.1,0,0.2,0,0.2L141.8,37.1z M145.5,20.3c-0.1,0.3-0.2,0.6-0.3,0.9c-0.1,0.2-0.3,0.4-0.5,0.6
		s-0.4,0.2-0.7,0.3c-0.3,0.1-0.6,0.1-1,0.1c-0.4,0-0.7,0-1-0.1c-0.3-0.1-0.4-0.2-0.6-0.3c-0.1-0.1-0.2-0.3-0.2-0.6
		c0-0.2,0-0.5,0.1-0.9c0.1-0.3,0.2-0.6,0.3-0.9c0.1-0.2,0.3-0.4,0.5-0.6s0.4-0.3,0.7-0.3c0.3-0.1,0.6-0.1,1-0.1c0.4,0,0.7,0,1,0.1
		c0.3,0.1,0.4,0.2,0.6,0.3c0.1,0.2,0.2,0.3,0.2,0.6S145.6,20,145.5,20.3z"/>
	<path id="XMLID_65_" class="st1" d="M156,24.3c0,0.1,0,0.2,0,0.4c0,0.2,0,0.4-0.1,0.6s-0.1,0.5-0.1,0.7c-0.1,0.2-0.1,0.5-0.2,0.7
		c-0.1,0.2-0.2,0.4-0.2,0.5s-0.2,0.2-0.3,0.2c-0.1,0-0.2,0-0.3,0c-0.1,0-0.2-0.1-0.3-0.1c-0.1,0-0.2-0.1-0.3-0.1c-0.1,0-0.3,0-0.4,0
		c-0.3,0-0.7,0.1-1,0.4c-0.4,0.2-0.7,0.6-1.1,1c-0.3,0.4-0.6,0.9-0.9,1.4s-0.5,1.1-0.6,1.7l-1.1,5.7c0,0.1-0.1,0.2-0.1,0.2
		c-0.1,0.1-0.2,0.1-0.3,0.2c-0.1,0-0.3,0.1-0.6,0.1c-0.2,0-0.5,0-0.9,0c-0.4,0-0.6,0-0.9,0c-0.2,0-0.4-0.1-0.5-0.1
		c-0.1,0-0.2-0.1-0.3-0.2c0-0.1,0-0.2,0-0.2l2.6-12.6c0-0.1,0.1-0.2,0.1-0.2c0.1-0.1,0.2-0.1,0.3-0.2c0.1,0,0.3-0.1,0.5-0.1
		s0.5,0,0.7,0c0.3,0,0.5,0,0.7,0s0.3,0.1,0.4,0.1c0.1,0,0.2,0.1,0.2,0.2c0,0.1,0,0.2,0,0.2l-0.4,2c0.2-0.4,0.5-0.8,0.8-1.1
		c0.3-0.3,0.6-0.6,1-0.9s0.7-0.4,1.1-0.6c0.4-0.1,0.7-0.2,1.1-0.2c0.1,0,0.3,0,0.4,0s0.3,0,0.4,0.1c0.1,0,0.2,0.1,0.3,0.1
		c0.1,0,0.2,0.1,0.2,0.1C156,24.1,156,24.2,156,24.3z"/>
	<path id="XMLID_67_" class="st1" d="M166.4,24.3c0,0.1,0,0.2,0,0.4c0,0.2,0,0.4-0.1,0.6s-0.1,0.5-0.1,0.7c-0.1,0.2-0.1,0.5-0.2,0.7
		c-0.1,0.2-0.2,0.4-0.2,0.5s-0.2,0.2-0.3,0.2c-0.1,0-0.2,0-0.3,0c-0.1,0-0.2-0.1-0.3-0.1c-0.1,0-0.2-0.1-0.3-0.1c-0.1,0-0.3,0-0.4,0
		c-0.3,0-0.7,0.1-1,0.4c-0.4,0.2-0.7,0.6-1.1,1c-0.3,0.4-0.6,0.9-0.9,1.4s-0.5,1.1-0.6,1.7l-1.1,5.7c0,0.1-0.1,0.2-0.1,0.2
		c-0.1,0.1-0.2,0.1-0.3,0.2c-0.1,0-0.3,0.1-0.6,0.1c-0.2,0-0.5,0-0.9,0c-0.4,0-0.6,0-0.9,0c-0.2,0-0.4-0.1-0.5-0.1
		c-0.1,0-0.2-0.1-0.3-0.2c0-0.1,0-0.2,0-0.2l2.6-12.6c0-0.1,0.1-0.2,0.1-0.2c0.1-0.1,0.2-0.1,0.3-0.2c0.1,0,0.3-0.1,0.5-0.1
		s0.5,0,0.7,0c0.3,0,0.5,0,0.7,0s0.3,0.1,0.4,0.1c0.1,0,0.2,0.1,0.2,0.2c0,0.1,0,0.2,0,0.2l-0.4,2c0.2-0.4,0.5-0.8,0.8-1.1
		c0.3-0.3,0.6-0.6,1-0.9s0.7-0.4,1.1-0.6c0.4-0.1,0.7-0.2,1.1-0.2c0.1,0,0.3,0,0.4,0s0.3,0,0.4,0.1c0.1,0,0.2,0.1,0.3,0.1
		c0.1,0,0.2,0.1,0.2,0.1C166.3,24.1,166.4,24.2,166.4,24.3z"/>
	<path id="XMLID_69_" class="st1" d="M178,37.1c0,0.1-0.1,0.2-0.1,0.2s-0.2,0.1-0.3,0.2c-0.1,0-0.3,0.1-0.5,0.1c-0.2,0-0.4,0-0.7,0
		c-0.3,0-0.5,0-0.7,0c-0.2,0-0.3-0.1-0.4-0.1c-0.1,0-0.2-0.1-0.2-0.2s0-0.2,0-0.2l0.4-2c-0.2,0.3-0.5,0.7-0.8,1s-0.7,0.6-1.2,0.9
		s-0.9,0.5-1.4,0.7c-0.5,0.2-1,0.3-1.6,0.3c-0.7,0-1.2-0.1-1.7-0.3c-0.5-0.2-0.8-0.4-1.1-0.7s-0.5-0.7-0.6-1.1
		c-0.1-0.4-0.2-0.9-0.2-1.4c0-0.3,0-0.6,0.1-1c0-0.3,0.1-0.7,0.2-1l1.6-7.8c0-0.1,0.1-0.2,0.1-0.2c0.1-0.1,0.2-0.1,0.3-0.2
		c0.1,0,0.3-0.1,0.6-0.1c0.2,0,0.5,0,0.9,0c0.4,0,0.6,0,0.9,0s0.4,0.1,0.5,0.1c0.1,0,0.2,0.1,0.3,0.2c0,0.1,0.1,0.2,0,0.2l-1.5,7.6
		c0,0.2-0.1,0.4-0.1,0.6c0,0.2,0,0.4,0,0.6c0,0.2,0,0.4,0.1,0.6c0,0.2,0.1,0.3,0.2,0.5c0.1,0.1,0.2,0.2,0.4,0.3
		c0.1,0.1,0.3,0.1,0.5,0.1c0.4,0,0.8-0.1,1.2-0.4s0.8-0.6,1.2-1c0.4-0.4,0.7-1,1-1.6c0.3-0.6,0.5-1.2,0.7-1.9l1.1-5.4
		c0-0.1,0.1-0.2,0.1-0.2c0.1-0.1,0.2-0.1,0.3-0.2c0.1,0,0.3-0.1,0.6-0.1s0.5,0,0.9,0c0.4,0,0.6,0,0.9,0s0.4,0.1,0.5,0.1
		c0.1,0,0.2,0.1,0.3,0.2s0,0.2,0,0.2L178,37.1z"/>
	<path id="XMLID_71_" class="st1" d="M192.1,25.1c0,0.1,0,0.3,0,0.5c0,0.2-0.1,0.4-0.2,0.7c-0.1,0.2-0.1,0.4-0.2,0.6
		c-0.1,0.2-0.2,0.2-0.3,0.2c-0.1,0-0.3,0-0.4-0.1c-0.2-0.1-0.4-0.2-0.6-0.3c-0.2-0.1-0.5-0.2-0.8-0.3c-0.3-0.1-0.7-0.1-1.1-0.1
		c-0.3,0-0.6,0-0.9,0.1c-0.3,0.1-0.5,0.2-0.7,0.3c-0.2,0.1-0.3,0.3-0.4,0.5s-0.1,0.4-0.1,0.6c0,0.3,0.1,0.5,0.4,0.7
		c0.2,0.2,0.5,0.4,0.9,0.6c0.4,0.2,0.8,0.4,1.2,0.5s0.8,0.4,1.2,0.7s0.7,0.6,0.9,1s0.4,0.9,0.4,1.5c0,0.7-0.1,1.4-0.4,2
		s-0.7,1.1-1.2,1.6c-0.5,0.4-1.2,0.8-1.9,1s-1.6,0.4-2.6,0.4c-0.5,0-0.9,0-1.3-0.1c-0.4-0.1-0.8-0.1-1.1-0.2
		c-0.3-0.1-0.6-0.2-0.8-0.3c-0.2-0.1-0.4-0.2-0.5-0.3c-0.1-0.1-0.1-0.2-0.2-0.2c0-0.1-0.1-0.2-0.1-0.3c0-0.1,0-0.2,0-0.3
		c0-0.1,0-0.3,0.1-0.4c0-0.2,0.1-0.3,0.1-0.5c0-0.2,0.1-0.3,0.2-0.4s0.1-0.2,0.2-0.3c0.1-0.1,0.1-0.1,0.2-0.1c0.1,0,0.3,0.1,0.4,0.2
		c0.2,0.1,0.4,0.2,0.6,0.4c0.3,0.1,0.6,0.3,1,0.4c0.4,0.1,0.8,0.2,1.4,0.2c0.4,0,0.7,0,1-0.1c0.3-0.1,0.5-0.2,0.7-0.4
		c0.2-0.2,0.3-0.3,0.4-0.5c0.1-0.2,0.1-0.4,0.1-0.7c0-0.3-0.1-0.6-0.4-0.8c-0.2-0.2-0.5-0.4-0.9-0.6c-0.4-0.2-0.7-0.4-1.2-0.5
		c-0.4-0.2-0.8-0.4-1.2-0.7s-0.6-0.6-0.9-1s-0.4-0.9-0.4-1.5c0-0.7,0.1-1.3,0.4-1.9c0.3-0.6,0.6-1.1,1.1-1.5s1.1-0.8,1.8-1
		c0.7-0.2,1.5-0.4,2.4-0.4c0.4,0,0.8,0,1.2,0.1c0.4,0.1,0.7,0.1,1,0.2c0.3,0.1,0.6,0.2,0.8,0.3s0.4,0.2,0.5,0.3
		C192.1,24.7,192.1,24.8,192.1,25.1z"/>
</g>
<g id="XMLID_46_" class="st4">
	<path id="XMLID_47_" class="st0" d="M132.5,64.8c0,0.4-0.1,0.8-0.2,1.4c-0.1,0.6-0.3,1.1-0.5,1.4c-0.2,0.4-0.4,0.5-0.6,0.5
		c-0.2,0-0.4-0.1-0.6-0.3c-0.2-0.2-0.5-0.4-0.9-0.7c-0.4-0.2-0.9-0.5-1.4-0.7c-0.6-0.2-1.3-0.3-2.2-0.3c-1,0-1.8,0.2-2.6,0.6
		c-0.8,0.4-1.5,0.9-2.1,1.5s-1.2,1.3-1.6,2.1c-0.5,0.8-0.8,1.6-1.2,2.5c-0.3,0.9-0.5,1.7-0.7,2.6c-0.1,0.9-0.2,1.7-0.2,2.4
		c0,0.9,0.1,1.7,0.3,2.3s0.6,1.2,1,1.7c0.4,0.4,0.9,0.8,1.6,1s1.3,0.3,2.1,0.3c0.9,0,1.7-0.1,2.4-0.3c0.7-0.2,1.2-0.4,1.7-0.6
		c0.5-0.2,0.8-0.4,1.1-0.6c0.3-0.2,0.6-0.3,0.8-0.3c0.2,0,0.3,0.1,0.3,0.2c0.1,0.1,0.1,0.3,0.1,0.5c0,0.1,0,0.2,0,0.4
		c0,0.2-0.1,0.4-0.1,0.6s-0.1,0.5-0.1,0.7s-0.1,0.5-0.2,0.7s-0.1,0.4-0.2,0.6c-0.1,0.2-0.2,0.3-0.3,0.5c-0.1,0.1-0.4,0.3-0.8,0.5
		s-0.9,0.4-1.5,0.6c-0.6,0.2-1.3,0.4-2,0.5c-0.7,0.1-1.5,0.2-2.4,0.2c-1.4,0-2.7-0.2-3.8-0.6c-1.1-0.4-2.1-0.9-2.9-1.7
		c-0.8-0.7-1.4-1.7-1.8-2.8s-0.6-2.4-0.6-4c0-1.2,0.1-2.4,0.4-3.7s0.6-2.5,1.1-3.7c0.5-1.2,1.1-2.4,1.9-3.5c0.8-1.1,1.7-2,2.7-2.9
		c1-0.8,2.2-1.5,3.5-2c1.3-0.5,2.8-0.7,4.4-0.7c0.9,0,1.8,0.1,2.6,0.3c0.8,0.2,1.5,0.4,2.1,0.7c0.6,0.3,1,0.6,1.3,0.8
		C132.3,64.1,132.5,64.4,132.5,64.8z"/>
	<path id="XMLID_49_" class="st0" d="M136.5,86.4c0,0.1-0.1,0.2-0.2,0.3c-0.1,0.1-0.2,0.2-0.4,0.2c-0.2,0.1-0.5,0.1-0.8,0.1
		s-0.7,0-1.2,0c-0.5,0-0.9,0-1.2,0c-0.3,0-0.5-0.1-0.7-0.1s-0.3-0.1-0.3-0.2c-0.1-0.1-0.1-0.2,0-0.3l3.4-16.9c0-0.1,0.1-0.2,0.2-0.3
		c0.1-0.1,0.2-0.2,0.4-0.2c0.2-0.1,0.5-0.1,0.8-0.2c0.3,0,0.7-0.1,1.2-0.1s0.9,0,1.2,0.1c0.3,0,0.5,0.1,0.7,0.2
		c0.2,0.1,0.3,0.2,0.3,0.2c0.1,0.1,0.1,0.2,0,0.3L136.5,86.4z M141.5,63.7c-0.1,0.5-0.2,0.9-0.4,1.2c-0.2,0.3-0.4,0.6-0.6,0.8
		c-0.3,0.2-0.6,0.3-0.9,0.4s-0.8,0.1-1.4,0.1c-0.5,0-1,0-1.3-0.1s-0.6-0.2-0.8-0.4c-0.2-0.2-0.3-0.5-0.3-0.8c0-0.3,0-0.7,0.1-1.2
		c0.1-0.5,0.2-0.8,0.4-1.2c0.2-0.3,0.4-0.6,0.6-0.8c0.3-0.2,0.6-0.3,0.9-0.4s0.8-0.1,1.4-0.1c0.5,0,1,0,1.3,0.1s0.6,0.2,0.8,0.4
		c0.2,0.2,0.3,0.5,0.3,0.8C141.6,62.9,141.6,63.3,141.5,63.7z"/>
	<path id="XMLID_52_" class="st0" d="M155.7,69.2c0,0.1,0,0.2,0,0.5c0,0.2-0.1,0.5-0.1,0.8c-0.1,0.3-0.1,0.6-0.2,0.9
		c-0.1,0.3-0.2,0.6-0.3,0.9c-0.1,0.3-0.2,0.5-0.3,0.7c-0.1,0.2-0.3,0.3-0.4,0.3c-0.1,0-0.2,0-0.3-0.1c-0.1,0-0.2-0.1-0.4-0.1
		c-0.1,0-0.3-0.1-0.5-0.1c-0.2,0-0.4-0.1-0.6-0.1c-0.4,0-0.9,0.2-1.4,0.5c-0.5,0.3-1,0.8-1.4,1.3c-0.5,0.5-0.9,1.2-1.2,1.9
		c-0.4,0.7-0.6,1.5-0.8,2.3l-1.5,7.6c0,0.1-0.1,0.2-0.2,0.3c-0.1,0.1-0.2,0.2-0.4,0.2c-0.2,0.1-0.5,0.1-0.8,0.1s-0.7,0-1.2,0
		c-0.5,0-0.9,0-1.2,0c-0.3,0-0.5-0.1-0.7-0.1s-0.3-0.1-0.3-0.2c-0.1-0.1-0.1-0.2,0-0.3l3.4-17c0-0.1,0.1-0.2,0.2-0.3
		c0.1-0.1,0.2-0.2,0.4-0.2c0.2-0.1,0.4-0.1,0.7-0.1c0.3,0,0.6,0,1,0c0.4,0,0.7,0,1,0c0.3,0,0.4,0.1,0.6,0.1c0.1,0.1,0.2,0.1,0.3,0.2
		c0,0.1,0.1,0.2,0,0.3l-0.5,2.7c0.3-0.5,0.7-1,1.1-1.5c0.4-0.5,0.8-0.9,1.3-1.2c0.5-0.3,0.9-0.6,1.4-0.8c0.5-0.2,1-0.3,1.5-0.3
		c0.2,0,0.4,0,0.6,0s0.4,0.1,0.6,0.1c0.2,0,0.3,0.1,0.5,0.1c0.1,0.1,0.2,0.1,0.3,0.2C155.6,68.9,155.7,69,155.7,69.2z"/>
	<path id="XMLID_54_" class="st0" d="M169.6,69.2c0,0.1,0,0.2,0,0.5c0,0.2-0.1,0.5-0.1,0.8c-0.1,0.3-0.1,0.6-0.2,0.9
		c-0.1,0.3-0.2,0.6-0.3,0.9c-0.1,0.3-0.2,0.5-0.3,0.7c-0.1,0.2-0.3,0.3-0.4,0.3c-0.1,0-0.2,0-0.3-0.1c-0.1,0-0.2-0.1-0.4-0.1
		c-0.1,0-0.3-0.1-0.5-0.1c-0.2,0-0.4-0.1-0.6-0.1c-0.4,0-0.9,0.2-1.4,0.5c-0.5,0.3-1,0.8-1.4,1.3c-0.5,0.5-0.9,1.2-1.2,1.9
		c-0.4,0.7-0.6,1.5-0.8,2.3l-1.5,7.6c0,0.1-0.1,0.2-0.2,0.3c-0.1,0.1-0.2,0.2-0.4,0.2c-0.2,0.1-0.5,0.1-0.8,0.1s-0.7,0-1.2,0
		c-0.5,0-0.9,0-1.2,0c-0.3,0-0.5-0.1-0.7-0.1s-0.3-0.1-0.3-0.2c-0.1-0.1-0.1-0.2,0-0.3l3.4-17c0-0.1,0.1-0.2,0.2-0.3
		c0.1-0.1,0.2-0.2,0.4-0.2c0.2-0.1,0.4-0.1,0.7-0.1c0.3,0,0.6,0,1,0c0.4,0,0.7,0,1,0c0.3,0,0.4,0.1,0.6,0.1c0.1,0.1,0.2,0.1,0.3,0.2
		c0,0.1,0.1,0.2,0,0.3l-0.5,2.7c0.3-0.5,0.7-1,1.1-1.5c0.4-0.5,0.8-0.9,1.3-1.2c0.5-0.3,0.9-0.6,1.4-0.8c0.5-0.2,1-0.3,1.5-0.3
		c0.2,0,0.4,0,0.6,0s0.4,0.1,0.6,0.1c0.2,0,0.3,0.1,0.5,0.1c0.1,0.1,0.2,0.1,0.3,0.2C169.6,68.9,169.6,69,169.6,69.2z"/>
	<path id="XMLID_56_" class="st0" d="M185.3,86.4c0,0.1-0.1,0.2-0.2,0.3c-0.1,0.1-0.2,0.2-0.4,0.2c-0.2,0.1-0.4,0.1-0.7,0.1
		c-0.3,0-0.6,0-1,0s-0.7,0-1,0c-0.3,0-0.4-0.1-0.6-0.1c-0.1-0.1-0.2-0.1-0.3-0.2c0-0.1,0-0.2,0-0.3l0.5-2.8
		c-0.3,0.4-0.6,0.9-1.1,1.3c-0.5,0.5-1,0.9-1.6,1.2s-1.2,0.7-1.9,0.9c-0.7,0.2-1.4,0.3-2.1,0.3c-0.9,0-1.7-0.1-2.3-0.4
		c-0.6-0.2-1.1-0.6-1.5-1s-0.7-0.9-0.8-1.5c-0.2-0.6-0.3-1.2-0.3-1.9c0-0.4,0-0.9,0.1-1.3c0.1-0.5,0.1-0.9,0.2-1.4l2.1-10.5
		c0-0.1,0.1-0.2,0.2-0.3s0.2-0.2,0.4-0.2c0.2-0.1,0.5-0.1,0.8-0.1c0.3,0,0.7,0,1.2,0c0.5,0,0.9,0,1.2,0c0.3,0,0.5,0.1,0.7,0.1
		c0.2,0.1,0.3,0.1,0.3,0.2c0.1,0.1,0.1,0.2,0,0.3l-2.1,10.2c-0.1,0.3-0.1,0.6-0.1,0.9c0,0.3,0,0.6,0,0.9c0,0.3,0,0.6,0.1,0.8
		s0.2,0.5,0.3,0.6c0.1,0.2,0.3,0.3,0.5,0.4c0.2,0.1,0.4,0.1,0.7,0.1c0.5,0,1.1-0.2,1.7-0.5c0.6-0.3,1.1-0.8,1.6-1.4
		c0.5-0.6,1-1.3,1.4-2.1c0.4-0.8,0.7-1.7,0.9-2.6l1.5-7.3c0-0.1,0.1-0.2,0.2-0.3c0.1-0.1,0.3-0.2,0.5-0.2c0.2-0.1,0.5-0.1,0.8-0.1
		c0.3,0,0.7,0,1.2,0c0.5,0,0.9,0,1.2,0c0.3,0,0.5,0.1,0.7,0.1c0.2,0.1,0.3,0.1,0.3,0.2c0.1,0.1,0.1,0.2,0,0.3L185.3,86.4z"/>
	<path id="XMLID_58_" class="st0" d="M204.4,70.2c0,0.2,0,0.4-0.1,0.7c0,0.3-0.1,0.6-0.2,0.9c-0.1,0.3-0.2,0.6-0.3,0.8
		c-0.1,0.2-0.3,0.3-0.4,0.3c-0.2,0-0.4-0.1-0.6-0.2c-0.2-0.1-0.5-0.3-0.8-0.4c-0.3-0.1-0.7-0.3-1.1-0.4c-0.4-0.1-0.9-0.2-1.5-0.2
		c-0.5,0-0.9,0.1-1.2,0.2c-0.4,0.1-0.6,0.3-0.9,0.5c-0.2,0.2-0.4,0.4-0.5,0.7c-0.1,0.3-0.2,0.6-0.2,0.9c0,0.4,0.2,0.7,0.5,1
		c0.3,0.3,0.7,0.5,1.2,0.8s1,0.5,1.6,0.7c0.6,0.3,1.1,0.6,1.6,1c0.5,0.4,0.9,0.8,1.2,1.4s0.5,1.2,0.5,2.1c0,1-0.2,1.9-0.6,2.7
		c-0.4,0.8-0.9,1.5-1.6,2.1c-0.7,0.6-1.6,1.1-2.6,1.4s-2.2,0.5-3.5,0.5c-0.6,0-1.2,0-1.8-0.1c-0.6-0.1-1.1-0.2-1.5-0.3
		c-0.4-0.1-0.8-0.3-1.1-0.4c-0.3-0.2-0.5-0.3-0.7-0.5c-0.1-0.1-0.2-0.2-0.2-0.3s-0.1-0.3-0.1-0.4c0-0.1,0-0.3,0-0.4
		c0-0.2,0.1-0.4,0.1-0.6c0-0.2,0.1-0.4,0.2-0.6c0.1-0.2,0.1-0.4,0.2-0.6c0.1-0.2,0.2-0.3,0.3-0.4c0.1-0.1,0.2-0.2,0.3-0.2
		c0.2,0,0.4,0.1,0.6,0.2c0.2,0.2,0.5,0.3,0.9,0.5c0.3,0.2,0.8,0.4,1.3,0.5c0.5,0.2,1.1,0.2,1.9,0.2c0.5,0,1-0.1,1.4-0.2
		s0.7-0.3,1-0.5s0.4-0.5,0.6-0.7c0.1-0.3,0.2-0.6,0.2-0.9c0-0.4-0.2-0.8-0.5-1.1c-0.3-0.3-0.7-0.5-1.2-0.8c-0.5-0.2-1-0.5-1.6-0.7
		c-0.6-0.3-1.1-0.6-1.6-0.9c-0.5-0.4-0.9-0.8-1.2-1.4c-0.3-0.5-0.5-1.2-0.5-2.1c0-0.9,0.2-1.7,0.5-2.5s0.9-1.4,1.5-2s1.5-1,2.4-1.4
		c1-0.3,2-0.5,3.3-0.5c0.5,0,1.1,0,1.6,0.1c0.5,0.1,1,0.2,1.4,0.3c0.4,0.1,0.8,0.2,1.1,0.4c0.3,0.1,0.5,0.3,0.6,0.4
		C204.3,69.7,204.4,69.9,204.4,70.2z"/>
</g>
</svg>
