<?xml version="1.0" encoding="utf-8"?>
<!-- Generator: Adobe Illustrator 17.0.0, SVG Export Plug-In . SVG Version: 6.00 Build 0)  -->
<!DOCTYPE svg PUBLIC "-//W3C//DTD SVG 1.1//EN" "http://www.w3.org/Graphics/SVG/1.1/DTD/svg11.dtd" [
	<!ENTITY ns_flows "http://ns.adobe.com/Flows/1.0/">
	<!ENTITY ns_extend "http://ns.adobe.com/Extensibility/1.0/">
	<!ENTITY ns_ai "http://ns.adobe.com/AdobeIllustrator/10.0/">
	<!ENTITY ns_graphs "http://ns.adobe.com/Graphs/1.0/">
]>
<svg version="1.1" id="Слой_1" xmlns:x="&ns_extend;" xmlns:i="&ns_ai;" xmlns:graph="&ns_graphs;"
	 xmlns="http://www.w3.org/2000/svg" xmlns:xlink="http://www.w3.org/1999/xlink" xmlns:a="http://ns.adobe.com/AdobeSVGViewerExtensions/3.0/"
	 x="0px" y="0px" width="160px" height="40px" viewBox="0 0 160 40" style="enable-background:new 0 0 160 40;"
	 xml:space="preserve">
<style type="text/css">
	.st0{fill:#7DBBD9;}
	.st1{fill:#FFFFFF;}
	.st2{fill:#B1DDEF;}
	.st3{fill:#B8E3F4;}
</style>
<g id="XMLID_1_">
	<g id="XMLID_765_">
		<polygon id="XMLID_380_" class="st0" points="12.349,38.323 14.061,28.227 16.811,28.227 15.098,38.323 		"/>
	</g>
	<g id="XMLID_764_">
		<path id="XMLID_381_" class="st0" d="M25.059,28.497c-0.541-0.225-1.397-0.406-2.479-0.406c-2.704,0-4.642,1.352-4.642,3.335
			c0,1.442,1.352,2.254,2.389,2.749c1.082,0.496,1.442,0.811,1.442,1.262c0,0.676-0.856,0.992-1.623,0.992
			c-1.082,0-1.668-0.135-2.569-0.541l-0.361-0.18l-0.406,2.254c0.631,0.27,1.848,0.541,3.065,0.541c2.885,0,4.778-1.352,4.778-3.425
			c0-1.127-0.721-2.028-2.299-2.749c-0.946-0.451-1.532-0.766-1.532-1.262c0-0.406,0.496-0.856,1.577-0.856
			c0.901,0,1.532,0.18,2.073,0.406l0.225,0.135L25.059,28.497"/>
	</g>
	<g id="XMLID_761_">
		<path id="XMLID_382_" class="st0" d="M32.09,28.272h-2.118c-0.676,0-1.172,0.18-1.442,0.856l-4.101,9.24h2.885
			c0,0,0.451-1.262,0.586-1.532c0.315,0,3.11,0,3.516,0c0.09,0.361,0.315,1.532,0.315,1.532h2.569L32.09,28.272 M28.709,34.762
			c0.225-0.586,1.082-2.839,1.082-2.839c0,0.045,0.225-0.586,0.361-0.947l0.18,0.856c0,0,0.541,2.389,0.631,2.93
			C30.963,34.762,28.709,34.762,28.709,34.762z"/>
	</g>
	<g id="XMLID_760_">
		<path id="XMLID_383_" class="st0" d="M10.05,28.272l-2.704,6.896l-0.27-1.397c-0.496-1.623-2.073-3.335-3.786-4.237l2.479,8.834
			h2.885l4.327-10.051h-2.93"/>
	</g>
	<g id="XMLID_759_">
		<path id="XMLID_384_" class="st1" d="M4.867,28.227H0.45l-0.045,0.225c3.425,0.856,5.724,2.839,6.671,5.273l-0.946-4.642
			C5.949,28.452,5.453,28.272,4.867,28.227"/>
	</g>
</g>
<g id="XMLID_755_">
	<g id="XMLID_756_">
		<polygon id="XMLID_499_" class="st0" points="24.157,20.61 24.653,20.61 25.194,20.565 25.69,20.52 26.185,20.43 26.681,20.294 
			27.177,20.159 27.628,20.024 28.123,19.844 28.574,19.618 28.98,19.393 29.43,19.168 29.836,18.897 30.242,18.627 30.602,18.311 
			30.963,17.996 31.323,17.635 31.684,17.275 32,16.914 32.315,16.554 32.585,16.148 32.856,15.742 33.081,15.292 33.307,14.886 
			33.532,14.435 33.712,13.94 33.847,13.489 33.983,12.993 34.118,12.497 34.208,12.001 34.253,11.506 34.298,10.965 34.298,10.469 
			34.298,9.928 34.253,9.432 34.208,8.937 34.118,8.396 33.983,7.945 33.847,7.449 33.712,6.999 33.532,6.503 33.307,6.052 
			33.081,5.646 32.856,5.196 32.585,4.79 32.315,4.384 32,4.024 31.684,3.663 31.323,3.303 30.963,2.942 30.602,2.627 30.242,2.356 
			29.836,2.041 29.43,1.77 28.98,1.545 28.574,1.32 28.123,1.139 27.628,0.959 27.177,0.779 26.681,0.644 26.185,0.508 25.69,0.418 
			25.194,0.373 24.653,0.328 24.157,0.328 23.616,0.328 23.121,0.373 22.58,0.418 22.084,0.508 21.588,0.644 21.137,0.779 
			20.642,0.959 20.191,1.139 19.74,1.32 19.29,1.545 18.884,1.77 18.478,2.041 18.073,2.356 17.712,2.627 17.306,2.942 
			16.991,3.303 16.63,3.663 16.315,4.024 15.999,4.384 15.729,4.79 15.458,5.196 15.233,5.646 15.008,6.052 14.782,6.503 
			14.602,6.999 14.467,7.449 14.332,7.945 14.197,8.396 14.106,8.937 14.061,9.432 14.016,9.928 14.016,10.469 14.016,10.965 
			14.061,11.506 14.106,12.001 14.197,12.497 14.332,12.993 14.467,13.489 14.602,13.94 14.782,14.435 15.008,14.886 15.233,15.292 
			15.458,15.742 15.729,16.148 15.999,16.554 16.315,16.914 16.63,17.275 16.991,17.635 17.306,17.996 17.712,18.311 18.073,18.627 
			18.478,18.897 18.884,19.168 19.29,19.393 19.74,19.618 20.191,19.844 20.642,20.024 21.137,20.159 21.588,20.294 22.084,20.43 
			22.58,20.52 23.121,20.565 23.616,20.61 24.157,20.61 		"/>
	</g>
</g>
<g id="XMLID_753_">
	<g id="XMLID_754_">
		<polygon id="XMLID_500_" class="st2" points="10.546,20.61 11.087,20.61 11.582,20.565 12.123,20.52 12.619,20.43 13.07,20.294 
			13.566,20.159 14.061,20.024 14.512,19.844 14.963,19.618 15.368,19.393 15.819,19.168 16.225,18.897 16.63,18.627 16.991,18.311 
			17.351,17.996 17.712,17.635 18.073,17.275 18.388,16.914 18.704,16.554 18.974,16.148 19.244,15.742 19.47,15.292 19.695,14.886 
			19.921,14.435 20.101,13.94 20.236,13.489 20.371,12.993 20.506,12.497 20.597,12.001 20.642,11.506 20.687,10.965 20.687,10.469 
			20.687,9.928 20.642,9.432 20.597,8.937 20.506,8.396 20.371,7.945 20.236,7.449 20.101,6.999 19.921,6.503 19.695,6.052 
			19.47,5.646 19.244,5.196 18.974,4.79 18.704,4.384 18.388,4.024 18.073,3.663 17.712,3.303 17.351,2.942 16.991,2.627 
			16.63,2.356 16.225,2.041 15.819,1.77 15.368,1.545 14.963,1.32 14.512,1.139 14.061,0.959 13.566,0.779 13.07,0.644 
			12.619,0.508 12.123,0.418 11.582,0.373 11.087,0.328 10.546,0.328 10.05,0.328 9.509,0.373 9.013,0.418 8.518,0.508 8.022,0.644 
			7.526,0.779 7.075,0.959 6.58,1.139 6.129,1.32 5.723,1.545 5.272,1.77 4.867,2.041 4.461,2.356 4.101,2.627 3.695,2.942 
			3.38,3.303 3.019,3.663 2.703,4.024 2.388,4.384 2.118,4.79 1.847,5.196 1.622,5.646 1.396,6.052 1.171,6.503 0.991,6.999 
			0.856,7.449 0.72,7.945 0.585,8.396 0.495,8.937 0.45,9.432 0.405,9.928 0.405,10.469 0.405,10.965 0.45,11.506 0.495,12.001 
			0.585,12.497 0.72,12.993 0.856,13.489 0.991,13.94 1.171,14.435 1.396,14.886 1.622,15.292 1.847,15.742 2.118,16.148 
			2.388,16.554 2.703,16.914 3.019,17.275 3.38,17.635 3.695,17.996 4.101,18.311 4.461,18.627 4.867,18.897 5.272,19.168 
			5.723,19.393 6.129,19.618 6.58,19.844 7.075,20.024 7.526,20.159 8.022,20.294 8.518,20.43 9.013,20.52 9.509,20.565 
			10.05,20.61 10.546,20.61 		"/>
	</g>
</g>
<g id="XMLID_751_">
	<g id="XMLID_752_">
		<polygon id="XMLID_517_" class="st0" points="16.18,4.204 21.543,4.204 21.543,3.663 16.63,3.663 16.18,4.204 		"/>
	</g>
</g>
<g id="XMLID_749_">
	<g id="XMLID_750_">
		<polygon id="XMLID_518_" class="st0" points="15.368,5.421 21.543,5.421 21.543,4.88 15.684,4.88 15.368,5.421 		"/>
	</g>
</g>
<g id="XMLID_747_">
	<g id="XMLID_748_">
		<polygon id="XMLID_519_" class="st0" points="14.737,6.683 21.543,6.683 21.543,6.097 15.008,6.097 14.737,6.683 		"/>
	</g>
</g>
<g id="XMLID_745_">
	<g id="XMLID_746_">
		<polygon id="XMLID_520_" class="st0" points="14.332,7.9 21.543,7.9 21.543,7.359 14.512,7.359 14.332,7.9 		"/>
	</g>
</g>
<g id="XMLID_743_">
	<g id="XMLID_744_">
		<polygon id="XMLID_521_" class="st0" points="14.557,13.804 21.588,13.804 21.588,13.264 14.422,13.264 14.557,13.804 		"/>
	</g>
</g>
<g id="XMLID_741_">
	<g id="XMLID_742_">
		<polygon id="XMLID_522_" class="st0" points="15.098,15.021 21.588,15.021 21.588,14.48 14.827,14.48 15.098,15.021 		"/>
	</g>
</g>
<g id="XMLID_739_">
	<g id="XMLID_740_">
		<polygon id="XMLID_523_" class="st0" points="15.819,16.283 21.588,16.283 21.588,15.697 15.458,15.697 15.819,16.283 		"/>
	</g>
</g>
<g id="XMLID_737_">
	<g id="XMLID_738_">
		<polygon id="XMLID_528_" class="st0" points="16.811,17.5 21.588,17.5 21.588,16.959 16.315,16.959 16.811,17.5 		"/>
	</g>
</g>
<g id="XMLID_735_">
	<g id="XMLID_736_">
		<polygon id="XMLID_529_" class="st0" points="14.106,9.117 21.543,9.117 21.543,8.576 14.197,8.576 14.106,9.117 		"/>
	</g>
</g>
<g id="XMLID_733_">
	<g id="XMLID_734_">
		<polygon id="XMLID_530_" class="st0" points="18.659,12.587 21.498,12.587 21.498,12.047 18.749,12.047 18.659,12.587 		"/>
	</g>
</g>
<g id="XMLID_731_">
	<g id="XMLID_732_">
		<polygon id="XMLID_531_" class="st0" points="18.884,11.37 21.498,11.37 21.498,10.83 18.974,10.83 18.884,11.37 		"/>
	</g>
</g>
<g id="XMLID_710_">
	<g id="XMLID_729_">
		<polygon id="XMLID_385_" class="st1" points="11.177,10.334 11.222,10.289 11.267,10.244 11.312,10.199 11.357,10.199 
			11.447,10.154 11.582,10.109 11.763,10.109 11.853,10.109 11.943,10.109 12.123,10.109 12.484,10.154 12.529,10.154 12.709,9.342 
			12.484,9.342 12.439,9.297 12.078,9.297 11.763,9.252 11.447,9.252 11.267,9.297 11.087,9.297 10.906,9.342 10.771,9.387 
			10.681,9.432 10.546,9.477 10.456,9.568 10.366,9.613 10.275,9.703 10.23,9.793 10.185,9.928 10.14,10.018 10.095,10.154 
			10.05,10.289 10.05,10.424 10.05,10.649 10.095,10.83 10.14,10.965 10.23,11.1 10.366,11.235 10.456,11.325 10.591,11.37 
			10.726,11.461 10.861,11.506 10.996,11.551 11.132,11.596 11.222,11.641 11.312,11.686 11.357,11.776 11.402,11.821 
			11.402,11.956 11.357,12.047 11.312,12.092 11.312,12.137 11.267,12.182 11.177,12.227 11.132,12.227 11.042,12.272 
			10.906,12.272 10.816,12.272 10.636,12.272 10.456,12.227 10.185,12.182 9.915,12.137 9.87,12.137 9.78,12.092 9.644,12.903 
			9.825,12.948 9.87,12.993 9.915,12.993 10.005,12.993 10.05,13.038 10.23,13.038 10.366,13.038 10.591,13.038 10.726,13.038 
			10.861,13.083 10.996,13.083 11.132,13.038 11.222,13.038 11.357,13.038 11.447,13.038 11.582,12.993 11.718,12.948 
			11.808,12.903 11.943,12.858 12.033,12.813 12.123,12.723 12.213,12.632 12.304,12.542 12.349,12.407 12.439,12.272 
			12.484,12.137 12.484,11.956 12.484,11.776 12.484,11.551 12.439,11.416 12.394,11.28 12.304,11.19 12.258,11.1 12.123,11.01 
			12.033,10.965 11.943,10.92 11.808,10.875 11.718,10.83 11.582,10.785 11.492,10.739 11.402,10.694 11.312,10.649 11.267,10.604 
			11.222,10.559 11.177,10.514 11.177,10.469 11.177,10.424 11.177,10.379 		"/>
	</g>
	<g id="XMLID_728_">
		<polygon id="XMLID_532_" class="st1" points="14.242,12.272 14.197,12.272 14.106,12.272 14.061,12.272 13.971,12.272 
			13.881,12.272 13.836,12.227 13.746,12.227 13.746,12.182 13.701,12.137 13.656,12.092 13.701,12.047 14.016,10.154 
			14.602,10.154 14.737,9.342 14.151,9.342 14.287,8.486 13.34,8.486 12.664,12.272 12.619,12.407 12.619,12.497 12.664,12.587 
			12.664,12.632 12.664,12.723 12.709,12.768 12.754,12.813 12.799,12.858 12.844,12.903 12.889,12.948 12.98,12.993 13.07,12.993 
			13.205,13.038 13.295,13.038 13.475,13.038 13.701,13.038 13.881,13.038 14.061,12.993 14.151,12.948 14.197,12.948 
			14.287,12.903 14.287,12.858 14.422,12.182 14.377,12.227 		"/>
	</g>
	<g id="XMLID_725_">
		<path id="XMLID_533_" class="st1" d="M17.171,12.182l-0.09,0.045h-0.09h-0.09h-0.09h-0.09h-0.09h-0.09h-0.09h-0.09h-0.18h-0.09
			h-0.045L16,12.182l-0.045-0.045l-0.045-0.045l-0.045-0.045l-0.09-0.09l-0.045-0.045l-0.045-0.045l-0.045-0.045l-0.045-0.045
			l-0.045-0.045v-0.045V11.64v-0.045V11.55h2.208v-0.225l0.045-0.27l0.045-0.27v-0.225l-0.045-0.225l-0.045-0.18l-0.09-0.18
			l-0.09-0.135l-0.09-0.135l-0.135-0.09l-0.135-0.09l-0.135-0.045l-0.135-0.045l-0.135-0.045l-0.135-0.045H16.54h-0.135h-0.27
			l-0.27,0.045l-0.225,0.045l-0.18,0.09l-0.18,0.09l-0.135,0.135l-0.135,0.135l-0.09,0.135l-0.09,0.135l-0.09,0.135l-0.045,0.135
			l-0.045,0.135l-0.045,0.135l-0.045,0.135v0.135v0.09v0.27v0.27l0.045,0.225l0.045,0.225l0.09,0.18l0.09,0.18l0.135,0.135
			l0.135,0.135l0.135,0.09l0.135,0.09l0.18,0.045l0.18,0.045l0.18,0.045l0.18,0.045h0.18h0.18h0.135h0.09h0.09h0.09h0.225h0.135
			h0.045h0.045l0.18-0.045l0.135-0.045l0.135-0.901l-0.225,0.135L17.171,12.182z M16.225,10.063h0.045h0.045h0.045h0.045h0.045
			l0.045,0.045l0.045,0.045l0.045,0.045l0.045,0.045l0.045,0.09l0.045,0.135v0.045v0.09v0.09v0.09h-1.217v-0.09v-0.09l0.045-0.045
			l0.045-0.135l0.045-0.045l0.045-0.045l0.045-0.045l0.045-0.045l0.045-0.045l0.045-0.045l0.045-0.045h0.045h0.045L16.225,10.063z"
			/>
	</g>
	<g id="XMLID_724_">
		<polygon id="XMLID_534_" class="st1" points="23.166,11.911 23.075,11.956 23.03,12.001 22.94,12.047 22.85,12.047 22.76,12.092 
			22.67,12.092 22.58,12.092 22.49,12.137 22.354,12.137 22.129,12.092 21.904,12.047 21.813,12.001 21.678,11.956 21.588,11.911 
			21.543,11.821 21.453,11.731 21.408,11.641 21.363,11.551 21.318,11.461 21.273,11.37 21.273,11.235 21.228,11.145 21.228,11.01 
			21.228,10.92 21.273,10.785 21.273,10.649 21.318,10.469 21.408,10.244 21.453,10.109 21.543,9.928 21.633,9.793 21.723,9.703 
			21.813,9.613 21.904,9.523 21.994,9.477 22.084,9.432 22.174,9.387 22.264,9.387 22.354,9.342 22.444,9.342 22.535,9.342 
			22.805,9.342 22.94,9.342 23.03,9.342 23.166,9.387 23.211,9.387 23.391,9.477 23.436,9.477 23.571,9.568 23.661,9.613 
			23.842,8.621 23.616,8.531 23.481,8.486 23.346,8.441 23.256,8.441 23.166,8.396 22.94,8.396 22.85,8.351 22.715,8.351 
			22.625,8.351 22.49,8.351 22.354,8.351 22.264,8.396 22.129,8.396 21.994,8.396 21.904,8.441 21.813,8.486 21.678,8.486 
			21.588,8.531 21.498,8.576 21.408,8.621 21.318,8.666 21.228,8.756 21.137,8.801 21.047,8.847 20.957,8.937 20.912,8.982 
			20.822,9.072 20.777,9.162 20.642,9.342 20.597,9.432 20.506,9.523 20.461,9.658 20.416,9.748 20.371,9.838 20.326,9.973 
			20.281,10.109 20.236,10.379 20.191,10.514 20.191,10.649 20.146,10.92 20.146,11.19 20.146,11.461 20.191,11.686 20.236,11.866 
			20.326,12.092 20.416,12.272 20.552,12.407 20.687,12.542 20.822,12.678 20.957,12.768 21.092,12.858 21.273,12.903 
			21.408,12.993 21.588,12.993 21.723,13.038 21.949,13.038 22.129,13.038 22.264,13.038 22.399,13.038 22.625,12.993 
			22.715,12.993 22.85,12.948 22.895,12.903 22.985,12.903 23.03,12.858 23.121,12.768 23.256,11.866 23.211,11.821 		"/>
	</g>
	<g id="XMLID_721_">
		<path id="XMLID_535_" class="st1" d="M31.909,8.531l-0.225,1.307l-0.045-0.09l-0.045-0.045l-0.045-0.045l-0.045-0.045
			l-0.045-0.045l-0.045-0.045l-0.045-0.045l-0.09-0.045l-0.09-0.045l-0.09-0.045l-0.09-0.045h-0.09h-0.09h-0.09h-0.135h-0.135
			l-0.135,0.045l-0.135,0.045l-0.135,0.045l-0.135,0.09l-0.135,0.09l-0.135,0.09l-0.135,0.135l-0.09,0.135l-0.09,0.135l-0.09,0.135
			l-0.09,0.18l-0.09,0.18l-0.045,0.18L28.98,11.01l-0.045,0.18v0.18v0.18v0.18l0.045,0.18l0.045,0.18l0.045,0.18l0.09,0.135
			l0.09,0.135l0.09,0.135l0.09,0.135l0.135,0.09l0.135,0.09l0.135,0.045l0.18,0.045h0.18h0.09h0.09h0.045h0.135l0.135-0.045
			l0.045-0.045l0.135-0.045l0.045-0.045l0.045-0.045l0.045-0.045l0.045-0.045l0.045-0.045l0,0l-0.045,0.361h0.992l0.766-4.507V8.53
			L31.909,8.531L31.909,8.531z M30.692,10.244l0.09-0.045h0.09h0.09h0.09h0.045l0.045,0.045l0.045,0.045l0.045,0.045l0.045,0.045
			l0.045,0.045l0.045,0.045l0.045,0.09l0.045,0.09v0.09v0.09v0.09v0.09v0.09v0.09v0.09l-0.045,0.09l-0.045,0.09l-0.045,0.09
			l-0.045,0.09l-0.045,0.09l-0.045,0.09l-0.045,0.045l-0.045,0.045l-0.045,0.045l-0.09,0.045l-0.09,0.045l-0.09,0.045l-0.09,0.045
			h-0.09h-0.09l-0.135-0.045l-0.09-0.09l-0.09-0.09l-0.09-0.135l-0.045-0.18l-0.045-0.18v-0.18V11.1v-0.09l0.045-0.09l0.045-0.09
			l0.045-0.09l0.045-0.09l0.045-0.09l0.045-0.09l0.045-0.09l0.045-0.045l0.045-0.045l0.045-0.045l0.09-0.045L30.692,10.244z"/>
	</g>
	<g id="XMLID_718_">
		<path id="XMLID_536_" class="st1" d="M9.87,10.334v-0.135v-0.135l-0.045-0.09L9.78,9.883l-0.09-0.09l-0.09-0.09l-0.09-0.09
			l-0.09-0.045l-0.09-0.045l-0.09-0.045l-0.09-0.045l-0.09-0.045l-0.09-0.045h-0.09h-0.09H8.563H8.247H8.022h-0.18l-0.18,0.045
			l-0.18,0.045l-0.09,0.045l-0.09,0.045l-0.09,0.045l-0.27,0.901l0.135-0.045h0.045h0.09h0.09l0.18-0.045l0.225-0.045h0.225h0.09
			h0.09h0.09h0.18h0.09h0.09l0.09,0.045l0.045,0.045l0.045,0.045l0.045,0.045l0.045,0.045v0.09v0.045v0.09v0.045l0,0H8.698h-0.09
			h-0.18h-0.09h-0.18H8.112H8.067l-0.225,0.045H7.797H7.752H7.706l-0.18,0.045l-0.135,0.045L7.256,11.01l-0.09,0.045l-0.09,0.045
			l-0.09,0.045l-0.09,0.09l-0.09,0.09l-0.09,0.09l-0.09,0.09l-0.045,0.09l-0.045,0.09L6.49,11.822l-0.045,0.135v0.135v0.135v0.09
			v0.09v0.09v0.09v0.09l0.045,0.09l0.045,0.09l0.045,0.09l0.045,0.09l0.045,0.045l0.09,0.045l0.09,0.045l0.09,0.045l0.09,0.045
			l0.09,0.045l0.135,0.045h0.09h0.09h0.09h0.09h0.09h0.09l0.09-0.045l0.09-0.045l0.09-0.045l0.18-0.09l0.09-0.045l0.09-0.045
			l0.045-0.045l0.045-0.045l-0.045,0.18l-0.045,0.18h0.901l0.135-0.766l0.361-1.803L9.87,10.334z M7.481,12.137l-0.045-0.09v-0.09
			v-0.135v-0.045v-0.045l0.045-0.045l0.045-0.045l0.045-0.045l0.045-0.045l0.045-0.045l0.045-0.045l0.045-0.045l0.045-0.045
			l0.045-0.045h0.045h0.045h0.045h0.045h0.045h0.045h0.045h0.045h0.045h0.045h0.045h0.045h0.045h0.09h0.045h0.045h0.045l0,0l0,0l0,0
			v0.09v0.09l-0.045,0.09l-0.045,0.09v0.045v0.045v0.045l-0.045,0.045l-0.045,0.045l-0.045,0.045l-0.045,0.045l-0.045,0.045
			l-0.045,0.045l-0.045,0.045l-0.045,0.045l-0.09,0.045h-0.09h-0.09h-0.09h-0.09H7.706H7.661H7.616l-0.045-0.045L7.481,12.137z"/>
	</g>
	<g id="XMLID_717_">
		<polygon id="XMLID_537_" class="st1" points="6.715,8.486 5.002,8.486 3.92,11.1 3.785,8.486 2.118,8.486 1.306,13.038 
			2.298,13.038 2.884,9.703 2.884,9.703 2.884,9.838 3.064,12.497 3.064,12.903 3.064,13.038 4.146,13.038 5.543,9.703 5.543,9.703 
			4.957,13.038 4.957,13.038 5.949,13.038 6.715,8.531 		"/>
	</g>
	<g id="XMLID_713_">
		<path id="XMLID_538_" class="st1" d="M26.907,10.334v-0.135l-0.045-0.135l-0.045-0.135l-0.045-0.09l-0.09-0.09l-0.09-0.09
			l-0.09-0.09l-0.09-0.045l-0.09-0.045l-0.09-0.045l-0.09-0.045l-0.135-0.045l-0.09-0.045h-0.09h-0.09H25.6h-0.135h-0.09h-0.09
			h-0.09h-0.09h-0.09h-0.09h-0.09h-0.09h-0.09h-0.09h-0.09l-0.09,0.045l-0.09,0.045l-0.09,0.045l0,0l0,0l-0.225,0.811h0.045h0.045
			l0.045-0.045h0.045h0.09h0.09h0.09h0.09h0.09h0.09h0.09h0.09h0.135h0.09h0.09h0.09h0.09l0,0h0.09h0.09l0.09,0.045l0.045,0.045
			l0.045,0.045l0.045,0.045l0.045,0.045v0.09l0,0v0.045v0.09v0.045l0,0H25.78h-0.045H25.69H25.6h-0.09h-0.09h-0.09h-0.045h-0.045
			h-0.045h-0.045h-0.045h-0.045h-0.045h-0.045h-0.045h-0.045h-0.045h-0.045h-0.045h-0.045l0,0l0,0h-0.135l-0.135,0.045l-0.135,0.045
			l-0.09,0.045l-0.09,0.045l-0.09,0.09l-0.09,0.09l-0.09,0.09l-0.09,0.09l-0.09,0.09l-0.09,0.09l-0.045,0.135l-0.045,0.135
			l-0.045,0.135v0.135v0.135v0.09v0.09v0.09v0.09v0.09l0.045,0.09l0.045,0.09l0.045,0.09l0.045,0.09l0.045,0.045l0.09,0.045
			l0.09,0.045l0.09,0.045l0.09,0.045l0.135,0.045l0.135,0.045h0.09h0.09h0.09h0.09h0.09h0.09l0.09-0.045l0.09-0.045l0.09-0.045
			l0.09-0.045l0.09-0.045l0.09-0.045l0.09-0.045l0.045-0.045l0.045-0.045v0.045v0.135v0.135v0.045H25.6h0.856l0,0l0,0l0.135-0.766
			l0.361-1.803L26.907,10.334z M24.608,12.227l-0.045-0.045l-0.045-0.045l-0.045-0.09v-0.09v-0.135v-0.045v-0.045l0.045-0.045
			l0.045-0.045l0.045-0.045l0.045-0.045l0.045-0.045l0.045-0.045l0.045-0.045l0.045-0.045h0.045h0.045h0.045h0.045h0.045h0.045
			h0.045h0.045h0.045h0.045h0.045h0.045h0.045h0.045h0.045h0.045h0.045h0.045h0.045h0.045l0,0l0,0v0.09v0.09v0.09v0.09v0.045v0.045
			v0.045l-0.045,0.045l-0.045,0.045l-0.045,0.045l-0.045,0.045l-0.045,0.045l-0.045,0.045l-0.045,0.045l-0.045,0.045l-0.09,0.045
			l-0.09,0.045h-0.09h-0.09h-0.09h-0.045h-0.045L24.608,12.227z M25.509,12.632L25.509,12.632L25.509,12.632L25.509,12.632
			L25.509,12.632z"/>
	</g>
	<g id="XMLID_712_">
		<polygon id="XMLID_539_" class="st1" points="29.07,10.199 29.16,10.199 29.34,9.342 29.34,9.297 29.205,9.297 29.115,9.297 
			29.025,9.342 28.935,9.342 28.89,9.387 28.799,9.432 28.754,9.477 28.664,9.523 28.529,9.613 28.439,9.703 28.259,9.883 
			28.394,9.342 27.357,9.342 26.726,13.038 26.726,13.038 27.718,13.038 28.078,11.01 28.123,10.875 28.169,10.785 28.214,10.694 
			28.214,10.649 28.259,10.559 28.349,10.514 28.394,10.469 28.439,10.379 28.529,10.334 28.619,10.289 28.709,10.289 
			28.845,10.244 28.935,10.244 		"/>
	</g>
	<g id="XMLID_711_">
		<polygon id="XMLID_540_" class="st1" points="20.191,9.703 20.236,9.658 20.326,9.523 20.371,9.387 20.461,9.297 20.416,9.297 
			20.326,9.297 20.326,9.297 20.281,9.297 20.146,9.297 20.056,9.297 19.966,9.342 19.875,9.342 19.785,9.387 19.695,9.432 
			19.65,9.432 19.56,9.477 19.515,9.523 19.425,9.658 19.29,9.748 19.199,9.883 19.335,9.342 19.335,9.342 18.298,9.342 
			17.667,13.038 17.667,13.038 18.659,13.038 19.019,11.1 19.019,11.01 19.064,10.875 19.064,10.785 19.109,10.739 19.154,10.649 
			19.154,10.604 19.244,10.559 19.29,10.514 19.335,10.469 19.425,10.424 19.47,10.379 19.605,10.334 19.695,10.334 19.785,10.289 
			19.921,10.289 19.921,10.289 19.966,10.289 20.011,10.289 20.011,10.289 20.056,10.289 20.146,9.928 		"/>
	</g>
</g>
<g id="XMLID_645_">
	<g id="XMLID_657_">
		<g id="XMLID_658_">
			<g id="XMLID_675_">
				<path id="XMLID_543_" class="st0" d="M67.2,28.002h-6.085c-0.18,0-0.315-0.135-0.315-0.315v-1.487l1.893-1.893
					c0.135-0.135,0.135-0.315,0-0.451L60.8,21.466v-2.93c0-0.18,0.135-0.315,0.315-0.315H67.2l0,0c0.18,0,0.315,0.135,0.315,0.315
					v9.149C67.515,27.821,67.38,28.002,67.2,28.002z"/>
			</g>
			<g id="XMLID_674_">
				<path id="XMLID_544_" class="st0" d="M55.211,12.948h-6.085c-0.18,0-0.315-0.135-0.315-0.315V3.483
					c0-0.18,0.135-0.315,0.315-0.315h6.085c0.18,0,0.315,0.135,0.315,0.315v5.724l-1.893-1.893l1.893,2.389v2.93
					C55.527,12.813,55.391,12.948,55.211,12.948z"/>
			</g>
			<g id="XMLID_673_">
				<path id="XMLID_545_" class="st0" d="M45.746,24.621v-6.085c0-0.18,0.135-0.315,0.315-0.315h1.487l1.893,1.893
					c0.135,0.135,0.315,0.135,0.451,0l2.389-1.893h2.93c0.18,0,0.315,0.135,0.315,0.315v6.085l0,0c0,0.18-0.135,0.315-0.315,0.315
					h-9.149C45.881,24.937,45.746,24.802,45.746,24.621z"/>
			</g>
			<g id="XMLID_672_">
				<path id="XMLID_546_" class="st0" d="M60.8,12.632V6.548l0,0l0,0c0-0.18,0.135-0.315,0.315-0.315h9.149
					c0.18,0,0.315,0.135,0.315,0.315v6.085c0,0.18-0.135,0.315-0.315,0.315h-1.487l-1.893-1.893c-0.135-0.135-0.315-0.135-0.451,0
					l-2.389,1.893h-2.93C60.935,12.948,60.8,12.813,60.8,12.632z"/>
			</g>
			<g id="XMLID_671_">
				<path id="XMLID_547_" class="st0" d="M55.752,30.751l-4.282-4.282c-0.135-0.135-0.135-0.315,0-0.451l1.082-1.082h2.659
					c0.18,0,0.315-0.135,0.315-0.315l0.361-3.02l2.073-2.073c0.135-0.135,0.315-0.135,0.451,0l4.282,4.282
					c0.135,0.135,0.135,0.315,0,0.451l-6.445,6.445C56.112,30.841,55.887,30.841,55.752,30.751z"/>
			</g>
			<g id="XMLID_670_">
				<path id="XMLID_548_" class="st0" d="M57.915,11.641l-4.282-4.282c-0.135-0.135-0.135-0.315,0-0.451l6.445-6.445
					c0.135-0.135,0.315-0.135,0.451,0l4.282,4.282c0.135,0.135,0.135,0.315,0,0.451l-1.082,1.082H61.07
					c-0.18,0-0.315,0.135-0.315,0.315l-0.361,3.02l-2.073,2.073C58.276,11.776,58.05,11.776,57.915,11.641z"/>
			</g>
			<g id="XMLID_669_">
				<path id="XMLID_549_" class="st0" d="M42.997,13.173l4.282-4.282c0.135-0.135,0.315-0.135,0.451,0l1.082,1.082v2.659
					c0,0.18,0.135,0.315,0.315,0.315l3.02,0.361l0,0l2.073,2.073c0.135,0.135,0.135,0.315,0,0.451l-4.282,4.282
					c0,0.09-0.315,0.135-0.451,0l-6.445-6.445C42.862,13.534,42.862,13.309,42.997,13.173z"/>
			</g>
			<g id="XMLID_668_">
				<path id="XMLID_550_" class="st0" d="M62.107,15.337l2.389-2.389l0,0l1.893-1.893l0,0l0,0c0.135-0.135,0.315-0.135,0.451,0
					l6.445,6.445c0.135,0.135,0.135,0.315,0,0.451l-4.282,4.282c-0.135,0.135-0.315,0.135-0.451,0l-1.082-1.082v-2.659
					c0-0.18-0.135-0.315-0.315-0.315l-3.02-0.361l-2.073-2.073C61.972,15.697,61.972,15.472,62.107,15.337z"/>
			</g>
			<g id="XMLID_659_">
				<path id="XMLID_551_" class="st0" d="M55.527,3.483l-1.893,3.38l1.893-1.893V3.483L55.527,3.483z M64.856,5.196l-3.741,1.082
					h2.659L64.856,5.196L64.856,5.196z M47.774,8.892l1.082,3.741V9.973L47.774,8.892L47.774,8.892z M46.062,18.221l3.38,1.893
					l-1.893-1.893H46.062L46.062,18.221z M51.47,25.973l3.741-1.082h-2.659L51.47,25.973L51.47,25.973z M60.8,27.686l1.893-3.38
					L60.8,26.199V27.686L60.8,27.686z M68.552,22.278l-1.082-3.741v2.659L68.552,22.278L68.552,22.278z M70.265,12.948l-3.38-1.893
					l1.893,1.893H70.265z"/>
			</g>
		</g>
	</g>
	<g id="XMLID_646_">
		<path id="XMLID_541_" class="st0" d="M44.349,36.475c0,0.451-0.361,0.766-0.766,0.766h-1.172v-1.532h1.172
			C43.988,35.709,44.349,36.024,44.349,36.475L44.349,36.475z M73.555,33.681v4.507c0,0.09-0.09,0.135-0.135,0.135h-0.946
			c-0.09,0-0.135-0.045-0.135-0.135v-4.507h-1.487c-0.09,0-0.135-0.09-0.135-0.135v-0.766c0-0.09,0.045-0.135,0.135-0.135
			c1.397,0,2.794,0,4.237,0c0.09,0,0.135,0.09,0.135,0.135v0.766c0,0.09-0.045,0.135-0.135,0.135H73.555L73.555,33.681z
			 M49.938,38.143v-0.766c0-0.045-0.045-0.135-0.135-0.135h-2.208c-0.135,0-0.406-0.09-0.406-0.451v-1.082h2.344
			c0.09,0,0.135-0.09,0.135-0.135v-0.766c0-0.09-0.045-0.135-0.135-0.135h-2.344v-0.586c0-0.27,0.225-0.406,0.406-0.406h2.208
			c0.09,0,0.135-0.09,0.135-0.135v-0.811c0-0.09-0.045-0.135-0.135-0.135h-2.299c-0.856,0-1.532,0.721-1.532,1.532v2.704
			c0,0.811,0.721,1.487,1.487,1.487h2.344c0.09,0,0.135-0.045,0.135-0.135V38.143L49.938,38.143z M59.267,35.303L59.267,35.303
			c0.18-0.135,0.315-0.27,0.451-0.451s0.18-0.361,0.27-0.586l0.361-1.442c0-0.045-0.045-0.18-0.135-0.18h-0.901
			c-0.045,0-0.045,0-0.09,0c-0.045,0-0.045,0.045-0.09,0.09l-0.361,1.352c-0.045,0.18-0.09,0.315-0.18,0.406
			c-0.09,0.09-0.135,0.18-0.225,0.225c-0.09,0.045-0.18,0.09-0.27,0.09s-0.18,0-0.27,0h-0.631v-2.073c0-0.09-0.09-0.135-0.135-0.135
			h-0.946c-0.09,0-0.135,0.045-0.135,0.135v5.454c0,0.09,0.09,0.135,0.135,0.135h0.946c0.09,0,0.135-0.045,0.135-0.135v-2.434h0.676
			c0.18,0,0.361,0,0.496,0.045c0.135,0.045,0.225,0.09,0.315,0.225c0.09,0.09,0.135,0.225,0.225,0.406l0.496,1.758
			c0.045,0.09,0.09,0.09,0.135,0.09h0.946c0.135,0,0.135-0.09,0.135-0.18l-0.496-1.893c-0.045-0.135-0.045-0.225-0.09-0.315
			c-0.045-0.09-0.09-0.18-0.135-0.27c-0.045-0.09-0.135-0.135-0.225-0.225C59.538,35.393,59.448,35.348,59.267,35.303L59.267,35.303
			z M62.693,36.114l0.315-1.037l0.315-1.172h0.045l0.315,1.172L64,36.114H62.693L62.693,36.114z M64.27,37.151l0.315,1.037
			c0.045,0.09,0.09,0.135,0.135,0.135h1.037c0.09,0,0.18-0.09,0.135-0.18l-1.668-5.093c-0.09-0.225-0.18-0.451-0.496-0.451h-0.721
			c-0.135,0-0.27,0.045-0.361,0.18c-0.045,0.045-0.09,0.135-0.135,0.27l-1.668,5.048c-0.045,0.135,0.045,0.18,0.135,0.18h0.992
			c0.045,0,0.09,0,0.135-0.09c0,0,0-0.045,0.045-0.09l0.315-1.037h1.803V37.151z M69.318,34.447c0,0.406-0.315,0.766-0.766,0.766
			h-1.127v-1.487h1.037C69.003,33.681,69.318,34.041,69.318,34.447L69.318,34.447z M67.47,38.143V36.25h1.352
			c0.946,0,1.803-0.766,1.803-1.848c0-0.27-0.045-0.496-0.18-0.721c-0.225-0.496-0.631-0.856-1.127-0.992
			c-0.18-0.045-0.406-0.09-0.631-0.09h-2.073c-0.225,0-0.406,0.135-0.406,0.406c0,0.045,0,0.09,0,0.09v5.048
			c0,0.09,0.045,0.135,0.135,0.135h0.946c0.045,0,0.09-0.045,0.135-0.09C67.47,38.233,67.47,38.188,67.47,38.143L67.47,38.143z
			 M41.555,38.323h2.118c1.037,0.045,1.938-0.676,1.938-1.803c0-0.09,0-0.225,0-0.315c-0.18-0.901-0.901-1.487-1.803-1.487h-1.442
			v-1.037H44.8c0.09,0,0.135-0.045,0.135-0.135v-0.721c0-0.09-0.045-0.18-0.135-0.18h-3.245c-0.315,0-0.451,0.225-0.451,0.406v4.913
			C41.149,38.143,41.329,38.323,41.555,38.323L41.555,38.323z M51.29,33.185l-0.09,1.217c-0.045,0.406-0.045,0.766-0.09,1.082
			c-0.045,0.496-0.09,1.758-0.766,1.758c0,0,0,0-0.045,0s-0.135,0.045-0.135,0.135v0.766v0.045c0,0.09,0.045,0.135,0.135,0.135
			h0.045c0.496,0,0.946-0.045,1.307-0.631c0.135-0.18,0.225-0.361,0.315-0.631c0.09-0.225,0.135-0.496,0.18-0.766
			c0.045-0.27,0.09-0.586,0.09-0.947c0.045-0.361,0.045-0.721,0.09-1.127l0.045-0.586h1.577v4.507c0,0.09,0.045,0.135,0.135,0.135
			h0.946c0.09,0,0.135-0.045,0.135-0.135v-5.138c0-0.225-0.18-0.406-0.451-0.406h-3.11c-0.225,0-0.361,0.225-0.406,0.406
			C51.29,33.05,51.29,33.095,51.29,33.185z"/>
	</g>
</g>
<g id="XMLID_898_">
	<path id="XMLID_843_" class="st0" d="M114.299,23.63h-10.141l0.856-4.687h8.428C113.533,20.565,113.803,22.142,114.299,23.63z"/>
</g>
<g id="XMLID_894_">
	<path id="XMLID_258_" class="st0" d="M108.981,26.604c-0.901,0-1.803,0.631-2.299,1.127c-0.27,0.27-0.451,0.451-0.451,0.451
		l0.27-1.442h-2.794l-2.434,13.025h3.2l0.766-4.101c1.713,1.668,6.22,0.315,6.896-4.011
		C112.767,27.01,110.152,26.604,108.981,26.604z M108.575,32.103c-0.451,1.262-1.352,2.118-2.073,1.848
		c-0.676-0.225-0.856-1.487-0.406-2.749c0.451-1.262,1.397-2.118,2.073-1.848C108.845,29.624,109.026,30.841,108.575,32.103z"/>
</g>
<g id="XMLID_893_">
	<path id="XMLID_834_" class="st0" d="M159.595,18.942l-0.856,4.687h-14.558c0.496-1.487,0.811-3.065,0.856-4.687H159.595z"/>
</g>
<g id="XMLID_892_">
	<path id="XMLID_835_" class="st0" d="M145.939,18.942c-0.09,1.623-0.361,3.2-0.856,4.687h-1.848
		c0.541-1.487,0.901-3.065,0.992-4.687c0-0.27,0-0.541,0-0.811c0-8.609-7.031-15.64-15.64-15.64s-15.64,7.031-15.64,15.64
		c0,0.27,0,0.541,0,0.811c0.09,1.623,0.406,3.2,0.992,4.687h-1.848c-0.496-1.487-0.811-3.065-0.856-4.687h0.225l0,0
		c0-0.27,0-0.541,0-0.811c0-9.465,7.707-17.172,17.172-17.172s17.172,7.707,17.172,17.172c0,0.27,0,0.541-0.045,0.811l0,0H145.939z"
		/>
</g>
<g id="XMLID_891_">
	<path id="XMLID_824_" class="st1" d="M112.316,23.63h-0.496c-0.496-1.532-0.766-3.11-0.856-4.687l0,0h0.451
		c0.09,1.577,0.361,3.11,0.856,4.597L112.316,23.63z"/>
	<path id="XMLID_825_" class="st1" d="M146.164,18.942L146.164,18.942c-0.09,1.623-0.361,3.155-0.856,4.687h-0.496l0.045-0.09
		c0.496-1.487,0.766-3.02,0.856-4.597H146.164z"/>
</g>
<g id="XMLID_890_">
	<path id="XMLID_265_" class="st3" d="M144.181,18.131c0,0.27,0,0.541,0,0.811c-0.09,1.623-0.406,3.2-0.992,4.687h-2.524
		c0.676-1.442,1.082-3.02,1.172-4.687c0-0.27,0.045-0.541,0.045-0.811c0-6.941-5.318-12.665-12.124-13.251
		c-0.406-0.045-0.766-0.045-1.172-0.045c-7.347,0-13.296,5.949-13.296,13.296c0,0.27,0,0.541,0.045,0.811
		c0.09,1.668,0.496,3.245,1.172,4.687h-2.524c-0.541-1.487-0.901-3.065-0.992-4.687c0-0.27,0-0.541,0-0.811
		c0-8.609,7.031-15.64,15.64-15.64C137.195,2.537,144.181,9.523,144.181,18.131z"/>
</g>
<g id="XMLID_889_">
	<path id="XMLID_266_" class="st0" d="M141.837,18.131c0,0.27,0,0.541-0.045,0.811c-0.09,1.668-0.496,3.245-1.172,4.687h-13.611
		l0.676-4.687l1.983-14.062C136.519,5.511,141.837,11.235,141.837,18.131z"/>
</g>
<g id="XMLID_888_">
	<path id="XMLID_267_" class="st1" d="M129.758,4.925l-1.983,14.062l-0.676,4.687h-10.637c-0.676-1.442-1.082-3.02-1.172-4.687
		c0-0.27-0.045-0.541-0.045-0.811c0-7.347,5.949-13.296,13.296-13.296C128.947,4.835,129.353,4.88,129.758,4.925z"/>
</g>
<g id="XMLID_887_">
	<path id="XMLID_268_" class="st3" d="M126.874,11.055L126.874,11.055c-0.541,0.09-1.037,0.225-1.037,0.225s-0.045,0-0.135,0.045
		c-0.09,0.045-0.27,0.045-0.451,0.135L124.8,8.937c0.135-0.045,0.225-0.045,0.315-0.09c0,0,0.721-0.18,1.577-0.27L126.874,11.055z"
		/>
</g>
<g id="XMLID_886_">
	<path id="XMLID_269_" class="st3" d="M124.079,11.821c-0.045,0-0.045,0.045-0.09,0.045c-0.225,0.09-0.451,0.18-0.721,0.315
		c-0.18,0.09-0.406,0.18-0.586,0.315l0,0l-1.127-2.208c0.225-0.135,0.451-0.27,0.631-0.361c0.361-0.18,0.676-0.361,0.992-0.496
		L124.079,11.821z"/>
</g>
<g id="XMLID_885_">
	<path id="XMLID_270_" class="st3" d="M121.691,13.128L121.691,13.128c-0.09,0.09-0.225,0.18-0.315,0.27
		c-0.225,0.18-0.451,0.361-0.676,0.586l0,0l-1.487-1.487c0.225-0.315,0.496-0.586,0.721-0.856c0.09-0.09,0.18-0.18,0.315-0.27
		L121.691,13.128z"/>
</g>
<g id="XMLID_884_">
	<path id="XMLID_271_" class="st3" d="M119.843,14.931l-0.045,0.045c-0.18,0.225-0.315,0.496-0.496,0.721h-0.045l-1.397-0.811
		c0-0.045,0.045-0.09,0.045-0.135c0.135-0.315,0.225-0.586,0.361-0.856L119.843,14.931z"/>
</g>
<g id="XMLID_883_">
	<path id="XMLID_272_" class="st3" d="M118.671,17.23c-0.045,0.09-0.045,0.18-0.045,0.225c-0.045,0.135-0.09,0.315-0.09,0.496l0,0
		l-1.217-0.225c0.045-0.27,0.045-0.541,0.09-0.811L118.671,17.23z"/>
</g>
<g id="XMLID_882_">
	<path id="XMLID_273_" class="st1" d="M133.184,6.368l-0.946,3.245c-0.901-0.361-1.623-0.586-2.028-0.676l0.496-3.425
		c0.045,0,0.09,0,0.09,0h0.045c0.496,0.135,1.307,0.361,2.254,0.766C133.184,6.323,133.184,6.323,133.184,6.368z"/>
</g>
<g id="XMLID_881_">
	<path id="XMLID_275_" class="st1" d="M136.654,8.396l-1.532,2.749c-0.631-0.406-1.217-0.766-1.848-1.037l0,0l1.307-3.065
		c0.045,0,0.045,0.045,0.09,0.045C135.347,7.449,136.023,7.855,136.654,8.396z"/>
</g>
<g id="XMLID_880_">
	<path id="XMLID_276_" class="st1" d="M138.953,10.785l-1.848,2.028c-0.406-0.451-0.856-0.811-1.262-1.172l1.938-2.299
		c0.406,0.406,0.766,0.856,1.127,1.352C138.908,10.739,138.953,10.785,138.953,10.785z"/>
</g>
<g id="XMLID_879_">
	<path id="XMLID_277_" class="st1" d="M140.395,13.489l-1.713,1.487c-0.225-0.451-0.496-0.856-0.766-1.217l1.848-1.668l0,0
		c0,0.045,0.045,0.045,0.045,0.09C140.034,12.587,140.215,13.038,140.395,13.489z"/>
</g>
<g id="XMLID_878_">
	<path id="XMLID_278_" class="st1" d="M141.071,16.148l-1.577,0.992c0-0.045,0-0.045,0-0.09c-0.09-0.361-0.225-0.721-0.361-1.082
		l1.668-1.127c0.09,0.315,0.18,0.676,0.225,1.037C141.071,15.968,141.071,16.058,141.071,16.148z"/>
</g>
<g id="XMLID_877_">
	<path id="XMLID_279_" class="st1" d="M141.296,18.672l-1.532,0.225c0-0.27-0.045-0.586-0.09-0.856v-0.045
		c0.045,0,1.577-0.586,1.577-0.586c0.045,0.361,0.045,0.721,0.045,1.127C141.296,18.537,141.296,18.582,141.296,18.672z"/>
</g>
<g id="XMLID_876_">
	<path id="XMLID_283_" class="st1" d="M130.75,13.354l-0.496,1.758c-0.496-0.18-0.856-0.315-1.082-0.361l0.27-1.848
		c0.045,0,0.045,0,0.045,0s0,0,0.045,0C129.758,12.993,130.209,13.128,130.75,13.354C130.705,13.354,130.75,13.354,130.75,13.354z"
		/>
</g>
<g id="XMLID_875_">
	<path id="XMLID_285_" class="st1" d="M132.643,14.435l-0.856,1.487c-0.315-0.225-0.676-0.406-0.992-0.586l0,0l0.721-1.668
		c0,0,0.045,0,0.045,0.045C131.922,13.94,132.282,14.165,132.643,14.435z"/>
</g>
<g id="XMLID_874_">
	<path id="XMLID_291_" class="st1" d="M133.86,15.742l-0.992,1.082c-0.225-0.225-0.451-0.451-0.676-0.631l1.037-1.217
		C133.454,15.201,133.634,15.427,133.86,15.742L133.86,15.742z"/>
</g>
<g id="XMLID_873_">
	<path id="XMLID_293_" class="st1" d="M134.626,17.185l-0.946,0.811c-0.135-0.225-0.27-0.451-0.406-0.676l0.992-0.901l0,0v0.045
		C134.446,16.734,134.536,16.959,134.626,17.185z"/>
</g>
<g id="XMLID_872_">
	<path id="XMLID_297_" class="st1" d="M134.987,18.627l-0.856,0.541v-0.045c-0.045-0.225-0.09-0.406-0.18-0.586l0.901-0.631
		c0.045,0.18,0.09,0.361,0.135,0.541C134.987,18.537,134.987,18.582,134.987,18.627z"/>
</g>
<g id="XMLID_871_">
	<path id="XMLID_299_" class="st1" d="M135.122,19.979l-0.856,0.135c0-0.18-0.045-0.315-0.045-0.451l0,0
		c0.045,0,0.856-0.315,0.856-0.315c0,0.18,0.045,0.406,0.045,0.586C135.122,19.934,135.122,19.979,135.122,19.979z"/>
</g>
<g id="XMLID_867_">
	<path id="XMLID_304_" class="st0" d="M116.372,27.01c-2.569,1.172-5.679,5.904-2.208,8.924c0.721,0.631,3.155,0.541,4.282-1.442
		l-0.045,1.442h2.975c0,0,0.541-7.211,1.262-9.014C122.637,26.92,118.761,25.928,116.372,27.01z M118.626,31.743
		c-0.451,1.397-1.217,2.344-2.208,1.893c-0.586-0.27-0.586-1.577,0.045-2.884c0.631-1.307,1.397-1.803,2.254-1.803
		C119.257,28.903,119.076,30.3,118.626,31.743z"/>
</g>
<g id="XMLID_866_">
	<path id="XMLID_371_" class="st0" d="M130.705,26.74l-0.676,2.479c0,0-1.938-0.361-2.93,0.496
		c-0.992,0.856-2.254,5.228,2.163,3.606c0,1.848,0,2.524,0,2.524s-0.811,0.451-2.344,0.451c-1.532,0-5.409-0.901-3.831-5.949
		C124.62,25.297,130.705,26.74,130.705,26.74z"/>
</g>
<g id="XMLID_865_">
	<path id="XMLID_372_" class="st0" d="M131.606,26.785h2.93c0,0-0.856,3.47-0.315,3.831c0.721,0.451,1.713,0.225,1.938,0
		c0.225-0.225,0.766-3.741,0.766-3.741h3.065l-1.577,8.969h-3.065l0.586-3.29c0,0-0.631,0.541-2.344,0.541
		C132.057,33.095,129.758,32.959,131.606,26.785z"/>
</g>
<g id="XMLID_862_">
	<path id="XMLID_373_" class="st0" d="M149.274,29.714c0.225-3.47-3.155-3.2-3.425-3.2c-0.406,0-4.823-0.315-5.363,5.859
		c-0.496,5.318,7.617,3.2,7.617,3.2V33.32c0,0-1.532,0.721-2.704,0.676c-1.172-0.045-2.073-0.135-1.983-1.352
		C143.415,32.644,149.049,33.185,149.274,29.714z M146.434,29.579c-0.225,1.172-2.704,0.811-2.704,0.811
		C144.046,28.588,146.66,28.452,146.434,29.579z"/>
</g>
<g id="XMLID_861_">
	<polygon id="XMLID_374_" class="st0" points="157.973,26.875 155.359,26.875 155.359,26.875 152.564,26.875 152.564,26.875 
		149.95,26.875 149.77,27.866 149.544,29.173 152.159,29.173 150.896,35.844 153.646,35.844 153.691,35.799 154.908,29.173 
		157.522,29.173 	"/>
</g>
</svg>
