<?xml version="1.0" encoding="utf-8"?>
<!-- Generator: Adobe Illustrator 17.0.0, SVG Export Plug-In . SVG Version: 6.00 Build 0)  -->
<!DOCTYPE svg PUBLIC "-//W3C//DTD SVG 1.1//EN" "http://www.w3.org/Graphics/SVG/1.1/DTD/svg11.dtd">
<svg version="1.1" id="Слой_1" xmlns="http://www.w3.org/2000/svg" xmlns:xlink="http://www.w3.org/1999/xlink" x="0px" y="0px"
	 width="43px" height="43px" viewBox="0 0 43 43" enable-background="new 0 0 43 43" xml:space="preserve">
<g>
	<g>
		<path fill="#FFFFFF" stroke="#2875D4" stroke-miterlimit="10" d="M42.594,2.369v38.262c0,1.087-0.884,1.963-1.964,1.963H2.361
			c-1.08,0-1.955-0.876-1.955-1.963V2.369c0-1.087,0.876-1.963,1.955-1.963h38.27C41.71,0.406,42.594,1.282,42.594,2.369z"/>
		<path fill="#2875D4" d="M40.631,43H2.361C1.059,43,0,41.937,0,40.631V2.369C0,1.063,1.059,0,2.361,0h38.27
			C41.937,0,43,1.063,43,2.369v38.262C43,41.937,41.937,43,40.631,43z M2.361,0.811c-0.854,0-1.55,0.699-1.55,1.558v38.262
			c0,0.859,0.695,1.558,1.55,1.558h38.27c0.859,0,1.558-0.699,1.558-1.558V2.369c0-0.859-0.699-1.558-1.558-1.558H2.361z"/>
	</g>
	<g>
		<g>
			
				<rect x="13.139" y="25.885" transform="matrix(-0.7071 -0.7071 0.7071 -0.7071 8.9233 58.2852)" fill="#EB2027" width="6.788" height="2.82"/>
		</g>
		<g>
			<polygon fill="#EB2027" points="39.715,16.433 28.58,17.432 30.303,15.71 36.026,15.055 33.492,12.521 34.647,11.365 			"/>
		</g>
		<g>
			<path fill="#2875D4" d="M4.73,31.744L0,27.014v-3.354L23.669,0h8.952L43,10.379v3.338l-3.285,3.286l-5.071-5.063L18.62,27.964
				l-5.054-5.055L4.73,31.744z M0.811,26.678l3.919,3.919l8.835-8.835l5.055,5.054l16.023-16.024l5.071,5.063l2.475-2.474v-2.666
				l-9.904-9.904h-8.28L0.811,23.997V26.678z"/>
		</g>
		<g>
			<path fill="#2875D4" d="M24.954,43h-8.968l-8.122-8.122l7.397-7.397l4.706,4.706l15.927-15.926L43,23.368v1.585L24.954,43z
				 M16.322,42.189h8.296l17.571-17.571v-0.913l-6.296-6.296L19.967,33.335l-4.705-4.705l-6.25,6.249L16.322,42.189z"/>
		</g>
	</g>
</g>
</svg>
