<?xml version="1.0" encoding="utf-8"?>
<!-- Generator: Adobe Illustrator 17.1.0, SVG Export Plug-In . SVG Version: 6.00 Build 0)  -->
<!DOCTYPE svg PUBLIC "-//W3C//DTD SVG 1.1//EN" "http://www.w3.org/Graphics/SVG/1.1/DTD/svg11.dtd">
<svg version="1.1" id="Layer_1" xmlns="http://www.w3.org/2000/svg" xmlns:xlink="http://www.w3.org/1999/xlink" x="0px" y="0px"
	 viewBox="0 0 121 121" enable-background="new 0 0 121 121" xml:space="preserve">
<g>
	<g>
		<g>
			<path fill="#FFFFFF" d="M113.9,119.4H7.1c-3,0-5.5-2.5-5.5-5.5V7.1c0-3,2.5-5.5,5.5-5.5h106.8c3,0,5.5,2.5,5.5,5.5v106.8
				C119.4,116.9,116.9,119.4,113.9,119.4z"/>
		</g>
		<g>
			<path fill="#2875D4" d="M113.9,120.5H7.1c-3.6,0-6.6-3-6.6-6.6V7.1c0-3.6,3-6.6,6.6-6.6h106.8c3.6,0,6.6,3,6.6,6.6v106.8
				C120.5,117.6,117.6,120.5,113.9,120.5z M7.1,2.7c-2.4,0-4.3,1.9-4.3,4.3v106.8c0,2.4,1.9,4.3,4.3,4.3h106.8
				c2.4,0,4.3-1.9,4.3-4.3V7.1c0-2.4-1.9-4.3-4.3-4.3H7.1z"/>
		</g>
	</g>
	<g>
		<path fill="#2875D4" d="M84.3,25.2H14.3c-0.6,0-1,0.4-1,1v45.6c0,0.6,0.4,1,1,1h70.1c0.6,0,1-0.4,1-1V26.2
			C85.3,25.6,84.9,25.2,84.3,25.2z M83.3,70.8H15.3V27.2h68.1V70.8z"/>
		<path fill="#2875D4" d="M24.2,67.9h50.2c0.6,0,1-0.4,1-1V31.5c0-0.6-0.4-1-1-1H24.2c-0.6,0-1,0.4-1,1v35.3
			C23.2,67.4,23.6,67.9,24.2,67.9z M25.2,32.5h48.2v33.3H25.2V32.5z"/>
		<rect x="77" y="44.1" fill="#2875D4" width="4.8" height="4"/>
		<rect x="77" y="50.4" fill="#2875D4" width="4.8" height="4"/>
		<rect x="77" y="56.6" fill="#2875D4" width="4.8" height="4"/>
		<rect x="77" y="62.9" fill="#2875D4" width="4.8" height="4"/>
		<rect x="16.8" y="44.1" fill="#2875D4" width="4.8" height="4"/>
		<rect x="16.8" y="50.4" fill="#2875D4" width="4.8" height="4"/>
		<rect x="16.8" y="56.6" fill="#2875D4" width="4.8" height="4"/>
		<rect x="16.8" y="62.9" fill="#2875D4" width="4.8" height="4"/>
		<path fill="#2875D4" d="M108.6,45.1H89.5c-0.6,0-1,0.4-1,1v12.6c0,0.6,0.4,1,1,1h19.1c0.6,0,1-0.4,1-1V46.1
			C109.6,45.5,109.1,45.1,108.6,45.1z M107.6,57.6H90.5V47.1h17.1V57.6z"/>
		<rect x="92.8" y="49.8" fill="#2875D4" width="12.9" height="3"/>
		<path fill="#2875D4" d="M89.5,30.9h19.1c0.6,0,1-0.4,1-1c0-0.6-0.4-1-1-1h-5.8c-0.4-1.6-1.8-2.7-3.5-2.7c-1.7,0-3.1,1.1-3.5,2.7
			h-6.2c-0.6,0-1,0.4-1,1C88.5,30.4,89,30.9,89.5,30.9z"/>
		<path fill="#2875D4" d="M61.9,77.2c-0.1-0.5-0.5-0.9-1-0.9H37.8c0,0-0.1,0-0.1,0c-0.1,0-0.1,0-0.2,0c-0.1,0-0.1,0.1-0.2,0.1
			c-0.1,0-0.1,0.1-0.2,0.1c-0.1,0-0.1,0.1-0.1,0.2c0,0-0.1,0.1-0.1,0.1c-0.1,0.1-0.1,0.2-0.1,0.4L34,98.5c0,0.1,0,0.3,0,0.4
			c0,0,0,0.1,0,0.1c0,0.1,0.1,0.2,0.1,0.3c0,0,0,0,0,0c0,0,0.1,0,0.1,0.1c0.1,0.1,0.1,0.1,0.2,0.1c0.1,0,0.1,0,0.2,0.1
			c0.1,0,0.1,0,0.2,0.1c0,0,0.1,0,0.1,0c0,0,0,0,0,0h11.8h0h5.9h0h11c0,0,0,0,0,0c0.6,0,1-0.4,1-1c0-0.1,0-0.3-0.1-0.4L61.9,77.2z
			 M61.1,85.8h-7.7l-0.1-3h7.4L61.1,85.8z M51.3,85.8h-3.2l0.1-3h3.1L51.3,85.8z M38.1,82.8h3l-0.2,3h-3.2L38.1,82.8z M43.1,82.8
			h3.1l-0.1,3h-3.2L43.1,82.8z M48.2,80.8l0.1-2.5h2.8l0.1,2.5H48.2z M46.2,80.8h-2.9l0.2-2.5h2.8L46.2,80.8z M41.3,80.8h-2.9
			l0.3-2.5h2.8L41.3,80.8z M37.4,87.8h3.3l-0.3,3.6h-3.5L37.4,87.8z M42.7,87.8H46L46,91.4h-3.5L42.7,87.8z M45.9,93.4l-0.1,4.2H42
			l0.3-4.2H45.9z M47.9,93.4h3.6l0.1,4.2h-3.9L47.9,93.4z M48,91.4l0.1-3.6h3.3l0.1,3.6H48z M53.4,87.8h7.9l0.5,3.6h-8.3L53.4,87.8z
			 M60.4,80.8h-7.2l-0.1-2.5h7L60.4,80.8z M36.7,93.4h3.6L40,97.6h-3.8L36.7,93.4z M53.7,97.6l-0.1-4.2H62l0.6,4.2H53.7z"/>
	</g>
</g>
</svg>
