<?xml version="1.0" encoding="utf-8"?>
<!-- Generator: Adobe Illustrator 17.0.0, SVG Export Plug-In . SVG Version: 6.00 Build 0)  -->
<!DOCTYPE svg PUBLIC "-//W3C//DTD SVG 1.1//EN" "http://www.w3.org/Graphics/SVG/1.1/DTD/svg11.dtd" [
	<!ENTITY ns_flows "http://ns.adobe.com/Flows/1.0/">
	<!ENTITY ns_extend "http://ns.adobe.com/Extensibility/1.0/">
	<!ENTITY ns_ai "http://ns.adobe.com/AdobeIllustrator/10.0/">
	<!ENTITY ns_graphs "http://ns.adobe.com/Graphs/1.0/">
]>
<svg version="1.1" id="Слой_1" xmlns:x="&ns_extend;" xmlns:i="&ns_ai;" xmlns:graph="&ns_graphs;"
	 xmlns="http://www.w3.org/2000/svg" xmlns:xlink="http://www.w3.org/1999/xlink" xmlns:a="http://ns.adobe.com/AdobeSVGViewerExtensions/3.0/"
	 x="0px" y="0px" width="74px" height="60px" viewBox="0 0 74 60" style="enable-background:new 0 0 74 60;" xml:space="preserve">
<style type="text/css">
	.st0{fill:#2875D4;}
</style>
<g id="Layer_3">
	<g id="XMLID_106_">
		<g id="XMLID_130_">
			<path id="XMLID_84_" class="st0" d="M3.543,14.831V43.57c-0.643-0.107-1.287-0.214-1.93-0.429V14.402
				C2.256,14.509,2.899,14.724,3.543,14.831z"/>
		</g>
		<g id="XMLID_128_">
			<path id="XMLID_82_" class="st0" d="M62.522,39.495v2.466c-4.826-1.072-9.758-1.287-14.584-1.18v-2.359
				C52.871,38.208,57.696,38.423,62.522,39.495z"/>
		</g>
		<g id="XMLID_124_">
			<path id="XMLID_125_" class="st0" d="M47.938,13.008v23.806c4.826-0.107,9.758,0.107,14.584,1.18V14.188
				C57.696,13.115,52.871,12.901,47.938,13.008z M61.021,36.492c-3.539-0.536-7.185-0.858-11.152-0.858h-0.322V14.08h0.214
				c4.075,0,7.721,0.322,11.26,0.965V36.492L61.021,36.492z"/>
		</g>
		<g id="XMLID_122_">
			<path id="XMLID_76_" class="st0" d="M35.82,25.554c-0.107,0.643-0.107,1.287-0.107,1.93c-0.107,0-0.429,0-0.643,0
				c-0.643,0.107-1.18,0.322-1.501,0.643c-0.429,0.429-0.536,0.965-0.536,1.394v3.86c-0.643,0.107-1.394,0.107-2.037,0.214v-7.506
				c0.536-0.107,1.072-0.107,1.609-0.107c0.107,0.429,0.214,0.858,0.322,1.18h0.107c0.214-0.429,0.536-0.858,0.965-1.18
				c0.429-0.322,0.858-0.429,1.287-0.536C35.391,25.554,35.606,25.554,35.82,25.554z"/>
		</g>
		<g id="XMLID_112_">
			<path id="XMLID_114_" class="st0" d="M28.743,29.737c-0.322-0.429-0.751-0.536-1.394-0.643v-0.107
				c0.429-0.107,0.858-0.429,1.072-0.858c0.322-0.429,0.429-0.965,0.429-1.501c0-0.858-0.322-1.394-0.965-1.823
				c-0.643-0.322-1.716-0.429-3.003-0.322c-1.072,0.107-2.037,0.214-3.003,0.322v9.866c1.18-0.107,2.466-0.214,3.753-0.322
				c1.18-0.107,1.93-0.429,2.681-1.072c0.643-0.643,0.965-1.287,0.965-2.252C29.065,30.487,28.957,30.058,28.743,29.737z
				 M23.81,26.412c0.429,0,0.751-0.107,1.18-0.107c0.643-0.107,1.072,0,1.287,0.107c0.322,0.107,0.429,0.429,0.429,0.751
				c0,0.429-0.107,0.643-0.429,0.965c-0.214,0.214-0.643,0.322-1.18,0.429c-0.429,0.107-0.858,0.107-1.18,0.107
				C23.81,28.664,23.81,26.412,23.81,26.412z M26.491,32.31c-0.322,0.214-0.643,0.429-1.287,0.429
				c-0.429,0.107-0.965,0.107-1.394,0.107v-2.681c0.429-0.107,0.858-0.107,1.287-0.107c1.18-0.107,1.716,0.214,1.716,1.072
				C26.92,31.667,26.813,31.989,26.491,32.31z"/>
		</g>
		<g id="XMLID_109_">
			<path id="XMLID_68_" class="st0" d="M17.269,19.549c0,1.18-2.681,2.145-6.005,2.037c-3.217-0.107-6.005-1.394-6.005-2.466
				c0-1.18,2.681-1.609,6.005-1.501C14.588,17.726,17.269,18.477,17.269,19.549z"/>
		</g>
	</g>
	<g id="XMLID_88_">
		<g id="XMLID_102_">
			<path id="XMLID_67_" class="st0" d="M57.16,0.676C41.611,1.212,26.062,5.609,10.62,1.963v4.504
				c2.466,0.322,5.147,0.536,8.043,0.536l0,0c5.898,0,12.118-0.643,18.016-1.394c4.933-0.643,10.08-1.18,15.12-1.394
				c1.072-0.107,2.252-0.107,3.324-0.107c5.04,0,9.544,0.429,13.833,1.394l1.609,0.429v3.003v23.163
				c1.072,0.107,2.252,0.429,3.324,0.643V9.04V1.963C68.313,0.676,62.736,0.354,57.16,0.676z"/>
		</g>
		<g id="XMLID_98_">
			<path id="XMLID_65_" class="st0" d="M51.798,6.252C41.504,6.681,31.209,8.719,20.915,9.04h-4.289
				c-3.753-0.107-7.506-0.536-11.26-1.394V9.04v3.003c2.788,0.429,5.576,0.643,8.686,0.643c5.898,0,12.118-0.643,18.016-1.394
				c4.933-0.643,10.08-1.18,15.12-1.394c1.18-0.107,2.252-0.107,3.324-0.107c5.04,0,9.544,0.429,13.833,1.394l1.609,0.429v26.273
				c0.965,0.107,1.716,0.322,2.681,0.536V9.04V7.646C62.951,6.252,57.375,6.038,51.798,6.252z"/>
		</g>
		<g id="XMLID_90_">
			<path id="XMLID_92_" class="st0" d="M14.052,45.929c-4.933,0-9.329-0.429-13.512-1.394c-0.214-0.107-0.429-0.214-0.429-0.429
				V13.222c0-0.107,0.107-0.322,0.107-0.429c0.214-0.107,0.429-0.107,0.536-0.107c4.075,0.965,8.364,1.394,13.19,1.394
				c6.005,0,12.225-0.643,18.23-1.394c4.933-0.643,9.973-1.18,15.013-1.394c6.327-0.214,11.689,0.107,16.836,1.394
				c0.214,0.107,0.429,0.214,0.429,0.429v30.777c0,0.107-0.107,0.322-0.107,0.429c-0.107,0.107-0.322,0.107-0.429,0.107
				c-4.075-0.965-8.364-1.394-13.19-1.394c-1.072,0-2.145,0-3.324,0.107c-4.933,0.214-10.08,0.751-14.906,1.394
				C26.276,45.179,20.057,45.929,14.052,45.929z M1.183,43.677c3.968,0.965,8.15,1.287,12.868,1.287
				c6.005,0,12.225-0.643,18.23-1.394c4.933-0.643,9.973-1.18,15.013-1.394c1.18-0.107,2.252-0.107,3.324-0.107
				c4.718,0,8.901,0.429,12.868,1.287V13.544c-4.826-1.072-10.08-1.501-16.085-1.287c-4.933,0.214-10.08,0.751-14.906,1.394
				c-6.005,0.643-12.225,1.394-18.23,1.394c-4.718,0-8.901-0.429-12.868-1.287L1.183,43.677L1.183,43.677z"/>
		</g>
	</g>
</g>
</svg>
