<?xml version="1.0" encoding="utf-8"?>
<!-- Generator: Adobe Illustrator 17.0.0, SVG Export Plug-In . SVG Version: 6.00 Build 0)  -->
<!DOCTYPE svg PUBLIC "-//W3C//DTD SVG 1.1//EN" "http://www.w3.org/Graphics/SVG/1.1/DTD/svg11.dtd" [
	<!ENTITY ns_flows "http://ns.adobe.com/Flows/1.0/">
	<!ENTITY ns_extend "http://ns.adobe.com/Extensibility/1.0/">
	<!ENTITY ns_ai "http://ns.adobe.com/AdobeIllustrator/10.0/">
	<!ENTITY ns_graphs "http://ns.adobe.com/Graphs/1.0/">
]>
<svg version="1.1" id="Слой_1" xmlns:x="&ns_extend;" xmlns:i="&ns_ai;" xmlns:graph="&ns_graphs;"
	 xmlns="http://www.w3.org/2000/svg" xmlns:xlink="http://www.w3.org/1999/xlink" xmlns:a="http://ns.adobe.com/AdobeSVGViewerExtensions/3.0/"
	 x="0px" y="0px" width="74px" height="60px" viewBox="0 0 74 60" style="enable-background:new 0 0 74 60;" xml:space="preserve">
<style type="text/css">
	.st0{fill:#2875D4;}
</style>
<g id="Layer_2">
	<g id="XMLID_119_">
		<path id="XMLID_120_" class="st0" d="M71.27,58.878H20.355c-1.448,0-2.654-1.207-2.654-2.654V25.94
			c0-1.448,1.207-2.654,2.654-2.654H71.27c1.448,0,2.654,1.207,2.654,2.654v30.284C73.924,57.793,72.718,58.878,71.27,58.878z
			 M20.355,24.372c-0.965,0-1.689,0.724-1.689,1.689v30.284c0,0.965,0.724,1.689,1.689,1.689H71.27c0.965,0,1.689-0.724,1.689-1.689
			V25.94c0-0.965-0.724-1.689-1.689-1.689L20.355,24.372L20.355,24.372z"/>
	</g>
	<g id="XMLID_117_">
		<path id="XMLID_60_" class="st0" d="M70.063,52.001c0,1.93-1.568,3.378-3.378,3.378c-0.483,0-1.086-0.121-1.568-0.362
			c1.086-0.603,1.689-1.689,1.689-3.016s-0.724-2.413-1.689-3.016c0.483-0.241,0.965-0.362,1.568-0.362
			C68.495,48.502,70.063,50.071,70.063,52.001z"/>
	</g>
	<g id="XMLID_115_">
		<path id="XMLID_59_" class="st0" d="M66.203,52.001c0,1.93-1.568,3.378-3.378,3.378c-1.81,0-3.378-1.568-3.378-3.378
			c0-1.81,1.568-3.378,3.378-3.378C64.634,48.623,66.203,50.071,66.203,52.001z"/>
	</g>
	<g id="XMLID_113_">
		<polygon id="XMLID_58_" class="st0" points="69.34,38.367 67.892,38.367 65.479,35.11 65.479,38.367 64.152,38.367 64.152,31.973 
			65.479,31.973 65.479,35.11 67.771,31.973 69.219,31.973 66.927,34.989 		"/>
	</g>
	<g id="XMLID_111_">
		<polygon id="XMLID_57_" class="st0" points="62.462,31.973 62.462,38.367 61.135,38.367 61.135,35.592 58.602,35.592 
			58.602,38.367 57.274,38.367 57.274,31.973 58.602,31.973 58.602,34.507 61.135,34.507 61.135,31.973 		"/>
	</g>
	<g id="XMLID_107_">
		<path id="XMLID_108_" class="st0" d="M54.258,31.973h-1.689l-2.292,6.395h1.448l0.483-1.568h2.413l0.483,1.568h1.448
			L54.258,31.973z M52.569,35.713c0.483-1.448,0.724-2.413,0.845-2.775c0,0.121,0.121,0.241,0.121,0.483
			c0.121,0.121,0.362,0.965,0.724,2.413L52.569,35.713L52.569,35.713z"/>
	</g>
	<g id="XMLID_103_">
		<path id="XMLID_104_" class="st0" d="M49.191,34.989c-0.483-0.362-1.086-0.483-1.93-0.483h-0.603v-1.448h2.654v-1.086H45.33v6.395
			h1.93c1.689,0,2.654-0.724,2.654-1.93C49.915,35.834,49.673,35.231,49.191,34.989z M48.105,37.04
			c-0.241,0.121-0.483,0.241-0.965,0.241h-0.483v-1.689h0.362c0.483,0,0.965,0.121,1.086,0.241c0.241,0.121,0.362,0.362,0.362,0.603
			C48.467,36.678,48.346,36.92,48.105,37.04z"/>
	</g>
	<g id="XMLID_101_">
		<path id="XMLID_52_" class="st0" d="M25.663,34.386c-0.121,0.241-0.121,0.483-0.121,0.603c0,0.241,0,0.483,0.121,0.603h-1.689
			v-1.327L25.663,34.386L25.663,34.386z"/>
	</g>
	<g id="XMLID_99_">
		<path id="XMLID_50_" class="st0" d="M26.87,32.697c-0.483,0.362-0.965,0.724-1.086,1.327h-1.689v-1.327H26.87z"/>
	</g>
	<g id="XMLID_97_">
		<path id="XMLID_49_" class="st0" d="M26.87,37.282h-2.896v-1.327h1.689C26.025,36.558,26.387,37.04,26.87,37.282z"/>
	</g>
	<g id="XMLID_95_">
		<path id="XMLID_48_" class="st0" d="M32.299,32.697v1.327H30.61c-0.241-0.483-0.603-0.965-1.086-1.327H32.299z"/>
	</g>
	<g id="XMLID_93_">
		<path id="XMLID_47_" class="st0" d="M32.299,34.386v1.327H30.61c0.121-0.241,0.121-0.362,0.121-0.603s0-0.483-0.121-0.603
			L32.299,34.386L32.299,34.386z"/>
	</g>
	<g id="XMLID_91_">
		<path id="XMLID_46_" class="st0" d="M32.299,36.075v1.327h-2.896c0.483-0.362,0.965-0.724,1.086-1.327H32.299z"/>
	</g>
	<g id="XMLID_89_">
		<path id="XMLID_45_" class="st0" d="M32.299,37.644c-0.121,0.483-0.603,0.845-1.086,0.845h-5.912
			c-0.483,0-0.965-0.362-1.086-0.845H32.299z"/>
	</g>
	<g id="XMLID_87_">
		<path id="XMLID_44_" class="st0" d="M30.007,36.075c-0.362,0.724-1.086,1.086-1.93,1.086c-0.845,0-1.568-0.483-1.93-1.086H30.007z
			"/>
	</g>
	<g id="XMLID_85_">
		<path id="XMLID_42_" class="st0" d="M30.248,34.989c0,0.241,0,0.483-0.121,0.603h-3.982c-0.121-0.241-0.121-0.362-0.121-0.603
			s0-0.483,0.121-0.603h4.102C30.248,34.627,30.248,34.748,30.248,34.989z"/>
	</g>
	<g id="XMLID_83_">
		<path id="XMLID_41_" class="st0" d="M30.007,34.024h-3.74c0.362-0.724,1.086-1.086,1.93-1.086S29.645,33.3,30.007,34.024z"/>
	</g>
	<g id="XMLID_81_">
		<path id="XMLID_40_" class="st0" d="M32.299,32.335h-8.204c0.121-0.483,0.603-0.845,1.086-0.845h5.912
			C31.696,31.49,32.058,31.852,32.299,32.335z"/>
	</g>
	<g id="XMLID_79_">
		<polygon id="XMLID_39_" class="st0" points="4.791,34.748 18.183,26.423 18.183,34.627 8.531,40.781 		"/>
	</g>
	<g id="XMLID_77_">
		<polygon id="XMLID_37_" class="st0" points="53.413,12.548 35.557,23.769 22.406,23.769 49.794,6.636 		"/>
	</g>
	<g id="XMLID_73_">
		<path id="XMLID_74_" class="st0" d="M16.735,56.586L16.735,56.586c-0.241,0-0.362-0.121-0.362-0.241L0.447,31.008
			c-0.724-1.207-0.362-2.896,0.845-3.62L44.606,0.362C45.088,0.121,45.571,0,45.933,0c0.965,0,1.689,0.483,2.172,1.207L61.256,22.2
			c0.121,0.241,0.121,0.483-0.121,0.724l-1.81,1.327c-0.121,0.121-0.241,0.121-0.362,0.121H20.234c-0.965,0-1.689,0.724-1.689,1.689
			v29.077c0,0.121-0.121,0.362-0.241,0.362l-1.327,1.086C16.976,56.586,16.856,56.586,16.735,56.586z M45.933,0.845
			c-0.362,0-0.603,0.121-0.965,0.241L1.895,28.233c-0.724,0.483-0.965,1.568-0.483,2.292L16.976,55.5l0.724-0.724V25.94
			c0-1.448,1.207-2.654,2.654-2.654h38.488l1.327-0.965L47.26,1.689C47.019,1.207,46.416,0.845,45.933,0.845z"/>
	</g>
	<g id="XMLID_69_">
		<path id="XMLID_70_" class="st0" d="M16.735,56.586L16.735,56.586c-0.241,0-0.362-0.121-0.362-0.241L0.447,31.008
			c-0.724-1.207-0.362-2.896,0.845-3.62L44.606,0.362C45.088,0.121,45.571,0,45.933,0c0.965,0,1.689,0.483,2.172,1.207L61.256,22.2
			c0.121,0.241,0.121,0.483-0.121,0.724l-1.81,1.327c-0.121,0.121-0.241,0.121-0.362,0.121H20.234c-0.965,0-1.689,0.724-1.689,1.689
			v29.077c0,0.121-0.121,0.362-0.241,0.362l-1.327,1.086C16.976,56.586,16.856,56.586,16.735,56.586z M45.933,0.845
			c-0.362,0-0.603,0.121-0.965,0.241L1.895,28.233c-0.724,0.483-0.965,1.568-0.483,2.292L16.976,55.5l0.724-0.724V25.94
			c0-1.448,1.207-2.654,2.654-2.654h38.488l1.327-0.965L47.26,1.689C47.019,1.207,46.416,0.845,45.933,0.845z"/>
	</g>
</g>
</svg>
