<?xml version="1.0" encoding="utf-8"?>
<!-- Generator: Adobe Illustrator 17.0.0, SVG Export Plug-In . SVG Version: 6.00 Build 0)  -->
<!DOCTYPE svg PUBLIC "-//W3C//DTD SVG 1.1//EN" "http://www.w3.org/Graphics/SVG/1.1/DTD/svg11.dtd" [
	<!ENTITY ns_flows "http://ns.adobe.com/Flows/1.0/">
	<!ENTITY ns_extend "http://ns.adobe.com/Extensibility/1.0/">
	<!ENTITY ns_ai "http://ns.adobe.com/AdobeIllustrator/10.0/">
	<!ENTITY ns_graphs "http://ns.adobe.com/Graphs/1.0/">
]>
<svg version="1.1" id="Слой_1" xmlns:x="&ns_extend;" xmlns:i="&ns_ai;" xmlns:graph="&ns_graphs;"
	 xmlns="http://www.w3.org/2000/svg" xmlns:xlink="http://www.w3.org/1999/xlink" xmlns:a="http://ns.adobe.com/AdobeSVGViewerExtensions/3.0/"
	 x="0px" y="0px" width="74px" height="60px" viewBox="0 0 74 60" style="enable-background:new 0 0 74 60;" xml:space="preserve">
<style type="text/css">
	.st0{fill:#2875D4;}
	.st1{fill:#6099DF;}
</style>
<g id="Layer_1">
	<g id="XMLID_2530_">
		<g id="XMLID_36_">
			<path id="XMLID_31_" class="st0" d="M11.994,22.788L11.994,22.788H4.835l-1.109,5.949h9.377
				C12.498,26.72,12.095,24.804,11.994,22.788z"/>
			<path id="XMLID_30_" class="st0" d="M16.632,28.636L16.632,28.636c-0.605-1.916-1.008-3.832-1.109-5.949h-0.605
				c0-0.302,0-0.706,0-1.008C14.817,10.789,23.69,1.916,34.681,1.916c10.89,0,19.763,8.873,19.763,19.863c0,0.302,0,0.706,0,1.008
				c0,0.504-0.101,1.008-0.101,1.512c-0.101,0.504-0.101,1.008-0.302,1.512c-0.101,0.504-0.202,1.008-0.403,1.412
				c-0.101,0.504-0.302,0.907-0.504,1.412l0,0h1.21h0.807v-0.101c0.605-1.916,1.008-3.832,1.109-5.848l0,0c0-0.302,0-0.706,0-1.008
				C56.46,9.68,46.68,0,34.681,0S12.902,9.78,12.902,21.779c0,0.302,0,0.706,0,1.008l0,0c0.101,2.017,0.504,3.932,1.109,5.848v0.101
				h2.017L16.632,28.636L16.632,28.636z"/>
			<path id="XMLID_66_" class="st0" d="M9.776,32.467c-1.109,0-2.319,0.807-2.924,1.412c-0.403,0.302-0.605,0.605-0.605,0.605
				l0.302-1.815H3.121l-3.126,16.435h4.033l1.008-5.243c2.117,2.117,7.865,0.403,8.772-5.041
				C14.616,32.971,11.288,32.467,9.776,32.467z M9.373,39.424c-0.605,1.613-1.815,2.622-2.622,2.319
				c-0.907-0.302-1.109-1.916-0.504-3.428c0.605-1.613,1.714-2.722,2.622-2.319C9.675,36.198,9.877,37.811,9.373,39.424z"/>
			<path id="XMLID_27_" class="st0" d="M57.368,22.788L57.368,22.788c-0.101,2.017-0.403,4.033-1.109,5.949h16.637l1.109-5.949
				H57.368L57.368,22.788z"/>
			<path id="XMLID_51_" class="st0" d="M36.193,4.941l-2.521,17.847l-0.807,5.949h17.242c0.807-1.815,1.311-3.832,1.512-5.949
				c0-0.302,0-0.706,0-1.008C51.519,12.906,44.764,5.646,36.193,4.941z M37.403,5.747c0.101,0,0.101,0,0.101,0h0.101
				c0.605,0.202,1.714,0.504,2.924,1.008c0,0,0,0,0.101,0l-1.21,4.134c-1.109-0.403-2.017-0.706-2.521-0.807L37.403,5.747z
				 M36.798,17.847c-0.605-0.202-1.109-0.403-1.412-0.504l0.302-2.319h0.101l0,0c0.302,0.101,0.907,0.202,1.512,0.504l0,0
				L36.798,17.847z M37.504,18.149L37.504,18.149l0.907-2.117c0,0,0,0,0.101,0c0.403,0.202,0.907,0.504,1.311,0.907l-1.109,1.916
				C38.311,18.653,37.907,18.351,37.504,18.149z M39.218,19.258l1.311-1.613c0.302,0.302,0.504,0.605,0.807,0.907l0,0l-1.21,1.412
				C39.823,19.763,39.521,19.46,39.218,19.258z M40.63,20.67l1.311-1.109l0,0c0,0,0,0,0,0.101c0.101,0.302,0.302,0.605,0.403,0.907
				l-1.21,1.008C41.033,21.275,40.832,20.973,40.63,20.67z M41.739,22.989c-0.101-0.302-0.101-0.504-0.202-0.706l1.109-0.807
				c0.101,0.202,0.101,0.504,0.202,0.706c0,0.101,0,0.101,0,0.202L41.739,22.989L41.739,22.989z M41.941,24.199
				c0-0.202,0-0.403-0.101-0.605l0,0l1.109-0.403c0,0.202,0,0.504,0,0.807v0.101L41.941,24.199z M40.63,11.495l1.714-3.932
				c0,0,0.101,0,0.101,0.101c0.807,0.403,1.714,1.008,2.521,1.613l-2.017,3.529C42.142,12.301,41.437,11.898,40.63,11.495z
				 M50.814,22.183v0.202l-2.017,0.302c0-0.403-0.101-0.706-0.101-1.109l0,0c0.101,0,2.017-0.706,2.017-0.706
				C50.713,21.174,50.814,21.678,50.814,22.183z M50.511,18.855c0,0.101,0,0.202,0.101,0.403l-2.017,1.21v-0.101
				c-0.101-0.504-0.302-0.907-0.403-1.412l2.117-1.412C50.31,17.948,50.41,18.351,50.511,18.855z M48.898,14.116
				c0.302,0.504,0.504,1.109,0.706,1.714l-2.218,1.916c-0.302-0.605-0.605-1.109-1.008-1.613l2.319-2.117
				C48.898,14.116,48.898,14.116,48.898,14.116z M47.789,12.402l-2.319,2.622c-0.504-0.504-1.109-1.008-1.613-1.512l2.42-2.924
				C46.881,11.091,47.285,11.696,47.789,12.402C47.789,12.301,47.789,12.402,47.789,12.402z"/>
			<path id="XMLID_13_" class="st0" d="M29.841,9.982l0.605,3.227c0.202-0.101,0.403-0.101,0.605-0.101c0.101,0,0.202,0,0.202,0
				s0.605-0.101,1.311-0.202l0,0L32.261,9.68c-1.109,0.101-2.017,0.403-2.017,0.403C30.144,9.881,29.942,9.881,29.841,9.982z"/>
			<path id="XMLID_12_" class="st0" d="M28.833,13.713c0,0,0.101,0,0.101-0.101l-1.109-3.025c-0.403,0.202-0.807,0.403-1.21,0.605
				c-0.302,0.101-0.504,0.302-0.807,0.504l1.412,2.823c0.302-0.101,0.504-0.302,0.706-0.403
				C28.228,14.015,28.53,13.915,28.833,13.713z"/>
			<path id="XMLID_11_" class="st0" d="M25.505,15.629c0.101-0.101,0.302-0.202,0.403-0.302l-1.815-2.319
				c-0.101,0.101-0.302,0.202-0.403,0.403c-0.302,0.302-0.605,0.706-0.907,1.109l1.916,1.916
				C24.9,16.133,25.203,15.931,25.505,15.629z"/>
			<path id="XMLID_10_" class="st0" d="M22.985,18.653c0.202-0.302,0.403-0.605,0.605-0.907c0,0,0,0,0-0.101l-1.916-1.311
				c-0.202,0.302-0.302,0.706-0.504,1.109c0,0.101,0,0.101-0.101,0.202L22.985,18.653C22.884,18.653,22.985,18.653,22.985,18.653z"
				/>
			<path id="XMLID_9_" class="st0" d="M20.363,21.174l1.512,0.302c0-0.202,0.101-0.403,0.101-0.605c0-0.101,0.101-0.202,0.101-0.302
				l-1.613-0.403C20.464,20.468,20.363,20.771,20.363,21.174z"/>
			<path id="XMLID_43_" class="st0" d="M19.153,32.971c-3.227,1.512-7.159,7.461-2.823,11.293c0.907,0.807,4.033,0.706,5.445-1.815
				v1.815h3.832c0,0,0.706-9.176,1.613-11.394C27.119,32.87,22.178,31.56,19.153,32.971z M22.077,38.92
				c-0.504,1.714-1.613,2.924-2.823,2.42c-0.807-0.403-0.706-2.017,0-3.63c0.807-1.613,1.714-2.319,2.823-2.319
				C22.884,35.391,22.682,37.105,22.077,38.92z"/>
			<path id="XMLID_6_" class="st0" d="M27.724,37.105c-2.017,6.352,2.924,7.562,4.84,7.562c1.916,0,2.924-0.605,2.924-0.605
				s0-0.907,0-3.227c-5.646,2.017-4.033-3.529-2.722-4.638c1.311-1.109,3.731-0.605,3.731-0.605l0.907-3.126
				C37.302,32.568,29.639,30.753,27.724,37.105z"/>
			<path id="XMLID_5_" class="st0" d="M44.26,37.509c-0.302,0.302-1.512,0.605-2.42,0c-0.706-0.403,0.403-4.84,0.403-4.84h-3.731
				c-2.319,7.764,0.605,7.966,2.622,7.966c2.218,0,2.924-0.706,2.924-0.706l-0.706,4.134h3.832L49.2,32.669h-3.832
				C45.268,32.77,44.562,37.206,44.26,37.509z"/>
			<path id="XMLID_38_" class="st0" d="M56.561,32.366c-0.504,0-6.05-0.403-6.756,7.461c-0.605,6.756,9.579,4.033,9.579,4.033
				v-2.823c0,0-1.916,0.907-3.428,0.907c-1.512,0-2.622-0.202-2.521-1.714c0,0,7.159,0.706,7.461-3.731
				C61.098,31.963,56.863,32.366,56.561,32.366z M57.267,36.198c-0.302,1.512-3.428,1.008-3.428,1.008
				C54.242,34.988,57.569,34.786,57.267,36.198z"/>
			<polygon id="XMLID_2_" class="st0" points="68.56,32.77 65.131,32.77 65.131,32.77 61.804,32.77 61.502,33.98 61.199,35.694 
				64.527,35.694 62.913,44.163 66.442,44.163 66.442,44.063 68.056,35.694 71.383,35.694 71.887,32.77 			"/>
		</g>
		<g id="XMLID_2585_">
			<path id="XMLID_1_" class="st1" d="M54.444,21.678c0,0.302,0,0.706,0,1.008c0,0.504-0.101,1.008-0.101,1.512
				c-0.101,0.504-0.202,1.008-0.302,1.512c-0.202,1.008-0.504,1.916-0.807,2.924h-3.227c0.807-1.815,1.311-3.832,1.512-5.949
				c0-0.302,0-0.706,0-1.008c0-8.772-6.756-16.032-15.326-16.738c-0.504,0-1.008-0.101-1.512-0.101
				c-9.276,0-16.839,7.562-16.839,16.839c0,0.302,0,0.706,0,1.008c0.101,2.117,0.605,4.134,1.512,5.949h-3.227
				c-0.302-0.907-0.605-1.916-0.807-2.924c-0.101-0.504-0.202-1.008-0.302-1.512s-0.101-1.008-0.101-1.512c0-0.302,0-0.706,0-1.008
				C14.817,10.789,23.69,1.916,34.681,1.916C45.571,1.916,54.444,10.789,54.444,21.678z"/>
		</g>
	</g>
</g>
</svg>
