<?xml version="1.0" encoding="utf-8"?>
<!-- Generator: Adobe Illustrator 17.0.0, SVG Export Plug-In . SVG Version: 6.00 Build 0)  -->
<!DOCTYPE svg PUBLIC "-//W3C//DTD SVG 1.1//EN" "http://www.w3.org/Graphics/SVG/1.1/DTD/svg11.dtd">
<svg version="1.1" id="Слой_1" xmlns="http://www.w3.org/2000/svg" xmlns:xlink="http://www.w3.org/1999/xlink" x="0px" y="0px"
	 width="26px" height="40px" viewBox="0 0 26 40" enable-background="new 0 0 26 40" xml:space="preserve">
<g id="XMLID_11541_">
	<g id="XMLID_11545_">
		<g id="XMLID_11546_" enable-background="new    ">
			<g id="XMLID_11721_">
				<g id="XMLID_11722_">
					<rect id="XMLID_11723_" x="1.867" y="7.583" fill="#143B6B" width="1.171" height="9.543"/>
				</g>
			</g>
			<g id="XMLID_11718_">
				<g id="XMLID_11719_">
					<rect id="XMLID_11720_" x="6.411" y="5.895" fill="#808080" width="1.171" height="16.247"/>
				</g>
			</g>
			<g id="XMLID_11712_" enable-background="new    ">
				<defs>
					<path id="XMLID_11717_" enable-background="new    " d="M7.009,2.373h1.172c-1.424,0-2.703,0.583-3.636,1.531
						C3.612,4.85,3.038,6.15,3.038,7.583H1.867c0-1.433,0.574-2.733,1.507-3.679C4.307,2.956,5.586,2.373,7.009,2.373z"/>
				</defs>
				<clipPath id="XMLID_3_">
					<use xlink:href="#XMLID_11717_"  overflow="visible"/>
				</clipPath>
				<g id="XMLID_11713_" clip-path="url(#XMLID_3_)" enable-background="new    ">
					<g id="XMLID_11714_">
						<path id="XMLID_11715_" fill="#153D6E" d="M7.009,2.373h1.172c-1.424,0-2.703,0.583-3.636,1.531
							C3.612,4.85,3.038,6.15,3.038,7.583H1.867c0-1.433,0.574-2.733,1.507-3.679C4.307,2.956,5.586,2.373,7.009,2.373"/>
					</g>
				</g>
			</g>
			<g id="XMLID_11706_" enable-background="new    ">
				<defs>
					<path id="XMLID_11711_" enable-background="new    " d="M6.411,22.142h1.171c0,0.182,0.072,0.352,0.204,0.485
						c0.119,0.121,0.287,0.194,0.466,0.194H7.081c-0.18,0-0.348-0.073-0.467-0.194C6.482,22.494,6.411,22.324,6.411,22.142z"/>
				</defs>
				<clipPath id="XMLID_4_">
					<use xlink:href="#XMLID_11711_"  overflow="visible"/>
				</clipPath>
				<g id="XMLID_11707_" clip-path="url(#XMLID_4_)" enable-background="new    ">
					<g id="XMLID_11708_">
						<path id="XMLID_11709_" fill="#858585" d="M6.411,22.142h1.171c0,0.182,0.072,0.352,0.204,0.485
							c0.119,0.121,0.287,0.194,0.466,0.194H7.081c-0.18,0-0.348-0.073-0.467-0.194C6.482,22.494,6.411,22.324,6.411,22.142"/>
					</g>
				</g>
			</g>
			<g id="XMLID_11700_" enable-background="new    ">
				<defs>
					<path id="XMLID_11705_" enable-background="new    " d="M7.081,5.215h1.171c-0.179,0-0.347,0.073-0.466,0.194
						C7.654,5.543,7.582,5.713,7.582,5.895H6.411c0-0.183,0.071-0.353,0.203-0.486C6.733,5.288,6.901,5.215,7.081,5.215z"/>
				</defs>
				<clipPath id="XMLID_5_">
					<use xlink:href="#XMLID_11705_"  overflow="visible"/>
				</clipPath>
				<g id="XMLID_11701_" clip-path="url(#XMLID_5_)" enable-background="new    ">
					<g id="XMLID_11702_">
						<path id="XMLID_11703_" fill="#858585" d="M7.081,5.215h1.171c-0.179,0-0.347,0.073-0.466,0.194
							C7.654,5.543,7.582,5.713,7.582,5.895H6.411c0-0.183,0.071-0.353,0.203-0.486C6.733,5.288,6.901,5.215,7.081,5.215"/>
					</g>
				</g>
			</g>
			<g id="XMLID_11697_">
				<g id="XMLID_11698_">
					<rect id="XMLID_11699_" x="7.738" y="6.563" fill="#143B6B" width="1.171" height="14.912"/>
				</g>
			</g>
			<g id="XMLID_11691_" enable-background="new    ">
				<defs>
					<path id="XMLID_11696_" enable-background="new    " d="M1.867,17.127h1.171c0,4.736,3.037,8.743,7.224,10.164H9.09
						C4.904,25.869,1.867,21.863,1.867,17.127z"/>
				</defs>
				<clipPath id="XMLID_6_">
					<use xlink:href="#XMLID_11696_"  overflow="visible"/>
				</clipPath>
				<g id="XMLID_11692_" clip-path="url(#XMLID_6_)" enable-background="new    ">
					<g id="XMLID_11693_">
						<path id="XMLID_11694_" fill="#153D6E" d="M1.867,17.127h1.171c0,4.736,3.037,8.743,7.224,10.164H9.09
							C4.904,25.869,1.867,21.863,1.867,17.127"/>
					</g>
				</g>
			</g>
			<g id="XMLID_11685_" enable-background="new    ">
				<defs>
					<path id="XMLID_11690_" enable-background="new    " d="M9.09,27.291h1.172c0.202,0.06,0.358,0.219,0.418,0.425H9.509
						C9.448,27.51,9.293,27.351,9.09,27.291z"/>
				</defs>
				<clipPath id="XMLID_7_">
					<use xlink:href="#XMLID_11690_"  overflow="visible"/>
				</clipPath>
				<g id="XMLID_11686_" clip-path="url(#XMLID_7_)" enable-background="new    ">
					<g id="XMLID_11687_">
						<path id="XMLID_11688_" fill="#153D6E" d="M9.09,27.291h1.172c0.202,0.06,0.358,0.219,0.418,0.425H9.509
							C9.448,27.51,9.293,27.351,9.09,27.291"/>
					</g>
				</g>
			</g>
			<g id="XMLID_11682_">
				<g id="XMLID_11683_">
					<polygon id="XMLID_11684_" fill="#808080" points="11.589,14.019 12.76,14.019 12.94,14.213 11.768,14.213 					"/>
				</g>
			</g>
			<g id="XMLID_11679_">
				<g id="XMLID_11680_">
					<polygon id="XMLID_11681_" fill="#808080" points="11.768,13.825 12.94,13.825 12.76,14.019 11.589,14.019 					"/>
				</g>
			</g>
			<g id="XMLID_11676_">
				<g id="XMLID_11677_">
					<polygon id="XMLID_11678_" fill="#143B6B" points="9.509,27.716 10.68,27.716 13.586,36.325 12.414,36.325 					"/>
				</g>
			</g>
			<g id="XMLID_11673_">
				<g id="XMLID_11674_">
					<rect id="XMLID_11675_" x="14.495" y="13.825" fill="#143B6B" width="1.171" height="0.388"/>
				</g>
			</g>
			<g id="XMLID_11667_" enable-background="new    ">
				<defs>
					<path id="XMLID_11672_" enable-background="new    " d="M13.538,14.31h1.171c0.12,0.449,0.515,0.765,1.005,0.765h-1.171
						C14.052,15.075,13.657,14.759,13.538,14.31z"/>
				</defs>
				<clipPath id="XMLID_8_">
					<use xlink:href="#XMLID_11672_"  overflow="visible"/>
				</clipPath>
				<g id="XMLID_11668_" clip-path="url(#XMLID_8_)" enable-background="new    ">
					<g id="XMLID_11669_">
						<path id="XMLID_11670_" fill="#858585" d="M13.538,14.31h1.171c0.12,0.449,0.515,0.765,1.005,0.765h-1.171
							C14.052,15.075,13.657,14.759,13.538,14.31"/>
					</g>
				</g>
			</g>
			<g id="XMLID_11661_" enable-background="new    ">
				<defs>
					<path id="XMLID_11666_" enable-background="new    " d="M15.714,12.95c-0.49,0-0.885,0.327-1.005,0.776h-1.171
						c0.119-0.449,0.514-0.776,1.005-0.776C14.894,12.95,15.362,12.95,15.714,12.95z"/>
				</defs>
				<clipPath id="XMLID_9_">
					<use xlink:href="#XMLID_11666_"  overflow="visible"/>
				</clipPath>
				<g id="XMLID_11662_" clip-path="url(#XMLID_9_)" enable-background="new    ">
					<g id="XMLID_11663_">
						<path id="XMLID_11664_" fill="#858585" d="M14.543,12.95h1.171c-0.49,0-0.885,0.327-1.005,0.776h-1.171
							C13.657,13.278,14.052,12.95,14.543,12.95"/>
					</g>
				</g>
			</g>
			<g id="XMLID_11658_">
				<g id="XMLID_11659_">
					<rect id="XMLID_11660_" x="14.59" y="13.727" fill="#808080" width="1.172" height="0.583"/>
				</g>
			</g>
			<g id="XMLID_11652_" enable-background="new    ">
				<defs>
					<path id="XMLID_11657_" enable-background="new    " d="M14.543,12.95h1.171c0.574,0,1.04,0.473,1.04,1.068
						c0,0.583-0.466,1.056-1.04,1.056h-1.171c0.573,0,1.04-0.474,1.04-1.056C15.583,13.423,15.116,12.95,14.543,12.95z"/>
				</defs>
				<clipPath id="XMLID_10_">
					<use xlink:href="#XMLID_11657_"  overflow="visible"/>
				</clipPath>
				<g id="XMLID_11653_" clip-path="url(#XMLID_10_)" enable-background="new    ">
					<g id="XMLID_11654_">
						<path id="XMLID_11655_" fill="#153D6E" d="M14.543,12.95h1.171c0.574,0,1.04,0.473,1.04,1.068c0,0.583-0.466,1.056-1.04,1.056
							h-1.171c0.573,0,1.04-0.474,1.04-1.056C15.583,13.423,15.116,12.95,14.543,12.95"/>
					</g>
				</g>
			</g>
			<g id="XMLID_11646_">
				<g id="XMLID_11647_">
					<path id="XMLID_11648_" fill="#FFFFFF" d="M7.738,6.563h9.352v14.912H7.738V6.563z M14.543,15.075
						c0.573,0,1.04-0.474,1.04-1.056c0-0.596-0.467-1.068-1.04-1.068c-0.491,0-0.886,0.327-1.005,0.776h1.052v0.583h-1.052
						C13.657,14.759,14.052,15.075,14.543,15.075 M11.589,14.019l0.179,0.194h2.728v-0.388h-2.728L11.589,14.019"/>
				</g>
			</g>
			<g id="XMLID_11643_">
				<g id="XMLID_11644_">
					<polygon id="XMLID_11645_" fill="#808080" points="15.32,27.716 16.491,27.716 13.586,36.325 12.414,36.325 					"/>
				</g>
			</g>
			<g id="XMLID_11637_" enable-background="new    ">
				<defs>
					<path id="XMLID_11642_" enable-background="new    " d="M15.738,27.291h1.172c-0.204,0.06-0.347,0.219-0.419,0.425H15.32
						C15.392,27.51,15.535,27.351,15.738,27.291z"/>
				</defs>
				<clipPath id="XMLID_11_">
					<use xlink:href="#XMLID_11642_"  overflow="visible"/>
				</clipPath>
				<g id="XMLID_11638_" clip-path="url(#XMLID_11_)" enable-background="new    ">
					<g id="XMLID_11639_">
						<path id="XMLID_11640_" fill="#858585" d="M15.738,27.291h1.172c-0.204,0.06-0.347,0.219-0.419,0.425H15.32
							C15.392,27.51,15.535,27.351,15.738,27.291"/>
					</g>
				</g>
			</g>
			<g id="XMLID_11634_">
				<g id="XMLID_11635_">
					<rect id="XMLID_11636_" x="17.09" y="6.563" fill="#808080" width="1.171" height="14.912"/>
				</g>
			</g>
			<g id="XMLID_11631_">
				<g id="XMLID_11632_">
					<polygon id="XMLID_11633_" fill="#808080" points="7.081,22.822 8.252,22.822 18.931,22.822 17.76,22.822 					"/>
				</g>
			</g>
			<g id="XMLID_11628_">
				<g id="XMLID_11629_">
					<polygon id="XMLID_11630_" fill="#143B6A" points="7.081,5.215 8.252,5.215 18.931,5.215 17.76,5.215 					"/>
				</g>
			</g>
			<g id="XMLID_11625_">
				<g id="XMLID_11626_">
					<polygon id="XMLID_11627_" fill="#808080" points="7.009,2.373 8.181,2.373 19.003,2.373 17.831,2.373 					"/>
				</g>
			</g>
			<g id="XMLID_11619_" enable-background="new    ">
				<defs>
					<path id="XMLID_11624_" enable-background="new    " d="M18.226,22.628h1.172c-0.132,0.121-0.299,0.194-0.467,0.194H17.76
						C17.927,22.822,18.095,22.749,18.226,22.628z"/>
				</defs>
				<clipPath id="XMLID_12_">
					<use xlink:href="#XMLID_11624_"  overflow="visible"/>
				</clipPath>
				<g id="XMLID_11620_" clip-path="url(#XMLID_12_)" enable-background="new    ">
					<g id="XMLID_11621_">
						<path id="XMLID_11622_" fill="#153D6E" d="M18.226,22.628h1.172c-0.132,0.121-0.299,0.194-0.467,0.194H17.76
							C17.927,22.822,18.095,22.749,18.226,22.628"/>
					</g>
				</g>
			</g>
			<g id="XMLID_11613_" enable-background="new    ">
				<defs>
					<path id="XMLID_11618_" enable-background="new    " d="M17.76,5.215h1.171c0.168,0,0.335,0.073,0.467,0.194h-1.172
						C18.095,5.288,17.927,5.215,17.76,5.215z"/>
				</defs>
				<clipPath id="XMLID_13_">
					<use xlink:href="#XMLID_11618_"  overflow="visible"/>
				</clipPath>
				<g id="XMLID_11614_" clip-path="url(#XMLID_13_)" enable-background="new    ">
					<g id="XMLID_11615_">
						<path id="XMLID_11616_" fill="#153D6E" d="M17.76,5.215h1.171c0.168,0,0.335,0.073,0.467,0.194h-1.172
							C18.095,5.288,17.927,5.215,17.76,5.215"/>
					</g>
				</g>
			</g>
			<g id="XMLID_11607_" enable-background="new    ">
				<defs>
					<path id="XMLID_11612_" enable-background="new    " d="M18.417,22.142h1.172c0,0.182-0.072,0.352-0.191,0.485h-1.172
						C18.346,22.494,18.417,22.324,18.417,22.142z"/>
				</defs>
				<clipPath id="XMLID_14_">
					<use xlink:href="#XMLID_11612_"  overflow="visible"/>
				</clipPath>
				<g id="XMLID_11608_" clip-path="url(#XMLID_14_)" enable-background="new    ">
					<g id="XMLID_11609_">
						<path id="XMLID_11610_" fill="#153D6E" d="M18.417,22.142h1.172c0,0.182-0.072,0.352-0.191,0.485h-1.172
							C18.346,22.494,18.417,22.324,18.417,22.142"/>
					</g>
				</g>
			</g>
			<g id="XMLID_11604_">
				<g id="XMLID_11605_">
					<rect id="XMLID_11606_" x="18.417" y="5.895" fill="#143B6B" width="1.172" height="16.247"/>
				</g>
			</g>
			<g id="XMLID_11598_" enable-background="new    ">
				<defs>
					<path id="XMLID_11603_" enable-background="new    " d="M18.226,5.409h1.172c0.119,0.134,0.191,0.304,0.191,0.486h-1.172
						C18.417,5.713,18.346,5.543,18.226,5.409z"/>
				</defs>
				<clipPath id="XMLID_15_">
					<use xlink:href="#XMLID_11603_"  overflow="visible"/>
				</clipPath>
				<g id="XMLID_11599_" clip-path="url(#XMLID_15_)" enable-background="new    ">
					<g id="XMLID_11600_">
						<path id="XMLID_11601_" fill="#153D6E" d="M18.226,5.409h1.172c0.119,0.134,0.191,0.304,0.191,0.486h-1.172
							C18.417,5.713,18.346,5.543,18.226,5.409"/>
					</g>
				</g>
			</g>
			<g id="XMLID_11592_" enable-background="new    ">
				<defs>
					<path id="XMLID_11597_" enable-background="new    " d="M17.831,2.373h1.172c1.411,0,2.69,0.583,3.623,1.531h-1.171
						C20.521,2.956,19.242,2.373,17.831,2.373z"/>
				</defs>
				<clipPath id="XMLID_16_">
					<use xlink:href="#XMLID_11597_"  overflow="visible"/>
				</clipPath>
				<g id="XMLID_11593_" clip-path="url(#XMLID_16_)" enable-background="new    ">
					<g id="XMLID_11594_">
						<path id="XMLID_11595_" fill="#858585" d="M17.831,2.373h1.172c1.411,0,2.69,0.583,3.623,1.531h-1.171
							C20.521,2.956,19.242,2.373,17.831,2.373"/>
					</g>
				</g>
			</g>
			<g id="XMLID_11586_" enable-background="new    ">
				<defs>
					<path id="XMLID_11591_" enable-background="new    " d="M22.961,17.127h1.172c0,4.736-3.026,8.743-7.223,10.164h-1.172
						C19.936,25.869,22.961,21.863,22.961,17.127z"/>
				</defs>
				<clipPath id="XMLID_17_">
					<use xlink:href="#XMLID_11591_"  overflow="visible"/>
				</clipPath>
				<g id="XMLID_11587_" clip-path="url(#XMLID_17_)" enable-background="new    ">
					<g id="XMLID_11588_">
						<path id="XMLID_11589_" fill="#858585" d="M22.961,17.127h1.172c0,4.736-3.026,8.743-7.223,10.164h-1.172
							C19.936,25.869,22.961,21.863,22.961,17.127"/>
					</g>
				</g>
			</g>
			<g id="XMLID_11583_">
				<g id="XMLID_11584_">
					<rect id="XMLID_11585_" x="22.961" y="7.583" fill="#808080" width="1.172" height="9.543"/>
				</g>
			</g>
			<g id="XMLID_11577_" enable-background="new    ">
				<defs>
					<path id="XMLID_11582_" enable-background="new    " d="M21.455,3.904h1.171c0.933,0.946,1.507,2.246,1.507,3.679h-1.172
						C22.961,6.15,22.387,4.85,21.455,3.904z"/>
				</defs>
				<clipPath id="XMLID_18_">
					<use xlink:href="#XMLID_11582_"  overflow="visible"/>
				</clipPath>
				<g id="XMLID_11578_" clip-path="url(#XMLID_18_)" enable-background="new    ">
					<g id="XMLID_11579_">
						<path id="XMLID_11580_" fill="#858585" d="M21.455,3.904h1.171c0.933,0.946,1.507,2.246,1.507,3.679h-1.172
							C22.961,6.15,22.387,4.85,21.455,3.904"/>
					</g>
				</g>
			</g>
			<g id="XMLID_11575_">
				<path id="XMLID_11576_" fill="none" d="M24.289,17.127h1.171c0,5.21-3.256,9.643-7.813,11.326h-1.172
					C21.032,26.769,24.289,22.337,24.289,17.127z"/>
			</g>
			<g id="XMLID_11572_">
				<g id="XMLID_11573_">
					<polygon id="XMLID_11574_" fill="#2875D4" points="14.495,13.825 14.495,14.213 11.769,14.213 11.589,14.019 11.769,13.825 
											"/>
				</g>
			</g>
			<g id="XMLID_11567_">
				<g id="XMLID_11568_">
					<path id="XMLID_11569_" fill="#2875D4" d="M18.226,5.409c0.12,0.134,0.191,0.304,0.191,0.486v16.247
						c0,0.182-0.071,0.352-0.191,0.485c-0.131,0.121-0.299,0.194-0.466,0.194H7.081c-0.18,0-0.348-0.073-0.467-0.194
						c-0.132-0.134-0.203-0.304-0.203-0.485V5.895c0-0.183,0.071-0.353,0.203-0.486c0.119-0.121,0.287-0.194,0.467-0.194H17.76
						C17.927,5.215,18.095,5.288,18.226,5.409z M17.09,21.474V6.563H7.738v14.912H17.09"/>
				</g>
			</g>
			<g id="XMLID_11562_">
				<g id="XMLID_11563_">
					<path id="XMLID_11564_" fill="#FFFFFF" d="M21.455,3.904c0.932,0.946,1.506,2.246,1.506,3.679v9.544
						c0,4.736-3.025,8.743-7.223,10.164c-0.203,0.06-0.347,0.219-0.418,0.425l-2.906,8.609l-2.905-8.609
						c-0.061-0.206-0.216-0.364-0.419-0.425c-4.186-1.421-7.223-5.428-7.223-10.164V7.583c0-1.433,0.574-2.733,1.507-3.679
						c0.933-0.948,2.212-1.531,3.635-1.531h10.822C19.242,2.373,20.521,2.956,21.455,3.904z M18.417,22.142V5.895
						c0-0.183-0.071-0.353-0.191-0.486c-0.131-0.121-0.299-0.194-0.466-0.194H7.081c-0.18,0-0.348,0.073-0.467,0.194
						C6.482,5.543,6.411,5.713,6.411,5.895v16.247c0,0.182,0.071,0.352,0.203,0.485c0.119,0.121,0.287,0.194,0.467,0.194H17.76
						c0.167,0,0.335-0.073,0.466-0.194C18.346,22.494,18.417,22.324,18.417,22.142"/>
				</g>
			</g>
			<g id="XMLID_11559_">
				<g id="XMLID_11560_">
					<path id="XMLID_11561_" fill="#2875D4" d="M14.543,12.95c0.573,0,1.04,0.473,1.04,1.068c0,0.583-0.467,1.056-1.04,1.056
						c-0.491,0-0.885-0.316-1.005-0.765h1.052v-0.583h-1.052C13.658,13.278,14.052,12.95,14.543,12.95z"/>
				</g>
			</g>
			<g id="XMLID_11556_">
				<g id="XMLID_11557_">
					<polygon id="XMLID_11558_" fill="#143B6A" points="7.009,1.026 8.181,1.026 19.003,1.026 17.831,1.026 					"/>
				</g>
			</g>
			<g id="XMLID_11553_" enable-background="new    ">
				<defs>
					<path id="XMLID_11555_" enable-background="new    " d="M17.831,1.026h1.172c3.563,0,6.457,2.938,6.457,6.557h-1.171
						C24.289,3.965,21.395,1.026,17.831,1.026z"/>
				</defs>
				<clipPath id="XMLID_19_">
					<use xlink:href="#XMLID_11555_"  overflow="visible"/>
				</clipPath>
			</g>
			<path id="XMLID_11552_" fill="#153D6E" d="M19.003,1.026h-1.172c3.564,0,6.458,2.938,6.458,6.557v9.544
				c0,5.21-3.257,9.643-7.814,11.326l-3.427,10.179c-0.096,0.268-0.349,0.278-0.511,0.438l1.335-0.26
				c0.263-0.092,0.369-0.268,0.465-0.536l3.309-9.821c4.558-1.684,7.813-6.116,7.813-11.326V7.583
				C25.46,3.965,22.566,1.026,19.003,1.026z"/>
			<g id="XMLID_11547_">
				<g id="XMLID_11548_">
					<path id="XMLID_11549_" fill="#2875D4" d="M17.831,1.026c3.564,0,6.458,2.938,6.458,6.557v9.544
						c0,5.21-3.257,9.643-7.814,11.326l-3.427,10.179c-0.096,0.268-0.347,0.449-0.634,0.449s-0.538-0.182-0.622-0.449L8.354,28.453
						C3.796,26.77,0.54,22.338,0.54,17.127V7.583c0-3.619,2.893-6.557,6.469-6.557H17.831z M22.961,17.127V7.583
						c0-1.433-0.574-2.733-1.506-3.679c-0.934-0.948-2.213-1.531-3.624-1.531H7.009c-1.423,0-2.702,0.583-3.635,1.531
						C2.441,4.85,1.867,6.15,1.867,7.583v9.544c0,4.736,3.037,8.743,7.223,10.164c0.203,0.06,0.358,0.219,0.419,0.425l2.905,8.609
						l2.906-8.609c0.071-0.206,0.215-0.364,0.418-0.425C19.936,25.869,22.961,21.863,22.961,17.127"/>
				</g>
			</g>
		</g>
	</g>
	<g id="XMLID_11542_" display="none" opacity="0.6">
		
			<image display="inline" overflow="visible" width="95" height="79" xlink:href="74B3A76.png"  transform="matrix(1 0 0 1 -34.2353 -0.7482)">
		</image>
	</g>
</g>
</svg>
