<?xml version="1.0" encoding="utf-8"?>
<!-- Generator: Adobe Illustrator 17.0.0, SVG Export Plug-In . SVG Version: 6.00 Build 0)  -->
<!DOCTYPE svg PUBLIC "-//W3C//DTD SVG 1.1//EN" "http://www.w3.org/Graphics/SVG/1.1/DTD/svg11.dtd">
<svg version="1.1" id="Слой_1" xmlns="http://www.w3.org/2000/svg" xmlns:xlink="http://www.w3.org/1999/xlink" x="0px" y="0px"
	 width="54px" height="54px" viewBox="0 0 54 54" enable-background="new 0 0 54 54" xml:space="preserve">
<g>
	<g>
		<g>
			<path fill="#FFFFFF" stroke="#2875D4" stroke-miterlimit="10" d="M53.385,3.088v47.678c0,1.354-1.092,2.446-2.437,2.446H3.261
				c-1.345,0-2.446-1.092-2.446-2.446V3.088c0-1.354,1.102-2.446,2.446-2.446h47.687C52.293,0.641,53.385,1.733,53.385,3.088z"/>
		</g>
		<g>
			<path fill="#2875D4" d="M50.948,0.135H27.109h-3.973h-1.021H20.71h-3.498h-1.405h-3.528h-1.011h-0.405H6.121H3.26
				c-1.627,0-2.952,1.324-2.952,2.952v47.677c0,1.628,1.324,2.952,2.952,2.952h47.688c1.627,0,2.942-1.324,2.942-2.952V3.087
				C53.89,1.46,52.575,0.135,50.948,0.135z M21.69,1.146l10.393,10.747h-3.498L18.192,1.146H21.69z M28.878,12.904h3.892v20.442
				h-3.892V12.904z M16.787,1.146L27.867,12.6v19.997l-4.741-4.903l-0.404-0.546v-14.75L12.278,1.601V1.146H16.787z M50.948,52.705
				H3.26c-1.072,0-1.941-0.869-1.941-1.941v-25h15.367l-4.276,4.286c-0.375,0.374-0.375,0.981,0,1.355
				c0.374,0.374,0.98,0.374,1.354,0l5.914-5.914c0.104-0.112,0.174-0.248,0.218-0.389l0.004,0.004c0-0.002,0-0.003,0.001-0.004
				l0.002,0.002c0.004-0.012,0.003-0.025,0.007-0.036c0.012-0.038,0.023-0.076,0.03-0.113c0.001-0.011-0.003-0.021-0.002-0.032
				c0.006-0.039,0.022-0.074,0.022-0.115c0-0.083-0.026-0.157-0.045-0.234c-0.006-0.025-0.006-0.05-0.015-0.075
				c-0.044-0.132-0.112-0.254-0.214-0.358c-0.004-0.004-0.004-0.011-0.009-0.015l-5.914-5.914c-0.038-0.036-0.085-0.053-0.127-0.083
				c-0.07-0.052-0.14-0.103-0.22-0.132c-0.107-0.041-0.218-0.068-0.33-0.068c-0.02,0-0.031,0-0.051,0.01
				c-0.02,0-0.03,0.01-0.05,0.01l0.001,0.001c-0.214,0.014-0.418,0.103-0.577,0.262c-0.375,0.374-0.375,0.981,0,1.355l4.276,4.286
				H1.319V3.087c0-1.072,0.869-1.941,1.941-1.941h2.861v15.558l5.743,5.935h1.891l-2.204-2.214c-0.415-0.404-0.637-0.95-0.637-1.537
				c0-0.425,0.121-0.829,0.354-1.183c0.08-0.121,0.171-0.243,0.283-0.354c0.212-0.212,0.455-0.374,0.728-0.485
				c0.253-0.101,0.525-0.152,0.809-0.152c0.576,0,1.122,0.233,1.536,0.637l5.914,5.924c0.415,0.404,0.637,0.95,0.637,1.537
				c0,0.577-0.223,1.122-0.637,1.537l-2.588,2.578l4.772,4.923v-5.135l5.227,5.419l0.06,0.071c0.05,0.05,0.101,0.081,0.162,0.112
				h0.01c0.061,0.03,0.131,0.04,0.192,0.04h4.903c0.283,0,0.505-0.222,0.505-0.505V12.398c0-0.01,0-0.01,0-0.02
				c0-0.061-0.01-0.122-0.041-0.172c0,0,0,0,0-0.01c-0.02-0.05-0.04-0.091-0.081-0.121c0-0.01-0.01-0.021-0.02-0.031L23.095,1.146
				h1.011L34.53,11.974v17.288l4.438,4.589V12.398L28.08,1.146h22.868c1.061,0,1.931,0.869,1.931,1.941v20.766h-9.895l4.276-4.286
				c0.374-0.374,0.374-0.981,0-1.355c-0.374-0.374-0.98-0.374-1.355,0l-5.924,5.914c-0.374,0.374-0.374,0.991,0,1.365l5.924,5.914
				c0.182,0.192,0.425,0.283,0.677,0.283c0.243,0,0.485-0.091,0.677-0.283c0.374-0.374,0.374-0.981,0-1.355l-4.276-4.286h9.895v25
				C52.879,51.836,52.009,52.705,50.948,52.705z"/>
		</g>
	</g>
	<g>
		<path fill="#2875D4" d="M14.786,40.841c0.603,0,1.089,0.138,1.458,0.412c0.369,0.273,0.553,0.644,0.553,1.108
			c0,0.321-0.089,0.607-0.267,0.859c-0.178,0.251-0.465,0.476-0.861,0.674c0.471,0.253,0.809,0.516,1.014,0.79
			c0.205,0.273,0.308,0.575,0.308,0.901c0,0.516-0.202,0.933-0.607,1.247c-0.405,0.314-0.937,0.471-1.597,0.471
			c-0.689,0-1.23-0.146-1.623-0.439c-0.393-0.292-0.59-0.707-0.59-1.243c0-0.358,0.095-0.678,0.286-0.956
			c0.191-0.278,0.497-0.525,0.919-0.737c-0.359-0.226-0.617-0.468-0.775-0.728c-0.158-0.258-0.237-0.54-0.237-0.848
			c0-0.45,0.187-0.816,0.56-1.094C13.7,40.98,14.186,40.841,14.786,40.841z M13.804,45.544c0,0.247,0.086,0.438,0.259,0.577
			c0.172,0.137,0.407,0.206,0.706,0.206c0.33,0,0.577-0.071,0.74-0.213c0.164-0.143,0.246-0.329,0.246-0.562
			c0-0.191-0.081-0.372-0.243-0.54c-0.162-0.168-0.426-0.346-0.79-0.536C14.11,44.757,13.804,45.112,13.804,45.544z M14.778,41.815
			c-0.227,0-0.41,0.058-0.549,0.175c-0.139,0.115-0.209,0.271-0.209,0.466c0,0.172,0.055,0.326,0.165,0.463
			c0.111,0.137,0.311,0.276,0.601,0.42c0.281-0.132,0.478-0.268,0.59-0.405c0.112-0.138,0.168-0.297,0.168-0.478
			c0-0.198-0.072-0.354-0.215-0.47C15.185,41.872,15.001,41.815,14.778,41.815z"/>
		<path fill="#2875D4" d="M19.94,43.197c0.609,0,1.093,0.171,1.453,0.512c0.36,0.342,0.54,0.81,0.54,1.403
			c0,0.704-0.217,1.245-0.65,1.624c-0.433,0.378-1.053,0.568-1.86,0.568c-0.701,0-1.266-0.114-1.697-0.339v-1.15
			c0.227,0.12,0.491,0.219,0.792,0.295c0.302,0.076,0.587,0.114,0.857,0.114c0.812,0,1.218-0.333,1.218-0.999
			c0-0.635-0.421-0.952-1.261-0.952c-0.153,0-0.32,0.014-0.504,0.045c-0.184,0.03-0.333,0.062-0.448,0.097l-0.53-0.284l0.237-3.208
			h3.414v1.128h-2.247l-0.116,1.236l0.151-0.03C19.465,43.217,19.681,43.197,19.94,43.197z"/>
		<path fill="#2875D4" d="M29.618,47.218h-1.313v-2.812c0-0.346-0.058-0.607-0.174-0.781c-0.116-0.173-0.299-0.261-0.549-0.261
			c-0.336,0-0.58,0.123-0.732,0.37c-0.152,0.247-0.228,0.653-0.228,1.218v2.265h-1.313v-4.814h1.003l0.176,0.616h0.074
			c0.129-0.221,0.315-0.393,0.56-0.519c0.244-0.124,0.524-0.186,0.839-0.186c0.721,0,1.209,0.234,1.464,0.705h0.116
			c0.129-0.224,0.319-0.398,0.571-0.521c0.251-0.124,0.535-0.185,0.851-0.185c0.545,0,0.958,0.14,1.238,0.419
			c0.28,0.28,0.42,0.729,0.42,1.346v3.138h-1.318v-2.812c0-0.346-0.058-0.607-0.175-0.781c-0.116-0.173-0.299-0.261-0.549-0.261
			c-0.321,0-0.562,0.114-0.721,0.345c-0.159,0.229-0.239,0.594-0.239,1.093V47.218z"/>
		<path fill="#2875D4" d="M38.277,47.218h-1.313v-2.812c0-0.346-0.058-0.607-0.174-0.781c-0.117-0.173-0.299-0.261-0.549-0.261
			c-0.336,0-0.58,0.123-0.732,0.37c-0.152,0.247-0.228,0.653-0.228,1.218v2.265h-1.313v-4.814h1.003l0.176,0.616h0.073
			c0.129-0.221,0.315-0.393,0.56-0.519c0.244-0.124,0.524-0.186,0.839-0.186c0.721,0,1.208,0.234,1.464,0.705h0.116
			c0.129-0.224,0.319-0.398,0.571-0.521c0.251-0.124,0.535-0.185,0.851-0.185c0.545,0,0.958,0.14,1.238,0.419
			c0.28,0.28,0.42,0.729,0.42,1.346v3.138h-1.317v-2.812c0-0.346-0.058-0.607-0.175-0.781c-0.116-0.173-0.299-0.261-0.549-0.261
			c-0.321,0-0.562,0.114-0.721,0.345c-0.159,0.229-0.239,0.594-0.239,1.093V47.218z"/>
	</g>
</g>
</svg>
