<?xml version="1.0" encoding="utf-8"?>
<!-- Generator: Adobe Illustrator 17.0.0, SVG Export Plug-In . SVG Version: 6.00 Build 0)  -->
<!DOCTYPE svg PUBLIC "-//W3C//DTD SVG 1.1//EN" "http://www.w3.org/Graphics/SVG/1.1/DTD/svg11.dtd">
<svg version="1.1" id="Слой_1" xmlns="http://www.w3.org/2000/svg" xmlns:xlink="http://www.w3.org/1999/xlink" x="0px" y="0px"
	 width="16px" height="16px" viewBox="0 0 16 16" enable-background="new 0 0 16 16" xml:space="preserve">
<path fill-rule="evenodd" clip-rule="evenodd" fill="#FFFFFF" d="M4.212,0.882c2.551-1.64,5.949-0.902,7.589,1.649
	c1.64,2.551,0.902,5.949-1.649,7.589c-2.551,1.64-5.949,0.902-7.589-1.649C0.923,5.92,1.661,2.523,4.212,0.882L4.212,0.882z
	 M11.002,9.859c-0.211,0.187-0.439,0.361-0.684,0.518c-0.245,0.157-0.497,0.293-0.756,0.407l3.308,5.206l1.44-0.926L11.002,9.859
	L11.002,9.859z M4.829,1.842c-2.021,1.3-2.606,3.992-1.306,6.013c1.3,2.021,3.992,2.606,6.013,1.306
	c2.021-1.3,2.606-3.992,1.306-6.013C9.542,1.127,6.85,0.542,4.829,1.842z"/>
</svg>
