<?xml version="1.0" encoding="utf-8"?>
<!-- Generator: Adobe Illustrator 17.0.0, SVG Export Plug-In . SVG Version: 6.00 Build 0)  -->
<!DOCTYPE svg PUBLIC "-//W3C//DTD SVG 1.1//EN" "http://www.w3.org/Graphics/SVG/1.1/DTD/svg11.dtd">
<svg version="1.1" id="Слой_1" xmlns="http://www.w3.org/2000/svg" xmlns:xlink="http://www.w3.org/1999/xlink" x="0px" y="0px"
	 width="42px" height="16px" viewBox="0 0 42 16" enable-background="new 0 0 42 16" xml:space="preserve">
<g>
	<g>
		<defs>
			<rect id="SVGID_1_" x="0.015" y="0.379" width="41.969" height="15.241"/>
		</defs>
		<clipPath id="SVGID_2_">
			<use xlink:href="#SVGID_1_"  overflow="visible"/>
		</clipPath>
		<path clip-path="url(#SVGID_2_)" fill="#FFFFFF" d="M39.22,4.631c-3.393-0.951-7.036,0.592-8.526,3.644
			c-1.831,3.734-0.574,7.342,4.434,7.342c3.518,0,6.857-2.962,6.857-6.516C41.985,6.516,41.231,5.188,39.22,4.631 M37.102,8.204
			c-0.072,1.292-0.646,4.2-1.041,4.649c-0.233,0.287-0.844,0.287-1.041-0.036c-0.197-0.305,0.036-2.387,0.144-2.98
			c0.108-0.61,0.503-2.728,0.826-3.016c0.305-0.287,0.88-0.215,1.041,0.18C37.174,7.342,37.102,7.827,37.102,8.204"/>
	</g>
	<g>
		<defs>
			<rect id="SVGID_3_" x="0.015" y="0.379" width="41.969" height="15.241"/>
		</defs>
		<clipPath id="SVGID_4_">
			<use xlink:href="#SVGID_3_"  overflow="visible"/>
		</clipPath>
		<path clip-path="url(#SVGID_4_)" fill="#FFFFFF" d="M3.374,2.118C2.979,2.28,2.422,2.639,2.099,4.452
			C1.992,4.739,0.968,4.757,0.358,5.188c-0.467,0.323-0.377,1.777-0.197,1.921C0.376,7.27,1.489,7.091,1.525,7.18
			c0.144,0.431-2.585,8.401,0.431,8.437c3.375,0.036,4.703-1.149,5.403-1.903c0.628-0.682,0.844-1.436,0.377-1.849
			c-0.521-0.449-1.957,0.808-2.136,0.377C5.402,11.776,5.761,8.06,6.174,7.127c0.072-0.162,1.849,0.036,1.921-0.108
			c0.126-0.251,0.323-2.064,0.18-2.118C8.077,4.829,6.479,4.919,6.353,4.883C6.12,4.829,6.82,2.442,6.569,2.083
			C6.264,1.67,4.164,1.795,3.374,2.118"/>
	</g>
	<g>
		<defs>
			<rect id="SVGID_5_" x="0.015" y="0.379" width="41.969" height="15.241"/>
		</defs>
		<clipPath id="SVGID_6_">
			<use xlink:href="#SVGID_5_"  overflow="visible"/>
		</clipPath>
		<path clip-path="url(#SVGID_6_)" fill="#FFFFFF" d="M12.749,0.884c1.523-0.541,2.997-0.305,3.292,0.526
			c0.295,0.832-0.7,1.944-2.223,2.485S10.821,4.2,10.526,3.369C10.231,2.537,11.226,1.425,12.749,0.884"/>
	</g>
	<g>
		<defs>
			<rect id="SVGID_7_" x="0.015" y="0.379" width="41.969" height="15.241"/>
		</defs>
		<clipPath id="SVGID_8_">
			<use xlink:href="#SVGID_7_"  overflow="visible"/>
		</clipPath>
		<path clip-path="url(#SVGID_8_)" fill="#FFFFFF" d="M10.051,5.924c1.58-1.041,4.918-2.046,5.618-0.88
			c0.233,0.377-0.233,2.89-0.574,4.523c-0.341,1.633-0.539,2.459-0.413,2.675c0.108,0.162,0.844-0.269,1.095,0.072
			c0.305,0.431,0.09,2.298-2.908,3.069c-0.736,0.197-3.285,0.898-3.285-1.669c0-0.61,0.915-4.075,1.185-5.69
			c0.036-0.197,0.108-0.341-0.467-0.323C9.226,7.719,9.405,6.355,10.051,5.924"/>
	</g>
	<g>
		<defs>
			<rect id="SVGID_9_" x="0.015" y="0.379" width="41.969" height="15.241"/>
		</defs>
		<clipPath id="SVGID_10_">
			<use xlink:href="#SVGID_9_"  overflow="visible"/>
		</clipPath>
		<path clip-path="url(#SVGID_10_)" fill="#FFFFFF" d="M28.971,7.845c-0.108-1.544-0.126-2.926-1.903-3.231
			c-1.58-0.269-2.387,0.251-2.8,0.646c-0.251,0.233-0.862,1.185-1.059,0.844c-0.197-0.359,0.018-1.633,0.215-2.908
			c0.18-1.095,0.7-2.495,0.18-2.657c-1.58-0.485-4.631,0.197-5.834,1.221c-0.144,0.126-0.323,1.239-0.054,1.544
			c0.162,0.18,1.077-0.054,1.131,0.144c0.144,0.664,0.144,1.257-0.61,5.816c-0.09,0.592-1.077,4.595,0.485,5.6
			c1.992,1.292,5.565,0.682,6.857-0.215C28.612,12.547,29.06,9.334,28.971,7.845 M24.106,10.735c-0.359,1.49-1.023,2.621-1.49,2.513
			s-0.556-1.418-0.197-2.908c0.359-1.508,1.023-2.621,1.49-2.513C24.375,7.916,24.465,9.227,24.106,10.735"/>
	</g>
</g>
</svg>
