<?xml version="1.0" encoding="utf-8"?>
<!-- Generator: Adobe Illustrator 17.0.0, SVG Export Plug-In . SVG Version: 6.00 Build 0)  -->
<!DOCTYPE svg PUBLIC "-//W3C//DTD SVG 1.1//EN" "http://www.w3.org/Graphics/SVG/1.1/DTD/svg11.dtd">
<svg version="1.1" id="Слой_1" xmlns="http://www.w3.org/2000/svg" xmlns:xlink="http://www.w3.org/1999/xlink" x="0px" y="0px"
	 width="53px" height="53px" viewBox="0 0 53 53" enable-background="new 0 0 53 53" xml:space="preserve">
<g>
	<g>
		<path fill="#FFFFFF" stroke="#2875D4" stroke-miterlimit="10" d="M52.647,3.086v47.17c0,1.34-1.08,2.42-2.41,2.42H3.067
			c-1.33,0-2.42-1.08-2.42-2.42V3.086c0-1.33,1.09-2.41,2.42-2.41h47.17C51.567,0.676,52.647,1.756,52.647,3.086z"/>
		<path fill="#2875D4" d="M50.237,53.176H3.067c-1.61,0-2.92-1.31-2.92-2.92V3.086c0-1.604,1.31-2.91,2.92-2.91h47.17
			c1.604,0,2.91,1.306,2.91,2.91v47.17C53.147,51.866,51.842,53.176,50.237,53.176z M3.067,1.176c-1.059,0-1.92,0.857-1.92,1.91
			v47.17c0,1.059,0.861,1.92,1.92,1.92h47.17c1.053,0,1.91-0.861,1.91-1.92V3.086c0-1.053-0.857-1.91-1.91-1.91H3.067z"/>
	</g>
	<g>
		<g>
			
				<rect x="9.91" y="33.108" transform="matrix(-0.7071 -0.7071 0.7071 -0.7071 -1.3085 69.0259)" fill="#EB2027" width="7.462" height="3.353"/>
		</g>
		<g>
			
				<rect x="16.786" y="31.847" transform="matrix(-0.7071 -0.7071 0.7071 -0.7071 11.7961 71.908)" fill="#EB2027" width="8.01" height="3.328"/>
		</g>
		<g>
			<polygon fill="#EB2027" points="48.148,20.693 35.008,21.873 37.04,19.84 43.794,19.067 40.804,16.077 42.167,14.713 			"/>
		</g>
		<g>
			<path fill="#2875D4" d="M4.587,36.513l-4.44-4.44v-1.754L30.3,0.176h8.384l14.463,14.473v1.754l-5,5l-5.98-5.98l-18.91,18.911
				l-4.121-4.121l-4.2,4.2l-4.129-4.121L4.587,36.513z M1.147,31.659l3.44,3.44l6.219-6.218l4.131,4.118l4.2-4.2l4.12,4.12
				l18.911-18.91l5.98,5.98l4-4v-0.926L38.27,1.176h-7.556L1.147,30.733V31.659z"/>
		</g>
		<g>
			<path fill="#2875D4" d="M29.624,53.176H21.25L7.41,39.336l4.557-4.557l3.13,3.12l4.19-4.19l5.55,5.539l18.8-18.79l9.357,9.357
				L29.624,53.176z M21.664,52.176h7.546l22.37-22.36l-7.943-7.943l-18.8,18.79l-5.549-5.541l-4.19,4.19l-3.13-3.12l-3.144,3.144
				L21.664,52.176z"/>
		</g>
	</g>
</g>
</svg>
