<?xml version="1.0" encoding="utf-8"?>
<!-- Generator: Adobe Illustrator 17.0.0, SVG Export Plug-In . SVG Version: 6.00 Build 0)  -->
<!DOCTYPE svg PUBLIC "-//W3C//DTD SVG 1.1//EN" "http://www.w3.org/Graphics/SVG/1.1/DTD/svg11.dtd">
<svg version="1.1" id="Слой_1" xmlns="http://www.w3.org/2000/svg" xmlns:xlink="http://www.w3.org/1999/xlink" x="0px" y="0px"
	 width="53px" height="53px" viewBox="0 0 53 53" enable-background="new 0 0 53 53" xml:space="preserve">
<g>
	<g>
		<path fill="#FFFFFF" stroke="#2875D4" stroke-miterlimit="10" d="M52.5,2.92v47.16c0,1.34-1.09,2.42-2.42,2.42H2.91
			c-1.331,0-2.41-1.08-2.41-2.42V2.92c0-1.34,1.08-2.42,2.41-2.42H50.08C51.41,0.5,52.5,1.58,52.5,2.92z"/>
		<path fill="#2875D4" d="M50.08,53H2.91C1.306,53,0,51.69,0,50.08V2.92C0,1.31,1.306,0,2.91,0h47.17C51.69,0,53,1.31,53,2.92v47.16
			C53,51.69,51.69,53,50.08,53z M2.91,1C1.857,1,1,1.861,1,2.92v47.16C1,51.139,1.857,52,2.91,52h47.17
			c1.059,0,1.92-0.861,1.92-1.92V2.92C52,1.861,51.139,1,50.08,1H2.91z"/>
	</g>
	<g>
		<g>
			
				<rect x="16.195" y="31.904" transform="matrix(-0.7071 -0.7071 0.7071 -0.7071 10.9984 71.8399)" fill="#EB2027" width="8.366" height="3.476"/>
		</g>
		<g>
			<polygon fill="#EB2027" points="48.951,20.254 35.227,21.486 37.35,19.363 44.404,18.556 41.281,15.433 42.705,14.008 			"/>
		</g>
		<g>
			<path fill="#2875D4" d="M5.83,39.127L0,33.297v-4.134L29.173,0h11.034L53,12.793v4.114l-4.049,4.05l-6.25-6.24l-19.75,19.75
				l-6.229-6.231L5.83,39.127z M1,32.883l4.83,4.83l10.889-10.889l6.231,6.229L42.7,13.303l6.25,6.24l3.05-3.05v-3.286L39.793,1
				H29.587L1,29.577V32.883z"/>
		</g>
		<g>
			<path fill="#2875D4" d="M30.757,53H19.703L9.692,42.989l9.117-9.117l5.8,5.8l19.63-19.63l8.76,8.76v1.954L30.757,53z M20.117,52
				h10.226L52,30.343v-1.126l-7.76-7.76l-19.63,19.63l-5.799-5.799l-7.703,7.703L20.117,52z"/>
		</g>
	</g>
</g>
</svg>
