<?xml version="1.0" encoding="utf-8"?>
<!-- Generator: Adobe Illustrator 17.0.0, SVG Export Plug-In . SVG Version: 6.00 Build 0)  -->
<!DOCTYPE svg PUBLIC "-//W3C//DTD SVG 1.1//EN" "http://www.w3.org/Graphics/SVG/1.1/DTD/svg11.dtd">
<svg version="1.1" id="Слой_1" xmlns="http://www.w3.org/2000/svg" xmlns:xlink="http://www.w3.org/1999/xlink" x="0px" y="0px"
	 width="80px" height="65px" viewBox="0 0 80 65" enable-background="new 0 0 80 65" xml:space="preserve">
<g>
	<g>
		<path fill="#FFFFFF" d="M68.908,21.258c0-6.383-5.197-11.585-11.58-11.585s-11.576,5.188-11.576,11.573
			c0,1.825,1.479,3.301,3.302,3.301c1.825,0,3.302-1.479,3.302-3.304c0-2.739,2.228-4.97,4.971-4.97s4.971,2.231,4.971,4.973
			c0,3.634-2.955,6.595-6.595,6.595H4.489c-1.825,0-3.304,1.491-3.304,3.316s1.479,3.314,3.304,3.314h51.217
			C62.983,34.471,68.908,28.537,68.908,21.258z"/>
		<path fill="#FFFFFF" d="M3.661,21.04h18.354c6.187,0,11.221-5.054,11.221-11.245c0-5.396-4.391-9.799-9.787-9.799
			S13.66,4.382,13.66,9.78c0,1.369,1.109,2.476,2.478,2.476c1.368,0,2.478-1.11,2.478-2.48c0-2.664,2.167-4.833,4.831-4.833
			s4.833,2.18,4.833,4.844c0,3.456-2.812,6.28-6.266,6.28H3.661c-1.369,0-2.478,1.117-2.478,2.487
			C1.183,19.924,2.294,21.04,3.661,21.04z"/>
		<path fill="#FFFFFF" d="M65.617,40.228H17.7c-1.823,0-3.302,1.491-3.302,3.316c0,1.823,1.479,3.313,3.302,3.313h47.917
			c3.633,0,6.593,2.944,6.593,6.579c0,2.74-2.228,4.966-4.973,4.966c-2.737,0-4.97-2.231-4.97-4.973
			c0-1.825-1.478-3.306-3.302-3.306c-1.825,0-3.302,1.478-3.302,3.302c0,6.383,5.191,11.578,11.575,11.578
			c6.383,0,11.58-5.19,11.58-11.575C78.817,46.147,72.896,40.228,65.617,40.228z"/>
	</g>
</g>
</svg>
