<?xml version="1.0" encoding="utf-8"?>
<!-- Generator: Adobe Illustrator 17.0.0, SVG Export Plug-In . SVG Version: 6.00 Build 0)  -->
<!DOCTYPE svg PUBLIC "-//W3C//DTD SVG 1.1//EN" "http://www.w3.org/Graphics/SVG/1.1/DTD/svg11.dtd" [
	<!ENTITY ns_flows "http://ns.adobe.com/Flows/1.0/">
	<!ENTITY ns_extend "http://ns.adobe.com/Extensibility/1.0/">
	<!ENTITY ns_ai "http://ns.adobe.com/AdobeIllustrator/10.0/">
	<!ENTITY ns_graphs "http://ns.adobe.com/Graphs/1.0/">
]>
<svg version="1.1" id="Слой_1" xmlns:x="&ns_extend;" xmlns:i="&ns_ai;" xmlns:graph="&ns_graphs;"
	 xmlns="http://www.w3.org/2000/svg" xmlns:xlink="http://www.w3.org/1999/xlink" xmlns:a="http://ns.adobe.com/AdobeSVGViewerExtensions/3.0/"
	 x="0px" y="0px" width="74.482px" height="73.433px" viewBox="0 0 74.482 73.433"
	 style="enable-background:new 0 0 74.482 73.433;" xml:space="preserve">
<style type="text/css">
	.st0{fill:#727272;}
</style>
<g>
	<path class="st0" d="M25.057,71.813h-4.872v1.575h5.883C26.068,73.022,26.138,71.813,25.057,71.813"/>
	<path class="st0" d="M0,73.387c0.362,0.043,1.556,0.258,1.683-0.815c0.129-1.073,0.58-4.838,0.58-4.838l-1.564-0.187
		C0.699,67.547,0.062,72.863,0,73.387"/>
	<path class="st0" d="M22.848,71.487v-8.331v-1.561c0-1.206-3.579-1.206-4.131-1.206h-2.019c-0.044,0.141-0.095,0.248-0.134,0.31
		c-0.322,0.486-1.269,2.345-1.741,3.276h3.758c0,0,1.6-0.125,1.6,1.302v6.212h2.667V71.487z"/>
	<path class="st0" d="M16.095,60.389c0.221-0.327,0.659-2.711,1.059-5.225c-1.245-1.279-3.409-3.827-3.849-5.715
		c-1.031,2.689-2.012,8.031-2.383,9.965c-0.497,2.536,0.749,8.607-0.028,9.311c-0.666,0.609-8.285-0.846-8.285-0.846l-0.344,2.683
		c0,0,9.909,1.759,11.121,1.021c0.998-0.603,0.812-7.608,0.812-7.608S15.639,61.066,16.095,60.389"/>
	<path class="st0" d="M14.267,47.893c-2.055,1.28,3.111,6.872,4.025,7.576c0.912,0.705,5.273,2.527,6.251,2.967
		c0.83,0.376,1.267-0.187,1.409-0.422c0.14-0.235,0.14-1.033-0.282-1.503c-0.423-0.469-4.958-2.358-5.923-2.965
		c-1.099-0.69-2.674-4.223-3.686-5.543C15.785,47.648,15.271,47.268,14.267,47.893"/>
	<path class="st0" d="M25.807,41.288c-0.575,0.27-3.687,4.07-4.548,4.818c-0.272,0.236-0.767,0.445-1.37,0.637
		c-0.67,0.683-1.593,1.098-2.589,1.098c-0.244,0-0.485-0.032-0.723-0.08c0.39,0.531,0.837,1.314,1.311,2.15
		c0.039,0.068,0.079,0.141,0.124,0.214c2.012-0.609,4.171-1.72,4.667-2.075c0.941-0.671,3.939-4.317,4.643-5.129
		c0.604-0.687,0.186-1.268,0.006-1.471C27.144,41.249,26.377,41.023,25.807,41.288"/>
	<path class="st0" d="M20.446,45.35c0.058-0.171,0.107-0.341,0.139-0.512c-1.969-0.319-4.414-0.847-6.541-1.425
		c-0.403,1.646,0.49,3.36,2.117,3.948C17.901,47.987,19.822,47.086,20.446,45.35"/>
	<path class="st0" d="M22.229,44.211c0,0-0.449-0.229-0.876-0.638c-0.429-0.409-0.017-2.41-2.703-3.378
		c-3.879-1.4-5.007,2.857-5.007,2.857c2.611,0.74,6.154,1.5,8.471,1.768C22.161,44.646,22.229,44.211,22.229,44.211"/>
	<path class="st0" d="M30.012,30.303h1.198v-1.176h-2.396v44.26h2.396v-1.176h-1.198c-0.093,0-0.169-0.075-0.169-0.169
		c0-0.094,0.076-0.169,0.169-0.169h1.198v-3.127h-0.758c-0.093,0-0.17-0.075-0.17-0.169c0-0.095,0.077-0.17,0.17-0.17h0.758v-3.125
		h-1.198c-0.093,0-0.169-0.075-0.169-0.169c0-0.093,0.076-0.169,0.169-0.169h1.198v-3.125h-0.758c-0.093,0-0.17-0.075-0.17-0.17
		c0-0.093,0.077-0.169,0.17-0.169h0.758v-3.125h-1.198c-0.093,0-0.169-0.076-0.169-0.169c0-0.093,0.076-0.169,0.169-0.169h1.198
		V54.89h-0.758c-0.093,0-0.17-0.075-0.17-0.169c0-0.095,0.077-0.17,0.17-0.17h0.758v-3.126h-1.198c-0.093,0-0.169-0.075-0.169-0.169
		c0-0.093,0.076-0.17,0.169-0.17h1.198v-3.125h-0.758c-0.093,0-0.17-0.075-0.17-0.169c0-0.093,0.077-0.169,0.17-0.169h0.758v-3.127
		h-1.198c-0.093,0-0.169-0.076-0.169-0.169c0-0.093,0.076-0.169,0.169-0.169h1.198v-3.124h-0.758c-0.093,0-0.17-0.075-0.17-0.169
		c0-0.093,0.077-0.17,0.17-0.17h0.758V37.57h-1.198c-0.093,0-0.169-0.076-0.169-0.169c0-0.093,0.076-0.169,0.169-0.169h1.198v-3.127
		h-0.758c-0.093,0-0.17-0.075-0.17-0.169c0-0.093,0.077-0.169,0.17-0.169h0.758v-3.126h-1.198c-0.093,0-0.169-0.074-0.169-0.169
		C29.843,30.378,29.919,30.303,30.012,30.303"/>
	<path class="st0" d="M32.148,73.356h42.334V0H32.148V73.356z M71.645,69.955H34.987V3.401h36.658V69.955z"/>
	<path class="st0" d="M37.204,65.687H69.43V7.672H37.204V65.687z M68.651,64.751h-30.67v-24.43h3.336v20.861h23.99V40.321h3.344
		V64.751z M68.651,39.387H64.53v20.862H42.094V39.387h-4.113v-5.419h4.113V13.097h22.434v20.871h4.121v5.419H68.651z M68.651,33.035
		h-3.344V12.164h-23.99v20.871h-3.336V8.604h30.67V33.035z"/>
	<path class="st0" d="M62.787,36.678c0,1.131-0.761,2.045-1.703,2.045c-0.786,0-1.438-0.625-1.641-1.487h1.72v-1.13h-1.72
		c0.203-0.86,0.855-1.485,1.641-1.485C62.026,34.623,62.787,35.538,62.787,36.678"/>
	<path class="st0" d="M61.007,36.297v0.756h-4.435c-0.17,0-0.302-0.167-0.302-0.384c0-0.207,0.132-0.372,0.302-0.372H61.007z"/>
</g>
</svg>
