<svg xmlns="http://www.w3.org/2000/svg" width="24" height="47" viewBox="0 0 24 47">
    <g fill="#FFF" fill-rule="nonzero">
        <path d="M20.526 0H3.474C1.579 0 0 1.467 0 3.228v40.207c0 1.76 1.579 3.228 3.474 3.228h16.99c1.894 0 3.473-1.467 3.473-3.228V3.228c0-1.82-1.516-3.228-3.41-3.228zm-10.42 3.052h3.789c.19 0 .316.118.316.294s-.127.293-.316.293h-3.79c-.19 0-.316-.117-.316-.293.064-.176.19-.294.316-.294zM12 44.961c-1.137 0-2.084-.88-2.084-1.937s.947-1.937 2.084-1.937 2.084.88 2.084 1.937c0 1.056-.947 1.937-2.084 1.937zm10.61-5.987c0 .352-.315.646-.694.646H2.084c-.379 0-.695-.294-.695-.646V6.926c0-.352.316-.646.695-.646h19.832c.379 0 .695.294.695.646v32.048z"/>
        <path d="M17.168 21.782h-1.136v-2.524c0-4.344-7.453-4.344-7.453 0v2.524H7.442c-.253 0-.442.176-.442.41v6.457c0 .235.19.41.442.41h9.79c.252 0 .442-.175.442-.41v-6.457c0-.234-.253-.41-.506-.41zm-4.42 3.345v2.29H11.8v-2.29c-.316-.176-.505-.47-.505-.822 0-.47.442-.88.947-.88.505 0 .947.41.947.88.064.411-.126.705-.442.822zm1.957-3.345H9.968v-2.348c0-2.818 4.737-2.759 4.737 0v2.348z"/>
    </g>
</svg>
