<?xml version="1.0" encoding="utf-8"?>
<!-- Generator: Adobe Illustrator 17.0.0, SVG Export Plug-In . SVG Version: 6.00 Build 0)  -->
<!DOCTYPE svg PUBLIC "-//W3C//DTD SVG 1.1//EN" "http://www.w3.org/Graphics/SVG/1.1/DTD/svg11.dtd">
<svg version="1.1" id="Layer_1" xmlns="http://www.w3.org/2000/svg" xmlns:xlink="http://www.w3.org/1999/xlink" x="0px" y="0px"
	 width="107px" height="231.684px" viewBox="51.474 0 107 231.684" enable-background="new 51.474 0 107 231.684"
	 xml:space="preserve">
<g>
	<g>
		<path fill="#F9E385" d="M138.105,84.105H71.842V28.053h66.263V84.105L138.105,84.105L138.105,84.105z"/>
		<path fill="#333333" d="M51.474,0v231.684h107V0H51.474z M153.421,226.579H56.579V5.105h96.842V226.579z"/>
		<path fill="#333333" d="M142.579,89.158h-11.526c-3.158,0-5.684,2.579-5.684,5.684v9c0,3.158,2.579,5.684,5.684,5.684h11.526
			c3.158,0,5.684-2.579,5.684-5.684v-9C148.316,91.737,145.737,89.158,142.579,89.158z M131.053,94.263h11.526
			c0.316,0,0.632,0.263,0.632,0.632v1.947h-12.737v-1.947C130.474,94.526,130.737,94.263,131.053,94.263z M142.579,104.474h-11.526
			c-0.316,0-0.632-0.263-0.632-0.632v-1.947h12.737v1.947C143.211,104.211,142.947,104.474,142.579,104.474z"/>
		<rect x="61.684" y="96.842" fill="#333333" width="17.842" height="5.105"/>
		<rect x="61.684" y="114.684" fill="#333333" width="86.632" height="5.105"/>
		<path fill="#333333" d="M79.526,147.789h50.947v-22.947H79.526V147.789z M84.579,142.684v-2.526h40.789v2.526H84.579z
			 M125.368,129.947v5.105H84.579v-5.105H125.368L125.368,129.947z"/>
		<rect x="61.684" y="33.105" fill="#333333" width="5.105" height="5.105"/>
		<rect x="61.684" y="43.316" fill="#333333" width="5.105" height="5.105"/>
		<rect x="61.684" y="53.526" fill="#333333" width="5.105" height="5.105"/>
		<rect x="61.684" y="63.684" fill="#333333" width="5.105" height="5.105"/>
		<rect x="61.684" y="73.895" fill="#333333" width="5.105" height="5.105"/>
		<rect x="143.211" y="33.105" fill="#333333" width="5.105" height="5.105"/>
		<rect x="143.211" y="43.316" fill="#333333" width="5.105" height="5.105"/>
		<rect x="143.211" y="53.526" fill="#333333" width="5.105" height="5.105"/>
		<rect x="143.211" y="63.684" fill="#333333" width="5.105" height="5.105"/>
		<rect x="143.211" y="73.895" fill="#333333" width="5.105" height="5.105"/>
		<path fill="#333333" d="M120.263,22.947h28.053v-5.105h-28.053v-5.632c0-2.526-2.053-4.579-4.579-4.579H94.211
			c-2.526,0-4.579,2.053-4.579,4.579v5.632H61.684v5.105h28C89.684,22.947,120.263,22.947,120.263,22.947z M94.789,12.737h20.368
			v5.105H94.789V12.737z"/>
	</g>
</g>
</svg>
