<?xml version="1.0" encoding="utf-8"?>
<!-- Generator: Adobe Illustrator 17.0.0, SVG Export Plug-In . SVG Version: 6.00 Build 0)  -->
<!DOCTYPE svg PUBLIC "-//W3C//DTD SVG 1.1//EN" "http://www.w3.org/Graphics/SVG/1.1/DTD/svg11.dtd">
<svg version="1.1" id="Capa_1" xmlns="http://www.w3.org/2000/svg" xmlns:xlink="http://www.w3.org/1999/xlink" x="0px" y="0px"
	 width="512px" height="512px" viewBox="0 0 512 512" enable-background="new 0 0 512 512" xml:space="preserve">
<g>
	<g>
		<path fill="#FFDA44" d="M436.857,75.014C388.472,26.628,324.282,0,255.871,0s-132.6,26.628-180.986,75.014
			c-93.524,93.524-100.019,243.227-16.129,344.22c-8.227,16.562-21.433,35.829-41.025,45.463
			C8.314,469.351,3.01,479.418,4.634,489.81s9.634,18.51,20.025,20.134c4.871,0.758,11.799,1.515,20.242,1.515
			c22.623,0,55.963-5.304,90.06-29.876C172.955,502.041,214.521,512,255.763,512c66.246,0,131.843-25.654,181.203-75.014
			C485.351,388.6,511.979,324.411,511.979,256S485.243,123.4,436.857,75.014z M416.182,416.311
			c-73.066,73.066-186.182,87.57-275.159,35.288c-5.845-3.464-13.098-2.381-17.752,2.273c-0.433,0.217-0.866,0.541-1.191,0.866
			c-29.334,22.731-58.128,27.494-77.179,27.494h-0.108c21.974-16.02,35.829-39.834,43.948-58.344
			c1.299-3.139,1.515-6.386,0.758-9.417c-0.325-2.923-1.515-5.845-3.572-8.227C6.691,316.726,10.804,180.337,95.452,95.689
			c88.436-88.436,232.294-88.436,320.622,0C504.619,184.125,504.619,327.875,416.182,416.311z"/>
		<circle fill="#FFDA44" cx="255.871" cy="256" r="17.969"/>
		<circle fill="#FFDA44" cx="348.529" cy="256" r="17.969"/>
		<circle fill="#FFDA44" cx="163.213" cy="256" r="17.969"/>
	</g>
</g>
</svg>
