<?xml version="1.0" encoding="utf-8"?>
<!-- Generator: Adobe Illustrator 17.0.0, SVG Export Plug-In . SVG Version: 6.00 Build 0)  -->
<!DOCTYPE svg PUBLIC "-//W3C//DTD SVG 1.1//EN" "http://www.w3.org/Graphics/SVG/1.1/DTD/svg11.dtd">
<svg version="1.1" id="Layer_1" xmlns="http://www.w3.org/2000/svg" xmlns:xlink="http://www.w3.org/1999/xlink" x="0px" y="0px"
	 width="210px" height="158px" viewBox="0 0 210 158" enable-background="new 0 0 210 158" xml:space="preserve">
<g>
	<g>
		<circle fill="#F9E385" cx="104.972" cy="78.972" r="36.846"/>
		<path fill="#333333" d="M104.972,21.063c-31.959,0-57.909,26.006-57.909,57.909s26.006,57.909,57.909,57.909
			s57.909-26.006,57.909-57.909S136.931,21.063,104.972,21.063z M104.972,131.657c-29.039,0-52.685-23.647-52.685-52.685
			s23.647-52.685,52.685-52.685s52.685,23.647,52.685,52.685S134.011,131.657,104.972,131.657z"/>
		<rect x="102.332" y="0" fill="#333333" width="5.28" height="18.423"/>
		
			<rect x="84.297" y="2.356" transform="matrix(0.9659 -0.2588 0.2588 0.9659 -0.0316 22.894)" fill="#333333" width="5.28" height="18.421"/>
		
			<rect x="67.466" y="9.38" transform="matrix(0.866 -0.5 0.5 0.866 0.0968 37.5449)" fill="#333333" width="5.28" height="18.423"/>
		
			<rect x="53.02" y="20.439" transform="matrix(0.7071 -0.7071 0.7071 0.7071 -4.6639 48.0419)" fill="#333333" width="5.28" height="18.423"/>
		
			<rect x="41.931" y="34.856" transform="matrix(0.5 -0.866 0.866 0.5 -15.8781 60.6325)" fill="#333333" width="5.28" height="18.423"/>
		
			<rect x="34.973" y="51.688" transform="matrix(0.2588 -0.9659 0.9659 0.2588 -30.9457 81.4688)" fill="#333333" width="5.28" height="18.421"/>
		<rect x="26" y="76.332" fill="#333333" width="18.423" height="5.28"/>
		
			<rect x="28.366" y="94.423" transform="matrix(0.9659 -0.2588 0.2588 0.9659 -23.8403 13.0323)" fill="#333333" width="18.421" height="5.28"/>
		
			<rect x="35.317" y="111.226" transform="matrix(0.866 -0.5 0.5 0.866 -50.9682 37.5205)" fill="#333333" width="18.423" height="5.28"/>
		
			<rect x="46.46" y="125.691" transform="matrix(0.7071 -0.7071 0.7071 0.7071 -74.4378 76.9525)" fill="#333333" width="18.423" height="5.28"/>
		
			<rect x="60.886" y="136.773" transform="matrix(0.5 -0.866 0.866 0.5 -85.6863 130.4108)" fill="#333333" width="18.423" height="5.28"/>
		
			<rect x="77.713" y="143.718" transform="matrix(0.2588 -0.9659 0.9659 0.2588 -76.9444 192.4419)" fill="#333333" width="18.421" height="5.28"/>
		<rect x="102.332" y="139.521" fill="#333333" width="5.28" height="18.423"/>
		
			<rect x="120.419" y="137.159" transform="matrix(0.9659 -0.2588 0.2588 0.9659 -33.689 36.8355)" fill="#333333" width="5.28" height="18.421"/>
		
			<rect x="137.212" y="130.204" transform="matrix(0.866 -0.5 0.5 0.866 -50.9718 88.6065)" fill="#333333" width="5.28" height="18.423"/>
		
			<rect x="151.711" y="119.109" transform="matrix(0.7071 -0.7071 0.7071 0.7071 -45.528 146.7269)" fill="#333333" width="5.28" height="18.423"/>
		
			<rect x="162.754" y="104.642" transform="matrix(0.5 -0.866 0.866 0.5 -15.9037 200.1595)" fill="#333333" width="5.28" height="18.423"/>
		
			<rect x="169.744" y="87.846" transform="matrix(0.2588 -0.9659 0.9659 0.2588 34.0197 238.4487)" fill="#333333" width="5.28" height="18.421"/>
		<rect x="165.521" y="76.332" fill="#333333" width="18.423" height="5.28"/>
		
			<rect x="163.169" y="58.301" transform="matrix(0.9659 -0.2588 0.2588 0.9659 -9.8989 46.6895)" fill="#333333" width="18.421" height="5.28"/>
		
			<rect x="156.19" y="41.453" transform="matrix(0.866 -0.5 0.5 0.866 0.1138 88.6098)" fill="#333333" width="18.423" height="5.28"/>
		
			<rect x="145.129" y="26.999" transform="matrix(0.7071 -0.7071 0.7071 0.7071 24.2474 117.8164)" fill="#333333" width="18.423" height="5.28"/>
		
			<rect x="130.673" y="15.949" transform="matrix(0.5 -0.866 0.866 0.5 53.8425 130.4365)" fill="#333333" width="18.423" height="5.28"/>
		
			<rect x="113.866" y="8.947" transform="matrix(0.2588 -0.9659 0.9659 0.2588 80.0313 127.4719)" fill="#333333" width="18.421" height="5.28"/>
		
			<rect x="93.739" y="8.484" transform="matrix(0.9914 -0.1306 0.1306 0.9914 -0.9683 12.7052)" fill="#333333" width="5.28" height="10.503"/>
		
			<rect x="77.165" y="12.915" transform="matrix(0.9239 -0.3826 0.3826 0.9239 -0.8784 31.9161)" fill="#333333" width="5.28" height="10.503"/>
		
			<rect x="62.282" y="21.504" transform="matrix(0.7934 -0.6086 0.6086 0.7934 -2.8747 45.0401)" fill="#333333" width="5.279" height="10.502"/>
		
			<rect x="50.128" y="33.629" transform="matrix(0.6086 -0.7934 0.7934 0.6086 -10.1981 57.0843)" fill="#333333" width="5.279" height="10.502"/>
		
			<rect x="41.527" y="48.518" transform="matrix(0.3826 -0.9239 0.9239 0.3826 -22.4096 74.0034)" fill="#333333" width="5.28" height="10.503"/>
		
			<rect x="37.104" y="65.112" transform="matrix(0.1309 -0.9914 0.9914 0.1309 -35.2172 100.5549)" fill="#333333" width="5.28" height="10.503"/>
		
			<rect x="34.48" y="84.925" transform="matrix(0.9914 -0.1309 0.1309 0.9914 -11.1203 5.9543)" fill="#333333" width="10.503" height="5.28"/>
		
			<rect x="38.927" y="101.552" transform="matrix(0.9239 -0.3826 0.3826 0.9239 -36.5031 24.8306)" fill="#333333" width="10.503" height="5.28"/>
		
			<rect x="47.523" y="116.432" transform="matrix(0.7934 -0.6087 0.6087 0.7934 -61.5762 56.724)" fill="#333333" width="10.503" height="5.28"/>
		
			<rect x="59.657" y="128.583" transform="matrix(0.6087 -0.7934 0.7934 0.6087 -78.7139 102.8464)" fill="#333333" width="10.503" height="5.28"/>
		
			<rect x="74.544" y="137.173" transform="matrix(0.3826 -0.9239 0.9239 0.3826 -79.9094 160.0433)" fill="#333333" width="10.503" height="5.28"/>
		
			<rect x="91.138" y="141.595" transform="matrix(0.1309 -0.9914 0.9914 0.1309 -59.2224 220.9149)" fill="#333333" width="10.503" height="5.28"/>
		
			<rect x="110.922" y="138.96" transform="matrix(0.9914 -0.1306 0.1306 0.9914 -17.862 16.0669)" fill="#333333" width="5.28" height="10.503"/>
		
			<rect x="127.542" y="134.517" transform="matrix(0.9239 -0.3826 0.3826 0.9239 -43.5707 60.4429)" fill="#333333" width="5.28" height="10.503"/>
		
			<rect x="142.418" y="125.915" transform="matrix(0.7934 -0.6086 0.6086 0.7934 -49.8707 115.3797)" fill="#333333" width="5.279" height="10.502"/>
		
			<rect x="154.558" y="113.789" transform="matrix(0.6086 -0.7934 0.7934 0.6086 -32.9316 171.3157)" fill="#333333" width="5.279" height="10.502"/>
		
			<rect x="163.147" y="98.914" transform="matrix(0.3826 -0.9239 0.9239 0.3826 6.1162 217.4834)" fill="#333333" width="5.28" height="10.503"/>
		
			<rect x="167.622" y="82.339" transform="matrix(0.1309 -0.9914 0.9914 0.1309 61.1379 244.9223)" fill="#333333" width="5.28" height="10.503"/>
		
			<rect x="164.957" y="67.742" transform="matrix(0.9914 -0.1306 0.1306 0.9914 -7.7343 22.8329)" fill="#333333" width="10.503" height="5.28"/>
		
			<rect x="160.529" y="51.176" transform="matrix(0.9239 -0.3826 0.3826 0.9239 -7.9763 67.523)" fill="#333333" width="10.503" height="5.28"/>
		
			<rect x="151.937" y="36.3" transform="matrix(0.7934 -0.6087 0.6087 0.7934 8.7726 103.7259)" fill="#333333" width="10.503" height="5.28"/>
		
			<rect x="139.82" y="24.147" transform="matrix(0.6087 -0.7934 0.7934 0.6087 35.5135 125.582)" fill="#333333" width="10.503" height="5.28"/>
		
			<rect x="124.939" y="15.554" transform="matrix(0.3826 -0.9239 0.9239 0.3826 63.5692 131.5168)" fill="#333333" width="10.503" height="5.28"/>
		
			<rect x="108.364" y="11.078" transform="matrix(0.1309 -0.9914 0.9914 0.1309 85.1435 124.5608)" fill="#333333" width="10.503" height="5.28"/>
	</g>
</g>
<g enable-background="new    ">
	<path d="M67.266,82.669c0-0.094,0-0.252,0-0.476s0.012-0.417,0.035-0.582c0-0.07,0.041-0.152,0.123-0.247
		c0.082-0.093,0.17-0.141,0.265-0.141c0.282-0.023,0.74-0.035,1.375-0.035h1.339c0.071,0,0.146,0.041,0.229,0.123
		c0.082,0.083,0.123,0.159,0.123,0.229c0.094,0.611,0.142,1.258,0.142,1.938c0,0.683,0,1.093,0,1.234
		c0,0.775-0.194,1.691-0.582,2.749s-1.005,1.986-1.851,2.785s-1.927,1.198-3.243,1.198c-1.058,0-2.033-0.241-2.926-0.723
		c-0.894-0.481-1.616-1.228-2.168-2.238c-0.553-1.01-0.828-2.291-0.828-3.843V73.539c0.023-1.527,0.41-2.979,1.163-4.354
		c0.752-1.375,2.232-2.063,4.441-2.063c2.232,0,3.73,0.623,4.495,1.868c0.763,1.246,1.146,2.586,1.146,4.019
		c0,0.259-0.006,0.44-0.018,0.547c-0.013,0.105-0.018,0.171-0.018,0.193c0,0.259-0.042,0.453-0.124,0.582s-0.335,0.193-0.758,0.193
		l-1.586,0.036c-0.4,0-0.652-0.041-0.758-0.124c-0.106-0.082-0.194-0.275-0.265-0.581c-0.023-0.118-0.059-0.429-0.105-0.935
		c-0.048-0.505-0.177-1.034-0.388-1.586c-0.212-0.553-0.611-0.829-1.199-0.829c-0.939,0-1.568,0.353-1.886,1.058
		s-0.476,1.423-0.476,2.15c-0.023,0.894-0.035,4.371-0.035,10.435c0,1.34,0.17,2.28,0.511,2.82c0.341,0.541,0.864,0.811,1.568,0.811
		c0.987,0,1.616-0.546,1.887-1.639C67.165,85.049,67.288,83.892,67.266,82.669z"/>
	<path d="M78.087,75.336c0,0.117,0.153,0.176,0.459,0.176c0.375,0,0.793-0.105,1.251-0.317c0.458-0.211,0.852-0.558,1.181-1.04
		c0.329-0.481,0.494-1.086,0.494-1.815c0-0.587-0.013-1.104-0.035-1.551c0-0.423-0.006-0.928-0.018-1.516
		c-0.013-0.587-0.006-0.893,0.018-0.917c0.022-0.022,0.353-0.035,0.986-0.035h1.552c0.446,0,0.71,0.042,0.793,0.124
		c0.082,0.082,0.135,0.347,0.158,0.793v1.233c0,1.716-0.012,2.738-0.035,3.067c-0.047,0.541-0.224,1.146-0.528,1.815
		c-0.306,0.67-0.753,1.169-1.34,1.498c-0.141,0.07-0.211,0.153-0.211,0.247c0,0.07,0.07,0.152,0.211,0.246
		c0.658,0.4,1.222,1.011,1.692,1.833c0.399,0.753,0.563,1.669,0.493,2.75v4.406c0,2.397-0.012,3.69-0.035,3.878
		c0,0.07-0.023,0.147-0.07,0.229c-0.048,0.082-0.095,0.123-0.141,0.123c-0.165,0.023-0.612,0.035-1.34,0.035
		c-1.011,0-1.558-0.006-1.64-0.018s-0.141-0.088-0.176-0.229c-0.035-0.141-0.065-0.528-0.088-1.163c0-0.963-0.013-1.81-0.036-2.538
		c0-3.031-0.023-4.876-0.07-5.534c-0.07-0.564-0.294-1.04-0.67-1.428c-0.376-0.388-0.811-0.641-1.304-0.758
		c-0.33-0.094-0.6-0.142-0.811-0.142c-0.494,0-0.741,0.317-0.741,0.953l-0.105,10.329c0,0.306-0.176,0.481-0.528,0.528
		c-0.423,0.047-1.046,0.07-1.868,0.07c-0.612,0-0.987-0.035-1.129-0.105c-0.07-0.047-0.105-0.164-0.105-0.353V68.85
		c0-0.235,0.029-0.399,0.088-0.494c0.059-0.093,0.194-0.141,0.406-0.141c0.704,0,1.598-0.023,2.679-0.07
		c0.188,0,0.317,0.029,0.388,0.088s0.105,0.171,0.105,0.335v0.105C78.017,72.222,78.04,74.443,78.087,75.336z"/>
	<path d="M93.069,80.378c0.258-0.588,0.992-2.439,2.203-5.553c1.21-3.113,2.05-5.281,2.521-6.504
		c0.023-0.117,0.423-0.176,1.198-0.176h0.74c0.164,0,0.347,0.006,0.547,0.018c0.199,0.012,0.382,0.006,0.546-0.018
		c0.212-0.023,0.358,0,0.441,0.07c0.082,0.07,0.123,0.212,0.123,0.423v5.887v15.758c0,0.165-0.458,0.247-1.375,0.247l-1.305-0.035
		c-0.352-0.023-0.552-0.106-0.599-0.247c-0.048-0.141-0.083-0.528-0.105-1.163L97.934,77.91c0-0.047-0.012-0.111-0.035-0.194
		c-0.023-0.082-0.059-0.123-0.105-0.123c-0.048,0-0.177,0.271-0.388,0.811c-0.729,1.787-1.751,4.225-3.067,7.315
		c-1.316,3.091-2.068,4.684-2.256,4.777c-0.141,0.07-0.423,0.105-0.846,0.105c-0.611,0-1.199-0.047-1.763-0.141
		c-0.376-0.094-0.564-0.341-0.564-0.74c-0.023-1.574-0.047-4.06-0.07-7.456c-0.023-3.396-0.035-6.751-0.035-10.065
		c0-1.151,0.006-1.944,0.018-2.38c0.012-0.435,0.018-0.687,0.018-0.758c0.047-0.328,0.142-0.558,0.282-0.688
		c0.141-0.129,0.376-0.217,0.705-0.264l0.846-0.035c0.306,0,0.717,0.023,1.234,0.07c0.07,0.023,0.141,0.105,0.211,0.246
		c0.07,0.142,0.106,0.271,0.106,0.389v0.035L92.188,81.4c0,0.352,0.036,0.528,0.106,0.528s0.188-0.177,0.353-0.528
		C92.811,81.048,92.951,80.707,93.069,80.378z"/>
	<path d="M116.617,68.638c0.047,0,0.1,0.035,0.158,0.105c0.059,0.071,0.088,0.142,0.088,0.212c-0.047,1.128-0.07,3.361-0.07,6.698
		c0,5.71,0.035,9.119,0.106,10.223c0.022,0.306,0.07,0.493,0.141,0.563c0.07,0.071,0.27,0.106,0.6,0.106
		c0.61,0,1.058,0.012,1.339,0.035c0.423,0.047,0.635,0.235,0.635,0.563v0.071l-0.035,0.951c0,0.518-0.023,1.105-0.07,1.763
		c-0.023,0.353-0.306,0.553-0.847,0.6l-4.194,0.035c-5.923,0-9.201,0.023-9.835,0.07c-0.235,0.023-0.399-0.018-0.494-0.123
		c-0.094-0.106-0.141-0.312-0.141-0.617V89.72c0.023-0.212,0.029-0.481,0.018-0.812c-0.012-0.328-0.018-0.575-0.018-0.74
		c0-0.282,0.012-0.481,0.035-0.599c0.07-0.376,0.271-0.564,0.6-0.564h0.07l1.375-0.035c0.258,0,0.388-0.105,0.388-0.317v-0.07
		c-0.024-1.104-0.035-2.444-0.035-4.019s-0.013-3.126-0.036-4.654c0-4.418-0.023-7.215-0.07-8.39c0-0.376,0.059-0.623,0.177-0.74
		c0.117-0.118,0.364-0.2,0.74-0.247h1.621C113.538,68.533,116.123,68.568,116.617,68.638z M113.269,72.446
		c0-0.282-0.13-0.423-0.389-0.423c-1.081,0-1.903-0.012-2.467-0.036c-0.259,0-0.388,0.142-0.388,0.424
		c0.046,0.423,0.07,0.729,0.07,0.916c0.022,0.635,0.035,3.467,0.035,8.497l0.035,4.794c0,0.07,0.029,0.141,0.088,0.212
		c0.059,0.07,0.111,0.105,0.159,0.105c1.175,0,2.056-0.012,2.644-0.035c0.141,0,0.24-0.035,0.3-0.106
		c0.059-0.07,0.088-0.188,0.088-0.353c-0.023-0.54-0.035-1.269-0.035-2.186c0-0.916-0.013-1.833-0.035-2.749
		C113.374,76.899,113.339,73.879,113.269,72.446z"/>
	<path d="M125.958,75.336c0,0.117,0.153,0.176,0.459,0.176c0.375,0,0.793-0.105,1.251-0.317c0.458-0.211,0.852-0.558,1.181-1.04
		c0.329-0.481,0.494-1.086,0.494-1.815c0-0.587-0.013-1.104-0.035-1.551c0-0.423-0.006-0.928-0.018-1.516
		c-0.013-0.587-0.006-0.893,0.018-0.917c0.022-0.022,0.353-0.035,0.986-0.035h1.552c0.446,0,0.71,0.042,0.793,0.124
		c0.082,0.082,0.135,0.347,0.158,0.793v1.233c0,1.716-0.012,2.738-0.035,3.067c-0.047,0.541-0.224,1.146-0.528,1.815
		c-0.306,0.67-0.753,1.169-1.34,1.498c-0.141,0.07-0.211,0.153-0.211,0.247c0,0.07,0.07,0.152,0.211,0.246
		c0.658,0.4,1.222,1.011,1.692,1.833c0.399,0.753,0.563,1.669,0.493,2.75v4.406c0,2.397-0.012,3.69-0.035,3.878
		c0,0.07-0.023,0.147-0.07,0.229c-0.048,0.082-0.095,0.123-0.141,0.123c-0.165,0.023-0.612,0.035-1.34,0.035
		c-1.011,0-1.558-0.006-1.64-0.018s-0.141-0.088-0.176-0.229c-0.035-0.141-0.065-0.528-0.088-1.163c0-0.963-0.013-1.81-0.036-2.538
		c0-3.031-0.023-4.876-0.07-5.534c-0.07-0.564-0.294-1.04-0.67-1.428c-0.376-0.388-0.811-0.641-1.304-0.758
		c-0.33-0.094-0.6-0.142-0.811-0.142c-0.494,0-0.741,0.317-0.741,0.953l-0.105,10.329c0,0.306-0.176,0.481-0.528,0.528
		c-0.423,0.047-1.046,0.07-1.868,0.07c-0.612,0-0.987-0.035-1.129-0.105c-0.07-0.047-0.105-0.164-0.105-0.353V68.85
		c0-0.235,0.029-0.399,0.088-0.494c0.059-0.093,0.194-0.141,0.406-0.141c0.704,0,1.598-0.023,2.679-0.07
		c0.188,0,0.317,0.029,0.388,0.088s0.105,0.171,0.105,0.335v0.105C125.888,72.222,125.911,74.443,125.958,75.336z"/>
	<path d="M141.046,68.673c0.07,0,0.664-0.005,1.78-0.018c1.116-0.012,1.697,0.077,1.745,0.265c0.164,0.541,0.67,2.703,1.516,6.486
		c0.846,3.784,1.387,6.181,1.622,7.192l1.41,6.274c0.07,0.282,0.105,0.506,0.105,0.67c0,0.235-0.07,0.418-0.212,0.547
		c-0.141,0.129-0.376,0.252-0.705,0.37c-0.47,0.164-0.951,0.305-1.445,0.423c-0.188,0.047-0.317,0.07-0.388,0.07
		c-0.164,0-0.294-0.053-0.388-0.158c-0.094-0.106-0.165-0.276-0.211-0.512l-0.776-3.596c-0.07-0.258-0.246-0.388-0.528-0.388
		l-3.913,0.035c-0.094,0-0.188,0.041-0.282,0.124c-0.094,0.082-0.164,0.17-0.211,0.264c-0.095,0.235-0.235,0.735-0.423,1.498
		c-0.188,0.765-0.306,1.217-0.353,1.357c-0.142,0.353-0.3,0.605-0.477,0.758c-0.176,0.153-0.405,0.229-0.688,0.229
		c-0.094,0-0.281-0.023-0.563-0.07c-0.306-0.07-0.576-0.117-0.811-0.142c-0.235-0.022-0.424-0.047-0.564-0.07
		c-0.423-0.07-0.635-0.27-0.635-0.6c0-0.117,0.013-0.199,0.035-0.246l1.692-6.592L141.046,68.673z M142.597,76.077
		c-0.094,0.353-0.329,1.445-0.705,3.278c-0.306,1.458-0.54,2.527-0.704,3.208c-0.071,0.282,0.022,0.423,0.281,0.423
		c0.564,0,1.293-0.023,2.186-0.07c0.235,0,0.394-0.023,0.477-0.07c0.082-0.047,0.123-0.142,0.123-0.282
		c0-0.164-0.012-0.294-0.035-0.388c-0.048-0.188-0.212-1.151-0.493-2.891l-0.317-1.869c-0.235-1.175-0.436-1.762-0.6-1.762
		C142.762,75.654,142.69,75.794,142.597,76.077z"/>
</g>
</svg>
