<?xml version="1.0" encoding="utf-8"?>
<!-- Generator: Adobe Illustrator 17.0.0, SVG Export Plug-In . SVG Version: 6.00 Build 0)  -->
<!DOCTYPE svg PUBLIC "-//W3C//DTD SVG 1.1//EN" "http://www.w3.org/Graphics/SVG/1.1/DTD/svg11.dtd">
<svg version="1.1" id="Layer_1_copy_5" xmlns="http://www.w3.org/2000/svg" xmlns:xlink="http://www.w3.org/1999/xlink" x="0px"
	 y="0px" width="70.567px" height="70.566px" viewBox="0 0 70.567 70.566" enable-background="new 0 0 70.567 70.566"
	 xml:space="preserve">
<g>
	<g>
		<path fill="#333333" d="M35.284,70.566C15.828,70.566,0,54.738,0,35.283S15.828,0,35.284,0s35.284,15.828,35.284,35.283
			S54.739,70.566,35.284,70.566z M35.284,3C17.482,3,3,17.482,3,35.283s14.482,32.283,32.284,32.283s32.284-14.482,32.284-32.283
			S53.085,3,35.284,3z"/>
	</g>
	<g>
		<path fill-rule="evenodd" clip-rule="evenodd" fill="#F9E385" d="M56.329,35.281H35.28L24.77,17.066
			c3.086-1.795,6.686-2.824,10.51-2.824C46.903,14.242,56.329,23.658,56.329,35.281z"/>
	</g>
	<g>
		<circle fill-rule="evenodd" clip-rule="evenodd" fill="#333333" cx="35.284" cy="35.283" r="2.419"/>
	</g>
	<g>
		<rect x="33.784" y="1.5" fill="#333333" width="3" height="5.649"/>
	</g>
	<g>
		
			<rect x="16.979" y="6.972" transform="matrix(0.4999 0.8661 -0.8661 0.4999 17.2413 -12.9153)" fill="#333333" width="5.65" height="3"/>
	</g>
	<g>
		
			<rect x="5.648" y="18.304" transform="matrix(0.8661 0.4999 -0.4999 0.8661 11.0353 -1.5833)" fill="#333333" width="5.649" height="3"/>
	</g>
	<g>
		<rect x="1.5" y="33.783" fill="#333333" width="5.65" height="3"/>
	</g>
	<g>
		
			<rect x="6.973" y="47.938" transform="matrix(0.5001 0.866 -0.866 0.5001 48.1958 18.041)" fill="#333333" width="3" height="5.649"/>
	</g>
	<g>
		
			<rect x="18.304" y="59.269" transform="matrix(0.8661 0.4999 -0.4999 0.8661 33.6945 -1.5845)" fill="#333333" width="3" height="5.65"/>
	</g>
	<g>
		<rect x="33.784" y="63.417" fill="#333333" width="3" height="5.649"/>
	</g>
	<g>
		
			<rect x="47.938" y="60.594" transform="matrix(0.5 0.866 -0.866 0.5 79.1579 -12.9147)" fill="#333333" width="5.651" height="3"/>
	</g>
	<g>
		
			<rect x="59.27" y="49.263" transform="matrix(0.8661 0.4999 -0.4999 0.8661 33.6914 -24.2431)" fill="#333333" width="5.65" height="3"/>
	</g>
	<g>
		<rect x="63.418" y="33.783" fill="#333333" width="5.649" height="3"/>
	</g>
	<g>
		
			<rect x="60.595" y="16.979" transform="matrix(0.5001 0.866 -0.866 0.5001 48.1935 -43.873)" fill="#333333" width="3" height="5.65"/>
	</g>
	<g>
		
			<rect x="49.263" y="5.647" transform="matrix(0.866 0.5001 -0.5001 0.866 11.0394 -24.2493)" fill="#333333" width="3" height="5.651"/>
	</g>
	<g>
		<path fill="#333333" d="M56.834,36.783h-21.55c-0.829,0-1.5-0.672-1.5-1.5s0.671-1.5,1.5-1.5h21.55c0.829,0,1.5,0.672,1.5,1.5
			S57.663,36.783,56.834,36.783z"/>
	</g>
	<g>
		<path fill="#333333" d="M35.285,36.783c-0.519,0-1.022-0.269-1.3-0.75L23.21,17.37c-0.415-0.718-0.168-1.635,0.549-2.049
			c0.719-0.415,1.635-0.168,2.049,0.549l10.775,18.663c0.415,0.718,0.168,1.635-0.549,2.049
			C35.797,36.719,35.54,36.783,35.285,36.783z"/>
	</g>
</g>
</svg>
